<?xml version="1.0" encoding="UTF-8"?>
<svg xmlns="http://www.w3.org/2000/svg" xmlns:xlink="http://www.w3.org/1999/xlink" version="1.2" >
<font id="NissanAG-MedExtItal">
<font-face  font-family="NissanAG" units-per-em="1000" ascent="750" descent="-250" font-style="normal" font-weight="400" font-stretch="expanded" slope="-11" cap-height="750" x-height="500" underline-position="-75" underline-thickness="50" />
<missing-glyph  horiz-adv-x="1000" d="" />
<glyph glyph-name="null" d="" />
<glyph glyph-name="nonmarkingreturn" unicode="&#xd;" horiz-adv-x="250" d="" />
<glyph glyph-name="space" unicode="&#x20;" horiz-adv-x="375" d="" />
<glyph glyph-name="exclam" unicode="&#x21;" horiz-adv-x="333" d="M296 426 Q291 411 285.5 396.5 Q280 382 275 367 L219 208 L106 208 L128 380 Q130 394 131.5 409.5 Q133 425 136 439 L197 706 L360 706 L296 426 Z M197 0 L34 0 L63 125 L226 125 L197 0 Z " />
<glyph glyph-name="quotedbl" unicode="&#x22;" horiz-adv-x="328" d="M298 452 L274 452 L300 740 L407 740 L298 452 Z M109 452 L84 452 L111 740 L218 740 L109 452 Z " />
<glyph glyph-name="numbersign" unicode="&#x23;" horiz-adv-x="691" d="M676 408 L537 408 L506 314 L643 314 L620 214 L476 214 L408 0 L307 0 L375 214 L245 214 L177 0 L75 0 L143 214 L1 214 L24 314 L173 314 L203 408 L57 408 L80 508 L234 508 L295 706 L399 706 L337 508 L466 508 L528 706 L629 706 L567 508 L699 508 L676 408 Z M305 408 L274 314 L406 314 L436 408 L305 408 Z " />
<glyph glyph-name="dollar" unicode="&#x24;" horiz-adv-x="812" d="M632 506 Q623 526 612.5 539.5 Q602 553 587.5 563 Q573 573 553 580 Q533 587 504 594 L464 423 Q478 420 492.5 416.5 Q507 413 519 410 Q533 406 547 403 Q575 396 605 385 Q634 374 652.5 363.5 Q671 353 688 337 Q713 314 724.5 286.5 Q736 259 736 223 Q736 106 644 42.5 Q552 -21 384 -21 L362 -21 L333 -146 L251 -146 L281 -16 Q255 -12 237 -8.5 Q219 -5 205 -1.5 Q191 2 178.5 6.5 Q166 11 150 17 Q108 35 69 68 Q43 91 26 114 Q9 137 -11 180 L-16 191 L150 230 Q167 184 208 154.5 Q249 125 311 114 L355 299 Q338 304 325 307 Q312 310 304 312 Q272 320 247 328.5 Q222 337 202 346 Q94 396 94 499 Q94 541 113.5 582 Q133 623 165 652 Q208 690 273 708 Q338 726 431 726 Q436 726 440.5 726 Q445 726 453 725 L476 829 L558 829 L533 720 Q557 717 574 713.5 Q591 710 605 706.5 Q619 703 633 697.5 Q647 692 665 684 Q707 665 740 634 Q751 624 759 614.5 Q767 605 773.5 595 Q780 585 786.5 572.5 Q793 560 800 543 L632 506 Z M414 602 Q343 602 304 578.5 Q265 555 265 513 Q265 499 272 487.5 Q279 476 293 470 Q314 460 386 441 L424 602 L414 602 Z M566 203 Q566 234 544 248 Q531 257 505.5 265 Q480 273 433 284 L392 108 Q411 108 435.5 109.5 Q460 111 485 119 Q517 129 541.5 148.5 Q566 168 566 203 Z " />
<glyph glyph-name="percent" unicode="&#x25;" horiz-adv-x="1125" d="M1094 258 Q1094 197 1075 147.5 Q1056 98 1022 62.5 Q988 27 941.5 8 Q895 -11 841 -11 Q742 -11 687.5 37.5 Q633 86 633 174 Q633 234 651.5 284 Q670 334 704 369.5 Q738 405 785 424.5 Q832 444 889 444 Q958 444 1009 418 Q1060 392 1082 337 Q1089 320 1091.5 300.5 Q1094 281 1094 258 Z M332 -27 L270 18 L793 670 L857 625 L332 -27 Z M493 466 Q490 405 471 355.5 Q452 306 419 271 Q386 236 340.5 216.5 Q295 197 241 197 Q142 197 87.5 245.5 Q33 294 33 382 Q33 442 51.5 492 Q70 542 103.5 578 Q137 614 184 633.5 Q231 653 288 653 Q333 653 371 642 Q409 631 437 607.5 Q465 584 480 549 Q495 514 493 466 Z M973 267 Q973 309 951.5 332.5 Q930 356 891 356 Q857 356 834.5 345 Q812 334 792 305 Q775 279 765 243.5 Q755 208 755 175 Q755 81 843 81 Q870 81 893.5 95.5 Q917 110 934.5 135.5 Q952 161 962.5 195 Q973 229 973 267 Z M372 475 Q372 517 351 541 Q330 565 291 565 Q257 565 234.5 553.5 Q212 542 192 513 Q175 487 165 451.5 Q155 416 155 383 Q155 289 243 289 Q270 289 293.5 303.5 Q317 318 334.5 343.5 Q352 369 362 403 Q372 437 372 475 Z " />
<glyph glyph-name="ampersand" unicode="&#x26;" horiz-adv-x="792" d="M736 250 Q718 219 706.5 203 Q695 187 678 168 Q662 151 650 141 Q638 131 615 115 L706 0 L506 0 L480 37 Q473 34 468.5 31.5 Q464 29 461 27 Q425 9 369.5 -1.5 Q314 -12 255 -12 Q142 -12 80 27 Q42 50 21 86 Q0 122 0 164 Q0 218 27 258 Q46 287 78 308 Q94 319 108.5 326 Q123 333 140 339.5 Q157 346 179.5 352 Q202 358 235 366 Q217 388 209 400 Q201 412 195 427 Q184 455 184 485 Q184 564 244.5 609 Q305 654 411 654 Q512 654 571 614 Q630 574 630 507 Q630 468 611 435 Q603 423 593.5 411.5 Q584 400 572 390 Q559 380 547.5 372 Q536 364 521.5 357 Q507 350 489 344 Q471 338 446 330 L537 213 Q544 221 548 224.5 Q552 228 557 235 Q564 242 568 247 Q572 252 579 262 L736 250 Z M482 497 Q482 518 463 530.5 Q444 543 412 543 Q380 543 362 529 Q344 515 344 489 Q344 471 357 448 Q362 440 366 434 Q370 428 381 414 Q414 426 429 433 Q444 440 457 451 Q482 472 482 497 Z M298 278 Q279 272 268 269 Q237 260 218 251.5 Q199 243 186 233 Q173 222 165.5 207 Q158 192 158 177 Q158 141 189 119.5 Q220 98 271 98 Q296 98 326 104 Q347 109 363.5 114 Q380 119 409 131 L298 278 Z " />
<glyph glyph-name="quotesingle" unicode="&#x27;" horiz-adv-x="138" d="M109 452 L84 452 L111 740 L218 740 L109 452 Z " />
<glyph glyph-name="parenleft" unicode="&#x28;" horiz-adv-x="375" d="M456 712 Q426 685 405 664.5 Q384 644 367.5 625.5 Q351 607 337.5 589 Q324 571 309 548 Q252 462 222 363 Q192 264 192 162 Q192 108 201 55 Q205 31 210 12 Q215 -7 222 -25.5 Q229 -44 239.5 -64 Q250 -84 266 -111 L215 -155 Q184 -126 163 -104 Q142 -82 126.5 -62 Q111 -42 99.5 -21 Q88 0 77 27 Q43 109 43 211 Q43 342 104 463 Q139 534 191 593 Q214 618 234.5 638 Q255 658 279.5 676.5 Q304 695 335.5 714.5 Q367 734 410 759 L456 712 Z " />
<glyph glyph-name="parenright" unicode="&#x29;" horiz-adv-x="375" d="M320 390 Q320 260 259 138 Q223 68 172 9 Q150 -16 129 -36 Q108 -56 83.5 -74.5 Q59 -93 27.5 -112.5 Q-4 -132 -47 -157 L-93 -110 Q-63 -83 -42 -62.5 Q-21 -42 -4.5 -23.5 Q12 -5 25.5 13.5 Q39 32 54 54 Q111 140 141 239 Q171 338 171 440 Q171 494 162 546 Q158 570 153 589.5 Q148 609 141 627.5 Q134 646 123.5 666 Q113 686 97 713 L148 757 Q179 728 200 706 Q221 684 236.5 663.5 Q252 643 263.5 622 Q275 601 286 575 Q320 493 320 390 Z " />
<glyph glyph-name="asterisk" unicode="&#x2a;" horiz-adv-x="378" d="M299 510 L338 420 L260 384 L217 479 L141 412 L85 478 L158 543 L72 593 L115 668 L204 618 L228 717 L312 697 L288 596 L393 606 L402 521 L299 510 Z " />
<glyph glyph-name="plus" unicode="&#x2b;" horiz-adv-x="772" d="M659 234 L443 234 L395 26 L233 26 L281 234 L64 234 L95 366 L312 366 L359 572 L521 572 L474 366 L689 366 L659 234 Z " />
<glyph glyph-name="comma" unicode="&#x2c;" horiz-adv-x="292" d="M150 3 Q131 -82 90 -117 Q67 -137 36.5 -144.5 Q6 -152 -51 -152 L-40 -104 Q-8 -99 6.5 -94.5 Q21 -90 32 -81 Q43 -71 50 -55.5 Q57 -40 67 0 L-16 0 L17 143 L183 143 L150 3 Z " />
<glyph glyph-name="hyphen" unicode="&#x2d;" horiz-adv-x="393" d="M336 240 L9 240 L39 370 L366 370 L336 240 Z " />
<glyph glyph-name="period" unicode="&#x2e;" horiz-adv-x="292" d="M150 0 L-14 0 L19 143 L183 143 L150 0 Z " />
<glyph glyph-name="slash" unicode="&#x2f;" horiz-adv-x="500" d="M103 0 L-41 0 L399 706 L541 706 L103 0 Z " />
<glyph glyph-name="zero" unicode="0" horiz-adv-x="750" d="M708 399 Q708 338 690 272.5 Q672 207 640 153 Q594 74 514 32 Q434 -10 329 -10 Q254 -10 189 11.5 Q124 33 79 92 Q53 126 41 164.5 Q29 203 29 257 Q29 349 56 424.5 Q83 500 132.5 553 Q182 606 252.5 635 Q323 664 409 664 Q551 664 629.5 594.5 Q708 525 708 399 Z M532 396 Q532 538 395 538 Q312 538 263 471 Q234 433 217 377.5 Q200 322 200 265 Q200 189 236 152.5 Q272 116 332 116 Q379 116 415.5 137 Q452 158 475 197 Q501 241 516.5 296 Q532 351 532 396 Z " />
<glyph glyph-name="one" unicode="1" horiz-adv-x="750" d="M404 0 L238 0 L350 484 Q336 476 325 470.5 Q314 465 303.5 461 Q293 457 281.5 454 Q270 451 254 447 Q239 444 228 441.5 Q217 439 206 437.5 Q195 436 183 435.5 Q171 435 155 434 L183 556 Q216 561 233.5 564.5 Q251 568 272 575 Q288 580 303.5 586.5 Q319 593 334 601 Q357 613 370 623 Q383 633 405 652 L555 652 L404 0 Z " />
<glyph glyph-name="two" unicode="2" horiz-adv-x="750" d="M698 480 Q698 387 636 333 Q624 322 609.5 312 Q595 302 579 293 Q559 282 541 273.5 Q523 265 499.5 256.5 Q476 248 442.5 238 Q409 228 356 214 Q317 203 292.5 194.5 Q268 186 246 175 Q226 164 214 155 Q202 146 185 128 L618 128 L589 0 L-36 0 Q-26 40 -15 73 Q-1 117 23.5 155.5 Q48 194 78 221 Q111 251 159 275 Q177 284 194.5 291.5 Q212 299 232.5 306.5 Q253 314 279 322.5 Q305 331 340 342 Q412 364 449 382 Q486 400 503 421 Q510 429 514.5 443 Q519 457 519 468 Q519 504 489.5 523.5 Q460 543 403 543 Q337 543 303 520 Q269 497 251 439 L84 439 Q116 558 193.5 611.5 Q271 665 412 665 Q552 665 625 617.5 Q698 570 698 480 Z " />
<glyph glyph-name="three" unicode="3" horiz-adv-x="750" d="M720 494 Q720 463 708.5 434.5 Q697 406 675 386 Q657 368 626 355 Q603 345 584 341 Q565 337 528 333 Q674 312 674 202 Q674 152 650.5 111.5 Q627 71 583 43 Q539 15 476.5 0 Q414 -15 335 -15 Q177 -15 92 39.5 Q7 94 7 195 Q7 201 7 207 Q7 213 8 221 L184 226 Q183 221 183 217 Q183 213 183 209 Q183 112 329 112 Q409 112 456 139.5 Q503 167 503 213 Q503 249 472.5 266 Q442 283 375 281 Q377 281 366 281 Q356 281 333 280.5 Q310 280 263 279 L285 387 L376 388 Q400 388 415 388.5 Q430 389 441.5 390 Q453 391 461.5 393 Q470 395 480 398 Q508 407 523.5 426 Q539 445 539 469 Q539 505 503.5 524.5 Q468 544 400 544 Q376 544 354.5 540.5 Q333 537 316 531 Q300 525 286 513 Q276 504 269.5 495 Q263 486 253 466 L82 478 Q91 500 98.5 515.5 Q106 531 114 543 Q122 555 131.5 565 Q141 575 153 586 Q197 626 260 645.5 Q323 665 411 665 Q563 665 641.5 621.5 Q720 578 720 494 Z " />
<glyph glyph-name="four" unicode="4" horiz-adv-x="750" d="M655 134 L547 134 L516 0 L353 0 L384 134 L4 134 L31 250 L493 650 L666 650 L574 250 L682 250 L655 134 Z M203 250 L411 250 L466 490 L203 250 Z " />
<glyph glyph-name="five" unicode="5" horiz-adv-x="750" d="M689 531 L292 532 L250 408 Q286 434 325 444.5 Q364 455 418 455 Q536 455 602 402.5 Q668 350 668 255 Q668 195 642 142.5 Q616 90 568 55 Q521 20 461 3.5 Q401 -13 320 -13 Q246 -13 191 0 Q136 13 93 42 Q52 69 32.5 105 Q13 141 5 202 L177 207 Q181 183 187.5 170.5 Q194 158 208 146 Q229 128 261 118 Q293 108 330 108 Q366 108 397 118 Q428 128 450.5 146 Q473 164 485.5 188.5 Q498 213 498 242 Q498 294 460 323.5 Q422 353 356 353 Q308 353 276 339 Q244 325 217 293 L64 304 L170 650 L716 650 L689 531 Z " />
<glyph glyph-name="six" unicode="6" horiz-adv-x="750" d="M566 456 Q558 477 551 487.5 Q544 498 533 509 Q513 526 482.5 535.5 Q452 545 415 545 Q323 545 269 479 Q254 460 242 437 Q235 423 231 411 Q227 399 219 375 Q257 406 298.5 419 Q340 432 400 432 Q465 432 517 418 Q569 404 606 378.5 Q643 353 663 317 Q683 281 683 236 Q683 181 659.5 135 Q636 89 593.5 56 Q551 23 491.5 5 Q432 -13 360 -13 Q283 -13 222 5 Q161 23 119 57 Q77 91 54.5 140 Q32 189 32 250 Q32 312 48.5 374.5 Q65 437 96 488 Q148 574 233.5 619 Q319 664 431 664 Q601 664 687 570 Q708 548 718.5 527 Q729 506 739 468 L566 456 Z M511 221 Q511 269 469.5 296 Q428 323 354 323 Q281 323 238 294 Q195 265 195 215 Q195 167 237 140.5 Q279 114 352 114 Q426 114 468.5 142.5 Q511 171 511 221 Z " />
<glyph glyph-name="seven" unicode="7" horiz-adv-x="750" d="M698 542 Q685 536 676 531 Q667 526 661 523 Q611 496 565.5 460.5 Q520 425 477 379 Q423 320 379 252 Q335 184 309 117 Q303 102 299 90 Q295 78 291 65.5 Q287 53 283 37.5 Q279 22 274 0 L97 0 Q103 19 108 32.5 Q113 46 117 56 Q138 113 168 171.5 Q198 230 230 278 Q262 326 299.5 367.5 Q337 409 383 448 Q398 461 410 470.5 Q422 480 434 488.5 Q446 497 460 506 Q474 515 493 527 L94 527 L120 648 L723 648 L698 542 Z " />
<glyph glyph-name="eight" unicode="8" horiz-adv-x="750" d="M703 494 Q703 429 657.5 387.5 Q612 346 524 331 Q671 307 671 193 Q671 161 658 129.5 Q645 98 620 73 Q588 39 542 22 Q499 5 443.5 -4 Q388 -13 332 -13 Q260 -13 201.5 0 Q143 13 101.5 37 Q60 61 38 95.5 Q16 130 16 172 Q16 214 36.5 249.5 Q57 285 93 307 Q119 323 147 331.5 Q175 340 223 345 Q198 352 186.5 356 Q175 360 159 369 Q130 385 114 413 Q98 441 98 474 Q98 518 119.5 554 Q141 590 181 615.5 Q221 641 277 654.5 Q333 668 403 668 Q473 668 538 654 Q703 616 703 494 Z M531 472 Q531 510 498 529.5 Q465 549 402 549 Q336 549 298.5 525.5 Q261 502 261 460 Q261 423 295.5 404 Q330 385 396 385 Q459 385 495 408 Q531 431 531 472 Z M497 203 Q497 231 482.5 248 Q468 265 447 274 Q426 283 401 286 Q376 289 355 289 Q280 289 238 263.5 Q196 238 196 191 Q196 151 234 128 Q272 105 340 105 Q414 105 455.5 131 Q497 157 497 203 Z " />
<glyph glyph-name="nine" unicode="9" horiz-adv-x="750" d="M705 403 Q705 342 689 279 Q673 216 644 162 Q596 75 511 30.5 Q426 -14 308 -14 Q175 -14 99 34.5 Q23 83 -5 186 L168 199 Q178 175 184 164.5 Q190 154 200 143 Q218 125 249.5 115 Q281 105 321 105 Q414 105 468 171 Q483 189 495 213 Q501 226 505.5 238 Q510 250 518 274 Q480 244 439 231.5 Q398 219 338 219 Q273 219 220.5 232.5 Q168 246 131 271.5 Q94 297 74 333 Q54 369 54 414 Q54 469 77.5 514.5 Q101 560 143.5 593 Q186 626 245.5 644 Q305 662 377 662 Q453 662 514 644 Q575 626 617.5 592.5 Q660 559 682.5 511 Q705 463 705 403 Z M542 435 Q542 483 500 509 Q458 535 383 535 Q310 535 267.5 506.5 Q225 478 225 428 Q225 380 266.5 354 Q308 328 382 328 Q456 328 499 356.5 Q542 385 542 435 Z " />
<glyph glyph-name="colon" unicode="&#x3a;" horiz-adv-x="333" d="M256 287 L92 287 L125 430 L289 430 L256 287 Z M191 0 L27 0 L60 143 L224 143 L191 0 Z " />
<glyph glyph-name="semicolon" unicode="&#x3b;" horiz-adv-x="333" d="M256 287 L92 287 L125 430 L289 430 L256 287 Z M193 3 Q183 -40 168 -69 Q153 -98 132 -117 Q109 -137 79 -144.5 Q49 -152 -8 -152 L3 -104 Q35 -99 49.5 -94.5 Q64 -90 75 -81 Q86 -71 92.5 -55.5 Q99 -40 110 0 L27 0 L60 143 L226 143 L193 3 Z " />
<glyph glyph-name="less" unicode="&#x3c;" horiz-adv-x="772" d="M669 443 L280 307 L606 166 L570 15 L79 239 L114 386 L705 600 L669 443 Z " />
<glyph glyph-name="equal" unicode="&#x3d;" horiz-adv-x="772" d="M680 356 L96 356 L127 488 L711 488 L680 356 Z M624 112 L40 112 L71 245 L654 245 L624 112 Z " />
<glyph glyph-name="greater" unicode="&#x3e;" horiz-adv-x="772" d="M640 228 L49 14 L86 172 L475 307 L149 449 L184 599 L676 375 L640 228 Z " />
<glyph glyph-name="question" unicode="&#x3f;" horiz-adv-x="688" d="M703 550 Q703 526 697.5 501.5 Q692 477 681 457 Q665 426 634 400.5 Q603 375 543 343 L499 320 Q471 306 455.5 295 Q440 284 432 273 Q424 263 419 250 Q414 237 407 208 L242 208 L247 233 Q252 257 256.5 274 Q261 291 266.5 304 Q272 317 279 327 Q286 337 296 347 Q303 355 311 361 Q319 367 327 373 Q338 380 352.5 388 Q367 396 401 413 Q422 424 434.5 430 Q447 436 455 440.5 Q463 445 469 448.5 Q475 452 483 457 Q532 488 532 534 Q532 569 500 588.5 Q468 608 410 608 Q344 608 308 579 Q288 564 276.5 543.5 Q265 523 254 484 L95 492 Q97 500 99 505.5 Q101 511 103 516 Q119 566 138 597 Q157 628 187 654 Q267 724 424 724 Q560 724 631.5 679.5 Q703 635 703 550 Z M359 0 L194 0 L222 125 L387 125 L359 0 Z " />
<glyph glyph-name="at" unicode="&#x40;" horiz-adv-x="904" d="M845 426 Q845 358 822.5 294 Q800 230 763.5 180 Q727 130 679.5 99.5 Q632 69 582 69 Q499 69 493 146 Q477 129 469 121.5 Q461 114 449 104 Q405 69 348 69 Q283 69 245.5 111 Q208 153 208 225 Q208 283 228 336 Q248 389 281 430 Q314 471 357 495.5 Q400 520 447 520 Q494 520 530 490 Q539 482 545.5 473.5 Q552 465 562 448 L576 499 L661 499 L620 345 Q618 340 616.5 331 Q615 322 611 309 Q597 255 590.5 226 Q584 197 584 177 Q584 140 611 140 Q625 140 644 153 Q670 171 692.5 200.5 Q715 230 732 266.5 Q749 303 759 343 Q769 383 769 422 Q769 473 751 514.5 Q733 556 700 585 Q667 614 620 629.5 Q573 645 514 645 Q432 645 357.5 611 Q283 577 226.5 520 Q170 463 136.5 387.5 Q103 312 103 229 Q103 163 126 110.5 Q149 58 191.5 20.5 Q234 -17 294 -37 Q354 -57 428 -57 Q522 -57 611 -22 Q637 -12 657 -2.5 Q677 7 696.5 19.5 Q716 32 737.5 48.5 Q759 65 786 89 L827 38 Q795 11 770 -8 Q745 -27 722.5 -41 Q700 -55 676.5 -66 Q653 -77 624 -88 Q528 -124 430 -124 Q339 -124 265.5 -99 Q192 -74 139.5 -27.5 Q87 19 58.5 84 Q30 149 30 228 Q30 327 69 415 Q108 503 174.5 569 Q241 635 330 673.5 Q419 712 519 712 Q594 712 654 692 Q714 672 756.5 634.5 Q799 597 822 544 Q845 491 845 426 Z M528 350 Q528 394 507 419 Q486 444 450 444 Q422 444 396 426 Q370 408 350 379 Q330 350 317.5 312 Q305 274 305 233 Q305 192 325 169.5 Q345 147 380 147 Q421 147 452 177 Q468 192 481.5 213 Q495 234 505.5 257.5 Q516 281 522 305 Q528 329 528 350 Z " />
<glyph glyph-name="A" unicode="A" horiz-adv-x="875" d="M613 0 L584 133 L222 133 L131 0 L-74 0 L430 706 L621 706 L799 0 L613 0 Z M496 537 L308 258 L555 258 L496 537 Z " />
<glyph glyph-name="B" unicode="B" horiz-adv-x="854" d="M823 560 Q823 506 793 462 Q773 430 744 412 Q715 394 667 383 Q690 375 702 370 Q714 365 726 356 Q752 336 766.5 306.5 Q781 277 781 240 Q781 178 752 124 Q723 70 675 41 Q647 23 612 14 Q596 10 581 7 Q566 4 548.5 2.5 Q531 1 510 0.5 Q489 0 460 0 L0 0 L163 706 L603 706 Q648 706 679.5 702 Q711 698 736 690 Q776 677 799.5 642.5 Q823 608 823 560 Z M643 520 Q643 548 630 564 Q620 575 604 579.5 Q588 584 553 584 L310 584 L274 429 L522 429 Q534 429 543 429 Q552 429 558 430 Q588 432 611 448 Q626 460 634.5 479 Q643 498 643 520 Z M608 234 Q608 257 599 272 Q592 286 577 294 Q564 301 549 303 Q534 305 501 305 L245 305 L204 124 L469 124 Q540 124 570 147 Q587 160 597.5 184 Q608 208 608 234 Z " />
<glyph glyph-name="C" unicode="C" horiz-adv-x="896" d="M732 463 Q681 595 515 595 Q453 595 401.5 575 Q350 555 312.5 519.5 Q275 484 254.5 434 Q234 384 234 324 Q234 275 250.5 235.5 Q267 196 298 168 Q329 140 373 125 Q417 110 471 110 Q616 110 690 220 L875 205 Q864 184 855 169.5 Q846 155 837.5 143 Q829 131 820 121 Q811 111 799 99 Q781 82 759 67 Q737 52 711 38 Q682 22 654.5 11.5 Q627 1 598 -5.5 Q569 -12 535.5 -14.5 Q502 -17 461 -17 Q373 -17 311.5 -3 Q250 11 196 43 Q123 87 84.5 155.5 Q46 224 46 309 Q46 371 65 431.5 Q84 492 119 543 Q182 633 282.5 679.5 Q383 726 515 726 Q665 726 775 667 Q808 650 835.5 626.5 Q863 603 883 576 Q892 564 898 553.5 Q904 543 909.5 531 Q915 519 919.5 504 Q924 489 930 469 L732 463 Z " />
<glyph glyph-name="D" unicode="D" horiz-adv-x="895" d="M863 432 Q863 378 852.5 327 Q842 276 822.5 230.5 Q803 185 774.5 147 Q746 109 711 82 Q672 52 619.5 32 Q567 12 512 7 Q480 4 431.5 2 Q383 0 337 0 L0 0 L163 706 L509 706 Q592 706 643.5 697.5 Q695 689 737 667 Q863 603 863 432 Z M683 413 Q683 451 674 480.5 Q665 510 648 530 Q636 545 620.5 554.5 Q605 564 582.5 570 Q560 576 529.5 578.5 Q499 581 455 581 L310 581 L205 125 L347 125 Q375 125 394 125.5 Q413 126 428 126.5 Q443 127 455 128.5 Q467 130 480 132 Q551 144 599 192 Q617 210 632.5 236 Q648 262 659 291.5 Q670 321 676.5 352 Q683 383 683 413 Z " />
<glyph glyph-name="E" unicode="E" horiz-adv-x="791" d="M791 579 L311 579 L274 420 L739 420 L710 294 L245 294 L206 126 L707 126 L678 0 L0 0 L163 706 L821 706 L791 579 Z " />
<glyph glyph-name="F" unicode="F" horiz-adv-x="729" d="M786 579 L310 579 L268 399 L717 399 L688 273 L239 273 L176 0 L0 0 L163 706 L816 706 L786 579 Z " />
<glyph glyph-name="G" unicode="G" horiz-adv-x="958" d="M740 495 Q711 551 659 575.5 Q607 600 518 600 Q412 600 337 540 Q313 521 293.5 494.5 Q274 468 259.5 438 Q245 408 237.5 375 Q230 342 230 310 Q230 213 291 160 Q352 107 464 107 Q568 107 643 154 Q667 169 686 188 Q700 202 709 214 Q718 226 732 251 L502 251 L531 378 L910 378 L822 0 L687 0 L706 82 Q693 69 682.5 60 Q672 51 661.5 43.5 Q651 36 640 30 Q629 24 614 17 Q570 -3 524 -12.5 Q478 -22 418 -22 Q328 -22 258 -1 Q188 20 139.5 60 Q91 100 65.5 158.5 Q40 217 40 291 Q40 375 73 455 Q106 535 166 594 Q233 660 330.5 695.5 Q428 731 546 731 Q618 731 680 718.5 Q742 706 795 680 Q849 654 888 610 Q897 600 904 591.5 Q911 583 917 573 Q923 563 929 551.5 Q935 540 943 523 L740 495 Z " />
<glyph glyph-name="H" unicode="H" horiz-adv-x="938" d="M780 0 L603 0 L673 303 L247 303 L177 0 L0 0 L163 706 L340 706 L277 434 L703 434 L766 706 L943 706 L780 0 Z " />
<glyph glyph-name="I" unicode="I" horiz-adv-x="333" d="M177 0 L0 0 L163 706 L340 706 L177 0 Z " />
<glyph glyph-name="J" unicode="J" horiz-adv-x="479" d="M373 223 Q358 157 335 111.5 Q312 66 278.5 37.5 Q245 9 198 -3.5 Q151 -16 88 -16 Q70 -16 52.5 -14.5 Q35 -13 18 -11 Q5 -9 -7 -6.5 Q-19 -4 -47 2 L-13 148 Q19 142 42 139.5 Q65 137 86 137 Q113 137 132 142.5 Q151 148 165 161.5 Q179 175 188.5 197.5 Q198 220 206 254 L309 706 L484 706 L373 223 Z " />
<glyph glyph-name="K" unicode="K" horiz-adv-x="832" d="M491 400 L793 0 L569 0 L352 300 L224 208 L176 0 L0 0 L163 706 L339 706 L269 403 L651 706 L893 706 L491 400 Z " />
<glyph glyph-name="L" unicode="L" horiz-adv-x="667" d="M569 0 L0 0 L163 706 L340 706 L207 130 L599 130 L569 0 Z " />
<glyph glyph-name="M" unicode="M" horiz-adv-x="1103" d="M945 0 L777 0 L907 543 L548 0 L393 0 L291 544 L168 0 L0 0 L163 706 L416 706 L509 183 L852 706 L1108 706 L945 0 Z " />
<glyph glyph-name="N" unicode="N" horiz-adv-x="937" d="M778 0 L604 0 L283 503 L168 0 L0 0 L163 706 L340 706 L656 201 L773 706 L941 706 L778 0 Z " />
<glyph glyph-name="O" unicode="O" horiz-adv-x="958" d="M925 403 Q925 334 904 266 Q883 198 847 147 Q787 62 688.5 18.5 Q590 -25 462 -25 Q365 -25 288.5 -2 Q212 21 159 65 Q106 109 78 172.5 Q50 236 50 316 Q50 409 82.5 485.5 Q115 562 175 616.5 Q235 671 319 701 Q403 731 506 731 Q589 731 665 714.5 Q741 698 799 659.5 Q857 621 891 558 Q925 495 925 403 Z M742 389 Q742 493 682 548 Q622 603 509 603 Q449 603 406 588.5 Q363 574 325 542 Q281 505 256.5 446.5 Q232 388 232 319 Q232 216 294 160 Q356 104 470 104 Q532 104 582.5 124 Q633 144 668.5 181 Q704 218 723 271 Q742 324 742 389 Z " />
<glyph glyph-name="P" unicode="P" horiz-adv-x="791" d="M819 522 Q819 462 794.5 409.5 Q770 357 727 325 Q703 307 671.5 294.5 Q640 282 607 276 Q579 271 544.5 268.5 Q510 266 481 266 L235 266 L174 0 L0 0 L163 706 L546 706 Q585 706 609 705.5 Q633 705 649.5 703.5 Q666 702 678.5 699.5 Q691 697 707 692 Q759 677 789 631.5 Q819 586 819 522 Z M638 502 Q638 536 621 556 Q610 570 595 576 Q588 579 582 580.5 Q576 582 568 582.5 Q560 583 547.5 583.5 Q535 584 515 584 L309 584 L264 390 L481 390 Q530 390 556 395.5 Q582 401 601 416 Q618 430 628 453 Q638 476 638 502 Z " />
<glyph glyph-name="Q" unicode="Q" horiz-adv-x="958" d="M848 -100 L693 21 Q636 -3 582 -14 Q528 -25 462 -25 Q365 -25 288.5 -2 Q212 21 159 65 Q106 109 78 172.5 Q50 236 50 316 Q50 410 83 486.5 Q116 563 176 617.5 Q236 672 321 701.5 Q406 731 510 731 Q711 731 818 646 Q925 561 925 402 Q925 319 898 248 Q871 177 814 109 L943 23 L848 -100 Z M742 389 Q742 493 682 548 Q622 603 509 603 Q449 603 406 588.5 Q363 574 325 542 Q281 505 256.5 446.5 Q232 388 232 319 Q232 216 294 160 Q356 104 470 104 Q532 104 582.5 124 Q633 144 668.5 181 Q704 218 723 271 Q742 324 742 389 Z " />
<glyph glyph-name="R" unicode="R" horiz-adv-x="854" d="M860 531 Q860 478 839 431 Q818 384 781 353 Q752 329 718 316 Q684 303 628 295 L775 0 L566 0 L443 284 L242 284 L176 0 L0 0 L163 706 L595 706 Q617 706 634.5 706 Q652 706 666 705 Q740 702 783 679 Q819 660 839.5 621 Q860 582 860 531 Z M680 509 Q680 547 656 565 Q644 574 622 578 Q600 582 563 582 L310 582 L270 409 L554 409 Q619 409 649.5 433.5 Q680 458 680 509 Z " />
<glyph glyph-name="S" unicode="S" horiz-adv-x="812" d="M632 506 Q618 534 603.5 549 Q589 564 566 575 Q536 588 499.5 595 Q463 602 422 602 Q348 602 309 580.5 Q270 559 270 518 Q270 486 297 472 Q308 468 321 463 Q345 455 386 444.5 Q427 434 465 425 Q500 417 520.5 412.5 Q541 408 548 406 Q580 398 608 387 Q636 376 654 365 Q737 316 737 226 Q737 184 721.5 144 Q706 104 678 73 Q593 -21 375 -21 Q315 -21 258 -12 Q195 -3 150.5 16 Q106 35 68 69 Q39 95 19.5 123.5 Q0 152 -18 197 L150 230 Q172 170 232.5 139 Q293 108 385 108 Q468 108 515 133 Q562 158 562 202 Q562 220 556 230 Q547 245 528 253.5 Q509 262 459 273 L391 288 Q365 294 343.5 299 Q322 304 303 309 Q271 317 247.5 325 Q224 333 201 344 Q145 372 119.5 407 Q94 442 94 493 Q94 539 112.5 581 Q131 623 165 652 Q209 690 273.5 708 Q338 726 431 726 Q503 726 558.5 716 Q614 706 665 684 Q719 661 751.5 627.5 Q784 594 807 539 L632 506 Z " />
<glyph glyph-name="T" unicode="T" horiz-adv-x="729" d="M766 577 L505 577 L372 0 L194 0 L327 577 L65 577 L95 706 L795 706 L766 577 Z " />
<glyph glyph-name="U" unicode="U" horiz-adv-x="917" d="M829 296 Q819 251 808 216.5 Q797 182 785 155 Q773 128 758 106.5 Q743 85 725 67 Q704 47 680 31.5 Q656 16 629 7 Q584 -9 529 -17 Q474 -25 415 -25 Q342 -25 276.5 -11.5 Q211 2 163 28 Q112 54 86 101.5 Q60 149 60 212 Q60 237 64 266.5 Q68 296 78 340 L163 706 L339 706 L252 335 Q239 277 239 244 Q239 118 438 118 Q539 118 590 163 Q609 179 621 202 Q627 213 631 222 Q635 231 639 244 Q643 257 648 276.5 Q653 296 660 327 L748 706 L924 706 L829 296 Z " />
<glyph glyph-name="V" unicode="V" horiz-adv-x="812" d="M406 0 L234 0 L78 706 L265 706 L357 186 L688 706 L886 706 L406 0 Z " />
<glyph glyph-name="W" unicode="W" horiz-adv-x="1062" d="M791 0 L618 0 L568 516 L280 0 L104 0 L81 706 L248 706 L238 206 L516 706 L700 706 L746 213 L966 706 L1139 706 L791 0 Z " />
<glyph glyph-name="X" unicode="X" horiz-adv-x="875" d="M548 367 L791 0 L575 0 L419 261 L152 0 L-81 0 L328 374 L116 706 L330 706 L455 476 L683 706 L907 706 L548 367 Z " />
<glyph glyph-name="Y" unicode="Y" horiz-adv-x="854" d="M492 265 L431 0 L255 0 L316 265 L82 706 L291 706 L431 410 L708 706 L931 706 L492 265 Z " />
<glyph glyph-name="Z" unicode="Z" horiz-adv-x="812" d="M815 581 L246 129 L720 129 L690 0 L-35 0 L-6 129 L562 581 L129 581 L158 706 L844 706 L815 581 Z " />
<glyph glyph-name="bracketleft" unicode="&#x5b;" horiz-adv-x="375" d="M425 664 L315 664 L147 -64 L257 -64 L237 -151 L-9 -151 L199 753 L445 753 L425 664 Z " />
<glyph glyph-name="backslash" unicode="&#x5c;" horiz-adv-x="495" d="M278 0 L86 706 L215 706 L405 0 L278 0 Z " />
<glyph glyph-name="bracketright" unicode="&#x5d;" horiz-adv-x="375" d="M158 -151 L-88 -151 L-67 -62 L43 -62 L211 666 L101 666 L121 752 L367 752 L158 -151 Z " />
<glyph glyph-name="asciicircum" unicode="&#x5e;" horiz-adv-x="772" d="M502 287 L441 540 L269 286 L86 286 L403 706 L552 706 L664 286 L502 287 Z " />
<glyph glyph-name="underscore" unicode="&#x5f;" horiz-adv-x="500" d="M-10 -228 L-10 -125 L510 -125 L510 -228 L-10 -228 Z " />
<glyph glyph-name="grave" unicode="&#x60;" horiz-adv-x="313" d="M158 571 L55 696 L225 696 L258 571 L158 571 Z " />
<glyph glyph-name="a" unicode="a" horiz-adv-x="743" d="M674 368 Q674 358 673.5 350 Q673 342 671.5 332.5 Q670 323 667.5 310.5 Q665 298 660 279 L613 76 Q608 58 607 49.5 Q606 41 606 35 Q606 27 608 19.5 Q610 12 618 0 L439 0 Q438 7 438 10.5 Q438 14 438 18 Q438 27 439 34.5 Q440 42 442 53 Q422 37 411.5 30 Q401 23 387 16 Q357 1 312.5 -7.5 Q268 -16 217 -16 Q110 -16 54 22 Q-2 60 -2 132 Q-2 174 17 209.5 Q36 245 71 268 Q108 293 168.5 304 Q229 315 324 315 L503 315 L506 328 Q508 333 508 339 Q508 345 508 350 Q508 380 478 393.5 Q448 407 378 407 Q340 407 315 403.5 Q290 400 273 392 Q262 387 255 380.5 Q248 374 239 360 L73 362 Q99 443 177 481.5 Q255 520 394 520 Q539 520 606.5 483.5 Q674 447 674 368 Z M441 232 Q400 232 363 230.5 Q326 229 292 227 Q273 225 258.5 223 Q244 221 229 216 Q171 198 171 151 Q171 95 266 95 Q305 95 341 104.5 Q377 114 405.5 130.5 Q434 147 453.5 169 Q473 191 480 217 L484 232 L441 232 Z " />
<glyph glyph-name="b" unicode="b" horiz-adv-x="750" d="M692 303 Q692 234 668 175 Q644 116 601.5 73.5 Q559 31 500 7 Q441 -17 371 -17 Q307 -17 261 0 Q215 17 172 56 L160 0 L-4 0 L159 706 L323 706 L265 459 Q286 480 300.5 489 Q315 498 341 507 Q365 515 390 519.5 Q415 524 443 524 Q500 524 546 508.5 Q592 493 624.5 464 Q657 435 674.5 394.5 Q692 354 692 303 Z M520 280 Q520 342 482.5 375 Q445 408 386 408 Q348 408 316 395.5 Q284 383 261.5 360 Q239 337 226.5 305 Q214 273 214 234 Q214 174 251 138.5 Q288 103 351 103 Q387 103 417.5 116.5 Q448 130 471 154 Q494 178 507 210.5 Q520 243 520 280 Z " />
<glyph glyph-name="c" unicode="c" horiz-adv-x="688" d="M503 336 Q492 351 485.5 358.5 Q479 366 470 373 Q452 385 425.5 392 Q399 399 370 399 Q284 399 233.5 355.5 Q183 312 183 237 Q183 174 223 139 Q263 104 333 104 Q394 104 440 129 Q457 138 466 147 Q475 156 489 173 L653 144 Q641 126 631.5 113 Q622 100 612 89.5 Q602 79 590.5 69.5 Q579 60 563 49 Q465 -20 326 -20 Q254 -20 196.5 -3 Q139 14 98.5 46.5 Q58 79 36.5 124.5 Q15 170 15 227 Q15 294 40.5 349 Q66 404 112.5 443 Q159 482 224.5 503.5 Q290 525 369 525 Q490 525 569 480.5 Q648 436 679 349 L503 336 Z " />
<glyph glyph-name="d" unicode="d" horiz-adv-x="750" d="M591 0 L427 0 L437 42 Q399 8 357 -7 Q315 -22 258 -22 Q201 -22 154.5 -6.5 Q108 9 76 37.5 Q44 66 26.5 107.5 Q9 149 9 200 Q9 271 33.5 329.5 Q58 388 101.5 430 Q145 472 206 495.5 Q267 519 340 519 Q465 519 529 445 L589 706 L753 706 L591 0 Z M484 270 Q484 330 447 366 Q410 402 347 402 Q311 402 280.5 388.5 Q250 375 227 351 Q204 327 191 295 Q178 263 178 225 Q178 162 216 129 Q254 96 314 96 Q352 96 383 109 Q414 122 436.5 145 Q459 168 471.5 200 Q484 232 484 270 Z " />
<glyph glyph-name="e" unicode="e" horiz-adv-x="748" d="M181 223 Q190 98 346 98 Q457 98 505 168 L672 151 Q624 63 540 21 Q456 -21 328 -21 Q255 -21 196 -4 Q137 13 96 45 Q55 77 33 123 Q11 169 11 226 Q11 294 36.5 348.5 Q62 403 108.5 442 Q155 481 220.5 502 Q286 523 367 523 Q529 523 610 445 Q654 404 671 343 Q675 328 677 316.5 Q679 305 680.5 292 Q682 279 683 263 Q684 247 684 223 L181 223 Z M516 313 Q492 410 365 410 Q304 410 260.5 385 Q217 360 197 313 L516 313 Z " />
<glyph glyph-name="f" unicode="f" horiz-adv-x="375" d="M433 597 Q420 602 410.5 603.5 Q401 605 387 605 Q355 605 336 591 Q322 580 314 562.5 Q306 545 296 501 L411 501 L389 403 L274 403 L180 0 L15 0 L109 403 L29 403 L51 501 L131 501 L142 549 Q163 640 211 679.5 Q259 719 347 719 Q376 719 400.5 715.5 Q425 712 458 704 L433 597 Z " />
<glyph glyph-name="g" unicode="g" horiz-adv-x="749" d="M611 64 Q593 -12 568.5 -58.5 Q544 -105 506 -137 Q421 -205 263 -205 Q122 -205 45.5 -158.5 Q-31 -112 -40 -21 L138 -21 Q156 -90 267 -90 Q312 -90 345 -81 Q378 -72 400.5 -51 Q423 -30 437 4 Q451 38 460 88 Q440 70 428 61.5 Q416 53 394 44 Q335 18 261 18 Q145 18 80.5 72.5 Q16 127 16 225 Q16 290 39.5 344 Q63 398 105.5 436.5 Q148 475 207 496.5 Q266 518 337 518 Q432 518 493 481 Q507 473 516.5 465.5 Q526 458 542 442 L556 501 L713 501 L611 64 Z M499 283 Q499 337 461 369 Q423 401 360 401 Q323 401 291.5 390.5 Q260 380 237.5 360.5 Q215 341 202.5 313.5 Q190 286 190 253 Q190 202 222.5 169 Q255 136 314 136 L334 136 Q370 136 400.5 147 Q431 158 453 177.5 Q475 197 487 224 Q499 251 499 283 Z " />
<glyph glyph-name="h" unicode="h" horiz-adv-x="766" d="M688 346 Q688 326 684 301.5 Q680 277 672 241 L617 0 L452 0 L509 250 Q512 263 513.5 276.5 Q515 290 515 301 Q515 398 391 398 Q362 398 335.5 391 Q309 384 288 371 Q260 354 243 325.5 Q226 297 215 251 L158 0 L-5 0 L158 706 L322 706 L259 432 Q306 479 354 498 Q402 517 472 517 Q576 517 632 473 Q688 429 688 346 Z " />
<glyph glyph-name="i" unicode="i" horiz-adv-x="313" d="M291 570 L127 570 L153 682 L317 682 L291 570 Z M160 0 L-4 0 L112 501 L276 501 L160 0 Z " />
<glyph glyph-name="j" unicode="j" horiz-adv-x="313" d="M293 571 L128 571 L154 682 L318 682 L293 571 Z M160 -3 Q158 -13 155.5 -24 Q153 -35 149 -46 Q137 -84 125.5 -106.5 Q114 -129 96 -146 Q47 -194 -58 -194 Q-70 -194 -81 -193.5 Q-92 -193 -121 -192 L-94 -75 L-88 -75 Q-47 -75 -31 -63 Q-15 -51 -7 -15 L112 501 L277 501 L160 -3 Z " />
<glyph glyph-name="k" unicode="k" horiz-adv-x="708" d="M437 305 L632 0 L434 0 L303 215 L191 135 L159 0 L-4 0 L158 706 L322 706 L231 311 L481 501 L707 501 L437 305 Z " />
<glyph glyph-name="l" unicode="l" horiz-adv-x="313" d="M160 0 L-4 0 L159 706 L323 706 L160 0 Z " />
<glyph glyph-name="m" unicode="m" horiz-adv-x="1139" d="M1061 346 Q1061 326 1057 301.5 Q1053 277 1045 241 L990 0 L825 0 L883 250 Q886 263 887.5 276 Q889 289 889 300 Q889 345 864 369.5 Q839 394 793 394 Q765 394 743.5 388 Q722 382 704 371 Q675 353 658.5 324.5 Q642 296 629 241 L574 0 L409 0 L466 250 Q469 263 470.5 276 Q472 289 472 300 Q472 345 447.5 369.5 Q423 394 377 394 Q309 394 270.5 360 Q232 326 215 251 L158 0 L-5 0 L111 501 L274 501 L257 429 Q274 449 284.5 458 Q295 467 311 478 Q370 517 451 517 Q582 517 631 418 Q712 517 857 517 Q954 517 1007.5 472 Q1061 427 1061 346 Z " />
<glyph glyph-name="n" unicode="n" horiz-adv-x="766" d="M688 346 Q688 326 684 301.5 Q680 277 672 241 L617 0 L452 0 L509 250 Q512 263 513.5 276.5 Q515 290 515 301 Q515 398 391 398 Q362 398 335.5 391 Q309 384 288 371 Q260 354 243 325.5 Q226 297 215 251 L158 0 L-5 0 L111 501 L274 501 L257 429 Q277 450 289 460.5 Q301 471 320 482 Q381 517 472 517 Q576 517 632 472.5 Q688 428 688 346 Z " />
<glyph glyph-name="o" unicode="o" horiz-adv-x="762" d="M706 282 Q706 214 679.5 158.5 Q653 103 605 63.5 Q557 24 488.5 2.5 Q420 -19 336 -19 Q261 -19 201 -2 Q141 15 100 46.5 Q59 78 37 124 Q15 170 15 228 Q15 296 41 350.5 Q67 405 114 444 Q161 483 228.5 504 Q296 525 378 525 Q534 525 620 461 Q706 397 706 282 Z M537 268 Q537 331 492.5 368 Q448 405 373 405 Q330 405 295.5 393 Q261 381 236 359.5 Q211 338 197.5 307.5 Q184 277 184 240 Q184 175 228.5 138 Q273 101 350 101 Q392 101 426 113 Q460 125 485 147 Q510 169 523.5 200 Q537 231 537 268 Z " />
<glyph glyph-name="p" unicode="p" horiz-adv-x="750" d="M693 301 Q693 231 668.5 172 Q644 113 600.5 71 Q557 29 496 5.5 Q435 -18 362 -18 Q238 -18 172 56 L115 -192 L-49 -192 L111 501 L275 501 L265 459 Q303 492 344.5 506.5 Q386 521 443 521 Q501 521 547 506 Q593 491 625.5 462.5 Q658 434 675.5 393 Q693 352 693 301 Z M524 277 Q524 331 494 365 Q464 399 412 405 Q406 406 400 406 Q394 406 389 406 Q352 406 320.5 393.5 Q289 381 266.5 358 Q244 335 231.5 303 Q219 271 219 232 Q219 172 255.5 136 Q292 100 355 100 Q391 100 421.5 113.5 Q452 127 475 151 Q498 175 511 207.5 Q524 240 524 277 Z " />
<glyph glyph-name="q" unicode="q" horiz-adv-x="750" d="M546 -192 L382 -192 L438 42 Q416 22 401.5 12.5 Q387 3 361 -6 Q313 -23 260 -23 Q203 -23 157 -7.5 Q111 8 78 37 Q45 66 27.5 107 Q10 148 10 198 Q10 267 34 326 Q58 385 101 427.5 Q144 470 202.5 494 Q261 518 331 518 Q396 518 442 501 Q488 484 530 445 L543 501 L707 501 L546 -192 Z M488 268 Q488 328 451 364 Q414 400 351 400 Q315 400 284.5 386.5 Q254 373 231 349 Q208 325 195 292.5 Q182 260 182 222 Q182 168 212.5 134 Q243 100 295 95 Q300 94 305.5 94 Q311 94 316 94 Q354 94 386 106.5 Q418 119 440.5 142 Q463 165 475.5 197 Q488 229 488 268 Z " />
<glyph glyph-name="r" unicode="r" horiz-adv-x="458" d="M460 369 Q446 371 438.5 371 Q431 371 420 371 Q378 371 342 363 Q306 355 283 341 Q264 328 250 310 Q237 293 228.5 273.5 Q220 254 212 218 L161 0 L-5 0 L111 501 L277 501 L257 414 Q292 469 346.5 493.5 Q401 518 488 518 L494 518 L460 369 Z " />
<glyph glyph-name="s" unicode="s" horiz-adv-x="708" d="M493 349 Q487 369 477 380.5 Q467 392 449 401 Q409 421 348 421 Q298 421 271.5 409 Q245 397 245 374 Q245 360 257 351 Q265 346 276 342.5 Q287 339 309 334 Q323 332 332 330 Q341 328 349 326 L418 315 Q488 304 525.5 292.5 Q563 281 585 264 Q605 249 616.5 225.5 Q628 202 628 176 Q628 132 607.5 96.5 Q587 61 548.5 36 Q510 11 456 -2.5 Q402 -16 334 -16 Q309 -16 281.5 -13.5 Q254 -11 225 -7 Q168 1 130.5 14.5 Q93 28 63 54 Q35 77 22.5 103.5 Q10 130 2 179 L182 183 Q186 157 193.5 144.5 Q201 132 219 121 Q259 95 349 95 Q399 95 425 108 Q451 121 451 146 Q451 165 430.5 175.5 Q410 186 359 194 L309 202 Q293 204 257 211 Q238 214 225 217 Q212 220 202.5 222 Q193 224 184.5 227 Q176 230 166 233 Q70 269 70 352 Q70 436 143.5 483 Q217 530 348 530 Q499 530 582 481 Q616 461 643 423 Q654 407 658 392.5 Q662 378 666 351 L493 349 Z " />
<glyph glyph-name="t" unicode="t" horiz-adv-x="375" d="M388 403 L268 403 L218 189 Q216 180 215 171 Q214 162 214 156 Q214 136 225 127.5 Q236 119 262 119 Q271 119 287.5 120 Q304 121 317 123 L289 4 Q283 3 276 2 Q272 2 269 1 Q253 0 222 -2 Q207 -3 195 -3.5 Q183 -4 172 -4 Q39 -4 39 100 Q39 117 42 132 Q44 139 47 152.5 Q50 166 55 188 L104 403 L29 403 L51 501 L127 501 L159 641 L323 641 L291 501 L410 501 L388 403 Z " />
<glyph glyph-name="u" unicode="u" horiz-adv-x="766" d="M616 0 L453 0 L470 73 Q450 51 437.5 40.5 Q425 30 406 19 Q346 -16 254 -16 Q150 -16 94.5 28.5 Q39 73 39 155 Q39 175 42.5 199.5 Q46 224 54 260 L109 501 L274 501 L217 251 Q214 239 212.5 225.5 Q211 212 211 201 Q211 103 336 103 Q365 103 391 110 Q417 117 439 130 Q466 147 483 175.5 Q500 204 511 250 L568 501 L731 501 L616 0 Z " />
<glyph glyph-name="v" unicode="v" horiz-adv-x="646" d="M332 0 L146 0 L35 501 L213 501 L267 142 L492 501 L676 501 L332 0 Z " />
<glyph glyph-name="w" unicode="w" horiz-adv-x="1042" d="M735 0 L561 0 L516 357 L307 0 L132 0 L33 501 L206 501 L251 154 L455 501 L634 501 L679 154 L885 501 L1070 501 L735 0 Z " />
<glyph glyph-name="x" unicode="x" horiz-adv-x="750" d="M461 267 L669 0 L457 0 L342 178 L147 0 L-82 0 L251 274 L68 501 L285 501 L375 357 L526 501 L752 501 L461 267 Z " />
<glyph glyph-name="y" unicode="y" horiz-adv-x="625" d="M294 -33 Q275 -61 261.5 -80 Q248 -99 238 -111.5 Q228 -124 219.5 -133 Q211 -142 202 -150 Q191 -159 179 -166 Q167 -173 153 -178 Q132 -186 108.5 -189.5 Q85 -193 43 -193 Q11 -193 -16 -192 Q-43 -191 -85 -188 L-57 -70 Q-25 -72 -1.5 -73.5 Q22 -75 36 -75 Q50 -75 58 -74 Q66 -73 76 -70 Q88 -66 98 -57 Q103 -53 106 -49.5 Q109 -46 113.5 -40.5 Q118 -35 124.5 -25.5 Q131 -16 142 0 L32 501 L203 501 L255 120 L477 501 L655 501 L294 -33 Z " />
<glyph glyph-name="z" unicode="z" horiz-adv-x="665" d="M626 415 L249 114 L567 114 L540 0 L-39 0 L-20 82 L371 392 L72 392 L98 501 L646 501 L626 415 Z " />
<glyph glyph-name="braceleft" unicode="&#x7b;" horiz-adv-x="358" d="M431 686 Q412 683 400 681.5 Q388 680 380 678.5 Q372 677 367 675.5 Q362 674 356 671 Q346 667 338.5 659.5 Q331 652 324.5 638.5 Q318 625 312 603 Q306 581 298 547 L278 460 Q267 413 258 389.5 Q249 366 235 349 Q224 335 210 325 Q196 315 183.5 310.5 Q171 306 148 301 Q184 287 198.5 266.5 Q213 246 213 208 Q213 194 211 175.5 Q209 157 204 140 L183 55 Q176 26 172 2 Q168 -22 168 -33 Q168 -46 171 -53 Q174 -60 182 -66 Q191 -74 205 -77 Q219 -80 251 -83 L235 -155 L184 -155 Q27 -155 27 -46 Q27 -32 29.5 -16.5 Q32 -1 38 25 L64 133 Q69 151 71.5 173 Q74 195 74 204 Q74 251 24 266 L39 334 Q56 338 65 341 Q74 344 85 351 Q97 359 103 366 Q113 378 123 404.5 Q133 431 141 468 L166 578 Q171 600 181 630 Q192 668 203.5 687.5 Q215 707 235 722 Q256 739 281 745 Q303 750 333.5 753.5 Q364 757 400 757 L447 757 L431 686 Z " />
<glyph glyph-name="bar" unicode="&#x7c;" horiz-adv-x="252" d="M79 -151 L-58 -151 L151 752 L288 752 L79 -151 Z " />
<glyph glyph-name="braceright" unicode="&#x7d;" horiz-adv-x="359" d="M293 268 Q276 264 267 260.5 Q258 257 247 251 Q235 244 229 236 Q219 224 209 197.5 Q199 171 191 134 L166 24 Q161 2 151 -28 Q140 -66 128.5 -85.5 Q117 -105 98 -120 Q75 -137 51 -143 Q29 -149 -1.5 -152 Q-32 -155 -68 -155 L-114 -155 L-98 -84 Q-61 -80 -48 -77 Q-35 -74 -24 -69 Q-14 -64 -6.5 -56.5 Q1 -49 7.5 -35.5 Q14 -22 20 -0.5 Q26 21 34 55 L54 142 Q65 189 74 212.5 Q83 236 97 253 Q102 260 108.5 266 Q115 272 122 277 Q136 287 148.5 291.5 Q161 296 184 301 Q148 315 133.5 335.5 Q119 356 119 394 Q119 408 121 426.5 Q123 445 128 462 L149 547 Q156 575 160 599.5 Q164 624 164 635 Q164 647 161 654.5 Q158 662 150 668 Q141 676 127 679 Q113 682 81 685 L97 757 L149 757 Q305 757 305 648 Q305 634 302.5 618.5 Q300 603 294 577 L269 469 Q264 451 261 429 Q258 407 258 397 Q258 351 309 336 L293 268 Z " />
<glyph glyph-name="asciitilde" unicode="&#x7e;" horiz-adv-x="772" d="M707 288 Q691 274 679 264 Q667 254 655 246 Q643 238 630.5 231.5 Q618 225 601 217 Q570 203 544 196.5 Q518 190 492 190 Q479 190 467 191.5 Q455 193 441 196.5 Q427 200 410 206.5 Q393 213 370 222 L331 238 Q299 251 276.5 257 Q254 263 232 263 Q211 263 191 257 Q181 254 172 250.5 Q163 247 153 241 Q143 235 130.5 225.5 Q118 216 101 202 L87 190 L38 309 Q53 322 64 331 Q75 340 84 346.5 Q93 353 102 359 Q111 365 123 372 Q182 407 249 407 Q275 407 301.5 400.5 Q328 394 369 377 L421 356 Q453 343 471 338 Q489 333 506 333 Q523 333 543.5 338 Q564 343 584 354 Q601 362 615.5 372 Q630 382 659 405 L707 288 Z " />
<glyph glyph-name="nbspace" unicode="&#xa0;" horiz-adv-x="375" d="" />
<glyph glyph-name="exclamdown" unicode="&#xa1;" horiz-adv-x="333" d="M324 581 L161 581 L190 706 L353 706 L324 581 Z M259 326 Q257 312 255.5 296.5 Q254 281 251 267 L190 0 L27 0 L91 280 Q96 295 101.5 309.5 Q107 324 112 339 L168 498 L281 498 L259 326 Z " />
<glyph glyph-name="cent" unicode="&#xa2;" horiz-adv-x="701" d="M500 336 Q482 363 464 375.5 Q446 388 414 393 L347 104 Q379 106 396 111 Q413 116 437 129 Q454 138 463 146.5 Q472 155 486 173 L650 144 Q638 126 628.5 113 Q619 100 609 89.5 Q599 79 587.5 69.5 Q576 60 560 49 Q536 32 512.5 20 Q489 8 463 0 Q437 -8 405.5 -12.5 Q374 -17 333 -20 L318 -21 L289 -147 L208 -147 L239 -13 Q127 9 70 69.5 Q13 130 13 227 Q13 293 38.5 348 Q64 403 109.5 442 Q155 481 219 503 Q283 525 360 525 L364 525 L389 633 L469 633 L443 519 Q466 516 482.5 513 Q499 510 513.5 505 Q528 500 542 493.5 Q556 487 573 476 Q612 453 636.5 423 Q661 393 676 349 L500 336 Z M334 397 Q180 373 180 237 Q180 143 268 112 L334 397 Z " />
<glyph glyph-name="sterling" unicode="&#xa3;" horiz-adv-x="792" d="M759 533 Q759 526 759 517 Q759 508 757 494 L581 484 Q586 501 587 510.5 Q588 520 588 531 Q588 616 473 616 Q413 616 380 586.5 Q347 557 347 504 Q347 486 351 466 Q355 446 369 407 L376 387 L539 387 L525 325 L401 325 Q409 296 411.5 281 Q414 266 414 249 Q414 220 406 194.5 Q398 169 379 139 Q408 127 427 122 Q446 117 467 117 Q506 117 527.5 142.5 Q549 168 560 228 L727 228 Q697 102 644 45 Q591 -12 503 -12 Q486 -12 469.5 -10.5 Q453 -9 437 -4 Q425 -1 415.5 2 Q406 5 395.5 10 Q385 15 373 22 Q361 29 343 40 Q338 43 330 48 Q322 53 311 59 Q273 24 228.5 7 Q184 -10 128 -10 Q99 -10 74 -5.5 Q49 -1 31 7 Q5 19 -11.5 45.5 Q-28 72 -28 103 Q-28 162 14 198 Q56 234 125 234 Q160 234 189 224.5 Q218 215 260 192 Q260 200 260.5 205.5 Q261 211 261 215 Q261 229 258 242 Q255 259 248.5 276 Q242 293 225 325 L57 325 L71 387 L194 387 Q180 422 174.5 445 Q169 468 169 495 Q169 596 242 658 Q283 693 339 708 Q395 723 481 723 Q624 723 691.5 676.5 Q759 630 759 533 Z M224 110 Q164 152 121 152 Q99 152 86 141 Q73 130 73 110 Q73 93 87.5 83 Q102 73 128 73 Q134 73 141 74 Q148 75 156 77 Q175 82 188 88 Q201 94 224 110 Z " />
<glyph glyph-name="currency" unicode="&#xa4;" horiz-adv-x="751" d="M642 474 Q659 436 665.5 410.5 Q672 385 672 356 Q672 308 658 268 Q644 228 612 186 L687 101 L580 14 L504 99 Q460 80 429 72.5 Q398 65 362 65 Q316 65 281 76 Q246 87 205 114 L112 38 L23 135 L116 210 Q99 242 92.5 268.5 Q86 295 86 327 Q86 424 146 497 L69 581 L177 668 L253 585 Q286 603 319 611 Q352 619 393 619 Q440 619 476 608 Q512 597 552 571 L646 646 L733 547 L642 474 Z M527 351 Q527 382 516.5 408 Q506 434 488 452.5 Q470 471 444.5 481.5 Q419 492 389 492 Q355 492 326 479.5 Q297 467 275.5 445.5 Q254 424 242 395 Q230 366 230 333 Q230 303 241 277.5 Q252 252 271 233 Q290 214 316 203.5 Q342 193 373 193 Q403 193 431 204 Q459 215 480 234.5 Q501 254 514 280 Q527 306 527 337 L527 351 Z " />
<glyph glyph-name="yen" unicode="&#xa5;" horiz-adv-x="854" d="M662 410 L758 410 L734 307 L555 307 L499 253 L722 253 L698 149 L471 149 L436 0 L260 0 L295 149 L71 149 L95 253 L315 253 L285 307 L107 307 L131 410 L226 410 L78 666 L290 666 L436 390 L707 666 L927 666 L662 410 Z " />
<glyph glyph-name="brokenbar" unicode="&#xa6;" horiz-adv-x="252" d="M202 383 L65 383 L151 752 L288 752 L202 383 Z M79 -151 L-58 -151 L27 218 L164 218 L79 -151 Z " />
<glyph glyph-name="section" unicode="&#xa7;" horiz-adv-x="750" d="M592 526 Q584 552 573.5 564.5 Q563 577 540 589 Q513 603 474.5 610.5 Q436 618 398 618 Q344 618 316 605 Q288 592 288 568 Q288 558 292.5 550 Q297 542 310 534.5 Q323 527 345 518.5 Q367 510 402 499 Q434 489 452 483 Q470 477 476 475 Q522 461 552.5 449 Q583 437 606 426 Q689 384 689 301 Q689 198 575 140 Q598 119 608 96 Q618 73 618 42 Q618 -3 595 -40 Q572 -77 531 -104 Q490 -131 432 -145.5 Q374 -160 305 -160 Q177 -160 90 -112 Q56 -93 27 -64 Q15 -51 6 -39.5 Q-3 -28 -9 -15 Q-15 -2 -20 14.5 Q-25 31 -30 53 L125 72 Q131 40 144 20.5 Q157 1 182 -14 Q209 -31 245.5 -40 Q282 -49 324 -49 Q385 -49 420.5 -31 Q456 -13 456 18 Q456 30 451 40 Q446 50 433 58.5 Q420 67 398 75.5 Q376 84 342 94 Q279 113 239.5 125.5 Q200 138 174 147.5 Q148 157 132 165.5 Q116 174 99 184 Q71 201 57 218 Q46 233 38.5 256 Q31 279 31 302 Q31 359 67.5 397.5 Q104 436 175 456 Q169 461 164.5 465 Q160 469 158 472 Q145 487 138 509 Q131 531 131 554 Q131 582 144.5 610.5 Q158 639 181 660 Q215 690 271 705.5 Q327 721 402 721 Q472 721 535.5 708 Q599 695 642 672 Q681 651 702 621.5 Q723 592 731 544 L592 526 Z M550 270 Q550 284 543 297 Q534 310 526 315 Q519 320 507.5 325 Q496 330 478 336 Q460 342 434 350.5 Q408 359 370 370 Q341 378 324.5 383.5 Q308 389 285 398 Q274 402 268 404.5 Q262 407 251 412 Q186 381 186 330 Q186 312 199 297 Q206 290 218.5 282.5 Q231 275 253 266 Q275 257 307.5 246.5 Q340 236 387 222 Q398 219 409 215.5 Q420 212 431 209 Q455 202 467 197 Q479 192 500 183 Q526 205 538 225.5 Q550 246 550 270 Z " />
<glyph glyph-name="dieresis" unicode="&#xa8;" horiz-adv-x="313" d="M319 570 L170 570 L198 693 L347 693 L319 570 Z M113 570 L-34 570 L-6 693 L141 693 L113 570 Z " />
<glyph glyph-name="copyright" unicode="&#xa9;" horiz-adv-x="833" d="M773 357 Q773 281 745.5 215 Q718 149 670 100.5 Q622 52 556.5 24.5 Q491 -3 416 -3 Q342 -3 277 25 Q212 53 164 101 Q116 149 88.5 214 Q61 279 61 353 Q61 427 88.5 492 Q116 557 164 605 Q212 653 277 681 Q342 709 416 709 Q490 709 555 681.5 Q620 654 668.5 606 Q717 558 745 494 Q773 430 773 357 Z M733 352 Q733 420 708.5 478 Q684 536 641.5 579.5 Q599 623 541 647.5 Q483 672 417 672 Q351 672 293.5 647 Q236 622 193.5 578.5 Q151 535 126 476.5 Q101 418 101 352 Q101 286 125.5 228 Q150 170 193 127 Q236 84 293 59 Q350 34 416 34 Q482 34 540 59 Q598 84 640.5 127 Q683 170 708 228 Q733 286 733 352 Z M550 417 Q523 494 436 494 Q403 494 376 482.5 Q349 471 329.5 450.5 Q310 430 299 401.5 Q288 373 288 339 Q288 282 321.5 249 Q355 216 413 216 Q490 216 529 280 L631 271 Q564 136 405 136 Q356 136 316 150.5 Q276 165 247.5 191.5 Q219 218 203 254.5 Q187 291 187 335 Q187 386 206 429 Q225 472 258.5 503.5 Q292 535 338 553 Q384 571 437 571 Q474 571 509 562 Q544 553 572 536 Q606 515 625 488.5 Q644 462 654 420 L550 417 Z " />
<glyph glyph-name="ordfeminine" unicode="&#xaa;" horiz-adv-x="479" d="M500 600 Q500 579 496 560 L464 423 Q462 415 461 409.5 Q460 404 460 400 Q460 392 462 384.5 Q464 377 470 366 L347 366 Q346 371 346 373 Q346 375 346 379 Q346 383 346 387.5 Q346 392 347 402 Q318 376 285 365 Q252 354 206 354 Q133 354 95 380 Q57 406 57 455 Q57 511 102 544 Q116 554 134 560.5 Q152 567 177 571 Q202 575 236.5 577 Q271 579 317 579 L387 579 Q388 584 388 587.5 Q388 591 388 594 Q388 614 366.5 622.5 Q345 631 294 631 Q257 631 242 625 Q227 619 217 601 L103 601 Q105 609 107 614.5 Q109 620 111 624 Q117 636 128 650 Q139 664 151 673 Q177 694 216.5 703 Q256 712 319 712 Q413 712 456.5 685 Q500 658 500 600 Z M372 515 Q361 515 356.5 515 Q352 515 347.5 515 Q343 515 337 514.5 Q331 514 317 514 Q269 512 245 510 Q221 508 204 501 Q191 496 184 486.5 Q177 477 177 466 Q177 434 240 434 Q288 434 324.5 455 Q361 476 370 508 L371 510 L372 515 Z " />
<glyph glyph-name="guillemotleft" unicode="&#xab;" horiz-adv-x="562" d="M516 366 L365 246 L462 131 L441 37 L255 203 L279 308 L542 477 L516 366 Z M270 366 L119 246 L216 131 L195 37 L9 203 L33 308 L296 477 L270 366 Z " />
<glyph glyph-name="logicalnot" unicode="&#xac;" horiz-adv-x="772" d="M609 19 L448 19 L497 234 L36 234 L67 366 L689 366 L609 19 Z " />
<glyph glyph-name="registered" unicode="&#xae;" horiz-adv-x="833" d="M773 354 Q773 279 745.5 214 Q718 149 669.5 100.5 Q621 52 555.5 24.5 Q490 -3 415 -3 Q341 -3 276.5 25 Q212 53 164 101 Q116 149 88.5 214 Q61 279 61 353 Q61 427 88.5 492 Q116 557 164 605 Q212 653 277 681 Q342 709 417 709 Q492 709 557 681.5 Q622 654 670 606 Q718 558 745.5 493 Q773 428 773 354 Z M733 352 Q733 420 708.5 478 Q684 536 641.5 579.5 Q599 623 541.5 647.5 Q484 672 417 672 Q352 672 294.5 647 Q237 622 194.5 578.5 Q152 535 127 476.5 Q102 418 102 352 Q102 286 126.5 228 Q151 170 194 127 Q237 84 294 59 Q351 34 417 34 Q483 34 540.5 59 Q598 84 641 127 Q684 170 708.5 228 Q733 286 733 352 Z M639 448 Q639 422 630.5 397.5 Q622 373 608 356 Q591 337 567 326 Q543 315 501 307 L593 147 L489 147 L402 306 L340 306 L305 147 L211 147 L305 563 L468 563 Q519 563 548 558 Q577 553 597 539 Q617 525 628 501 Q639 477 639 448 Z M542 440 Q542 464 527 476 Q518 484 505 486.5 Q492 489 461 489 L382 489 L357 381 L439 381 Q478 381 494 384 Q510 387 521 395 Q531 403 536.5 415 Q542 427 542 440 Z " />
<glyph glyph-name="macron" unicode="&#xaf;" horiz-adv-x="313" d="M323 572 L-31 572 L-10 665 L344 665 L323 572 Z " />
<glyph glyph-name="degree" unicode="&#xb0;" horiz-adv-x="355" d="M405 585 Q405 549 391.5 517.5 Q378 486 354.5 462.5 Q331 439 300 425.5 Q269 412 233 412 Q197 412 166 425.5 Q135 439 111.5 462.5 Q88 486 74.5 517 Q61 548 61 584 Q61 620 74.5 651 Q88 682 111.5 705.5 Q135 729 166 742.5 Q197 756 233 756 Q269 756 300 743 Q331 730 354.5 706.5 Q378 683 391.5 652 Q405 621 405 585 Z M310 583 Q310 615 287.5 637 Q265 659 233 659 Q201 659 178.5 637.5 Q156 616 156 584 Q156 552 178.5 529.5 Q201 507 233 507 Q264 507 287 529.5 Q310 552 310 583 Z " />
<glyph glyph-name="plusminus" unicode="&#xb1;" horiz-adv-x="772" d="M693 388 L477 388 L431 190 L269 190 L315 388 L98 388 L129 521 L346 521 L390 712 L552 712 L508 521 L723 521 L693 388 Z M604 0 L9 0 L40 132 L634 132 L604 0 Z " />
<glyph glyph-name="twosuperior" unicode="&#xb2;" horiz-adv-x="478" d="M487 531 Q487 509 480.5 487.5 Q474 466 463 450 Q442 420 401 398 Q360 376 280 353 Q253 345 235.5 339.5 Q218 334 204.5 328 Q191 322 179.5 314.5 Q168 307 152 296 L436 296 L420 206 L2 206 Q5 223 7 232.5 Q9 242 12 253 Q21 286 37.5 312 Q54 338 80.5 359 Q107 380 146 397.5 Q185 415 240 431 Q305 451 333.5 471.5 Q362 492 362 520 Q362 567 288 567 Q265 567 246 562.5 Q227 558 216 549 Q205 541 198 529.5 Q191 518 185 498 L68 498 Q78 542 95.5 572 Q113 602 140 621 Q167 640 205 648.5 Q243 657 295 657 Q387 657 437 624 Q487 591 487 531 Z " />
<glyph glyph-name="threesuperior" unicode="&#xb3;" horiz-adv-x="478" d="M496 540 Q496 450 392 428 Q468 408 468 343 Q468 274 404.5 234.5 Q341 195 231 195 Q120 195 66.5 235.5 Q13 276 11 361 L137 365 Q139 340 141.5 330 Q144 320 153 311 Q176 287 236 287 Q288 287 315.5 302.5 Q343 318 343 347 Q343 363 335 373 Q326 384 307 388 Q288 392 240 392 L181 392 L197 470 L239 470 Q275 470 294.5 471.5 Q314 473 330 478 Q365 489 365 523 Q365 567 278 567 Q238 567 216.5 557.5 Q195 548 181 523 L58 531 Q71 562 82 578.5 Q93 595 110 609 Q169 657 288 657 Q390 657 443 627 Q496 597 496 540 Z " />
<glyph glyph-name="acute" unicode="&#xb4;" horiz-adv-x="313" d="M131 572 L28 572 L106 696 L285 696 L131 572 Z " />
<glyph glyph-name="mu" unicode="&#xb5;" horiz-adv-x="771" d="M642 76 Q635 47 635 35 Q635 26 637.5 19 Q640 12 647 0 L464 0 L479 72 Q446 29 402 9 Q358 -11 297 -11 Q275 -11 257.5 -8 Q240 -5 223 1 Q208 8 198 14.5 Q188 21 173 35 L120 -192 L-44 -192 L118 501 L283 501 L226 257 Q217 221 217 196 Q217 151 247.5 125.5 Q278 100 331 100 Q370 100 404 112 Q438 124 464 147 Q477 159 489 174 Q500 190 506.5 207 Q513 224 521 258 L578 501 L742 501 L642 76 Z " />
<glyph glyph-name="paragraph" unicode="&#xb6;" horiz-adv-x="640" d="M625 626 L591 626 L408 -166 L322 -166 L505 626 L387 626 L204 -166 L117 -166 L229 319 Q169 340 141 378.5 Q113 417 113 478 Q113 535 139 585.5 Q165 636 210 665 Q242 686 283.5 696 Q325 706 382 706 L643 706 L625 626 Z " />
<glyph glyph-name="periodcentered" unicode="&#xb7;" horiz-adv-x="292" d="M197 209 L33 209 L66 352 L230 352 L197 209 Z " />
<glyph glyph-name="cedilla" unicode="&#xb8;" horiz-adv-x="313" d="M282 -144 Q282 -191 240.5 -220 Q199 -249 133 -249 Q113 -249 92.5 -246 Q72 -243 31 -234 L44 -185 Q59 -187 71.5 -188.5 Q84 -190 95 -190 Q127 -190 145 -179.5 Q163 -169 163 -149 Q163 -120 118 -120 Q107 -120 96.5 -121 Q86 -122 67 -127 L61 -99 L175 7 L232 7 L153 -76 Q160 -75 163.5 -75 Q167 -75 173 -75 Q225 -75 253.5 -93 Q282 -111 282 -144 Z " />
<glyph glyph-name="onesuperior" unicode="&#xb9;" horiz-adv-x="478" d="M290 206 L172 206 L247 529 Q225 520 213.5 515.5 Q202 511 189 507 Q173 503 158.5 501 Q144 499 115 496 L135 581 Q164 584 180.5 588.5 Q197 593 222 604 Q242 614 254 622 Q266 630 286 648 L392 648 L290 206 Z " />
<glyph glyph-name="ordmasculine" unicode="&#xba;" horiz-adv-x="499" d="M523 556 Q523 542 520 527 Q513 485 492 451.5 Q471 418 438.5 394.5 Q406 371 363.5 358.5 Q321 346 270 346 Q224 346 185 357.5 Q146 369 118 390 Q90 411 74.5 440 Q59 469 59 503 Q59 549 78 587.5 Q97 626 130.5 654 Q164 682 210.5 698 Q257 714 312 714 Q359 714 398 702.5 Q437 691 464.5 670 Q492 649 507.5 620 Q523 591 523 556 Z M403 544 Q403 582 376 604 Q349 626 303 626 Q249 626 214.5 595.5 Q180 565 180 518 Q180 479 207 456.5 Q234 434 281 434 Q329 434 362 459.5 Q395 485 401 527 Q403 537 403 544 Z " />
<glyph glyph-name="guillemotright" unicode="&#xbb;" horiz-adv-x="562" d="M487 208 L224 39 L250 150 L402 269 L304 384 L326 479 L511 313 L487 208 Z M241 208 L-22 39 L4 150 L156 269 L58 384 L80 479 L265 313 L241 208 Z " />
<glyph glyph-name="onequarter" unicode="&#xbc;" horiz-adv-x="1125" d="M1022 90 L951 90 L930 0 L812 0 L833 89 L565 89 L583 170 L911 441 L1032 441 L970 174 L1041 174 L1022 90 Z M326 -25 L264 20 L788 672 L851 627 L326 -25 Z M295 206 L177 206 L252 529 Q230 520 218.5 515.5 Q207 511 194 507 Q178 503 163.5 501 Q149 499 120 496 L140 581 Q169 584 185.5 588.5 Q202 593 227 604 Q247 614 259 622 Q271 630 291 648 L397 648 L295 206 Z M721 173 L853 173 L887 322 L721 173 Z " />
<glyph glyph-name="onehalf" unicode="&#xbd;" horiz-adv-x="1125" d="M1070 324 Q1070 302 1064 281 Q1058 260 1047 244 Q1026 214 985 192.5 Q944 171 864 147 Q837 139 819.5 133.5 Q802 128 788.5 122 Q775 116 763.5 108.5 Q752 101 736 90 L1020 90 L1004 0 L586 0 Q589 17 591 26.5 Q593 36 596 47 Q605 80 621.5 106 Q638 132 664.5 153 Q691 174 730 191.5 Q769 209 824 225 Q889 245 917.5 265.5 Q946 286 946 314 Q946 361 872 361 Q825 361 799 343 Q788 335 781.5 323.5 Q775 312 769 292 L652 292 Q662 336 679.5 366 Q697 396 724 414.5 Q751 433 789 441.5 Q827 450 879 450 Q971 450 1020.5 417.5 Q1070 385 1070 324 Z M273 -25 L211 20 L735 672 L798 627 L273 -25 Z M273 206 L155 206 L230 529 Q208 520 196.5 515.5 Q185 511 172 507 Q156 503 141.5 501 Q127 499 98 496 L118 581 Q147 584 163.5 588.5 Q180 593 205 604 Q225 614 237.5 622 Q250 630 270 648 L376 648 L273 206 Z " />
<glyph glyph-name="threequarters" unicode="&#xbe;" horiz-adv-x="1125" d="M1060 90 L989 90 L969 0 L851 0 L871 89 L603 89 L622 170 L950 441 L1070 441 L1009 174 L1080 174 L1060 90 Z M365 -25 L303 20 L827 672 L890 627 L365 -25 Z M493 540 Q493 450 390 428 Q465 408 465 343 Q465 274 401.5 234.5 Q338 195 228 195 Q118 195 64 235.5 Q10 276 8 361 L134 365 Q136 340 139 330 Q142 320 150 311 Q174 287 234 287 Q285 287 312.5 302.5 Q340 318 340 347 Q340 363 332 373 Q323 384 304 388 Q285 392 237 392 L179 392 L194 470 L236 470 Q273 470 292 471.5 Q311 473 327 478 Q362 489 362 523 Q362 567 275 567 Q235 567 214 557.5 Q193 548 179 523 L56 531 Q69 562 79.5 578.5 Q90 595 107 609 Q166 657 286 657 Q387 657 440 627 Q493 597 493 540 Z M760 173 L892 173 L926 322 L760 173 Z " />
<glyph glyph-name="questiondown" unicode="&#xbf;" horiz-adv-x="688" d="M473 581 L308 581 L337 706 L502 706 L473 581 Z M601 214 Q599 206 597 200.5 Q595 195 593 190 Q577 140 558 109 Q539 78 509 52 Q427 -18 272 -18 Q135 -18 64 26 Q-7 70 -7 155 Q-7 180 -2 204.5 Q3 229 14 249 Q30 281 61 306.5 Q92 332 152 363 L197 386 Q225 400 240.5 410.5 Q256 421 264 432 Q272 443 277 456 Q282 469 289 498 L454 498 L449 473 Q444 449 439.5 432 Q435 415 429.5 402 Q424 389 417 379 Q410 369 400 359 Q387 344 369 333 Q358 325 343 317.5 Q328 310 295 293 Q274 283 262 276.5 Q250 270 241.5 265.5 Q233 261 227 257.5 Q221 254 213 249 Q164 218 164 172 Q164 137 196 117.5 Q228 98 285 98 Q352 98 388 127 Q407 142 418.5 162.5 Q430 183 442 222 L601 214 Z " />
<glyph glyph-name="Agrave" unicode="&#xc0;" horiz-adv-x="875" d="M490 760 L378 885 L548 885 L590 760 L490 760 Z M613 0 L584 133 L222 133 L131 0 L-74 0 L430 706 L621 706 L799 0 L613 0 Z M496 537 L308 258 L555 258 L496 537 Z " />
<glyph glyph-name="Aacute" unicode="&#xc1;" horiz-adv-x="875" d="M546 761 L445 761 L530 885 L708 885 L546 761 Z M613 0 L584 133 L222 133 L131 0 L-74 0 L430 706 L621 706 L799 0 L613 0 Z M496 537 L308 258 L555 258 L496 537 Z " />
<glyph glyph-name="Acircumflex" unicode="&#xc2;" horiz-adv-x="875" d="M609 761 L545 839 L442 761 L320 761 L445 885 L649 885 L715 761 L609 761 Z M613 0 L584 133 L222 133 L131 0 L-74 0 L430 706 L621 706 L799 0 L613 0 Z M496 537 L308 258 L555 258 L496 537 Z " />
<glyph glyph-name="Atilde" unicode="&#xc3;" horiz-adv-x="875" d="M725 884 Q704 819 674 791.5 Q644 764 595 764 Q575 764 552 769 Q529 774 497 785 Q464 797 452 800.5 Q440 804 429 804 Q398 804 380 769 L322 769 Q339 829 369 857.5 Q399 886 447 886 Q464 886 482 881.5 Q500 877 531 866 Q561 855 578.5 851 Q596 847 612 847 Q653 847 667 884 L725 884 Z M613 0 L584 133 L222 133 L131 0 L-74 0 L430 706 L621 706 L799 0 L613 0 Z M496 537 L308 258 L555 258 L496 537 Z " />
<glyph glyph-name="Adieresis" unicode="&#xc4;" horiz-adv-x="875" d="M762 754 L598 754 L627 880 L791 880 L762 754 Z M458 754 L294 754 L323 880 L487 880 L458 754 Z M613 0 L584 133 L222 133 L131 0 L-74 0 L430 706 L621 706 L799 0 L613 0 Z M496 537 L308 258 L555 258 L496 537 Z " />
<glyph glyph-name="Aring" unicode="&#xc5;" horiz-adv-x="875" d="M667 829 Q667 783 632 754.5 Q597 726 539 726 Q481 726 443.5 755.5 Q406 785 406 830 Q406 875 443 903.5 Q480 932 537 932 Q594 932 630.5 903 Q667 874 667 829 Z M613 0 L584 133 L222 133 L131 0 L-74 0 L430 706 L621 706 L799 0 L613 0 Z M590 828 Q590 851 575 864.5 Q560 878 535 878 Q512 878 497.5 864 Q483 850 483 828 Q483 807 498 793 Q513 779 536 779 Q559 779 574.5 793 Q590 807 590 828 Z M496 537 L308 258 L555 258 L496 537 Z " />
<glyph glyph-name="AE" unicode="&#xc6;" horiz-adv-x="1104" d="M1104 582 L757 582 L719 418 L1050 418 L1022 294 L690 294 L651 124 L1020 124 L991 0 L452 0 L491 170 L265 170 L135 0 L-68 0 L480 706 L1132 706 L1104 582 Z M351 294 L516 294 L590 616 L351 294 Z " />
<glyph glyph-name="Ccedilla" unicode="&#xc7;" horiz-adv-x="896" d="M732 463 Q681 595 515 595 Q453 595 401.5 575 Q350 555 312.5 519.5 Q275 484 254.5 434 Q234 384 234 324 Q234 275 250.5 235.5 Q267 196 298 168 Q329 140 373 125 Q417 110 471 110 Q616 110 690 220 L875 205 Q871 198 868 192.5 Q865 187 862 182 Q835 134 799.5 100 Q764 66 711 38 Q682 22 656 11.5 Q630 1 601.5 -5 Q573 -11 540 -14 Q507 -17 464 -17 L409 -76 Q416 -75 420 -75 Q424 -75 429 -75 Q482 -75 509.5 -93 Q537 -111 537 -144 Q537 -191 496 -220 Q455 -249 389 -249 Q369 -249 349 -246 Q329 -243 288 -234 L300 -185 Q315 -187 327.5 -188.5 Q340 -190 351 -190 Q418 -190 418 -149 Q418 -120 373 -120 Q362 -120 352 -121 Q342 -122 322 -127 L317 -99 L407 -16 Q367 -12 338.5 -7.5 Q310 -3 287 3 Q264 9 243 18.5 Q222 28 196 43 Q126 81 86 153 Q46 225 46 310 Q46 371 65 431.5 Q84 492 119 543 Q182 633 282.5 679.5 Q383 726 515 726 Q665 726 775 667 Q808 650 835.5 626.5 Q863 603 883 576 Q892 564 898 553.5 Q904 543 909.5 531 Q915 519 919.5 504 Q924 489 930 469 L732 463 Z " />
<glyph glyph-name="Egrave" unicode="&#xc8;" horiz-adv-x="791" d="M458 760 L346 885 L516 885 L558 760 L458 760 Z M791 579 L311 579 L274 420 L739 420 L710 294 L245 294 L206 126 L707 126 L678 0 L0 0 L163 706 L821 706 L791 579 Z " />
<glyph glyph-name="Eacute" unicode="&#xc9;" horiz-adv-x="791" d="M519 761 L418 761 L503 885 L681 885 L519 761 Z M791 579 L311 579 L274 420 L739 420 L710 294 L245 294 L206 126 L707 126 L678 0 L0 0 L163 706 L821 706 L791 579 Z " />
<glyph glyph-name="Ecircumflex" unicode="&#xca;" horiz-adv-x="791" d="M579 761 L515 839 L412 761 L290 761 L415 885 L619 885 L685 761 L579 761 Z M791 579 L311 579 L274 420 L739 420 L710 294 L245 294 L206 126 L707 126 L678 0 L0 0 L163 706 L821 706 L791 579 Z " />
<glyph glyph-name="Edieresis" unicode="&#xcb;" horiz-adv-x="791" d="M731 754 L567 754 L596 880 L760 880 L731 754 Z M427 754 L263 754 L292 880 L456 880 L427 754 Z M791 579 L311 579 L274 420 L739 420 L710 294 L245 294 L206 126 L707 126 L678 0 L0 0 L163 706 L821 706 L791 579 Z " />
<glyph glyph-name="Igrave" unicode="&#xcc;" horiz-adv-x="313" d="M213 760 L101 885 L271 885 L313 760 L213 760 Z M160 0 L-4 0 L159 706 L323 706 L160 0 Z " />
<glyph glyph-name="Iacute" unicode="&#xcd;" horiz-adv-x="313" d="M279 761 L178 761 L264 885 L441 885 L279 761 Z M160 0 L-4 0 L159 706 L323 706 L160 0 Z " />
<glyph glyph-name="Icircumflex" unicode="&#xce;" horiz-adv-x="313" d="M331 761 L267 839 L164 761 L42 761 L167 885 L371 885 L437 761 L331 761 Z M160 0 L-4 0 L159 706 L323 706 L160 0 Z " />
<glyph glyph-name="Idieresis" unicode="&#xcf;" horiz-adv-x="313" d="M482 754 L318 754 L347 880 L511 880 L482 754 Z M178 754 L14 754 L43 880 L207 880 L178 754 Z M160 0 L-4 0 L159 706 L323 706 L160 0 Z " />
<glyph glyph-name="Eth" unicode="&#xd0;" horiz-adv-x="895" d="M863 432 Q863 378 852.5 327 Q842 276 822.5 230.5 Q803 185 774.5 147 Q746 109 711 82 Q672 52 619.5 32 Q567 12 512 7 Q480 4 431.5 2 Q383 0 337 0 L0 0 L71 306 L-7 306 L19 421 L97 421 L163 706 L509 706 Q592 706 643.5 697.5 Q695 689 737 667 Q863 603 863 432 Z M683 413 Q683 451 674 480.5 Q665 510 648 530 Q636 545 620.5 554.5 Q605 564 582.5 570 Q560 576 529.5 578.5 Q499 581 455 581 L310 581 L273 421 L459 421 L432 306 L246 306 L205 125 L347 125 Q375 125 394 125.5 Q413 126 428 126.5 Q443 127 455 128.5 Q467 130 480 132 Q551 144 599 192 Q617 210 632.5 236 Q648 262 659 291.5 Q670 321 676.5 352 Q683 383 683 413 Z " />
<glyph glyph-name="Ntilde" unicode="&#xd1;" horiz-adv-x="937" d="M768 884 Q747 819 717 791.5 Q687 764 638 764 Q618 764 595 769 Q572 774 540 785 Q507 797 495 800.5 Q483 804 472 804 Q441 804 423 769 L365 769 Q382 829 412 857.5 Q442 886 490 886 Q507 886 525 881.5 Q543 877 574 866 Q604 855 621.5 851 Q639 847 655 847 Q696 847 710 884 L768 884 Z M778 0 L604 0 L283 503 L168 0 L0 0 L163 706 L340 706 L656 201 L773 706 L941 706 L778 0 Z " />
<glyph glyph-name="Ograve" unicode="&#xd2;" horiz-adv-x="958" d="M497 760 L385 885 L555 885 L597 760 L497 760 Z M925 403 Q925 334 904 266 Q883 198 847 147 Q787 62 688.5 18.5 Q590 -25 462 -25 Q365 -25 288.5 -2 Q212 21 159 65 Q106 109 78 172.5 Q50 236 50 316 Q50 409 82.5 485.5 Q115 562 175 616.5 Q235 671 319 701 Q403 731 506 731 Q589 731 665 714.5 Q741 698 799 659.5 Q857 621 891 558 Q925 495 925 403 Z M742 389 Q742 493 682 548 Q622 603 509 603 Q449 603 406 588.5 Q363 574 325 542 Q281 505 256.5 446.5 Q232 388 232 319 Q232 216 294 160 Q356 104 470 104 Q532 104 582.5 124 Q633 144 668.5 181 Q704 218 723 271 Q742 324 742 389 Z " />
<glyph glyph-name="Oacute" unicode="&#xd3;" horiz-adv-x="958" d="M534 761 L433 761 L518 885 L696 885 L534 761 Z M925 403 Q925 334 904 266 Q883 198 847 147 Q787 62 688.5 18.5 Q590 -25 462 -25 Q365 -25 288.5 -2 Q212 21 159 65 Q106 109 78 172.5 Q50 236 50 316 Q50 409 82.5 485.5 Q115 562 175 616.5 Q235 671 319 701 Q403 731 506 731 Q589 731 665 714.5 Q741 698 799 659.5 Q857 621 891 558 Q925 495 925 403 Z M742 389 Q742 493 682 548 Q622 603 509 603 Q449 603 406 588.5 Q363 574 325 542 Q281 505 256.5 446.5 Q232 388 232 319 Q232 216 294 160 Q356 104 470 104 Q532 104 582.5 124 Q633 144 668.5 181 Q704 218 723 271 Q742 324 742 389 Z " />
<glyph glyph-name="Ocircumflex" unicode="&#xd4;" horiz-adv-x="958" d="M610 761 L546 839 L443 761 L321 761 L446 885 L650 885 L716 761 L610 761 Z M925 403 Q925 334 904 266 Q883 198 847 147 Q787 62 688.5 18.5 Q590 -25 462 -25 Q365 -25 288.5 -2 Q212 21 159 65 Q106 109 78 172.5 Q50 236 50 316 Q50 409 82.5 485.5 Q115 562 175 616.5 Q235 671 319 701 Q403 731 506 731 Q589 731 665 714.5 Q741 698 799 659.5 Q857 621 891 558 Q925 495 925 403 Z M742 389 Q742 493 682 548 Q622 603 509 603 Q449 603 406 588.5 Q363 574 325 542 Q281 505 256.5 446.5 Q232 388 232 319 Q232 216 294 160 Q356 104 470 104 Q532 104 582.5 124 Q633 144 668.5 181 Q704 218 723 271 Q742 324 742 389 Z " />
<glyph glyph-name="Otilde" unicode="&#xd5;" horiz-adv-x="958" d="M707 884 Q686 819 656 791.5 Q626 764 577 764 Q557 764 534 769 Q511 774 479 785 Q446 797 434 800.5 Q422 804 411 804 Q380 804 362 769 L304 769 Q321 829 351 857.5 Q381 886 429 886 Q446 886 464 881.5 Q482 877 513 866 Q543 855 560.5 851 Q578 847 594 847 Q635 847 649 884 L707 884 Z M925 403 Q925 334 904 266 Q883 198 847 147 Q787 62 688.5 18.5 Q590 -25 462 -25 Q365 -25 288.5 -2 Q212 21 159 65 Q106 109 78 172.5 Q50 236 50 316 Q50 409 82.5 485.5 Q115 562 175 616.5 Q235 671 319 701 Q403 731 506 731 Q589 731 665 714.5 Q741 698 799 659.5 Q857 621 891 558 Q925 495 925 403 Z M742 389 Q742 493 682 548 Q622 603 509 603 Q449 603 406 588.5 Q363 574 325 542 Q281 505 256.5 446.5 Q232 388 232 319 Q232 216 294 160 Q356 104 470 104 Q532 104 582.5 124 Q633 144 668.5 181 Q704 218 723 271 Q742 324 742 389 Z " />
<glyph glyph-name="Odieresis" unicode="&#xd6;" horiz-adv-x="958" d="M756 754 L592 754 L621 880 L785 880 L756 754 Z M452 754 L288 754 L317 880 L481 880 L452 754 Z M925 403 Q925 334 904 266 Q883 198 847 147 Q787 62 688.5 18.5 Q590 -25 462 -25 Q365 -25 288.5 -2 Q212 21 159 65 Q106 109 78 172.5 Q50 236 50 316 Q50 409 82.5 485.5 Q115 562 175 616.5 Q235 671 319 701 Q403 731 506 731 Q589 731 665 714.5 Q741 698 799 659.5 Q857 621 891 558 Q925 495 925 403 Z M742 389 Q742 493 682 548 Q622 603 509 603 Q449 603 406 588.5 Q363 574 325 542 Q281 505 256.5 446.5 Q232 388 232 319 Q232 216 294 160 Q356 104 470 104 Q532 104 582.5 124 Q633 144 668.5 181 Q704 218 723 271 Q742 324 742 389 Z " />
<glyph glyph-name="multiply" unicode="&#xd7;" horiz-adv-x="772" d="M490 312 L633 171 L507 75 L364 216 L187 82 L91 176 L269 310 L125 452 L251 547 L395 406 L571 539 L666 445 L490 312 Z " />
<glyph glyph-name="Oslash" unicode="&#xd8;" horiz-adv-x="958" d="M871 589 Q900 547 912.5 503 Q925 459 925 402 Q925 334 904.5 266.5 Q884 199 847 147 Q726 -25 462 -25 Q366 -25 292.5 -3 Q219 19 157 66 L55 -7 L12 48 L109 119 Q78 164 64 210 Q50 256 50 315 Q50 410 82.5 486.5 Q115 563 175 617.5 Q235 672 320 701.5 Q405 731 509 731 Q542 731 576.5 728 Q611 725 643 719 Q699 708 739.5 691 Q780 674 820 642 L919 713 L962 655 L871 589 Z M687 544 Q657 573 611 588 Q565 603 505 603 Q443 603 392.5 583 Q342 563 306.5 525.5 Q271 488 251.5 435.5 Q232 383 232 318 Q232 302 232.5 291 Q233 280 235 269.5 Q237 259 240.5 248.5 Q244 238 250 223 L687 544 Z M742 394 Q742 417 738.5 437 Q735 457 726 483 L290 164 Q356 104 471 104 Q534 104 584 124 Q634 144 669 181.5 Q704 219 723 273 Q742 327 742 394 Z " />
<glyph glyph-name="Ugrave" unicode="&#xd9;" horiz-adv-x="917" d="M516 760 L405 885 L575 885 L616 760 L516 760 Z M829 296 Q819 251 808 216.5 Q797 182 785 155 Q773 128 758 106.5 Q743 85 725 67 Q704 47 680 31.5 Q656 16 629 7 Q584 -9 529 -17 Q474 -25 415 -25 Q342 -25 276.5 -11.5 Q211 2 163 28 Q112 54 86 101.5 Q60 149 60 212 Q60 237 64 266.5 Q68 296 78 340 L163 706 L339 706 L252 335 Q239 277 239 244 Q239 118 438 118 Q539 118 590 163 Q609 179 621 202 Q627 213 631 222 Q635 231 639 244 Q643 257 648 276.5 Q653 296 660 327 L748 706 L924 706 L829 296 Z " />
<glyph glyph-name="Uacute" unicode="&#xda;" horiz-adv-x="917" d="M561 761 L461 761 L546 885 L724 885 L561 761 Z M829 296 Q819 251 808 216.5 Q797 182 785 155 Q773 128 758 106.5 Q743 85 725 67 Q704 47 680 31.5 Q656 16 629 7 Q584 -9 529 -17 Q474 -25 415 -25 Q342 -25 276.5 -11.5 Q211 2 163 28 Q112 54 86 101.5 Q60 149 60 212 Q60 237 64 266.5 Q68 296 78 340 L163 706 L339 706 L252 335 Q239 277 239 244 Q239 118 438 118 Q539 118 590 163 Q609 179 621 202 Q627 213 631 222 Q635 231 639 244 Q643 257 648 276.5 Q653 296 660 327 L748 706 L924 706 L829 296 Z " />
<glyph glyph-name="Ucircumflex" unicode="&#xdb;" horiz-adv-x="917" d="M629 761 L565 839 L462 761 L340 761 L465 885 L669 885 L735 761 L629 761 Z M829 296 Q819 251 808 216.5 Q797 182 785 155 Q773 128 758 106.5 Q743 85 725 67 Q704 47 680 31.5 Q656 16 629 7 Q584 -9 529 -17 Q474 -25 415 -25 Q342 -25 276.5 -11.5 Q211 2 163 28 Q112 54 86 101.5 Q60 149 60 212 Q60 237 64 266.5 Q68 296 78 340 L163 706 L339 706 L252 335 Q239 277 239 244 Q239 118 438 118 Q539 118 590 163 Q609 179 621 202 Q627 213 631 222 Q635 231 639 244 Q643 257 648 276.5 Q653 296 660 327 L748 706 L924 706 L829 296 Z " />
<glyph glyph-name="Udieresis" unicode="&#xdc;" horiz-adv-x="917" d="M780 754 L616 754 L646 880 L810 880 L780 754 Z M476 754 L313 754 L342 880 L506 880 L476 754 Z M829 296 Q819 251 808 216.5 Q797 182 785 155 Q773 128 758 106.5 Q743 85 725 67 Q704 47 680 31.5 Q656 16 629 7 Q584 -9 529 -17 Q474 -25 415 -25 Q342 -25 276.5 -11.5 Q211 2 163 28 Q112 54 86 101.5 Q60 149 60 212 Q60 237 64 266.5 Q68 296 78 340 L163 706 L339 706 L252 335 Q239 277 239 244 Q239 118 438 118 Q539 118 590 163 Q609 179 621 202 Q627 213 631 222 Q635 231 639 244 Q643 257 648 276.5 Q653 296 660 327 L748 706 L924 706 L829 296 Z " />
<glyph glyph-name="Yacute" unicode="&#xdd;" horiz-adv-x="854" d="M530 761 L429 761 L514 885 L692 885 L530 761 Z M492 265 L431 0 L255 0 L316 265 L82 706 L291 706 L431 410 L708 706 L931 706 L492 265 Z " />
<glyph glyph-name="Thorn" unicode="&#xde;" horiz-adv-x="791" d="M792 403 Q792 343 768 290.5 Q744 238 700 206 Q677 189 645.5 176 Q614 163 580 157 Q552 152 518 149.5 Q484 147 455 147 L209 147 L174 0 L0 0 L163 706 L338 706 L311 587 L475 587 Q527 587 559.5 586.5 Q592 586 613 584 Q634 582 648.5 579.5 Q663 577 680 572 Q733 558 762.5 513 Q792 468 792 403 Z M611 383 Q611 418 595 437 Q588 446 579 451.5 Q570 457 556.5 460 Q543 463 522 464 Q501 465 470 465 L282 465 L237 271 L454 271 Q504 271 530 277 Q556 283 574 297 Q591 311 601 334 Q611 357 611 383 Z " />
<glyph glyph-name="germandbls" unicode="&#xdf;" horiz-adv-x="750" d="M698 565 Q698 498 660.5 459.5 Q623 421 542 406 Q620 393 654 358 Q688 323 688 256 Q688 220 677.5 183 Q667 146 650 116 Q574 -14 387 -14 Q357 -14 329 -10.5 Q301 -7 263 0 L235 5 L258 104 Q290 96 314 92 Q338 88 360 88 Q396 88 425.5 100 Q455 112 476 134.5 Q497 157 509 188 Q521 219 521 256 Q521 349 398 349 Q384 349 369 348.5 Q354 348 337 347 L320 346 L343 447 Q355 446 361.5 446 Q368 446 376 446 Q408 446 427.5 448.5 Q447 451 463 456 Q492 467 509 492 Q526 517 526 548 Q526 624 417 624 Q354 624 323 599 Q308 586 300 571 Q292 556 287 540.5 Q282 525 274 491 L161 0 L-4 0 L111 497 Q119 532 128 557.5 Q137 583 148 603.5 Q159 624 174 639.5 Q189 655 208 669 Q248 698 301 711 Q354 724 427 724 Q698 724 698 565 Z " />
<glyph glyph-name="agrave" unicode="&#xe0;" horiz-adv-x="743" d="M355 571 L252 696 L422 696 L455 571 L355 571 Z M674 368 Q674 358 673.5 350 Q673 342 671.5 332.5 Q670 323 667.5 310.5 Q665 298 660 279 L613 76 Q608 58 607 49.5 Q606 41 606 35 Q606 27 608 19.5 Q610 12 618 0 L439 0 Q438 7 438 10.5 Q438 14 438 18 Q438 27 439 34.5 Q440 42 442 53 Q422 37 411.5 30 Q401 23 387 16 Q357 1 312.5 -7.5 Q268 -16 217 -16 Q110 -16 54 22 Q-2 60 -2 132 Q-2 174 17 209.5 Q36 245 71 268 Q108 293 168.5 304 Q229 315 324 315 L503 315 L506 328 Q508 333 508 339 Q508 345 508 350 Q508 380 478 393.5 Q448 407 378 407 Q340 407 315 403.5 Q290 400 273 392 Q262 387 255 380.5 Q248 374 239 360 L73 362 Q99 443 177 481.5 Q255 520 394 520 Q539 520 606.5 483.5 Q674 447 674 368 Z M441 232 Q400 232 363 230.5 Q326 229 292 227 Q273 225 258.5 223 Q244 221 229 216 Q171 198 171 151 Q171 95 266 95 Q305 95 341 104.5 Q377 114 405.5 130.5 Q434 147 453.5 169 Q473 191 480 217 L484 232 L441 232 Z " />
<glyph glyph-name="aacute" unicode="&#xe1;" horiz-adv-x="743" d="M416 572 L314 572 L392 696 L570 696 L416 572 Z M674 368 Q674 358 673.5 350 Q673 342 671.5 332.5 Q670 323 667.5 310.5 Q665 298 660 279 L613 76 Q608 58 607 49.5 Q606 41 606 35 Q606 27 608 19.5 Q610 12 618 0 L439 0 Q438 7 438 10.5 Q438 14 438 18 Q438 27 439 34.5 Q440 42 442 53 Q422 37 411.5 30 Q401 23 387 16 Q357 1 312.5 -7.5 Q268 -16 217 -16 Q110 -16 54 22 Q-2 60 -2 132 Q-2 174 17 209.5 Q36 245 71 268 Q108 293 168.5 304 Q229 315 324 315 L503 315 L506 328 Q508 333 508 339 Q508 345 508 350 Q508 380 478 393.5 Q448 407 378 407 Q340 407 315 403.5 Q290 400 273 392 Q262 387 255 380.5 Q248 374 239 360 L73 362 Q99 443 177 481.5 Q255 520 394 520 Q539 520 606.5 483.5 Q674 447 674 368 Z M441 232 Q400 232 363 230.5 Q326 229 292 227 Q273 225 258.5 223 Q244 221 229 216 Q171 198 171 151 Q171 95 266 95 Q305 95 341 104.5 Q377 114 405.5 130.5 Q434 147 453.5 169 Q473 191 480 217 L484 232 L441 232 Z " />
<glyph glyph-name="acircumflex" unicode="&#xe2;" horiz-adv-x="743" d="M493 571 L429 649 L326 571 L204 571 L329 695 L533 695 L599 571 L493 571 Z M674 368 Q674 358 673.5 350 Q673 342 671.5 332.5 Q670 323 667.5 310.5 Q665 298 660 279 L613 76 Q608 58 607 49.5 Q606 41 606 35 Q606 27 608 19.5 Q610 12 618 0 L439 0 Q438 7 438 10.5 Q438 14 438 18 Q438 27 439 34.5 Q440 42 442 53 Q422 37 411.5 30 Q401 23 387 16 Q357 1 312.5 -7.5 Q268 -16 217 -16 Q110 -16 54 22 Q-2 60 -2 132 Q-2 174 17 209.5 Q36 245 71 268 Q108 293 168.5 304 Q229 315 324 315 L503 315 L506 328 Q508 333 508 339 Q508 345 508 350 Q508 380 478 393.5 Q448 407 378 407 Q340 407 315 403.5 Q290 400 273 392 Q262 387 255 380.5 Q248 374 239 360 L73 362 Q99 443 177 481.5 Q255 520 394 520 Q539 520 606.5 483.5 Q674 447 674 368 Z M441 232 Q400 232 363 230.5 Q326 229 292 227 Q273 225 258.5 223 Q244 221 229 216 Q171 198 171 151 Q171 95 266 95 Q305 95 341 104.5 Q377 114 405.5 130.5 Q434 147 453.5 169 Q473 191 480 217 L484 232 L441 232 Z " />
<glyph glyph-name="atilde" unicode="&#xe3;" horiz-adv-x="743" d="M609 695 Q588 630 558 602.5 Q528 575 479 575 Q459 575 436 580 Q413 585 381 596 Q348 608 336 611.5 Q324 615 313 615 Q282 615 264 580 L206 580 Q223 640 253 668.5 Q283 697 331 697 Q348 697 366 692.5 Q384 688 415 677 Q445 666 462.5 662 Q480 658 496 658 Q537 658 551 695 L609 695 Z M674 368 Q674 358 673.5 350 Q673 342 671.5 332.5 Q670 323 667.5 310.5 Q665 298 660 279 L613 76 Q608 58 607 49.5 Q606 41 606 35 Q606 27 608 19.5 Q610 12 618 0 L439 0 Q438 7 438 10.5 Q438 14 438 18 Q438 27 439 34.5 Q440 42 442 53 Q422 37 411.5 30 Q401 23 387 16 Q357 1 312.5 -7.5 Q268 -16 217 -16 Q110 -16 54 22 Q-2 60 -2 132 Q-2 174 17 209.5 Q36 245 71 268 Q108 293 168.5 304 Q229 315 324 315 L503 315 L506 328 Q508 333 508 339 Q508 345 508 350 Q508 380 478 393.5 Q448 407 378 407 Q340 407 315 403.5 Q290 400 273 392 Q262 387 255 380.5 Q248 374 239 360 L73 362 Q99 443 177 481.5 Q255 520 394 520 Q539 520 606.5 483.5 Q674 447 674 368 Z M441 232 Q400 232 363 230.5 Q326 229 292 227 Q273 225 258.5 223 Q244 221 229 216 Q171 198 171 151 Q171 95 266 95 Q305 95 341 104.5 Q377 114 405.5 130.5 Q434 147 453.5 169 Q473 191 480 217 L484 232 L441 232 Z " />
<glyph glyph-name="adieresis" unicode="&#xe4;" horiz-adv-x="743" d="M570 570 L421 570 L449 693 L598 693 L570 570 Z M364 570 L217 570 L245 693 L392 693 L364 570 Z M674 368 Q674 358 673.5 350 Q673 342 671.5 332.5 Q670 323 667.5 310.5 Q665 298 660 279 L613 76 Q608 58 607 49.5 Q606 41 606 35 Q606 27 608 19.5 Q610 12 618 0 L439 0 Q438 7 438 10.5 Q438 14 438 18 Q438 27 439 34.5 Q440 42 442 53 Q422 37 411.5 30 Q401 23 387 16 Q357 1 312.5 -7.5 Q268 -16 217 -16 Q110 -16 54 22 Q-2 60 -2 132 Q-2 174 17 209.5 Q36 245 71 268 Q108 293 168.5 304 Q229 315 324 315 L503 315 L506 328 Q508 333 508 339 Q508 345 508 350 Q508 380 478 393.5 Q448 407 378 407 Q340 407 315 403.5 Q290 400 273 392 Q262 387 255 380.5 Q248 374 239 360 L73 362 Q99 443 177 481.5 Q255 520 394 520 Q539 520 606.5 483.5 Q674 447 674 368 Z M441 232 Q400 232 363 230.5 Q326 229 292 227 Q273 225 258.5 223 Q244 221 229 216 Q171 198 171 151 Q171 95 266 95 Q305 95 341 104.5 Q377 114 405.5 130.5 Q434 147 453.5 169 Q473 191 480 217 L484 232 L441 232 Z " />
<glyph glyph-name="aring" unicode="&#xe5;" horiz-adv-x="743" d="M544 655 Q544 608 508.5 580 Q473 552 415 552 Q356 552 319 581 Q282 610 282 655 Q282 700 319 729 Q356 758 414 758 Q442 758 465.5 750 Q489 742 506.5 728.5 Q524 715 534 696 Q544 677 544 655 Z M674 368 Q674 358 673.5 350 Q673 342 671.5 332.5 Q670 323 667.5 310.5 Q665 298 660 279 L613 76 Q608 58 607 49.5 Q606 41 606 35 Q606 27 608 19.5 Q610 12 618 0 L439 0 Q438 7 438 10.5 Q438 14 438 18 Q438 27 439 34.5 Q440 42 442 53 Q422 37 411.5 30 Q401 23 387 16 Q357 1 312.5 -7.5 Q268 -16 217 -16 Q110 -16 54 22 Q-2 60 -2 132 Q-2 174 17 209.5 Q36 245 71 268 Q108 293 168.5 304 Q229 315 324 315 L503 315 L506 328 Q508 333 508 339 Q508 345 508 350 Q508 380 478 393.5 Q448 407 378 407 Q340 407 315 403.5 Q290 400 273 392 Q262 387 255 380.5 Q248 374 239 360 L73 362 Q99 443 177 481.5 Q255 520 394 520 Q539 520 606.5 483.5 Q674 447 674 368 Z M466 654 Q466 677 451 690.5 Q436 704 412 704 Q389 704 374 690 Q359 676 359 653 Q359 632 374 618.5 Q389 605 412 605 Q435 605 450.5 618.5 Q466 632 466 654 Z M441 232 Q400 232 363 230.5 Q326 229 292 227 Q273 225 258.5 223 Q244 221 229 216 Q171 198 171 151 Q171 95 266 95 Q305 95 341 104.5 Q377 114 405.5 130.5 Q434 147 453.5 169 Q473 191 480 217 L484 232 L441 232 Z " />
<glyph glyph-name="ae" unicode="&#xe6;" horiz-adv-x="1217" d="M651 224 Q653 163 694.5 131 Q736 99 814 99 Q926 99 974 169 L1141 152 Q1131 134 1123.5 121.5 Q1116 109 1107.5 99 Q1099 89 1090 80 Q1081 71 1068 61 Q1020 22 950.5 1 Q881 -20 798 -20 Q699 -20 630 5.5 Q561 31 515 85 Q459 31 392 7.5 Q325 -16 229 -16 Q114 -16 56 21 Q-2 58 -2 131 Q-2 173 17.5 209 Q37 245 71 267 Q82 275 94 280 Q106 285 119 290 Q140 297 163 301.5 Q186 306 216 309 Q246 312 286.5 313 Q327 314 384 314 L503 314 L506 327 Q507 332 507.5 338.5 Q508 345 508 351 Q508 380 478 393.5 Q448 407 378 407 Q340 407 315 403.5 Q290 400 273 392 Q262 387 255 380.5 Q248 374 239 360 L73 362 Q91 421 137 457 Q166 480 206 494 Q246 508 302 514 Q327 517 353 519 Q379 521 402 521 Q438 521 467.5 518 Q497 515 523 508.5 Q549 502 573 491.5 Q597 481 623 466 Q650 482 674.5 493 Q699 504 723.5 511 Q748 518 775.5 521 Q803 524 836 524 Q997 524 1079 446 Q1122 406 1139 348 Q1143 333 1145.5 321 Q1148 309 1149.5 295.5 Q1151 282 1152 265.5 Q1153 249 1153 224 L651 224 Z M985 314 Q961 411 834 411 Q773 411 729.5 386 Q686 361 666 314 L985 314 Z M390 231 Q367 231 343 229.5 Q319 228 292 226 Q270 224 256.5 222 Q243 220 229 215 Q171 198 171 151 Q171 95 265 95 Q304 95 340 104.5 Q376 114 405 130 Q434 146 453.5 168.5 Q473 191 480 216 L484 231 L390 231 Z " />
<glyph glyph-name="ccedilla" unicode="&#xe7;" horiz-adv-x="688" d="M503 336 Q492 351 485.5 358.5 Q479 366 470 373 Q452 385 425.5 392 Q399 399 370 399 Q284 399 233.5 355.5 Q183 312 183 237 Q183 174 223 139 Q263 104 333 104 Q394 104 440 129 Q457 138 466 147 Q475 156 489 173 L653 144 Q641 126 631.5 113 Q622 100 612 89.5 Q602 79 590.5 69.5 Q579 60 563 49 Q518 18 471.5 2 Q425 -14 359 -20 L307 -76 Q314 -75 317.5 -75 Q321 -75 327 -75 Q379 -75 407 -93 Q435 -111 435 -144 Q435 -191 393.5 -220 Q352 -249 286 -249 Q266 -249 246 -246 Q226 -243 185 -234 L197 -185 Q212 -187 225 -188.5 Q238 -190 249 -190 Q316 -190 316 -149 Q316 -120 270 -120 Q259 -120 249 -121 Q239 -122 220 -127 L215 -99 L301 -20 Q162 -10 88.5 53.5 Q15 117 15 227 Q15 294 40.5 349 Q66 404 112.5 443 Q159 482 224.5 503.5 Q290 525 369 525 Q490 525 569 480.5 Q648 436 679 349 L503 336 Z " />
<glyph glyph-name="egrave" unicode="&#xe8;" horiz-adv-x="748" d="M345 571 L242 696 L412 696 L445 571 L345 571 Z M181 223 Q190 98 346 98 Q457 98 505 168 L672 151 Q624 63 540 21 Q456 -21 328 -21 Q255 -21 196 -4 Q137 13 96 45 Q55 77 33 123 Q11 169 11 226 Q11 294 36.5 348.5 Q62 403 108.5 442 Q155 481 220.5 502 Q286 523 367 523 Q529 523 610 445 Q654 404 671 343 Q675 328 677 316.5 Q679 305 680.5 292 Q682 279 683 263 Q684 247 684 223 L181 223 Z M516 313 Q492 410 365 410 Q304 410 260.5 385 Q217 360 197 313 L516 313 Z " />
<glyph glyph-name="eacute" unicode="&#xe9;" horiz-adv-x="748" d="M404 572 L302 572 L380 696 L558 696 L404 572 Z M181 223 Q190 98 346 98 Q457 98 505 168 L672 151 Q624 63 540 21 Q456 -21 328 -21 Q255 -21 196 -4 Q137 13 96 45 Q55 77 33 123 Q11 169 11 226 Q11 294 36.5 348.5 Q62 403 108.5 442 Q155 481 220.5 502 Q286 523 367 523 Q529 523 610 445 Q654 404 671 343 Q675 328 677 316.5 Q679 305 680.5 292 Q682 279 683 263 Q684 247 684 223 L181 223 Z M516 313 Q492 410 365 410 Q304 410 260.5 385 Q217 360 197 313 L516 313 Z " />
<glyph glyph-name="ecircumflex" unicode="&#xea;" horiz-adv-x="748" d="M463 571 L399 649 L296 571 L175 571 L299 695 L503 695 L570 571 L463 571 Z M181 223 Q190 98 346 98 Q457 98 505 168 L672 151 Q624 63 540 21 Q456 -21 328 -21 Q255 -21 196 -4 Q137 13 96 45 Q55 77 33 123 Q11 169 11 226 Q11 294 36.5 348.5 Q62 403 108.5 442 Q155 481 220.5 502 Q286 523 367 523 Q529 523 610 445 Q654 404 671 343 Q675 328 677 316.5 Q679 305 680.5 292 Q682 279 683 263 Q684 247 684 223 L181 223 Z M516 313 Q492 410 365 410 Q304 410 260.5 385 Q217 360 197 313 L516 313 Z " />
<glyph glyph-name="edieresis" unicode="&#xeb;" horiz-adv-x="748" d="M551 570 L402 570 L430 693 L579 693 L551 570 Z M345 570 L198 570 L226 693 L373 693 L345 570 Z M181 223 Q190 98 346 98 Q457 98 505 168 L672 151 Q624 63 540 21 Q456 -21 328 -21 Q255 -21 196 -4 Q137 13 96 45 Q55 77 33 123 Q11 169 11 226 Q11 294 36.5 348.5 Q62 403 108.5 442 Q155 481 220.5 502 Q286 523 367 523 Q529 523 610 445 Q654 404 671 343 Q675 328 677 316.5 Q679 305 680.5 292 Q682 279 683 263 Q684 247 684 223 L181 223 Z M516 313 Q492 410 365 410 Q304 410 260.5 385 Q217 360 197 313 L516 313 Z " />
<glyph glyph-name="igrave" unicode="&#xec;" horiz-adv-x="313" d="M165 571 L62 696 L232 696 L265 571 L165 571 Z M160 0 L-4 0 L112 501 L276 501 L160 0 Z " />
<glyph glyph-name="iacute" unicode="&#xed;" horiz-adv-x="313" d="M234 572 L132 572 L210 696 L388 696 L234 572 Z M160 0 L-4 0 L112 501 L276 501 L160 0 Z " />
<glyph glyph-name="icircumflex" unicode="&#xee;" horiz-adv-x="313" d="M284 571 L220 649 L117 571 L-5 571 L120 695 L324 695 L390 571 L284 571 Z M160 0 L-4 0 L112 501 L276 501 L160 0 Z " />
<glyph glyph-name="idieresis" unicode="&#xef;" horiz-adv-x="313" d="M379 570 L230 570 L258 693 L407 693 L379 570 Z M173 570 L26 570 L54 693 L201 693 L173 570 Z M160 0 L-4 0 L112 501 L276 501 L160 0 Z " />
<glyph glyph-name="eth" unicode="&#xf0;" horiz-adv-x="762" d="M706 293 Q706 220 680.5 162.5 Q655 105 607 64.5 Q559 24 490.5 2.5 Q422 -19 336 -19 Q184 -19 99.5 46 Q15 111 15 229 Q15 341 87 421 Q124 461 169 482 Q204 499 249 508 Q294 517 340 517 Q378 517 421 509 Q436 506 446 504 Q456 502 464 498.5 Q472 495 480.5 490.5 Q489 486 499 478 Q487 499 480.5 510.5 Q474 522 463 538 Q452 555 445.5 564.5 Q439 574 426 591 L232 575 L212 633 L377 647 Q369 657 364 662 Q359 667 354 673 L327 700 L499 713 Q502 710 503.5 708.5 Q505 707 506.5 705 Q508 703 512 699.5 Q516 696 523 688 Q529 682 533.5 676.5 Q538 671 546 660 L660 671 L682 612 L591 604 Q606 587 614 575.5 Q622 564 634 542 Q672 476 689 416.5 Q706 357 706 293 Z M537 267 Q537 330 492 366.5 Q447 403 372 403 Q286 403 235 358.5 Q184 314 184 240 Q184 175 228.5 138 Q273 101 350 101 Q392 101 426 113 Q460 125 485 147 Q510 169 523.5 199.5 Q537 230 537 267 Z " />
<glyph glyph-name="ntilde" unicode="&#xf1;" horiz-adv-x="766" d="M629 695 Q608 630 578 602.5 Q548 575 499 575 Q479 575 456 580 Q433 585 401 596 Q368 608 356 611.5 Q344 615 333 615 Q302 615 284 580 L226 580 Q243 640 273 668.5 Q303 697 351 697 Q368 697 386 692.5 Q404 688 435 677 Q465 666 482.5 662 Q500 658 516 658 Q557 658 571 695 L629 695 Z M688 346 Q688 326 684 301.5 Q680 277 672 241 L617 0 L452 0 L509 250 Q512 263 513.5 276.5 Q515 290 515 301 Q515 398 391 398 Q362 398 335.5 391 Q309 384 288 371 Q260 354 243 325.5 Q226 297 215 251 L158 0 L-5 0 L111 501 L274 501 L257 429 Q277 450 289 460.5 Q301 471 320 482 Q381 517 472 517 Q576 517 632 472.5 Q688 428 688 346 Z " />
<glyph glyph-name="ograve" unicode="&#xf2;" horiz-adv-x="762" d="M347 572 L244 697 L414 697 L447 572 L347 572 Z M706 282 Q706 214 679.5 158.5 Q653 103 605 63.5 Q557 24 488.5 2.5 Q420 -19 336 -19 Q261 -19 201 -2 Q141 15 100 46.5 Q59 78 37 124 Q15 170 15 228 Q15 296 41 350.5 Q67 405 114 444 Q161 483 228.5 504 Q296 525 378 525 Q534 525 620 461 Q706 397 706 282 Z M537 268 Q537 331 492.5 368 Q448 405 373 405 Q330 405 295.5 393 Q261 381 236 359.5 Q211 338 197.5 307.5 Q184 277 184 240 Q184 175 228.5 138 Q273 101 350 101 Q392 101 426 113 Q460 125 485 147 Q510 169 523.5 200 Q537 231 537 268 Z " />
<glyph glyph-name="oacute" unicode="&#xf3;" horiz-adv-x="762" d="M410 572 L308 572 L386 696 L564 696 L410 572 Z M706 282 Q706 214 679.5 158.5 Q653 103 605 63.5 Q557 24 488.5 2.5 Q420 -19 336 -19 Q261 -19 201 -2 Q141 15 100 46.5 Q59 78 37 124 Q15 170 15 228 Q15 296 41 350.5 Q67 405 114 444 Q161 483 228.5 504 Q296 525 378 525 Q534 525 620 461 Q706 397 706 282 Z M537 268 Q537 331 492.5 368 Q448 405 373 405 Q330 405 295.5 393 Q261 381 236 359.5 Q211 338 197.5 307.5 Q184 277 184 240 Q184 175 228.5 138 Q273 101 350 101 Q392 101 426 113 Q460 125 485 147 Q510 169 523.5 200 Q537 231 537 268 Z " />
<glyph glyph-name="ocircumflex" unicode="&#xf4;" horiz-adv-x="762" d="M471 571 L407 649 L304 571 L182 571 L307 695 L511 695 L577 571 L471 571 Z M706 282 Q706 214 679.5 158.5 Q653 103 605 63.5 Q557 24 488.5 2.5 Q420 -19 336 -19 Q261 -19 201 -2 Q141 15 100 46.5 Q59 78 37 124 Q15 170 15 228 Q15 296 41 350.5 Q67 405 114 444 Q161 483 228.5 504 Q296 525 378 525 Q534 525 620 461 Q706 397 706 282 Z M537 268 Q537 331 492.5 368 Q448 405 373 405 Q330 405 295.5 393 Q261 381 236 359.5 Q211 338 197.5 307.5 Q184 277 184 240 Q184 175 228.5 138 Q273 101 350 101 Q392 101 426 113 Q460 125 485 147 Q510 169 523.5 200 Q537 231 537 268 Z " />
<glyph glyph-name="otilde" unicode="&#xf5;" horiz-adv-x="762" d="M592 695 Q571 630 541 602.5 Q511 575 462 575 Q442 575 419 580 Q396 585 364 596 Q331 608 319 611.5 Q307 615 296 615 Q265 615 247 580 L189 580 Q206 640 236 668.5 Q266 697 314 697 Q331 697 349 692.5 Q367 688 398 677 Q428 666 445.5 662 Q463 658 479 658 Q520 658 534 695 L592 695 Z M706 282 Q706 214 679.5 158.5 Q653 103 605 63.5 Q557 24 488.5 2.5 Q420 -19 336 -19 Q261 -19 201 -2 Q141 15 100 46.5 Q59 78 37 124 Q15 170 15 228 Q15 296 41 350.5 Q67 405 114 444 Q161 483 228.5 504 Q296 525 378 525 Q534 525 620 461 Q706 397 706 282 Z M537 268 Q537 331 492.5 368 Q448 405 373 405 Q330 405 295.5 393 Q261 381 236 359.5 Q211 338 197.5 307.5 Q184 277 184 240 Q184 175 228.5 138 Q273 101 350 101 Q392 101 426 113 Q460 125 485 147 Q510 169 523.5 200 Q537 231 537 268 Z " />
<glyph glyph-name="odieresis" unicode="&#xf6;" horiz-adv-x="762" d="M562 570 L413 570 L441 693 L590 693 L562 570 Z M356 570 L209 570 L237 693 L384 693 L356 570 Z M706 282 Q706 214 679.5 158.5 Q653 103 605 63.5 Q557 24 488.5 2.5 Q420 -19 336 -19 Q261 -19 201 -2 Q141 15 100 46.5 Q59 78 37 124 Q15 170 15 228 Q15 296 41 350.5 Q67 405 114 444 Q161 483 228.5 504 Q296 525 378 525 Q534 525 620 461 Q706 397 706 282 Z M537 268 Q537 331 492.5 368 Q448 405 373 405 Q330 405 295.5 393 Q261 381 236 359.5 Q211 338 197.5 307.5 Q184 277 184 240 Q184 175 228.5 138 Q273 101 350 101 Q392 101 426 113 Q460 125 485 147 Q510 169 523.5 200 Q537 231 537 268 Z " />
<glyph glyph-name="divide" unicode="&#xf7;" horiz-adv-x="772" d="M483 420 L324 420 L359 573 L518 573 L483 420 Z M667 235 L56 235 L87 367 L698 367 L667 235 Z M393 27 L234 27 L269 181 L428 181 L393 27 Z " />
<glyph glyph-name="oslash" unicode="&#xf8;" horiz-adv-x="762" d="M657 427 Q684 389 695 356 Q706 323 706 281 Q706 214 679.5 158.5 Q653 103 605 63.5 Q557 24 489.5 2.5 Q422 -19 339 -19 Q268 -19 213 -4 Q158 11 103 46 L37 -1 L4 47 L62 86 Q36 121 25.5 151.5 Q15 182 15 226 Q15 295 40.5 350 Q66 405 113.5 444 Q161 483 228.5 504 Q296 525 380 525 Q423 525 466 518.5 Q509 512 542 501 Q564 493 577.5 486.5 Q591 480 612 466 L675 509 L708 461 L657 427 Z M481 375 Q441 405 371 405 Q330 405 295.5 393 Q261 381 236.5 360 Q212 339 198.5 309.5 Q185 280 185 244 Q185 225 187.5 212.5 Q190 200 198 180 L481 375 Z M537 269 Q537 305 521 333 L233 136 Q276 101 351 101 Q392 101 426.5 113 Q461 125 485.5 147.5 Q510 170 523.5 201 Q537 232 537 269 Z " />
<glyph glyph-name="ugrave" unicode="&#xf9;" horiz-adv-x="766" d="M388 571 L285 696 L455 696 L488 571 L388 571 Z M616 0 L453 0 L470 73 Q450 51 437.5 40.5 Q425 30 406 19 Q346 -16 254 -16 Q150 -16 94.5 28.5 Q39 73 39 155 Q39 175 42.5 199.5 Q46 224 54 260 L109 501 L274 501 L217 251 Q214 239 212.5 225.5 Q211 212 211 201 Q211 103 336 103 Q365 103 391 110 Q417 117 439 130 Q466 147 483 175.5 Q500 204 511 250 L568 501 L731 501 L616 0 Z " />
<glyph glyph-name="uacute" unicode="&#xfa;" horiz-adv-x="766" d="M456 572 L354 572 L432 696 L610 696 L456 572 Z M616 0 L453 0 L470 73 Q450 51 437.5 40.5 Q425 30 406 19 Q346 -16 254 -16 Q150 -16 94.5 28.5 Q39 73 39 155 Q39 175 42.5 199.5 Q46 224 54 260 L109 501 L274 501 L217 251 Q214 239 212.5 225.5 Q211 212 211 201 Q211 103 336 103 Q365 103 391 110 Q417 117 439 130 Q466 147 483 175.5 Q500 204 511 250 L568 501 L731 501 L616 0 Z " />
<glyph glyph-name="ucircumflex" unicode="&#xfb;" horiz-adv-x="766" d="M512 571 L448 649 L345 571 L223 571 L348 695 L552 695 L618 571 L512 571 Z M616 0 L453 0 L470 73 Q450 51 437.5 40.5 Q425 30 406 19 Q346 -16 254 -16 Q150 -16 94.5 28.5 Q39 73 39 155 Q39 175 42.5 199.5 Q46 224 54 260 L109 501 L274 501 L217 251 Q214 239 212.5 225.5 Q211 212 211 201 Q211 103 336 103 Q365 103 391 110 Q417 117 439 130 Q466 147 483 175.5 Q500 204 511 250 L568 501 L731 501 L616 0 Z " />
<glyph glyph-name="udieresis" unicode="&#xfc;" horiz-adv-x="766" d="M604 570 L455 570 L483 693 L632 693 L604 570 Z M398 570 L251 570 L279 693 L426 693 L398 570 Z M616 0 L453 0 L470 73 Q450 51 437.5 40.5 Q425 30 406 19 Q346 -16 254 -16 Q150 -16 94.5 28.5 Q39 73 39 155 Q39 175 42.5 199.5 Q46 224 54 260 L109 501 L274 501 L217 251 Q214 239 212.5 225.5 Q211 212 211 201 Q211 103 336 103 Q365 103 391 110 Q417 117 439 130 Q466 147 483 175.5 Q500 204 511 250 L568 501 L731 501 L616 0 Z " />
<glyph glyph-name="yacute" unicode="&#xfd;" horiz-adv-x="625" d="M376 572 L274 572 L352 696 L530 696 L376 572 Z M294 -33 Q275 -61 261.5 -80 Q248 -99 238 -111.5 Q228 -124 219.5 -133 Q211 -142 202 -150 Q191 -159 179 -166 Q167 -173 153 -178 Q132 -186 108.5 -189.5 Q85 -193 43 -193 Q11 -193 -16 -192 Q-43 -191 -85 -188 L-57 -70 Q-25 -72 -1.5 -73.5 Q22 -75 36 -75 Q50 -75 58 -74 Q66 -73 76 -70 Q88 -66 98 -57 Q103 -53 106 -49.5 Q109 -46 113.5 -40.5 Q118 -35 124.5 -25.5 Q131 -16 142 0 L32 501 L203 501 L255 120 L477 501 L655 501 L294 -33 Z " />
<glyph glyph-name="thorn" unicode="&#xfe;" horiz-adv-x="750" d="M693 301 Q693 231 668.5 172 Q644 113 600.5 71 Q557 29 496 5.5 Q435 -18 362 -18 Q238 -18 172 56 L115 -192 L-49 -192 L158 706 L322 706 L265 459 Q303 492 344.5 506.5 Q386 521 443 521 Q501 521 547 506 Q593 491 625.5 462.5 Q658 434 675.5 393 Q693 352 693 301 Z M524 277 Q524 331 494 365 Q464 399 412 405 Q406 406 400 406 Q394 406 389 406 Q352 406 320.5 393.5 Q289 381 266.5 358 Q244 335 231.5 303 Q219 271 219 232 Q219 172 255.5 136 Q292 100 355 100 Q391 100 421.5 113.5 Q452 127 475 151 Q498 175 511 207.5 Q524 240 524 277 Z " />
<glyph glyph-name="ydieresis" unicode="&#xff;" horiz-adv-x="625" d="M522 570 L373 570 L401 693 L550 693 L522 570 Z M316 570 L169 570 L197 693 L344 693 L316 570 Z M294 -33 Q275 -61 261.5 -80 Q248 -99 238 -111.5 Q228 -124 219.5 -133 Q211 -142 202 -150 Q191 -159 179 -166 Q167 -173 153 -178 Q132 -186 108.5 -189.5 Q85 -193 43 -193 Q11 -193 -16 -192 Q-43 -191 -85 -188 L-57 -70 Q-25 -72 -1.5 -73.5 Q22 -75 36 -75 Q50 -75 58 -74 Q66 -73 76 -70 Q88 -66 98 -57 Q103 -53 106 -49.5 Q109 -46 113.5 -40.5 Q118 -35 124.5 -25.5 Q131 -16 142 0 L32 501 L203 501 L255 120 L477 501 L655 501 L294 -33 Z " />
<glyph glyph-name="dotlessi" unicode="&#x131;" horiz-adv-x="313" d="M160 0 L-4 0 L112 501 L276 501 L160 0 Z " />
<glyph glyph-name="Lslash" unicode="&#x141;" horiz-adv-x="667" d="M571 0 L0 0 L38 164 L-55 100 L-18 261 L75 324 L163 706 L341 706 L283 454 L460 574 L422 412 L246 294 L208 131 L601 131 L571 0 Z " />
<glyph glyph-name="lslash" unicode="&#x142;" horiz-adv-x="313" d="M335 452 L249 382 L161 0 L-3 0 L47 217 L-40 145 L-5 297 L82 367 L160 706 L324 706 L284 531 L371 603 L335 452 Z " />
<glyph glyph-name="OE" unicode="&#x152;" horiz-adv-x="1125" d="M1124 584 L770 584 L733 423 L1068 423 L1040 300 L705 300 L664 125 L1032 125 L1003 0 L459 0 L463 20 Q428 3 391 -4.5 Q354 -12 309 -12 Q179 -12 109.5 61 Q40 134 40 270 Q40 346 60.5 419 Q81 492 120 554 Q171 634 254.5 677 Q338 720 444 720 Q473 720 502.5 716.5 Q532 713 557 706 Q574 701 585.5 697 Q597 693 616 683 L622 706 L1152 706 L1124 584 Z M590 570 Q568 584 554.5 589.5 Q541 595 520 600 Q492 606 462 606 Q357 606 298 532 Q260 483 237 414 Q214 345 214 278 Q214 191 255.5 147 Q297 103 377 103 Q399 103 422 108 Q440 113 453.5 117.5 Q467 122 490 136 L590 570 Z " />
<glyph glyph-name="oe" unicode="&#x153;" horiz-adv-x="1262" d="M696 224 Q698 163 739.5 130.5 Q781 98 859 98 Q971 98 1019 168 L1186 151 Q1176 133 1168.5 120.5 Q1161 108 1153 98.5 Q1145 89 1136 80 Q1127 71 1115 61 Q1078 31 1022 10 Q980 -5 938 -12.5 Q896 -20 841 -20 Q798 -20 763.5 -15.5 Q729 -11 699 -1.5 Q669 8 642.5 23 Q616 38 590 59 Q581 53 575 48.5 Q569 44 564 41 Q517 10 463 -4.5 Q409 -19 340 -19 Q264 -19 203.5 -2 Q143 15 101 46.5 Q59 78 37 123.5 Q15 169 15 226 Q15 280 35 330.5 Q55 381 91 419 Q139 471 215 498 Q291 525 389 525 Q544 525 635 444 Q685 486 744 504.5 Q803 523 882 523 Q1043 523 1124 446 Q1167 406 1184 348 Q1189 333 1191.5 320.5 Q1194 308 1195.5 294.5 Q1197 281 1197.5 264.5 Q1198 248 1198 224 L696 224 Z M1030 314 Q1006 411 879 411 Q818 411 774.5 386 Q731 361 711 314 L1030 314 Z M537 269 Q537 332 493 369 Q449 406 376 406 Q334 406 299 393.5 Q264 381 238.5 359 Q213 337 198.5 306.5 Q184 276 184 239 Q184 175 228.5 138 Q273 101 350 101 Q392 101 426 113 Q460 125 485 147.5 Q510 170 523.5 201 Q537 232 537 269 Z " />
<glyph glyph-name="Scaron" unicode="&#x160;" horiz-adv-x="812" d="M548 761 L344 761 L277 885 L384 885 L449 807 L551 885 L672 885 L548 761 Z M632 506 Q618 534 603.5 549 Q589 564 566 575 Q536 588 499.5 595 Q463 602 422 602 Q348 602 309 580.5 Q270 559 270 518 Q270 486 297 472 Q308 468 321 463 Q345 455 386 444.5 Q427 434 465 425 Q500 417 520.5 412.5 Q541 408 548 406 Q580 398 608 387 Q636 376 654 365 Q737 316 737 226 Q737 184 721.5 144 Q706 104 678 73 Q593 -21 375 -21 Q315 -21 258 -12 Q195 -3 150.5 16 Q106 35 68 69 Q39 95 19.5 123.5 Q0 152 -18 197 L150 230 Q172 170 232.5 139 Q293 108 385 108 Q468 108 515 133 Q562 158 562 202 Q562 220 556 230 Q547 245 528 253.5 Q509 262 459 273 L391 288 Q365 294 343.5 299 Q322 304 303 309 Q271 317 247.5 325 Q224 333 201 344 Q145 372 119.5 407 Q94 442 94 493 Q94 539 112.5 581 Q131 623 165 652 Q209 690 273.5 708 Q338 726 431 726 Q503 726 558.5 716 Q614 706 665 684 Q719 661 751.5 627.5 Q784 594 807 539 L632 506 Z " />
<glyph glyph-name="scaron" unicode="&#x161;" horiz-adv-x="708" d="M468 571 L264 571 L198 695 L304 695 L368 617 L471 695 L593 695 L468 571 Z M493 349 Q487 369 477 380.5 Q467 392 449 401 Q409 421 348 421 Q298 421 271.5 409 Q245 397 245 374 Q245 360 257 351 Q265 346 276 342.5 Q287 339 309 334 Q323 332 332 330 Q341 328 349 326 L418 315 Q488 304 525.5 292.5 Q563 281 585 264 Q605 249 616.5 225.5 Q628 202 628 176 Q628 132 607.5 96.5 Q587 61 548.5 36 Q510 11 456 -2.5 Q402 -16 334 -16 Q309 -16 281.5 -13.5 Q254 -11 225 -7 Q168 1 130.5 14.5 Q93 28 63 54 Q35 77 22.5 103.5 Q10 130 2 179 L182 183 Q186 157 193.5 144.5 Q201 132 219 121 Q259 95 349 95 Q399 95 425 108 Q451 121 451 146 Q451 165 430.5 175.5 Q410 186 359 194 L309 202 Q293 204 257 211 Q238 214 225 217 Q212 220 202.5 222 Q193 224 184.5 227 Q176 230 166 233 Q70 269 70 352 Q70 436 143.5 483 Q217 530 348 530 Q499 530 582 481 Q616 461 643 423 Q654 407 658 392.5 Q662 378 666 351 L493 349 Z " />
<glyph glyph-name="Ydieresis" unicode="&#x178;" horiz-adv-x="854" d="M738 754 L574 754 L603 880 L767 880 L738 754 Z M434 754 L270 754 L299 880 L463 880 L434 754 Z M492 265 L431 0 L255 0 L316 265 L82 706 L291 706 L431 410 L708 706 L931 706 L492 265 Z " />
<glyph glyph-name="Zcaron" unicode="&#x17d;" horiz-adv-x="812" d="M583 761 L379 761 L312 885 L419 885 L484 807 L586 885 L707 885 L583 761 Z M815 581 L246 129 L720 129 L690 0 L-35 0 L-6 129 L562 581 L129 581 L158 706 L844 706 L815 581 Z " />
<glyph glyph-name="zcaron" unicode="&#x17e;" horiz-adv-x="665" d="M471 571 L267 571 L200 695 L307 695 L371 617 L474 695 L595 695 L471 571 Z M626 415 L249 114 L567 114 L540 0 L-39 0 L-20 82 L371 392 L72 392 L98 501 L646 501 L626 415 Z " />
<glyph glyph-name="florin" unicode="&#x192;" horiz-adv-x="375" d="M417 545 Q403 550 391.5 551.5 Q380 553 366 553 Q335 553 317 539 Q309 531 303 522 Q296 509 292.5 497 Q289 485 281 454 L395 454 L372 356 L258 356 L170 -41 Q151 -125 103 -163.5 Q55 -202 -33 -202 Q-46 -202 -57 -201.5 Q-68 -201 -80.5 -199 Q-93 -197 -108.5 -194.5 Q-124 -192 -145 -187 L-120 -80 Q-105 -85 -96.5 -86 Q-88 -87 -75 -87 Q-57 -87 -44.5 -83.5 Q-32 -80 -21 -72 Q-9 -63 -1 -44.5 Q7 -26 15 11 L93 356 L12 356 L35 454 L116 454 Q123 482 128 502 Q133 522 138.5 537 Q144 552 149.5 564 Q155 576 162 588 Q207 668 327 668 Q356 668 383 664 Q410 660 443 652 L417 545 Z " />
<glyph glyph-name="circumflex" unicode="&#x2c6;" horiz-adv-x="313" d="M248 571 L184 649 L81 571 L-41 571 L84 695 L288 695 L354 571 L248 571 Z " />
<glyph glyph-name="caron" unicode="&#x2c7;" horiz-adv-x="313" d="M229 571 L26 571 L-41 695 L66 695 L130 617 L233 695 L354 695 L229 571 Z " />
<glyph glyph-name="breve" unicode="&#x2d8;" horiz-adv-x="313" d="M332 711 Q312 641 267.5 610.5 Q223 580 141 580 Q66 580 23.5 610.5 Q-19 641 -19 695 L-19 710 L75 710 Q80 684 97 672.5 Q114 661 150 661 Q184 661 203 672.5 Q222 684 235 711 L332 711 Z " />
<glyph glyph-name="dotaccent" unicode="&#x2d9;" horiz-adv-x="313" d="M217 570 L67 570 L96 695 L246 695 L217 570 Z " />
<glyph glyph-name="ring" unicode="&#x2da;" horiz-adv-x="313" d="M288 655 Q288 608 252.5 580 Q217 552 159 552 Q100 552 62.5 581 Q25 610 25 655 Q25 700 62 729 Q99 758 157 758 Q185 758 209 750 Q233 742 250.5 728.5 Q268 715 278 696 Q288 677 288 655 Z M210 654 Q210 677 195 690.5 Q180 704 156 704 Q133 704 117.5 690 Q102 676 102 653 Q102 632 117 618.5 Q132 605 155 605 Q178 605 193.5 618.5 Q209 632 209 654 L210 654 Z " />
<glyph glyph-name="ogonek" unicode="&#x2db;" horiz-adv-x="313" d="M265 -195 Q205 -210 145 -210 Q34 -210 34 -143 Q34 -115 48 -92 Q61 -69 82 -51 Q93 -42 102 -35 Q111 -28 122.5 -21.5 Q134 -15 148 -8.5 Q162 -2 181 6 L264 6 Q214 -8 182.5 -36 Q151 -64 151 -93 Q151 -121 195 -121 Q213 -121 233 -118 Q253 -115 279 -109 L265 -195 Z " />
<glyph glyph-name="tilde" unicode="&#x2dc;" horiz-adv-x="313" d="M358 695 Q337 630 307 602.5 Q277 575 228 575 Q208 575 185 580 Q162 585 130 596 Q97 608 85 611.5 Q73 615 62 615 Q31 615 13 580 L-45 580 Q-28 640 2 668.5 Q32 697 80 697 Q97 697 115 692.5 Q133 688 164 677 Q194 666 211.5 662 Q229 658 245 658 Q286 658 300 695 L358 695 Z " />
<glyph glyph-name="hungarumlaut" unicode="&#x2dd;" horiz-adv-x="313" d="M230 573 L127 573 L217 697 L381 697 L230 573 Z M35 573 L-68 573 L22 697 L185 697 L35 573 Z " />
<glyph glyph-name="Mu" unicode="&#x39c;" horiz-adv-x="771" d="M625 0 L462 0 L479 72 Q446 29 402 9 Q358 -11 297 -11 Q275 -11 257.5 -8 Q240 -5 223 1 Q208 8 198 14.5 Q188 21 173 35 L120 -192 L-44 -192 L118 501 L283 501 L226 257 Q217 221 217 196 Q217 151 247.5 125.5 Q278 100 331 100 Q370 100 404 112 Q438 124 464 147 Q477 159 489 174 Q500 190 506.5 207 Q513 224 521 258 L578 501 L742 501 L625 0 Z " />
<glyph glyph-name="pi" unicode="&#x3c0;" horiz-adv-x="700" d="M681 407 L622 407 L570 179 Q565 160 564 153.5 Q563 147 563 142 Q563 124 577 116 Q583 113 588.5 112 Q594 111 613 111 L628 111 L603 0 Q580 -1 561 -1 Q542 -1 527 -1 Q489 -1 469 1.5 Q449 4 434 12 Q391 33 391 88 Q391 101 393 116 Q395 131 400 151 L459 407 L276 407 L183 0 L18 0 L112 407 L53 407 L79 517 L707 517 L681 407 Z " />
<glyph glyph-name="endash" unicode="&#x2013;" horiz-adv-x="640" d="M584 240 L9 240 L39 370 L614 370 L584 240 Z " />
<glyph glyph-name="emdash" unicode="&#x2014;" horiz-adv-x="950" d="M894 240 L9 240 L39 370 L924 370 L894 240 Z " />
<glyph glyph-name="quoteleft" unicode="&#x2018;" horiz-adv-x="295" d="M305 660 Q273 655 258.5 650.5 Q244 646 233 637 Q222 627 215 611.5 Q208 596 198 556 L281 556 L248 413 L82 413 L114 553 Q133 637 175 673 Q198 693 228.5 700.5 Q259 708 316 708 L305 660 Z " />
<glyph glyph-name="quoteright" unicode="&#x2019;" horiz-adv-x="295" d="M275 566 Q256 482 214 446 Q191 426 161 418.5 Q131 411 73 411 L85 459 Q117 464 131.5 468.5 Q146 473 157 482 Q168 492 174.5 507.5 Q181 523 192 563 L109 563 L142 706 L307 706 L275 566 Z " />
<glyph glyph-name="quotesinglbase" unicode="&#x201a;" horiz-adv-x="295" d="M150 3 Q131 -81 89 -117 Q67 -137 36.5 -144.5 Q6 -152 -51 -152 L-40 -104 Q-8 -99 6.5 -94.5 Q21 -90 32 -81 Q43 -71 49.5 -55.5 Q56 -40 67 0 L-16 0 L17 143 L183 143 L150 3 Z " />
<glyph glyph-name="quotedblleft" unicode="&#x201c;" horiz-adv-x="542" d="M552 660 Q520 655 505.5 650.5 Q491 646 480 637 Q468 627 461.5 611.5 Q455 596 445 556 L528 556 L495 413 L329 413 L361 553 Q380 637 422 673 Q445 693 475.5 700.5 Q506 708 563 708 L552 660 Z M305 660 Q273 655 258.5 650.5 Q244 646 233 637 Q222 627 215 611.5 Q208 596 198 556 L281 556 L248 413 L82 413 L114 553 Q133 637 175 673 Q198 693 228.5 700.5 Q259 708 316 708 L305 660 Z " />
<glyph glyph-name="quotedblright" unicode="&#x201d;" horiz-adv-x="542" d="M522 566 Q503 482 461 446 Q438 426 408 418.5 Q378 411 320 411 L331 459 Q363 464 378 468.5 Q393 473 404 482 Q415 492 421.5 507.5 Q428 523 438 563 L355 563 L388 706 L554 706 L522 566 Z M275 566 Q256 482 214 446 Q191 426 161 418.5 Q131 411 73 411 L85 459 Q117 464 131.5 468.5 Q146 473 157 482 Q168 492 174.5 507.5 Q181 523 192 563 L109 563 L142 706 L307 706 L275 566 Z " />
<glyph glyph-name="quotedblbase" unicode="&#x201e;" horiz-adv-x="542" d="M397 3 Q378 -81 336 -117 Q313 -137 283 -144.5 Q253 -152 195 -152 L206 -104 Q238 -99 253 -94.5 Q268 -90 279 -81 Q290 -71 296.5 -55.5 Q303 -40 313 0 L230 0 L263 143 L429 143 L397 3 Z M150 3 Q131 -81 89 -117 Q67 -137 36.5 -144.5 Q6 -152 -51 -152 L-40 -104 Q-8 -99 6.5 -94.5 Q21 -90 32 -81 Q43 -71 49.5 -55.5 Q56 -40 67 0 L-16 0 L17 143 L183 143 L150 3 Z " />
<glyph glyph-name="dagger" unicode="&#x2020;" horiz-adv-x="625" d="M612 376 L405 376 L289 -125 L124 -125 L240 376 L34 376 L64 506 L270 506 L316 706 L481 706 L435 506 L642 506 L612 376 Z " />
<glyph glyph-name="daggerdbl" unicode="&#x2021;" horiz-adv-x="625" d="M620 419 L416 419 L361 182 L565 182 L536 55 L332 55 L290 -124 L126 -124 L167 56 L-39 56 L-10 182 L196 182 L251 419 L45 419 L74 545 L280 545 L317 706 L482 706 L445 544 L649 544 L620 419 Z " />
<glyph glyph-name="bullet" unicode="&#x2022;" horiz-adv-x="333" d="M273 237 L16 237 L72 472 L329 472 L273 237 Z " />
<glyph glyph-name="ellipsis" unicode="&#x2026;" horiz-adv-x="1000" d="M811 0 L696 0 L723 120 L838 120 L811 0 Z M477 0 L362 0 L389 120 L504 120 L477 0 Z M143 0 L28 0 L55 120 L170 120 L143 0 Z " />
<glyph glyph-name="perthousand" unicode="&#x2030;" horiz-adv-x="1617" d="M1586 258 Q1586 197 1567 147.5 Q1548 98 1514 62.5 Q1480 27 1433.5 8 Q1387 -11 1333 -11 Q1234 -11 1179.5 37.5 Q1125 86 1125 174 Q1125 234 1143.5 284 Q1162 334 1196 369.5 Q1230 405 1277 424.5 Q1324 444 1381 444 Q1450 444 1501 418 Q1552 392 1574 337 Q1581 320 1583.5 300.5 Q1586 281 1586 258 Z M1094 258 Q1094 197 1075 147.5 Q1056 98 1022 62.5 Q988 27 941.5 8 Q895 -11 841 -11 Q742 -11 687.5 37.5 Q633 86 633 174 Q633 234 651.5 284 Q670 334 704 369.5 Q738 405 785 424.5 Q832 444 889 444 Q958 444 1009 418 Q1060 392 1082 337 Q1089 320 1091.5 300.5 Q1094 281 1094 258 Z M332 -27 L270 18 L793 670 L857 625 L332 -27 Z M493 466 Q490 405 471 355.5 Q452 306 419 271 Q386 236 340.5 216.5 Q295 197 241 197 Q142 197 87.5 245.5 Q33 294 33 382 Q33 442 51.5 492 Q70 542 103.5 578 Q137 614 184 633.5 Q231 653 288 653 Q333 653 371 642 Q409 631 437 607.5 Q465 584 480 549 Q495 514 493 466 Z M1465 267 Q1465 309 1443.5 332.5 Q1422 356 1383 356 Q1349 356 1326.5 345 Q1304 334 1284 305 Q1267 279 1257 243.5 Q1247 208 1247 175 Q1247 81 1335 81 Q1362 81 1385.5 95.5 Q1409 110 1426.5 135.5 Q1444 161 1454.5 195 Q1465 229 1465 267 Z M973 267 Q973 309 951.5 332.5 Q930 356 891 356 Q857 356 834.5 345 Q812 334 792 305 Q775 279 765 243.5 Q755 208 755 175 Q755 81 843 81 Q870 81 893.5 95.5 Q917 110 934.5 135.5 Q952 161 962.5 195 Q973 229 973 267 Z M372 475 Q372 517 351 541 Q330 565 291 565 Q257 565 234.5 553.5 Q212 542 192 513 Q175 487 165 451.5 Q155 416 155 383 Q155 289 243 289 Q270 289 293.5 303.5 Q317 318 334.5 343.5 Q352 369 362 403 Q372 437 372 475 Z " />
<glyph glyph-name="guilsinglleft" unicode="&#x2039;" horiz-adv-x="316" d="M270 366 L119 246 L216 131 L195 37 L9 203 L33 308 L296 477 L270 366 Z " />
<glyph glyph-name="guilsinglright" unicode="&#x203a;" horiz-adv-x="316" d="M241 208 L-22 39 L4 150 L156 269 L58 384 L80 479 L265 313 L241 208 Z " />
<glyph glyph-name="fraction" unicode="&#x2044;" horiz-adv-x="125" d="M-172 -27 L-234 18 L289 670 L352 625 L-172 -27 Z " />
<glyph glyph-name="Euro" unicode="&#x20ac;" horiz-adv-x="934" d="M850 488 Q838 502 829 512 Q820 522 811 529.5 Q802 537 791.5 543.5 Q781 550 767 557 Q691 598 588 598 Q493 598 432.5 562 Q372 526 340 451 L827 451 L775 374 L315 374 Q313 361 312 351 Q311 341 310 325 L742 325 L690 248 L310 248 Q318 219 325.5 204 Q333 189 348 173 Q381 138 427 122.5 Q473 107 542 107 Q588 107 623 112.5 Q658 118 695 131 Q713 137 728.5 144 Q744 151 760 160 Q776 169 794.5 181 Q813 193 837 210 L793 30 Q785 26 778.5 23.5 Q772 21 767 19 Q657 -25 521 -25 Q345 -25 245.5 44 Q146 113 126 248 L22 248 L77 325 L124 325 Q126 337 127.5 348 Q129 359 133 374 L44 374 L98 451 L151 451 Q162 481 171 502.5 Q180 524 190.5 542 Q201 560 215 576.5 Q229 593 248 612 Q309 674 390 702.5 Q471 731 584 731 Q646 731 710 722 Q766 713 810 699 Q831 692 846.5 685.5 Q862 679 877 671 Q892 663 907.5 652 Q923 641 943 625 L850 488 Z " />
<glyph glyph-name="trademark" unicode="&#x2122;" horiz-adv-x="703" d="M663 374 L586 374 L647 619 L520 374 L444 374 L433 622 L381 374 L304 374 L381 706 L489 706 L500 464 L629 706 L739 706 L663 374 Z M337 640 L239 640 L178 374 L96 374 L158 640 L59 640 L74 706 L352 706 L337 640 Z " />
<glyph glyph-name="Omega" unicode="&#x2126;" horiz-adv-x="856" d="M829 452 Q829 408 814 358.5 Q799 309 774 271 Q708 170 572 123 L772 123 L740 0 L403 0 L434 126 Q445 128 453 130.5 Q461 133 466 135 Q536 159 582 228 Q611 270 628 320.5 Q645 371 645 418 Q645 484 615 524 Q593 554 553.5 571.5 Q514 589 468 589 Q418 589 375.5 568 Q333 547 302.5 509.5 Q272 472 254.5 420.5 Q237 369 237 308 Q237 230 272 179 Q284 162 297.5 150.5 Q311 139 338 125 L308 0 L-30 0 L0 123 L206 123 Q137 157 100 217.5 Q63 278 63 357 Q63 419 84.5 478.5 Q106 538 144 586 Q258 724 479 724 Q559 724 623.5 704.5 Q688 685 733.5 649.5 Q779 614 804 564 Q829 514 829 452 Z " />
<glyph glyph-name="partialdiff" unicode="&#x2202;" horiz-adv-x="648" d="M593 457 Q593 414 587.5 369 Q582 324 572.5 281.5 Q563 239 549.5 201 Q536 163 519 134 Q477 61 410.5 24 Q344 -13 255 -13 Q201 -13 157.5 1.5 Q114 16 82.5 42.5 Q51 69 34 106 Q17 143 17 189 Q17 244 36 290 Q55 336 89.5 369.5 Q124 403 171 421.5 Q218 440 274 440 Q324 440 367 423 Q383 417 393.5 411 Q404 405 421 391 Q427 432 427 466 Q427 592 301 592 Q291 592 282 591.5 Q273 591 261.5 589.5 Q250 588 236 586 Q222 584 201 580 L197 701 Q231 709 270 713 Q309 717 344 717 Q468 717 530.5 651.5 Q593 586 593 457 Z M396 271 Q374 293 346.5 304.5 Q319 316 290 316 Q240 316 208.5 282.5 Q177 249 177 197 Q177 156 202.5 131 Q228 106 270 106 Q371 106 396 271 Z " />
<glyph glyph-name="Delta" unicode="&#x2206;" horiz-adv-x="837" d="M-84 0 L403 706 L622 706 L774 0 L-84 0 Z M487 573 L211 131 L570 131 L487 573 Z " />
<glyph glyph-name="product" unicode="&#x220f;" horiz-adv-x="905" d="M724 -122 L554 -122 L716 579 L302 579 L140 -122 L-30 -122 L161 706 L915 706 L724 -122 Z " />
<glyph glyph-name="summation" unicode="&#x2211;" horiz-adv-x="772" d="M790 579 L313 579 L545 297 L202 7 L658 7 L628 -122 L-54 -122 L-25 3 L327 307 L107 579 L137 706 L820 706 L790 579 Z " />
<glyph glyph-name="minus" unicode="&#x2212;" horiz-adv-x="772" d="M667 232 L55 232 L87 368 L698 368 L667 232 Z " />
<glyph glyph-name="radical" unicode="&#x221a;" horiz-adv-x="789" d="M344 -185 L181 -185 L106 69 L11 39 L-23 165 L224 246 L289 5 L670 706 L850 706 L344 -185 Z " />
<glyph glyph-name="infinity" unicode="&#x221e;" horiz-adv-x="771" d="M732 365 Q732 308 714 257 Q696 206 665.5 168 Q635 130 594.5 107.5 Q554 85 509 85 Q455 85 420.5 109 Q386 133 354 193 Q300 133 257.5 108.5 Q215 84 166 84 Q100 84 63.5 125 Q27 166 27 241 Q27 298 45 348.5 Q63 399 94 437.5 Q125 476 165.5 498 Q206 520 252 520 Q286 520 313 509 Q324 504 334.5 497 Q345 490 354 480 Q368 466 377.5 452 Q387 438 402 409 Q414 422 422 431 Q430 440 437.5 447 Q445 454 451.5 459.5 Q458 465 467 472 Q496 495 529 508 Q562 521 594 521 Q657 521 694.5 478.5 Q732 436 732 365 Z M606 326 Q606 352 595.5 366.5 Q585 381 567 381 Q548 381 528 365.5 Q508 350 471 313 L457 299 Q480 250 495 232.5 Q510 215 530 215 Q545 215 559 224 Q573 233 583.5 248.5 Q594 264 600 284 Q606 304 606 326 Z M301 301 Q280 349 264 367 Q248 385 228 385 Q213 385 199 376 Q185 367 174.5 352 Q164 337 158 317 Q152 297 152 275 Q152 249 162.5 234 Q173 219 192 219 Q210 219 231.5 234 Q253 249 288 287 L301 301 Z " />
<glyph glyph-name="integral" unicode="&#x222b;" horiz-adv-x="418" d="M445 575 Q428 586 417 590.5 Q406 595 394 595 Q366 595 352 572 Q349 567 346.5 561 Q344 555 342 549 Q339 540 334.5 522.5 Q330 505 326 490 L220 42 Q216 23 212.5 10 Q209 -3 206.5 -12.5 Q204 -22 201.5 -29.5 Q199 -37 196 -45 Q188 -67 179 -84.5 Q170 -102 159 -114 Q134 -145 97.5 -161 Q61 -177 17 -177 Q-13 -177 -39.5 -172.5 Q-66 -168 -92 -160 L-61 -34 Q-44 -45 -33.5 -49 Q-23 -53 -11 -53 Q5 -53 18 -45 Q29 -37 35 -24 Q41 -11 49 21 L160 503 Q174 566 188 599 Q202 632 223 656 Q277 717 380 717 Q406 717 427.5 713.5 Q449 710 476 701 L445 575 Z " />
<glyph glyph-name="approxequal" unicode="&#x2248;" horiz-adv-x="772" d="M735 412 Q719 398 706.5 387.5 Q694 377 682.5 369 Q671 361 658.5 354.5 Q646 348 629 340 Q598 326 572 319.5 Q546 313 520 313 Q494 313 469 320 Q444 327 398 346 L359 362 Q327 376 304.5 381.5 Q282 387 260 387 Q239 387 219 381 Q199 375 181.5 363.5 Q164 352 129 325 L115 314 L67 429 Q82 442 92.5 451 Q103 460 112.5 467 Q122 474 131 479.5 Q140 485 152 492 Q211 527 278 527 Q304 527 330.5 520.5 Q357 514 398 497 L450 476 Q482 463 500 458 Q518 453 534 453 Q552 453 572.5 458.5 Q593 464 613 474 Q630 482 644.5 492 Q659 502 688 525 L735 412 Z M680 165 Q664 151 651.5 141 Q639 131 627.5 123.5 Q616 116 603.5 109 Q591 102 574 94 Q543 80 517 73.5 Q491 67 465 67 Q439 67 413.5 73.5 Q388 80 343 99 L304 115 Q272 128 249.5 134 Q227 140 205 140 Q184 140 164 134 Q154 131 145 127 Q136 123 126 117 Q116 111 103.5 102 Q91 93 74 79 Q72 77 68.5 74.5 Q65 72 60 68 L12 182 Q27 195 37.5 204 Q48 213 57.5 220 Q67 227 76 233 Q85 239 97 246 Q156 281 223 281 Q249 281 275.5 274.5 Q302 268 343 251 L395 229 Q426 216 444.5 211 Q463 206 479 206 Q497 206 517.5 211.5 Q538 217 558 227 Q575 235 589.5 245 Q604 255 633 278 L680 165 Z " />
<glyph glyph-name="notequal" unicode="&#x2260;" horiz-adv-x="772" d="M691 356 L486 356 L411 244 L664 245 L633 113 L326 113 L242 -9 L113 -9 L199 113 L50 113 L80 245 L283 244 L358 356 L107 356 L137 488 L443 487 L528 610 L656 610 L571 487 L721 488 L691 356 Z " />
<glyph glyph-name="lessequal" unicode="&#x2264;" horiz-adv-x="772" d="M707 549 L325 441 L656 321 L620 171 L123 375 L156 520 L744 706 L707 549 Z M581 0 L35 0 L65 132 L611 132 L581 0 Z " />
<glyph glyph-name="greaterequal" unicode="&#x2265;" horiz-adv-x="772" d="M662 355 L75 170 L111 326 L494 434 L163 554 L199 705 L695 500 L662 355 Z M582 0 L36 0 L67 132 L613 132 L582 0 Z " />
<glyph glyph-name="lozenge" unicode="&#x25ca;" horiz-adv-x="772" d="M392 0 L224 0 L95 354 L388 706 L556 706 L686 353 L392 0 Z M447 580 L263 353 L332 126 L519 355 L447 580 Z " />
<glyph glyph-name="fi" unicode="&#xfb01;" horiz-adv-x="688" d="M666 570 L502 570 L528 682 L692 682 L666 570 Z M535 0 L371 0 L487 501 L651 501 L535 0 Z M433 597 Q420 602 410.5 603.5 Q401 605 387 605 Q355 605 336 591 Q322 580 314 562.5 Q306 545 296 501 L411 501 L389 403 L274 403 L180 0 L15 0 L109 403 L29 403 L51 501 L131 501 L142 549 Q163 640 211 679.5 Q259 719 347 719 Q376 719 400.5 715.5 Q425 712 458 704 L433 597 Z " />
<glyph glyph-name="fl" unicode="&#xfb02;" horiz-adv-x="688" d="M534 0 L370 0 L533 706 L697 706 L534 0 Z M433 597 Q420 602 410.5 603.5 Q401 605 387 605 Q355 605 336 591 Q322 580 314 562.5 Q306 545 296 501 L411 501 L389 403 L274 403 L180 0 L15 0 L109 403 L29 403 L51 501 L131 501 L142 549 Q163 640 211 679.5 Q259 719 347 719 Q376 719 400.5 715.5 Q425 712 458 704 L433 597 Z " />
</font>
</svg>
