<?xml version="1.0" encoding="UTF-8"?>
<svg xmlns="http://www.w3.org/2000/svg" xmlns:xlink="http://www.w3.org/1999/xlink" version="1.2" >
<font id="NissanAG-ExtItal">
<font-face  font-family="NissanAG" units-per-em="1000" ascent="750" descent="-250" font-style="normal" font-weight="400" font-stretch="expanded" slope="-11" cap-height="750" x-height="500" underline-position="-75" underline-thickness="50" />
<missing-glyph  horiz-adv-x="1000" d="" />
<glyph glyph-name="null" d="" />
<glyph glyph-name="nonmarkingreturn" unicode="&#xd;" horiz-adv-x="250" d="" />
<glyph glyph-name="space" unicode="&#x20;" horiz-adv-x="375" d="" />
<glyph glyph-name="exclam" unicode="&#x21;" horiz-adv-x="292" d="M223 391 L146 179 L102 179 L124 401 L195 706 L296 706 L223 391 Z M133 0 L33 0 L56 100 L156 100 L133 0 Z " />
<glyph glyph-name="quotedbl" unicode="&#x22;" horiz-adv-x="356" d="M299 455 L274 455 L304 744 L404 744 L299 455 Z M119 455 L94 455 L124 744 L224 744 L119 455 Z " />
<glyph glyph-name="numbersign" unicode="&#x23;" horiz-adv-x="749" d="M719 409 L540 409 L509 312 L685 312 L669 241 L486 241 L407 0 L329 0 L410 241 L269 241 L188 0 L114 0 L193 241 L10 241 L27 312 L217 312 L248 409 L63 409 L80 483 L271 483 L344 706 L422 706 L348 483 L489 483 L560 706 L637 706 L563 483 L736 483 L719 409 Z M324 409 L292 312 L433 312 L464 409 L324 409 Z " />
<glyph glyph-name="dollar" unicode="&#x24;" horiz-adv-x="812" d="M674 517 Q652 558 614.5 583 Q577 608 512 624 L462 406 Q470 404 481 401.5 Q492 399 503 396 Q515 393 528 390 Q566 381 600 366.5 Q634 352 658 335 Q717 292 717 216 Q717 161 694.5 117.5 Q672 74 629.5 44 Q587 14 525.5 -2 Q464 -18 387 -18 Q381 -18 376 -17.5 Q371 -17 362 -17 L335 -134 L258 -134 L287 -10 Q227 -1 187.5 14 Q148 29 110 58 Q91 73 76 87.5 Q61 102 49 118.5 Q37 135 28 155 Q19 175 10 201 L109 227 Q120 192 134 170.5 Q148 149 172 130 Q198 109 229 97 Q260 85 308 76 L365 326 L342 331 Q317 336 299.5 341 Q282 346 271 349 Q236 359 211.5 370.5 Q187 382 168 398 Q145 418 132.5 446.5 Q120 475 120 509 Q120 547 136 584 Q152 621 180 647 Q218 682 278.5 700 Q339 718 419 718 Q427 718 434 718 Q441 718 455 717 L478 815 L557 815 L532 709 Q619 694 678.5 653.5 Q738 613 767 550 L674 517 Z M436 633 Q427 634 422 634 Q417 634 412 634 Q317 634 267 605.5 Q217 577 217 523 Q217 481 250 464 Q267 454 298 445 Q329 436 387 423 L436 633 Z M619 203 Q619 238 597 257 Q586 268 569 275 Q559 279 551.5 282 Q544 285 532.5 288 Q521 291 503.5 295 Q486 299 456 306 L439 310 L384 71 L393 71 Q497 71 558 107 Q619 143 619 203 Z " />
<glyph glyph-name="percent" unicode="&#x25;" horiz-adv-x="1042" d="M1004 259 Q1004 202 987 153.5 Q970 105 939.5 69 Q909 33 868 13 Q827 -7 779 -7 Q693 -7 642.5 41.5 Q592 90 592 175 Q592 233 609 281.5 Q626 330 656.5 365.5 Q687 401 729.5 420.5 Q772 440 822 440 Q905 440 954.5 391 Q1004 342 1004 259 Z M263 -12 L218 20 L770 703 L815 670 L263 -12 Z M440 511 Q440 454 423 405.5 Q406 357 375.5 321 Q345 285 304 265 Q263 245 215 245 Q128 245 78 294 Q28 343 28 427 Q28 485 45 533.5 Q62 582 92.5 617.5 Q123 653 165.5 672.5 Q208 692 258 692 Q341 692 390.5 643 Q440 594 440 511 Z M933 249 Q933 312 902.5 347 Q872 382 816 382 Q783 382 755 366.5 Q727 351 706.5 323 Q686 295 674.5 257.5 Q663 220 663 176 Q663 119 692 85 Q721 51 779 51 Q812 51 840 66 Q868 81 888.5 107.5 Q909 134 921 170.5 Q933 207 933 249 Z M369 502 Q369 565 338.5 600 Q308 635 252 635 Q219 635 191 619.5 Q163 604 142.5 576 Q122 548 110.5 510.5 Q99 473 99 429 Q99 372 128 338 Q157 304 215 304 Q248 304 276 319 Q304 334 324.5 360.5 Q345 387 357 423.5 Q369 460 369 502 Z " />
<glyph glyph-name="ampersand" unicode="&#x26;" horiz-adv-x="771" d="M706 335 Q700 311 695.5 294.5 Q691 278 686 264.5 Q681 251 675 238.5 Q669 226 661 211 Q654 198 647.5 187 Q641 176 633.5 165.5 Q626 155 616.5 143.5 Q607 132 593 117 Q604 108 608.5 105 Q613 102 620 97 Q645 81 670 81 Q677 81 681.5 81.5 Q686 82 694 83 L681 4 Q664 -1 653.5 -3 Q643 -5 631 -5 Q615 -5 599 -1 Q583 3 571 11 Q562 16 545 28.5 Q528 41 515 52 Q454 15 397 -1 Q340 -17 269 -17 Q145 -17 77.5 31.5 Q10 80 10 168 Q10 222 36 263 Q58 300 94 323 Q108 332 120 338.5 Q132 345 146.5 351 Q161 357 180.5 363.5 Q200 370 228 379 Q222 387 218 392 Q214 397 211 402 Q181 448 181 506 Q181 544 195.5 575.5 Q210 607 236.5 629.5 Q263 652 300 664.5 Q337 677 382 677 Q422 677 455.5 666 Q489 655 513.5 635.5 Q538 616 551.5 589 Q565 562 565 530 Q565 507 559 484.5 Q553 462 542 443 Q521 407 485 384 Q449 361 378 338 L391 323 Q417 293 434 273 Q451 253 465.5 237.5 Q480 222 494.5 207 Q509 192 528 173 Q539 185 547 194.5 Q555 204 561.5 213 Q568 222 573.5 231.5 Q579 241 585 254 Q596 276 601.5 291.5 Q607 307 613 336 L706 335 Z M468 526 Q468 561 443.5 583 Q419 605 379 605 Q334 605 307 580 Q280 555 280 512 Q280 487 291.5 462 Q303 437 329 403 Q404 423 436 451.5 Q468 480 468 526 Z M439 126 Q421 144 406.5 160 Q392 176 377 193.5 Q362 211 344 232.5 Q326 254 302 284 L279 312 Q257 307 241.5 303 Q226 299 214 294.5 Q202 290 192 285.5 Q182 281 170 274 Q142 258 127 232.5 Q112 207 112 177 Q112 123 154.5 93.5 Q197 64 275 64 Q321 64 361 73 Q375 76 385 79.5 Q395 83 405.5 87.5 Q416 92 427 97.5 Q438 103 453 112 L439 126 Z " />
<glyph glyph-name="quotesingle" unicode="&#x27;" horiz-adv-x="176" d="M119 455 L94 455 L124 744 L224 744 L119 455 Z " />
<glyph glyph-name="parenleft" unicode="&#x28;" horiz-adv-x="333" d="M435 720 Q402 697 379 679 Q356 661 337 644 Q318 627 302.5 609 Q287 591 269 568 Q207 489 175.5 394.5 Q144 300 144 197 Q144 107 170 29.5 Q196 -48 247 -111 L212 -140 Q187 -116 174.5 -102 Q162 -88 147 -68 Q46 64 46 230 Q46 300 64.5 367.5 Q83 435 118 495 Q157 563 223 624 Q243 643 261 658 Q279 673 299.5 687.5 Q320 702 346 717.5 Q372 733 408 754 L435 720 Z " />
<glyph glyph-name="parenright" unicode="&#x29;" horiz-adv-x="333" d="M246 384 Q246 313 227.5 246 Q209 179 174 119 Q134 51 69 -11 Q49 -29 31 -44 Q13 -59 -7.5 -73.5 Q-28 -88 -54 -103.5 Q-80 -119 -116 -140 L-143 -106 Q-110 -83 -87 -65 Q-64 -47 -45 -30 Q-26 -13 -10.5 5 Q5 23 23 46 Q85 125 116.5 219 Q148 313 148 416 Q148 507 122 584.5 Q96 662 45 725 L80 754 Q105 730 117.5 716 Q130 702 145 682 Q246 548 246 384 Z " />
<glyph glyph-name="asterisk" unicode="&#x2a;" horiz-adv-x="349" d="M263 538 L306 443 L250 418 L206 516 L129 447 L88 493 L165 562 L74 613 L104 664 L197 614 L221 715 L281 701 L257 598 L365 608 L373 550 L263 538 Z " />
<glyph glyph-name="plus" unicode="&#x2b;" horiz-adv-x="772" d="M657 254 L411 254 L359 25 L264 25 L316 254 L70 254 L90 337 L336 337 L388 564 L483 564 L431 337 L677 337 L657 254 Z " />
<glyph glyph-name="comma" unicode="&#x2c;" horiz-adv-x="250" d="M88 -19 Q75 -79 41 -107 Q24 -121 4.5 -126.5 Q-15 -132 -48 -134 L-35 -79 Q-6 -75 4.5 -65.5 Q15 -56 21 -30 L28 0 L-17 0 L8 108 L117 108 L88 -19 Z " />
<glyph glyph-name="hyphen" unicode="&#x2d;" horiz-adv-x="385" d="M324 259 L9 259 L28 340 L343 340 L324 259 Z " />
<glyph glyph-name="period" unicode="&#x2e;" horiz-adv-x="250" d="M93 0 L-17 0 L8 109 L118 109 L93 0 Z " />
<glyph glyph-name="slash" unicode="&#x2f;" horiz-adv-x="417" d="M38 0 L-58 0 L377 706 L474 706 L38 0 Z " />
<glyph glyph-name="zero" unicode="0" horiz-adv-x="708" d="M668 423 Q668 359 652 295.5 Q636 232 606 175 Q557 84 479 35.5 Q401 -13 303 -13 Q170 -13 98 60.5 Q26 134 26 271 Q26 363 54.5 441.5 Q83 520 132.5 577.5 Q182 635 249.5 668 Q317 701 396 701 Q459 701 509.5 682 Q560 663 595.5 627 Q631 591 649.5 539.5 Q668 488 668 423 Z M566 416 Q566 516 521 568 Q476 620 390 620 Q335 620 287 593 Q239 566 203.5 519.5 Q168 473 147.5 410 Q127 347 127 275 Q127 232 137 194 Q147 156 168 128 Q189 100 222.5 84 Q256 68 302 68 Q359 68 407.5 94.5 Q456 121 491 167.5 Q526 214 546 277.5 Q566 341 566 416 Z " />
<glyph glyph-name="one" unicode="1" horiz-adv-x="708" d="M345 0 L246 0 L370 537 Q322 519 280.5 511.5 Q239 504 183 504 L171 504 L187 572 Q203 573 214 574.5 Q225 576 234.5 577.5 Q244 579 254 581 Q264 583 277 586 Q302 592 321.5 600 Q341 608 358.5 619.5 Q376 631 393 647.5 Q410 664 428 687 L503 687 L345 0 Z " />
<glyph glyph-name="two" unicode="2" horiz-adv-x="708" d="M643 498 Q643 443 617 389.5 Q591 336 543 293 Q499 254 440 216.5 Q381 179 300 141 Q281 132 265.5 125 Q250 118 234 111.5 Q218 105 200 97.5 Q182 90 157 81 L577 82 L560 0 L-4 0 L16 94 Q44 106 65 115 Q86 124 100 131 Q178 166 254 207 Q330 248 384 282 Q542 382 542 489 Q542 549 500 582 Q458 615 383 615 Q279 615 226 547 Q216 534 208.5 522 Q201 510 195 495.5 Q189 481 183 463 Q177 445 170 418 L76 432 Q82 454 86.5 469.5 Q91 485 95.5 497.5 Q100 510 105.5 521.5 Q111 533 119 548 Q157 622 227.5 660.5 Q298 699 395 699 Q452 699 498 685 Q544 671 576 644.5 Q608 618 625.5 581 Q643 544 643 498 Z " />
<glyph glyph-name="three" unicode="3" horiz-adv-x="708" d="M653 519 Q653 453 615.5 413.5 Q578 374 497 357 Q553 345 585 309 Q617 273 617 220 Q617 170 594 127.5 Q571 85 530 54 Q489 23 433.5 5.5 Q378 -12 312 -12 Q246 -12 192.5 3.5 Q139 19 100.5 48 Q62 77 40.5 119 Q19 161 16 213 L116 224 Q119 189 126.5 170 Q134 151 151 131 Q178 101 220 84.5 Q262 68 315 68 Q360 68 398 79.5 Q436 91 463.5 111.5 Q491 132 506.5 160.5 Q522 189 522 222 Q522 269 488 294 Q478 302 466 307 Q454 312 438 315 Q422 318 400 319.5 Q378 321 347 321 L272 321 L287 396 L356 397 Q391 397 415.5 398.5 Q440 400 458 403.5 Q476 407 489.5 413 Q503 419 515 428 Q535 443 547 465 Q559 487 559 510 Q559 534 546.5 554.5 Q534 575 512 589.5 Q490 604 460 612.5 Q430 621 394 621 Q364 621 332 614 Q300 607 277 596 Q252 584 231 561 Q217 546 209 533.5 Q201 521 191 497 L100 519 Q109 537 115.5 550 Q122 563 128 572.5 Q134 582 140 590.5 Q146 599 154 608 Q192 654 253.5 678 Q315 702 397 702 Q455 702 502.5 689 Q550 676 583.5 652 Q617 628 635 594.5 Q653 561 653 519 Z " />
<glyph glyph-name="four" unicode="4" horiz-adv-x="708" d="M606 166 L488 166 L449 0 L355 0 L394 166 L-6 166 L12 245 L532 697 L610 697 L505 245 L624 245 L606 166 Z M131 245 L412 245 L490 568 L131 245 Z " />
<glyph glyph-name="five" unicode="5" horiz-adv-x="735" d="M676 603 L247 603 L189 419 Q195 424 199.5 427 Q204 430 207 432 Q242 455 290.5 467.5 Q339 480 391 480 Q451 480 499.5 465.5 Q548 451 582 423 Q616 395 634 356 Q652 317 652 267 Q652 206 627.5 154.5 Q603 103 558.5 66.5 Q514 30 452.5 9.5 Q391 -11 316 -11 Q182 -11 103.5 45 Q25 101 14 203 L116 213 Q121 184 126.5 168.5 Q132 153 145 136 Q171 104 216.5 86 Q262 68 316 68 Q367 68 410 82 Q453 96 484 121 Q515 146 532.5 181 Q550 216 550 257 Q550 325 500 363.5 Q450 402 361 402 Q234 402 162 321 L74 328 L178 687 L693 687 L676 603 Z " />
<glyph glyph-name="six" unicode="6" horiz-adv-x="708" d="M606 492 Q595 521 586 535 Q577 549 562 565 Q535 592 495 607 Q455 622 407 622 Q203 622 141 368 Q153 385 161.5 393 Q170 401 183 410 Q257 461 373 461 Q435 461 487 445.5 Q539 430 576.5 401.5 Q614 373 634.5 333.5 Q655 294 655 246 Q655 189 631.5 141.5 Q608 94 566 60 Q524 26 465.5 7 Q407 -12 337 -12 Q267 -12 211 7 Q155 26 116 61 Q77 96 56 146.5 Q35 197 35 260 Q35 320 48.5 381.5 Q62 443 87 498 Q132 597 216 649 Q300 701 413 701 Q635 701 701 510 L606 492 Z M557 235 Q557 304 504 343 Q451 382 356 382 Q255 382 196 338.5 Q137 295 137 220 Q137 186 151.5 158.5 Q166 131 192.5 111 Q219 91 256 80 Q293 69 339 69 Q386 69 426 81.5 Q466 94 495 116 Q524 138 540.5 168.5 Q557 199 557 235 Z " />
<glyph glyph-name="seven" unicode="7" horiz-adv-x="707" d="M665 611 Q652 601 644 596 Q541 523 459 428 Q404 364 357 288 Q310 212 281 140 Q275 124 270 110.5 Q265 97 259.5 81.5 Q254 66 248 47 Q242 28 234 0 L134 0 Q136 11 138 19.5 Q140 28 142 33 Q156 86 181 145 Q206 204 239 261 Q276 325 321.5 383 Q367 441 422 496 Q439 513 452 525.5 Q465 538 478.5 549.5 Q492 561 508 574 Q524 587 546 603 L97 603 L112 687 L680 687 L665 611 Z " />
<glyph glyph-name="eight" unicode="8" horiz-adv-x="708" d="M664 523 Q664 482 644.5 446 Q625 410 592 388 Q580 381 570 375.5 Q560 370 549 366 Q538 362 524 359 Q510 356 489 352 Q558 338 596 298.5 Q634 259 634 201 Q634 152 611.5 112.5 Q589 73 547.5 45 Q506 17 448 1.5 Q390 -14 319 -14 Q252 -14 197 -0.5 Q142 13 102.5 38 Q63 63 41.5 98 Q20 133 20 175 Q20 216 36.5 251 Q53 286 83 310 Q96 320 109.5 328 Q123 336 139 342 Q159 350 175.5 354 Q192 358 224 364 Q104 393 104 501 Q104 546 124.5 583 Q145 620 182 646 Q219 672 272 686 Q325 700 389 700 Q518 700 591 653 Q664 606 664 523 Z M569 511 Q569 563 521.5 592.5 Q474 622 390 622 Q300 622 250.5 589.5 Q201 557 201 499 Q201 448 247.5 420.5 Q294 393 381 393 Q470 393 519.5 424 Q569 455 569 511 Z M537 206 Q537 260 483.5 291 Q430 322 336 322 Q233 322 177 288 Q121 254 121 191 Q121 134 175.5 100.5 Q230 67 324 67 Q372 67 411.5 77 Q451 87 478.5 105 Q506 123 521.5 149 Q537 175 537 206 Z " />
<glyph glyph-name="nine" unicode="9" horiz-adv-x="708" d="M664 430 Q664 370 650.5 308 Q637 246 612 192 Q567 93 483 40.5 Q399 -12 286 -12 Q64 -12 -2 179 L93 197 Q104 168 113 154 Q122 140 137 125 Q165 97 204.5 82.5 Q244 68 292 68 Q497 68 558 321 Q546 305 537.5 296.5 Q529 288 516 280 Q441 228 327 228 Q264 228 212 244 Q160 260 122.5 288.5 Q85 317 64.5 356.5 Q44 396 44 443 Q44 500 67.5 547.5 Q91 595 133 629.5 Q175 664 233.5 683 Q292 702 362 702 Q432 702 488 683 Q544 664 583 629 Q622 594 643 543.5 Q664 493 664 430 Z M563 469 Q563 503 548.5 531 Q534 559 507.5 578.5 Q481 598 443.5 609 Q406 620 361 620 Q314 620 274 607.5 Q234 595 204.5 573 Q175 551 158.5 521 Q142 491 142 455 Q142 386 195.5 346.5 Q249 307 343 307 Q393 307 434 318.5 Q475 330 503.5 351 Q532 372 547.5 402 Q563 432 563 469 Z " />
<glyph glyph-name="colon" unicode="&#x3a;" horiz-adv-x="292" d="M223 386 L113 386 L138 495 L248 495 L223 386 Z M135 0 L25 0 L50 109 L160 109 L135 0 Z " />
<glyph glyph-name="semicolon" unicode="&#x3b;" horiz-adv-x="292" d="M223 386 L113 386 L138 495 L248 495 L223 386 Z M129 -19 Q114 -81 82 -107 Q65 -121 46 -126.5 Q27 -132 -6 -134 L7 -79 Q36 -75 46.5 -65.5 Q57 -56 63 -30 L70 0 L25 0 L50 108 L159 108 L129 -19 Z " />
<glyph glyph-name="less" unicode="&#x3c;" horiz-adv-x="772" d="M678 481 L198 297 L593 115 L572 23 L83 253 L105 348 L700 580 L678 481 Z " />
<glyph glyph-name="equal" unicode="&#x3d;" horiz-adv-x="772" d="M680 352 L97 352 L116 436 L700 436 L680 352 Z M633 152 L50 152 L69 236 L653 236 L633 152 Z " />
<glyph glyph-name="greater" unicode="&#x3e;" horiz-adv-x="772" d="M654 256 L59 23 L81 123 L561 307 L166 489 L187 581 L676 350 L654 256 Z " />
<glyph glyph-name="question" unicode="&#x3f;" horiz-adv-x="667" d="M675 541 Q675 512 668 484.5 Q661 457 647 435 Q631 408 601 384 Q586 372 573 363.5 Q560 355 542.5 347 Q525 339 501 330 Q477 321 439 308 L385 289 Q360 280 351 272 Q342 264 334 247 Q329 235 324.5 221 Q320 207 315 181 L241 181 L248 215 Q260 272 278 304 Q286 319 299 331 Q313 343 328 350 Q343 357 380 367 Q493 400 535 436 Q555 453 566.5 481 Q578 509 578 539 Q578 589 535 618 Q492 647 417 647 Q306 647 245 583 Q228 565 214 542 Q200 519 187 487 L103 504 Q137 612 217.5 668 Q298 724 419 724 Q539 724 607 675.5 Q675 627 675 541 Z M286 0 L185 0 L209 101 L310 101 L286 0 Z " />
<glyph glyph-name="at" unicode="&#x40;" horiz-adv-x="909" d="M859 434 Q859 374 839 312.5 Q819 251 782 197 Q740 136 690 103 Q640 70 589 70 Q549 70 526.5 91 Q504 112 504 149 L504 156 Q484 134 472 123.5 Q460 113 444 102 Q397 71 345 71 Q282 71 247.5 111 Q213 151 213 222 Q213 279 233.5 332 Q254 385 288 426.5 Q322 468 366 492.5 Q410 517 457 517 Q510 517 546 481 Q556 471 562 461.5 Q568 452 576 433 L596 495 L669 495 L613 302 Q605 273 599.5 253.5 Q594 234 591 219.5 Q588 205 586.5 193.5 Q585 182 585 170 Q585 130 616 130 Q633 130 656.5 143.5 Q680 157 700 179 Q722 203 740.5 234 Q759 265 772 298.5 Q785 332 792.5 367 Q800 402 800 434 Q800 485 781 527 Q762 569 727.5 598 Q693 627 644 643 Q595 659 534 659 Q445 659 364.5 623.5 Q284 588 223 528 Q162 468 126 389 Q90 310 90 222 Q90 156 114 102.5 Q138 49 182 11 Q226 -27 288 -48 Q350 -69 426 -69 Q517 -69 607 -36 Q633 -26 654.5 -16.5 Q676 -7 697 6 Q718 19 741.5 36 Q765 53 796 77 L829 36 Q797 10 772.5 -8.5 Q748 -27 725.5 -40.5 Q703 -54 680 -64.5 Q657 -75 628 -86 Q528 -124 427 -124 Q338 -124 265 -99.5 Q192 -75 139.5 -29.5 Q87 16 58 79 Q29 142 29 218 Q29 319 69.5 408.5 Q110 498 179.5 565.5 Q249 633 341.5 672.5 Q434 712 537 712 Q610 712 669.5 692 Q729 672 771 636 Q813 600 836 548.5 Q859 497 859 434 Z M545 356 Q545 401 522.5 427.5 Q500 454 461 454 Q426 454 392 429.5 Q358 405 335 361 Q318 330 308 295 Q298 260 298 230 Q298 185 319.5 160 Q341 135 379 135 Q432 135 472 180 Q488 197 501.5 218.5 Q515 240 524.5 263.5 Q534 287 539.5 311 Q545 335 545 356 Z " />
<glyph glyph-name="A" unicode="A" horiz-adv-x="833" d="M640 0 L594 174 L161 174 L34 0 L-85 0 L444 706 L551 706 L750 0 L640 0 Z M478 605 L221 255 L570 255 L478 605 Z " />
<glyph glyph-name="B" unicode="B" horiz-adv-x="894" d="M847 555 Q847 484 806.5 436.5 Q766 389 692 372 Q718 364 730 358.5 Q742 353 756 342 Q781 322 794.5 292.5 Q808 263 808 226 Q808 166 780 116 Q752 66 704 37 Q689 28 673 22 Q657 16 640 11 Q624 7 612 5 Q600 3 585 2 Q570 1 548.5 0.5 Q527 0 493 0 L0 0 L163 706 L620 706 Q668 706 699 703 Q730 700 753 692 Q798 678 822.5 642 Q847 606 847 555 Z M745 532 Q745 550 738.5 567.5 Q732 585 721 596 Q707 610 684.5 615.5 Q662 621 614 621 L247 621 L196 412 L560 412 Q617 412 649 419 Q681 426 705 445 Q723 459 734 482.5 Q745 506 745 532 Z M706 222 Q706 260 686 285 Q668 309 636.5 318 Q605 327 540 327 L178 327 L120 86 L505 86 Q556 86 585 90.5 Q614 95 638 108 Q669 124 687.5 155 Q706 186 706 222 Z " />
<glyph glyph-name="C" unicode="C" horiz-adv-x="838" d="M754 479 Q728 556 659 598.5 Q590 641 490 641 Q417 641 355 617 Q293 593 248 550 Q203 507 177.5 448.5 Q152 390 152 322 Q152 158 300 96 Q369 67 445 67 Q536 67 607.5 104.5 Q679 142 727 214 L820 189 Q811 172 803 160 Q795 148 787.5 137.5 Q780 127 771 117.5 Q762 108 750 96 Q732 79 711 64.5 Q690 50 667 37 Q615 9 561 -4.5 Q507 -18 437 -18 Q348 -18 276.5 5 Q205 28 154.5 71 Q104 114 77 174.5 Q50 235 50 311 Q50 402 83 478 Q116 554 174.5 608.5 Q233 663 315 693.5 Q397 724 494 724 Q768 724 856 497 L754 479 Z " />
<glyph glyph-name="D" unicode="D" horiz-adv-x="857" d="M822 412 Q822 324 793 247.5 Q764 171 710 115 Q635 38 526 17 Q484 9 433 4.5 Q382 0 325 0 L0 0 L163 706 L445 706 Q466 706 485 706 Q504 706 521 705 Q615 702 678 673 Q746 642 784 573 Q822 504 822 412 Z M721 410 Q721 467 700 511.5 Q679 556 638 583 Q624 592 609 599 Q594 606 577 610 Q564 613 552.5 615 Q541 617 525 618 Q509 619 487 619.5 Q465 620 431 620 L246 620 L123 87 L320 87 Q419 87 481.5 99 Q544 111 587 139 Q617 159 642 188 Q667 217 684.5 252 Q702 287 711.5 327.5 Q721 368 721 410 Z " />
<glyph glyph-name="E" unicode="E" horiz-adv-x="792" d="M794 619 L243 619 L194 409 L731 409 L712 325 L175 325 L120 87 L697 87 L677 0 L0 0 L163 706 L814 706 L794 619 Z " />
<glyph glyph-name="F" unicode="F" horiz-adv-x="750" d="M771 619 L242 619 L190 393 L698 393 L679 310 L170 310 L99 0 L0 0 L163 706 L791 706 L771 619 Z " />
<glyph glyph-name="G" unicode="G" horiz-adv-x="915" d="M770 496 Q757 521 748 533.5 Q739 546 722 563 Q682 601 623 620.5 Q564 640 491 640 Q417 640 355 616 Q293 592 248 549.5 Q203 507 178 448 Q153 389 153 318 Q153 199 224 132 Q295 65 423 65 Q561 65 659 151 Q703 190 727 231 Q735 244 739 254.5 Q743 265 751 285 L421 285 L440 373 L858 373 L772 0 L688 0 L716 113 Q605 -18 412 -18 Q328 -18 260.5 4.5 Q193 27 145.5 68.5 Q98 110 73 169.5 Q48 229 48 304 Q48 395 79.5 471.5 Q111 548 172 607 Q235 668 314.5 697 Q394 726 499 726 Q637 726 729 677 Q821 628 875 526 L770 496 Z " />
<glyph glyph-name="H" unicode="H" horiz-adv-x="916" d="M744 0 L643 0 L720 334 L179 334 L102 0 L0 0 L163 706 L264 706 L197 418 L738 418 L805 706 L907 706 L744 0 Z " />
<glyph glyph-name="I" unicode="I" horiz-adv-x="274" d="M102 0 L0 0 L163 706 L264 706 L102 0 Z " />
<glyph glyph-name="J" unicode="J" horiz-adv-x="708" d="M598 270 Q595 256 591 240.5 Q587 225 582 208 Q569 163 557 136 Q545 109 530 87 Q495 36 435.5 10 Q376 -16 297 -16 Q227 -16 166 5 Q105 26 61 64 Q29 92 10 123 Q-9 154 -22 201 L81 226 Q92 195 99.5 180 Q107 165 118 149 Q146 111 192 91 Q238 71 298 71 Q385 71 430 114 Q455 138 471 177 Q476 188 479.5 199 Q483 210 486.5 224 Q490 238 495 257 Q500 276 506 304 L599 706 L699 706 L598 270 Z " />
<glyph glyph-name="K" unicode="K" horiz-adv-x="833" d="M482 428 L767 0 L650 0 L403 380 L147 219 L97 0 L0 0 L163 706 L262 706 L176 336 L749 706 L912 706 L482 428 Z " />
<glyph glyph-name="L" unicode="L" horiz-adv-x="646" d="M569 0 L0 0 L163 706 L263 706 L120 86 L589 86 L569 0 Z " />
<glyph glyph-name="M" unicode="M" horiz-adv-x="1000" d="M840 0 L745 0 L888 605 L460 0 L368 0 L231 600 L95 0 L1 0 L162 706 L295 706 L433 88 L862 706 L1003 706 L840 0 Z " />
<glyph glyph-name="N" unicode="N" horiz-adv-x="917" d="M745 0 L647 0 L233 592 L96 0 L0 0 L163 706 L266 706 L677 115 L812 706 L907 706 L745 0 Z " />
<glyph glyph-name="O" unicode="O" horiz-adv-x="958" d="M909 411 Q909 313 875 233.5 Q841 154 778.5 98 Q716 42 627.5 11.5 Q539 -19 429 -19 Q339 -19 268 3 Q197 25 147 66.5 Q97 108 70.5 167 Q44 226 44 301 Q44 349 55 397 Q66 445 86 487 Q141 602 251 662.5 Q361 723 514 723 Q590 723 661.5 706.5 Q733 690 788 653 Q843 616 876 556.5 Q909 497 909 411 Z M807 398 Q807 514 730 575.5 Q653 637 507 637 Q344 637 251 556 Q201 513 173 448 Q145 383 145 311 Q145 196 224 132 Q303 68 446 68 Q521 68 583 87.5 Q645 107 691 144 Q737 181 766 233 Q795 285 804 351 Q807 374 807 398 Z " />
<glyph glyph-name="P" unicode="P" horiz-adv-x="804" d="M829 522 Q829 482 814.5 443 Q800 404 775 375 Q754 349 726.5 333.5 Q699 318 661 309 Q644 305 627.5 302 Q611 299 592 297.5 Q573 296 549 295.5 Q525 295 492 295 L171 295 L102 0 L0 0 L163 706 L546 706 Q573 706 594 705.5 Q615 705 630 705 Q683 703 717 693.5 Q751 684 777 660 Q802 637 815.5 601 Q829 565 829 522 Z M729 516 Q729 561 704 588 Q689 604 669 610 Q659 613 651 615 Q643 617 632 617.5 Q621 618 605 618.5 Q589 619 564 619 L244 619 L190 381 L510 381 Q547 381 573.5 382.5 Q600 384 619.5 387.5 Q639 391 653.5 396.5 Q668 402 680 411 Q703 428 716 456 Q729 484 729 516 Z " />
<glyph glyph-name="Q" unicode="Q" horiz-adv-x="958" d="M863 -59 L706 45 Q584 -19 428 -19 Q339 -19 267.5 3 Q196 25 146.5 66.5 Q97 108 70.5 167 Q44 226 44 301 Q44 349 55 397 Q66 445 86 487 Q141 602 251 662.5 Q361 723 514 723 Q607 723 680 701.5 Q753 680 804 639.5 Q855 599 882 540.5 Q909 482 909 408 Q909 357 895.5 301 Q882 245 859 201 Q850 184 843 171.5 Q836 159 827.5 148 Q819 137 809 126 Q799 115 784 101 L919 11 L863 -59 Z M807 398 Q807 514 730 575.5 Q653 637 507 637 Q344 637 251 556 Q201 513 173 448 Q145 383 145 311 Q145 196 224 132 Q303 68 446 68 Q521 68 583 87.5 Q645 107 691 144 Q737 181 766 233 Q795 285 804 351 Q807 374 807 398 Z " />
<glyph glyph-name="R" unicode="R" horiz-adv-x="869" d="M847 536 Q847 498 835.5 461.5 Q824 425 803 398 Q783 371 751.5 351.5 Q720 332 682 322 Q669 319 658.5 316.5 Q648 314 636.5 312.5 Q625 311 611 310 Q597 309 577 307 L768 0 L651 0 L471 302 L172 302 L101 0 L0 0 L163 706 L563 706 Q595 706 618.5 706 Q642 706 658 705 Q693 704 723.5 696 Q754 688 776 674 Q811 654 829 618 Q847 582 847 536 Z M747 523 Q747 572 716 597 Q700 609 670.5 614.5 Q641 620 590 620 L246 620 L190 389 L517 389 Q555 389 582 390.5 Q609 392 629.5 395 Q650 398 664.5 403 Q679 408 692 415 Q718 429 732.5 458.5 Q747 488 747 523 Z " />
<glyph glyph-name="S" unicode="S" horiz-adv-x="812" d="M689 521 Q662 574 605 600 Q593 606 578.5 611 Q564 616 548 621 Q513 632 487 635.5 Q461 639 426 639 Q323 639 266 609.5 Q209 580 209 527 Q209 486 243 468 Q254 462 269 457 Q284 452 306.5 446 Q329 440 360.5 432.5 Q392 425 437 416 Q478 407 507.5 400.5 Q537 394 559 387.5 Q581 381 598 375 Q615 369 630 362 Q685 336 710 302 Q735 268 735 217 Q735 174 718.5 135.5 Q702 97 671 68 Q626 24 555 3.5 Q484 -17 384 -17 Q357 -17 329.5 -15.5 Q302 -14 276 -10 Q219 -2 177 14 Q135 30 97 58 Q76 73 60.5 87.5 Q45 102 32.5 119 Q20 136 10 156 Q0 176 -9 202 L95 229 Q106 194 121.5 172 Q137 150 162 131 Q242 72 388 72 Q501 72 566.5 107 Q632 142 632 204 Q632 240 609 260 Q600 268 587.5 274 Q575 280 554.5 286 Q534 292 503 299 Q472 306 424 316 Q380 325 347.5 332 Q315 339 290.5 345.5 Q266 352 247 358 Q228 364 212 370 Q161 390 134 426 Q107 462 107 513 Q107 551 124.5 588.5 Q142 626 171 653 Q247 723 426 723 Q563 723 656 679.5 Q749 636 787 554 L689 521 Z " />
<glyph glyph-name="T" unicode="T" horiz-adv-x="708" d="M750 622 L461 622 L318 0 L218 0 L361 622 L74 622 L93 706 L770 706 L750 622 Z " />
<glyph glyph-name="U" unicode="U" horiz-adv-x="888" d="M796 302 Q777 216 755 165 Q733 114 701 78 Q613 -21 389 -21 Q223 -21 138.5 36.5 Q54 94 54 207 Q54 230 58.5 259.5 Q63 289 74 335 L160 706 L259 706 L171 326 Q162 288 158.5 264 Q155 240 155 221 Q155 66 400 66 Q478 66 535.5 84 Q593 102 627 137 Q639 150 649 165.5 Q659 181 667.5 202.5 Q676 224 684.5 254.5 Q693 285 703 327 L790 706 L889 706 L796 302 Z " />
<glyph glyph-name="V" unicode="V" horiz-adv-x="740" d="M334 0 L235 0 L69 706 L177 706 L306 121 L705 706 L821 706 L334 0 Z " />
<glyph glyph-name="W" unicode="W" horiz-adv-x="1062" d="M763 0 L653 0 L589 586 L247 0 L138 0 L82 706 L180 706 L218 127 L556 706 L663 706 L730 130 L1036 706 L1138 706 L763 0 Z " />
<glyph glyph-name="X" unicode="X" horiz-adv-x="774" d="M446 363 L691 0 L569 0 L371 294 L46 0 L-90 0 L319 371 L95 706 L216 706 L394 440 L691 706 L824 706 L446 363 Z " />
<glyph glyph-name="Y" unicode="Y" horiz-adv-x="768" d="M417 277 L353 0 L254 0 L319 277 L83 706 L203 706 L382 371 L713 706 L841 706 L417 277 Z " />
<glyph glyph-name="Z" unicode="Z" horiz-adv-x="767" d="M802 617 L100 87 L684 87 L665 0 L-65 0 L-46 87 L655 619 L111 619 L129 706 L821 706 L802 617 Z " />
<glyph glyph-name="bracketleft" unicode="&#x5b;" horiz-adv-x="375" d="M421 695 L300 695 L121 -82 L241 -82 L224 -152 L5 -152 L217 765 L438 765 L421 695 Z " />
<glyph glyph-name="backslash" unicode="&#x5c;" horiz-adv-x="417" d="M251 0 L66 706 L149 706 L337 0 L251 0 Z " />
<glyph glyph-name="bracketright" unicode="&#x5d;" horiz-adv-x="375" d="M125 -151 L-96 -151 L-79 -81 L43 -81 L221 695 L102 695 L118 766 L337 766 L125 -151 Z " />
<glyph glyph-name="asciicircum" unicode="&#x5e;" horiz-adv-x="772" d="M531 287 L453 606 L222 286 L115 286 L425 706 L522 706 L628 286 L531 287 Z " />
<glyph glyph-name="underscore" unicode="&#x5f;" horiz-adv-x="500" d="M-59 -216 L-59 -137 L461 -137 L461 -216 L-59 -216 Z " />
<glyph glyph-name="grave" unicode="&#x60;" horiz-adv-x="292" d="M170 551 L58 688 L178 688 L234 551 L170 551 Z " />
<glyph glyph-name="a" unicode="a" horiz-adv-x="682" d="M604 0 Q567 -6 530 -6 Q444 -6 444 70 Q399 24 343.5 3 Q288 -18 209 -18 Q107 -18 53.5 19.5 Q0 57 0 129 Q0 180 28.5 220 Q57 260 105 277 Q149 291 220 297 Q233 298 244 299 Q255 300 267 300.5 Q279 301 293.5 301 Q308 301 328 301 L496 301 Q500 319 501 328.5 Q502 338 502 349 Q502 377 490 393 Q460 429 349 429 Q272 429 227 406 Q211 398 202 389 Q193 380 179 360 L82 376 Q137 501 361 501 Q482 501 538 470.5 Q594 440 594 375 Q594 357 590.5 333 Q587 309 579 276 L544 128 Q542 121 541 113 Q540 105 540 99 Q540 79 551 71 Q562 63 588 63 Q596 63 602.5 63.5 Q609 64 620 66 L604 0 Z M301 228 Q226 228 188.5 223 Q151 218 128 204 Q111 194 101 176.5 Q91 159 91 137 Q91 54 232 54 Q328 54 392 98.5 Q456 143 480 228 L301 228 Z " />
<glyph glyph-name="b" unicode="b" horiz-adv-x="745" d="M670 274 Q670 223 650.5 171.5 Q631 120 597 81 Q513 -15 356 -15 Q268 -15 209.5 7 Q151 29 111 78 L92 0 L-2 0 L161 706 L256 706 L193 434 Q212 450 223.5 457.5 Q235 465 254 473 Q284 486 321.5 493 Q359 500 401 500 Q463 500 513 484.5 Q563 469 598 439.5 Q633 410 651.5 368.5 Q670 327 670 274 Z M573 266 Q573 341 523.5 383 Q474 425 384 425 Q330 425 288 413 Q246 401 217 378 Q185 352 165.5 309.5 Q146 267 146 219 Q146 144 200 102.5 Q254 61 351 61 Q454 61 513.5 116 Q573 171 573 266 Z " />
<glyph glyph-name="c" unicode="c" horiz-adv-x="665" d="M539 320 Q528 340 521 349 Q514 358 503 369 Q476 395 435 408.5 Q394 422 343 422 Q292 422 251 408 Q210 394 180.5 368.5 Q151 343 135 306.5 Q119 270 119 226 Q119 152 171 108 Q223 64 311 64 Q358 64 400 77.5 Q442 91 473 114 Q490 128 501 139.5 Q512 151 529 177 L618 149 Q511 -14 304 -14 Q239 -14 187 2 Q135 18 98 48 Q61 78 41.5 121 Q22 164 22 217 Q22 280 46 332 Q70 384 113 421.5 Q156 459 216 479.5 Q276 500 348 500 Q403 500 451.5 487.5 Q500 475 538 452 Q571 432 593.5 405 Q616 378 633 339 L539 320 Z " />
<glyph glyph-name="d" unicode="d" horiz-adv-x="737" d="M579 0 L484 0 L498 56 Q470 34 452.5 23 Q435 12 408 2 Q382 -7 350.5 -12 Q319 -17 286 -17 Q225 -17 175.5 -1 Q126 15 91.5 45 Q57 75 38.5 117.5 Q20 160 20 213 Q20 275 44 327 Q68 379 111.5 417 Q155 455 215 476 Q275 497 346 497 Q428 497 483 474 Q538 451 576 400 L647 706 L741 706 L579 0 Z M537 262 Q537 337 487 378 Q437 419 344 419 Q292 419 249.5 405 Q207 391 177 365 Q147 339 131 302 Q115 265 115 220 Q115 177 130 147 Q145 117 170.5 98 Q196 79 230 70 Q264 61 303 61 Q351 61 393.5 73 Q436 85 468 109.5 Q500 134 518.5 172 Q537 210 537 262 Z " />
<glyph glyph-name="e" unicode="e" horiz-adv-x="685" d="M610 256 Q610 251 610 243.5 Q610 236 609 226 L114 226 Q114 220 113.5 215 Q113 210 113 205 Q113 140 164 101.5 Q215 63 301 63 Q440 63 510 165 L592 136 Q500 -15 294 -15 Q230 -15 179.5 0.5 Q129 16 93.5 45.5 Q58 75 39 117 Q20 159 20 212 Q20 275 43.5 327.5 Q67 380 109.5 418.5 Q152 457 210.5 478 Q269 499 339 499 Q402 499 452 482.5 Q502 466 537.5 434.5 Q573 403 591.5 358 Q610 313 610 256 Z M512 294 Q503 357 457 390.5 Q411 424 332 424 Q257 424 203 389.5 Q149 355 129 294 L512 294 Z " />
<glyph glyph-name="f" unicode="f" horiz-adv-x="313" d="M388 620 Q368 625 353 627 Q338 629 322 629 Q289 629 272 617 Q257 607 249 589.5 Q241 572 231 530 L220 482 L352 482 L337 418 L205 418 L109 0 L15 0 L112 418 L35 418 L50 482 L128 482 L138 528 Q143 551 147 567 Q151 583 155.5 595.5 Q160 608 165 618 Q170 628 176 638 Q220 712 325 712 Q345 712 365 710.5 Q385 709 408 705 L388 620 Z " />
<glyph glyph-name="g" unicode="g" horiz-adv-x="706" d="M577 52 Q568 13 559.5 -15 Q551 -43 541.5 -64 Q532 -85 521 -101 Q510 -117 496 -131 Q422 -202 251 -202 Q72 -202 16 -124 Q2 -104 -4 -81.5 Q-10 -59 -12 -25 L90 -25 Q92 -78 130 -100 Q168 -122 259 -122 Q396 -122 444 -57 Q456 -40 467.5 -8 Q479 24 488 67 Q462 47 446.5 37.5 Q431 28 408 19 Q382 8 347 2.5 Q312 -3 277 -3 Q218 -3 170.5 12 Q123 27 89.5 55 Q56 83 38 123 Q20 163 20 213 Q20 275 44 327.5 Q68 380 110.5 417.5 Q153 455 212.5 476 Q272 497 342 497 Q496 497 567 404 L585 482 L678 482 L577 52 Z M530 272 Q530 341 481.5 380.5 Q433 420 347 420 Q295 420 252 406 Q209 392 178.5 366 Q148 340 131 304.5 Q114 269 114 225 Q114 156 161.5 115.5 Q209 75 296 75 Q343 75 385.5 86 Q428 97 460 120.5 Q492 144 511 181.5 Q530 219 530 272 Z " />
<glyph glyph-name="h" unicode="h" horiz-adv-x="727" d="M633 315 Q633 297 629.5 275.5 Q626 254 620 227 L567 0 L473 0 L527 234 Q532 253 534.5 272.5 Q537 292 537 308 Q537 362 496 389.5 Q455 417 375 417 Q327 417 283.5 402 Q240 387 210 361 Q185 339 171 311 Q157 283 144 228 L91 0 L-3 0 L160 706 L254 706 L189 424 Q276 498 406 498 Q516 498 574.5 451 Q633 404 633 315 Z " />
<glyph glyph-name="i" unicode="i" horiz-adv-x="250" d="M222 570 L128 570 L150 666 L244 666 L222 570 Z M92 0 L-3 0 L108 482 L203 482 L92 0 Z " />
<glyph glyph-name="j" unicode="j" horiz-adv-x="250" d="M222 569 L127 569 L149 665 L244 665 L222 569 Z M86 -22 Q75 -67 63.5 -94 Q52 -121 35 -144 Q-12 -203 -113 -203 Q-134 -203 -152 -201 Q-170 -199 -199 -192 L-179 -103 Q-156 -111 -141.5 -113.5 Q-127 -116 -111 -116 Q-88 -116 -70 -110 Q-44 -101 -30.5 -80 Q-17 -59 -6 -11 L108 482 L202 482 L86 -22 Z " />
<glyph glyph-name="k" unicode="k" horiz-adv-x="684" d="M364 295 L617 0 L491 0 L288 244 L122 133 L92 0 L-3 0 L160 706 L255 706 L148 242 L494 482 L643 482 L364 295 Z " />
<glyph glyph-name="l" unicode="l" horiz-adv-x="249" d="M91 0 L-3 0 L160 706 L254 706 L91 0 Z " />
<glyph glyph-name="m" unicode="m" horiz-adv-x="1161" d="M1067 315 Q1067 297 1064.5 275.5 Q1062 254 1055 227 L1001 0 L907 0 L962 234 Q967 253 969 272.5 Q971 292 971 309 Q971 362 933.5 390 Q896 418 826 418 Q794 418 766.5 412 Q739 406 714 395 Q655 368 627 314 Q618 297 612.5 279 Q607 261 599 228 L546 0 L452 0 L506 234 Q511 253 513 272.5 Q515 292 515 309 Q515 362 477.5 390 Q440 418 370 418 Q338 418 311 412 Q284 406 258 395 Q200 369 172 314 Q163 297 157.5 278.5 Q152 260 144 228 L91 0 L-3 0 L108 482 L202 482 L189 424 Q277 498 392 498 Q429 498 464.5 490 Q500 482 528 468 Q550 457 566 440.5 Q582 424 596 397 Q613 412 625.5 423 Q638 434 649 442.5 Q660 451 671.5 457.5 Q683 464 697 470 Q761 498 842 498 Q951 498 1009 450.5 Q1067 403 1067 315 Z " />
<glyph glyph-name="n" unicode="n" horiz-adv-x="727" d="M633 315 Q633 297 629.5 275.5 Q626 254 620 227 L567 0 L473 0 L527 234 Q532 253 534.5 272.5 Q537 292 537 308 Q537 362 496 389.5 Q455 417 375 417 Q327 417 283.5 402 Q240 387 210 361 Q185 339 171 311 Q157 283 144 228 L91 0 L-3 0 L108 482 L203 482 L189 424 Q276 498 406 498 Q516 498 574.5 451 Q633 404 633 315 Z " />
<glyph glyph-name="o" unicode="o" horiz-adv-x="729" d="M656 271 Q656 263 655.5 256 Q655 249 654 241 Q639 120 551 52.5 Q463 -15 318 -15 Q247 -15 191 0.5 Q135 16 96 45 Q57 74 36.5 115.5 Q16 157 16 210 Q16 275 41 327.5 Q66 380 111 418 Q156 456 219.5 476.5 Q283 497 360 497 Q429 497 483.5 481.5 Q538 466 576.5 436.5 Q615 407 635.5 365.5 Q656 324 656 271 Z M560 259 Q560 337 506.5 378 Q453 419 352 419 Q298 419 254 405 Q210 391 178.5 365.5 Q147 340 130 303.5 Q113 267 113 223 Q113 148 167.5 105.5 Q222 63 321 63 Q425 63 488.5 110.5 Q552 158 559 241 Q560 246 560 250 Q560 254 560 259 Z " />
<glyph glyph-name="p" unicode="p" horiz-adv-x="737" d="M668 270 Q668 208 644 155.5 Q620 103 576.5 65.5 Q533 28 473 7 Q413 -14 342 -14 Q178 -14 112 83 L47 -195 L-48 -195 L109 482 L203 482 L190 426 Q216 449 233.5 459.5 Q251 470 279 480 Q337 500 401 500 Q463 500 512 484 Q561 468 596 438 Q631 408 649.5 365.5 Q668 323 668 270 Z M572 263 Q572 334 526 375 Q480 416 395 420 Q390 421 385.5 421 Q381 421 376 421 Q324 421 282.5 407 Q241 393 211.5 366.5 Q182 340 166 303 Q150 266 150 220 Q150 145 200 104 Q250 63 343 63 Q395 63 437.5 77 Q480 91 510 117.5 Q540 144 556 181 Q572 218 572 263 Z " />
<glyph glyph-name="q" unicode="q" horiz-adv-x="740" d="M530 -195 L435 -195 L492 49 Q450 14 402.5 -1.5 Q355 -17 290 -17 Q162 -17 90.5 42 Q19 101 19 206 Q19 258 38 310 Q57 362 91 401 Q133 451 191.5 474.5 Q250 498 332 498 Q418 498 475.5 475.5 Q533 453 574 404 L592 483 L686 483 L530 -195 Z M538 263 Q538 338 484.5 380 Q431 422 335 422 Q260 422 207 391 Q162 366 136.5 318 Q111 270 111 212 Q111 178 125 149.5 Q139 121 164 100.5 Q189 80 224.5 69 Q260 58 303 58 Q354 58 396 69.5 Q438 81 467 104 Q500 130 519 173 Q538 216 538 263 Z " />
<glyph glyph-name="r" unicode="r" horiz-adv-x="409" d="M427 395 Q403 402 388.5 404 Q374 406 351 406 Q307 406 270 394 Q233 382 207 359 Q185 340 172 317 Q165 304 161 292.5 Q157 281 152 258 L92 0 L-3 0 L109 482 L203 482 L190 427 Q222 463 266 479.5 Q310 496 375 496 Q398 496 414 494.5 Q430 493 449 488 L427 395 Z " />
<glyph glyph-name="s" unicode="s" horiz-adv-x="651" d="M498 348 Q491 368 480.5 379.5 Q470 391 450 401 Q424 414 388 421 Q352 428 312 428 Q237 428 195.5 409 Q154 390 154 355 Q154 331 179 318 Q195 310 221.5 304.5 Q248 299 299 293 Q365 285 408 278 Q451 271 479 262 Q518 250 540 221.5 Q562 193 562 155 Q562 136 557 117.5 Q552 99 544 84 Q517 33 454 9 Q391 -15 287 -15 Q209 -15 152.5 -2 Q96 11 54 39 Q25 59 9.5 83.5 Q-6 108 -14 147 L92 155 Q102 111 142 91 Q171 76 211 68 Q251 60 296 60 Q372 60 418.5 82.5 Q465 105 465 142 Q465 164 443 178 Q430 186 407.5 191 Q385 196 339 201 L262 210 Q208 216 176.5 223.5 Q145 231 119 244 Q59 273 59 338 Q59 416 129.5 459 Q200 502 328 502 Q403 502 462.5 486.5 Q522 471 555 444 Q565 436 572.5 425.5 Q580 415 587 403 Q593 392 596.5 382.5 Q600 373 603 355 L498 348 Z " />
<glyph glyph-name="t" unicode="t" horiz-adv-x="326" d="M351 418 L212 418 L156 175 Q151 154 148.5 139 Q146 124 146 116 Q146 95 157.5 86 Q169 77 195 77 Q216 77 231 78 Q246 79 272 84 L253 0 Q230 -4 211.5 -5 Q193 -6 171 -6 Q105 -6 76.5 15 Q48 36 48 87 Q48 100 50.5 117 Q53 134 61 166 L119 418 L36 418 L51 482 L136 482 L177 657 L271 657 L230 482 L366 482 L351 418 Z " />
<glyph glyph-name="u" unicode="u" horiz-adv-x="729" d="M569 0 L474 0 L487 59 Q442 21 390.5 3 Q339 -15 273 -15 Q162 -15 103 31 Q44 77 44 163 Q44 183 47.5 207 Q51 231 56 255 L109 482 L203 482 L149 248 Q140 211 140 179 Q140 153 145.5 137.5 Q151 122 165 108 Q207 66 302 66 Q350 66 393.5 80.5 Q437 95 467 121 Q492 143 506 171.5 Q520 200 533 255 L585 482 L680 482 L569 0 Z " />
<glyph glyph-name="v" unicode="v" horiz-adv-x="588" d="M273 0 L175 0 L50 482 L152 482 L241 93 L513 482 L622 482 L273 0 Z " />
<glyph glyph-name="w" unicode="w" horiz-adv-x="912" d="M621 0 L525 0 L467 390 L227 0 L130 0 L37 482 L137 482 L197 102 L433 482 L535 482 L592 102 L833 482 L938 482 L621 0 Z " />
<glyph glyph-name="x" unicode="x" horiz-adv-x="620" d="M348 252 L539 0 L419 0 L283 194 L55 0 L-79 0 L235 258 L58 482 L181 482 L302 314 L501 482 L633 482 L348 252 Z " />
<glyph glyph-name="y" unicode="y" horiz-adv-x="581" d="M220 -101 Q188 -149 143 -174 Q121 -185 95.5 -190 Q70 -195 33 -195 Q4 -195 -22.5 -192.5 Q-49 -190 -92 -183 L-73 -98 Q-38 -106 -14.5 -109.5 Q9 -113 29 -113 Q84 -113 116 -87 Q123 -82 128 -76.5 Q133 -71 139 -64 Q145 -57 152.5 -46.5 Q160 -36 170 -20 L42 482 L144 482 L238 68 L507 482 L615 482 L220 -101 Z " />
<glyph glyph-name="z" unicode="z" horiz-adv-x="594" d="M573 421 L108 77 L505 77 L488 0 L-55 0 L-40 64 L424 407 L70 407 L86 482 L587 482 L573 421 Z " />
<glyph glyph-name="braceleft" unicode="&#x7b;" horiz-adv-x="344" d="M410 699 L377 699 Q352 699 339.5 695.5 Q327 692 317 683 Q311 678 306.5 672 Q302 666 298 656 Q294 646 290 631 Q286 616 281 593 L246 439 Q232 377 207 347.5 Q182 318 135 307 Q165 297 178.5 278.5 Q192 260 192 229 Q192 220 190.5 206.5 Q189 193 185 178 L148 20 Q144 4 142 -6 Q140 -16 138.5 -22.5 Q137 -29 136.5 -33 Q136 -37 136 -42 Q136 -65 149 -75 Q162 -85 194 -85 L230 -85 L213 -155 L128 -155 Q83 -155 57.5 -132 Q32 -109 32 -68 Q32 -61 32.5 -55 Q33 -49 34.5 -41.5 Q36 -34 38.5 -22.5 Q41 -11 45 7 L85 176 Q90 194 91 205 Q92 216 92 223 Q92 253 74.5 265 Q57 277 12 278 L30 348 Q58 348 72 350.5 Q86 353 100 360 Q120 369 130 387.5 Q140 406 150 451 L185 607 Q192 639 198 659 Q204 679 209 693 Q237 768 344 768 L427 768 L410 699 Z " />
<glyph glyph-name="bar" unicode="&#x7c;" horiz-adv-x="229" d="M43 -152 L-56 -152 L156 765 L255 765 L43 -152 Z " />
<glyph glyph-name="braceright" unicode="&#x7d;" horiz-adv-x="344" d="M278 264 Q250 264 235.5 262 Q221 260 207 253 Q187 243 177 224.5 Q167 206 157 161 L122 6 Q114 -26 108.5 -46.5 Q103 -67 98 -81 Q70 -155 -37 -155 L-119 -155 L-102 -86 L-70 -86 Q-44 -86 -32 -83 Q-20 -80 -9 -71 Q-3 -66 1 -60 Q5 -54 9 -44 Q13 -34 17 -19 Q21 -4 26 19 L61 174 Q75 237 99.5 265.5 Q124 294 172 305 Q142 316 128.5 334 Q115 352 115 383 Q115 402 123 434 L160 593 Q164 610 166 619.5 Q168 629 169 635.5 Q170 642 170.5 646 Q171 650 171 654 Q171 677 158 687 Q145 697 113 697 L77 697 L94 768 L180 768 Q225 768 250 745 Q275 722 275 680 Q275 673 274.5 667 Q274 661 273 653.5 Q272 646 269.5 635 Q267 624 263 606 L223 436 Q219 419 217 407.5 Q215 396 215 389 Q215 360 232.5 347.5 Q250 335 295 334 L278 264 Z " />
<glyph glyph-name="asciitilde" unicode="&#x7e;" horiz-adv-x="772" d="M709 307 Q693 293 681 283 Q669 273 658 265.5 Q647 258 635 251.5 Q623 245 608 237 Q550 208 500 208 Q473 208 445.5 215.5 Q418 223 373 244 L337 261 Q302 278 278.5 284 Q255 290 232 290 Q211 290 191 284 Q181 281 173 277.5 Q165 274 155 267.5 Q145 261 132 251 Q119 241 99 224 Q97 222 92.5 219 Q88 216 83 211 L39 282 Q54 295 64.5 304 Q75 313 83.5 320 Q92 327 100 332.5 Q108 338 118 344 Q176 381 244 381 Q271 381 288 377 Q301 374 323 366 Q345 358 366 349 L425 323 Q459 308 475.5 303 Q492 298 509 298 Q526 298 547.5 304 Q569 310 588 321 Q605 330 620 340.5 Q635 351 666 376 L709 307 Z " />
<glyph glyph-name="nbspace" unicode="&#xa0;" horiz-adv-x="375" d="" />
<glyph glyph-name="exclamdown" unicode="&#xa1;" horiz-adv-x="292" d="M230 606 L130 606 L153 706 L253 706 L230 606 Z M162 305 L91 0 L-10 0 L63 315 L140 527 L184 527 L162 305 Z " />
<glyph glyph-name="cent" unicode="&#xa2;" horiz-adv-x="677" d="M543 318 Q518 361 487.5 382 Q457 403 407 412 L327 65 Q356 67 370.5 69 Q385 71 404 77 Q444 89 474.5 112.5 Q505 136 533 176 L625 149 Q519 -15 321 -15 L308 -15 L283 -120 L212 -120 L238 -10 Q212 -5 199 -1.5 Q186 2 168 10 Q102 36 65.5 90.5 Q29 145 29 216 Q29 279 52 330.5 Q75 382 118 419 Q161 456 221 476.5 Q281 497 355 498 L376 590 L447 590 L425 493 Q446 489 461.5 485.5 Q477 482 490 477.5 Q503 473 516 466.5 Q529 460 545 450 Q578 430 600.5 403.5 Q623 377 640 338 L543 318 Z M336 416 Q288 414 249 399.5 Q210 385 182 359.5 Q154 334 139 299 Q124 264 124 222 Q124 163 157.5 124.5 Q191 86 257 71 L336 416 Z " />
<glyph glyph-name="sterling" unicode="&#xa3;" horiz-adv-x="729" d="M612 476 Q613 483 613 488.5 Q613 494 613 497 Q613 568 567.5 607 Q522 646 439 646 Q355 646 306.5 611.5 Q258 577 258 517 Q258 491 266.5 466 Q275 441 295 411 L309 390 L521 390 L504 321 L342 321 Q353 298 357 280 Q361 262 361 240 Q361 213 354 188.5 Q347 164 331 136 L349 124 Q372 109 387 100 Q402 91 414 85.5 Q426 80 436.5 78.5 Q447 77 459 77 Q497 77 522 99 Q537 111 547 127 Q553 138 557.5 147 Q562 156 566 167.5 Q570 179 574 194 Q578 209 582 230 L675 230 Q671 214 668 201.5 Q665 189 663 180 Q645 113 615 73 Q585 33 540.5 10.5 Q496 -12 447 -12 Q401 -12 357 10 Q339 18 324 28 Q309 38 280 60 Q271 52 264.5 46.5 Q258 41 253 37 Q221 12 182 -0.5 Q143 -13 101 -13 Q40 -13 5 13.5 Q-30 40 -30 87 Q-30 144 14 179.5 Q58 215 130 215 Q147 215 162.5 213.5 Q178 212 193 207 Q207 203 220 198 Q233 193 261 180 Q267 197 269 207.5 Q271 218 271 230 Q271 251 262.5 270 Q254 289 231 322 L50 322 L66 390 L191 390 Q173 427 166 451 Q159 475 159 502 Q159 554 179 595.5 Q199 637 236.5 666 Q274 695 327.5 710.5 Q381 726 448 726 Q709 726 713 498 L612 476 Z M222 108 Q204 119 195 123.5 Q186 128 175 133 Q145 145 114 145 Q83 145 66 132.5 Q49 120 49 97 Q49 79 64 68.5 Q79 58 105 58 Q123 58 143 63 Q154 66 162.5 69 Q171 72 179.5 76.5 Q188 81 198 88.5 Q208 96 222 108 Z " />
<glyph glyph-name="currency" unicode="&#xa4;" horiz-adv-x="734" d="M609 488 Q644 433 644 366 Q644 257 570 172 L638 95 L571 39 L503 118 Q465 96 429.5 86.5 Q394 77 349 77 Q297 77 257 90 Q217 103 181 132 L95 62 L42 124 L126 193 Q106 228 98 256 Q90 284 90 318 Q90 374 113 429 Q119 442 123.5 451.5 Q128 461 134 470 Q140 479 147.5 487.5 Q155 496 166 508 L99 586 L165 642 L231 565 Q272 588 305 597 Q338 606 382 606 Q436 606 475.5 593 Q515 580 555 551 L639 619 L693 557 L609 488 Z M555 360 Q555 397 542.5 427.5 Q530 458 507.5 480 Q485 502 453.5 514 Q422 526 383 526 Q340 526 303 510.5 Q266 495 239 467.5 Q212 440 196.5 403 Q181 366 181 322 Q181 245 228 200.5 Q275 156 350 156 Q395 156 432.5 171 Q470 186 497.5 213 Q525 240 540 277.5 Q555 315 555 360 Z " />
<glyph glyph-name="yen" unicode="&#xa5;" horiz-adv-x="812" d="M559 393 L711 393 L694 320 L481 320 L428 270 L426 259 L680 259 L663 185 L409 185 L366 0 L267 0 L310 185 L56 185 L73 259 L327 259 L330 273 L302 320 L87 320 L104 393 L259 393 L77 701 L199 701 L395 352 L750 701 L886 701 L559 393 Z " />
<glyph glyph-name="brokenbar" unicode="&#xa6;" horiz-adv-x="229" d="M168 387 L68 387 L156 765 L255 765 L168 387 Z M43 -152 L-56 -152 L31 226 L130 226 L43 -152 Z " />
<glyph glyph-name="section" unicode="&#xa7;" horiz-adv-x="792" d="M662 540 Q647 553 635.5 562.5 Q624 572 613.5 579 Q603 586 592 591.5 Q581 597 567 603 Q526 621 482.5 630 Q439 639 397 639 Q284 639 284 573 Q284 549 306 533 Q313 528 328 520 Q339 514 348 510 Q357 506 367.5 501.5 Q378 497 392 492 Q406 487 427 480 Q446 474 465.5 467.5 Q485 461 506 453 Q548 437 572.5 425.5 Q597 414 614 403 Q651 379 670.5 344 Q690 309 690 268 Q690 242 683 215 Q676 188 664 166 Q650 142 627 119 Q611 103 595.5 92.5 Q580 82 550 66 Q558 49 561 36 Q564 23 564 6 Q564 -35 546.5 -68.5 Q529 -102 497.5 -126 Q466 -150 421 -163 Q376 -176 322 -176 Q294 -176 265.5 -173.5 Q237 -171 210 -165 Q194 -162 178 -157 Q162 -152 147 -147 Q125 -139 107.5 -131.5 Q90 -124 71.5 -114.5 Q53 -105 32 -92.5 Q11 -80 -17 -61 L63 17 Q80 4 92 -5.5 Q104 -15 115.5 -22 Q127 -29 139 -35 Q151 -41 166 -47 Q206 -64 249.5 -73 Q293 -82 336 -82 Q395 -82 427 -61 Q459 -40 459 -2 Q459 27 435 43 Q424 52 400 62 Q391 66 383.5 69 Q376 72 367.5 75 Q359 78 347.5 82 Q336 86 318 92 Q298 99 276.5 106.5 Q255 114 232 122 Q185 139 160.5 152 Q136 165 114 182 Q57 230 57 302 Q57 327 63.5 351 Q70 375 81 396 Q89 411 99 424 Q109 437 121 448 Q137 462 152.5 472.5 Q168 483 201 501 Q189 521 184.5 535 Q180 549 180 568 Q180 643 239 685 Q298 727 404 727 Q442 727 479 723 Q516 719 547 711 Q585 702 621 686 Q637 679 649.5 673 Q662 667 674 659 Q686 651 699.5 641 Q713 631 730 616 L662 540 Z M597 253 Q597 272 588 289 Q579 306 563 318 Q553 325 542.5 331 Q532 337 515.5 344 Q499 351 475.5 359.5 Q452 368 417 380 Q393 388 372 395.5 Q351 403 334 409 Q319 415 309 419 Q299 423 290.5 427 Q282 431 273.5 436 Q265 441 254 448 Q230 438 217.5 430 Q205 422 191 408 Q153 370 153 322 Q153 297 164.5 276.5 Q176 256 197 244 Q207 238 218 232.5 Q229 227 241 222 Q264 213 291 204 Q318 195 350 184 Q376 175 392.5 169.5 Q409 164 420.5 160 Q432 156 440.5 152.5 Q449 149 458 145 Q471 140 478.5 135.5 Q486 131 500 123 Q524 137 536 145 Q548 153 559 164 Q578 183 587.5 206 Q597 229 597 253 Z " />
<glyph glyph-name="dieresis" unicode="&#xa8;" horiz-adv-x="292" d="M314 568 L217 568 L241 671 L338 671 L314 568 Z M51 567 L-46 567 L-22 671 L75 671 L51 567 Z " />
<glyph glyph-name="copyright" unicode="&#xa9;" horiz-adv-x="833" d="M768 351 Q768 276 740 211.5 Q712 147 663.5 99.5 Q615 52 550 24.5 Q485 -3 411 -3 Q336 -3 271.5 25 Q207 53 159 101 Q111 149 83.5 214.5 Q56 280 56 355 Q56 429 83.5 493.5 Q111 558 159 606 Q207 654 272 681.5 Q337 709 412 709 Q486 709 551 681.5 Q616 654 664 606.5 Q712 559 740 495 Q768 431 768 357 L768 351 Z M730 352 Q730 420 705.5 478.5 Q681 537 638 580 Q595 623 537 648 Q479 673 412 673 Q346 673 288.5 647.5 Q231 622 188 578.5 Q145 535 120 476.5 Q95 418 95 352 Q95 286 120 227.5 Q145 169 187.5 126 Q230 83 288 58 Q346 33 412 33 Q478 33 536 58 Q594 83 637 126 Q680 169 705 227.5 Q730 286 730 352 Z M569 413 Q546 464 514 485 Q482 506 428 506 Q351 506 306 461 Q261 416 261 341 Q261 277 300.5 238.5 Q340 200 406 200 Q472 200 518 241 Q529 251 536 259.5 Q543 268 556 288 L614 251 Q579 194 524.5 164 Q470 134 402 134 Q354 134 313.5 149 Q273 164 244 191.5 Q215 219 199 256.5 Q183 294 183 339 Q183 390 201.5 433 Q220 476 253 506.5 Q286 537 332 554.5 Q378 572 433 572 Q506 572 554 542.5 Q602 513 631 449 L569 413 Z " />
<glyph glyph-name="ordfeminine" unicode="&#xaa;" horiz-adv-x="479" d="M472 356 L462 354 Q456 352 441.5 351.5 Q427 351 419 351 Q386 351 372 363 Q358 375 356 406 Q340 391 331 384 Q322 377 308 370 Q285 357 255 350.5 Q225 344 193 344 Q124 344 84.5 373 Q45 402 45 455 Q45 481 57 504 Q69 527 90 543 Q113 560 147.5 566.5 Q182 573 245 573 L392 573 L395 586 Q396 591 396.5 596 Q397 601 397 606 Q397 635 372 646.5 Q347 658 281 658 Q231 658 209 648.5 Q187 639 173 613 L102 620 Q124 670 167 691.5 Q210 713 289 713 Q383 713 424 691 Q465 669 465 619 Q465 607 463.5 593 Q462 579 458 564 L435 464 Q432 450 431 443 Q430 436 430 431 Q430 416 437 410 Q444 404 463 404 Q468 404 472 404.5 Q476 405 484 407 L472 356 Z M212 517 Q177 515 158 510 Q117 497 117 457 Q117 401 205 401 Q238 401 270 409.5 Q302 418 327 435 Q366 461 382 522 L212 517 Z " />
<glyph glyph-name="guillemotleft" unicode="&#xab;" horiz-adv-x="500" d="M450 389 L290 250 L387 113 L374 55 L207 214 L227 300 L467 458 L450 389 Z M249 387 L89 250 L186 113 L173 55 L6 214 L26 299 L266 458 L249 387 Z " />
<glyph glyph-name="logicalnot" unicode="&#xac;" horiz-adv-x="772" d="M602 6 L507 6 L564 254 L36 254 L55 338 L679 338 L602 6 Z " />
<glyph glyph-name="registered" unicode="&#xae;" horiz-adv-x="833" d="M768 351 Q768 276 740 211.5 Q712 147 663.5 99.5 Q615 52 550 24.5 Q485 -3 411 -3 Q336 -3 271.5 25 Q207 53 159 101 Q111 149 83.5 214.5 Q56 280 56 355 Q56 429 83.5 493.5 Q111 558 159 606 Q207 654 272 681.5 Q337 709 412 709 Q486 709 551 681.5 Q616 654 664 606.5 Q712 559 740 495 Q768 431 768 357 L768 351 Z M729 352 Q729 420 704.5 478.5 Q680 537 637 580 Q594 623 536 648 Q478 673 411 673 Q345 673 287.5 647.5 Q230 622 187.5 578.5 Q145 535 120 476.5 Q95 418 95 352 Q95 286 119.5 227.5 Q144 169 187 126 Q230 83 287.5 58 Q345 33 411 33 Q477 33 535 58 Q593 83 636 126 Q679 169 704 227.5 Q729 286 729 352 Z M618 458 Q618 331 469 323 L576 147 L497 147 L392 322 L326 322 L286 147 L216 147 L310 563 L449 563 Q480 563 500.5 562 Q521 561 535.5 558 Q550 555 560.5 550.5 Q571 546 581 539 Q618 511 618 458 Z M546 451 Q546 469 537 482.5 Q528 496 510 500 Q499 502 490 503 Q481 504 453 504 L367 504 L338 382 L401 382 Q452 382 476 384.5 Q500 387 516 395 Q530 402 538 417 Q546 432 546 451 Z " />
<glyph glyph-name="macron" unicode="&#xaf;" horiz-adv-x="292" d="M318 569 L-43 569 L-26 645 L335 645 L318 569 Z " />
<glyph glyph-name="degree" unicode="&#xb0;" horiz-adv-x="354" d="M387 595 Q387 561 374.5 531 Q362 501 340 479 Q318 457 288.5 444.5 Q259 432 225 432 Q192 432 162.5 444.5 Q133 457 111.5 479 Q90 501 77.5 530.5 Q65 560 65 594 Q65 627 77.5 656.5 Q90 686 112 708 Q134 730 163 742.5 Q192 755 226 755 Q259 755 288.5 742.5 Q318 730 340 708.5 Q362 687 374.5 657.5 Q387 628 387 595 Z M305 595 Q305 629 282 652 Q259 675 225 675 Q193 675 170 652 Q147 629 147 596 Q147 564 170 540.5 Q193 517 226 517 Q258 517 281.5 540 Q305 563 305 595 Z " />
<glyph glyph-name="plusminus" unicode="&#xb1;" horiz-adv-x="772" d="M684 381 L438 381 L386 155 L291 155 L343 381 L97 381 L117 464 L363 464 L414 686 L509 686 L458 464 L704 464 L684 381 Z M597 0 L10 0 L29 83 L616 83 L597 0 Z " />
<glyph glyph-name="twosuperior" unicode="&#xb2;" horiz-adv-x="458" d="M452 556 Q452 524 438.5 494.5 Q425 465 401 442 Q386 428 369 415.5 Q352 403 327.5 388.5 Q303 374 268.5 357 Q234 340 184 316 L165 307 L414 308 L402 248 L34 248 L48 316 Q80 328 95 335 Q106 340 127 349.5 Q148 359 180 375 Q209 389 232.5 401.5 Q256 414 273 424 Q304 441 329 462 Q354 483 365 501 Q379 523 379 554 Q379 592 353.5 613 Q328 634 280 634 Q225 634 192.5 604.5 Q160 575 153 520 L85 535 Q126 693 286 693 Q362 693 407 656 Q452 619 452 556 Z " />
<glyph glyph-name="threesuperior" unicode="&#xb3;" horiz-adv-x="458" d="M449 582 Q449 507 369 479 Q401 462 414.5 441 Q428 420 428 388 Q428 320 374.5 280.5 Q321 241 230 241 Q138 241 89 279 Q40 317 38 389 L107 401 Q108 378 112.5 364 Q117 350 127 338 Q143 320 172.5 310.5 Q202 301 240 301 Q294 301 324.5 323.5 Q355 346 355 387 Q355 423 327.5 436.5 Q300 450 228 450 L198 450 L208 504 L231 504 Q240 504 245.5 503.5 Q251 503 255 503 Q380 503 380 575 Q380 604 355.5 619.5 Q331 635 285 635 Q256 635 231.5 628 Q207 621 192 610 Q179 600 171 586.5 Q163 573 156 551 L92 569 Q112 629 162 660.5 Q212 692 288 692 Q363 692 406 662.5 Q449 633 449 582 Z " />
<glyph glyph-name="acute" unicode="&#xb4;" horiz-adv-x="292" d="M106 551 L39 551 L126 688 L253 688 L106 551 Z " />
<glyph glyph-name="mu" unicode="&#xb5;" horiz-adv-x="729" d="M597 128 Q595 121 594 113 Q593 105 593 99 Q593 80 604 71.5 Q615 63 641 63 Q649 63 655 63.5 Q661 64 672 66 L657 0 Q638 -2 620 -3.5 Q602 -5 583 -5 Q497 -5 497 68 L497 70 Q416 -17 275 -17 Q232 -17 186 -6 Q156 2 139 12 Q122 22 100 45 L45 -195 L-49 -195 L107 483 L201 483 L151 263 Q142 223 139 206 Q136 189 136 174 Q136 122 177.5 92.5 Q219 63 293 63 Q311 63 326 65 Q341 67 355 70 Q380 75 408 88.5 Q436 102 457 119 Q472 131 482.5 144 Q493 157 503 175 Q512 191 517 203 Q522 215 527 238 L583 483 L678 483 L597 128 Z " />
<glyph glyph-name="paragraph" unicode="&#xb6;" horiz-adv-x="667" d="M619 652 L585 652 L396 -167 L338 -167 L527 652 L383 652 L194 -167 L136 -167 L248 319 Q135 361 135 480 Q135 544 170 600 Q204 654 259 680 Q314 706 399 706 L632 706 L619 652 Z " />
<glyph glyph-name="periodcentered" unicode="&#xb7;" horiz-adv-x="250" d="M137 188 L27 188 L52 297 L162 297 L137 188 Z " />
<glyph glyph-name="cedilla" unicode="&#xb8;" horiz-adv-x="292" d="M269 -115 Q269 -162 229 -189.5 Q189 -217 123 -217 Q99 -217 76.5 -214 Q54 -211 23 -203 L50 -157 Q76 -165 89 -167 Q102 -169 117 -169 Q148 -169 165 -158 Q182 -147 182 -127 Q182 -93 112 -93 L98 -93 L162 10 L218 10 L181 -49 Q229 -54 249 -69 Q269 -84 269 -115 Z " />
<glyph glyph-name="onesuperior" unicode="&#xb9;" horiz-adv-x="458" d="M257 246 L187 246 L266 586 Q246 578 235 574.5 Q224 571 208 569 Q195 567 182 566.5 Q169 566 140 566 L152 618 Q186 619 204 622 Q222 625 241 634 Q262 644 275 654.5 Q288 665 306 689 L360 689 L257 246 Z " />
<glyph glyph-name="ordmasculine" unicode="&#xba;" horiz-adv-x="500" d="M507 553 Q507 548 507 542.5 Q507 537 506 532 Q496 445 434.5 397.5 Q373 350 273 350 Q174 350 118.5 392.5 Q63 435 63 510 Q63 556 80 593.5 Q97 631 128.5 658 Q160 685 204 699.5 Q248 714 302 714 Q398 714 452.5 671 Q507 628 507 553 Z M438 545 Q438 599 401.5 628 Q365 657 296 657 Q222 657 178 619.5 Q134 582 134 519 Q134 466 171 437 Q208 408 275 408 Q346 408 389 441 Q432 474 437 532 Q437 535 437.5 538.5 Q438 542 438 545 Z " />
<glyph glyph-name="guillemotright" unicode="&#xbb;" horiz-adv-x="500" d="M417 213 L178 54 L194 125 L354 262 L258 399 L271 457 L437 298 L417 213 Z M216 212 L-23 54 L-7 123 L153 262 L57 399 L70 457 L236 298 L216 212 Z " />
<glyph glyph-name="onequarter" unicode="&#xbc;" horiz-adv-x="1042" d="M926 104 L840 104 L816 0 L749 0 L773 104 L518 104 L531 161 L863 442 L918 442 L853 163 L939 163 L926 104 Z M269 -12 L223 20 L776 703 L821 670 L269 -12 Z M273 246 L203 246 L282 586 Q262 578 251 574.5 Q240 571 224 569 Q211 567 198 566.5 Q185 566 156 566 L168 618 Q202 619 220 622 Q238 625 257 634 Q278 644 291 654.5 Q304 665 322 689 L376 689 L273 246 Z M613 162 L786 162 L832 349 L613 162 Z " />
<glyph glyph-name="onehalf" unicode="&#xbd;" horiz-adv-x="1042" d="M971 307 Q971 276 957.5 246.5 Q944 217 920 194 Q905 179 888 166.5 Q871 154 846.5 140 Q822 126 787.5 109 Q753 92 703 68 L684 59 L933 59 L921 0 L553 0 L567 67 Q596 80 614 86 Q625 91 646 101 Q667 111 699 127 Q758 156 792 175 Q823 192 848 213 Q873 234 884 252 Q891 263 894.5 277.5 Q898 292 898 306 Q898 344 872.5 364.5 Q847 385 799 385 Q744 385 711.5 356 Q679 327 672 272 L604 286 Q644 444 805 444 Q881 444 926 407 Q971 370 971 307 Z M230 -12 L184 20 L736 703 L782 670 L230 -12 Z M250 246 L180 246 L259 586 Q239 578 228 574.5 Q217 571 200 569 Q187 567 174.5 566.5 Q162 566 132 566 L145 618 Q179 619 196.5 622 Q214 625 233 634 Q255 644 267.5 654.5 Q280 665 298 689 L352 689 L250 246 Z " />
<glyph glyph-name="threequarters" unicode="&#xbe;" horiz-adv-x="1042" d="M956 104 L870 104 L846 0 L779 0 L803 104 L548 104 L561 161 L893 442 L948 442 L884 163 L970 163 L956 104 Z M307 -12 L261 20 L813 703 L859 670 L307 -12 Z M455 582 Q455 507 375 479 Q407 462 420 441 Q433 420 433 388 Q433 320 380 280.5 Q327 241 236 241 Q144 241 95 279 Q46 317 44 389 L113 401 Q114 378 118.5 364 Q123 350 133 338 Q148 320 178 310.5 Q208 301 246 301 Q300 301 330 323.5 Q360 346 360 387 Q360 423 332.5 436.5 Q305 450 234 450 L203 450 L214 504 L237 504 Q246 504 251.5 503.5 Q257 503 261 503 Q386 503 386 575 Q386 604 361.5 619.5 Q337 635 291 635 Q262 635 237.5 628 Q213 621 198 610 Q185 600 177 586.5 Q169 573 162 551 L98 569 Q118 629 168 660.5 Q218 692 294 692 Q369 692 412 662.5 Q455 633 455 582 Z M644 162 L817 162 L862 349 L644 162 Z " />
<glyph glyph-name="questiondown" unicode="&#xbf;" horiz-adv-x="667" d="M448 605 L347 605 L370 706 L471 706 L448 605 Z M554 203 Q520 95 439 39 Q358 -17 237 -17 Q117 -17 49 31 Q-19 79 -19 165 Q-19 194 -12 221.5 Q-5 249 9 271 Q25 298 55 322 Q70 334 83 343 Q96 352 113.5 360 Q131 368 155 377 Q179 386 217 399 L271 417 Q296 425 305.5 433.5 Q315 442 323 459 Q328 471 332 485 Q336 499 341 525 L415 525 L408 491 Q396 431 379 402 Q375 394 369 387 Q363 380 357 375 Q344 363 328.5 356.5 Q313 350 276 339 Q165 307 122 270 Q102 253 90 225 Q78 197 78 167 Q78 117 121 88 Q164 59 239 59 Q351 59 411 122 Q445 158 470 220 L554 203 Z " />
<glyph glyph-name="Agrave" unicode="&#xc0;" horiz-adv-x="833" d="M485 755 L380 881 L499 881 L551 755 L485 755 Z M640 0 L594 174 L161 174 L34 0 L-85 0 L444 706 L551 706 L750 0 L640 0 Z M478 605 L221 255 L570 255 L478 605 Z " />
<glyph glyph-name="Aacute" unicode="&#xc1;" horiz-adv-x="833" d="M500 753 L435 753 L522 878 L649 878 L500 753 Z M640 0 L594 174 L161 174 L34 0 L-85 0 L444 706 L551 706 L750 0 L640 0 Z M478 605 L221 255 L570 255 L478 605 Z " />
<glyph glyph-name="Acircumflex" unicode="&#xc2;" horiz-adv-x="833" d="M580 753 L511 822 L417 752 L331 752 L460 877 L567 877 L655 753 L580 753 Z M640 0 L594 174 L161 174 L34 0 L-85 0 L444 706 L551 706 L750 0 L640 0 Z M478 605 L221 255 L570 255 L478 605 Z " />
<glyph glyph-name="Atilde" unicode="&#xc3;" horiz-adv-x="833" d="M692 816 Q670 800 657.5 792 Q645 784 627 775 Q610 767 597.5 764 Q585 761 571 761 Q557 761 539.5 764 Q522 767 511 772 L462 794 Q445 802 426 802 Q413 802 401 799 Q386 795 374.5 788.5 Q363 782 340 765 L312 809 Q335 827 345.5 834.5 Q356 842 373 851 Q408 870 442 870 Q458 870 470 866.5 Q482 863 507 851 Q531 839 550 833.5 Q569 828 583 828 Q596 828 609 831 Q623 835 631 838.5 Q639 842 656 854 L665 860 L692 816 Z M640 0 L594 174 L161 174 L34 0 L-85 0 L444 706 L551 706 L750 0 L640 0 Z M478 605 L221 255 L570 255 L478 605 Z " />
<glyph glyph-name="Adieresis" unicode="&#xc4;" horiz-adv-x="833" d="M681 774 L583 774 L601 877 L699 877 L681 774 Z M418 774 L321 774 L339 877 L436 877 L418 774 Z M640 0 L594 174 L161 174 L34 0 L-85 0 L444 706 L551 706 L750 0 L640 0 Z M478 605 L221 255 L570 255 L478 605 Z " />
<glyph glyph-name="Aring" unicode="&#xc5;" horiz-adv-x="833" d="M625 836 Q625 792 593 765.5 Q561 739 509 739 Q457 739 424.5 766 Q392 793 392 836 Q392 878 424 904 Q456 930 508 930 Q559 930 592 903.5 Q625 877 625 836 Z M640 0 L594 174 L161 174 L34 0 L-85 0 L444 706 L551 706 L750 0 L640 0 Z M564 836 Q564 856 548 869.5 Q532 883 507 883 Q484 883 468 869 Q452 855 452 835 Q452 815 468.5 801.5 Q485 788 509 788 Q533 788 548.5 801.5 Q564 815 564 836 Z M478 605 L221 255 L570 255 L478 605 Z " />
<glyph glyph-name="AE" unicode="&#xc6;" horiz-adv-x="1125" d="M1130 620 L691 620 L642 408 L1073 408 L1054 326 L623 326 L569 88 L1038 88 L1018 0 L448 0 L487 170 L206 170 L54 0 L-76 0 L573 706 L1150 706 L1130 620 Z M279 252 L507 252 L595 611 L279 252 Z " />
<glyph glyph-name="Ccedilla" unicode="&#xc7;" horiz-adv-x="838" d="M754 479 Q728 556 659 598.5 Q590 641 490 641 Q417 641 355 617 Q293 593 248 550 Q203 507 177.5 448.5 Q152 390 152 322 Q152 158 300 96 Q369 67 445 67 Q536 67 607.5 104.5 Q679 142 727 214 L820 189 Q791 137 755 101.5 Q719 66 667 37 Q616 9 566 -3.5 Q516 -16 447 -17 L426 -52 Q452 -55 464.5 -58 Q477 -61 489 -68 Q520 -85 520 -124 Q520 -175 477.5 -204.5 Q435 -234 363 -234 Q337 -234 313 -230.5 Q289 -227 257 -219 L286 -169 Q314 -177 327.5 -180 Q341 -183 358 -183 Q390 -183 408.5 -171 Q427 -159 427 -137 Q427 -100 351 -100 L337 -100 L388 -15 Q347 -11 316.5 -5.5 Q286 0 261 8.5 Q236 17 214 29.5 Q192 42 169 60 Q50 150 50 311 Q50 402 83 478 Q116 554 174.5 608.5 Q233 663 315 693.5 Q397 724 494 724 Q768 724 856 497 L754 479 Z " />
<glyph glyph-name="Egrave" unicode="&#xc8;" horiz-adv-x="792" d="M483 755 L379 881 L497 881 L549 755 L483 755 Z M794 619 L243 619 L194 409 L731 409 L712 325 L175 325 L120 87 L697 87 L677 0 L0 0 L163 706 L814 706 L794 619 Z " />
<glyph glyph-name="Eacute" unicode="&#xc9;" horiz-adv-x="792" d="M483 753 L418 753 L505 878 L632 878 L483 753 Z M794 619 L243 619 L194 409 L731 409 L712 325 L175 325 L120 87 L697 87 L677 0 L0 0 L163 706 L814 706 L794 619 Z " />
<glyph glyph-name="Ecircumflex" unicode="&#xca;" horiz-adv-x="792" d="M573 753 L504 822 L410 752 L324 752 L453 877 L560 877 L648 753 L573 753 Z M794 619 L243 619 L194 409 L731 409 L712 325 L175 325 L120 87 L697 87 L677 0 L0 0 L163 706 L814 706 L794 619 Z " />
<glyph glyph-name="Edieresis" unicode="&#xcb;" horiz-adv-x="792" d="M676 774 L578 774 L596 877 L694 877 L676 774 Z M413 774 L316 774 L334 877 L431 877 L413 774 Z M794 619 L243 619 L194 409 L731 409 L712 325 L175 325 L120 87 L697 87 L677 0 L0 0 L163 706 L814 706 L794 619 Z " />
<glyph glyph-name="Igrave" unicode="&#xcc;" horiz-adv-x="274" d="M208 755 L103 881 L222 881 L274 755 L208 755 Z M102 0 L0 0 L163 706 L264 706 L102 0 Z " />
<glyph glyph-name="Iacute" unicode="&#xcd;" horiz-adv-x="274" d="M224 753 L159 753 L246 878 L373 878 L224 753 Z M102 0 L0 0 L163 706 L264 706 L102 0 Z " />
<glyph glyph-name="Icircumflex" unicode="&#xce;" horiz-adv-x="274" d="M302 752 L233 821 L139 751 L53 751 L182 876 L289 876 L377 752 L302 752 Z M102 0 L0 0 L163 706 L264 706 L102 0 Z " />
<glyph glyph-name="Idieresis" unicode="&#xcf;" horiz-adv-x="274" d="M402 774 L304 774 L322 877 L420 877 L402 774 Z M139 774 L42 774 L60 877 L157 877 L139 774 Z M102 0 L0 0 L163 706 L264 706 L102 0 Z " />
<glyph glyph-name="Eth" unicode="&#xd0;" horiz-adv-x="857" d="M822 412 Q822 324 793 247.5 Q764 171 710 115 Q635 38 526 17 Q484 9 433 4.5 Q382 0 325 0 L0 0 L79 343 L-3 343 L12 411 L95 411 L163 706 L445 706 Q466 706 485 706 Q504 706 521 705 Q615 702 678 673 Q746 642 784 573 Q822 504 822 412 Z M721 410 Q721 467 700 511.5 Q679 556 638 583 Q624 592 609 599 Q594 606 577 610 Q564 613 552.5 615 Q541 617 525 618 Q509 619 487 619.5 Q465 620 431 620 L246 620 L198 411 L522 411 L506 343 L183 343 L123 87 L320 87 Q419 87 481.5 99 Q544 111 587 139 Q617 159 642 188 Q667 217 684.5 252 Q702 287 711.5 327.5 Q721 368 721 410 Z " />
<glyph glyph-name="Ntilde" unicode="&#xd1;" horiz-adv-x="917" d="M724 816 Q702 800 689.5 792 Q677 784 659 775 Q642 767 629.5 764 Q617 761 603 761 Q589 761 571.5 764 Q554 767 543 772 L494 794 Q477 802 458 802 Q445 802 433 799 Q418 795 406.5 788.5 Q395 782 372 765 L344 809 Q367 827 377.5 834.5 Q388 842 405 851 Q440 870 474 870 Q490 870 502 866.5 Q514 863 539 851 Q563 839 582 833.5 Q601 828 615 828 Q628 828 641 831 Q655 835 663 838.5 Q671 842 688 854 L697 860 L724 816 Z M745 0 L647 0 L233 592 L96 0 L0 0 L163 706 L266 706 L677 115 L812 706 L907 706 L745 0 Z " />
<glyph glyph-name="Ograve" unicode="&#xd2;" horiz-adv-x="958" d="M502 755 L398 881 L516 881 L568 755 L502 755 Z M909 411 Q909 313 875 233.5 Q841 154 778.5 98 Q716 42 627.5 11.5 Q539 -19 429 -19 Q339 -19 268 3 Q197 25 147 66.5 Q97 108 70.5 167 Q44 226 44 301 Q44 349 55 397 Q66 445 86 487 Q141 602 251 662.5 Q361 723 514 723 Q590 723 661.5 706.5 Q733 690 788 653 Q843 616 876 556.5 Q909 497 909 411 Z M807 398 Q807 514 730 575.5 Q653 637 507 637 Q344 637 251 556 Q201 513 173 448 Q145 383 145 311 Q145 196 224 132 Q303 68 446 68 Q521 68 583 87.5 Q645 107 691 144 Q737 181 766 233 Q795 285 804 351 Q807 374 807 398 Z " />
<glyph glyph-name="Oacute" unicode="&#xd3;" horiz-adv-x="958" d="M522 753 L457 753 L544 878 L671 878 L522 753 Z M909 411 Q909 313 875 233.5 Q841 154 778.5 98 Q716 42 627.5 11.5 Q539 -19 429 -19 Q339 -19 268 3 Q197 25 147 66.5 Q97 108 70.5 167 Q44 226 44 301 Q44 349 55 397 Q66 445 86 487 Q141 602 251 662.5 Q361 723 514 723 Q590 723 661.5 706.5 Q733 690 788 653 Q843 616 876 556.5 Q909 497 909 411 Z M807 398 Q807 514 730 575.5 Q653 637 507 637 Q344 637 251 556 Q201 513 173 448 Q145 383 145 311 Q145 196 224 132 Q303 68 446 68 Q521 68 583 87.5 Q645 107 691 144 Q737 181 766 233 Q795 285 804 351 Q807 374 807 398 Z " />
<glyph glyph-name="Ocircumflex" unicode="&#xd4;" horiz-adv-x="958" d="M596 753 L528 822 L433 752 L348 752 L477 877 L584 877 L672 753 L596 753 Z M909 411 Q909 313 875 233.5 Q841 154 778.5 98 Q716 42 627.5 11.5 Q539 -19 429 -19 Q339 -19 268 3 Q197 25 147 66.5 Q97 108 70.5 167 Q44 226 44 301 Q44 349 55 397 Q66 445 86 487 Q141 602 251 662.5 Q361 723 514 723 Q590 723 661.5 706.5 Q733 690 788 653 Q843 616 876 556.5 Q909 497 909 411 Z M807 398 Q807 514 730 575.5 Q653 637 507 637 Q344 637 251 556 Q201 513 173 448 Q145 383 145 311 Q145 196 224 132 Q303 68 446 68 Q521 68 583 87.5 Q645 107 691 144 Q737 181 766 233 Q795 285 804 351 Q807 374 807 398 Z " />
<glyph glyph-name="Otilde" unicode="&#xd5;" horiz-adv-x="958" d="M707 816 Q685 800 672.5 792 Q660 784 642 775 Q625 767 612.5 764 Q600 761 586 761 Q572 761 554.5 764 Q537 767 526 772 L477 794 Q460 802 441 802 Q428 802 416 799 Q401 795 389.5 788.5 Q378 782 355 765 L327 809 Q350 827 360.5 834.5 Q371 842 388 851 Q423 870 457 870 Q473 870 485 866.5 Q497 863 522 851 Q546 839 565 833.5 Q584 828 598 828 Q611 828 624 831 Q638 835 646 838.5 Q654 842 671 854 L680 860 L707 816 Z M909 411 Q909 313 875 233.5 Q841 154 778.5 98 Q716 42 627.5 11.5 Q539 -19 429 -19 Q339 -19 268 3 Q197 25 147 66.5 Q97 108 70.5 167 Q44 226 44 301 Q44 349 55 397 Q66 445 86 487 Q141 602 251 662.5 Q361 723 514 723 Q590 723 661.5 706.5 Q733 690 788 653 Q843 616 876 556.5 Q909 497 909 411 Z M807 398 Q807 514 730 575.5 Q653 637 507 637 Q344 637 251 556 Q201 513 173 448 Q145 383 145 311 Q145 196 224 132 Q303 68 446 68 Q521 68 583 87.5 Q645 107 691 144 Q737 181 766 233 Q795 285 804 351 Q807 374 807 398 Z " />
<glyph glyph-name="Odieresis" unicode="&#xd6;" horiz-adv-x="958" d="M687 774 L589 774 L607 877 L705 877 L687 774 Z M424 774 L327 774 L345 877 L442 877 L424 774 Z M909 411 Q909 313 875 233.5 Q841 154 778.5 98 Q716 42 627.5 11.5 Q539 -19 429 -19 Q339 -19 268 3 Q197 25 147 66.5 Q97 108 70.5 167 Q44 226 44 301 Q44 349 55 397 Q66 445 86 487 Q141 602 251 662.5 Q361 723 514 723 Q590 723 661.5 706.5 Q733 690 788 653 Q843 616 876 556.5 Q909 497 909 411 Z M807 398 Q807 514 730 575.5 Q653 637 507 637 Q344 637 251 556 Q201 513 173 448 Q145 383 145 311 Q145 196 224 132 Q303 68 446 68 Q521 68 583 87.5 Q645 107 691 144 Q737 181 766 233 Q795 285 804 351 Q807 374 807 398 Z " />
<glyph glyph-name="multiply" unicode="&#xd7;" horiz-adv-x="772" d="M444 295 L613 150 L541 89 L368 239 L161 88 L101 147 L303 295 L130 444 L201 504 L379 351 L581 499 L641 440 L444 295 Z " />
<glyph glyph-name="Oslash" unicode="&#xd8;" horiz-adv-x="958" d="M874 555 Q894 515 901.5 482.5 Q909 450 909 408 Q909 357 895.5 301 Q882 245 859 201 Q804 94 692.5 37.5 Q581 -19 426 -19 Q324 -19 251 8.5 Q178 36 117 96 L25 38 L-12 103 L75 156 Q59 191 51.5 225.5 Q44 260 44 299 Q44 394 78 472 Q112 550 173.5 606 Q235 662 322 692.5 Q409 723 514 723 Q722 723 830 615 L917 669 L955 605 L874 555 Z M743 562 Q714 597 649.5 617 Q585 637 505 637 Q426 637 361.5 616.5 Q297 596 251 556 Q201 513 173 448 Q145 383 145 312 Q145 294 145.5 281.5 Q146 269 148.5 258 Q151 247 154.5 236 Q158 225 164 210 L743 562 Z M807 396 Q807 415 806.5 428 Q806 441 803.5 452.5 Q801 464 797 475.5 Q793 487 786 503 L206 149 Q286 68 447 68 Q528 68 594 91.5 Q660 115 707.5 158 Q755 201 781 261.5 Q807 322 807 396 Z " />
<glyph glyph-name="Ugrave" unicode="&#xd9;" horiz-adv-x="888" d="M496 755 L391 881 L510 881 L562 755 L496 755 Z M796 302 Q777 216 755 165 Q733 114 701 78 Q613 -21 389 -21 Q223 -21 138.5 36.5 Q54 94 54 207 Q54 230 58.5 259.5 Q63 289 74 335 L160 706 L259 706 L171 326 Q162 288 158.5 264 Q155 240 155 221 Q155 66 400 66 Q478 66 535.5 84 Q593 102 627 137 Q639 150 649 165.5 Q659 181 667.5 202.5 Q676 224 684.5 254.5 Q693 285 703 327 L790 706 L889 706 L796 302 Z " />
<glyph glyph-name="Uacute" unicode="&#xda;" horiz-adv-x="888" d="M523 753 L458 753 L545 878 L672 878 L523 753 Z M796 302 Q777 216 755 165 Q733 114 701 78 Q613 -21 389 -21 Q223 -21 138.5 36.5 Q54 94 54 207 Q54 230 58.5 259.5 Q63 289 74 335 L160 706 L259 706 L171 326 Q162 288 158.5 264 Q155 240 155 221 Q155 66 400 66 Q478 66 535.5 84 Q593 102 627 137 Q639 150 649 165.5 Q659 181 667.5 202.5 Q676 224 684.5 254.5 Q693 285 703 327 L790 706 L889 706 L796 302 Z " />
<glyph glyph-name="Ucircumflex" unicode="&#xdb;" horiz-adv-x="888" d="M607 753 L538 822 L444 752 L358 752 L487 877 L594 877 L682 753 L607 753 Z M796 302 Q777 216 755 165 Q733 114 701 78 Q613 -21 389 -21 Q223 -21 138.5 36.5 Q54 94 54 207 Q54 230 58.5 259.5 Q63 289 74 335 L160 706 L259 706 L171 326 Q162 288 158.5 264 Q155 240 155 221 Q155 66 400 66 Q478 66 535.5 84 Q593 102 627 137 Q639 150 649 165.5 Q659 181 667.5 202.5 Q676 224 684.5 254.5 Q693 285 703 327 L790 706 L889 706 L796 302 Z " />
<glyph glyph-name="Udieresis" unicode="&#xdc;" horiz-adv-x="888" d="M707 774 L609 774 L627 877 L725 877 L707 774 Z M444 774 L347 774 L365 877 L462 877 L444 774 Z M796 302 Q777 216 755 165 Q733 114 701 78 Q613 -21 389 -21 Q223 -21 138.5 36.5 Q54 94 54 207 Q54 230 58.5 259.5 Q63 289 74 335 L160 706 L259 706 L171 326 Q162 288 158.5 264 Q155 240 155 221 Q155 66 400 66 Q478 66 535.5 84 Q593 102 627 137 Q639 150 649 165.5 Q659 181 667.5 202.5 Q676 224 684.5 254.5 Q693 285 703 327 L790 706 L889 706 L796 302 Z " />
<glyph glyph-name="Yacute" unicode="&#xdd;" horiz-adv-x="768" d="M461 753 L396 753 L483 878 L610 878 L461 753 Z M417 277 L353 0 L254 0 L319 277 L83 706 L203 706 L382 371 L713 706 L841 706 L417 277 Z " />
<glyph glyph-name="Thorn" unicode="&#xde;" horiz-adv-x="804" d="M798 385 Q798 345 783.5 306 Q769 267 744 238 Q722 213 694.5 197 Q667 181 629 172 Q612 168 595.5 165 Q579 162 560 160.5 Q541 159 517.5 158.5 Q494 158 461 158 L139 158 L102 0 L0 0 L163 706 L265 706 L233 569 L515 569 Q540 569 561 568.5 Q582 568 599 568 Q652 566 685.5 556 Q719 546 745 523 Q770 500 784 464 Q798 428 798 385 Z M697 380 Q697 426 673 451 Q666 459 657 464.5 Q648 470 638 473 Q613 482 585 482 L213 482 L158 244 L479 244 Q516 244 542.5 245.5 Q569 247 588.5 250.5 Q608 254 622.5 259.5 Q637 265 649 274 Q672 291 684.5 319 Q697 347 697 380 Z " />
<glyph glyph-name="germandbls" unicode="&#xdf;" horiz-adv-x="729" d="M688 573 Q688 514 655 477.5 Q622 441 562 433 Q615 416 638.5 383.5 Q662 351 662 295 Q662 247 649 195 Q636 143 615 104 Q584 48 524.5 19 Q465 -10 384 -10 Q290 -10 241 20 Q192 50 192 109 Q192 120 193 131.5 Q194 143 197 161 L291 161 Q289 148 288 141.5 Q287 135 287 129 Q287 62 391 62 Q453 62 493 94 Q515 112 528 136 Q545 168 555.5 209.5 Q566 251 566 285 Q566 307 562 320 Q558 333 547 346 Q534 362 517 369 Q507 374 497.5 377 Q488 380 474.5 381.5 Q461 383 441 383.5 Q421 384 391 384 L333 384 L350 457 L409 457 Q461 457 482 460 Q498 462 517.5 469 Q537 476 551 485 Q568 496 578 516 Q588 536 588 560 Q588 645 424 645 Q367 645 327 636 Q287 627 267 610 Q246 593 231.5 560.5 Q217 528 203 471 L94 0 L-2 0 L110 485 Q113 499 117 514 Q121 529 126 545 Q140 591 154.5 616 Q169 641 195 662 Q233 692 286 706.5 Q339 721 415 721 Q688 721 688 573 Z " />
<glyph glyph-name="agrave" unicode="&#xe0;" horiz-adv-x="682" d="M352 551 L240 688 L360 688 L416 551 L352 551 Z M604 0 Q567 -6 530 -6 Q444 -6 444 70 Q399 24 343.5 3 Q288 -18 209 -18 Q107 -18 53.5 19.5 Q0 57 0 129 Q0 180 28.5 220 Q57 260 105 277 Q149 291 220 297 Q233 298 244 299 Q255 300 267 300.5 Q279 301 293.5 301 Q308 301 328 301 L496 301 Q500 319 501 328.5 Q502 338 502 349 Q502 377 490 393 Q460 429 349 429 Q272 429 227 406 Q211 398 202 389 Q193 380 179 360 L82 376 Q137 501 361 501 Q482 501 538 470.5 Q594 440 594 375 Q594 357 590.5 333 Q587 309 579 276 L544 128 Q542 121 541 113 Q540 105 540 99 Q540 79 551 71 Q562 63 588 63 Q596 63 602.5 63.5 Q609 64 620 66 L604 0 Z M301 228 Q226 228 188.5 223 Q151 218 128 204 Q111 194 101 176.5 Q91 159 91 137 Q91 54 232 54 Q328 54 392 98.5 Q456 143 480 228 L301 228 Z " />
<glyph glyph-name="aacute" unicode="&#xe1;" horiz-adv-x="682" d="M371 552 L305 552 L392 689 L518 689 L371 552 Z M604 1 Q567 -5 530 -5 Q444 -5 444 71 Q399 25 343.5 4 Q288 -17 209 -17 Q107 -17 53.5 20.5 Q0 58 0 130 Q0 181 28.5 221 Q57 261 105 278 Q149 292 220 298 Q233 299 244 300 Q255 301 267 301.5 Q279 302 293.5 302 Q308 302 328 302 L496 302 Q500 320 501 329.5 Q502 339 502 350 Q502 378 490 394 Q460 430 349 430 Q272 430 227 407 Q211 399 202 390 Q193 381 179 361 L82 377 Q137 502 361 502 Q482 502 538 471.5 Q594 441 594 376 Q594 358 590.5 334 Q587 310 579 277 L544 129 Q542 122 541 114 Q540 106 540 100 Q540 80 551 72 Q562 64 588 64 Q596 64 602.5 64.5 Q609 65 620 67 L604 1 Z M301 229 Q226 229 188.5 224 Q151 219 128 205 Q111 195 101 177.5 Q91 160 91 138 Q91 55 232 55 Q328 55 392 99.5 Q456 144 480 229 L301 229 Z " />
<glyph glyph-name="acircumflex" unicode="&#xe2;" horiz-adv-x="682" d="M457 552 L393 628 L299 551 L210 551 L348 689 L455 689 L532 552 L457 552 Z M604 0 Q567 -6 530 -6 Q444 -6 444 70 Q399 24 343.5 3 Q288 -18 209 -18 Q107 -18 53.5 19.5 Q0 57 0 129 Q0 180 28.5 220 Q57 260 105 277 Q149 291 220 297 Q233 298 244 299 Q255 300 267 300.5 Q279 301 293.5 301 Q308 301 328 301 L496 301 Q500 319 501 328.5 Q502 338 502 349 Q502 377 490 393 Q460 429 349 429 Q272 429 227 406 Q211 398 202 389 Q193 380 179 360 L82 376 Q137 501 361 501 Q482 501 538 470.5 Q594 440 594 375 Q594 357 590.5 333 Q587 309 579 276 L544 128 Q542 121 541 113 Q540 105 540 99 Q540 79 551 71 Q562 63 588 63 Q596 63 602.5 63.5 Q609 64 620 66 L604 0 Z M301 228 Q226 228 188.5 223 Q151 218 128 204 Q111 194 101 176.5 Q91 159 91 137 Q91 54 232 54 Q328 54 392 98.5 Q456 143 480 228 L301 228 Z " />
<glyph glyph-name="atilde" unicode="&#xe3;" horiz-adv-x="682" d="M542 610 Q520 594 507.5 586 Q495 578 477 569 Q460 561 447.5 558 Q435 555 421 555 Q407 555 389.5 558 Q372 561 361 566 L312 588 Q295 596 276 596 Q263 596 251 593 Q236 589 224.5 582.5 Q213 576 190 559 L162 603 Q185 621 195.5 628.5 Q206 636 223 645 Q258 664 292 664 Q308 664 320 660.5 Q332 657 357 645 Q381 633 400 627.5 Q419 622 433 622 Q446 622 459 625 Q473 629 481 632.5 Q489 636 506 648 L515 654 L542 610 Z M604 0 Q567 -6 530 -6 Q444 -6 444 70 Q399 24 343.5 3 Q288 -18 209 -18 Q107 -18 53.5 19.5 Q0 57 0 129 Q0 180 28.5 220 Q57 260 105 277 Q149 291 220 297 Q233 298 244 299 Q255 300 267 300.5 Q279 301 293.5 301 Q308 301 328 301 L496 301 Q500 319 501 328.5 Q502 338 502 349 Q502 377 490 393 Q460 429 349 429 Q272 429 227 406 Q211 398 202 389 Q193 380 179 360 L82 376 Q137 501 361 501 Q482 501 538 470.5 Q594 440 594 375 Q594 357 590.5 333 Q587 309 579 276 L544 128 Q542 121 541 113 Q540 105 540 99 Q540 79 551 71 Q562 63 588 63 Q596 63 602.5 63.5 Q609 64 620 66 L604 0 Z M301 228 Q226 228 188.5 223 Q151 218 128 204 Q111 194 101 176.5 Q91 159 91 137 Q91 54 232 54 Q328 54 392 98.5 Q456 143 480 228 L301 228 Z " />
<glyph glyph-name="adieresis" unicode="&#xe4;" horiz-adv-x="682" d="M550 568 L453 568 L477 671 L574 671 L550 568 Z M287 567 L190 567 L214 671 L311 671 L287 567 Z M604 0 Q567 -6 530 -6 Q444 -6 444 70 Q399 24 343.5 3 Q288 -18 209 -18 Q107 -18 53.5 19.5 Q0 57 0 129 Q0 180 28.5 220 Q57 260 105 277 Q149 291 220 297 Q233 298 244 299 Q255 300 267 300.5 Q279 301 293.5 301 Q308 301 328 301 L496 301 Q500 319 501 328.5 Q502 338 502 349 Q502 377 490 393 Q460 429 349 429 Q272 429 227 406 Q211 398 202 389 Q193 380 179 360 L82 376 Q137 501 361 501 Q482 501 538 470.5 Q594 440 594 375 Q594 357 590.5 333 Q587 309 579 276 L544 128 Q542 121 541 113 Q540 105 540 99 Q540 79 551 71 Q562 63 588 63 Q596 63 602.5 63.5 Q609 64 620 66 L604 0 Z M301 228 Q226 228 188.5 223 Q151 218 128 204 Q111 194 101 176.5 Q91 159 91 137 Q91 54 232 54 Q328 54 392 98.5 Q456 143 480 228 L301 228 Z " />
<glyph glyph-name="aring" unicode="&#xe5;" horiz-adv-x="682" d="M494 644 Q494 601 462 574.5 Q430 548 378 548 Q326 548 293.5 575 Q261 602 261 644 Q261 686 294 712 Q327 738 380 738 Q431 738 462.5 712 Q494 686 494 644 Z M604 0 Q567 -6 530 -6 Q444 -6 444 70 Q399 24 343.5 3 Q288 -18 209 -18 Q107 -18 53.5 19.5 Q0 57 0 129 Q0 180 28.5 220 Q57 260 105 277 Q149 291 220 297 Q233 298 244 299 Q255 300 267 300.5 Q279 301 293.5 301 Q308 301 328 301 L496 301 Q500 319 501 328.5 Q502 338 502 349 Q502 377 490 393 Q460 429 349 429 Q272 429 227 406 Q211 398 202 389 Q193 380 179 360 L82 376 Q137 501 361 501 Q482 501 538 470.5 Q594 440 594 375 Q594 357 590.5 333 Q587 309 579 276 L544 128 Q542 121 541 113 Q540 105 540 99 Q540 79 551 71 Q562 63 588 63 Q596 63 602.5 63.5 Q609 64 620 66 L604 0 Z M433 644 Q433 664 417 677.5 Q401 691 376 691 Q352 691 336.5 677.5 Q321 664 321 643 Q321 623 337.5 609.5 Q354 596 379 596 Q402 596 417.5 609.5 Q433 623 433 644 Z M301 228 Q226 228 188.5 223 Q151 218 128 204 Q111 194 101 176.5 Q91 159 91 137 Q91 54 232 54 Q328 54 392 98.5 Q456 143 480 228 L301 228 Z " />
<glyph glyph-name="ae" unicode="&#xe6;" horiz-adv-x="1143" d="M1068 257 Q1068 252 1068 244.5 Q1068 237 1067 227 L572 227 Q571 221 571 216 Q571 211 571 206 Q571 141 622 102.5 Q673 64 758 64 Q899 64 967 165 L1049 137 Q958 -15 752 -15 Q661 -15 601.5 13.5 Q542 42 503 105 Q449 40 381 10.5 Q313 -19 218 -19 Q0 -19 0 129 Q0 180 28.5 220 Q57 260 105 277 Q149 291 220 297 Q233 298 244 299 Q255 300 267 300.5 Q279 301 293.5 301 Q308 301 328 301 L496 301 Q500 319 501 328.5 Q502 338 502 349 Q502 377 490 393 Q460 429 349 429 Q272 429 227 406 Q211 398 202 389 Q193 380 179 360 L82 376 Q110 439 179 470 Q248 501 363 501 Q477 501 535 468 Q548 460 556.5 452 Q565 444 577 427 Q603 447 627.5 460.5 Q652 474 678 482.5 Q704 491 732 495 Q760 499 794 499 Q923 499 995.5 435 Q1068 371 1068 257 Z M969 295 Q961 358 915 391 Q869 424 789 424 Q714 424 660 390 Q606 356 586 295 L969 295 Z M301 228 Q226 228 188.5 223 Q151 218 128 204 Q111 194 101 176.5 Q91 159 91 137 Q91 54 232 54 Q328 54 392 98.5 Q456 143 480 228 L301 228 Z " />
<glyph glyph-name="ccedilla" unicode="&#xe7;" horiz-adv-x="665" d="M539 320 Q528 340 521 349 Q514 358 503 369 Q476 395 435 408.5 Q394 422 343 422 Q292 422 251 408 Q210 394 180.5 368.5 Q151 343 135 306.5 Q119 270 119 226 Q119 152 171 108 Q223 64 311 64 Q358 64 400 77.5 Q442 91 473 114 Q490 128 501 139.5 Q512 151 529 177 L618 149 Q606 131 596.5 118 Q587 105 577.5 94.5 Q568 84 557 74.5 Q546 65 531 54 Q489 23 443.5 7 Q398 -9 334 -14 L312 -49 Q360 -54 380 -69 Q400 -84 400 -115 Q400 -162 360 -189.5 Q320 -217 253 -217 Q230 -217 207.5 -214 Q185 -211 155 -203 L182 -157 Q208 -165 220.5 -167 Q233 -169 249 -169 Q279 -169 296 -158 Q313 -147 313 -127 Q313 -93 243 -93 L229 -93 L278 -13 Q155 -5 88.5 54.5 Q22 114 22 217 Q22 280 46 332 Q70 384 113 421.5 Q156 459 216 479.5 Q276 500 348 500 Q403 500 451.5 487.5 Q500 475 538 452 Q571 432 593.5 405 Q616 378 633 339 L539 320 Z " />
<glyph glyph-name="egrave" unicode="&#xe8;" horiz-adv-x="685" d="M332 551 L220 688 L340 688 L396 551 L332 551 Z M610 256 Q610 251 610 243.5 Q610 236 609 226 L114 226 Q114 220 113.5 215 Q113 210 113 205 Q113 140 164 101.5 Q215 63 301 63 Q440 63 510 165 L592 136 Q500 -15 294 -15 Q230 -15 179.5 0.5 Q129 16 93.5 45.5 Q58 75 39 117 Q20 159 20 212 Q20 275 43.5 327.5 Q67 380 109.5 418.5 Q152 457 210.5 478 Q269 499 339 499 Q402 499 452 482.5 Q502 466 537.5 434.5 Q573 403 591.5 358 Q610 313 610 256 Z M512 294 Q503 357 457 390.5 Q411 424 332 424 Q257 424 203 389.5 Q149 355 129 294 L512 294 Z " />
<glyph glyph-name="eacute" unicode="&#xe9;" horiz-adv-x="685" d="M342 551 L276 551 L363 688 L489 688 L342 551 Z M610 256 Q610 251 610 243.5 Q610 236 609 226 L114 226 Q114 220 113.5 215 Q113 210 113 205 Q113 140 164 101.5 Q215 63 301 63 Q440 63 510 165 L592 136 Q500 -15 294 -15 Q230 -15 179.5 0.5 Q129 16 93.5 45.5 Q58 75 39 117 Q20 159 20 212 Q20 275 43.5 327.5 Q67 380 109.5 418.5 Q152 457 210.5 478 Q269 499 339 499 Q402 499 452 482.5 Q502 466 537.5 434.5 Q573 403 591.5 358 Q610 313 610 256 Z M512 294 Q503 357 457 390.5 Q411 424 332 424 Q257 424 203 389.5 Q149 355 129 294 L512 294 Z " />
<glyph glyph-name="ecircumflex" unicode="&#xea;" horiz-adv-x="685" d="M420 552 L356 628 L262 551 L173 551 L311 689 L418 689 L495 552 L420 552 Z M610 256 Q610 251 610 243.5 Q610 236 609 226 L114 226 Q114 220 113.5 215 Q113 210 113 205 Q113 140 164 101.5 Q215 63 301 63 Q440 63 510 165 L592 136 Q500 -15 294 -15 Q230 -15 179.5 0.5 Q129 16 93.5 45.5 Q58 75 39 117 Q20 159 20 212 Q20 275 43.5 327.5 Q67 380 109.5 418.5 Q152 457 210.5 478 Q269 499 339 499 Q402 499 452 482.5 Q502 466 537.5 434.5 Q573 403 591.5 358 Q610 313 610 256 Z M512 294 Q503 357 457 390.5 Q411 424 332 424 Q257 424 203 389.5 Q149 355 129 294 L512 294 Z " />
<glyph glyph-name="edieresis" unicode="&#xeb;" horiz-adv-x="685" d="M524 568 L427 568 L451 671 L548 671 L524 568 Z M261 567 L164 567 L188 671 L285 671 L261 567 Z M610 256 Q610 251 610 243.5 Q610 236 609 226 L114 226 Q114 220 113.5 215 Q113 210 113 205 Q113 140 164 101.5 Q215 63 301 63 Q440 63 510 165 L592 136 Q500 -15 294 -15 Q230 -15 179.5 0.5 Q129 16 93.5 45.5 Q58 75 39 117 Q20 159 20 212 Q20 275 43.5 327.5 Q67 380 109.5 418.5 Q152 457 210.5 478 Q269 499 339 499 Q402 499 452 482.5 Q502 466 537.5 434.5 Q573 403 591.5 358 Q610 313 610 256 Z M512 294 Q503 357 457 390.5 Q411 424 332 424 Q257 424 203 389.5 Q149 355 129 294 L512 294 Z " />
<glyph glyph-name="igrave" unicode="&#xec;" horiz-adv-x="250" d="M162 551 L50 688 L170 688 L226 551 L162 551 Z M92 0 L-3 0 L108 482 L203 482 L92 0 Z " />
<glyph glyph-name="iacute" unicode="&#xed;" horiz-adv-x="250" d="M176 551 L110 551 L197 688 L323 688 L176 551 Z M92 0 L-3 0 L108 482 L203 482 L92 0 Z " />
<glyph glyph-name="icircumflex" unicode="&#xee;" horiz-adv-x="250" d="M248 551 L184 627 L90 550 L1 550 L139 688 L246 688 L323 551 L248 551 Z M92 0 L-3 0 L108 482 L203 482 L92 0 Z " />
<glyph glyph-name="idieresis" unicode="&#xef;" horiz-adv-x="250" d="M346 567 L249 567 L273 670 L370 670 L346 567 Z M83 566 L-14 566 L10 670 L107 670 L83 566 Z M92 0 L-3 0 L108 482 L203 482 L92 0 Z " />
<glyph glyph-name="eth" unicode="&#xf0;" horiz-adv-x="729" d="M536 588 Q595 517 625 439.5 Q655 362 655 283 Q655 214 632 158.5 Q609 103 565.5 64.5 Q522 26 459.5 5.5 Q397 -15 319 -15 Q176 -15 96 44.5 Q16 104 16 210 Q16 275 39 327 Q62 379 105.5 415.5 Q149 452 211 471.5 Q273 491 351 491 Q409 491 448.5 480.5 Q488 470 528 444 Q520 464 514 474.5 Q508 485 495 505 Q488 517 482 525.5 Q476 534 470.5 541.5 Q465 549 458 557 Q451 565 442 575 L243 546 L225 599 L393 623 Q383 633 375 640.5 Q367 648 358.5 655 Q350 662 340.5 669.5 Q331 677 318 687 L304 698 L402 713 Q434 689 453.5 672.5 Q473 656 491 636 L638 657 L656 604 L536 588 Z M560 259 Q560 337 506.5 378 Q453 419 352 419 Q298 419 254 405 Q210 391 178.5 365.5 Q147 340 130 303.5 Q113 267 113 223 Q113 148 167.5 105.5 Q222 63 321 63 Q425 63 488.5 110.5 Q552 158 559 241 Q560 246 560 250 Q560 254 560 259 Z " />
<glyph glyph-name="ntilde" unicode="&#xf1;" horiz-adv-x="727" d="M591 610 Q569 594 556.5 586 Q544 578 526 569 Q509 561 496.5 558 Q484 555 470 555 Q456 555 438.5 558 Q421 561 410 566 L361 588 Q344 596 325 596 Q312 596 300 593 Q285 589 273.5 582.5 Q262 576 239 559 L211 603 Q234 621 244.5 628.5 Q255 636 272 645 Q307 664 341 664 Q357 664 369 660.5 Q381 657 406 645 Q430 633 449 627.5 Q468 622 482 622 Q495 622 508 625 Q522 629 530 632.5 Q538 636 555 648 L564 654 L591 610 Z M633 315 Q633 297 629.5 275.5 Q626 254 620 227 L567 0 L473 0 L527 234 Q532 253 534.5 272.5 Q537 292 537 308 Q537 362 496 389.5 Q455 417 375 417 Q327 417 283.5 402 Q240 387 210 361 Q185 339 171 311 Q157 283 144 228 L91 0 L-3 0 L108 482 L203 482 L189 424 Q276 498 406 498 Q516 498 574.5 451 Q633 404 633 315 Z " />
<glyph glyph-name="ograve" unicode="&#xf2;" horiz-adv-x="729" d="M363 551 L251 688 L371 688 L427 551 L363 551 Z M656 271 Q656 263 655.5 256 Q655 249 654 241 Q639 120 551 52.5 Q463 -15 318 -15 Q247 -15 191 0.5 Q135 16 96 45 Q57 74 36.5 115.5 Q16 157 16 210 Q16 275 41 327.5 Q66 380 111 418 Q156 456 219.5 476.5 Q283 497 360 497 Q429 497 483.5 481.5 Q538 466 576.5 436.5 Q615 407 635.5 365.5 Q656 324 656 271 Z M560 259 Q560 337 506.5 378 Q453 419 352 419 Q298 419 254 405 Q210 391 178.5 365.5 Q147 340 130 303.5 Q113 267 113 223 Q113 148 167.5 105.5 Q222 63 321 63 Q425 63 488.5 110.5 Q552 158 559 241 Q560 246 560 250 Q560 254 560 259 Z " />
<glyph glyph-name="oacute" unicode="&#xf3;" horiz-adv-x="729" d="M384 551 L318 551 L405 688 L531 688 L384 551 Z M656 271 Q656 263 655.5 256 Q655 249 654 241 Q639 120 551 52.5 Q463 -15 318 -15 Q247 -15 191 0.5 Q135 16 96 45 Q57 74 36.5 115.5 Q16 157 16 210 Q16 275 41 327.5 Q66 380 111 418 Q156 456 219.5 476.5 Q283 497 360 497 Q429 497 483.5 481.5 Q538 466 576.5 436.5 Q615 407 635.5 365.5 Q656 324 656 271 Z M560 259 Q560 337 506.5 378 Q453 419 352 419 Q298 419 254 405 Q210 391 178.5 365.5 Q147 340 130 303.5 Q113 267 113 223 Q113 148 167.5 105.5 Q222 63 321 63 Q425 63 488.5 110.5 Q552 158 559 241 Q560 246 560 250 Q560 254 560 259 Z " />
<glyph glyph-name="ocircumflex" unicode="&#xf4;" horiz-adv-x="729" d="M450 552 L386 628 L292 551 L203 551 L341 689 L448 689 L525 552 L450 552 Z M656 271 Q656 263 655.5 256 Q655 249 654 241 Q639 120 551 52.5 Q463 -15 318 -15 Q247 -15 191 0.5 Q135 16 96 45 Q57 74 36.5 115.5 Q16 157 16 210 Q16 275 41 327.5 Q66 380 111 418 Q156 456 219.5 476.5 Q283 497 360 497 Q429 497 483.5 481.5 Q538 466 576.5 436.5 Q615 407 635.5 365.5 Q656 324 656 271 Z M560 259 Q560 337 506.5 378 Q453 419 352 419 Q298 419 254 405 Q210 391 178.5 365.5 Q147 340 130 303.5 Q113 267 113 223 Q113 148 167.5 105.5 Q222 63 321 63 Q425 63 488.5 110.5 Q552 158 559 241 Q560 246 560 250 Q560 254 560 259 Z " />
<glyph glyph-name="otilde" unicode="&#xf5;" horiz-adv-x="729" d="M561 611 Q539 595 526.5 587 Q514 579 496 570 Q479 562 466.5 559 Q454 556 440 556 Q426 556 408.5 559 Q391 562 380 567 L331 589 Q314 597 295 597 Q282 597 270 594 Q255 590 243.5 583.5 Q232 577 209 560 L181 604 Q204 622 214.5 629.5 Q225 637 242 646 Q277 665 311 665 Q327 665 339 661.5 Q351 658 376 646 Q400 634 419 628.5 Q438 623 452 623 Q465 623 478 626 Q492 630 499 634 Q506 638 524 649 Q526 650 528 651 Q532 654 534 655 L561 611 Z M656 271 Q656 263 655.5 256 Q655 249 654 241 Q639 120 551 52.5 Q463 -15 318 -15 Q247 -15 191 0.5 Q135 16 96 45 Q57 74 36.5 115.5 Q16 157 16 210 Q16 275 41 327.5 Q66 380 111 418 Q156 456 219.5 476.5 Q283 497 360 497 Q429 497 483.5 481.5 Q538 466 576.5 436.5 Q615 407 635.5 365.5 Q656 324 656 271 Z M560 259 Q560 337 506.5 378 Q453 419 352 419 Q298 419 254 405 Q210 391 178.5 365.5 Q147 340 130 303.5 Q113 267 113 223 Q113 148 167.5 105.5 Q222 63 321 63 Q425 63 488.5 110.5 Q552 158 559 241 Q560 246 560 250 Q560 254 560 259 Z " />
<glyph glyph-name="odieresis" unicode="&#xf6;" horiz-adv-x="729" d="M550 568 L453 568 L477 671 L574 671 L550 568 Z M287 567 L190 567 L214 671 L311 671 L287 567 Z M656 271 Q656 263 655.5 256 Q655 249 654 241 Q639 120 551 52.5 Q463 -15 318 -15 Q247 -15 191 0.5 Q135 16 96 45 Q57 74 36.5 115.5 Q16 157 16 210 Q16 275 41 327.5 Q66 380 111 418 Q156 456 219.5 476.5 Q283 497 360 497 Q429 497 483.5 481.5 Q538 466 576.5 436.5 Q615 407 635.5 365.5 Q656 324 656 271 Z M560 259 Q560 337 506.5 378 Q453 419 352 419 Q298 419 254 405 Q210 391 178.5 365.5 Q147 340 130 303.5 Q113 267 113 223 Q113 148 167.5 105.5 Q222 63 321 63 Q425 63 488.5 110.5 Q552 158 559 241 Q560 246 560 250 Q560 254 560 259 Z " />
<glyph glyph-name="divide" unicode="&#xf7;" horiz-adv-x="772" d="M451 403 L344 403 L368 509 L475 509 L451 403 Z M678 254 L49 254 L69 338 L698 338 L678 254 Z M378 80 L271 80 L295 186 L402 186 L378 80 Z " />
<glyph glyph-name="oslash" unicode="&#xf8;" horiz-adv-x="729" d="M630 377 Q644 349 649.5 325 Q655 301 655 272 Q655 205 627 147 Q588 67 509.5 26 Q431 -15 316 -15 Q241 -15 185.5 2 Q130 19 85 54 L11 10 L-25 71 L41 109 Q28 132 22.5 156.5 Q17 181 17 212 Q17 276 42 328.5 Q67 381 112 418.5 Q157 456 220 476.5 Q283 497 360 497 Q501 497 584 430 L653 469 L686 412 L630 377 Z M502 381 Q441 419 350 419 Q297 419 253.5 405 Q210 391 178.5 365 Q147 339 130 303 Q113 267 113 223 Q113 203 115 191 Q117 179 125 159 L502 381 Z M560 262 Q560 281 557 295.5 Q554 310 547 328 L170 105 Q198 85 238 74 Q278 63 324 63 Q378 63 421.5 77 Q465 91 496 117 Q527 143 543.5 180 Q560 217 560 262 Z " />
<glyph glyph-name="ugrave" unicode="&#xf9;" horiz-adv-x="729" d="M391 551 L279 688 L399 688 L455 551 L391 551 Z M569 0 L474 0 L487 59 Q442 21 390.5 3 Q339 -15 273 -15 Q162 -15 103 31 Q44 77 44 163 Q44 183 47.5 207 Q51 231 56 255 L109 482 L203 482 L149 248 Q140 211 140 179 Q140 153 145.5 137.5 Q151 122 165 108 Q207 66 302 66 Q350 66 393.5 80.5 Q437 95 467 121 Q492 143 506 171.5 Q520 200 533 255 L585 482 L680 482 L569 0 Z " />
<glyph glyph-name="uacute" unicode="&#xfa;" horiz-adv-x="729" d="M409 551 L343 551 L430 688 L556 688 L409 551 Z M569 0 L474 0 L487 59 Q442 21 390.5 3 Q339 -15 273 -15 Q162 -15 103 31 Q44 77 44 163 Q44 183 47.5 207 Q51 231 56 255 L109 482 L203 482 L149 248 Q140 211 140 179 Q140 153 145.5 137.5 Q151 122 165 108 Q207 66 302 66 Q350 66 393.5 80.5 Q437 95 467 121 Q492 143 506 171.5 Q520 200 533 255 L585 482 L680 482 L569 0 Z " />
<glyph glyph-name="ucircumflex" unicode="&#xfb;" horiz-adv-x="729" d="M483 552 L419 628 L325 551 L236 551 L374 689 L481 689 L558 552 L483 552 Z M569 0 L474 0 L487 59 Q442 21 390.5 3 Q339 -15 273 -15 Q162 -15 103 31 Q44 77 44 163 Q44 183 47.5 207 Q51 231 56 255 L109 482 L203 482 L149 248 Q140 211 140 179 Q140 153 145.5 137.5 Q151 122 165 108 Q207 66 302 66 Q350 66 393.5 80.5 Q437 95 467 121 Q492 143 506 171.5 Q520 200 533 255 L585 482 L680 482 L569 0 Z " />
<glyph glyph-name="udieresis" unicode="&#xfc;" horiz-adv-x="729" d="M581 568 L484 568 L508 671 L605 671 L581 568 Z M318 567 L221 567 L245 671 L342 671 L318 567 Z M569 0 L474 0 L487 59 Q442 21 390.5 3 Q339 -15 273 -15 Q162 -15 103 31 Q44 77 44 163 Q44 183 47.5 207 Q51 231 56 255 L109 482 L203 482 L149 248 Q140 211 140 179 Q140 153 145.5 137.5 Q151 122 165 108 Q207 66 302 66 Q350 66 393.5 80.5 Q437 95 467 121 Q492 143 506 171.5 Q520 200 533 255 L585 482 L680 482 L569 0 Z " />
<glyph glyph-name="yacute" unicode="&#xfd;" horiz-adv-x="581" d="M336 551 L270 551 L357 688 L483 688 L336 551 Z M220 -101 Q188 -149 143 -174 Q121 -185 95.5 -190 Q70 -195 33 -195 Q4 -195 -22.5 -192.5 Q-49 -190 -92 -183 L-73 -98 Q-38 -106 -14.5 -109.5 Q9 -113 29 -113 Q84 -113 116 -87 Q123 -82 128 -76.5 Q133 -71 139 -64 Q145 -57 152.5 -46.5 Q160 -36 170 -20 L42 482 L144 482 L238 68 L507 482 L615 482 L220 -101 Z " />
<glyph glyph-name="thorn" unicode="&#xfe;" horiz-adv-x="737" d="M668 270 Q668 208 644 155.5 Q620 103 576.5 65.5 Q533 28 473 7 Q413 -14 342 -14 Q261 -14 205.5 8.5 Q150 31 114 79 L49 -195 L-48 -195 L160 706 L257 706 L192 428 Q205 439 215 447 Q225 455 234.5 460.5 Q244 466 254.5 470.5 Q265 475 279 480 Q337 500 401 500 Q463 500 512 484 Q561 468 596 438 Q631 408 649.5 365.5 Q668 323 668 270 Z M572 263 Q572 334 522.5 377.5 Q473 421 387 421 Q339 421 296 410 Q253 399 220.5 374.5 Q188 350 169 312 Q150 274 150 220 Q150 145 200 104 Q250 63 343 63 Q395 63 437.5 77 Q480 91 510 117.5 Q540 144 556 181 Q572 218 572 263 Z " />
<glyph glyph-name="ydieresis" unicode="&#xff;" horiz-adv-x="581" d="M512 568 L415 568 L439 671 L536 671 L512 568 Z M249 567 L152 567 L176 671 L273 671 L249 567 Z M220 -101 Q188 -149 143 -174 Q121 -185 95.5 -190 Q70 -195 33 -195 Q4 -195 -22.5 -192.5 Q-49 -190 -92 -183 L-73 -98 Q-38 -106 -14.5 -109.5 Q9 -113 29 -113 Q84 -113 116 -87 Q123 -82 128 -76.5 Q133 -71 139 -64 Q145 -57 152.5 -46.5 Q160 -36 170 -20 L42 482 L144 482 L238 68 L507 482 L615 482 L220 -101 Z " />
<glyph glyph-name="dotlessi" unicode="&#x131;" horiz-adv-x="250" d="M92 0 L-3 0 L108 482 L203 482 L92 0 Z " />
<glyph glyph-name="Lslash" unicode="&#x141;" horiz-adv-x="646" d="M569 0 L0 0 L54 233 L-42 187 L-26 259 L70 305 L163 706 L263 706 L182 359 L528 524 L512 453 L166 287 L120 86 L589 86 L569 0 Z " />
<glyph glyph-name="lslash" unicode="&#x142;" horiz-adv-x="250" d="M270 439 L181 386 L92 0 L-2 0 L72 319 L-16 266 L1 339 L89 393 L161 706 L255 706 L198 459 L287 513 L270 439 Z " />
<glyph glyph-name="OE" unicode="&#x152;" horiz-adv-x="1176" d="M1180 618 L743 618 L694 404 L1122 404 L1103 322 L675 322 L620 87 L1089 87 L1069 0 L506 0 Q473 -6 444 -8.5 Q415 -11 383 -11 Q304 -11 241 10 Q178 31 134.5 70 Q91 109 68 165.5 Q45 222 45 294 Q45 349 59 404.5 Q73 460 98 506 Q155 611 259 664.5 Q363 718 509 718 Q526 718 540 717.5 Q554 717 569 716 Q584 715 600.5 713 Q617 711 639 708 L654 706 L1201 706 L1180 618 Z M647 619 Q622 625 608 628 Q594 631 572 634 Q526 640 490 640 Q414 640 350.5 615 Q287 590 242 545 Q197 500 172 436.5 Q147 373 147 296 Q147 189 210.5 129.5 Q274 70 389 70 Q401 70 413.5 70.5 Q426 71 440 72 Q466 74 481.5 77 Q497 80 524 87 L647 619 Z " />
<glyph glyph-name="oe" unicode="&#x153;" horiz-adv-x="1218" d="M1143 257 Q1143 252 1143 244.5 Q1143 237 1142 227 L647 227 Q647 221 646.5 216 Q646 211 646 206 Q646 141 697 102.5 Q748 64 834 64 Q973 64 1043 166 L1124 137 Q1033 -14 827 -14 Q743 -14 686 10.5 Q629 35 587 89 Q536 35 472 10.5 Q408 -14 317 -14 Q246 -14 190 1.5 Q134 17 95 46 Q56 75 35.5 116.5 Q15 158 15 211 Q15 276 40 328.5 Q65 381 110 419 Q155 457 218.5 477.5 Q282 498 360 498 Q536 498 618 394 Q624 401 628.5 405.5 Q633 410 636 413 Q680 455 740 477.5 Q800 500 872 500 Q935 500 985 483.5 Q1035 467 1070.5 435.5 Q1106 404 1124.5 359 Q1143 314 1143 257 Z M1045 295 Q1036 358 990 391.5 Q944 425 865 425 Q790 425 735.5 390.5 Q681 356 661 295 L1045 295 Z M559 260 Q559 338 505.5 379 Q452 420 351 420 Q297 420 253 406 Q209 392 177.5 366.5 Q146 341 129 304.5 Q112 268 112 224 Q112 149 166.5 107 Q221 65 319 65 Q424 65 487.5 112 Q551 159 558 242 Q558 247 558.5 251 Q559 255 559 260 Z " />
<glyph glyph-name="Scaron" unicode="&#x160;" horiz-adv-x="812" d="M504 752 L397 752 L309 876 L385 876 L454 807 L548 877 L633 877 L504 752 Z M689 521 Q662 574 605 600 Q593 606 578.5 611 Q564 616 548 621 Q513 632 487 635.5 Q461 639 426 639 Q323 639 266 609.5 Q209 580 209 527 Q209 486 243 468 Q254 462 269 457 Q284 452 306.5 446 Q329 440 360.5 432.5 Q392 425 437 416 Q478 407 507.5 400.5 Q537 394 559 387.5 Q581 381 598 375 Q615 369 630 362 Q685 336 710 302 Q735 268 735 217 Q735 174 718.5 135.5 Q702 97 671 68 Q626 24 555 3.5 Q484 -17 384 -17 Q357 -17 329.5 -15.5 Q302 -14 276 -10 Q219 -2 177 14 Q135 30 97 58 Q76 73 60.5 87.5 Q45 102 32.5 119 Q20 136 10 156 Q0 176 -9 202 L95 229 Q106 194 121.5 172 Q137 150 162 131 Q242 72 388 72 Q501 72 566.5 107 Q632 142 632 204 Q632 240 609 260 Q600 268 587.5 274 Q575 280 554.5 286 Q534 292 503 299 Q472 306 424 316 Q380 325 347.5 332 Q315 339 290.5 345.5 Q266 352 247 358 Q228 364 212 370 Q161 390 134 426 Q107 462 107 513 Q107 551 124.5 588.5 Q142 626 171 653 Q247 723 426 723 Q563 723 656 679.5 Q749 636 787 554 L689 521 Z " />
<glyph glyph-name="scaron" unicode="&#x161;" horiz-adv-x="651" d="M403 550 L296 550 L218 687 L294 687 L357 611 L452 688 L540 688 L403 550 Z M498 348 Q491 368 480.5 379.5 Q470 391 450 401 Q424 414 388 421 Q352 428 312 428 Q237 428 195.5 409 Q154 390 154 355 Q154 331 179 318 Q195 310 221.5 304.5 Q248 299 299 293 Q365 285 408 278 Q451 271 479 262 Q518 250 540 221.5 Q562 193 562 155 Q562 136 557 117.5 Q552 99 544 84 Q517 33 454 9 Q391 -15 287 -15 Q209 -15 152.5 -2 Q96 11 54 39 Q25 59 9.5 83.5 Q-6 108 -14 147 L92 155 Q102 111 142 91 Q171 76 211 68 Q251 60 296 60 Q372 60 418.5 82.5 Q465 105 465 142 Q465 164 443 178 Q430 186 407.5 191 Q385 196 339 201 L262 210 Q208 216 176.5 223.5 Q145 231 119 244 Q59 273 59 338 Q59 416 129.5 459 Q200 502 328 502 Q403 502 462.5 486.5 Q522 471 555 444 Q565 436 572.5 425.5 Q580 415 587 403 Q593 392 596.5 382.5 Q600 373 603 355 L498 348 Z " />
<glyph glyph-name="Ydieresis" unicode="&#x178;" horiz-adv-x="768" d="M649 774 L551 774 L569 877 L667 877 L649 774 Z M386 774 L289 774 L307 877 L404 877 L386 774 Z M417 277 L353 0 L254 0 L319 277 L83 706 L203 706 L382 371 L713 706 L841 706 L417 277 Z " />
<glyph glyph-name="Zcaron" unicode="&#x17d;" horiz-adv-x="767" d="M503 752 L396 752 L308 876 L384 876 L452 807 L547 877 L632 877 L503 752 Z M802 617 L100 87 L684 87 L665 0 L-65 0 L-46 87 L655 619 L111 619 L129 706 L821 706 L802 617 Z " />
<glyph glyph-name="zcaron" unicode="&#x17e;" horiz-adv-x="594" d="M385 550 L278 550 L200 687 L276 687 L339 611 L434 688 L523 688 L385 550 Z M573 421 L108 77 L505 77 L488 0 L-55 0 L-40 64 L424 407 L70 407 L86 482 L587 482 L573 421 Z " />
<glyph glyph-name="florin" unicode="&#x192;" horiz-adv-x="313" d="M386 611 L375 613 Q358 616 347 618 Q336 620 325 620 Q285 620 264 602 Q251 590 242.5 569.5 Q234 549 225 507 Q223 495 222.5 491.5 Q222 488 220 481 L354 481 L338 416 L204 416 L108 0 Q103 -24 96 -50 Q87 -83 80 -102.5 Q73 -122 62 -139 Q17 -209 -91 -209 Q-108 -209 -124.5 -207.5 Q-141 -206 -168 -202 L-149 -117 Q-128 -122 -116 -124 Q-104 -126 -88 -126 Q-46 -126 -25.5 -107 Q-5 -88 6 -37 L14 0 L111 416 L31 416 L46 481 L127 481 Q129 489 130 494.5 Q131 500 132.5 506 Q134 512 136 520 Q138 528 141 541 Q149 573 154.5 589.5 Q160 606 168 621 Q211 703 327 703 Q344 703 361 701.5 Q378 700 406 696 L386 611 Z " />
<glyph glyph-name="circumflex" unicode="&#x2c6;" horiz-adv-x="292" d="M232 552 L168 628 L74 551 L-15 551 L123 689 L230 689 L307 552 L232 552 Z " />
<glyph glyph-name="caron" unicode="&#x2c7;" horiz-adv-x="292" d="M170 550 L63 550 L-15 687 L61 687 L124 611 L219 688 L307 688 L170 550 Z " />
<glyph glyph-name="breve" unicode="&#x2d8;" horiz-adv-x="292" d="M280 687 Q266 654 257 638 Q248 622 232 606 Q191 565 126 565 Q72 565 42 594 Q12 623 12 674 L12 687 L68 687 Q80 628 137 628 Q166 628 186 642 Q206 656 223 687 L280 687 Z " />
<glyph glyph-name="dotaccent" unicode="&#x2d9;" horiz-adv-x="292" d="M185 567 L83 567 L108 673 L209 673 L185 567 Z " />
<glyph glyph-name="ring" unicode="&#x2da;" horiz-adv-x="292" d="M263 644 Q263 601 231 574.5 Q199 548 147 548 Q95 548 62 575 Q29 602 29 644 Q29 686 62 712 Q95 738 148 738 Q199 738 231 712 Q263 686 263 644 Z M202 644 Q202 664 186 677.5 Q170 691 145 691 Q121 691 105 677.5 Q89 664 89 643 Q89 623 105.5 609.5 Q122 596 147 596 Q170 596 185.5 609.5 Q201 623 201 644 L202 644 Z " />
<glyph glyph-name="ogonek" unicode="&#x2db;" horiz-adv-x="292" d="M225 -164 Q201 -170 183 -173 Q165 -176 148 -176 Q103 -176 78 -158.5 Q53 -141 53 -109 Q53 -87 65 -69 Q75 -51 90 -38 Q102 -27 113.5 -18.5 Q125 -10 150 4 L206 4 Q160 -21 142 -39.5 Q124 -58 124 -79 Q124 -112 182 -112 Q196 -112 209 -110.5 Q222 -109 239 -104 L225 -164 Z " />
<glyph glyph-name="tilde" unicode="&#x2dc;" horiz-adv-x="292" d="M336 610 Q314 594 301.5 586 Q289 578 271 569 Q254 561 241.5 558 Q229 555 215 555 Q201 555 183.5 558 Q166 561 155 566 L106 588 Q89 596 70 596 Q57 596 45 593 Q30 589 18.5 582.5 Q7 576 -16 559 L-44 603 Q-21 621 -10.5 628.5 Q0 636 17 645 Q52 664 86 664 Q102 664 114 660.5 Q126 657 151 645 Q175 633 194 627.5 Q213 622 227 622 Q240 622 253 625 Q267 629 274 633 Q281 637 299 648 Q301 649 303 650 Q307 653 309 654 L336 610 Z " />
<glyph glyph-name="hungarumlaut" unicode="&#x2dd;" horiz-adv-x="292" d="M180 550 L114 550 L217 687 L333 687 L180 550 Z M25 550 L-41 550 L62 687 L178 687 L25 550 Z " />
<glyph glyph-name="Mu" unicode="&#x39c;" horiz-adv-x="729" d="M575 0 L482 0 L496 62 Q471 39 455 28 Q439 17 415 7 Q388 -4 353.5 -10.5 Q319 -17 284 -17 Q241 -17 195 -6 Q164 2 147.5 12 Q131 22 108 45 L53 -195 L-41 -195 L116 482 L210 482 L159 263 Q154 243 151.5 229.5 Q149 216 147.5 206.5 Q146 197 145.5 190 Q145 183 145 175 Q145 122 186 92.5 Q227 63 301 63 Q319 63 334.5 65 Q350 67 363 70 Q388 75 416.5 89 Q445 103 465 119 Q495 143 513 176 Q521 191 526 206 Q531 221 538 250 L591 482 L686 482 L575 0 Z " />
<glyph glyph-name="pi" unicode="&#x3c0;" horiz-adv-x="649" d="M624 407 L564 407 L503 139 Q498 120 497 113.5 Q496 107 496 102 Q496 84 510 76 Q516 73 521.5 72 Q527 71 545 71 L562 71 L546 0 L509 0 Q477 0 460 2 Q443 4 430 12 Q397 29 397 71 Q397 82 398.5 95 Q400 108 405 128 L469 407 L210 407 L117 0 L23 0 L116 407 L57 407 L75 482 L642 482 L624 407 Z " />
<glyph glyph-name="endash" unicode="&#x2013;" horiz-adv-x="626" d="M565 259 L9 259 L28 341 L584 341 L565 259 Z " />
<glyph glyph-name="emdash" unicode="&#x2014;" horiz-adv-x="932" d="M871 259 L9 259 L28 341 L890 341 L871 259 Z " />
<glyph glyph-name="quoteleft" unicode="&#x2018;" horiz-adv-x="251" d="M247 657 Q218 654 207 643 Q196 632 189 600 L184 577 L228 577 L204 469 L94 469 L123 597 Q131 629 141.5 651 Q152 673 168 686.5 Q184 700 206.5 706 Q229 712 260 712 L247 657 Z " />
<glyph glyph-name="quoteright" unicode="&#x2019;" horiz-adv-x="251" d="M221 578 Q214 546 203 524 Q192 502 176.5 488.5 Q161 475 138.5 469 Q116 463 85 463 L97 518 Q126 521 136.5 532 Q147 543 155 575 L161 598 L116 598 L141 706 L251 706 L221 578 Z " />
<glyph glyph-name="quotesinglbase" unicode="&#x201a;" horiz-adv-x="251" d="M85 -20 Q78 -52 67 -74 Q56 -96 40 -109.5 Q24 -123 1.5 -129 Q-21 -135 -52 -135 L-39 -80 Q-10 -77 1 -66 Q12 -55 19 -23 L24 0 L-21 0 L4 108 L114 108 L85 -20 Z " />
<glyph glyph-name="quotedblleft" unicode="&#x201c;" horiz-adv-x="437" d="M433 657 Q404 654 393 643 Q382 632 375 600 L370 577 L415 577 L390 469 L280 469 L309 597 Q317 629 327.5 651 Q338 673 354 686.5 Q370 700 392.5 706 Q415 712 446 712 L433 657 Z M247 657 Q218 654 207 643 Q196 632 189 600 L184 577 L228 577 L204 469 L94 469 L123 597 Q131 629 141.5 651 Q152 673 168 686.5 Q184 700 206.5 706 Q229 712 260 712 L247 657 Z " />
<glyph glyph-name="quotedblright" unicode="&#x201d;" horiz-adv-x="437" d="M407 578 Q400 546 389 524 Q378 502 362.5 488.5 Q347 475 324.5 469 Q302 463 271 463 L284 518 Q313 521 324 532 Q335 543 342 575 L347 598 L302 598 L327 706 L437 706 L407 578 Z M221 578 Q214 546 203 524 Q192 502 176.5 488.5 Q161 475 138.5 469 Q116 463 85 463 L97 518 Q126 521 136.5 532 Q147 543 155 575 L161 598 L116 598 L141 706 L251 706 L221 578 Z " />
<glyph glyph-name="quotedblbase" unicode="&#x201e;" horiz-adv-x="437" d="M271 -20 Q264 -52 253 -74 Q242 -96 226.5 -109.5 Q211 -123 188.5 -129 Q166 -135 135 -135 L147 -80 Q176 -77 186.5 -66 Q197 -55 205 -23 L211 0 L166 0 L191 108 L301 108 L271 -20 Z M85 -20 Q78 -52 67 -74 Q56 -96 40 -109.5 Q24 -123 1.5 -129 Q-21 -135 -52 -135 L-39 -80 Q-10 -77 1 -66 Q12 -55 19 -23 L24 0 L-21 0 L4 108 L114 108 L85 -20 Z " />
<glyph glyph-name="dagger" unicode="&#x2020;" horiz-adv-x="604" d="M570 401 L356 401 L234 -124 L139 -124 L261 401 L44 401 L62 480 L279 480 L331 706 L426 706 L374 481 L589 481 L570 401 Z " />
<glyph glyph-name="daggerdbl" unicode="&#x2021;" horiz-adv-x="604" d="M579 444 L364 444 L297 154 L512 154 L495 82 L280 82 L232 -125 L138 -125 L186 82 L-31 82 L-14 154 L203 154 L270 444 L53 444 L70 517 L287 517 L330 706 L424 706 L381 517 L596 517 L579 444 Z " />
<glyph glyph-name="bullet" unicode="&#x2022;" horiz-adv-x="333" d="M254 238 L23 238 L74 468 L305 468 L254 238 Z " />
<glyph glyph-name="ellipsis" unicode="&#x2026;" horiz-adv-x="1000" d="M800 0 L702 0 L724 97 L822 97 L800 0 Z M468 0 L369 0 L391 97 L489 97 L468 0 Z M133 0 L35 0 L57 97 L155 97 L133 0 Z " />
<glyph glyph-name="perthousand" unicode="&#x2030;" horiz-adv-x="1517" d="M1480 259 Q1480 202 1463 153.5 Q1446 105 1415.5 69 Q1385 33 1344 13 Q1303 -7 1255 -7 Q1169 -7 1118.5 41.5 Q1068 90 1068 175 Q1068 233 1085 281.5 Q1102 330 1132.5 365.5 Q1163 401 1205.5 420.5 Q1248 440 1298 440 Q1381 440 1430.5 391 Q1480 342 1480 259 Z M1004 259 Q1004 202 987 153.5 Q970 105 939.5 69 Q909 33 868 13 Q827 -7 779 -7 Q693 -7 643 41.5 Q593 90 593 175 Q593 233 610 281.5 Q627 330 657.5 365.5 Q688 401 730 420.5 Q772 440 822 440 Q905 440 954.5 391 Q1004 342 1004 259 Z M263 -12 L218 20 L770 703 L815 670 L263 -12 Z M440 511 Q440 454 423 405.5 Q406 357 375.5 321 Q345 285 304 265 Q263 245 215 245 Q128 245 78 294 Q28 343 28 427 Q28 485 45 533.5 Q62 582 92.5 617.5 Q123 653 165.5 672.5 Q208 692 258 692 Q341 692 390.5 643 Q440 594 440 511 Z M1409 249 Q1409 312 1378.5 347 Q1348 382 1292 382 Q1259 382 1231 366.5 Q1203 351 1182.5 323 Q1162 295 1150.5 257.5 Q1139 220 1139 176 Q1139 119 1167.5 85.5 Q1196 52 1254 52 Q1287 52 1315 67 Q1343 82 1364 108 Q1385 134 1397 170.5 Q1409 207 1409 249 Z M933 249 Q933 312 902.5 347 Q872 382 816 382 Q783 382 755.5 366.5 Q728 351 707.5 323 Q687 295 675.5 257.5 Q664 220 664 176 Q664 119 692.5 85.5 Q721 52 779 52 Q812 52 840 67 Q868 82 888.5 108 Q909 134 921 170.5 Q933 207 933 249 Z M369 502 Q369 565 338.5 600 Q308 635 252 635 Q219 635 191 619.5 Q163 604 142.5 576 Q122 548 110.5 510.5 Q99 473 99 429 Q99 372 128 338 Q157 304 215 304 Q248 304 276 319 Q304 334 324.5 360.5 Q345 387 357 423.5 Q369 460 369 502 Z " />
<glyph glyph-name="guilsinglleft" unicode="&#x2039;" horiz-adv-x="299" d="M249 387 L89 250 L186 113 L173 55 L6 214 L26 299 L266 458 L249 387 Z " />
<glyph glyph-name="guilsinglright" unicode="&#x203a;" horiz-adv-x="299" d="M216 212 L-23 54 L-7 123 L153 262 L57 399 L70 457 L236 298 L216 212 Z " />
<glyph glyph-name="fraction" unicode="&#x2044;" horiz-adv-x="125" d="M-164 -12 L-210 20 L342 703 L388 670 L-164 -12 Z " />
<glyph glyph-name="Euro" unicode="&#x20ac;" horiz-adv-x="933" d="M865 516 Q853 529 843 538 Q833 547 824 554.5 Q815 562 805 568.5 Q795 575 782 582 Q729 612 673.5 625.5 Q618 639 552 639 Q316 639 240 440 L818 440 L776 378 L224 378 Q222 366 220 352.5 Q218 339 218 328 L740 328 L699 267 L217 267 Q227 170 299 120 Q371 70 500 70 Q655 70 776 150 Q791 160 802 168 Q813 176 832 192 L803 61 Q757 39 719 23.5 Q681 8 645 -1 Q609 -10 572 -14 Q535 -18 492 -18 Q318 -18 220 54.5 Q122 127 107 267 L16 267 L61 328 L110 328 L110 333 Q112 350 113.5 358.5 Q115 367 118 378 L37 378 L82 440 L132 440 Q140 462 146 477.5 Q152 493 158.5 506 Q165 519 172.5 531.5 Q180 544 191 559 Q210 584 232.5 606 Q255 628 282 647 Q342 689 409 708 Q476 727 567 727 Q625 727 674.5 720 Q724 713 767.5 697.5 Q811 682 850 658 Q889 634 926 601 L865 516 Z " />
<glyph glyph-name="trademark" unicode="&#x2122;" horiz-adv-x="687" d="M627 374 L570 374 L635 636 L491 374 L440 374 L418 646 L362 374 L305 374 L382 706 L459 706 L481 443 L623 706 L704 706 L627 374 Z M342 657 L238 657 L173 374 L114 374 L179 657 L72 657 L84 706 L354 706 L342 657 Z " />
<glyph glyph-name="Omega" unicode="&#x2126;" horiz-adv-x="851" d="M800 449 Q800 414 792.5 377 Q785 340 770.5 304.5 Q756 269 736 236.5 Q716 204 691 177 Q665 149 637 127 Q616 111 602.5 103 Q589 95 563 84 L737 84 L717 0 L406 0 L425 80 Q439 84 448.5 86.5 Q458 89 464 91 Q507 106 547.5 137 Q588 168 619 210 Q657 261 678 322 Q699 383 699 440 Q699 538 639.5 592 Q580 646 471 646 Q404 646 348 620.5 Q292 595 251 550 Q210 505 187 442.5 Q164 380 164 306 Q164 282 166.5 260.5 Q169 239 175 218 Q187 173 220 137 Q237 117 256 105.5 Q275 94 312 80 L294 0 L-17 0 L4 84 L180 84 Q153 107 141 118 Q129 129 118 144 Q92 177 79 222.5 Q66 268 66 321 Q66 409 96.5 482.5 Q127 556 182 609.5 Q237 663 312 693 Q387 723 477 723 Q551 723 610.5 703.5 Q670 684 712 648 Q754 612 777 561.5 Q800 511 800 449 Z " />
<glyph glyph-name="partialdiff" unicode="&#x2202;" horiz-adv-x="597" d="M546 474 Q546 432 540 386.5 Q534 341 523.5 296.5 Q513 252 498 210.5 Q483 169 466 136 Q429 66 365 28 Q301 -10 220 -10 Q171 -10 130.5 4 Q90 18 61 43.5 Q32 69 16 104 Q0 139 0 182 Q0 236 20.5 281 Q41 326 77 359 Q113 392 162.5 410.5 Q212 429 270 429 Q321 429 362 415 Q403 401 442 370 L444 383 Q446 398 447 407.5 Q448 417 449 422 Q451 435 451.5 449.5 Q452 464 452 476 Q452 559 416 598.5 Q380 638 305 638 Q282 638 259 635.5 Q236 633 199 625 L196 701 Q227 709 261.5 712.5 Q296 716 331 716 Q369 716 398.5 708.5 Q428 701 454 684 Q498 655 522 600.5 Q546 546 546 474 Z M424 293 Q356 352 266 352 Q230 352 199.5 340 Q169 328 147.5 306 Q126 284 113.5 254.5 Q101 225 101 189 Q101 133 136 100.5 Q171 68 231 68 Q307 68 353 121.5 Q399 175 424 293 Z " />
<glyph glyph-name="Delta" unicode="&#x2206;" horiz-adv-x="760" d="M-85 0 L403 706 L508 706 L684 0 L-85 0 Z M437 610 L94 87 L554 87 L437 610 Z " />
<glyph glyph-name="product" unicode="&#x220f;" horiz-adv-x="838" d="M648 -122 L549 -122 L721 619 L237 619 L65 -122 L-33 -122 L158 706 L840 706 L648 -122 Z " />
<glyph glyph-name="summation" unicode="&#x2211;" horiz-adv-x="762" d="M787 619 L237 619 L504 295 L103 -34 L634 -34 L614 -122 L-62 -122 L-44 -44 L371 304 L110 626 L129 706 L805 706 L787 619 Z " />
<glyph glyph-name="minus" unicode="&#x2212;" horiz-adv-x="772" d="M672 252 L48 252 L68 339 L692 339 L672 252 Z " />
<glyph glyph-name="radical" unicode="&#x221a;" horiz-adv-x="775" d="M281 -185 L188 -185 L95 107 L13 80 L-7 155 L164 211 L249 -69 L689 706 L796 706 L281 -185 Z " />
<glyph glyph-name="infinity" unicode="&#x221e;" horiz-adv-x="772" d="M725 343 Q725 294 708.5 251.5 Q692 209 663 177.5 Q634 146 595 127.5 Q556 109 512 109 Q490 109 470.5 114 Q451 119 436 127 Q417 138 401 154 Q387 170 377.5 184.5 Q368 199 351 229 Q334 212 324.5 202 Q315 192 298 177 Q254 139 221 124 Q188 109 150 109 Q87 109 49.5 148.5 Q12 188 12 257 Q12 305 28.5 347 Q45 389 73.5 420 Q102 451 140.5 469 Q179 487 224 487 Q266 487 295 471 Q305 466 314.5 459 Q324 452 332 443 Q347 427 357 411.5 Q367 396 383 364 Q401 381 412 392 Q423 403 431 410.5 Q439 418 446 424 Q453 430 462 437 Q492 461 525.5 473.5 Q559 486 590 486 Q650 486 687.5 446.5 Q725 407 725 343 Z M638 326 Q638 362 621.5 382.5 Q605 403 576 403 Q555 403 529 390 Q503 377 479 354 L418 296 Q427 278 433 267 Q439 256 443.5 248.5 Q448 241 453 234.5 Q458 228 465 220 Q490 189 528 189 Q550 189 570 200 Q590 211 605 230 Q620 249 629 273.5 Q638 298 638 326 Z M317 298 Q308 315 302.5 326 Q297 337 292 345 Q287 353 282.5 359.5 Q278 366 271 374 Q245 405 208 405 Q186 405 165.5 394 Q145 383 130 364.5 Q115 346 106 321 Q97 296 97 269 Q97 233 114 212 Q131 191 160 191 Q181 191 207 204 Q233 217 256 240 L300 282 L317 298 Z " />
<glyph glyph-name="integral" unicode="&#x222b;" horiz-adv-x="374" d="M394 624 Q379 635 368.5 638.5 Q358 642 344 642 Q315 642 301 618 Q295 608 292 595 Q289 585 285.5 569.5 Q282 554 277 536 L145 -33 Q130 -98 106 -129 Q68 -176 -6 -176 Q-26 -176 -41.5 -173.5 Q-57 -171 -75 -164 L-56 -83 Q-40 -93 -30.5 -96 Q-21 -99 -10 -99 Q16 -99 29 -83 Q42 -67 53 -22 L183 540 Q190 569 193.5 585 Q197 601 200 611 Q212 649 230 673 Q266 720 341 720 Q361 720 377.5 717 Q394 714 414 707 L394 624 Z " />
<glyph glyph-name="approxequal" unicode="&#x2248;" horiz-adv-x="772" d="M730 405 Q714 391 702 381 Q690 371 678.5 363 Q667 355 655.5 348.5 Q644 342 629 335 Q598 320 572 313 Q546 306 520 306 Q493 306 466 314 Q439 322 394 342 L357 359 Q323 375 299 381.5 Q275 388 252 388 Q232 388 212 382 Q202 379 193.5 375.5 Q185 372 175.5 365.5 Q166 359 153 349 Q140 339 120 322 Q117 320 113 317 Q109 314 103 309 L60 378 Q75 392 85.5 401 Q96 410 104.5 417 Q113 424 121 429.5 Q129 435 139 441 Q199 478 265 478 Q286 478 308 473 Q322 470 344 462.5 Q366 455 386 446 L446 420 Q479 406 496 400.5 Q513 395 529 395 Q547 395 568 401 Q589 407 609 417 Q626 426 641 437 Q656 448 687 473 L730 405 Z M684 209 Q668 195 656 185 Q644 175 633 167 Q622 159 610.5 152.5 Q599 146 584 138 Q553 123 527 116 Q501 109 475 109 Q448 109 421.5 117.5 Q395 126 349 146 L312 162 Q277 177 253.5 184 Q230 191 207 191 Q185 191 167 185 Q156 182 148 178.5 Q140 175 130.5 169 Q121 163 108.5 152.5 Q96 142 75 125 Q72 123 68 120 Q64 117 58 112 L15 182 Q29 195 39.5 204 Q50 213 58.5 220 Q67 227 75.5 232.5 Q84 238 94 244 Q154 281 220 281 Q246 281 263 277 Q277 274 299 266 Q321 258 341 249 L401 223 Q434 209 450.5 204 Q467 199 484 199 Q502 199 523 204.5 Q544 210 564 221 Q581 230 596 240.5 Q611 251 642 276 L684 209 Z " />
<glyph glyph-name="notequal" unicode="&#x2260;" horiz-adv-x="772" d="M680 353 L459 353 L371 236 L649 236 L630 154 L313 154 L189 -6 L103 -6 L226 154 L48 154 L67 236 L286 236 L372 353 L97 353 L117 436 L434 436 L551 588 L637 588 L519 436 L699 436 L680 353 Z " />
<glyph glyph-name="lessequal" unicode="&#x2264;" horiz-adv-x="772" d="M699 559 L224 393 L622 219 L600 127 L109 350 L130 444 L721 657 L699 559 Z M571 0 L28 0 L47 83 L591 83 L571 0 Z " />
<glyph glyph-name="greaterequal" unicode="&#x2265;" horiz-adv-x="772" d="M655 340 L64 127 L87 225 L561 391 L163 565 L185 657 L676 434 L655 340 Z M578 0 L34 0 L54 83 L597 83 L578 0 Z " />
<glyph glyph-name="lozenge" unicode="&#x25ca;" horiz-adv-x="772" d="M348 0 L249 0 L132 356 L412 706 L511 706 L633 352 L348 0 Z M446 625 L235 352 L315 82 L530 359 L446 625 Z " />
<glyph glyph-name="fi" unicode="&#xfb01;" horiz-adv-x="563" d="M535 570 L441 570 L464 666 L558 666 L535 570 Z M406 0 L311 0 L422 482 L517 482 L406 0 Z M388 620 Q368 625 353 627 Q338 629 322 629 Q289 629 272 617 Q257 607 249 589.5 Q241 572 231 530 L220 482 L352 482 L337 418 L205 418 L109 0 L15 0 L112 418 L35 418 L50 482 L128 482 L138 528 Q143 551 147 567 Q151 583 155.5 595.5 Q160 608 165 618 Q170 628 176 638 Q220 712 325 712 Q345 712 365 710.5 Q385 709 408 705 L388 620 Z " />
<glyph glyph-name="fl" unicode="&#xfb02;" horiz-adv-x="563" d="M405 0 L311 0 L474 706 L568 706 L405 0 Z M388 620 Q368 625 353 627 Q338 629 322 629 Q289 629 272 617 Q257 607 249 589.5 Q241 572 231 530 L220 482 L352 482 L337 418 L205 418 L109 0 L15 0 L112 418 L35 418 L50 482 L128 482 L138 528 Q143 551 147 567 Q151 583 155.5 595.5 Q160 608 165 618 Q170 628 176 638 Q220 712 325 712 Q345 712 365 710.5 Q385 709 408 705 L388 620 Z " />
</font>
</svg>
