<?xml version="1.0" encoding="UTF-8"?>
<svg xmlns="http://www.w3.org/2000/svg" xmlns:xlink="http://www.w3.org/1999/xlink" version="1.2" >
<font id="NissanAG-LightExt">
<font-face  font-family="NissanAG" units-per-em="1000" ascent="750" descent="-250" font-style="normal" font-weight="300" font-stretch="expanded" cap-height="750" x-height="500" underline-position="-75" underline-thickness="50" />
<missing-glyph  horiz-adv-x="1000" d="" />
<glyph glyph-name="null" d="" />
<glyph glyph-name="nonmarkingreturn" unicode="&#xd;" horiz-adv-x="250" d="" />
<glyph glyph-name="space" unicode="&#x20;" horiz-adv-x="350" d="" />
<glyph glyph-name="exclam" unicode="&#x21;" horiz-adv-x="313" d="M211 402 Q211 382 210 368.5 Q209 355 207 335 L198 200 L152 200 L144 349 Q142 371 141 386 Q140 401 140 423 L140 706 L211 706 L211 402 Z M137 0 L137 99 L214 99 L214 0 L137 0 Z " />
<glyph glyph-name="quotedbl" unicode="&#x22;" horiz-adv-x="348" d="M287 453 L251 453 L224 744 L313 744 L287 453 Z M98 453 L62 453 L35 744 L124 744 L98 453 Z " />
<glyph glyph-name="numbersign" unicode="&#x23;" horiz-adv-x="768" d="M528 410 L518 313 L709 313 L709 259 L513 259 L488 0 L426 0 L454 259 L309 259 L281 0 L223 0 L249 259 L49 259 L49 313 L255 313 L264 410 L62 410 L62 467 L269 467 L292 706 L355 706 L330 467 L475 467 L497 706 L557 706 L533 467 L721 467 L721 410 L528 410 Z M324 410 L314 313 L459 313 L469 410 L324 410 Z " />
<glyph glyph-name="dollar" unicode="&#x24;" horiz-adv-x="812" d="M763 213 Q763 180 751.5 148.5 Q740 117 719 91 Q694 60 661.5 40 Q629 20 593 8 Q557 -4 518.5 -9.5 Q480 -15 442 -17 L442 -84 L382 -84 L382 -17 Q340 -14 297 -8 Q254 -2 213.5 11.5 Q173 25 137.5 48 Q102 71 74 107 Q61 124 51.5 141.5 Q42 159 32 177 L106 205 Q124 158 152.5 128 Q181 98 217 80.5 Q253 63 295 55.5 Q337 48 382 45 L382 345 Q340 350 288.5 356.5 Q237 363 192 380 Q147 397 116.5 429.5 Q86 462 86 520 Q86 551 98 579 Q110 607 130 630 Q154 657 183.5 674 Q213 691 245.5 701.5 Q278 712 313 717 Q348 722 382 724 L382 788 L442 788 L442 724 Q512 721 579.5 699 Q647 677 701 629 Q712 618 722 607 Q732 596 743 585 L679 551 Q631 610 573 633.5 Q515 657 442 662 L442 405 Q469 402 502.5 397.5 Q536 393 570.5 386 Q605 379 636 368.5 Q667 358 689 343 Q722 320 742.5 287 Q763 254 763 213 Z M382 663 Q357 662 329 658 Q301 654 273.5 645 Q246 636 222 622 Q198 608 182 587 Q171 573 164.5 558 Q158 543 158 525 Q158 488 183 467 Q208 446 243.5 435 Q279 424 317.5 420.5 Q356 417 382 414 L382 663 Z M690 208 Q690 237 676 257.5 Q662 278 638 292 Q621 302 595.5 309.5 Q570 317 543 322 Q516 327 489 330.5 Q462 334 442 337 L442 46 Q471 48 503 52.5 Q535 57 565 67 Q595 77 621.5 93.5 Q648 110 666 135 Q690 168 690 208 Z " />
<glyph glyph-name="percent" unicode="&#x25;" horiz-adv-x="1083" d="M1050 216 Q1050 170 1035 129.5 Q1020 89 992 59 Q964 29 925 11.5 Q886 -6 839 -6 Q792 -6 754 12.5 Q716 31 689 61.5 Q662 92 647 132.5 Q632 173 632 218 Q632 263 647 303.5 Q662 344 690 374 Q718 404 756.5 421.5 Q795 439 842 439 Q889 439 927 421 Q965 403 992.5 372.5 Q1020 342 1035 301.5 Q1050 261 1050 216 Z M366 0 L313 0 L712 688 L765 688 L366 0 Z M448 470 Q448 424 433 383.5 Q418 343 390 312.5 Q362 282 323 264.5 Q284 247 237 247 Q190 247 152 265 Q114 283 87 314 Q60 345 45 385.5 Q30 426 30 471 Q30 516 45 556.5 Q60 597 88 627 Q116 657 154.5 674.5 Q193 692 240 692 Q287 692 325.5 674 Q364 656 391 626 Q418 596 433 555.5 Q448 515 448 470 Z M998 213 Q998 252 987.5 285 Q977 318 956.5 342 Q936 366 905.5 380 Q875 394 834 394 Q796 394 767.5 379.5 Q739 365 719.5 340 Q700 315 690.5 283.5 Q681 252 681 217 Q681 165 702 121 Q723 77 772 54 Q806 38 839 38 Q877 38 906.5 52 Q936 66 956 90 Q976 114 987 145.5 Q998 177 998 213 Z M397 467 Q397 503 387 535.5 Q377 568 357 593 Q337 618 308 633 Q279 648 240 648 Q201 648 171 634 Q141 620 120.5 596 Q100 572 90 539.5 Q80 507 80 470 Q80 415 103 369.5 Q126 324 179 303 Q208 291 238 291 Q276 291 305.5 305.5 Q335 320 355 344 Q375 368 386 400 Q397 432 397 467 Z " />
<glyph glyph-name="ampersand" unicode="&#x26;" horiz-adv-x="771" d="M755 0 Q724 1 698 8 Q672 15 649 26 Q626 37 603.5 52.5 Q581 68 557 86 Q547 76 536.5 66.5 Q526 57 515 49 Q469 16 412.5 0 Q356 -16 299 -16 Q264 -16 229 -9.5 Q194 -3 162.5 11.5 Q131 26 104.5 48.5 Q78 71 60 104 Q50 122 44 143 Q38 164 38 185 Q38 233 58.5 266 Q79 299 110.5 323 Q142 347 181.5 363.5 Q221 380 258 393 Q230 425 206.5 462 Q183 499 183 544 Q183 582 198 610 Q213 638 238 656.5 Q263 675 295.5 684.5 Q328 694 362 694 Q396 694 425.5 683.5 Q455 673 477 653.5 Q499 634 512 605.5 Q525 577 525 542 Q525 513 515 488.5 Q505 464 488 444.5 Q471 425 448.5 410 Q426 395 401 384 Q391 379 381 375.5 Q371 372 361 367 Q408 314 456 265 Q504 216 557 169 Q593 219 609 266.5 Q625 314 633 375 L698 375 Q692 339 685 307.5 Q678 276 667.5 246.5 Q657 217 641.5 189 Q626 161 603 132 Q623 117 639.5 105 Q656 93 673.5 84 Q691 75 710.5 69 Q730 63 755 60 L755 0 Z M463 550 Q463 571 454 587.5 Q445 604 430 615.5 Q415 627 396.5 633 Q378 639 359 639 Q316 639 283.5 615.5 Q251 592 251 546 Q251 528 258 510 Q265 492 275.5 475.5 Q286 459 298.5 443.5 Q311 428 322 415 Q346 424 371 435 Q396 446 416.5 461.5 Q437 477 450 498.5 Q463 520 463 550 Z M514 122 Q395 225 299 344 Q271 335 237.5 323.5 Q204 312 175.5 295 Q147 278 128 252.5 Q109 227 109 191 Q109 153 126.5 125 Q144 97 172 79 Q200 61 234 52 Q268 43 301 43 L304 43 Q344 43 388.5 55 Q433 67 468 88 Q480 96 491.5 104.5 Q503 113 514 122 Z " />
<glyph glyph-name="quotesingle" unicode="&#x27;" horiz-adv-x="159" d="M98 453 L62 453 L35 744 L124 744 L98 453 Z " />
<glyph glyph-name="parenleft" unicode="&#x28;" horiz-adv-x="354" d="M312 -218 Q197 -129 137 -5 Q77 119 77 264 Q77 389 121.5 496.5 Q166 604 258 689 Q271 701 284.5 712 Q298 723 312 734 L337 708 Q314 685 293.5 661.5 Q273 638 255 612 Q201 534 176 439.5 Q151 345 151 251 Q151 123 198.5 11.5 Q246 -100 337 -189 L312 -218 Z " />
<glyph glyph-name="parenright" unicode="&#x29;" horiz-adv-x="354" d="M278 255 Q278 129 233.5 21 Q189 -87 96 -173 Q83 -185 70 -196 Q57 -207 43 -218 L18 -192 Q41 -169 61.5 -145.5 Q82 -122 100 -96 Q151 -21 177 73.5 Q203 168 203 259 Q203 390 157 502 Q111 614 18 705 L43 734 Q156 646 217 522 Q278 398 278 255 Z " />
<glyph glyph-name="asterisk" unicode="&#x2a;" horiz-adv-x="357" d="M214 556 L281 465 L244 438 L176 528 L115 438 L77 465 L139 557 L33 587 L47 630 L153 602 L153 711 L201 711 L201 600 L309 636 L324 595 L214 556 Z " />
<glyph glyph-name="plus" unicode="&#x2b;" horiz-adv-x="772" d="M416 264 L416 25 L356 25 L356 264 L95 264 L95 323 L356 323 L356 560 L416 560 L416 323 L678 323 L678 264 L416 264 Z " />
<glyph glyph-name="comma" unicode="&#x2c;" horiz-adv-x="271" d="M172 -26 Q172 -61 154.5 -86.5 Q137 -112 99 -116 L99 -80 Q113 -78 120.5 -69 Q128 -60 131 -48.5 Q134 -37 134.5 -24 Q135 -11 135 0 L97 0 L97 99 L172 99 L172 -26 Z " />
<glyph glyph-name="hyphen" unicode="&#x2d;" horiz-adv-x="365" d="M38 264 L38 324 L326 324 L326 264 L38 264 Z " />
<glyph glyph-name="period" unicode="&#x2e;" horiz-adv-x="271" d="M96 0 L96 99 L173 99 L173 0 L96 0 Z " />
<glyph glyph-name="slash" unicode="&#x2f;" horiz-adv-x="500" d="M77 0 L17 0 L416 706 L475 706 L77 0 Z " />
<glyph glyph-name="zero" unicode="0" horiz-adv-x="729" d="M697 346 Q697 273 672.5 208 Q648 143 603.5 94.5 Q559 46 497 17.5 Q435 -11 359 -11 Q311 -11 266.5 2.5 Q222 16 184 40.5 Q146 65 115 100.5 Q84 136 64 179 Q47 215 38.5 260 Q30 305 30 344 Q30 418 54 482.5 Q78 547 121.5 596 Q165 645 227.5 673 Q290 701 366 701 Q382 701 397.5 699 Q413 697 429 694 Q493 682 543 649.5 Q593 617 627 570.5 Q661 524 679 466.5 Q697 409 697 346 Z M624 343 Q624 414 602 477 Q580 540 523 586 Q489 613 448.5 626 Q408 639 365 639 Q300 639 250.5 615.5 Q201 592 168 551.5 Q135 511 118.5 457 Q102 403 102 343 Q102 284 119.5 231 Q137 178 170.5 138 Q204 98 252.5 74.5 Q301 51 363 51 Q425 51 473.5 75 Q522 99 555.5 139.5 Q589 180 606.5 232.5 Q624 285 624 343 Z " />
<glyph glyph-name="one" unicode="1" horiz-adv-x="729" d="M349 0 L349 543 Q305 511 261 503.5 Q217 496 165 496 L165 553 Q193 553 220.5 556.5 Q248 560 272 570 Q296 580 316.5 596.5 Q337 613 352 640 Q359 653 363 666 Q367 679 371 693 L417 693 L417 0 L349 0 Z " />
<glyph glyph-name="two" unicode="2" horiz-adv-x="729" d="M73 1 L73 64 Q120 86 180.5 113 Q241 140 302.5 171.5 Q364 203 420 237.5 Q476 272 513 308 Q547 340 568.5 380 Q590 420 590 468 Q590 513 571.5 546 Q553 579 522.5 600 Q492 621 453 631.5 Q414 642 374 642 L370 642 Q339 642 307 635.5 Q275 629 247 615 Q219 601 196.5 579 Q174 557 160 527 Q150 506 147 482.5 Q144 459 142 436 L73 446 Q76 465 79 483.5 Q82 502 88 520 Q104 568 133 602.5 Q162 637 200.5 659 Q239 681 284.5 691.5 Q330 702 378 702 Q410 702 442 697.5 Q474 693 504 681 Q538 668 566.5 647.5 Q595 627 616 600 Q637 573 649 540.5 Q661 508 661 470 Q661 421 644 379.5 Q627 338 595 301 Q562 262 511 226.5 Q460 191 402 160.5 Q344 130 286 104 Q228 78 180 59 L670 59 L670 1 L73 1 Z " />
<glyph glyph-name="three" unicode="3" horiz-adv-x="729" d="M676 204 Q676 154 650 110 Q629 75 597.5 51.5 Q566 28 528.5 14 Q491 0 450.5 -6 Q410 -12 372 -12 Q300 -12 231.5 10 Q163 32 112 87 Q95 106 81.5 128 Q68 150 57 173 L124 195 Q141 154 167 125.5 Q193 97 225.5 79.5 Q258 62 296.5 54 Q335 46 377 46 Q413 46 453.5 54 Q494 62 528.5 80.5 Q563 99 585.5 129 Q608 159 608 203 Q608 249 578 280 Q562 297 542 307 Q522 317 500.5 322 Q479 327 456 328.5 Q433 330 411 330 L298 330 L298 389 L385 389 Q408 389 430 389.5 Q452 390 473 394 Q494 398 513 407.5 Q532 417 550 435 Q581 466 581 510 Q581 549 560 574 Q539 599 508 614 Q477 629 441 634.5 Q405 640 374 640 Q334 640 296.5 631.5 Q259 623 228 604.5 Q197 586 175 556.5 Q153 527 143 484 L77 506 Q84 521 90 536.5 Q96 552 104 567 Q125 604 154.5 629.5 Q184 655 219.5 670.5 Q255 686 294.5 693 Q334 700 374 700 Q418 700 466.5 690.5 Q515 681 555.5 658.5 Q596 636 622.5 599.5 Q649 563 649 509 Q649 453 613 416 Q577 379 524 368 Q556 362 584 348.5 Q612 335 632.5 314.5 Q653 294 664.5 266.5 Q676 239 676 204 Z " />
<glyph glyph-name="four" unicode="4" horiz-adv-x="729" d="M536 185 L536 0 L469 0 L469 185 L34 185 L34 244 L462 695 L536 695 L536 244 L685 244 L685 185 L536 185 Z M469 620 L114 244 L469 244 L469 620 Z " />
<glyph glyph-name="five" unicode="5" horiz-adv-x="729" d="M672 242 Q672 178 645 130.5 Q618 83 573.5 51.5 Q529 20 473.5 4.5 Q418 -11 361 -11 Q310 -11 262 -1 Q214 9 172 31 Q130 53 97.5 88 Q65 123 46 173 L114 192 Q121 173 129 155.5 Q137 138 150 123 Q167 102 191 87.5 Q215 73 242 64 Q269 55 297.5 51 Q326 47 352 47 Q396 47 440.5 58.5 Q485 70 522 94 Q559 118 582 155 Q605 192 605 242 Q605 283 586 318 Q570 348 545.5 368.5 Q521 389 492 402 Q463 415 430 420.5 Q397 426 365 426 Q294 426 236.5 398.5 Q179 371 137 314 L74 314 L96 688 L624 688 L624 632 L156 632 L142 398 Q150 406 158.5 414 Q167 422 176 429 Q219 461 271 472.5 Q323 484 376 484 Q431 484 484 469.5 Q537 455 579 425 Q621 395 646.5 349.5 Q672 304 672 242 Z " />
<glyph glyph-name="six" unicode="6" horiz-adv-x="729" d="M692 231 Q692 196 680 164 Q668 132 648 103 Q627 73 595.5 51 Q564 29 528 15.5 Q492 2 454 -4.5 Q416 -11 381 -11 Q305 -11 244 12 Q183 35 140.5 78 Q98 121 75.5 181.5 Q53 242 53 318 Q53 396 73.5 465 Q94 534 135.5 586 Q177 638 240 668 Q303 698 388 698 Q479 698 551.5 661.5 Q624 625 675 548 L612 519 Q570 580 513 608.5 Q456 637 382 637 Q314 637 264.5 612 Q215 587 183 544 Q151 501 135 445.5 Q119 390 117 328 Q132 366 162.5 391 Q193 416 230.5 431 Q268 446 309 452 Q350 458 386 458 Q425 458 465.5 451.5 Q506 445 543 430 Q580 415 611.5 390.5 Q643 366 664 330 Q692 283 692 231 Z M624 228 Q624 276 601.5 308 Q579 340 543.5 359.5 Q508 379 465.5 387.5 Q423 396 384 396 L375 396 Q337 396 296 387 Q255 378 221.5 358.5 Q188 339 166.5 307.5 Q145 276 145 230 Q145 201 155 173.5 Q165 146 185 124 Q222 82 273 66.5 Q324 51 378 51 Q418 51 461.5 60.5 Q505 70 541 91.5 Q577 113 600.5 146.5 Q624 180 624 228 Z " />
<glyph glyph-name="seven" unicode="7" horiz-adv-x="729" d="M674 638 Q663 630 652 621.5 Q641 613 630 603 Q596 573 562.5 532.5 Q529 492 498.5 447.5 Q468 403 442.5 357.5 Q417 312 399 270 Q372 206 355 138 Q338 70 338 0 L263 0 L263 6 Q263 23 264.5 38.5 Q266 54 268 71 Q275 118 290.5 169 Q306 220 327 269.5 Q348 319 374 365.5 Q400 412 427 451 Q460 499 497 542.5 Q534 586 575 628 L72 628 L72 688 L674 688 L674 638 Z " />
<glyph glyph-name="eight" unicode="8" horiz-adv-x="729" d="M679 190 Q679 150 661 117 Q640 78 607 53 Q574 28 535 14 Q496 0 453 -5.5 Q410 -11 370 -11 L364 -11 Q328 -11 290.5 -7 Q253 -3 216.5 7.5 Q180 18 147.5 36 Q115 54 90 82 Q70 105 59.5 133 Q49 161 49 191 Q49 228 65.5 257 Q82 286 108 307.5 Q134 329 166.5 342.5 Q199 356 232 361 Q202 365 174.5 376.5 Q147 388 126 407 Q105 426 92.5 452 Q80 478 80 511 Q80 565 108.5 601.5 Q137 638 180 660 Q223 682 273.5 691 Q324 700 367 700 Q400 700 436 695.5 Q472 691 505.5 680 Q539 669 569 650.5 Q599 632 620 604 Q636 583 644 560.5 Q652 538 652 512 Q652 477 633 442 Q613 404 575 386 Q537 368 497 361 Q530 357 562.5 343.5 Q595 330 621 308 Q647 286 663 256 Q679 226 679 190 Z M585 515 Q585 554 563 579.5 Q541 605 508.5 619.5 Q476 634 438.5 639.5 Q401 645 371 645 Q340 645 301.5 640 Q263 635 229.5 620.5 Q196 606 173.5 581 Q151 556 151 516 Q151 471 184 442 Q199 429 222.5 419.5 Q246 410 272 404 Q298 398 324 395 Q350 392 370 392 Q399 392 436.5 396.5 Q474 401 507 414.5 Q540 428 562.5 452 Q585 476 585 515 Z M610 191 Q610 234 584 260.5 Q558 287 520.5 302 Q483 317 441.5 322.5 Q400 328 368 328 Q336 328 293 323 Q250 318 211 303 Q172 288 145 261.5 Q118 235 118 192 Q118 149 144.5 121 Q171 93 209.5 76.5 Q248 60 291 53.5 Q334 47 367 47 Q400 47 442.5 53 Q485 59 522 75.5 Q559 92 584.5 120 Q610 148 610 191 Z " />
<glyph glyph-name="nine" unicode="9" horiz-adv-x="729" d="M686 359 Q686 280 665 212.5 Q644 145 602 95.5 Q560 46 498 18 Q436 -10 353 -10 Q268 -10 195 24 Q122 58 73 130 L135 161 Q176 107 233.5 78.5 Q291 50 359 50 Q428 50 478 77 Q528 104 560 149 Q592 194 607.5 252.5 Q623 311 623 373 Q607 332 575.5 304.5 Q544 277 504.5 260.5 Q465 244 422 237 Q379 230 339 230 Q300 230 261 236.5 Q222 243 186 258 Q150 273 119.5 297.5 Q89 322 69 358 Q44 403 44 454 Q44 516 78 569 Q101 604 132 628.5 Q163 653 199 669 Q235 685 274 692.5 Q313 700 353 700 L363 700 Q442 700 502.5 675.5 Q563 651 603.5 606 Q644 561 665 498.5 Q686 436 686 359 Z M591 460 Q591 508 571.5 541.5 Q552 575 520 596.5 Q488 618 447.5 628 Q407 638 365 638 Q324 638 279.5 628 Q235 618 198 596.5 Q161 575 137 541 Q113 507 113 458 Q113 411 134 379.5 Q155 348 188 328.5 Q221 309 262 300.5 Q303 292 342 292 Q380 292 424 300.5 Q468 309 505 328.5 Q542 348 566.5 380.5 Q591 413 591 460 Z " />
<glyph glyph-name="colon" unicode="&#x3a;" horiz-adv-x="313" d="M138 391 L138 489 L217 489 L217 391 L138 391 Z M138 0 L138 99 L217 99 L217 0 L138 0 Z " />
<glyph glyph-name="semicolon" unicode="&#x3b;" horiz-adv-x="313" d="M138 391 L138 489 L217 489 L217 391 L138 391 Z M213 -26 Q213 -61 195.5 -86.5 Q178 -112 140 -116 L140 -80 Q163 -76 169.5 -56.5 Q176 -37 176 -17 Q176 -12 176 -8.5 Q176 -5 175 0 L138 0 L138 99 L213 99 L213 -26 Z " />
<glyph glyph-name="less" unicode="&#x3c;" horiz-adv-x="772" d="M99 261 L99 328 L641 570 L641 506 L163 298 L641 94 L641 27 L99 261 Z " />
<glyph glyph-name="equal" unicode="&#x3d;" horiz-adv-x="772" d="M94 350 L94 408 L678 408 L678 350 L94 350 Z M94 173 L94 231 L678 231 L678 173 L94 173 Z " />
<glyph glyph-name="greater" unicode="&#x3e;" horiz-adv-x="772" d="M131 27 L131 91 L609 300 L131 503 L131 570 L673 336 L673 269 L131 27 Z " />
<glyph glyph-name="question" unicode="&#x3f;" horiz-adv-x="708" d="M657 500 Q657 453 639.5 410.5 Q622 368 584 339 Q567 325 545.5 315 Q524 305 504 297 Q491 293 472 288 Q453 283 434 276.5 Q415 270 399.5 261 Q384 252 379 238 Q376 230 376 218 Q376 206 375 197 L313 197 Q314 214 314.5 237 Q315 260 323 275 Q338 305 365 316 Q392 327 422 335 Q438 340 453.5 344.5 Q469 349 484 355 Q533 375 562 407 Q591 439 591 496 Q591 541 572 572.5 Q553 604 523 624 Q493 644 454.5 653.5 Q416 663 377 663 Q323 663 268.5 641 Q214 619 181 574 Q166 553 157 530 Q148 507 139 483 L80 505 Q118 614 188.5 668 Q259 722 377 722 Q429 722 479 709.5 Q529 697 568.5 670 Q608 643 632.5 601 Q657 559 657 500 Z M306 0 L306 99 L381 99 L381 0 L306 0 Z " />
<glyph glyph-name="at" unicode="&#x40;" horiz-adv-x="931" d="M858 412 Q858 307 803 209 Q765 143 718.5 107.5 Q672 72 621 72 Q579 72 560 94 Q541 116 539 165 Q521 142 510 130.5 Q499 119 483 108 Q438 73 381 73 Q320 73 285 115.5 Q250 158 250 233 Q250 289 268 340 Q286 391 316 430 Q346 469 385.5 492 Q425 515 468 515 Q519 515 553 481 Q564 470 572 457.5 Q580 445 591 420 L608 492 L669 492 L636 346 Q634 338 631.5 329.5 Q629 321 627 310 Q621 286 617.5 268.5 Q614 251 612 240 Q604 197 604 171 Q604 148 614.5 134 Q625 120 642 120 Q655 120 671 128 Q687 136 702 150 Q727 173 747.5 203.5 Q768 234 782.5 268.5 Q797 303 805 340 Q813 377 813 413 Q813 473 793 520.5 Q773 568 736 601 Q699 634 646 652 Q593 670 527 670 Q440 670 365 638.5 Q290 607 235.5 551 Q181 495 149.5 419.5 Q118 344 118 255 Q118 179 142.5 117 Q167 55 212 11.5 Q257 -32 321.5 -55.5 Q386 -79 466 -79 Q560 -79 651 -43 Q676 -33 696 -23.5 Q716 -14 734.5 -2 Q753 10 773.5 26.5 Q794 43 820 66 L849 34 Q816 7 791 -12.5 Q766 -32 743.5 -46.5 Q721 -61 698.5 -71.5 Q676 -82 649 -92 Q562 -124 471 -124 Q381 -124 307 -96.5 Q233 -69 180 -19 Q127 31 98 100.5 Q69 170 69 255 Q69 352 104.5 435.5 Q140 519 202.5 580.5 Q265 642 349.5 677 Q434 712 532 712 Q607 712 667.5 691 Q728 670 770 631 Q812 592 835 536.5 Q858 481 858 412 Z M569 349 Q569 401 543.5 431.5 Q518 462 473 462 Q442 462 414 443.5 Q386 425 364.5 393.5 Q343 362 330 321 Q317 280 317 235 Q317 183 341.5 153.5 Q366 124 408 124 Q456 124 492 160 Q508 176 522 199 Q536 222 546.5 247.5 Q557 273 563 299.5 Q569 326 569 349 Z " />
<glyph glyph-name="A" unicode="A" horiz-adv-x="792" d="M713 0 L622 183 L167 183 L77 0 L6 0 L354 706 L430 706 L786 0 L713 0 Z M392 643 L194 239 L594 239 L392 643 Z " />
<glyph glyph-name="B" unicode="B" horiz-adv-x="917" d="M858 193 Q858 162 850 131.5 Q842 101 824 76 Q806 52 784.5 37 Q763 22 738 13.5 Q713 5 686.5 2.5 Q660 0 632 0 L82 0 L82 706 L606 706 Q660 706 704 694 Q748 682 784 638 Q802 615 812 586.5 Q822 558 822 529 Q822 471 790 428 Q758 385 699 374 Q773 366 815.5 316 Q858 266 858 193 Z M749 523 Q749 543 744 562.5 Q739 582 728 598 Q702 633 667.5 641 Q633 649 592 649 L151 649 L151 399 L587 399 Q617 399 646.5 405 Q676 411 698.5 425 Q721 439 735 463 Q749 487 749 523 Z M788 191 Q788 214 782 236.5 Q776 259 763 278 Q748 300 726 312.5 Q704 325 678.5 331 Q653 337 626.5 338 Q600 339 576 339 L151 339 L151 59 L632 59 Q674 59 707.5 69.5 Q741 80 766 117 Q788 149 788 191 Z " />
<glyph glyph-name="C" unicode="C" horiz-adv-x="812" d="M807 191 Q747 85 653 33.5 Q559 -18 439 -18 Q378 -18 321 -4 Q264 10 215.5 38.5 Q167 67 129 110 Q91 153 68 212 Q41 281 41 356 Q41 439 73 507.5 Q105 576 159.5 625 Q214 674 286 701 Q358 728 438 728 Q515 728 589.5 702 Q664 676 721 622 Q741 602 757.5 579.5 Q774 557 789 534 L729 500 Q718 517 707.5 534 Q697 551 683 566 Q638 617 573.5 641 Q509 665 442 665 Q373 665 313.5 642.5 Q254 620 210 579.5 Q166 539 141 481.5 Q116 424 116 353 Q116 284 141 227 Q166 170 209.5 129.5 Q253 89 312 66.5 Q371 44 439 44 Q517 44 587 72.5 Q657 101 707 162 Q718 176 727 190.5 Q736 205 746 219 L807 191 Z " />
<glyph glyph-name="D" unicode="D" horiz-adv-x="854" d="M805 351 Q805 298 791.5 244 Q778 190 749 145 Q717 97 679 68.5 Q641 40 597.5 24.5 Q554 9 505 4.5 Q456 0 403 0 L83 0 L83 706 L451 706 Q485 706 519 702.5 Q553 699 585 688 Q640 670 681.5 636 Q723 602 750.5 557 Q778 512 791.5 459.5 Q805 407 805 351 Z M734 349 Q734 396 723.5 439.5 Q713 483 691 520.5 Q669 558 635.5 586.5 Q602 615 556 631 Q527 641 497 644.5 Q467 648 436 648 L153 648 L153 59 L394 59 Q442 59 491.5 63 Q541 67 586 87 Q627 105 655 132 Q683 159 700.5 193.5 Q718 228 726 267.5 Q734 307 734 349 Z " />
<glyph glyph-name="E" unicode="E" horiz-adv-x="833" d="M83 0 L83 706 L759 706 L759 648 L152 648 L152 400 L713 400 L713 340 L152 340 L152 59 L788 59 L788 0 L83 0 Z " />
<glyph glyph-name="F" unicode="F" horiz-adv-x="750" d="M152 648 L152 397 L672 397 L672 336 L152 336 L152 0 L83 0 L83 706 L733 706 L733 648 L152 648 Z " />
<glyph glyph-name="G" unicode="G" horiz-adv-x="896" d="M761 0 L761 145 Q739 102 703 71 Q667 40 623.5 19.5 Q580 -1 532.5 -10.5 Q485 -20 439 -20 Q357 -20 285 6 Q213 32 159.5 80.5 Q106 129 75 197.5 Q44 266 44 351 Q44 438 75.5 508 Q107 578 161.5 627 Q216 676 289 702 Q362 728 446 728 Q487 728 528.5 721 Q570 714 610 700 Q650 686 685.5 664.5 Q721 643 750 613 Q780 581 805 541 L739 503 Q729 521 717.5 538 Q706 555 692 570 Q642 621 576 642.5 Q510 664 440 664 Q371 664 312 641.5 Q253 619 209.5 578.5 Q166 538 141.5 480.5 Q117 423 117 353 Q117 280 142.5 222.5 Q168 165 212.5 125 Q257 85 317.5 64 Q378 43 448 43 Q507 43 562.5 61 Q618 79 661 113 Q704 147 731 196.5 Q758 246 761 309 L386 309 L386 369 L822 369 L822 0 L761 0 Z " />
<glyph glyph-name="H" unicode="H" horiz-adv-x="896" d="M745 0 L745 345 L152 345 L152 0 L83 0 L83 706 L152 706 L152 404 L745 404 L745 706 L812 706 L812 0 L745 0 Z " />
<glyph glyph-name="I" unicode="I" horiz-adv-x="229" d="M82 0 L82 706 L149 706 L149 0 L82 0 Z " />
<glyph glyph-name="J" unicode="J" horiz-adv-x="625" d="M558 270 Q558 227 553 188 Q548 149 534 116 Q520 83 493.5 56 Q467 29 424 9 Q392 -5 358 -11.5 Q324 -18 290 -18 Q221 -18 157.5 6 Q94 30 52 87 Q37 107 26.5 128.5 Q16 150 6 173 L76 200 Q80 186 84.5 171.5 Q89 157 97 144 Q129 90 181.5 67.5 Q234 45 294 45 Q366 45 406 68.5 Q446 92 465 132 Q484 172 488 224 Q492 276 492 333 L492 706 L558 706 L558 270 Z " />
<glyph glyph-name="K" unicode="K" horiz-adv-x="792" d="M699 0 L384 391 L150 201 L150 0 L83 0 L83 706 L150 706 L150 277 L678 706 L771 706 L437 434 L788 0 L699 0 Z " />
<glyph glyph-name="L" unicode="L" horiz-adv-x="688" d="M83 0 L83 706 L153 706 L153 59 L667 59 L667 0 L83 0 Z " />
<glyph glyph-name="M" unicode="M" horiz-adv-x="938" d="M794 0 L794 629 Q723 470 650.5 314 Q578 158 506 0 L436 0 L166 576 Q160 589 155.5 602 Q151 615 146 629 L146 0 L82 0 L82 706 L172 706 L440 134 Q449 115 457 97 Q465 79 472 59 L769 706 L857 706 L857 0 L794 0 Z " />
<glyph glyph-name="N" unicode="N" horiz-adv-x="896" d="M751 0 L146 616 L146 0 L83 0 L83 706 L146 706 L751 87 L751 706 L814 706 L814 0 L751 0 Z " />
<glyph glyph-name="O" unicode="O" horiz-adv-x="917" d="M876 356 Q876 278 845 207 Q820 149 778.5 106.5 Q737 64 685 36 Q633 8 574 -5.5 Q515 -19 454 -19 Q371 -19 296 6 Q221 31 164.5 79 Q108 127 75 196.5 Q42 266 42 354 Q42 441 75 510 Q108 579 164.5 627.5 Q221 676 295 702 Q369 728 451 728 Q499 728 546 721 Q593 714 638 697 Q692 676 736 642 Q780 608 811 564 Q842 520 859 467 Q876 414 876 356 Z M799 359 Q799 425 775 484.5 Q751 544 700 588 Q678 608 648.5 623 Q619 638 586.5 648 Q554 658 521.5 663 Q489 668 459 668 Q389 668 326.5 646 Q264 624 217 583.5 Q170 543 143 484.5 Q116 426 116 352 Q116 277 143 219 Q170 161 217 121.5 Q264 82 326.5 61.5 Q389 41 460 41 Q532 41 594 62.5 Q656 84 701.5 125 Q747 166 773 225 Q799 284 799 359 Z " />
<glyph glyph-name="P" unicode="P" horiz-adv-x="812" d="M794 512 Q794 484 786 455 Q778 426 761 403 Q740 374 714.5 357 Q689 340 660 331 Q631 322 599.5 319 Q568 316 535 316 L152 316 L152 0 L82 0 L82 706 L558 706 Q588 706 616.5 703 Q645 700 671 691 Q697 682 720 666 Q743 650 761 624 Q794 575 794 512 Z M721 513 Q721 530 716.5 549.5 Q712 569 704 583 Q679 627 642 637.5 Q605 648 558 648 L152 648 L152 374 L530 374 Q566 374 600 379.5 Q634 385 661 400.5 Q688 416 704.5 443 Q721 470 721 513 Z " />
<glyph glyph-name="Q" unicode="Q" horiz-adv-x="917" d="M859 -49 L694 42 Q664 26 637 14.5 Q610 3 582.5 -4.5 Q555 -12 526 -16 Q497 -20 462 -20 Q406 -20 351.5 -9.5 Q297 1 248 23.5 Q199 46 158 82.5 Q117 119 88 170 Q40 256 40 354 Q40 407 54.5 456.5 Q69 506 96 548.5 Q123 591 161.5 625 Q200 659 248 681 Q301 705 353.5 715 Q406 725 463 725 Q521 725 577 712 Q633 699 682.5 672 Q732 645 772 604.5 Q812 564 838 510 Q856 473 865 433 Q874 393 874 351 Q874 295 856.5 241.5 Q839 188 807 143 Q795 126 780 110.5 Q765 95 750 81 L889 5 L859 -49 Z M798 355 Q798 430 770.5 488 Q743 546 696.5 585 Q650 624 587.5 644 Q525 664 454 664 Q401 664 347 650 Q296 637 253 609 Q210 581 179.5 542 Q149 503 132 455.5 Q115 408 115 354 Q115 278 141.5 219.5 Q168 161 214.5 121 Q261 81 323.5 60.5 Q386 40 458 40 Q529 40 591 61.5 Q653 83 699 123.5 Q745 164 771.5 222.5 Q798 281 798 355 Z " />
<glyph glyph-name="R" unicode="R" horiz-adv-x="875" d="M753 0 L474 315 L151 315 L151 0 L83 0 L83 706 L586 706 Q616 706 644 703 Q672 700 697.5 691.5 Q723 683 745 666.5 Q767 650 785 623 Q801 599 808 570 Q815 541 815 512 Q815 478 805 446 Q795 414 772 388 Q751 364 727 350 Q703 336 676.5 329 Q650 322 621.5 319.5 Q593 317 564 315 L848 0 L753 0 Z M741 516 Q741 533 736.5 552.5 Q732 572 722 587 Q698 625 663.5 636.5 Q629 648 586 648 L151 648 L151 375 L545 375 Q569 375 593 376.5 Q617 378 639.5 383.5 Q662 389 682 401 Q702 413 717 434 Q729 451 735 473.5 Q741 496 741 516 Z " />
<glyph glyph-name="S" unicode="S" horiz-adv-x="812" d="M764 210 Q764 181 754 152 Q744 123 727 100 Q701 65 665 42.5 Q629 20 588.5 6.5 Q548 -7 504.5 -12.5 Q461 -18 420 -18 Q376 -18 329.5 -13.5 Q283 -9 238.5 3.5 Q194 16 154.5 38 Q115 60 84 95 Q67 114 55 134.5 Q43 155 32 177 L106 205 Q125 156 157.5 124.5 Q190 93 231 75 Q272 57 319 50.5 Q366 44 414 44 Q451 44 499 51 Q547 58 589.5 76.5 Q632 95 661.5 126.5 Q691 158 691 206 Q691 252 654 283 Q635 299 589.5 310.5 Q544 322 492 330.5 Q440 339 391 345 Q342 351 316 354 Q279 359 239 367.5 Q199 376 165 393.5 Q131 411 109 441 Q87 471 87 518 Q87 549 97.5 576 Q108 603 127 626 Q151 655 185 674.5 Q219 694 258 705 Q297 716 337 720.5 Q377 725 413 725 Q460 725 506 717.5 Q552 710 595 693.5 Q638 677 676 650.5 Q714 624 743 586 L680 551 Q656 584 625 605.5 Q594 627 558.5 640 Q523 653 484.5 658.5 Q446 664 407 664 Q375 664 332 658 Q289 652 250.5 636.5 Q212 621 185.5 593.5 Q159 566 159 523 Q159 491 178.5 472 Q198 453 225.5 442.5 Q253 432 284 427 Q315 422 339 419 Q368 415 413 409.5 Q458 404 505 397 Q552 390 594.5 380.5 Q637 371 662 359 Q710 336 737 300 Q764 264 764 210 Z " />
<glyph glyph-name="T" unicode="T" horiz-adv-x="688" d="M383 648 L383 0 L316 0 L316 648 L-1 648 L-1 706 L686 706 L686 648 L383 648 Z " />
<glyph glyph-name="U" unicode="U" horiz-adv-x="875" d="M794 283 Q794 198 768 140.5 Q742 83 695.5 47.5 Q649 12 585 -3 Q521 -18 444 -18 Q389 -18 333 -10.5 Q277 -3 228.5 18 Q180 39 143.5 77 Q107 115 90 177 Q82 206 80.5 237 Q79 268 79 298 L79 706 L144 706 L144 327 Q144 293 145 253 Q146 213 158 181 Q174 140 202 113.5 Q230 87 265.5 72 Q301 57 341.5 51.5 Q382 46 421 46 Q454 46 490.5 48 Q527 50 562 58 Q597 66 628.5 81.5 Q660 97 683 125 Q701 147 711 172 Q721 197 725 223.5 Q729 250 729.5 278 Q730 306 730 333 L730 706 L794 706 L794 283 Z " />
<glyph glyph-name="V" unicode="V" horiz-adv-x="708" d="M399 0 L333 0 L0 706 L76 706 L368 74 L651 706 L726 706 L399 0 Z " />
<glyph glyph-name="W" unicode="W" horiz-adv-x="1062" d="M835 0 L753 0 L556 567 Q550 584 544.5 601.5 Q539 619 535 637 Q481 476 426.5 318 Q372 160 317 0 L237 0 L3 706 L74 706 L255 151 Q262 131 268 110.5 Q274 90 280 70 Q305 151 332.5 230.5 Q360 310 388 391 Q416 470 443 548.5 Q470 627 498 706 L571 706 L764 161 Q772 138 779 115.5 Q786 93 794 70 Q802 101 810.5 131 Q819 161 829 191 L992 706 L1059 706 L835 0 Z " />
<glyph glyph-name="X" unicode="X" horiz-adv-x="729" d="M653 0 L360 315 L88 0 L4 0 L317 362 L-4 706 L83 706 L360 410 L617 706 L701 706 L402 362 L740 0 L653 0 Z " />
<glyph glyph-name="Y" unicode="Y" horiz-adv-x="729" d="M403 286 L403 0 L339 0 L339 286 L6 706 L90 706 L371 343 L643 706 L723 706 L403 286 Z " />
<glyph glyph-name="Z" unicode="Z" horiz-adv-x="750" d="M97 59 L732 59 L732 0 L0 0 L0 57 L659 648 L55 648 L55 706 L750 706 L750 644 L97 59 Z " />
<glyph glyph-name="bracketleft" unicode="&#x5b;" horiz-adv-x="292" d="M81 -212 L81 730 L268 730 L268 668 L146 668 L146 -150 L268 -150 L268 -212 L81 -212 Z " />
<glyph glyph-name="backslash" unicode="&#x5c;" horiz-adv-x="500" d="M416 0 L17 706 L77 706 L475 0 L416 0 Z " />
<glyph glyph-name="bracketright" unicode="&#x5d;" horiz-adv-x="292" d="M24 -212 L24 -151 L146 -151 L146 667 L24 667 L24 730 L211 730 L211 -212 L24 -212 Z " />
<glyph glyph-name="asciicircum" unicode="&#x5e;" horiz-adv-x="772" d="M560 287 L391 643 L213 286 L145 286 L358 706 L427 706 L627 286 L560 287 Z " />
<glyph glyph-name="underscore" unicode="&#x5f;" horiz-adv-x="500" d="M-10 -206 L-10 -147 L510 -147 L510 -206 L-10 -206 Z " />
<glyph glyph-name="grave" unicode="&#x60;" horiz-adv-x="375" d="M237 554 L95 699 L205 699 L280 554 L237 554 Z " />
<glyph glyph-name="a" unicode="a" horiz-adv-x="667" d="M666 0 Q651 -1 636.5 -2.5 Q622 -4 607 -4 Q565 -4 548 15 Q531 34 525 72 Q513 64 501.5 55.5 Q490 47 477 39 Q430 12 373.5 -0.5 Q317 -13 263 -13 Q238 -13 212.5 -11 Q187 -9 162.5 -2 Q138 5 116.5 17 Q95 29 78 49 Q41 92 41 148 Q41 193 63 227.5 Q85 262 124 282 Q156 298 209 306.5 Q262 315 320 318.5 Q378 322 433 322.5 Q488 323 524 323 Q523 348 520 369 Q517 390 498 409 Q485 422 462 429.5 Q439 437 413 441 Q387 445 362 446.5 Q337 448 320 448 Q287 448 255.5 445.5 Q224 443 196.5 433 Q169 423 148.5 402.5 Q128 382 117 346 L47 349 Q49 366 57 384 Q65 402 74 416 Q93 446 121.5 464 Q150 482 183 491.5 Q216 501 250.5 504.5 Q285 508 317 508 Q346 508 382 505.5 Q418 503 452.5 494.5 Q487 486 517 470 Q547 454 564 426 Q578 403 581.5 382 Q585 361 585 335 L585 109 Q585 71 608 58.5 Q631 46 666 51 L666 0 Z M525 268 Q494 268 443.5 267.5 Q393 267 339.5 263.5 Q286 260 238.5 252 Q191 244 167 230 Q143 216 127.5 196 Q112 176 112 147 Q112 116 127.5 96.5 Q143 77 166.5 66 Q190 55 218 50.5 Q246 46 270 46 Q296 46 329 51 Q362 56 394.5 66.5 Q427 77 455 93.5 Q483 110 499 133 Q520 163 522.5 198 Q525 233 525 268 Z " />
<glyph glyph-name="b" unicode="b" horiz-adv-x="708" d="M660 245 Q660 182 635.5 134 Q611 86 570 54 Q529 22 475.5 5.5 Q422 -11 364 -11 Q337 -11 304.5 -6 Q272 -1 241 10 Q210 21 182.5 37.5 Q155 54 138 77 L138 0 L72 0 L72 706 L138 706 L138 414 Q158 440 184.5 458 Q211 476 242 487 Q273 498 305.5 502.5 Q338 507 369 507 Q429 507 482 489.5 Q535 472 574.5 439 Q614 406 637 357 Q660 308 660 245 Z M588 247 Q588 312 553 359 Q518 406 458 428 Q430 438 402 441.5 Q374 445 345 445 Q293 445 243 423 Q183 397 160 352.5 Q137 308 137 245 Q137 193 153.5 155.5 Q170 118 200 94 Q230 70 271.5 58.5 Q313 47 362 47 Q408 47 449 59.5 Q490 72 521 97.5 Q552 123 570 160.5 Q588 198 588 247 Z " />
<glyph glyph-name="c" unicode="c" horiz-adv-x="667" d="M648 168 Q631 141 613 116.5 Q595 92 572 69 Q526 25 462.5 7 Q399 -11 337 -11 Q278 -11 224 5.5 Q170 22 129 55 Q88 88 64 137 Q40 186 40 250 Q40 315 66 364 Q92 413 135 446.5 Q178 480 233.5 497 Q289 514 348 514 Q392 514 434.5 504 Q477 494 515 474.5 Q553 455 585 425 Q617 395 638 356 L572 328 Q532 394 478.5 425.5 Q425 457 347 457 Q276 457 218 428 Q160 399 131 331 Q114 291 114 250 Q114 201 133 163 Q152 125 183.5 99.5 Q215 74 256.5 60.5 Q298 47 344 47 Q395 47 448.5 65.5 Q502 84 537 122 Q552 139 561.5 156 Q571 173 582 193 L648 168 Z " />
<glyph glyph-name="d" unicode="d" horiz-adv-x="708" d="M569 0 L569 76 Q526 25 467.5 5.5 Q409 -14 344 -14 Q285 -14 231 3 Q177 20 135.5 53.5 Q94 87 69 136 Q44 185 44 248 Q44 312 69.5 361 Q95 410 137.5 443 Q180 476 235 492.5 Q290 509 348 509 Q375 509 407.5 504 Q440 499 471 487.5 Q502 476 528 458.5 Q554 441 569 415 L569 706 L635 706 L635 0 L569 0 Z M569 251 Q569 283 562 315 Q555 347 536 373 Q520 396 496.5 411.5 Q473 427 447 436 Q421 445 393 449 Q365 453 338 453 Q318 453 297.5 448.5 Q277 444 257 437 Q191 414 154.5 366.5 Q118 319 118 248 Q118 204 137 161 Q152 129 175 106.5 Q198 84 226.5 70 Q255 56 287 50 Q319 44 353 44 Q379 44 406 48.5 Q433 53 458 62.5 Q483 72 504 88 Q525 104 540 127 Q557 153 563 186.5 Q569 220 569 251 Z " />
<glyph glyph-name="e" unicode="e" horiz-adv-x="667" d="M627 135 Q573 61 504.5 24 Q436 -13 344 -13 Q285 -13 231 6 Q177 25 136 60 Q95 95 71 145 Q47 195 47 258 Q47 319 69.5 366 Q92 413 131 445 Q170 477 221 493.5 Q272 510 329 510 Q375 510 418.5 498.5 Q462 487 499 464.5 Q536 442 565 408.5 Q594 375 610 330 Q618 308 621.5 285.5 Q625 263 627 240 L116 240 Q120 192 140.5 155.5 Q161 119 192.5 94.5 Q224 70 265 57.5 Q306 45 351 45 Q424 45 480.5 77 Q537 109 575 172 L627 135 Z M547 296 Q540 336 518.5 366 Q497 396 466.5 415.5 Q436 435 399.5 444.5 Q363 454 325 454 Q287 454 253 443.5 Q219 433 191.5 413 Q164 393 145 363.5 Q126 334 118 296 L547 296 Z " />
<glyph glyph-name="f" unicode="f" horiz-adv-x="354" d="M174 443 L174 0 L108 0 L108 443 L10 443 L10 494 L108 494 Q108 507 107.5 528 Q107 549 107 571.5 Q107 594 109 615.5 Q111 637 116 650 Q133 694 167.5 708.5 Q202 723 245 723 Q295 723 341 713 L341 655 Q319 660 299 662.5 Q279 665 256 665 Q207 665 190.5 643 Q174 621 174 575 L174 494 L341 494 L341 443 L174 443 Z " />
<glyph glyph-name="g" unicode="g" horiz-adv-x="688" d="M617 39 Q617 8 614 -23.5 Q611 -55 597 -84 Q580 -120 551 -142.5 Q522 -165 486.5 -177.5 Q451 -190 412.5 -195 Q374 -200 338 -200 Q294 -200 249 -194 Q204 -188 167.5 -170.5 Q131 -153 105.5 -121 Q80 -89 75 -36 L144 -36 Q146 -50 149 -62 Q152 -74 161 -86 Q173 -103 194.5 -113.5 Q216 -124 240 -130 Q264 -136 289 -138.5 Q314 -141 333 -141 Q391 -141 447 -127 Q489 -116 511 -96.5 Q533 -77 542.5 -51 Q552 -25 553 8 Q554 41 554 78 Q546 69 538 60.5 Q530 52 521 44 Q502 29 477.5 18 Q453 7 427 0 Q401 -7 374 -10.5 Q347 -14 323 -14 Q263 -14 211.5 4 Q160 22 121.5 56 Q83 90 61.5 139 Q40 188 40 250 Q40 331 83 393.5 Q126 456 201 485 Q235 499 269.5 504 Q304 509 340 509 Q399 509 456.5 488 Q514 467 555 422 L553 494 L617 494 L617 39 Z M555 250 Q555 280 549 314 Q543 348 525 374 Q510 396 488.5 411 Q467 426 442 435.5 Q417 445 390.5 449.5 Q364 454 338 454 Q292 454 251 440.5 Q210 427 179 400.5 Q148 374 130 336 Q112 298 112 249 Q112 201 129.5 163 Q147 125 177 98.5 Q207 72 247.5 58.5 Q288 45 334 45 Q391 45 443 66 Q505 92 530 138.5 Q555 185 555 250 Z " />
<glyph glyph-name="h" unicode="h" horiz-adv-x="708" d="M569 0 L569 260 Q569 287 565 316.5 Q561 346 547 370 Q532 395 510.5 410 Q489 425 463.5 433.5 Q438 442 410.5 444.5 Q383 447 357 447 Q327 447 295.5 441.5 Q264 436 235 423 Q206 410 182.5 389.5 Q159 369 147 339 Q140 322 138 306 Q136 290 136 273 L136 0 L70 0 L70 706 L136 706 L136 414 Q153 441 181 458.5 Q209 476 241.5 487 Q274 498 308 502.5 Q342 507 371 507 Q394 507 421.5 504 Q449 501 476 494 Q503 487 527.5 476 Q552 465 570 449 Q611 412 622.5 367 Q634 322 634 270 L634 0 L569 0 Z " />
<glyph glyph-name="i" unicode="i" horiz-adv-x="208" d="M71 582 L71 678 L137 678 L137 582 L71 582 Z M71 0 L71 494 L137 494 L137 0 L71 0 Z " />
<glyph glyph-name="j" unicode="j" horiz-adv-x="208" d="M72 580 L72 677 L136 677 L136 580 L72 580 Z M136 -59 Q136 -128 105 -159 Q74 -190 2 -190 Q-21 -190 -43.5 -186.5 Q-66 -183 -89 -178 L-89 -118 Q-70 -123 -51.5 -127 Q-33 -131 -13 -131 Q31 -131 51.5 -115.5 Q72 -100 72 -55 L72 494 L136 494 L136 -59 Z " />
<glyph glyph-name="k" unicode="k" horiz-adv-x="667" d="M573 0 L302 262 L137 135 L137 0 L72 0 L72 706 L137 706 L137 213 L507 494 L607 494 L357 303 L671 0 L573 0 Z " />
<glyph glyph-name="l" unicode="l" horiz-adv-x="208" d="M72 0 L72 706 L138 706 L138 0 L72 0 Z " />
<glyph glyph-name="m" unicode="m" horiz-adv-x="1167" d="M1028 0 L1028 276 Q1028 323 1011.5 355 Q995 387 966.5 406.5 Q938 426 901 435 Q864 444 822 444 Q786 444 749.5 436.5 Q713 429 683.5 411 Q654 393 635 364.5 Q616 336 616 294 L616 0 L550 0 L550 272 Q550 320 535 353 Q520 386 493.5 406 Q467 426 430.5 435 Q394 444 350 444 Q324 444 294 439.5 Q264 435 236 424.5 Q208 414 184.5 396.5 Q161 379 149 353 Q141 338 139.5 322 Q138 306 138 289 L138 0 L71 0 L71 494 L138 494 L138 430 Q183 472 238.5 490 Q294 508 354 508 Q386 508 419 502.5 Q452 497 483 485 Q514 473 540 453.5 Q566 434 585 406 Q606 434 634.5 453 Q663 472 694.5 484 Q726 496 760.5 501 Q795 506 828 506 Q866 506 905 498.5 Q944 491 978.5 474.5 Q1013 458 1040.5 431.5 Q1068 405 1082 366 Q1089 346 1091 329 Q1093 312 1093 292 L1093 0 L1028 0 Z " />
<glyph glyph-name="n" unicode="n" horiz-adv-x="708" d="M572 0 L572 287 Q572 335 554 365.5 Q536 396 506.5 413.5 Q477 431 439 438 Q401 445 361 445 Q323 445 283 437.5 Q243 430 210.5 412 Q178 394 157.5 363.5 Q137 333 137 287 L137 0 L71 0 L71 494 L137 494 L137 425 Q148 435 158 444.5 Q168 454 180 462 Q199 474 222.5 483 Q246 492 271.5 497.5 Q297 503 322 505.5 Q347 508 369 508 Q402 508 438 503 Q474 498 507 485.5 Q540 473 568 452.5 Q596 432 613 400 Q630 370 634 338.5 Q638 307 638 273 L638 0 L572 0 Z " />
<glyph glyph-name="o" unicode="o" horiz-adv-x="708" d="M664 243 Q664 179 637 131 Q610 83 565.5 51 Q521 19 465 2.5 Q409 -14 352 -14 Q309 -14 267.5 -6 Q226 2 189 19 Q152 36 121.5 64 Q91 92 71 132 Q43 186 43 246 Q43 312 69 361.5 Q95 411 138 444 Q181 477 237 493.5 Q293 510 353 510 Q382 510 410.5 507 Q439 504 467 496 Q557 470 610.5 403.5 Q664 337 664 243 Z M590 246 Q590 297 571 336 Q552 375 520 401.5 Q488 428 445.5 442 Q403 456 355 456 Q307 456 264 442.5 Q221 429 188.5 402 Q156 375 137 336 Q118 297 118 246 Q118 194 136.5 156 Q155 118 187 92.5 Q219 67 261 54.5 Q303 42 351 42 Q398 42 441.5 54.5 Q485 67 518 92.5 Q551 118 570.5 156 Q590 194 590 246 Z " />
<glyph glyph-name="p" unicode="p" horiz-adv-x="708" d="M660 248 Q660 186 635 137.5 Q610 89 568.5 56 Q527 23 473 5.5 Q419 -12 362 -12 Q296 -12 240 6.5 Q184 25 138 76 L138 -187 L74 -187 L74 494 L138 494 L138 416 Q159 442 187 459.5 Q215 477 246.5 488 Q278 499 311.5 503.5 Q345 508 377 508 Q437 508 488.5 490.5 Q540 473 578 440 Q616 407 638 359.5 Q660 312 660 251 L660 248 Z M586 249 Q586 291 569 331 Q541 394 486 421.5 Q431 449 364 449 L361 449 Q312 449 271.5 436.5 Q231 424 201.5 398.5 Q172 373 155.5 335 Q139 297 139 247 Q139 221 143 194 Q147 167 160 144 Q175 118 197 100 Q219 82 246 70.5 Q273 59 302 54 Q331 49 359 49 Q404 49 445.5 62 Q487 75 518 100.5 Q549 126 567.5 163 Q586 200 586 249 Z " />
<glyph glyph-name="q" unicode="q" horiz-adv-x="708" d="M569 -180 L569 68 Q519 23 466.5 4.5 Q414 -14 347 -14 Q288 -14 233.5 3 Q179 20 137 53 Q95 86 70 135 Q45 184 45 248 Q45 312 68 361.5 Q91 411 130.5 444.5 Q170 478 223 495 Q276 512 336 512 Q400 512 462 492.5 Q524 473 569 426 L569 494 L634 494 L634 -180 L569 -180 Z M570 249 Q570 302 553.5 340 Q537 378 507.5 403.5 Q478 429 437 441 Q396 453 347 453 Q303 453 264 443 Q198 425 158.5 375 Q119 325 119 256 Q119 206 137.5 167 Q156 128 187.5 101.5 Q219 75 261.5 61 Q304 47 351 47 Q375 47 401.5 51.5 Q428 56 452.5 65.5 Q477 75 498.5 89.5 Q520 104 535 124 Q555 150 562.5 183.5 Q570 217 570 249 Z " />
<glyph glyph-name="r" unicode="r" horiz-adv-x="396" d="M384 440 Q371 442 358 443 Q345 444 332 444 Q293 444 257.5 433.5 Q222 423 195.5 402 Q169 381 153 349.5 Q137 318 137 276 L137 0 L71 0 L71 494 L137 494 L137 414 Q160 446 188 465 Q216 484 247.5 494 Q279 504 313.5 506.5 Q348 509 384 509 L384 440 Z " />
<glyph glyph-name="s" unicode="s" horiz-adv-x="625" d="M588 148 Q588 103 561 68 Q541 43 513.5 27 Q486 11 455 2.5 Q424 -6 391 -9 Q358 -12 328 -12 Q289 -12 243 -7.5 Q197 -3 154.5 11 Q112 25 78 51.5 Q44 78 30 122 L102 138 Q117 108 142 90.5 Q167 73 197.5 63.5 Q228 54 260.5 51 Q293 48 323 48 Q346 48 379.5 51.5 Q413 55 444.5 65.5 Q476 76 498.5 95.5 Q521 115 521 146 Q521 168 510 181 Q499 194 482 201.5 Q465 209 446 212 Q427 215 410 216 Q393 218 377 218.5 Q361 219 344 220 Q324 222 304 222.5 Q284 223 264 224 Q243 225 217.5 226.5 Q192 228 167 232.5 Q142 237 119.5 247 Q97 257 82 274 Q66 292 59 310.5 Q52 329 52 353 Q52 404 77 434.5 Q102 465 140 481.5 Q178 498 222.5 503 Q267 508 306 508 Q344 508 384 504 Q424 500 460.5 488 Q497 476 527.5 453 Q558 430 577 392 L504 377 Q493 401 468.5 415 Q444 429 414.5 437 Q385 445 355 447.5 Q325 450 302 450 Q281 450 250 447 Q219 444 190 434.5 Q161 425 140.5 407 Q120 389 120 360 Q120 339 134 322 Q149 304 176 300.5 Q203 297 224 295 Q253 293 281.5 291.5 Q310 290 339 288 Q364 287 395.5 285 Q427 283 458.5 277 Q490 271 517.5 258.5 Q545 246 562 223 Q588 189 588 148 Z " />
<glyph glyph-name="t" unicode="t" horiz-adv-x="313" d="M309 -4 Q292 -7 276 -9 Q260 -11 243 -11 Q192 -11 163.5 5 Q135 21 121.5 48.5 Q108 76 105.5 112.5 Q103 149 103 189 L103 443 L9 443 L9 494 L103 494 L103 663 L169 694 L169 494 L309 494 L309 443 L169 443 L169 199 Q169 171 170 143.5 Q171 116 180 94.5 Q189 73 208.5 60 Q228 47 265 47 Q276 47 287 48 Q298 49 309 50 L309 -4 Z " />
<glyph glyph-name="u" unicode="u" horiz-adv-x="708" d="M572 0 L572 72 Q521 25 459 6 Q397 -13 329 -13 Q292 -13 254 -7.5 Q216 -2 183 12 Q150 26 124 51 Q98 76 84 115 Q75 140 73 166 Q71 192 71 218 L71 494 L137 494 L137 224 Q137 194 140.5 165 Q144 136 161 110 Q174 91 194 79 Q214 67 237 60 Q260 53 284 50.5 Q308 48 329 48 Q356 48 390 52 Q424 56 456.5 66.5 Q489 77 516.5 94 Q544 111 558 136 Q567 153 569.5 167.5 Q572 182 572 200 L572 494 L637 494 L637 0 L572 0 Z " />
<glyph glyph-name="v" unicode="v" horiz-adv-x="562" d="M313 0 L252 0 L2 494 L77 494 L283 73 L488 494 L563 494 L313 0 Z " />
<glyph glyph-name="w" unicode="w" horiz-adv-x="854" d="M653 0 L590 0 L427 418 L267 0 L204 0 L0 494 L71 494 L235 81 L393 494 L462 494 L622 81 L785 494 L853 494 L653 0 Z " />
<glyph glyph-name="x" unicode="x" horiz-adv-x="562" d="M479 0 L281 211 L83 0 L-4 0 L240 257 L11 494 L100 494 L281 302 L462 494 L547 494 L321 257 L566 0 L479 0 Z " />
<glyph glyph-name="y" unicode="y" horiz-adv-x="562" d="M327 -38 Q308 -82 291.5 -111.5 Q275 -141 252.5 -159.5 Q230 -178 197 -186 Q164 -194 113 -194 Q62 -194 11 -182 L11 -120 Q37 -129 60.5 -133.5 Q84 -138 112 -138 Q145 -138 169 -132 Q193 -126 210.5 -112.5 Q228 -99 241 -78 Q254 -57 265 -27 L0 494 L79 494 L300 46 L489 494 L560 494 L327 -38 Z " />
<glyph glyph-name="z" unicode="z" horiz-adv-x="562" d="M11 0 L11 54 L451 440 L43 440 L43 494 L546 494 L546 448 L103 55 L546 55 L546 0 L11 0 Z " />
<glyph glyph-name="braceleft" unicode="&#x7b;" horiz-adv-x="314" d="M290 -217 Q280 -217 272 -217 Q264 -217 258 -216 Q201 -213 166 -183 Q133 -156 128 -104 Q127 -92 126.5 -72.5 Q126 -53 126 -30 L126 89 Q126 130 123 156 Q120 182 111 197 Q102 212 86 219.5 Q70 227 44 231 L44 286 Q70 291 86 298.5 Q102 306 111 321 Q120 336 123 361.5 Q126 387 126 428 L126 583 Q126 615 129 632 Q132 649 140 666 Q160 708 211 725 Q229 730 244.5 732 Q260 734 290 734 L290 679 L282 679 Q255 679 240 674.5 Q225 670 214 659 Q201 646 196 628 Q195 622 194 616 Q193 610 192 602 Q191 594 191 582 Q191 570 191 550 L191 415 Q191 395 190.5 381 Q190 367 189 357 Q188 347 186.5 339.5 Q185 332 182 323 Q176 300 160.5 285.5 Q145 271 116 259 Q136 251 146 244.5 Q156 238 166 225 Q177 213 182 194 Q185 186 186.5 178 Q188 170 189 160.5 Q190 151 190.5 137 Q191 123 191 103 L191 -74 Q191 -99 196.5 -114 Q202 -129 214 -141 Q226 -153 241 -157.5 Q256 -162 287 -162 L290 -162 L290 -217 Z " />
<glyph glyph-name="bar" unicode="&#x7c;" horiz-adv-x="230" d="M82 -212 L82 730 L148 730 L148 -212 L82 -212 Z " />
<glyph glyph-name="braceright" unicode="&#x7d;" horiz-adv-x="314" d="M272 232 Q246 227 230 219.5 Q214 212 205 197 Q196 182 193 156 Q190 130 190 89 L190 -66 Q190 -98 187 -114.5 Q184 -131 177 -148 Q157 -192 105 -207 Q88 -212 72 -214 Q56 -216 26 -217 L26 -162 L35 -162 Q61 -162 76.5 -157 Q92 -152 103 -141 Q115 -129 120 -110 Q122 -104 122.5 -98 Q123 -92 124 -84 Q125 -76 125 -64 Q125 -52 125 -32 L126 103 Q126 123 126.5 137 Q127 151 127.5 161 Q128 171 129.5 178.5 Q131 186 134 195 Q141 218 156 232.5 Q171 247 200 259 Q180 267 170 273.5 Q160 280 150 292 Q145 300 140.5 307.5 Q136 315 134 323 Q131 332 129.5 339.5 Q128 347 127.5 357 Q127 367 126.5 381 Q126 395 126 415 L125 592 Q125 617 119.5 632 Q114 647 103 659 Q91 671 75.5 675.5 Q60 680 30 680 L26 680 L26 734 Q37 734 45 734 Q53 734 59 733 Q87 731 110.5 723 Q134 715 151 701 Q166 687 176 667 Q186 647 188 622 Q190 610 190 590 Q190 570 190 548 L190 428 Q190 387 193 361.5 Q196 336 205 321 Q214 306 230 298.5 Q246 291 272 286 L272 232 Z " />
<glyph glyph-name="asciitilde" unicode="&#x7e;" horiz-adv-x="827" d="M747 318 Q734 304 724 293.5 Q714 283 705 275 Q696 267 686 260.5 Q676 254 664 247 Q612 218 556 218 Q536 218 520 221 Q504 224 480 232 Q465 237 450 243 Q435 249 418 256 L376 273 Q335 290 308 296.5 Q281 303 255 303 Q223 303 199 288 Q175 273 138 236 L127 225 L80 265 Q101 291 113 303 Q125 315 141 327 Q196 367 263 367 Q274 367 286 365.5 Q298 364 311 362 Q321 360 331 357 Q341 354 353.5 350 Q366 346 382.5 339.5 Q399 333 423 324 L470 306 Q490 298 504 293 Q518 288 528 285.5 Q538 283 545.5 282 Q553 281 562 281 Q581 281 601.5 287 Q622 293 639 304 Q653 313 665.5 323.5 Q678 334 701 358 L747 318 Z " />
<glyph glyph-name="nbspace" unicode="&#xa0;" horiz-adv-x="350" d="" />
<glyph glyph-name="exclamdown" unicode="&#xa1;" horiz-adv-x="313" d="M99 608 L99 706 L176 706 L176 608 L99 608 Z M102 0 L102 304 Q102 324 103 338 Q104 352 106 372 L115 507 L161 507 L169 358 Q171 336 172 320.5 Q173 305 173 283 L173 0 L102 0 Z " />
<glyph glyph-name="cent" unicode="&#xa2;" horiz-adv-x="667" d="M650 166 Q601 80 536 37.5 Q471 -5 371 -12 L371 -116 L316 -116 L316 -12 Q268 -9 223 4 Q182 17 148.5 40.5 Q115 64 91.5 96 Q68 128 55.5 167 Q43 206 43 249 Q43 340 94 404.5 Q145 469 232 494 Q253 500 273.5 502.5 Q294 505 316 507 L316 610 L371 610 L371 506 Q458 504 526.5 464.5 Q595 425 640 349 L579 323 Q548 383 492.5 416.5 Q437 450 371 453 L371 45 Q412 49 444 58.5 Q476 68 502 84.5 Q528 101 548.5 127 Q569 153 587 190 L650 166 Z M316 453 Q274 450 237.5 434 Q201 418 173.5 391.5 Q146 365 130.5 329 Q115 293 115 249 Q115 205 130.5 168.5 Q146 132 173 105.5 Q200 79 237 63 Q274 47 316 44 L316 453 Z " />
<glyph glyph-name="sterling" unicode="&#xa3;" horiz-adv-x="792" d="M746 189 Q746 148 737 112 Q728 76 708 49 Q688 22 657 6.5 Q626 -9 581 -9 Q551 -9 524 -1 Q497 7 472 19.5 Q447 32 423 48.5 Q399 65 376 81 Q342 36 295 13.5 Q248 -9 191 -9 Q164 -9 137 -2 Q110 5 87.5 19 Q65 33 51 55 Q37 77 37 108 Q37 136 50.5 155.5 Q64 175 84.5 187.5 Q105 200 130 206 Q155 212 179 212 Q227 212 266.5 197 Q306 182 348 162 Q349 169 349 175 Q349 181 349 188 Q349 210 340.5 231 Q332 252 319 271 Q306 290 289.5 306 Q273 322 256 335 L47 335 L47 391 L206 391 Q177 420 159.5 455.5 Q142 491 142 533 Q142 561 151.5 584.5 Q161 608 178 630 Q198 656 226 673 Q254 690 286 700.5 Q318 711 351.5 715 Q385 719 416 719 Q455 719 493.5 712.5 Q532 706 567 691 Q602 676 631 651.5 Q660 627 680 591 Q694 565 700 541 Q706 517 711 488 L644 488 Q640 537 620 570 Q600 603 568.5 623.5 Q537 644 497 652.5 Q457 661 413 661 Q382 661 346.5 655 Q311 649 280.5 633.5 Q250 618 230 592.5 Q210 567 210 528 Q210 506 218 486.5 Q226 467 238.5 450 Q251 433 266.5 418.5 Q282 404 298 391 L530 391 L530 335 L348 335 Q376 303 396 267 Q416 231 416 186 Q416 171 413 156.5 Q410 142 405 128 Q423 117 445.5 104 Q468 91 492 80 Q516 69 540 61.5 Q564 54 586 54 Q613 54 631.5 64.5 Q650 75 662 92 Q674 109 679.5 131 Q685 153 685 177 Q685 187 684.5 196.5 Q684 206 683 216 L745 216 Q746 209 746 202.5 Q746 196 746 189 Z M328 108 Q293 129 261 143 Q229 157 187 157 Q175 157 160 154.5 Q145 152 132 146 Q119 140 110.5 130 Q102 120 102 104 Q102 88 111 77 Q120 66 133 60 Q146 54 161.5 51.5 Q177 49 190 49 Q271 49 328 108 Z " />
<glyph glyph-name="currency" unicode="&#xa4;" horiz-adv-x="690" d="M555 495 Q611 424 611 339 Q611 294 597.5 257.5 Q584 221 554 182 L630 107 L583 62 L506 137 Q466 108 429 95.5 Q392 83 344 83 Q320 83 300 85.5 Q280 88 261.5 94.5 Q243 101 224 111.5 Q205 122 183 137 L105 64 L58 109 L136 182 Q105 224 92 259.5 Q79 295 79 341 Q79 386 91.5 421 Q104 456 136 496 L60 569 L107 614 L183 542 Q224 571 261 583.5 Q298 596 344 596 Q392 596 434 582 Q476 568 507 542 L584 615 L631 569 L555 495 Z M543 339 Q543 382 528 418 Q513 454 487 480.5 Q461 507 424.5 522 Q388 537 346 537 Q303 537 266.5 522 Q230 507 203 480.5 Q176 454 161 418 Q146 382 146 340 Q146 298 161.5 261.5 Q177 225 204 198.5 Q231 172 268.5 157 Q306 142 349 142 Q390 142 425.5 157 Q461 172 487 198.5 Q513 225 528 261 Q543 297 543 339 Z " />
<glyph glyph-name="yen" unicode="&#xa5;" horiz-adv-x="729" d="M470 369 L646 369 L646 314 L428 314 L403 281 L403 247 L646 247 L646 192 L403 192 L403 0 L339 0 L339 192 L83 192 L83 247 L339 247 L339 281 L312 314 L83 314 L83 369 L268 369 L6 695 L90 695 L370 337 L643 695 L723 695 L470 369 Z " />
<glyph glyph-name="brokenbar" unicode="&#xa6;" horiz-adv-x="230" d="M82 327 L82 730 L148 730 L148 327 L82 327 Z M82 -212 L82 191 L148 191 L148 -212 L82 -212 Z " />
<glyph glyph-name="section" unicode="&#xa7;" horiz-adv-x="688" d="M650 247 Q650 208 636.5 169.5 Q623 131 594 103 Q583 92 571.5 84.5 Q560 77 547 69 Q563 46 570.5 25.5 Q578 5 578 -24 Q578 -53 569.5 -77 Q561 -101 544 -124 Q510 -170 457.5 -187.5 Q405 -205 351 -205 Q279 -205 212.5 -185.5 Q146 -166 80 -138 L122 -86 Q179 -109 238 -127 Q297 -145 360 -145 Q386 -145 412 -138 Q438 -131 459 -117 Q480 -103 493.5 -81.5 Q507 -60 507 -30 Q507 -1 491.5 17.5 Q476 36 453 48 Q430 60 403.5 66.5 Q377 73 355 79 Q323 87 292.5 95 Q262 103 230 111 Q200 118 169 129 Q111 151 73.5 191 Q36 231 36 297 Q36 360 68.5 410 Q101 460 158 488 Q131 521 131 565 Q131 602 150 635 Q178 684 228.5 704 Q279 724 332 724 Q395 724 450.5 706 Q506 688 563 664 L525 612 Q479 633 428 648.5 Q377 664 326 664 Q305 664 282.5 659 Q260 654 241.5 643.5 Q223 633 211.5 615.5 Q200 598 200 573 Q200 543 216 527.5 Q232 512 258 503 Q294 490 336.5 480.5 Q379 471 422.5 459.5 Q466 448 507 432.5 Q548 417 580 393 Q612 369 631 333.5 Q650 298 650 247 Z M581 243 Q581 284 563.5 310 Q546 336 518.5 352.5 Q491 369 457 378.5 Q423 388 391 396 Q343 408 295.5 420 Q248 432 203 452 Q161 429 132.5 390 Q104 351 104 302 Q104 277 112.5 258 Q121 239 136 225.5 Q151 212 170.5 202.5 Q190 193 212 187 Q284 167 358 150 Q432 133 501 104 Q537 130 559 163.5 Q581 197 581 243 Z " />
<glyph glyph-name="dieresis" unicode="&#xa8;" horiz-adv-x="375" d="M285 569 L285 665 L355 665 L355 569 L285 569 Z M20 569 L20 665 L90 665 L90 569 L20 569 Z " />
<glyph glyph-name="copyright" unicode="&#xa9;" horiz-adv-x="833" d="M772 351 Q772 278 744 213.5 Q716 149 667.5 101 Q619 53 554 25 Q489 -3 415 -3 Q341 -3 276.5 25 Q212 53 164 101 Q116 149 88.5 214.5 Q61 280 61 355 Q61 429 88.5 493.5 Q116 558 164 606 Q212 654 277 681.5 Q342 709 417 709 Q480 709 543.5 685.5 Q607 662 658 617 Q709 572 740.5 505 Q772 438 772 351 Z M740 351 Q740 420 715 479.5 Q690 539 646.5 583 Q603 627 544 652 Q485 677 417 677 Q349 677 290 651.5 Q231 626 187 582 Q143 538 117.5 479 Q92 420 92 352 Q92 285 117.5 226 Q143 167 186.5 123.5 Q230 80 289.5 54.5 Q349 29 416 29 Q483 29 542 54.5 Q601 80 645 123.5 Q689 167 714.5 225.5 Q740 284 740 351 Z M645 280 Q635 262 628.5 250 Q622 238 616 229.5 Q610 221 604 213.5 Q598 206 589 197 Q560 165 516 147.5 Q472 130 421 130 Q372 130 331 146 Q290 162 261 190.5 Q232 219 216 259.5 Q200 300 200 349 Q200 398 216.5 439 Q233 480 263 509.5 Q293 539 334.5 555.5 Q376 572 425 572 Q473 572 516.5 554.5 Q560 537 592 505 Q606 491 615 478 Q624 465 638 439 L585 412 Q557 466 519 491.5 Q481 517 427 517 Q390 517 360 504.5 Q330 492 308 469.5 Q286 447 274 416 Q262 385 262 347 Q262 312 274 282 Q286 252 307.5 230.5 Q329 209 358.5 197 Q388 185 423 185 Q455 185 485 195.5 Q515 206 538 225 Q556 239 567 255.5 Q578 272 592 304 L645 280 Z " />
<glyph glyph-name="ordfeminine" unicode="&#xaa;" horiz-adv-x="437" d="M452 361 Q441 359 430 358 Q419 357 408 357 Q356 357 350 407 Q308 378 267.5 364.5 Q227 351 174 351 Q146 351 118 356 Q90 361 68 374 Q46 387 32 409.5 Q18 432 18 466 Q18 524 68 557 Q87 570 124 576.5 Q161 583 203 586 Q245 589 284.5 590 Q324 591 347 591 Q346 611 342 623.5 Q338 636 322 648 Q314 654 300 658.5 Q286 663 270 665 Q254 667 239 668 Q224 669 214 669 Q199 669 181.5 668 Q164 667 147.5 663 Q131 659 116 651.5 Q101 644 91 631 Q85 623 81.5 615.5 Q78 608 75 599 L21 601 Q25 615 29.5 628.5 Q34 642 42 654 Q55 674 74.5 686 Q94 698 116.5 705 Q139 712 163 714 Q187 716 209 716 Q233 716 260.5 714.5 Q288 713 313.5 705.5 Q339 698 359.5 683 Q380 668 389 641 Q396 620 396 594 L396 442 Q396 411 411 406 Q426 401 452 401 L452 361 Z M347 545 Q320 545 293.5 545 Q267 545 240 544 Q220 543 191.5 541.5 Q163 540 136.5 532.5 Q110 525 91.5 509 Q73 493 73 464 Q73 445 83.5 432 Q94 419 109.5 412 Q125 405 143 402 Q161 399 176 399 Q195 399 218.5 402.5 Q242 406 265 413.5 Q288 421 307 433.5 Q326 446 336 464 Q344 478 345.5 496.5 Q347 515 347 531 L347 545 Z " />
<glyph glyph-name="guillemotleft" unicode="&#xab;" horiz-adv-x="521" d="M264 285 L264 340 L467 513 L467 457 L329 312 L467 167 L467 110 L264 285 Z M55 285 L55 340 L255 511 L255 453 L119 312 L255 170 L255 112 L55 285 Z " />
<glyph glyph-name="logicalnot" unicode="&#xac;" horiz-adv-x="772" d="M621 0 L622 264 L58 264 L58 323 L683 323 L683 0 L621 0 Z " />
<glyph glyph-name="registered" unicode="&#xae;" horiz-adv-x="833" d="M772 351 Q772 278 744 213.5 Q716 149 667.5 101 Q619 53 554 25 Q489 -3 415 -3 Q341 -3 276.5 25 Q212 53 164 101 Q116 149 88.5 214.5 Q61 280 61 355 Q61 429 88.5 493.5 Q116 558 164 606 Q212 654 277 681.5 Q342 709 417 709 Q480 709 543.5 685.5 Q607 662 658 617 Q709 572 740.5 505 Q772 438 772 351 Z M740 351 Q740 420 715 479.5 Q690 539 646.5 583 Q603 627 544 652 Q485 677 417 677 Q349 677 290 651.5 Q231 626 187 582 Q143 538 117.5 479 Q92 420 92 352 Q92 285 117.5 226 Q143 167 186.5 123.5 Q230 80 289.5 54.5 Q349 29 416 29 Q483 29 542 54.5 Q601 80 645 123.5 Q689 167 714.5 225.5 Q740 284 740 351 Z M587 453 Q587 433 581 413 Q575 393 566 380 Q556 366 540 355 Q524 344 504 338 Q494 335 485.5 334 Q477 333 459 331 L586 147 L517 147 L394 330 L321 330 L321 147 L264 147 L264 563 L441 563 Q482 563 501.5 559 Q521 555 538 547 Q561 535 574 510 Q587 485 587 453 Z M530 451 Q530 487 507 503 Q495 511 482 512 Q472 514 455 514.5 Q438 515 419 515 L321 515 L321 378 L430 378 Q460 378 477 382 Q494 386 507 395 Q530 410 530 451 Z " />
<glyph glyph-name="macron" unicode="&#xaf;" horiz-adv-x="375" d="M20 569 L20 621 L355 621 L355 569 L20 569 Z " />
<glyph glyph-name="degree" unicode="&#xb0;" horiz-adv-x="354" d="M324 601 Q324 571 312.5 544 Q301 517 281 497 Q261 477 234 465.5 Q207 454 177 454 Q147 454 120 465.5 Q93 477 73 497 Q53 517 41.5 544 Q30 571 30 601 Q30 631 41.5 658 Q53 685 73 705 Q93 725 120 736.5 Q147 748 177 748 Q207 748 234 736.5 Q261 725 281 704.5 Q301 684 312.5 657.5 Q324 631 324 601 Z M263 601 Q263 637 238 662.5 Q213 688 177 688 Q141 688 115.5 662.5 Q90 637 90 601 Q90 565 115.5 539.5 Q141 514 177 514 Q213 514 238 539.5 Q263 565 263 601 Z " />
<glyph glyph-name="plusminus" unicode="&#xb1;" horiz-adv-x="772" d="M416 377 L416 137 L356 137 L356 377 L94 377 L94 435 L356 435 L356 673 L416 673 L416 435 L678 435 L678 377 L416 377 Z M94 0 L94 58 L678 58 L678 0 L94 0 Z " />
<glyph glyph-name="twosuperior" unicode="&#xb2;" horiz-adv-x="479" d="M53 258 L53 304 Q80 316 114.5 332 Q149 348 184.5 365.5 Q220 383 252.5 402 Q285 421 306 439 Q331 459 350 487 Q369 515 369 549 Q369 576 358 595.5 Q347 615 328.5 628 Q310 641 287 647.5 Q264 654 240 654 Q179 654 138.5 623 Q98 592 98 527 L51 534 Q55 556 59.5 576 Q64 596 76 616 Q102 659 146 677.5 Q190 696 238 696 Q271 696 303.5 687 Q336 678 361.5 659.5 Q387 641 402.5 613.5 Q418 586 418 549 Q418 513 403 484 Q388 455 364 431.5 Q340 408 311 389.5 Q282 371 254 356 Q224 340 194 326 Q164 312 133 298 L423 298 L423 258 L53 258 Z " />
<glyph glyph-name="threesuperior" unicode="&#xb3;" horiz-adv-x="479" d="M434 389 Q434 350 416 323.5 Q398 297 370.5 280.5 Q343 264 309 257 Q275 250 242 250 Q212 250 181.5 257 Q151 264 124.5 278.5 Q98 293 78 315 Q58 337 47 368 L90 382 Q95 373 99.5 364 Q104 355 110 347 Q133 316 170.5 304 Q208 292 245 292 Q267 292 291.5 296.5 Q316 301 337 312 Q358 323 371.5 341.5 Q385 360 385 387 Q385 410 374.5 425 Q364 440 347.5 448 Q331 456 311 459 Q291 462 273 462 L194 462 L194 502 Q212 502 234 501 Q256 500 278 502 Q300 504 320 511 Q340 518 353 533 Q368 551 368 574 Q368 597 356 612 Q344 627 326 636 Q308 645 286.5 648.5 Q265 652 247 652 Q216 652 181 642.5 Q146 633 126 607 Q119 598 112 581.5 Q105 565 104 554 L60 569 Q83 639 129.5 665.5 Q176 692 247 692 Q275 692 304.5 686 Q334 680 358.5 666 Q383 652 399 629.5 Q415 607 415 573 Q415 542 395.5 520.5 Q376 499 349 488 Q385 477 409.5 452.5 Q434 428 434 389 Z " />
<glyph glyph-name="acute" unicode="&#xb4;" horiz-adv-x="375" d="M137 555 L94 555 L172 700 L281 700 L137 555 Z " />
<glyph glyph-name="mu" unicode="&#xb5;" horiz-adv-x="721" d="M718 -1 Q694 -3 682.5 -4 Q671 -5 660 -5 Q618 -5 600 13.5 Q582 32 577 77 Q526 30 467 8.5 Q408 -13 327 -13 Q248 -13 192 11 Q176 18 165 26 Q154 34 137 51 L137 -187 L71 -187 L71 494 L137 494 L137 213 Q137 173 144 147.5 Q151 122 166 103 Q188 76 229.5 62 Q271 48 328 48 Q391 48 445 63.5 Q499 79 532 106 Q552 123 562 145.5 Q572 168 572 200 L572 494 L637 494 L637 108 Q637 80 652 64.5 Q667 49 693 49 Q698 49 704 49 Q710 49 718 50 L718 -1 Z " />
<glyph glyph-name="paragraph" unicode="&#xb6;" horiz-adv-x="640" d="M509 652 L509 -166 L451 -166 L451 652 L289 652 L289 -166 L230 -166 L230 329 Q155 342 114.5 389.5 Q74 437 74 512 Q74 595 126 649 Q156 679 195.5 692.5 Q235 706 295 706 L542 706 L542 652 L509 652 Z " />
<glyph glyph-name="periodcentered" unicode="&#xb7;" horiz-adv-x="271" d="M96 291 L96 390 L173 390 L173 291 L96 291 Z " />
<glyph glyph-name="cedilla" unicode="&#xb8;" horiz-adv-x="375" d="M286 -129 Q286 -152 274.5 -167 Q263 -182 245.5 -190.5 Q228 -199 207 -202 Q186 -205 168 -205 Q148 -205 128.5 -203 Q109 -201 89 -199 L89 -166 Q104 -168 119.5 -169 Q135 -170 150 -170 Q159 -170 171.5 -169 Q184 -168 195.5 -164.5 Q207 -161 215 -154 Q223 -147 223 -135 Q223 -121 214.5 -113 Q206 -105 194 -101.5 Q182 -98 168.5 -97.5 Q155 -97 145 -97 L145 19 L190 19 L190 -60 Q207 -61 224 -64 Q241 -67 254.5 -75 Q268 -83 277 -96 Q286 -109 286 -129 Z " />
<glyph glyph-name="onesuperior" unicode="&#xb9;" horiz-adv-x="479" d="M243 258 L243 589 Q218 574 197 568.5 Q176 563 147 563 Q142 563 138.5 563.5 Q135 564 130 564 L130 604 Q157 604 177.5 607.5 Q198 611 213 620.5 Q228 630 238.5 646.5 Q249 663 257 689 L290 689 L290 258 L243 258 Z " />
<glyph glyph-name="ordmasculine" unicode="&#xba;" horiz-adv-x="479" d="M455 530 Q455 484 435.5 449.5 Q416 415 384.5 393 Q353 371 313 360 Q273 349 232 349 Q191 349 153 361 Q115 373 86.5 396.5 Q58 420 41 454 Q24 488 24 532 Q24 579 42.5 613.5 Q61 648 92 671 Q123 694 162.5 705.5 Q202 717 244 717 Q286 717 324.5 704.5 Q363 692 392 668 Q421 644 438 609.5 Q455 575 455 530 Z M398 531 Q398 567 384.5 593.5 Q371 620 348.5 637.5 Q326 655 296.5 663.5 Q267 672 234 672 Q203 672 175.5 662 Q148 652 127 633.5 Q106 615 94 589 Q82 563 82 530 Q82 496 94.5 470.5 Q107 445 128.5 428 Q150 411 178.5 403 Q207 395 239 395 Q270 395 298.5 403.5 Q327 412 349 429.5 Q371 447 384.5 472.5 Q398 498 398 531 Z " />
<glyph glyph-name="guillemotright" unicode="&#xbb;" horiz-adv-x="521" d="M265 113 L265 171 L400 312 L265 454 L265 512 L465 339 L465 286 L265 113 Z M53 112 L53 168 L190 312 L53 457 L53 514 L255 341 L255 285 L53 112 Z " />
<glyph glyph-name="onequarter" unicode="&#xbc;" horiz-adv-x="1083" d="M935 113 L935 0 L889 0 L889 113 L620 113 L620 152 L887 432 L935 432 L935 155 L1028 155 L1028 113 L935 113 Z M351 0 L298 0 L698 688 L750 688 L351 0 Z M243 258 L243 589 Q218 574 197 568.5 Q176 563 147 563 Q142 563 138.5 563.5 Q135 564 130 564 L130 604 Q157 604 177.5 607.5 Q198 611 213 620.5 Q228 630 238.5 646.5 Q249 663 257 689 L290 689 L290 258 L243 258 Z M889 377 L678 155 L889 155 L889 377 Z " />
<glyph glyph-name="onehalf" unicode="&#xbd;" horiz-adv-x="1083" d="M657 0 L657 46 Q684 58 719 74 Q754 90 789 108 Q824 126 856 145 Q888 164 910 182 Q934 202 953.5 229.5 Q973 257 973 291 Q973 318 962 338 Q951 358 932.5 370.5 Q914 383 891 389.5 Q868 396 844 396 Q783 396 742.5 365 Q702 334 702 269 L655 276 Q659 298 664 318.5 Q669 339 680 358 Q706 401 750 419.5 Q794 438 842 438 Q875 438 907.5 429 Q940 420 965.5 401.5 Q991 383 1006.5 355.5 Q1022 328 1022 291 Q1022 255 1007 226 Q992 197 968 174 Q944 151 915 132.5 Q886 114 858 99 Q828 83 798 69 Q768 55 737 41 L1027 41 L1027 0 L657 0 Z M331 0 L277 0 L677 688 L730 688 L331 0 Z M243 258 L243 589 Q218 574 197 568.5 Q176 563 147 563 Q142 563 138.5 563.5 Q135 564 130 564 L130 604 Q157 604 177.5 607.5 Q198 611 213 620.5 Q228 630 238.5 646.5 Q249 663 257 689 L290 689 L290 258 L243 258 Z " />
<glyph glyph-name="threequarters" unicode="&#xbe;" horiz-adv-x="1083" d="M935 113 L935 0 L889 0 L889 113 L620 113 L620 152 L887 432 L935 432 L935 155 L1028 155 L1028 113 L935 113 Z M396 0 L342 0 L742 688 L794 688 L396 0 Z M434 389 Q434 350 416 323.5 Q398 297 370.5 280.5 Q343 264 309 257 Q275 250 242 250 Q212 250 181.5 257 Q151 264 124.5 278.5 Q98 293 78 315 Q58 337 47 368 L90 382 Q95 373 99.5 364 Q104 355 110 347 Q133 316 170.5 304 Q208 292 245 292 Q267 292 291.5 296.5 Q316 301 337 312 Q358 323 371.5 341.5 Q385 360 385 387 Q385 410 374.5 425 Q364 440 347.5 448 Q331 456 311 459 Q291 462 273 462 L194 462 L194 502 Q212 502 234 501 Q256 500 278 502 Q300 504 320 511 Q340 518 353 533 Q368 551 368 574 Q368 597 356 612 Q344 627 326 636 Q308 645 286.5 648.5 Q265 652 247 652 Q216 652 181 642.5 Q146 633 126 607 Q119 598 112 581.5 Q105 565 104 554 L60 569 Q83 639 129.5 665.5 Q176 692 247 692 Q275 692 304.5 686 Q334 680 358.5 666 Q383 652 399 629.5 Q415 607 415 573 Q415 542 395.5 520.5 Q376 499 349 488 Q385 477 409.5 452.5 Q434 428 434 389 Z M889 377 L678 155 L889 155 L889 377 Z " />
<glyph glyph-name="questiondown" unicode="&#xbf;" horiz-adv-x="708" d="M326 608 L326 706 L402 706 L402 608 L326 608 Z M628 202 Q591 93 520.5 38.5 Q450 -16 331 -16 Q279 -16 228.5 -3.5 Q178 9 138.5 36 Q99 63 75 105.5 Q51 148 51 207 Q51 255 68.5 296.5 Q86 338 124 368 Q141 382 162.5 392 Q184 402 204 409 Q225 417 246.5 422 Q268 427 288 435 Q302 441 312.5 447 Q323 453 328 468 Q332 477 332 488.5 Q332 500 333 510 L395 510 Q394 493 393 470 Q392 447 384 432 Q369 401 342.5 390.5 Q316 380 286 371 Q269 366 253.5 361.5 Q238 357 223 351 Q173 331 145 299 Q117 267 117 210 Q117 165 136 133.5 Q155 102 185 82 Q215 62 253.5 52.5 Q292 43 331 43 Q385 43 439.5 65.5 Q494 88 527 133 Q542 153 551 176.5 Q560 200 569 223 L628 202 Z " />
<glyph glyph-name="Agrave" unicode="&#xc0;" horiz-adv-x="792" d="M385 774 L236 900 L347 900 L433 774 L385 774 Z M713 0 L622 183 L167 183 L77 0 L6 0 L354 706 L430 706 L786 0 L713 0 Z M392 643 L194 239 L594 239 L392 643 Z " />
<glyph glyph-name="Aacute" unicode="&#xc1;" horiz-adv-x="792" d="M403 774 L358 774 L442 900 L554 900 L403 774 Z M713 0 L622 183 L167 183 L77 0 L6 0 L354 706 L430 706 L786 0 L713 0 Z M392 643 L194 239 L594 239 L392 643 Z " />
<glyph glyph-name="Acircumflex" unicode="&#xc2;" horiz-adv-x="792" d="M482 774 L397 851 L308 774 L245 774 L359 900 L438 900 L546 774 L482 774 Z M713 0 L622 183 L167 183 L77 0 L6 0 L354 706 L430 706 L786 0 L713 0 Z M392 643 L194 239 L594 239 L392 643 Z " />
<glyph glyph-name="Atilde" unicode="&#xc3;" horiz-adv-x="792" d="M604 873 Q581 837 553 814 Q525 791 479 791 Q455 791 431 797.5 Q407 804 383 811.5 Q359 819 336 825.5 Q313 832 290 832 Q264 832 249 820 Q234 808 217 791 L190 809 Q216 841 244.5 861.5 Q273 882 316 882 Q345 882 373 876 Q401 870 428 862 Q447 857 465.5 851 Q484 845 504 845 Q530 845 544.5 855 Q559 865 572 885 L604 873 Z M713 0 L622 183 L167 183 L77 0 L6 0 L354 706 L430 706 L786 0 L713 0 Z M392 643 L194 239 L594 239 L392 643 Z " />
<glyph glyph-name="Adieresis" unicode="&#xc4;" horiz-adv-x="792" d="M518 798 L518 894 L589 894 L589 798 L518 798 Z M195 798 L195 894 L266 894 L266 798 L195 798 Z M713 0 L622 183 L167 183 L77 0 L7 0 L354 706 L430 706 L786 0 L713 0 Z M392 645 L195 239 L593 239 L392 645 Z " />
<glyph glyph-name="Aring" unicode="&#xc5;" horiz-adv-x="792" d="M504 831 Q504 808 494 791.5 Q484 775 468 764 Q452 753 432 747.5 Q412 742 392 742 Q373 742 352.5 746.5 Q332 751 315 761.5 Q298 772 287.5 788 Q277 804 277 827 Q277 849 287 865.5 Q297 882 313 892.5 Q329 903 348.5 908 Q368 913 387 913 L394 913 Q413 913 432.5 908.5 Q452 904 468 894.5 Q484 885 494 869.5 Q504 854 504 831 Z M713 0 L622 183 L167 183 L77 0 L7 0 L354 706 L430 706 L786 0 L713 0 Z M451 828 Q451 854 430.5 863 Q410 872 389 872 Q369 872 349 861.5 Q329 851 329 827 Q329 815 335 807 Q341 799 350 794 Q359 789 369.5 787 Q380 785 390 785 Q410 785 430.5 794.5 Q451 804 451 828 Z M392 645 L194 239 L593 239 L392 645 Z " />
<glyph glyph-name="AE" unicode="&#xc6;" horiz-adv-x="1125" d="M517 0 L517 174 L188 174 L64 0 L-12 0 L494 706 L1071 706 L1071 648 L584 648 L584 394 L1030 394 L1030 334 L584 334 L584 59 L1085 59 L1085 0 L517 0 Z M228 230 L518 230 L518 598 Q518 611 519 623 Q520 635 523 648 L228 230 Z " />
<glyph glyph-name="Ccedilla" unicode="&#xc7;" horiz-adv-x="812" d="M807 191 Q744 81 650 31.5 Q556 -18 431 -18 L431 -60 Q449 -61 466.5 -64.5 Q484 -68 497.5 -76.5 Q511 -85 519 -98.5 Q527 -112 527 -133 Q527 -155 515 -169 Q503 -183 485 -191 Q467 -199 446.5 -202 Q426 -205 409 -205 Q389 -205 369.5 -203 Q350 -201 330 -199 L330 -166 Q345 -168 360.5 -169 Q376 -170 391 -170 Q400 -170 412.5 -169 Q425 -168 436.5 -164.5 Q448 -161 456 -154 Q464 -147 464 -135 Q464 -121 455.5 -113 Q447 -105 435 -101.5 Q423 -98 409.5 -97.5 Q396 -97 386 -97 L386 -16 Q311 -9 247.5 21.5 Q184 52 138.5 101 Q93 150 67 215 Q41 280 41 356 Q41 439 73 507.5 Q105 576 159.5 625 Q214 674 286 701 Q358 728 438 728 Q515 728 589.5 702 Q664 676 721 622 Q741 602 757.5 579.5 Q774 557 789 534 L729 500 Q718 517 707.5 534 Q697 551 683 566 Q638 617 573.5 641 Q509 665 442 665 Q373 665 313.5 642.5 Q254 620 210 579.5 Q166 539 141 481.5 Q116 424 116 353 Q116 284 141 227 Q166 170 209.5 129.5 Q253 89 312 66.5 Q371 44 439 44 Q517 44 586.5 72.5 Q656 101 707 162 Q718 176 727 190.5 Q736 205 746 219 L807 191 Z " />
<glyph glyph-name="Egrave" unicode="&#xc8;" horiz-adv-x="833" d="M406 774 L257 900 L368 900 L454 774 L406 774 Z M83 0 L83 706 L759 706 L759 648 L152 648 L152 400 L713 400 L713 340 L152 340 L152 59 L788 59 L788 0 L83 0 Z " />
<glyph glyph-name="Eacute" unicode="&#xc9;" horiz-adv-x="833" d="M424 774 L379 774 L463 900 L574 900 L424 774 Z M83 0 L83 706 L759 706 L759 648 L152 648 L152 400 L713 400 L713 340 L152 340 L152 59 L788 59 L788 0 L83 0 Z " />
<glyph glyph-name="Ecircumflex" unicode="&#xca;" horiz-adv-x="833" d="M503 774 L418 851 L329 774 L266 774 L380 900 L459 900 L567 774 L503 774 Z M83 0 L83 706 L759 706 L759 648 L152 648 L152 400 L713 400 L713 340 L152 340 L152 59 L788 59 L788 0 L83 0 Z " />
<glyph glyph-name="Edieresis" unicode="&#xcb;" horiz-adv-x="833" d="M544 804 L544 900 L617 900 L617 804 L544 804 Z M221 804 L221 900 L294 900 L294 804 L221 804 Z M83 0 L83 706 L759 706 L759 648 L152 648 L152 400 L713 400 L713 340 L152 340 L152 59 L788 59 L788 0 L83 0 Z " />
<glyph glyph-name="Igrave" unicode="&#xcc;" horiz-adv-x="229" d="M104 774 L-45 900 L66 900 L152 774 L104 774 Z M82 0 L82 706 L149 706 L149 0 L82 0 Z " />
<glyph glyph-name="Iacute" unicode="&#xcd;" horiz-adv-x="229" d="M122 774 L77 774 L161 900 L272 900 L122 774 Z M82 0 L82 706 L149 706 L149 0 L82 0 Z " />
<glyph glyph-name="Icircumflex" unicode="&#xce;" horiz-adv-x="229" d="M201 774 L116 851 L27 774 L-36 774 L78 900 L157 900 L265 774 L201 774 Z M82 0 L82 706 L149 706 L149 0 L82 0 Z " />
<glyph glyph-name="Idieresis" unicode="&#xcf;" horiz-adv-x="229" d="M242 804 L242 900 L315 900 L315 804 L242 804 Z M-81 804 L-81 900 L-8 900 L-8 804 L-81 804 Z M82 0 L82 706 L149 706 L149 0 L82 0 Z " />
<glyph glyph-name="Eth" unicode="&#xd0;" horiz-adv-x="854" d="M805 351 Q805 298 791.5 244 Q778 190 749 145 Q717 97 679 68.5 Q641 40 597.5 24.5 Q554 9 505 4.5 Q456 0 403 0 L83 0 L83 356 L0 356 L0 408 L83 408 L83 706 L451 706 Q485 706 519 702.5 Q553 699 585 688 Q640 670 681.5 636 Q723 602 750.5 557 Q778 512 791.5 459.5 Q805 407 805 351 Z M734 349 Q734 396 723.5 439.5 Q713 483 691 520.5 Q669 558 635.5 586.5 Q602 615 556 631 Q527 641 497 644.5 Q467 648 436 648 L153 648 L153 407 L501 407 L501 356 L153 356 L153 59 L394 59 Q442 59 491.5 63 Q541 67 586 87 Q627 105 655 132 Q683 159 700.5 193.5 Q718 228 726 267.5 Q734 307 734 349 Z " />
<glyph glyph-name="Ntilde" unicode="&#xd1;" horiz-adv-x="896" d="M656 873 Q633 837 605 814 Q577 791 531 791 Q507 791 482.5 797.5 Q458 804 434.5 811.5 Q411 819 388 825.5 Q365 832 343 832 Q317 832 301.5 820 Q286 808 269 791 L242 809 Q268 841 296.5 861.5 Q325 882 368 882 Q396 882 425 876 Q454 870 481 862 Q500 857 518 851 Q536 845 556 845 Q582 845 596.5 855 Q611 865 625 885 L656 873 Z M751 0 L146 616 L146 0 L83 0 L83 706 L146 706 L751 87 L751 706 L814 706 L814 0 L751 0 Z " />
<glyph glyph-name="Ograve" unicode="&#xd2;" horiz-adv-x="917" d="M448 774 L299 900 L409 900 L496 774 L448 774 Z M876 356 Q876 278 845 207 Q820 149 778.5 106.5 Q737 64 685 36 Q633 8 574 -5.5 Q515 -19 454 -19 Q371 -19 296 6 Q221 31 164.5 79 Q108 127 75 196.5 Q42 266 42 354 Q42 441 75 510 Q108 579 164.5 627.5 Q221 676 295 702 Q369 728 451 728 Q499 728 546 721 Q593 714 638 697 Q692 676 736 642 Q780 608 811 564 Q842 520 859 467 Q876 414 876 356 Z M799 359 Q799 425 775 484.5 Q751 544 700 588 Q678 608 648.5 623 Q619 638 586.5 648 Q554 658 521.5 663 Q489 668 459 668 Q389 668 326.5 646 Q264 624 217 583.5 Q170 543 143 484.5 Q116 426 116 352 Q116 277 143 219 Q170 161 217 121.5 Q264 82 326.5 61.5 Q389 41 460 41 Q532 41 594 62.5 Q656 84 701.5 125 Q747 166 773 225 Q799 284 799 359 Z " />
<glyph glyph-name="Oacute" unicode="&#xd3;" horiz-adv-x="917" d="M466 774 L420 774 L505 900 L616 900 L466 774 Z M876 356 Q876 278 845 207 Q820 149 778.5 106.5 Q737 64 685 36 Q633 8 574 -5.5 Q515 -19 454 -19 Q371 -19 296 6 Q221 31 164.5 79 Q108 127 75 196.5 Q42 266 42 354 Q42 441 75 510 Q108 579 164.5 627.5 Q221 676 295 702 Q369 728 451 728 Q499 728 546 721 Q593 714 638 697 Q692 676 736 642 Q780 608 811 564 Q842 520 859 467 Q876 414 876 356 Z M799 359 Q799 425 775 484.5 Q751 544 700 588 Q678 608 648.5 623 Q619 638 586.5 648 Q554 658 521.5 663 Q489 668 459 668 Q389 668 326.5 646 Q264 624 217 583.5 Q170 543 143 484.5 Q116 426 116 352 Q116 277 143 219 Q170 161 217 121.5 Q264 82 326.5 61.5 Q389 41 460 41 Q532 41 594 62.5 Q656 84 701.5 125 Q747 166 773 225 Q799 284 799 359 Z " />
<glyph glyph-name="Ocircumflex" unicode="&#xd4;" horiz-adv-x="917" d="M544 774 L460 851 L371 774 L307 774 L422 900 L501 900 L609 774 L544 774 Z M876 356 Q876 278 845 207 Q820 149 778.5 106.5 Q737 64 685 36 Q633 8 574 -5.5 Q515 -19 454 -19 Q371 -19 296 6 Q221 31 164.5 79 Q108 127 75 196.5 Q42 266 42 354 Q42 441 75 510 Q108 579 164.5 627.5 Q221 676 295 702 Q369 728 451 728 Q499 728 546 721 Q593 714 638 697 Q692 676 736 642 Q780 608 811 564 Q842 520 859 467 Q876 414 876 356 Z M799 359 Q799 425 775 484.5 Q751 544 700 588 Q678 608 648.5 623 Q619 638 586.5 648 Q554 658 521.5 663 Q489 668 459 668 Q389 668 326.5 646 Q264 624 217 583.5 Q170 543 143 484.5 Q116 426 116 352 Q116 277 143 219 Q170 161 217 121.5 Q264 82 326.5 61.5 Q389 41 460 41 Q532 41 594 62.5 Q656 84 701.5 125 Q747 166 773 225 Q799 284 799 359 Z " />
<glyph glyph-name="Otilde" unicode="&#xd5;" horiz-adv-x="917" d="M667 873 Q643 837 616 814 Q589 791 542 791 Q518 791 494 797.5 Q470 804 446 811.5 Q422 819 399 825.5 Q376 832 353 832 Q327 832 311.5 820.5 Q296 809 280 791 L252 809 Q278 841 306.5 861.5 Q335 882 379 882 Q407 882 435.5 876 Q464 870 491 862 Q510 857 528.5 851 Q547 845 567 845 Q592 845 607 855 Q622 865 635 885 L667 873 Z M876 356 Q876 278 845 207 Q820 149 778.5 106.5 Q737 64 685 36 Q633 8 574 -5.5 Q515 -19 454 -19 Q371 -19 296 6 Q221 31 164.5 79 Q108 127 75 196.5 Q42 266 42 354 Q42 441 75 510 Q108 579 164.5 627.5 Q221 676 295 702 Q369 728 451 728 Q499 728 546 721 Q593 714 638 697 Q692 676 736 642 Q780 608 811 564 Q842 520 859 467 Q876 414 876 356 Z M799 359 Q799 425 775 484.5 Q751 544 700 588 Q678 608 648.5 623 Q619 638 586.5 648 Q554 658 521.5 663 Q489 668 459 668 Q389 668 326.5 646 Q264 624 217 583.5 Q170 543 143 484.5 Q116 426 116 352 Q116 277 143 219 Q170 161 217 121.5 Q264 82 326.5 61.5 Q389 41 460 41 Q532 41 594 62.5 Q656 84 701.5 125 Q747 166 773 225 Q799 284 799 359 Z " />
<glyph glyph-name="Odieresis" unicode="&#xd6;" horiz-adv-x="917" d="M584 798 L584 895 L657 895 L657 798 L584 798 Z M261 798 L261 895 L333 895 L333 798 L261 798 Z M876 356 Q876 278 845 207 Q820 149 778.5 106.5 Q737 64 685 36 Q633 8 574 -5.5 Q515 -19 454 -19 Q371 -19 296 6 Q221 31 164.5 79 Q108 127 75 196.5 Q42 266 42 354 Q42 441 75 510 Q108 579 164.5 627.5 Q221 676 295 702 Q369 728 451 728 Q499 728 546 721 Q593 714 638 697 Q692 676 736 642 Q780 608 811 564 Q842 520 859 467 Q876 414 876 356 Z M799 359 Q799 425 775 484.5 Q751 544 700 588 Q678 608 648.5 623 Q619 638 586.5 648 Q554 658 521.5 663 Q489 668 459 668 Q389 668 326.5 646 Q264 624 217 583.5 Q170 543 143 484.5 Q116 426 116 352 Q116 277 143 219 Q170 161 217 121.5 Q264 82 326.5 61.5 Q389 41 460 41 Q532 41 594 62.5 Q656 84 701.5 125 Q747 166 773 225 Q799 284 799 359 Z " />
<glyph glyph-name="multiply" unicode="&#xd7;" horiz-adv-x="772" d="M430 294 L618 117 L572 75 L384 252 L194 78 L151 119 L341 294 L155 470 L201 512 L387 336 L578 512 L621 471 L430 294 Z " />
<glyph glyph-name="Oslash" unicode="&#xd8;" horiz-adv-x="917" d="M788 584 Q831 536 853 475 Q875 414 875 350 Q875 274 844 203 Q819 145 777.5 102 Q736 59 684.5 31 Q633 3 573.5 -10.5 Q514 -24 454 -24 Q374 -24 300 -1 Q226 22 164 74 L70 -2 L36 40 L125 113 Q84 166 62.5 222 Q41 278 41 345 Q41 435 74.5 505 Q108 575 165.5 623 Q223 671 299.5 696 Q376 721 461 721 Q542 721 614.5 698.5 Q687 676 749 624 L841 699 L877 657 L788 584 Z M699 583 Q648 626 582.5 644 Q517 662 451 662 Q400 662 353 650.5 Q306 639 265.5 615.5 Q225 592 193 556.5 Q161 521 140 473 Q127 444 120.5 412.5 Q114 381 114 350 Q114 296 129.5 247 Q145 198 177 155 L699 583 Z M799 351 Q799 459 737 543 L215 116 Q266 74 331 55 Q396 36 462 36 Q533 36 594 57.5 Q655 79 701 120 Q747 161 773 219.5 Q799 278 799 351 Z " />
<glyph glyph-name="Ugrave" unicode="&#xd9;" horiz-adv-x="875" d="M427 774 L278 900 L389 900 L475 774 L427 774 Z M794 283 Q794 198 768 140.5 Q742 83 695.5 47.5 Q649 12 585 -3 Q521 -18 444 -18 Q389 -18 333 -10.5 Q277 -3 228.5 18 Q180 39 143.5 77 Q107 115 90 177 Q82 206 80.5 237 Q79 268 79 298 L79 706 L144 706 L144 327 Q144 293 145 253 Q146 213 158 181 Q174 140 202 113.5 Q230 87 265.5 72 Q301 57 341.5 51.5 Q382 46 421 46 Q454 46 490.5 48 Q527 50 562 58 Q597 66 628.5 81.5 Q660 97 683 125 Q701 147 711 172 Q721 197 725 223.5 Q729 250 729.5 278 Q730 306 730 333 L730 706 L794 706 L794 283 Z " />
<glyph glyph-name="Uacute" unicode="&#xda;" horiz-adv-x="875" d="M445 774 L400 774 L484 900 L595 900 L445 774 Z M794 283 Q794 198 768 140.5 Q742 83 695.5 47.5 Q649 12 585 -3 Q521 -18 444 -18 Q389 -18 333 -10.5 Q277 -3 228.5 18 Q180 39 143.5 77 Q107 115 90 177 Q82 206 80.5 237 Q79 268 79 298 L79 706 L144 706 L144 327 Q144 293 145 253 Q146 213 158 181 Q174 140 202 113.5 Q230 87 265.5 72 Q301 57 341.5 51.5 Q382 46 421 46 Q454 46 490.5 48 Q527 50 562 58 Q597 66 628.5 81.5 Q660 97 683 125 Q701 147 711 172 Q721 197 725 223.5 Q729 250 729.5 278 Q730 306 730 333 L730 706 L794 706 L794 283 Z " />
<glyph glyph-name="Ucircumflex" unicode="&#xdb;" horiz-adv-x="875" d="M523 774 L439 851 L350 774 L287 774 L401 900 L480 900 L588 774 L523 774 Z M794 283 Q794 198 768 140.5 Q742 83 695.5 47.5 Q649 12 585 -3 Q521 -18 444 -18 Q389 -18 333 -10.5 Q277 -3 228.5 18 Q180 39 143.5 77 Q107 115 90 177 Q82 206 80.5 237 Q79 268 79 298 L79 706 L144 706 L144 327 Q144 293 145 253 Q146 213 158 181 Q174 140 202 113.5 Q230 87 265.5 72 Q301 57 341.5 51.5 Q382 46 421 46 Q454 46 490.5 48 Q527 50 562 58 Q597 66 628.5 81.5 Q660 97 683 125 Q701 147 711 172 Q721 197 725 223.5 Q729 250 729.5 278 Q730 306 730 333 L730 706 L794 706 L794 283 Z " />
<glyph glyph-name="Udieresis" unicode="&#xdc;" horiz-adv-x="875" d="M564 800 L564 896 L636 896 L636 800 L564 800 Z M241 800 L241 896 L313 896 L313 800 L241 800 Z M794 283 Q794 198 768 140.5 Q742 83 695.5 47.5 Q649 12 585 -3 Q521 -18 444 -18 Q389 -18 333 -10.5 Q277 -3 228.5 18 Q180 39 143.5 77 Q107 115 90 177 Q82 206 80.5 237 Q79 268 79 298 L79 706 L144 706 L144 327 Q144 293 145 253 Q146 213 158 181 Q174 140 202 113.5 Q230 87 265.5 72 Q301 57 341.5 51.5 Q382 46 421 46 Q454 46 490.5 48 Q527 50 562 58 Q597 66 628.5 81.5 Q660 97 683 125 Q701 147 711 172 Q721 197 725 223.5 Q729 250 729.5 278 Q730 306 730 333 L730 706 L794 706 L794 283 Z " />
<glyph glyph-name="Yacute" unicode="&#xdd;" horiz-adv-x="729" d="M372 774 L327 774 L411 900 L522 900 L372 774 Z M403 286 L403 0 L339 0 L339 286 L6 706 L90 706 L371 343 L643 706 L723 706 L403 286 Z " />
<glyph glyph-name="Thorn" unicode="&#xde;" horiz-adv-x="812" d="M794 368 Q794 305 761 256 Q742 227 716 210 Q690 193 660.5 184 Q631 175 599 172 Q567 169 535 169 L152 169 L152 0 L82 0 L82 706 L152 706 L152 559 L551 559 Q582 559 611.5 556.5 Q641 554 667.5 545.5 Q694 537 718 521 Q742 505 761 477 Q778 454 786 425.5 Q794 397 794 368 Z M721 366 Q721 383 716.5 402.5 Q712 422 704 436 Q691 458 675.5 470.5 Q660 483 641.5 489.5 Q623 496 602 498 Q581 500 558 500 L152 500 L152 227 L532 227 Q567 227 601 232.5 Q635 238 661.5 253.5 Q688 269 704.5 296 Q721 323 721 366 Z " />
<glyph glyph-name="germandbls" unicode="&#xdf;" horiz-adv-x="708" d="M664 218 Q664 112 605 50.5 Q546 -11 437 -11 Q350 -11 300 32.5 Q250 76 250 164 L314 164 Q318 103 348 74 Q378 45 441 45 Q518 45 556.5 92.5 Q595 140 595 213 Q595 285 568.5 321.5 Q542 358 500 373 Q458 388 405 388.5 Q352 389 298 389 L298 443 Q322 443 354 442.5 Q386 442 418.5 445.5 Q451 449 479.5 459 Q508 469 525 489 Q537 503 543.5 518 Q550 533 550 552 Q550 587 529 609 Q508 631 477 643.5 Q446 656 411.5 660.5 Q377 665 351 665 Q326 665 297 662 Q268 659 240.5 651 Q213 643 190 628 Q167 613 153 589 Q142 570 138.5 545 Q135 520 135 499 L135 0 L72 0 L72 502 Q72 528 74.5 553.5 Q77 579 88 603 Q105 640 134 663.5 Q163 687 198.5 700.5 Q234 714 273.5 719 Q313 724 349 724 Q388 724 435 716.5 Q482 709 522.5 690 Q563 671 590.5 638 Q618 605 618 555 Q618 504 587.5 470 Q557 436 509 424 Q588 406 626 351.5 Q664 297 664 218 Z " />
<glyph glyph-name="agrave" unicode="&#xe0;" horiz-adv-x="667" d="M327 554 L186 699 L295 699 L370 554 L327 554 Z M666 0 Q651 -1 636.5 -2.5 Q622 -4 607 -4 Q565 -4 548 15 Q531 34 525 72 Q513 64 501.5 55.5 Q490 47 477 39 Q430 12 373.5 -0.5 Q317 -13 263 -13 Q238 -13 212.5 -11 Q187 -9 162.5 -2 Q138 5 116.5 17 Q95 29 78 49 Q41 92 41 148 Q41 193 63 227.5 Q85 262 124 282 Q156 298 209 306.5 Q262 315 320 318.5 Q378 322 433 322.5 Q488 323 524 323 Q523 348 520 369 Q517 390 498 409 Q485 422 462 429.5 Q439 437 413 441 Q387 445 362 446.5 Q337 448 320 448 Q287 448 255.5 445.5 Q224 443 196.5 433 Q169 423 148.5 402.5 Q128 382 117 346 L47 349 Q49 366 57 384 Q65 402 74 416 Q93 446 121.5 464 Q150 482 183 491.5 Q216 501 250.5 504.5 Q285 508 317 508 Q346 508 382 505.5 Q418 503 452.5 494.5 Q487 486 517 470 Q547 454 564 426 Q578 403 581.5 382 Q585 361 585 335 L585 109 Q585 71 608 58.5 Q631 46 666 51 L666 0 Z M525 268 Q494 268 443.5 267.5 Q393 267 339.5 263.5 Q286 260 238.5 252 Q191 244 167 230 Q143 216 127.5 196 Q112 176 112 147 Q112 116 127.5 96.5 Q143 77 166.5 66 Q190 55 218 50.5 Q246 46 270 46 Q296 46 329 51 Q362 56 394.5 66.5 Q427 77 455 93.5 Q483 110 499 133 Q520 163 522.5 198 Q525 233 525 268 Z " />
<glyph glyph-name="aacute" unicode="&#xe1;" horiz-adv-x="667" d="M339 555 L296 555 L374 700 L483 700 L339 555 Z M666 0 Q651 -1 636.5 -2.5 Q622 -4 607 -4 Q565 -4 548 15 Q531 34 525 72 Q513 64 501.5 55.5 Q490 47 477 39 Q430 12 373.5 -0.5 Q317 -13 263 -13 Q238 -13 212.5 -11 Q187 -9 162.5 -2 Q138 5 116.5 17 Q95 29 78 49 Q41 92 41 148 Q41 193 63 227.5 Q85 262 124 282 Q156 298 209 306.5 Q262 315 320 318.5 Q378 322 433 322.5 Q488 323 524 323 Q523 348 520 369 Q517 390 498 409 Q485 422 462 429.5 Q439 437 413 441 Q387 445 362 446.5 Q337 448 320 448 Q287 448 255.5 445.5 Q224 443 196.5 433 Q169 423 148.5 402.5 Q128 382 117 346 L47 349 Q49 366 57 384 Q65 402 74 416 Q93 446 121.5 464 Q150 482 183 491.5 Q216 501 250.5 504.5 Q285 508 317 508 Q346 508 382 505.5 Q418 503 452.5 494.5 Q487 486 517 470 Q547 454 564 426 Q578 403 581.5 382 Q585 361 585 335 L585 109 Q585 71 608 58.5 Q631 46 666 51 L666 0 Z M525 268 Q494 268 443.5 267.5 Q393 267 339.5 263.5 Q286 260 238.5 252 Q191 244 167 230 Q143 216 127.5 196 Q112 176 112 147 Q112 116 127.5 96.5 Q143 77 166.5 66 Q190 55 218 50.5 Q246 46 270 46 Q296 46 329 51 Q362 56 394.5 66.5 Q427 77 455 93.5 Q483 110 499 133 Q520 163 522.5 198 Q525 233 525 268 Z " />
<glyph glyph-name="acircumflex" unicode="&#xe2;" horiz-adv-x="667" d="M416 549 L334 634 L251 549 L197 549 L305 681 L364 681 L467 549 L416 549 Z M666 0 Q651 -1 636.5 -2.5 Q622 -4 607 -4 Q565 -4 548 15 Q531 34 525 72 Q513 64 501.5 55.5 Q490 47 477 39 Q430 12 373.5 -0.5 Q317 -13 263 -13 Q238 -13 212.5 -11 Q187 -9 162.5 -2 Q138 5 116.5 17 Q95 29 78 49 Q41 92 41 148 Q41 193 63 227.5 Q85 262 124 282 Q156 298 209 306.5 Q262 315 320 318.5 Q378 322 433 322.5 Q488 323 524 323 Q523 348 520 369 Q517 390 498 409 Q485 422 462 429.5 Q439 437 413 441 Q387 445 362 446.5 Q337 448 320 448 Q287 448 255.5 445.5 Q224 443 196.5 433 Q169 423 148.5 402.5 Q128 382 117 346 L47 349 Q49 366 57 384 Q65 402 74 416 Q93 446 121.5 464 Q150 482 183 491.5 Q216 501 250.5 504.5 Q285 508 317 508 Q346 508 382 505.5 Q418 503 452.5 494.5 Q487 486 517 470 Q547 454 564 426 Q578 403 581.5 382 Q585 361 585 335 L585 109 Q585 71 608 58.5 Q631 46 666 51 L666 0 Z M525 268 Q494 268 443.5 267.5 Q393 267 339.5 263.5 Q286 260 238.5 252 Q191 244 167 230 Q143 216 127.5 196 Q112 176 112 147 Q112 116 127.5 96.5 Q143 77 166.5 66 Q190 55 218 50.5 Q246 46 270 46 Q296 46 329 51 Q362 56 394.5 66.5 Q427 77 455 93.5 Q483 110 499 133 Q520 163 522.5 198 Q525 233 525 268 Z " />
<glyph glyph-name="atilde" unicode="&#xe3;" horiz-adv-x="667" d="M542 678 Q520 643 490.5 619.5 Q461 596 417 596 Q392 596 368 602.5 Q344 609 320.5 617 Q297 625 274 631.5 Q251 638 229 638 Q203 638 187 627 Q171 616 155 597 L127 615 Q153 646 182 667.5 Q211 689 255 689 Q287 689 319.5 679.5 Q352 670 383 662 Q398 657 413.5 653 Q429 649 445 649 Q467 649 483.5 661 Q500 673 511 690 L542 678 Z M666 0 Q651 -1 636.5 -2.5 Q622 -4 607 -4 Q565 -4 548 15 Q531 34 525 72 Q513 64 501.5 55.5 Q490 47 477 39 Q430 12 373.5 -0.5 Q317 -13 263 -13 Q238 -13 212.5 -11 Q187 -9 162.5 -2 Q138 5 116.5 17 Q95 29 78 49 Q41 92 41 148 Q41 193 63 227.5 Q85 262 124 282 Q156 298 209 306.5 Q262 315 320 318.5 Q378 322 433 322.5 Q488 323 524 323 Q523 348 520 369 Q517 390 498 409 Q485 422 462 429.5 Q439 437 413 441 Q387 445 362 446.5 Q337 448 320 448 Q287 448 255.5 445.5 Q224 443 196.5 433 Q169 423 148.5 402.5 Q128 382 117 346 L47 349 Q49 366 57 384 Q65 402 74 416 Q93 446 121.5 464 Q150 482 183 491.5 Q216 501 250.5 504.5 Q285 508 317 508 Q346 508 382 505.5 Q418 503 452.5 494.5 Q487 486 517 470 Q547 454 564 426 Q578 403 581.5 382 Q585 361 585 335 L585 109 Q585 71 608 58.5 Q631 46 666 51 L666 0 Z M525 268 Q494 268 443.5 267.5 Q393 267 339.5 263.5 Q286 260 238.5 252 Q191 244 167 230 Q143 216 127.5 196 Q112 176 112 147 Q112 116 127.5 96.5 Q143 77 166.5 66 Q190 55 218 50.5 Q246 46 270 46 Q296 46 329 51 Q362 56 394.5 66.5 Q427 77 455 93.5 Q483 110 499 133 Q520 163 522.5 198 Q525 233 525 268 Z " />
<glyph glyph-name="adieresis" unicode="&#xe4;" horiz-adv-x="667" d="M428 564 L428 659 L497 659 L497 564 L428 564 Z M162 564 L162 659 L232 659 L232 564 L162 564 Z M666 0 Q651 -1 636.5 -2.5 Q622 -4 607 -4 Q565 -4 548 15 Q531 34 525 72 Q513 64 501.5 55.5 Q490 47 477 39 Q430 12 373.5 -0.5 Q317 -13 263 -13 Q238 -13 212.5 -11 Q187 -9 162.5 -2 Q138 5 116.5 17 Q95 29 78 49 Q41 92 41 148 Q41 193 63 227.5 Q85 262 124 282 Q156 298 209 306.5 Q262 315 320 318.5 Q378 322 433 322.5 Q488 323 524 323 Q523 348 520 369 Q517 390 498 409 Q485 422 462 429.5 Q439 437 413 441 Q387 445 362 446.5 Q337 448 320 448 Q287 448 255.5 445.5 Q224 443 196.5 433 Q169 423 148.5 402.5 Q128 382 117 346 L47 349 Q49 366 57 384 Q65 402 74 416 Q93 446 121.5 464 Q150 482 183 491.5 Q216 501 250.5 504.5 Q285 508 317 508 Q346 508 382 505.5 Q418 503 452.5 494.5 Q487 486 517 470 Q547 454 564 426 Q578 403 581.5 382 Q585 361 585 335 L585 109 Q585 71 608 58.5 Q631 46 666 51 L666 0 Z M525 268 Q494 268 443.5 267.5 Q393 267 339.5 263.5 Q286 260 238.5 252 Q191 244 167 230 Q143 216 127.5 196 Q112 176 112 147 Q112 116 127.5 96.5 Q143 77 166.5 66 Q190 55 218 50.5 Q246 46 270 46 Q296 46 329 51 Q362 56 394.5 66.5 Q427 77 455 93.5 Q483 110 499 133 Q520 163 522.5 198 Q525 233 525 268 Z " />
<glyph glyph-name="aring" unicode="&#xe5;" horiz-adv-x="667" d="M444 631 Q444 609 433.5 592.5 Q423 576 406.5 565 Q390 554 370 549 Q350 544 330 544 Q311 544 290.5 549 Q270 554 253.5 564 Q237 574 226.5 590.5 Q216 607 216 629 Q216 652 226.5 668.5 Q237 685 253.5 695.5 Q270 706 290.5 711 Q311 716 330 716 Q350 716 370 711.5 Q390 707 406.5 697 Q423 687 433.5 670.5 Q444 654 444 631 Z M666 0 Q651 -1 636.5 -2.5 Q622 -4 607 -4 Q565 -4 548 15 Q531 34 525 72 Q513 64 501.5 55.5 Q490 47 477 39 Q430 12 373.5 -0.5 Q317 -13 263 -13 Q238 -13 212.5 -11 Q187 -9 162.5 -2 Q138 5 116.5 17 Q95 29 78 49 Q41 92 41 148 Q41 193 63 227.5 Q85 262 124 282 Q156 298 209 306.5 Q262 315 320 318.5 Q378 322 433 322.5 Q488 323 524 323 Q523 348 520 369 Q517 390 498 409 Q485 422 462 429.5 Q439 437 413 441 Q387 445 362 446.5 Q337 448 320 448 Q287 448 255.5 445.5 Q224 443 196.5 433 Q169 423 148.5 402.5 Q128 382 117 346 L47 349 Q49 366 57 384 Q65 402 74 416 Q93 446 121.5 464 Q150 482 183 491.5 Q216 501 250.5 504.5 Q285 508 317 508 Q346 508 382 505.5 Q418 503 452.5 494.5 Q487 486 517 470 Q547 454 564 426 Q578 403 581.5 382 Q585 361 585 335 L585 109 Q585 71 608 58.5 Q631 46 666 51 L666 0 Z M391 631 Q391 643 385 651 Q379 659 369.5 664.5 Q360 670 349 672 Q338 674 328 674 Q308 674 288 663.5 Q268 653 268 630 Q268 618 274 610 Q280 602 289 597 Q298 592 308.5 590 Q319 588 329 588 Q349 588 370 597 Q391 606 391 631 Z M525 268 Q494 268 443.5 267.5 Q393 267 339.5 263.5 Q286 260 238.5 252 Q191 244 167 230 Q143 216 127.5 196 Q112 176 112 147 Q112 116 127.5 96.5 Q143 77 166.5 66 Q190 55 218 50.5 Q246 46 270 46 Q296 46 329 51 Q362 56 394.5 66.5 Q427 77 455 93.5 Q483 110 499 133 Q520 163 522.5 198 Q525 233 525 268 Z " />
<glyph glyph-name="ae" unicode="&#xe6;" horiz-adv-x="1146" d="M1103 136 Q1096 122 1088.5 108 Q1081 94 1070 82 Q1049 57 1021 39 Q993 21 962 9 Q931 -3 897.5 -8.5 Q864 -14 832 -14 Q802 -14 770 -9 Q738 -4 707.5 6 Q677 16 649 31.5 Q621 47 600 69 Q591 79 584 90 Q577 101 571 112 Q556 73 523.5 48.5 Q491 24 451 10 Q411 -4 367.5 -9 Q324 -14 288 -14 Q248 -14 204 -7.5 Q160 -1 123.5 17.5 Q87 36 63.5 68 Q40 100 40 151 Q40 204 66.5 234 Q93 264 132.5 278.5 Q172 293 218 296.5 Q264 300 303 300 L540 300 Q540 323 537 350 Q534 377 519 397 Q506 414 482.5 425 Q459 436 432 442 Q405 448 378 450.5 Q351 453 331 453 Q300 453 268.5 450 Q237 447 209.5 436.5 Q182 426 161 405 Q140 384 131 349 L60 356 Q63 367 66 376.5 Q69 386 74 397 Q91 433 120.5 455 Q150 477 186 489 Q222 501 261 505 Q300 509 335 509 Q361 509 394.5 506.5 Q428 504 461 497 Q494 490 523.5 477 Q553 464 571 442 Q577 434 581.5 425.5 Q586 417 591 409 Q631 463 692.5 486 Q754 509 820 509 Q860 509 899 500.5 Q938 492 972.5 474 Q1007 456 1034.5 428 Q1062 400 1079 361 Q1091 333 1096 304 Q1101 275 1103 245 L606 245 L606 235 Q606 185 625 149 Q644 113 676 89.5 Q708 66 749.5 55 Q791 44 836 44 Q869 44 902 51.5 Q935 59 964 74 Q993 89 1015.5 113 Q1038 137 1051 170 L1103 136 Z M1028 300 Q1024 317 1019.5 333 Q1015 349 1005 365 Q977 410 926.5 431 Q876 452 825 452 Q773 452 722 434 Q671 416 639 373 Q626 356 620 338 Q614 320 609 300 L1028 300 Z M276 245 Q252 245 223.5 242.5 Q195 240 171 230 Q147 220 131 201 Q115 182 115 150 Q115 114 133.5 92.5 Q152 71 179.5 60 Q207 49 239 45.5 Q271 42 298 42 Q327 42 359.5 47 Q392 52 422.5 63.5 Q453 75 478.5 93.5 Q504 112 519 140 Q532 164 535.5 191 Q539 218 540 245 L276 245 Z " />
<glyph glyph-name="ccedilla" unicode="&#xe7;" horiz-adv-x="667" d="M648 168 Q625 130 601 100.5 Q577 71 548 49.5 Q519 28 483.5 14 Q448 0 403 -7 Q392 -9 380.5 -9 Q369 -9 358 -11 L358 -60 Q375 -61 392 -64 Q409 -67 423 -75 Q437 -83 446 -96.5 Q455 -110 455 -131 Q455 -154 443 -168.5 Q431 -183 413.5 -191 Q396 -199 375 -202 Q354 -205 336 -205 Q316 -205 297 -203 Q278 -201 258 -199 L258 -166 Q273 -168 288.5 -169 Q304 -170 319 -170 Q328 -170 340 -169 Q352 -168 363.5 -164.5 Q375 -161 383 -154 Q391 -147 391 -135 Q391 -121 383 -113 Q375 -105 363 -101.5 Q351 -98 337.5 -97.5 Q324 -97 314 -97 L314 -11 Q257 -7 207.5 11.5 Q158 30 120.5 62.5 Q83 95 61.5 142 Q40 189 40 250 Q40 315 66 364 Q92 413 135 446.5 Q178 480 233.5 497 Q289 514 348 514 Q392 514 434.5 504 Q477 494 515 474.5 Q553 455 584.5 425 Q616 395 638 356 L572 328 Q532 394 478.5 425.5 Q425 457 347 457 Q279 457 220.5 429 Q162 401 133 336 Q114 293 114 250 Q114 201 133 163 Q152 125 183.5 99.5 Q215 74 256.5 60.5 Q298 47 344 47 Q395 47 448.5 65.5 Q502 84 537 122 Q552 139 561.5 156.5 Q571 174 582 193 L648 168 Z " />
<glyph glyph-name="egrave" unicode="&#xe8;" horiz-adv-x="667" d="M327 554 L186 699 L295 699 L370 554 L327 554 Z M627 135 Q573 61 504.5 24 Q436 -13 344 -13 Q285 -13 231 6 Q177 25 136 60 Q95 95 71 145 Q47 195 47 258 Q47 319 69.5 366 Q92 413 131 445 Q170 477 221 493.5 Q272 510 329 510 Q375 510 418.5 498.5 Q462 487 499 464.5 Q536 442 565 408.5 Q594 375 610 330 Q618 308 621.5 285.5 Q625 263 627 240 L116 240 Q120 192 140.5 155.5 Q161 119 192.5 94.5 Q224 70 265 57.5 Q306 45 351 45 Q424 45 480.5 77 Q537 109 575 172 L627 135 Z M547 296 Q540 336 518.5 366 Q497 396 466.5 415.5 Q436 435 399.5 444.5 Q363 454 325 454 Q287 454 253 443.5 Q219 433 191.5 413 Q164 393 145 363.5 Q126 334 118 296 L547 296 Z " />
<glyph glyph-name="eacute" unicode="&#xe9;" horiz-adv-x="667" d="M339 555 L296 555 L374 700 L483 700 L339 555 Z M627 135 Q573 61 504.5 24 Q436 -13 344 -13 Q285 -13 231 6 Q177 25 136 60 Q95 95 71 145 Q47 195 47 258 Q47 319 69.5 366 Q92 413 131 445 Q170 477 221 493.5 Q272 510 329 510 Q375 510 418.5 498.5 Q462 487 499 464.5 Q536 442 565 408.5 Q594 375 610 330 Q618 308 621.5 285.5 Q625 263 627 240 L116 240 Q120 192 140.5 155.5 Q161 119 192.5 94.5 Q224 70 265 57.5 Q306 45 351 45 Q424 45 480.5 77 Q537 109 575 172 L627 135 Z M547 296 Q540 336 518.5 366 Q497 396 466.5 415.5 Q436 435 399.5 444.5 Q363 454 325 454 Q287 454 253 443.5 Q219 433 191.5 413 Q164 393 145 363.5 Q126 334 118 296 L547 296 Z " />
<glyph glyph-name="ecircumflex" unicode="&#xea;" horiz-adv-x="667" d="M416 549 L334 634 L251 549 L197 549 L305 681 L364 681 L467 549 L416 549 Z M627 135 Q573 61 504.5 24 Q436 -13 344 -13 Q285 -13 231 6 Q177 25 136 60 Q95 95 71 145 Q47 195 47 258 Q47 319 69.5 366 Q92 413 131 445 Q170 477 221 493.5 Q272 510 329 510 Q375 510 418.5 498.5 Q462 487 499 464.5 Q536 442 565 408.5 Q594 375 610 330 Q618 308 621.5 285.5 Q625 263 627 240 L116 240 Q120 192 140.5 155.5 Q161 119 192.5 94.5 Q224 70 265 57.5 Q306 45 351 45 Q424 45 480.5 77 Q537 109 575 172 L627 135 Z M547 296 Q540 336 518.5 366 Q497 396 466.5 415.5 Q436 435 399.5 444.5 Q363 454 325 454 Q287 454 253 443.5 Q219 433 191.5 413 Q164 393 145 363.5 Q126 334 118 296 L547 296 Z " />
<glyph glyph-name="edieresis" unicode="&#xeb;" horiz-adv-x="667" d="M433 569 L433 665 L502 665 L502 569 L433 569 Z M167 569 L167 665 L237 665 L237 569 L167 569 Z M627 135 Q573 61 504.5 24 Q436 -13 344 -13 Q285 -13 231 6 Q177 25 136 60 Q95 95 71 145 Q47 195 47 258 Q47 319 69.5 366 Q92 413 131 445 Q170 477 221 493.5 Q272 510 329 510 Q375 510 418.5 498.5 Q462 487 499 464.5 Q536 442 565 408.5 Q594 375 610 330 Q618 308 621.5 285.5 Q625 263 627 240 L116 240 Q120 192 140.5 155.5 Q161 119 192.5 94.5 Q224 70 265 57.5 Q306 45 351 45 Q424 45 480.5 77 Q537 109 575 172 L627 135 Z M547 296 Q540 336 518.5 366 Q497 396 466.5 415.5 Q436 435 399.5 444.5 Q363 454 325 454 Q287 454 253 443.5 Q219 433 191.5 413 Q164 393 145 363.5 Q126 334 118 296 L547 296 Z " />
<glyph glyph-name="igrave" unicode="&#xec;" horiz-adv-x="208" d="M98 554 L-44 699 L66 699 L141 554 L98 554 Z M71 0 L71 494 L137 494 L137 0 L71 0 Z " />
<glyph glyph-name="iacute" unicode="&#xed;" horiz-adv-x="208" d="M110 555 L67 555 L145 700 L254 700 L110 555 Z M71 0 L71 494 L137 494 L137 0 L71 0 Z " />
<glyph glyph-name="icircumflex" unicode="&#xee;" horiz-adv-x="208" d="M187 549 L105 634 L22 549 L-32 549 L76 681 L135 681 L238 549 L187 549 Z M71 0 L71 494 L137 494 L137 0 L71 0 Z " />
<glyph glyph-name="idieresis" unicode="&#xef;" horiz-adv-x="208" d="M203 569 L203 665 L273 665 L273 569 L203 569 Z M-62 569 L-62 665 L8 665 L8 569 L-62 569 Z M71 0 L71 494 L137 494 L137 0 L71 0 Z " />
<glyph glyph-name="eth" unicode="&#xf0;" horiz-adv-x="708" d="M670 277 Q670 207 645.5 152.5 Q621 98 578 61.5 Q535 25 477 6 Q419 -13 352 -13 Q316 -13 274 -6.5 Q232 0 198 14 Q124 44 84 107.5 Q44 171 44 250 Q44 313 70.5 361.5 Q97 410 140 443 Q183 476 238 493 Q293 510 351 510 Q412 510 464 492.5 Q516 475 560 431 Q536 485 506.5 522 Q477 559 429 596 L206 549 L182 595 L379 639 Q357 655 335.5 668.5 Q314 682 291 695 L375 719 Q398 705 419.5 688.5 Q441 672 463 656 L601 686 L626 639 L511 614 Q524 604 535 591.5 Q546 579 557 567 Q610 506 640 432 Q670 358 670 277 Z M590 246 Q590 297 571.5 336 Q553 375 520.5 402 Q488 429 445.5 442.5 Q403 456 355 456 Q308 456 265 442.5 Q222 429 189.5 402.5 Q157 376 137.5 337 Q118 298 118 247 Q118 195 136.5 156.5 Q155 118 186.5 92.5 Q218 67 260.5 54.5 Q303 42 352 42 Q399 42 442 54.5 Q485 67 518 92.5 Q551 118 570.5 156.5 Q590 195 590 246 Z " />
<glyph glyph-name="ntilde" unicode="&#xf1;" horiz-adv-x="708" d="M563 678 Q540 643 511.5 619.5 Q483 596 438 596 Q413 596 389 602.5 Q365 609 341.5 617 Q318 625 295 631.5 Q272 638 249 638 Q224 638 207 627 Q190 616 176 597 L148 615 Q174 646 203 667.5 Q232 689 276 689 Q308 689 340.5 679.5 Q373 670 404 662 Q419 658 434 653.5 Q449 649 465 649 Q488 649 503.5 660.5 Q519 672 532 690 L563 678 Z M572 0 L572 287 Q572 335 554 365.5 Q536 396 506.5 413.5 Q477 431 439 438 Q401 445 361 445 Q323 445 283 437.5 Q243 430 210.5 412 Q178 394 157.5 363.5 Q137 333 137 287 L137 0 L71 0 L71 494 L137 494 L137 425 Q148 435 158 444.5 Q168 454 180 462 Q199 474 222.5 483 Q246 492 271.5 497.5 Q297 503 322 505.5 Q347 508 369 508 Q402 508 438 503 Q474 498 507 485.5 Q540 473 568 452.5 Q596 432 613 400 Q630 370 634 338.5 Q638 307 638 273 L638 0 L572 0 Z " />
<glyph glyph-name="ograve" unicode="&#xf2;" horiz-adv-x="708" d="M348 554 L206 699 L316 699 L391 554 L348 554 Z M664 243 Q664 179 637 131 Q610 83 565.5 51 Q521 19 465 2.5 Q409 -14 352 -14 Q309 -14 267.5 -6 Q226 2 189 19 Q152 36 121.5 64 Q91 92 71 132 Q43 186 43 246 Q43 312 69 361.5 Q95 411 138 444 Q181 477 237 493.5 Q293 510 353 510 Q382 510 410.5 507 Q439 504 467 496 Q557 470 610.5 403.5 Q664 337 664 243 Z M590 246 Q590 297 571 336 Q552 375 520 401.5 Q488 428 445.5 442 Q403 456 355 456 Q307 456 264 442.5 Q221 429 188.5 402 Q156 375 137 336 Q118 297 118 246 Q118 194 136.5 156 Q155 118 187 92.5 Q219 67 261 54.5 Q303 42 351 42 Q398 42 441.5 54.5 Q485 67 518 92.5 Q551 118 570.5 156 Q590 194 590 246 Z " />
<glyph glyph-name="oacute" unicode="&#xf3;" horiz-adv-x="708" d="M360 555 L317 555 L395 700 L504 700 L360 555 Z M664 243 Q664 179 637 131 Q610 83 565.5 51 Q521 19 465 2.5 Q409 -14 352 -14 Q309 -14 267.5 -6 Q226 2 189 19 Q152 36 121.5 64 Q91 92 71 132 Q43 186 43 246 Q43 312 69 361.5 Q95 411 138 444 Q181 477 237 493.5 Q293 510 353 510 Q382 510 410.5 507 Q439 504 467 496 Q557 470 610.5 403.5 Q664 337 664 243 Z M590 246 Q590 297 571 336 Q552 375 520 401.5 Q488 428 445.5 442 Q403 456 355 456 Q307 456 264 442.5 Q221 429 188.5 402 Q156 375 137 336 Q118 297 118 246 Q118 194 136.5 156 Q155 118 187 92.5 Q219 67 261 54.5 Q303 42 351 42 Q398 42 441.5 54.5 Q485 67 518 92.5 Q551 118 570.5 156 Q590 194 590 246 Z " />
<glyph glyph-name="ocircumflex" unicode="&#xf4;" horiz-adv-x="708" d="M437 549 L355 634 L272 549 L218 549 L326 681 L385 681 L488 549 L437 549 Z M664 243 Q664 179 637 131 Q610 83 565.5 51 Q521 19 465 2.5 Q409 -14 352 -14 Q309 -14 267.5 -6 Q226 2 189 19 Q152 36 121.5 64 Q91 92 71 132 Q43 186 43 246 Q43 312 69 361.5 Q95 411 138 444 Q181 477 237 493.5 Q293 510 353 510 Q382 510 410.5 507 Q439 504 467 496 Q557 470 610.5 403.5 Q664 337 664 243 Z M590 246 Q590 297 571 336 Q552 375 520 401.5 Q488 428 445.5 442 Q403 456 355 456 Q307 456 264 442.5 Q221 429 188.5 402 Q156 375 137 336 Q118 297 118 246 Q118 194 136.5 156 Q155 118 187 92.5 Q219 67 261 54.5 Q303 42 351 42 Q398 42 441.5 54.5 Q485 67 518 92.5 Q551 118 570.5 156 Q590 194 590 246 Z " />
<glyph glyph-name="otilde" unicode="&#xf5;" horiz-adv-x="708" d="M563 678 Q540 643 511.5 619.5 Q483 596 438 596 Q413 596 389 602.5 Q365 609 341.5 617 Q318 625 295 631.5 Q272 638 249 638 Q224 638 207 627 Q190 616 176 597 L148 615 Q174 646 203 667.5 Q232 689 276 689 Q308 689 340.5 679.5 Q373 670 404 662 Q419 658 434 653.5 Q449 649 465 649 Q488 649 503.5 660.5 Q519 672 532 690 L563 678 Z M664 243 Q664 179 637 131 Q610 83 565.5 51 Q521 19 465 2.5 Q409 -14 352 -14 Q309 -14 267.5 -6 Q226 2 189 19 Q152 36 121.5 64 Q91 92 71 132 Q43 186 43 246 Q43 312 69 361.5 Q95 411 138 444 Q181 477 237 493.5 Q293 510 353 510 Q382 510 410.5 507 Q439 504 467 496 Q557 470 610.5 403.5 Q664 337 664 243 Z M590 246 Q590 297 571 336 Q552 375 520 401.5 Q488 428 445.5 442 Q403 456 355 456 Q307 456 264 442.5 Q221 429 188.5 402 Q156 375 137 336 Q118 297 118 246 Q118 194 136.5 156 Q155 118 187 92.5 Q219 67 261 54.5 Q303 42 351 42 Q398 42 441.5 54.5 Q485 67 518 92.5 Q551 118 570.5 156 Q590 194 590 246 Z " />
<glyph glyph-name="odieresis" unicode="&#xf6;" horiz-adv-x="708" d="M451 563 L451 659 L520 659 L520 563 L451 563 Z M185 563 L185 659 L255 659 L255 563 L185 563 Z M664 243 Q664 179 637 131 Q610 83 565.5 51 Q521 19 465 2.5 Q409 -14 352 -14 Q309 -14 267.5 -6 Q226 2 189 19 Q152 36 121.5 64 Q91 92 71 132 Q43 186 43 246 Q43 312 69 361.5 Q95 411 138 444 Q181 477 237 493.5 Q293 510 353 510 Q382 510 410.5 507 Q439 504 467 496 Q557 470 610.5 403.5 Q664 337 664 243 Z M590 246 Q590 297 571 336 Q552 375 520 401.5 Q488 428 445.5 442 Q403 456 355 456 Q307 456 264 442.5 Q221 429 188.5 402 Q156 375 137 336 Q118 297 118 246 Q118 194 136.5 156 Q155 118 187 92.5 Q219 67 261 54.5 Q303 42 351 42 Q398 42 441.5 54.5 Q485 67 518 92.5 Q551 118 570.5 156 Q590 194 590 246 Z " />
<glyph glyph-name="divide" unicode="&#xf7;" horiz-adv-x="772" d="M344 395 L344 477 L427 477 L427 395 L344 395 Z M66 263 L66 323 L706 323 L706 263 L66 263 Z M345 106 L345 188 L428 188 L428 106 L345 106 Z " />
<glyph glyph-name="oslash" unicode="&#xf8;" horiz-adv-x="708" d="M660 247 Q660 184 633 135.5 Q606 87 562.5 54 Q519 21 463.5 4 Q408 -13 351 -13 Q291 -13 242.5 2 Q194 17 144 49 L67 -14 L33 26 L104 85 Q75 125 58.5 162.5 Q42 200 42 251 Q42 292 55.5 332.5 Q69 373 95 405 Q118 434 147.5 454 Q177 474 210 486.5 Q243 499 279 505 Q315 511 350 511 Q403 511 453.5 498 Q504 485 548 455 L619 514 L654 475 L589 420 Q622 387 641 340.5 Q660 294 660 247 Z M591 253 Q591 291 579 322 Q567 353 543 382 L192 89 Q225 66 267.5 55 Q310 44 351 44 Q398 44 441 58 Q484 72 517.5 98.5 Q551 125 571 164 Q591 203 591 253 Z M502 416 Q471 436 431.5 445.5 Q392 455 355 455 Q309 455 264.5 441.5 Q220 428 185.5 401.5 Q151 375 130 336.5 Q109 298 109 247 Q109 214 119 182.5 Q129 151 152 126 L502 416 Z " />
<glyph glyph-name="ugrave" unicode="&#xf9;" horiz-adv-x="708" d="M348 554 L206 699 L316 699 L391 554 L348 554 Z M572 0 L572 72 Q521 25 459 6 Q397 -13 329 -13 Q292 -13 254 -7.5 Q216 -2 183 12 Q150 26 124 51 Q98 76 84 115 Q75 140 73 166 Q71 192 71 218 L71 494 L137 494 L137 224 Q137 194 140.5 165 Q144 136 161 110 Q174 91 194 79 Q214 67 237 60 Q260 53 284 50.5 Q308 48 329 48 Q356 48 390 52 Q424 56 456.5 66.5 Q489 77 516.5 94 Q544 111 558 136 Q567 153 569.5 167.5 Q572 182 572 200 L572 494 L637 494 L637 0 L572 0 Z " />
<glyph glyph-name="uacute" unicode="&#xfa;" horiz-adv-x="708" d="M360 555 L317 555 L395 700 L504 700 L360 555 Z M572 0 L572 72 Q521 25 459 6 Q397 -13 329 -13 Q292 -13 254 -7.5 Q216 -2 183 12 Q150 26 124 51 Q98 76 84 115 Q75 140 73 166 Q71 192 71 218 L71 494 L137 494 L137 224 Q137 194 140.5 165 Q144 136 161 110 Q174 91 194 79 Q214 67 237 60 Q260 53 284 50.5 Q308 48 329 48 Q356 48 390 52 Q424 56 456.5 66.5 Q489 77 516.5 94 Q544 111 558 136 Q567 153 569.5 167.5 Q572 182 572 200 L572 494 L637 494 L637 0 L572 0 Z " />
<glyph glyph-name="ucircumflex" unicode="&#xfb;" horiz-adv-x="708" d="M437 549 L355 634 L272 549 L218 549 L326 681 L385 681 L488 549 L437 549 Z M572 0 L572 72 Q521 25 459 6 Q397 -13 329 -13 Q292 -13 254 -7.5 Q216 -2 183 12 Q150 26 124 51 Q98 76 84 115 Q75 140 73 166 Q71 192 71 218 L71 494 L137 494 L137 224 Q137 194 140.5 165 Q144 136 161 110 Q174 91 194 79 Q214 67 237 60 Q260 53 284 50.5 Q308 48 329 48 Q356 48 390 52 Q424 56 456.5 66.5 Q489 77 516.5 94 Q544 111 558 136 Q567 153 569.5 167.5 Q572 182 572 200 L572 494 L637 494 L637 0 L572 0 Z " />
<glyph glyph-name="udieresis" unicode="&#xfc;" horiz-adv-x="708" d="M452 563 L452 659 L521 659 L521 563 L452 563 Z M187 563 L187 659 L256 659 L256 563 L187 563 Z M572 0 L572 72 Q521 25 459 6 Q397 -13 329 -13 Q292 -13 254 -7.5 Q216 -2 183 12 Q150 26 124 51 Q98 76 84 115 Q75 140 73 166 Q71 192 71 218 L71 494 L137 494 L137 224 Q137 194 140.5 165 Q144 136 161 110 Q174 91 194 79 Q214 67 237 60 Q260 53 284 50.5 Q308 48 329 48 Q356 48 390 52 Q424 56 456.5 66.5 Q489 77 516.5 94 Q544 111 558 136 Q567 153 569.5 167.5 Q572 182 572 200 L572 494 L637 494 L637 0 L572 0 Z " />
<glyph glyph-name="yacute" unicode="&#xfd;" horiz-adv-x="562" d="M287 555 L244 555 L322 700 L431 700 L287 555 Z M327 -38 Q308 -82 291.5 -111.5 Q275 -141 252.5 -159.5 Q230 -178 197 -186 Q164 -194 113 -194 Q62 -194 11 -182 L11 -120 Q37 -129 60.5 -133.5 Q84 -138 112 -138 Q145 -138 169 -132 Q193 -126 210.5 -112.5 Q228 -99 241 -78 Q254 -57 265 -27 L0 494 L79 494 L300 46 L489 494 L560 494 L327 -38 Z " />
<glyph glyph-name="thorn" unicode="&#xfe;" horiz-adv-x="708" d="M660 248 Q660 186 635 137.5 Q610 89 568.5 56 Q527 23 473 5.5 Q419 -12 362 -12 Q296 -12 240 6.5 Q184 25 138 76 L138 -187 L74 -187 L74 706 L138 706 L138 416 Q159 442 187 459.5 Q215 477 246.5 488 Q278 499 311.5 503.5 Q345 508 377 508 Q437 508 488.5 490.5 Q540 473 578 440 Q616 407 638 359.5 Q660 312 660 251 L660 248 Z M586 249 Q586 291 569 331 Q541 394 486 421.5 Q431 449 364 449 L361 449 Q312 449 271.5 436.5 Q231 424 201.5 398.5 Q172 373 155.5 335 Q139 297 139 247 Q139 221 143 194 Q147 167 160 144 Q175 118 197 100 Q219 82 246 70.5 Q273 59 302 54 Q331 49 359 49 Q404 49 445.5 62 Q487 75 518 100.5 Q549 126 567.5 163 Q586 200 586 249 Z " />
<glyph glyph-name="ydieresis" unicode="&#xff;" horiz-adv-x="562" d="M380 569 L380 665 L450 665 L450 569 L380 569 Z M115 569 L115 665 L185 665 L185 569 L115 569 Z M327 -38 Q308 -82 291.5 -111.5 Q275 -141 252.5 -159.5 Q230 -178 197 -186 Q164 -194 113 -194 Q62 -194 11 -182 L11 -120 Q37 -129 60.5 -133.5 Q84 -138 112 -138 Q145 -138 169 -132 Q193 -126 210.5 -112.5 Q228 -99 241 -78 Q254 -57 265 -27 L0 494 L79 494 L300 46 L489 494 L560 494 L327 -38 Z " />
<glyph glyph-name="dotlessi" unicode="&#x131;" horiz-adv-x="208" d="M71 0 L71 494 L137 494 L137 0 L71 0 Z " />
<glyph glyph-name="Lslash" unicode="&#x141;" horiz-adv-x="688" d="M83 0 L83 227 L0 180 L0 240 L83 287 L83 706 L153 706 L153 326 L517 530 L517 470 L153 266 L153 59 L667 59 L667 0 L83 0 Z " />
<glyph glyph-name="lslash" unicode="&#x142;" horiz-adv-x="208" d="M138 381 L138 0 L72 0 L72 330 L0 275 L0 339 L72 394 L72 706 L138 706 L138 445 L208 499 L208 435 L138 381 Z " />
<glyph glyph-name="OE" unicode="&#x152;" horiz-adv-x="1146" d="M596 0 L596 23 Q551 3 509.5 -6.5 Q468 -16 419 -16 Q338 -16 268.5 11.5 Q199 39 148 88 Q97 137 68 205.5 Q39 274 39 356 Q39 424 63.5 490.5 Q88 557 135 607 Q191 667 261.5 694 Q332 721 412 721 Q440 721 462.5 718.5 Q485 716 506.5 711 Q528 706 549.5 698.5 Q571 691 596 680 L596 706 L1096 706 L1096 648 L665 648 L665 396 L1066 396 L1066 337 L665 337 L665 59 L1111 59 L1111 0 L596 0 Z M596 617 Q555 640 510 651 Q465 662 418 662 Q312 662 237 606 Q162 550 130 450 Q122 427 118 403 Q114 379 114 355 Q114 329 118 304 Q122 279 130 255 Q163 149 243.5 97 Q324 45 433 45 Q458 45 478 47.5 Q498 50 517 54.5 Q536 59 555 66.5 Q574 74 596 83 L596 617 Z " />
<glyph glyph-name="oe" unicode="&#x153;" horiz-adv-x="1188" d="M1146 135 Q1136 121 1126 108.5 Q1116 96 1104 84 Q1056 35 994 11.5 Q932 -12 863 -12 Q824 -12 785.5 -3 Q747 6 712.5 23.5 Q678 41 649.5 67 Q621 93 601 128 Q581 93 551.5 67 Q522 41 487 23.5 Q452 6 413 -2.5 Q374 -11 335 -11 Q277 -11 223.5 6.5 Q170 24 129.5 57 Q89 90 64.5 138.5 Q40 187 40 250 Q40 313 65 361.5 Q90 410 132 443.5 Q174 477 228.5 494 Q283 511 341 511 Q368 511 396.5 506.5 Q425 502 452.5 493 Q480 484 505.5 470 Q531 456 550 437 Q564 423 574.5 408.5 Q585 394 596 378 Q635 449 703 479.5 Q771 510 848 510 Q891 510 932 500 Q973 490 1009 470.5 Q1045 451 1073.5 421 Q1102 391 1120 350 Q1131 324 1136.5 296.5 Q1142 269 1146 241 L635 241 Q638 193 658 156.5 Q678 120 710.5 95.5 Q743 71 784.5 58.5 Q826 46 871 46 Q942 46 1000 78 Q1058 110 1093 173 L1146 135 Z M1066 296 Q1057 337 1036 366.5 Q1015 396 985.5 416 Q956 436 919.5 445.5 Q883 455 844 455 Q766 455 709.5 414.5 Q653 374 636 296 L1066 296 Z M559 249 Q559 296 541.5 334 Q524 372 493.5 399 Q463 426 423 440.5 Q383 455 338 455 Q292 455 251.5 440.5 Q211 426 180.5 399 Q150 372 132.5 334 Q115 296 115 248 Q115 199 132.5 161 Q150 123 180 97.5 Q210 72 250.5 58.5 Q291 45 337 45 Q382 45 422.5 59 Q463 73 493.5 99.5 Q524 126 541.5 163.5 Q559 201 559 249 Z " />
<glyph glyph-name="Scaron" unicode="&#x160;" horiz-adv-x="812" d="M445 774 L364 774 L257 900 L322 900 L407 824 L495 900 L560 900 L445 774 Z M764 210 Q764 181 754 152 Q744 123 727 100 Q701 65 665 42.5 Q629 20 588.5 6.5 Q548 -7 504.5 -12.5 Q461 -18 420 -18 Q376 -18 329.5 -13.5 Q283 -9 238.5 3.5 Q194 16 154.5 38 Q115 60 84 95 Q67 114 55 134.5 Q43 155 32 177 L106 205 Q125 156 157.5 124.5 Q190 93 231 75 Q272 57 319 50.5 Q366 44 414 44 Q451 44 499 51 Q547 58 589.5 76.5 Q632 95 661.5 126.5 Q691 158 691 206 Q691 252 654 283 Q635 299 589.5 310.5 Q544 322 492 330.5 Q440 339 391 345 Q342 351 316 354 Q279 359 239 367.5 Q199 376 165 393.5 Q131 411 109 441 Q87 471 87 518 Q87 549 97.5 576 Q108 603 127 626 Q151 655 185 674.5 Q219 694 258 705 Q297 716 337 720.5 Q377 725 413 725 Q460 725 506 717.5 Q552 710 595 693.5 Q638 677 676 650.5 Q714 624 743 586 L680 551 Q656 584 625 605.5 Q594 627 558.5 640 Q523 653 484.5 658.5 Q446 664 407 664 Q375 664 332 658 Q289 652 250.5 636.5 Q212 621 185.5 593.5 Q159 566 159 523 Q159 491 178.5 472 Q198 453 225.5 442.5 Q253 432 284 427 Q315 422 339 419 Q368 415 413 409.5 Q458 404 505 397 Q552 390 594.5 380.5 Q637 371 662 359 Q710 336 737 300 Q764 264 764 210 Z " />
<glyph glyph-name="scaron" unicode="&#x161;" horiz-adv-x="625" d="M344 549 L284 549 L180 681 L234 681 L315 596 L397 681 L452 681 L344 549 Z M588 148 Q588 103 561 68 Q541 43 513.5 27 Q486 11 455 2.5 Q424 -6 391 -9 Q358 -12 328 -12 Q289 -12 243 -7.5 Q197 -3 154.5 11 Q112 25 78 51.5 Q44 78 30 122 L102 138 Q117 108 142 90.5 Q167 73 197.5 63.5 Q228 54 260.5 51 Q293 48 323 48 Q346 48 379.5 51.5 Q413 55 444.5 65.5 Q476 76 498.5 95.5 Q521 115 521 146 Q521 168 510 181 Q499 194 482 201.5 Q465 209 446 212 Q427 215 410 216 Q393 218 377 218.5 Q361 219 344 220 Q324 222 304 222.5 Q284 223 264 224 Q243 225 217.5 226.5 Q192 228 167 232.5 Q142 237 119.5 247 Q97 257 82 274 Q66 292 59 310.5 Q52 329 52 353 Q52 404 77 434.5 Q102 465 140 481.5 Q178 498 222.5 503 Q267 508 306 508 Q344 508 384 504 Q424 500 460.5 488 Q497 476 527.5 453 Q558 430 577 392 L504 377 Q493 401 468.5 415 Q444 429 414.5 437 Q385 445 355 447.5 Q325 450 302 450 Q281 450 250 447 Q219 444 190 434.5 Q161 425 140.5 407 Q120 389 120 360 Q120 339 134 322 Q149 304 176 300.5 Q203 297 224 295 Q253 293 281.5 291.5 Q310 290 339 288 Q364 287 395.5 285 Q427 283 458.5 277 Q490 271 517.5 258.5 Q545 246 562 223 Q588 189 588 148 Z " />
<glyph glyph-name="Ydieresis" unicode="&#x178;" horiz-adv-x="729" d="M492 804 L492 900 L565 900 L565 804 L492 804 Z M169 804 L169 900 L242 900 L242 804 L169 804 Z M403 286 L403 0 L339 0 L339 286 L6 706 L90 706 L371 343 L643 706 L723 706 L403 286 Z " />
<glyph glyph-name="Zcaron" unicode="&#x17d;" horiz-adv-x="750" d="M414 774 L333 774 L226 900 L291 900 L375 824 L464 900 L529 900 L414 774 Z M97 59 L732 59 L732 0 L0 0 L0 57 L659 648 L55 648 L55 706 L750 706 L750 644 L97 59 Z " />
<glyph glyph-name="zcaron" unicode="&#x17e;" horiz-adv-x="562" d="M313 549 L252 549 L149 681 L202 681 L283 596 L366 681 L420 681 L313 549 Z M11 0 L11 54 L451 440 L43 440 L43 494 L546 494 L546 448 L103 55 L546 55 L546 0 L11 0 Z " />
<glyph glyph-name="florin" unicode="&#x192;" horiz-adv-x="354" d="M381 638 Q360 643 339.5 645.5 Q319 648 297 648 Q249 648 229.5 625.5 Q210 603 205 558 L196 477 L363 477 L357 426 L190 426 L132 -95 Q127 -134 108.5 -167.5 Q90 -201 52 -217 Q37 -223 17 -225.5 Q-3 -228 -20 -228 Q-44 -228 -67.5 -226 Q-91 -224 -114 -218 L-108 -160 Q-68 -170 -24 -170 Q25 -170 44 -148 Q63 -126 68 -80 L124 426 L26 426 L32 477 L130 477 Q135 524 139.5 565.5 Q144 607 159 638.5 Q174 670 205 688 Q236 706 296 706 Q344 706 387 696 L381 638 Z " />
<glyph glyph-name="circumflex" unicode="&#x2c6;" horiz-adv-x="375" d="M272 549 L190 634 L107 549 L52 549 L160 681 L219 681 L323 549 L272 549 Z " />
<glyph glyph-name="caron" unicode="&#x2c7;" horiz-adv-x="375" d="M216 549 L155 549 L52 681 L105 681 L186 596 L269 681 L323 681 L216 549 Z " />
<glyph glyph-name="breve" unicode="&#x2d8;" horiz-adv-x="375" d="M327 682 Q325 667 321.5 653 Q318 639 310 625 Q290 590 257.5 574 Q225 558 186 558 Q128 558 92 591 Q56 624 48 682 L98 682 Q103 647 124.5 625.5 Q146 604 184 604 Q222 604 247.5 624 Q273 644 278 682 L327 682 Z " />
<glyph glyph-name="dotaccent" unicode="&#x2d9;" horiz-adv-x="375" d="M155 586 L155 680 L220 680 L220 586 L155 586 Z " />
<glyph glyph-name="ring" unicode="&#x2da;" horiz-adv-x="375" d="M302 635 Q302 612 291 595.5 Q280 579 263 568.5 Q246 558 225.5 553 Q205 548 185 548 Q166 548 146 553 Q126 558 110 568.5 Q94 579 83.5 595.5 Q73 612 73 634 Q73 657 83.5 673 Q94 689 110.5 699.5 Q127 710 147.5 715 Q168 720 187 720 Q207 720 227.5 715.5 Q248 711 264.5 701 Q281 691 291.5 674.5 Q302 658 302 635 Z M249 635 Q249 647 243 655.5 Q237 664 227.5 669.5 Q218 675 207 677 Q196 679 186 679 Q166 679 145 668 Q124 657 124 634 Q124 622 130 614 Q136 606 145.5 601.5 Q155 597 166 595 Q177 593 186 593 Q196 593 207 595 Q218 597 227 601.5 Q236 606 242 614.5 Q248 623 248 635 L249 635 Z " />
<glyph glyph-name="ogonek" unicode="&#x2db;" horiz-adv-x="375" d="M280 -178 Q263 -180 246.5 -182 Q230 -184 213 -184 Q192 -184 171 -180 Q150 -176 133 -166.5 Q116 -157 105.5 -141 Q95 -125 95 -100 Q95 -81 103.5 -65 Q112 -49 125 -36 Q138 -23 154 -13 Q170 -3 186 4 L237 4 L237 1 Q224 -4 210 -11 Q196 -18 184 -27.5 Q172 -37 164 -49 Q156 -61 156 -77 Q156 -107 178.5 -119.5 Q201 -132 227 -132 Q240 -132 253 -131 Q266 -130 280 -128 L280 -178 Z " />
<glyph glyph-name="tilde" unicode="&#x2dc;" horiz-adv-x="375" d="M396 678 Q373 643 344.5 619.5 Q316 596 271 596 Q246 596 222 602.5 Q198 609 174.5 617 Q151 625 128 631.5 Q105 638 82 638 Q56 638 39.5 626.5 Q23 615 8 597 L-21 615 Q5 646 35 667.5 Q65 689 108 689 Q140 689 172.5 679.5 Q205 670 236 662 Q251 658 266 653.5 Q281 649 297 649 Q320 649 335.5 660.5 Q351 672 364 690 L396 678 Z " />
<glyph glyph-name="hungarumlaut" unicode="&#x2dd;" horiz-adv-x="375" d="M205 555 L161 555 L239 700 L349 700 L205 555 Z M70 555 L26 555 L104 700 L214 700 L70 555 Z " />
<glyph glyph-name="Mu" unicode="&#x39c;" horiz-adv-x="708" d="M572 0 L572 72 Q562 64 552.5 55.5 Q543 47 532 40 Q487 11 435.5 -1 Q384 -13 331 -13 Q306 -13 279 -10.5 Q252 -8 226.5 -1 Q201 6 178 18.5 Q155 31 137 51 L137 -187 L71 -187 L71 494 L137 494 L137 213 Q137 184 142 155 Q147 126 166 103 Q180 87 199 76 Q218 65 240 59 Q262 53 285 50.5 Q308 48 328 48 Q355 48 388.5 52 Q422 56 455 66 Q488 76 515.5 93 Q543 110 557 135 Q566 151 569 167 Q572 183 572 200 L572 494 L637 494 L637 0 L572 0 Z " />
<glyph glyph-name="pi" unicode="&#x3c0;" horiz-adv-x="626" d="M566 0 Q527 0 507.5 5 Q488 10 472 25 Q456 39 450 58.5 Q444 78 444 118 L445 439 L166 439 L166 0 L100 0 L100 439 L42 439 L42 493 L571 493 L570 439 L511 439 L511 122 Q511 96 511.5 88 Q512 80 517 72 Q522 64 533 59 Q539 56 545 55.5 Q551 55 569 54 L587 53 L587 0 L566 0 Z " />
<glyph glyph-name="endash" unicode="&#x2013;" horiz-adv-x="610" d="M38 264 L38 324 L572 324 L572 264 L38 264 Z " />
<glyph glyph-name="emdash" unicode="&#x2014;" horiz-adv-x="911" d="M38 264 L38 324 L873 324 L873 264 L38 264 Z " />
<glyph glyph-name="quoteleft" unicode="&#x2018;" horiz-adv-x="271" d="M96 491 L96 618 Q96 660 113 684.5 Q130 709 175 712 L175 675 Q152 673 142.5 657 Q133 641 133 621 L133 596 L180 596 L180 491 L96 491 Z " />
<glyph glyph-name="quoteright" unicode="&#x2019;" horiz-adv-x="271" d="M177 580 Q177 538 160 514 Q143 490 98 487 L98 523 Q121 525 130.5 541 Q140 557 140 577 L140 602 L92 602 L92 706 L177 706 L177 580 Z " />
<glyph glyph-name="quotesinglbase" unicode="&#x201a;" horiz-adv-x="271" d="M177 -22 Q177 -64 160 -88.5 Q143 -113 98 -116 L98 -79 Q121 -77 130.5 -61 Q140 -45 140 -25 L140 0 L92 0 L92 104 L177 104 L177 -22 Z " />
<glyph glyph-name="quotedblleft" unicode="&#x201c;" horiz-adv-x="417" d="M236 494 L236 613 Q236 634 239.5 652 Q243 670 252 684 Q261 698 276.5 706 Q292 714 316 714 L316 674 Q301 674 293 666 Q285 658 281.5 646.5 Q278 635 277.5 622 Q277 609 277 598 L321 598 L321 494 L236 494 Z M97 494 L97 613 Q97 634 100.5 652 Q104 670 112.5 684 Q121 698 136.5 706 Q152 714 176 714 L176 674 Q162 674 154 667 Q146 660 142.5 650 Q139 640 138.5 628.5 Q138 617 138 607 L138 598 L182 598 L182 494 L97 494 Z " />
<glyph glyph-name="quotedblright" unicode="&#x201d;" horiz-adv-x="417" d="M320 588 Q320 567 316.5 549 Q313 531 304 517 Q295 503 279.5 495 Q264 487 240 487 L240 526 Q254 526 262 533 Q270 540 273.5 550 Q277 560 277.5 572 Q278 584 278 594 L278 602 L235 602 L235 706 L320 706 L320 588 Z M180 588 Q180 567 176.5 549 Q173 531 164.5 517 Q156 503 140.5 495 Q125 487 101 487 L101 526 Q115 526 123 533 Q131 540 134.5 550 Q138 560 138.5 572 Q139 584 139 594 L139 602 L95 602 L95 706 L180 706 L180 588 Z " />
<glyph glyph-name="quotedblbase" unicode="&#x201e;" horiz-adv-x="417" d="M320 -14 Q320 -35 316.5 -53.5 Q313 -72 304 -86 Q295 -100 279.5 -108 Q264 -116 240 -116 L240 -76 Q254 -76 261.5 -69.5 Q269 -63 273 -53 Q277 -43 277.5 -31 Q278 -19 278 -9 L278 0 L235 0 L235 104 L320 104 L320 -14 Z M180 -14 Q180 -35 176.5 -53.5 Q173 -72 164.5 -86 Q156 -100 140.5 -108 Q125 -116 101 -116 L101 -76 Q115 -76 122.5 -69 Q130 -62 134 -52 Q138 -42 138.5 -30.5 Q139 -19 139 -9 L139 0 L95 0 L95 104 L180 104 L180 -14 Z " />
<glyph glyph-name="dagger" unicode="&#x2020;" horiz-adv-x="542" d="M301 444 L301 0 L241 0 L241 444 L36 444 L36 496 L241 496 L241 706 L301 706 L301 496 L505 496 L505 444 L301 444 Z " />
<glyph glyph-name="daggerdbl" unicode="&#x2021;" horiz-adv-x="542" d="M301 220 L301 0 L241 0 L241 220 L36 220 L36 273 L241 273 L241 465 L33 465 L33 518 L241 518 L241 706 L301 706 L301 518 L509 518 L509 465 L301 465 L301 273 L509 273 L509 220 L301 220 Z " />
<glyph glyph-name="bullet" unicode="&#x2022;" horiz-adv-x="334" d="M56 244 L56 462 L278 462 L278 244 L56 244 Z " />
<glyph glyph-name="ellipsis" unicode="&#x2026;" horiz-adv-x="1000" d="M871 0 L794 0 L795 80 L872 80 L871 0 Z M461 0 L461 80 L538 80 L538 0 L461 0 Z M128 0 L128 80 L205 80 L205 0 L128 0 Z " />
<glyph glyph-name="perthousand" unicode="&#x2030;" horiz-adv-x="1563" d="M1529 215 Q1529 169 1514 129 Q1499 89 1471 59 Q1443 29 1404 11.5 Q1365 -6 1318 -6 Q1271 -6 1233 12 Q1195 30 1168 61 Q1141 92 1126 132.5 Q1111 173 1111 218 Q1111 263 1126 303 Q1141 343 1169 373.5 Q1197 404 1235.5 421.5 Q1274 439 1320 439 Q1367 439 1405.5 421 Q1444 403 1471.5 372.5 Q1499 342 1514 301 Q1529 260 1529 215 Z M1050 216 Q1050 170 1035 129.5 Q1020 89 992 59 Q964 29 925 11.5 Q886 -6 839 -6 Q792 -6 754 12.5 Q716 31 689 61.5 Q662 92 647 132.5 Q632 173 632 218 Q632 263 647 303.5 Q662 344 690 374 Q718 404 756.5 421.5 Q795 439 842 439 Q889 439 927 421 Q965 403 992.5 372.5 Q1020 342 1035 301.5 Q1050 261 1050 216 Z M366 0 L313 0 L712 688 L765 688 L366 0 Z M448 470 Q448 424 433 383.5 Q418 343 390 312.5 Q362 282 323 264.5 Q284 247 237 247 Q190 247 152 265 Q114 283 87 314 Q60 345 45 385.5 Q30 426 30 471 Q30 516 45 556.5 Q60 597 88 627 Q116 657 154.5 674.5 Q193 692 240 692 Q287 692 325.5 674 Q364 656 391 626 Q418 596 433 555.5 Q448 515 448 470 Z M1477 213 Q1477 252 1467 285 Q1457 318 1437 342 Q1417 366 1386 380 Q1355 394 1314 394 Q1276 394 1247.5 379.5 Q1219 365 1199.5 340.5 Q1180 316 1170 284 Q1160 252 1160 217 Q1160 164 1181 120.5 Q1202 77 1252 54 Q1267 47 1284.5 42.5 Q1302 38 1319 38 Q1357 38 1386 52 Q1415 66 1435.5 90 Q1456 114 1466.5 146 Q1477 178 1477 213 Z M998 213 Q998 252 987.5 285 Q977 318 956.5 342 Q936 366 905.5 380 Q875 394 834 394 Q796 394 767.5 379.5 Q739 365 719.5 340 Q700 315 690.5 283.5 Q681 252 681 217 Q681 165 702 121 Q723 77 772 54 Q806 38 839 38 Q877 38 906.5 52 Q936 66 956 90 Q976 114 987 145.5 Q998 177 998 213 Z M397 467 Q397 503 387 535.5 Q377 568 357 593 Q337 618 308 633 Q279 648 240 648 Q201 648 171 634 Q141 620 120.5 596 Q100 572 90 539.5 Q80 507 80 470 Q80 415 103 369.5 Q126 324 179 303 Q208 291 238 291 Q276 291 305.5 305.5 Q335 320 355 344 Q375 368 386 400 Q397 432 397 467 Z " />
<glyph glyph-name="guilsinglleft" unicode="&#x2039;" horiz-adv-x="250" d="M23 285 L23 340 L225 513 L225 457 L88 312 L225 167 L225 110 L23 285 Z " />
<glyph glyph-name="guilsinglright" unicode="&#x203a;" horiz-adv-x="250" d="M24 113 L24 171 L159 312 L24 454 L24 512 L224 339 L224 286 L24 113 Z " />
<glyph glyph-name="fraction" unicode="&#x2044;" horiz-adv-x="125" d="M-117 0 L-165 0 L244 706 L292 706 L-117 0 Z " />
<glyph glyph-name="Euro" unicode="&#x20ac;" horiz-adv-x="840" d="M760 537 Q719 597 653 629 Q587 661 502 661 Q372 661 291 602.5 Q210 544 190 436 L711 436 L685 383 L181 383 Q180 372 180 362.5 Q180 353 180 348 L180 324 L655 324 L629 271 L187 271 Q213 162 294.5 103 Q376 44 503 44 Q585 44 657.5 73 Q730 102 775 153 L775 66 Q715 22 649.5 2 Q584 -18 496 -18 Q394 -18 321.5 10 Q249 38 195 98 Q160 136 141 176.5 Q122 217 112 271 L30 271 L59 324 L105 324 L105 348 Q105 352 105.5 361.5 Q106 371 106 383 L30 383 L58 436 L112 436 Q126 503 159 556 Q192 609 242.5 646 Q293 683 358 703 Q423 723 500 723 Q692 723 797 606 L760 537 Z " />
<glyph glyph-name="trademark" unicode="&#x2122;" horiz-adv-x="687" d="M571 374 L573 659 L484 374 L442 374 L353 658 L357 374 L309 374 L309 706 L376 706 L462 434 L547 706 L615 706 L615 374 L571 374 Z M175 665 L175 374 L127 374 L127 665 L19 665 L19 706 L281 706 L281 665 L175 665 Z " />
<glyph glyph-name="Omega" unicode="&#x2126;" horiz-adv-x="830" d="M477 0 L477 62 Q500 68 516 73.5 Q532 79 545.5 85.5 Q559 92 571 101 Q583 110 597 122 Q645 165 672.5 235 Q700 305 700 385 Q700 448 680 500.5 Q660 553 623 590.5 Q586 628 534.5 648.5 Q483 669 421 669 Q355 669 300.5 648 Q246 627 207.5 588 Q169 549 148 494.5 Q127 440 127 373 Q127 327 137.5 281.5 Q148 236 167 200 Q195 149 235 116 Q248 105 259.5 97.5 Q271 90 284.5 84 Q298 78 314.5 73 Q331 68 353 62 L353 0 L44 0 L44 62 L222 62 Q141 109 97.5 187.5 Q54 266 54 369 Q54 448 81 513 Q108 578 157.5 625 Q207 672 275.5 698 Q344 724 426 724 Q505 724 569 699.5 Q633 675 678.5 630.5 Q724 586 748.5 523 Q773 460 773 382 Q773 304 747 237 Q721 170 673 121 Q663 111 654.5 103.5 Q646 96 637 89.5 Q628 83 616.5 76.5 Q605 70 590 62 L786 62 L786 0 L477 0 Z " />
<glyph glyph-name="partialdiff" unicode="&#x2202;" horiz-adv-x="574" d="M532 405 Q532 325 520.5 255 Q509 185 488 135 Q425 -10 271 -10 Q219 -10 175 5.5 Q131 21 100 49 Q69 77 51.5 116 Q34 155 34 201 Q34 252 51.5 293 Q69 334 100.5 363 Q132 392 177 408 Q222 424 277 424 Q329 424 374 409 Q419 394 464 362 Q465 375 465.5 382 Q466 389 466 402 Q466 536 422.5 596.5 Q379 657 284 657 Q259 657 235.5 654.5 Q212 652 177 644 L168 701 Q203 709 230 713 Q257 717 286 717 Q411 717 471.5 640 Q532 563 532 405 Z M457 302 Q372 366 271 366 Q194 366 150 321 Q106 276 106 198 Q106 130 150.5 89 Q195 48 269 48 Q353 48 399 108 Q413 127 423 150 Q433 173 442 209 Q446 224 448.5 235 Q451 246 452.5 256 Q454 266 455 276.5 Q456 287 457 302 Z " />
<glyph glyph-name="Delta" unicode="&#x2206;" horiz-adv-x="729" d="M-2 0 L333 706 L393 706 L731 0 L-2 0 Z M361 621 L106 63 L618 63 L361 621 Z " />
<glyph glyph-name="product" unicode="&#x220f;" horiz-adv-x="805" d="M662 -122 L662 646 L142 646 L142 -122 L76 -122 L76 706 L729 706 L729 -122 L662 -122 Z " />
<glyph glyph-name="summation" unicode="&#x2211;" horiz-adv-x="758" d="M44 -122 L44 -63 L401 303 L44 645 L44 706 L717 706 L718 647 L131 647 L489 306 L124 -64 L718 -64 L718 -122 L44 -122 Z " />
<glyph glyph-name="minus" unicode="&#x2212;" horiz-adv-x="772" d="M74 264 L74 323 L698 323 L698 264 L74 264 Z " />
<glyph glyph-name="radical" unicode="&#x221a;" horiz-adv-x="770" d="M396 -185 L334 -185 L163 120 L97 85 L69 139 L195 201 L358 -101 L637 706 L706 706 L396 -185 Z " />
<glyph glyph-name="infinity" unicode="&#x221e;" horiz-adv-x="772" d="M738 310 Q738 269 725.5 235 Q713 201 690 177 Q667 153 635.5 139.5 Q604 126 565 126 Q544 126 524 131 Q504 136 487 144 Q466 155 448 172 Q439 180 432 187.5 Q425 195 417.5 204.5 Q410 214 401.5 226 Q393 238 381 255 Q359 226 336 203 Q313 180 292 163 Q269 146 241.5 136.5 Q214 127 188 127 Q155 127 126.5 140 Q98 153 78 176 Q58 199 46.5 231 Q35 263 35 300 Q35 340 47.5 373 Q60 406 82.5 430 Q105 454 136.5 467 Q168 480 207 480 Q249 480 283 462 Q294 457 303.5 449.5 Q313 442 323 434 Q341 418 354.5 401 Q368 384 390 350 L415 378 Q447 414 469 432.5 Q491 451 517 463 Q534 471 551 475 Q568 479 585 479 Q618 479 646 466 Q674 453 694.5 430.5 Q715 408 726.5 377 Q738 346 738 310 Z M676 309 Q676 360 651 391.5 Q626 423 586 423 Q561 423 533.5 408 Q506 393 483 367 L439 318 L422 302 Q436 282 445 269.5 Q454 257 460.5 248 Q467 239 474 232 Q481 225 490 216 Q507 199 528.5 190 Q550 181 570 181 Q616 181 646 217 Q676 253 676 309 Z M348 304 Q335 324 326 336.5 Q317 349 310 357.5 Q303 366 296.5 373.5 Q290 381 280 390 Q263 407 242 416 Q221 425 200 425 Q154 425 125.5 390 Q97 355 97 298 Q97 247 121.5 215 Q146 183 186 183 Q209 183 237 198 Q265 213 288 239 L332 287 L348 304 Z " />
<glyph glyph-name="integral" unicode="&#x222b;" horiz-adv-x="353" d="M298 646 Q281 657 270.5 661 Q260 665 248 665 Q227 665 216 654 Q211 649 207 638 Q205 629 204 620.5 Q203 612 203 586 L203 -44 Q203 -83 200 -102.5 Q197 -122 189 -136 Q165 -177 104 -177 Q90 -177 77.5 -175 Q65 -173 45 -167 L45 -104 Q60 -112 70.5 -115 Q81 -118 93 -118 Q119 -118 128.5 -103.5 Q138 -89 138 -49 L138 594 Q138 629 141 646 Q144 663 152 678 Q163 698 185 709 Q207 720 238 720 Q253 720 267 717.5 Q281 715 298 708 L298 646 Z " />
<glyph glyph-name="approxequal" unicode="&#x2248;" horiz-adv-x="827" d="M747 409 Q734 395 724 385 Q714 375 705 367.5 Q696 360 686 354 Q676 348 664 341 Q637 327 611 320 Q585 313 556 313 Q533 313 509.5 318 Q486 323 454 336 L375 367 Q343 380 310.5 387.5 Q278 395 255 395 Q223 395 197.5 381.5 Q172 368 138 331 L127 319 L80 358 Q101 383 113 394.5 Q125 406 141 417 Q196 455 263 455 Q293 455 329.5 446 Q366 437 417 417 L469 397 Q502 384 523 378.5 Q544 373 561 373 Q581 373 601.5 378.5 Q622 384 639 395 Q653 404 665.5 414 Q678 424 701 447 L747 409 Z M747 225 Q722 198 705.5 185 Q689 172 664 158 Q612 129 556 129 Q533 129 509.5 134 Q486 139 454 152 L375 184 Q343 197 310.5 204 Q278 211 255 211 Q223 211 198.5 197 Q174 183 138 147 L127 136 L80 175 Q101 200 113 211.5 Q125 223 141 234 Q196 272 263 272 Q293 272 329.5 263 Q366 254 417 234 L469 214 Q502 201 523 195.5 Q544 190 561 190 Q581 190 601.5 195.5 Q622 201 639 212 Q653 220 665.5 230 Q678 240 701 263 L747 225 Z " />
<glyph glyph-name="notequal" unicode="&#x2260;" horiz-adv-x="772" d="M352 175 L250 -6 L180 -6 L282 175 L96 175 L96 231 L315 231 L380 351 L96 351 L96 408 L415 408 L511 575 L581 575 L485 408 L677 408 L677 351 L450 351 L384 231 L677 231 L677 175 L352 175 Z " />
<glyph glyph-name="lessequal" unicode="&#x2264;" horiz-adv-x="772" d="M104 337 L104 404 L646 632 L646 569 L167 373 L646 170 L646 104 L104 337 Z M104 0 L104 58 L646 58 L646 0 L104 0 Z " />
<glyph glyph-name="greaterequal" unicode="&#x2265;" horiz-adv-x="772" d="M126 104 L126 167 L605 363 L126 566 L126 632 L668 399 L668 332 L126 104 Z M126 0 L126 58 L668 58 L668 0 L126 0 Z " />
<glyph glyph-name="lozenge" unicode="&#x25ca;" horiz-adv-x="772" d="M415 0 L352 0 L158 356 L352 706 L415 706 L614 352 L415 0 Z M385 648 L228 360 L384 59 L542 351 L385 648 Z " />
<glyph glyph-name="fi" unicode="&#xfb01;" horiz-adv-x="562" d="M425 582 L425 678 L491 678 L491 582 L425 582 Z M425 0 L425 494 L491 494 L491 0 L425 0 Z M174 443 L174 0 L108 0 L108 443 L10 443 L10 494 L108 494 Q108 507 107.5 528 Q107 549 107 571.5 Q107 594 109 615.5 Q111 637 116 650 Q133 694 167.5 708.5 Q202 723 245 723 Q295 723 341 713 L341 655 Q319 660 299 662.5 Q279 665 256 665 Q207 665 190.5 643 Q174 621 174 575 L174 494 L341 494 L341 443 L174 443 Z " />
<glyph glyph-name="fl" unicode="&#xfb02;" horiz-adv-x="562" d="M426 0 L426 706 L492 706 L492 0 L426 0 Z M174 443 L174 0 L108 0 L108 443 L10 443 L10 494 L108 494 Q108 507 107.5 528 Q107 549 107 571.5 Q107 594 109 615.5 Q111 637 116 650 Q133 694 167.5 708.5 Q202 723 245 723 Q295 723 341 713 L341 655 Q319 660 299 662.5 Q279 665 256 665 Q207 665 190.5 643 Q174 621 174 575 L174 494 L341 494 L341 443 L174 443 Z " />
</font>
</svg>
