<?xml version="1.0" encoding="UTF-8"?>
<svg xmlns="http://www.w3.org/2000/svg" xmlns:xlink="http://www.w3.org/1999/xlink" version="1.2" >
<font id="NissanAG-MediumItalic">
<font-face  font-family="NissanAG" units-per-em="1000" ascent="750" descent="-250" font-style="italic" font-weight="500" font-stretch="normal" slope="-11" cap-height="750" x-height="500" underline-position="-75" underline-thickness="50" />
<missing-glyph  horiz-adv-x="1000" d="" />
<glyph glyph-name="null" d="" />
<glyph glyph-name="nonmarkingreturn" unicode="&#xd;" horiz-adv-x="250" d="" />
<glyph glyph-name="space" unicode="&#x20;" horiz-adv-x="288" d="" />
<glyph glyph-name="exclam" unicode="&#x21;" horiz-adv-x="292" d="M325 607 L279 409 Q274 387 266.5 373 Q259 359 251 338 L194 197 L132 197 L138 266 L150 404 L197 605 L220 706 L348 706 L325 607 Z M184 0 L52 0 L83 135 L215 135 L184 0 Z " />
<glyph glyph-name="quotedbl" unicode="&#x22;" horiz-adv-x="332" d="M331 444 L296 444 L334 744 L430 744 L331 444 Z M165 444 L131 444 L169 744 L265 744 L165 444 Z " />
<glyph glyph-name="numbersign" unicode="&#x23;" horiz-adv-x="667" d="M670 408 L539 408 L509 314 L632 314 L614 214 L479 214 L410 0 L310 0 L378 214 L279 214 L212 0 L110 0 L177 214 L55 214 L73 314 L208 314 L237 408 L111 408 L129 508 L268 508 L330 706 L434 706 L371 508 L469 508 L531 706 L632 706 L570 508 L688 508 L670 408 Z M339 408 L309 314 L409 314 L438 408 L339 408 Z " />
<glyph glyph-name="dollar" unicode="&#x24;" horiz-adv-x="597" d="M504 495 Q499 530 470.5 552.5 Q442 575 410 583 L368 400 Q403 385 437 369.5 Q471 354 497.5 332 Q524 310 540.5 279 Q557 248 557 203 Q557 152 534.5 111.5 Q512 71 476 43.5 Q440 16 394 1.5 Q348 -13 301 -13 Q294 -13 287 -12.5 Q280 -12 273 -12 L252 -104 L187 -104 L210 -5 Q196 -3 181 2.5 Q166 8 153 14 Q101 38 66.5 80 Q32 122 23 180 L140 215 Q144 174 169 143.5 Q194 113 235 103 L282 307 Q273 311 263.5 314 Q254 317 245 321 Q208 337 175.5 363 Q143 389 126 427 Q112 458 112 492 Q112 512 117.5 531.5 Q123 551 132 569 Q149 602 174 625.5 Q199 649 229.5 663.5 Q260 678 294.5 685 Q329 692 364 692 L371 692 L390 773 L454 773 L434 686 Q465 680 494 667 Q523 654 547.5 635.5 Q572 617 590.5 592 Q609 567 618 535 L504 495 Z M347 587 Q329 587 310 581.5 Q291 576 275.5 565 Q260 554 249.5 538.5 Q239 523 239 503 Q239 485 245 473 Q251 461 261 452.5 Q271 444 283.5 437.5 Q296 431 309 424 L347 587 Z M426 194 Q426 214 418.5 228 Q411 242 399 252.5 Q387 263 371.5 270.5 Q356 278 341 285 L298 96 L306 96 Q327 96 348.5 102.5 Q370 109 387.5 121.5 Q405 134 415.5 152 Q426 170 426 194 Z " />
<glyph glyph-name="percent" unicode="&#x25;" horiz-adv-x="875" d="M862 283 Q862 258 858 234 Q854 210 849 186 Q841 151 827.5 116 Q814 81 793 53.5 Q772 26 741.5 8.5 Q711 -9 670 -9 Q596 -9 559.5 35.5 Q523 80 523 152 Q523 197 533.5 249 Q544 301 567 346 Q590 391 628 420.5 Q666 450 721 450 Q759 450 785.5 437 Q812 424 829 401 Q846 378 854 348 Q862 318 862 283 Z M263 -12 L213 23 L678 692 L728 658 L263 -12 Z M416 522 Q416 472 404 424 Q396 389 382.5 354 Q369 319 348 291.5 Q327 264 297 247 Q267 230 225 230 Q150 230 114 274.5 Q78 319 78 391 Q78 436 88 488.5 Q98 541 121.5 585 Q145 629 183 658.5 Q221 688 276 688 Q314 688 340.5 675 Q367 662 383.5 639.5 Q400 617 408 587 Q416 557 416 522 Z M776 296 Q776 325 764 350 Q752 375 718 375 Q688 375 667 348.5 Q646 322 633.5 285 Q621 248 615 210 Q609 172 609 149 Q609 134 611 119.5 Q613 105 619.5 93 Q626 81 637.5 74 Q649 67 667 67 Q698 67 719 94 Q740 121 752.5 158 Q765 195 770.5 234 Q776 273 776 296 Z M331 534 Q331 548 328.5 562.5 Q326 577 319 588.5 Q312 600 301 607 Q290 614 273 614 Q243 614 222 587 Q201 560 188.5 523.5 Q176 487 170 448.5 Q164 410 164 387 Q164 372 166.5 357.5 Q169 343 175 331.5 Q181 320 192.5 313 Q204 306 222 306 Q246 306 262.5 320.5 Q279 335 290.5 356 Q302 377 308.5 400.5 Q315 424 319 442 Q324 465 327.5 488 Q331 511 331 534 Z " />
<glyph glyph-name="ampersand" unicode="&#x26;" horiz-adv-x="667" d="M653 307 Q641 256 612 204 Q583 152 547 116 Q561 105 574.5 102 Q588 99 605 99 Q614 99 622.5 100 Q631 101 640 102 L615 -2 Q606 -4 595 -4.5 Q584 -5 574 -5 Q538 -5 508 5.5 Q478 16 453 44 Q405 15 354.5 0 Q304 -15 247 -15 Q217 -15 187 -9.5 Q157 -4 131 9 Q105 22 83 42 Q61 62 47 90 Q28 128 28 169 Q28 217 48 250.5 Q68 284 99.5 309 Q131 334 169 352.5 Q207 371 243 389 Q234 415 227.5 442.5 Q221 470 221 497 Q221 534 233.5 564 Q246 594 268.5 615 Q291 636 322 647.5 Q353 659 389 659 Q418 659 444.5 649.5 Q471 640 491 622.5 Q511 605 523 580.5 Q535 556 535 525 Q535 493 521 466.5 Q507 440 485 419 Q463 398 436 381.5 Q409 365 383 352 Q405 313 426.5 270 Q448 227 477 194 Q502 222 512.5 247.5 Q523 273 535 307 L653 307 Z M431 528 Q431 545 420.5 558 Q410 571 391 571 Q361 571 346 551.5 Q331 532 331 503 Q331 486 335.5 470.5 Q340 455 346 440 Q349 442 355 444 Q366 449 379.5 457.5 Q393 466 404.5 477.5 Q416 489 423.5 502 Q431 515 431 528 Z M379 135 Q351 174 327 215.5 Q303 257 281 300 Q262 290 239 279 Q216 268 196.5 254 Q177 240 163.5 221 Q150 202 150 176 Q150 153 159 136 Q168 119 183 108 Q198 97 217.5 91.5 Q237 86 258 86 Q287 86 324.5 97 Q362 108 386 125 L379 135 Z " />
<glyph glyph-name="quotesingle" unicode="&#x27;" horiz-adv-x="166" d="M165 444 L131 444 L169 744 L265 744 L165 444 Z " />
<glyph glyph-name="parenleft" unicode="&#x28;" horiz-adv-x="326" d="M471 747 Q438 723 411 701.5 Q384 680 362 659 Q340 638 321 616.5 Q302 595 285 571 Q231 495 202 402.5 Q173 310 173 212 Q173 145 186.5 83 Q200 21 226 -32 Q237 -55 246 -69 Q255 -83 274 -107 L217 -161 Q204 -146 195 -135.5 Q186 -125 178.5 -115.5 Q171 -106 165 -97 Q159 -88 151 -77 Q61 60 61 223 Q61 417 174 576 Q208 623 247 663.5 Q286 704 334 740 Q346 749 356.5 756.5 Q367 764 377.5 771 Q388 778 400.5 786 Q413 794 430 804 L471 747 Z " />
<glyph glyph-name="parenright" unicode="&#x29;" horiz-adv-x="326" d="M320 417 Q320 222 207 64 Q142 -28 47 -100 Q35 -110 25 -117.5 Q15 -125 4 -132 Q-7 -139 -19 -146.5 Q-31 -154 -48 -164 L-89 -107 Q-23 -59 19.5 -19 Q62 21 96 68 Q151 145 180 237 Q209 329 209 427 Q209 495 195.5 556.5 Q182 618 156 672 Q145 695 135.5 709 Q126 723 108 747 L164 801 Q177 786 186 775.5 Q195 765 202.5 755.5 Q210 746 216.5 736.5 Q223 727 230 716 Q320 580 320 417 Z " />
<glyph glyph-name="asterisk" unicode="&#x2a;" horiz-adv-x="378" d="M332 510 L371 419 L293 383 L250 478 L174 411 L118 478 L191 542 L105 592 L148 667 L237 617 L261 717 L345 696 L321 596 L426 606 L434 520 L332 510 Z " />
<glyph glyph-name="plus" unicode="&#x2b;" horiz-adv-x="724" d="M645 261 L440 261 L391 44 L261 44 L310 261 L109 261 L133 367 L335 367 L384 580 L514 580 L464 367 L669 367 L645 261 Z " />
<glyph glyph-name="comma" unicode="&#x2c;" horiz-adv-x="250" d="M145 0 Q141 -14 135 -39 Q129 -64 122 -77 Q87 -142 12 -142 Q6 -142 0 -142 Q-6 -142 -12 -141 L3 -78 Q21 -78 32 -71 Q43 -64 49.5 -53 Q56 -42 60 -28 Q64 -14 67 0 L13 0 L44 135 L177 135 L145 0 Z " />
<glyph glyph-name="hyphen" unicode="&#x2d;" horiz-adv-x="372" d="M344 248 L55 248 L81 361 L370 361 L344 248 Z " />
<glyph glyph-name="period" unicode="&#x2e;" horiz-adv-x="250" d="M145 0 L13 0 L44 135 L177 135 L145 0 Z " />
<glyph glyph-name="slash" unicode="&#x2f;" horiz-adv-x="417" d="M87 0 L-41 0 L400 706 L526 706 L87 0 Z " />
<glyph glyph-name="zero" unicode="0" horiz-adv-x="562" d="M573 437 Q573 401 568 360.5 Q563 320 553.5 279 Q544 238 530 200 Q516 162 498 130 Q460 63 408 25 Q356 -13 277 -13 Q220 -13 178.5 5 Q137 23 109 56 Q81 89 67.5 134.5 Q54 180 54 234 Q54 283 62.5 340.5 Q71 398 89.5 453.5 Q108 509 136 558 Q164 607 203 640 Q235 667 274 680 Q313 693 355 693 Q414 693 455.5 673.5 Q497 654 523 619.5 Q549 585 561 538 Q573 491 573 437 Z M449 457 Q449 480 444.5 503 Q440 526 429 544.5 Q418 563 399.5 574.5 Q381 586 354 586 Q326 586 304 571.5 Q282 557 265 537 Q246 513 230 473.5 Q214 434 202.5 389.5 Q191 345 185 302 Q179 259 179 228 Q179 204 183 180 Q187 156 197.5 137.5 Q208 119 227 107.5 Q246 96 275 96 Q313 96 339.5 118.5 Q366 141 384 174 Q402 207 413 244.5 Q424 282 430 311 Q438 346 443.5 383.5 Q449 421 449 457 Z " />
<glyph glyph-name="one" unicode="1" horiz-adv-x="562" d="M316 0 L193 0 L281 381 Q285 396 288.5 412 Q292 428 292 443 Q292 456 287.5 462.5 Q283 469 275.5 472 Q268 475 258 475 Q248 475 238 475 L143 475 L162 556 Q229 556 283.5 585 Q338 614 363 680 L473 680 L316 0 Z " />
<glyph glyph-name="two" unicode="2" horiz-adv-x="562" d="M555 504 Q555 466 543.5 434 Q532 402 512 371 Q492 340 454.5 304 Q417 268 374 232 Q331 196 288.5 164 Q246 132 214 109 L496 109 L471 0 L12 0 L35 101 Q73 127 121.5 163 Q170 199 219 239 Q268 279 311 320 Q354 361 381 396 Q398 418 410 442.5 Q422 467 422 495 Q422 531 398 556 Q374 581 337 581 Q321 581 304.5 576 Q288 571 275 561 Q249 541 234 516.5 Q219 492 212 460 Q210 454 210 447.5 Q210 441 208 434 L86 452 Q93 507 114 551.5 Q135 596 168.5 627.5 Q202 659 247.5 676 Q293 693 348 693 Q391 693 428.5 680.5 Q466 668 494 643.5 Q522 619 538.5 584 Q555 549 555 504 Z " />
<glyph glyph-name="three" unicode="3" horiz-adv-x="562" d="M555 522 Q555 489 541.5 459.5 Q528 430 505.5 407.5 Q483 385 453 370.5 Q423 356 391 353 Q410 349 427 344 Q444 339 460 327 Q486 307 497.5 276 Q509 245 509 214 Q509 160 487.5 118 Q466 76 430 46.5 Q394 17 347.5 2 Q301 -13 251 -13 Q169 -13 110.5 21.5 Q52 56 25 137 Q20 151 15.5 171.5 Q11 192 11 207 L140 219 Q140 166 170 130.5 Q200 95 255 95 Q280 95 303 103.5 Q326 112 343.5 127.5 Q361 143 371.5 165 Q382 187 382 213 Q382 241 372.5 260 Q363 279 346.5 290 Q330 301 308 306 Q286 311 260 311 Q254 311 248.5 310.5 Q243 310 237 309 L261 413 Q282 410 302 410 Q324 410 346.5 415.5 Q369 421 387.5 432.5 Q406 444 417.5 462 Q429 480 429 506 Q429 545 400.5 566 Q372 587 336 587 Q291 587 260.5 560 Q230 533 219 491 L98 517 Q107 539 115 559 Q123 579 137 599 Q173 647 228.5 670 Q284 693 343 693 L346 693 Q404 693 455.5 671 Q507 649 536 595 Q555 560 555 522 Z " />
<glyph glyph-name="four" unicode="4" horiz-adv-x="562" d="M465 264 L554 264 L530 161 L441 161 L404 0 L282 0 L319 161 L34 161 L62 278 L413 680 L561 680 L465 264 Z M173 264 L343 264 L414 545 L173 264 Z " />
<glyph glyph-name="five" unicode="5" horiz-adv-x="562" d="M553 570 L284 570 L240 431 Q269 448 295.5 456 Q322 464 356 464 Q400 464 434 447.5 Q468 431 491.5 403.5 Q515 376 527.5 339 Q540 302 540 260 Q540 229 533 197.5 Q526 166 512 138 Q474 60 408.5 23.5 Q343 -13 258 -13 Q216 -13 178 -0.5 Q140 12 110.5 35.5 Q81 59 62.5 93.5 Q44 128 41 173 L171 183 Q179 143 204.5 121 Q230 99 272 99 Q304 99 329.5 112 Q355 125 373.5 146.5 Q392 168 402 196 Q412 224 412 254 Q412 276 404.5 296 Q397 316 384 331 Q371 346 352.5 355 Q334 364 311 364 Q272 364 242 343 Q212 322 195 288 L86 288 L205 680 L578 680 L553 570 Z " />
<glyph glyph-name="six" unicode="6" horiz-adv-x="562" d="M465 513 Q457 545 438.5 565 Q420 585 385 585 Q349 585 322.5 567 Q296 549 276.5 521 Q257 493 244 460.5 Q231 428 222 399 Q284 445 361 445 Q405 445 440 428.5 Q475 412 499.5 384.5 Q524 357 537 319.5 Q550 282 550 240 Q550 204 539 169.5 Q528 135 508.5 104 Q489 73 462 49 Q435 25 403 10 Q377 -2 348.5 -7.5 Q320 -13 291 -13 Q233 -13 191 8 Q149 29 122 64.5 Q95 100 82.5 147 Q70 194 70 247 Q70 318 89.5 396.5 Q109 475 149 541 Q189 607 250.5 650 Q312 693 395 693 Q473 693 526 651.5 Q579 610 600 535 L465 513 Z M424 233 Q424 281 396 312 Q368 343 319 343 Q292 343 269.5 332.5 Q247 322 231 304.5 Q215 287 206 263.5 Q197 240 197 214 Q197 190 204 168 Q211 146 224.5 129.5 Q238 113 257.5 103 Q277 93 303 93 Q331 93 353.5 105.5 Q376 118 391.5 137.5 Q407 157 415.5 182.5 Q424 208 424 233 Z " />
<glyph glyph-name="seven" unicode="7" horiz-adv-x="562" d="M576 562 Q519 510 468 444 Q417 378 375 304.5 Q333 231 302 153 Q271 75 254 0 L100 0 Q106 21 112 42 Q118 63 126 84 Q162 186 218 279 Q274 372 340 457 Q357 480 375 501.5 Q393 523 413 543 L440 570 L99 570 L125 680 L603 680 L576 562 Z " />
<glyph glyph-name="eight" unicode="8" horiz-adv-x="562" d="M580 515 Q580 453 541.5 408.5 Q503 364 445 348 Q451 347 456 343 Q494 321 514.5 282.5 Q535 244 535 200 Q535 131 495.5 79 Q456 27 391 4 Q365 -5 339.5 -9 Q314 -13 288 -13 L278 -13 Q232 -13 188.5 -1 Q145 11 111.5 36 Q78 61 58 99 Q38 137 38 189 Q38 261 79 312.5 Q120 364 191 378 Q158 400 139 433 Q120 466 120 506 Q120 528 125.5 548.5 Q131 569 141 588 Q157 617 179.5 637 Q202 657 229.5 669.5 Q257 682 287.5 687.5 Q318 693 349 693 Q391 693 432 683 Q473 673 506 651.5 Q539 630 559.5 596.5 Q580 563 580 515 Z M454 506 Q454 527 445 543 Q436 559 421.5 569.5 Q407 580 388.5 585 Q370 590 351 590 Q331 590 312 583.5 Q293 577 278.5 565 Q264 553 255.5 536 Q247 519 247 497 Q247 453 276 431 Q305 409 346 409 Q391 409 422.5 433.5 Q454 458 454 506 Z M405 203 Q405 228 395 247 Q385 266 368.5 279 Q352 292 330 298.5 Q308 305 285 305 Q262 305 240.5 297.5 Q219 290 202.5 276.5 Q186 263 176.5 243 Q167 223 167 199 Q167 175 177.5 156 Q188 137 204.5 124.5 Q221 112 242.5 105.5 Q264 99 286 99 Q309 99 330.5 106 Q352 113 368.5 126 Q385 139 395 158.5 Q405 178 405 203 Z " />
<glyph glyph-name="nine" unicode="9" horiz-adv-x="562" d="M557 432 Q557 353 534 273 Q519 218 493.5 166.5 Q468 115 431 75 Q394 35 344.5 11 Q295 -13 232 -13 Q196 -13 162 -2 Q128 9 100.5 29.5 Q73 50 54 79.5 Q35 109 28 145 L162 167 Q169 135 188 115 Q207 95 242 95 Q278 95 305 113 Q332 131 351 159 Q370 187 383 219.5 Q396 252 405 281 Q373 257 339 246 Q305 235 265 235 Q221 235 186 251.5 Q151 268 127 296 Q103 324 90 361 Q77 398 77 440 Q77 474 87 507.5 Q97 541 115 571 Q133 601 158 625 Q183 649 213 665 Q269 693 334 693 Q393 693 435 672.5 Q477 652 504 617 Q531 582 544 534 Q557 486 557 432 Z M429 466 Q429 490 422.5 512 Q416 534 402.5 550.5 Q389 567 369.5 577 Q350 587 324 587 Q296 587 274 574.5 Q252 562 236 542.5 Q220 523 211.5 498 Q203 473 203 447 Q203 399 231 367.5 Q259 336 308 336 Q335 336 357 346.5 Q379 357 395 375 Q411 393 420 416.5 Q429 440 429 466 Z " />
<glyph glyph-name="colon" unicode="&#x3a;" horiz-adv-x="292" d="M273 374 L141 374 L172 509 L304 509 L273 374 Z M187 0 L54 0 L86 135 L218 135 L187 0 Z " />
<glyph glyph-name="semicolon" unicode="&#x3b;" horiz-adv-x="292" d="M273 374 L141 374 L172 509 L304 509 L273 374 Z M187 0 Q182 -21 177.5 -39.5 Q173 -58 165.5 -74.5 Q158 -91 145.5 -104.5 Q133 -118 112 -129 Q99 -136 84.5 -139 Q70 -142 56 -142 Q49 -142 43 -141.5 Q37 -141 30 -140 L44 -78 Q62 -78 73 -71 Q84 -64 91 -53 Q98 -42 102 -28 Q106 -14 109 0 L54 0 L86 135 L218 135 L187 0 Z " />
<glyph glyph-name="less" unicode="&#x3c;" horiz-adv-x="724" d="M648 471 L265 312 L574 146 L545 24 L134 260 L164 383 L680 604 L648 471 Z " />
<glyph glyph-name="equal" unicode="&#x3d;" horiz-adv-x="724" d="M658 351 L132 351 L157 457 L682 457 L658 351 Z M611 149 L85 149 L110 254 L635 254 L611 149 Z " />
<glyph glyph-name="greater" unicode="&#x3e;" horiz-adv-x="724" d="M623 238 L107 17 L139 150 L522 309 L213 475 L242 597 L653 361 L623 238 Z " />
<glyph glyph-name="question" unicode="&#x3f;" horiz-adv-x="542" d="M612 532 Q612 495 598 466.5 Q584 438 562 415 Q540 392 512.5 373 Q485 354 459 334 Q431 313 415 301.5 Q399 290 389.5 278 Q380 266 373.5 248 Q367 230 358 197 L247 197 L259 250 Q267 283 273 302 Q279 321 289 335 Q299 349 315 362 Q331 375 358 396 L403 431 Q415 440 428 449.5 Q441 459 451 470.5 Q461 482 467.5 495.5 Q474 509 474 526 Q474 547 465 562 Q456 577 442 587 Q428 597 410 602 Q392 607 374 607 Q328 607 293.5 582.5 Q259 558 244 515 Q240 504 238.5 492 Q237 480 235 469 L115 496 Q138 602 204.5 658.5 Q271 715 379 715 Q410 715 441 709.5 Q472 704 500 692 Q528 680 551.5 660.5 Q575 641 591 612 Q601 594 606.5 573.5 Q612 553 612 532 Z M324 0 L192 0 L223 135 L355 135 L324 0 Z " />
<glyph glyph-name="at" unicode="&#x40;" horiz-adv-x="883" d="M841 433 Q841 363 820 297 Q799 231 764.5 180 Q730 129 685 98.5 Q640 68 592 68 Q574 68 557.5 74 Q541 80 530 91 Q521 100 516.5 111 Q512 122 509 144 L507 142 L505 140 Q446 68 372 68 Q312 68 277.5 110.5 Q243 153 243 225 Q243 283 261.5 336.5 Q280 390 311.5 430.5 Q343 471 383.5 495 Q424 519 469 519 Q506 519 531.5 502 Q557 485 575 447 L589 498 L668 498 L630 343 Q613 271 604.5 230.5 Q596 190 596 172 Q596 139 619 139 Q637 139 660 159 Q683 179 705 213 Q736 261 753 318.5 Q770 376 770 433 Q770 481 754 520 Q738 559 708.5 586.5 Q679 614 637 629 Q595 644 543 644 Q464 644 392 609.5 Q320 575 265 517 Q210 459 177 383 Q144 307 144 224 Q144 160 165.5 108 Q187 56 227 19 Q267 -18 323.5 -38 Q380 -58 450 -58 Q513 -58 571.5 -40 Q630 -22 692 16 Q708 26 721.5 35 Q735 44 748 54 Q759 63 766 69.5 Q773 76 785 88 L823 37 Q792 10 768 -9.5 Q744 -29 722.5 -43 Q701 -57 680 -68 Q659 -79 633 -89 Q543 -125 451 -125 Q367 -125 298 -100.5 Q229 -76 179.5 -30.5 Q130 15 103 78 Q76 141 76 217 Q76 319 113.5 409 Q151 499 216.5 566 Q282 633 369 672 Q456 711 555 711 Q621 711 673.5 691.5 Q726 672 763.5 636 Q801 600 821 548.5 Q841 497 841 433 Z M543 353 Q543 395 523.5 418.5 Q504 442 470 442 Q444 442 419.5 424 Q395 406 376 377 Q357 348 345.5 310 Q334 272 334 232 Q334 192 353 168.5 Q372 145 404 145 Q449 145 491 198 Q502 212 511 230 Q520 248 527.5 268 Q535 288 539 309 Q543 330 543 348 L543 353 Z " />
<glyph glyph-name="A" unicode="A" horiz-adv-x="646" d="M469 0 L455 147 L197 147 L119 0 L-26 0 L379 706 L526 706 L602 0 L469 0 Z M423 572 L258 258 L446 258 L423 572 Z " />
<glyph glyph-name="B" unicode="B" horiz-adv-x="667" d="M665 549 Q665 477 623.5 430 Q582 383 513 368 Q542 365 565.5 350.5 Q589 336 605.5 314.5 Q622 293 630.5 266.5 Q639 240 639 212 Q639 179 627 146 Q615 113 595 87 Q570 55 538 37.5 Q506 20 470 11.5 Q434 3 396 1.5 Q358 0 321 0 L23 0 L186 706 L437 706 Q463 706 489 704.5 Q515 703 540 697 Q565 691 587.5 679 Q610 667 628 646 Q647 624 656 601 Q665 578 665 549 Z M533 525 Q533 549 524 563 Q515 577 500 584.5 Q485 592 466.5 594.5 Q448 597 429 597 L295 597 L255 425 L385 425 Q418 425 450.5 431 Q483 437 507 462 Q533 488 533 525 Z M505 220 Q505 236 500.5 251.5 Q496 267 486 279 Q461 311 430.5 315.5 Q400 320 363 320 L231 320 L184 116 L323 116 Q342 116 363.5 116.5 Q385 117 406 120.5 Q427 124 446 132 Q465 140 479 156 Q491 170 498 185.5 Q505 201 505 220 Z " />
<glyph glyph-name="C" unicode="C" horiz-adv-x="688" d="M589 461 Q589 533 553.5 570.5 Q518 608 444 608 Q407 608 376.5 596 Q346 584 317 561 Q292 541 273 509 Q254 477 240.5 440.5 Q227 404 220 367 Q213 330 213 299 Q213 260 222 224.5 Q231 189 250.5 162.5 Q270 136 301 120.5 Q332 105 375 105 Q413 105 442.5 116 Q472 127 495 146.5 Q518 166 536 192.5 Q554 219 569 251 L685 204 Q646 96 562.5 40.5 Q479 -15 367 -15 Q299 -15 245 5.5 Q191 26 153.5 64.5 Q116 103 96 157.5 Q76 212 76 281 Q76 365 99.5 444.5 Q123 524 169.5 585.5 Q216 647 285.5 684 Q355 721 448 721 Q486 721 524 713.5 Q562 706 595.5 689 Q629 672 655.5 645.5 Q682 619 698 581 Q709 556 712.5 532.5 Q716 509 718 483 L589 461 Z " />
<glyph glyph-name="D" unicode="D" horiz-adv-x="729" d="M726 420 Q726 357 711 296 Q696 235 666 182.5 Q636 130 590.5 89 Q545 48 484 25 Q436 7 386.5 3.5 Q337 0 286 0 L23 0 L186 706 L352 706 Q402 706 453 704.5 Q504 703 552 689 Q599 675 632 648.5 Q665 622 686 587 Q707 552 716.5 509.5 Q726 467 726 420 Z M591 409 Q591 441 584 473 Q577 505 557 531 Q538 555 513 567 Q488 579 459.5 584 Q431 589 401 589.5 Q371 590 344 590 L293 590 L183 116 L210 116 Q239 116 268 116.5 Q297 117 326 118 Q403 121 459 148.5 Q515 176 553 248 Q571 283 581 326.5 Q591 370 591 409 Z " />
<glyph glyph-name="E" unicode="E" horiz-adv-x="625" d="M640 591 L290 591 L251 424 L584 424 L558 311 L225 311 L180 114 L582 114 L556 0 L23 0 L186 706 L666 706 L640 591 Z " />
<glyph glyph-name="F" unicode="F" horiz-adv-x="542" d="M639 590 L292 590 L248 402 L573 402 L547 290 L222 290 L155 0 L23 0 L186 706 L666 706 L639 590 Z " />
<glyph glyph-name="G" unicode="G" horiz-adv-x="750" d="M623 482 Q616 545 577.5 577 Q539 609 477 609 Q416 609 367.5 578.5 Q319 548 285 500.5 Q251 453 233 395 Q215 337 215 282 Q215 243 226.5 209 Q238 175 260.5 150 Q283 125 315 111 Q347 97 388 97 Q471 97 516.5 139.5 Q562 182 579 259 L391 259 L417 372 L728 372 L642 0 L525 0 L541 48 Q501 14 454.5 -0.5 Q408 -15 357 -15 Q291 -15 239 6 Q187 27 150.5 65 Q114 103 94.5 156 Q75 209 75 274 Q75 359 104 439.5 Q133 520 185.5 582.5 Q238 645 312 683 Q386 721 476 721 Q523 721 576 707.5 Q629 694 666 664 Q703 634 722 595.5 Q741 557 754 512 L623 482 Z " />
<glyph glyph-name="H" unicode="H" horiz-adv-x="708" d="M596 0 L463 0 L536 316 L229 316 L156 0 L23 0 L186 706 L319 706 L255 429 L562 429 L626 706 L759 706 L596 0 Z " />
<glyph glyph-name="I" unicode="I" horiz-adv-x="271" d="M157 0 L24 0 L187 706 L320 706 L157 0 Z " />
<glyph glyph-name="J" unicode="J" horiz-adv-x="396" d="M337 234 Q323 174 308.5 128 Q294 82 268 51.5 Q242 21 199.5 5 Q157 -11 87 -11 Q60 -11 31 -9 Q2 -7 -24 0 L4 119 Q24 113 45 110.5 Q66 108 86 108 Q139 108 161 131 Q183 154 196 201 Q202 221 206.5 242 Q211 263 216 283 L314 706 L446 706 L337 234 Z " />
<glyph glyph-name="K" unicode="K" horiz-adv-x="646" d="M437 424 L627 0 L479 0 L338 338 L204 218 L154 0 L23 0 L186 706 L317 706 L242 382 L572 706 L744 706 L437 424 Z " />
<glyph glyph-name="L" unicode="L" horiz-adv-x="521" d="M460 0 L23 0 L186 706 L319 706 L183 117 L487 117 L460 0 Z " />
<glyph glyph-name="M" unicode="M" horiz-adv-x="854" d="M741 0 L613 0 L753 585 L437 0 L323 0 L280 585 L152 0 L23 0 L186 706 L379 706 L414 172 L710 706 L904 706 L741 0 Z " />
<glyph glyph-name="N" unicode="N" horiz-adv-x="708" d="M596 0 L479 0 L262 518 L152 0 L23 0 L186 706 L306 706 L521 185 L632 706 L759 706 L596 0 Z " />
<glyph glyph-name="O" unicode="O" horiz-adv-x="750" d="M748 419 Q748 359 733.5 298 Q719 237 690 183 Q586 -15 366 -15 Q297 -15 242.5 6.5 Q188 28 151 68 Q114 108 94.5 163.5 Q75 219 75 287 Q75 323 80.5 359 Q86 395 96 430 Q114 495 146.5 548.5 Q179 602 224.5 640.5 Q270 679 328.5 700 Q387 721 456 721 Q494 721 533 713.5 Q572 706 605 688 Q642 668 669 638.5 Q696 609 713.5 574 Q731 539 739.5 499.5 Q748 460 748 419 Z M616 424 Q616 463 605.5 496.5 Q595 530 574.5 554 Q554 578 523 592 Q492 606 451 606 Q413 606 378 594 Q343 582 314 556 Q290 535 270.5 502.5 Q251 470 237.5 433.5 Q224 397 217 359.5 Q210 322 210 290 Q210 250 220.5 216 Q231 182 251.5 157 Q272 132 303.5 118 Q335 104 377 104 Q428 104 466 122.5 Q504 141 531.5 172.5 Q559 204 576.5 244.5 Q594 285 604 329 Q609 352 612.5 376 Q616 400 616 424 Z " />
<glyph glyph-name="P" unicode="P" horiz-adv-x="604" d="M655 510 Q655 431 613 364 Q588 324 558 301.5 Q528 279 493 267.5 Q458 256 419 253 Q380 250 338 250 L214 250 L156 0 L23 0 L186 706 L379 706 Q399 706 421.5 706 Q444 706 467 704.5 Q490 703 512 699 Q534 695 552 686 Q606 661 630.5 614 Q655 567 655 510 Z M520 502 Q520 534 500 559 Q489 573 474.5 580 Q460 587 444 590 Q428 593 411.5 593 Q395 593 379 593 L293 593 L240 363 L335 363 Q358 363 379.5 363.5 Q401 364 420 368.5 Q439 373 456.5 383.5 Q474 394 490 414 Q504 431 512 455.5 Q520 480 520 502 Z " />
<glyph glyph-name="Q" unicode="Q" horiz-adv-x="771" d="M742 -44 Q706 -24 669.5 9 Q633 42 607 73 Q559 26 495 5.5 Q431 -15 365 -15 Q295 -15 240 6.5 Q185 28 148 67.5 Q111 107 91.5 163 Q72 219 72 288 Q72 376 100.5 459.5 Q129 543 188 609 Q242 670 310.5 695.5 Q379 721 460 721 Q525 721 581.5 700.5 Q638 680 680 628 Q716 583 732.5 531.5 Q749 480 749 423 Q749 394 744.5 360 Q740 326 732 292 Q724 258 711.5 226.5 Q699 195 683 170 Q709 141 743.5 115 Q778 89 811 70 L742 -44 Z M617 424 Q617 463 607 496.5 Q597 530 577 555 Q557 580 525.5 594 Q494 608 452 608 Q389 608 343 578.5 Q297 549 266.5 503 Q236 457 221.5 400.5 Q207 344 207 289 Q207 250 217 216.5 Q227 183 247.5 157.5 Q268 132 299 117.5 Q330 103 372 103 Q424 103 463.5 122 Q503 141 531.5 172.5 Q560 204 578 245.5 Q596 287 606 333 Q611 356 614 378.5 Q617 401 617 424 Z " />
<glyph glyph-name="R" unicode="R" horiz-adv-x="646" d="M674 519 Q674 478 661.5 440.5 Q649 403 626 373 Q603 343 570 322 Q537 301 495 294 L588 0 L450 0 L367 278 L219 278 L155 0 L23 0 L186 706 L410 706 Q443 706 476.5 705 Q510 704 540.5 696.5 Q571 689 598 672.5 Q625 656 645 625 Q660 602 667 574 Q674 546 674 519 Z M537 506 Q537 520 533 535 Q529 550 520 561 Q499 588 470.5 592.5 Q442 597 410 597 L293 597 L243 382 L388 382 Q430 382 464 393 Q498 404 521 442 Q529 456 533 473 Q537 490 537 506 Z " />
<glyph glyph-name="S" unicode="S" horiz-adv-x="625" d="M530 513 Q514 561 474 583 Q434 605 386 605 Q368 605 346.5 601.5 Q325 598 306 589 Q287 580 274.5 564.5 Q262 549 262 526 Q262 495 280 479.5 Q298 464 323 453 Q357 439 392 428 Q427 417 461 403 Q490 391 515.5 374 Q541 357 560 335 Q579 313 589.5 285 Q600 257 600 223 Q600 166 574 122 Q548 78 507 48 Q466 18 414.5 3 Q363 -12 312 -12 Q263 -12 217.5 0 Q172 12 134.5 36.5 Q97 61 70.5 98.5 Q44 136 32 187 L157 234 Q162 201 177.5 177 Q193 153 215.5 137.5 Q238 122 267 114 Q296 106 327 106 Q350 106 373 111.5 Q396 117 415 129 Q434 141 446 160 Q458 179 458 206 Q458 220 454.5 230.5 Q451 241 443 252 Q431 270 402.5 282 Q374 294 338 306 Q302 318 264 332.5 Q226 347 194 369.5 Q162 392 141.5 425 Q121 458 121 508 Q121 540 131 566.5 Q141 593 159 619 Q178 645 204.5 664 Q231 683 261 695 Q291 707 323 712.5 Q355 718 386 718 L390 718 Q473 718 541.5 683.5 Q610 649 644 571 L530 513 Z " />
<glyph glyph-name="T" unicode="T" horiz-adv-x="542" d="M619 591 L436 591 L300 0 L166 0 L302 591 L100 591 L127 706 L646 706 L619 591 Z " />
<glyph glyph-name="U" unicode="U" horiz-adv-x="688" d="M640 268 Q632 233 620 189 Q608 145 588 113 Q567 79 537.5 54.5 Q508 30 473 14.5 Q438 -1 400 -8 Q362 -15 323 -15 Q276 -15 230.5 -4 Q185 7 149 31 Q113 55 91 93 Q69 131 69 184 Q69 215 75 246 Q81 277 88 307 L181 706 L313 706 L222 309 Q216 283 209.5 256 Q203 229 203 203 Q203 175 214 156 Q225 137 243.5 125 Q262 113 285 107.5 Q308 102 332 102 Q354 102 376.5 106 Q399 110 418 121 Q442 134 456.5 150 Q471 166 481 185 Q491 204 496.5 226 Q502 248 508 273 L608 706 L741 706 L640 268 Z " />
<glyph glyph-name="V" unicode="V" horiz-adv-x="583" d="M328 0 L167 0 L119 706 L250 706 L274 138 L559 706 L702 706 L328 0 Z " />
<glyph glyph-name="W" unicode="W" horiz-adv-x="833" d="M630 0 L477 0 L492 494 L280 0 L126 0 L126 706 L255 706 L237 156 L472 706 L603 706 L584 156 L818 706 L951 706 L630 0 Z " />
<glyph glyph-name="X" unicode="X" horiz-adv-x="646" d="M435 377 L598 0 L450 0 L345 270 L117 0 L-42 0 L295 382 L160 706 L303 706 L385 490 L564 706 L727 706 L435 377 Z " />
<glyph glyph-name="Y" unicode="Y" horiz-adv-x="604" d="M399 281 L334 0 L200 0 L265 281 L118 706 L255 706 L351 394 L573 706 L726 706 L399 281 Z " />
<glyph glyph-name="Z" unicode="Z" horiz-adv-x="583" d="M651 600 L168 115 L565 115 L539 0 L-28 0 L-1 117 L474 593 L115 593 L141 706 L676 706 L651 600 Z " />
<glyph glyph-name="bracketleft" unicode="&#x5b;" horiz-adv-x="285" d="M392 706 L295 706 L116 -72 L213 -72 L196 -144 L-9 -144 L204 779 L409 779 L392 706 Z " />
<glyph glyph-name="backslash" unicode="&#x5c;" horiz-adv-x="437" d="M271 0 L122 706 L237 706 L386 0 L271 0 Z " />
<glyph glyph-name="bracketright" unicode="&#x5d;" horiz-adv-x="285" d="M137 -144 L-68 -144 L-51 -71 L46 -71 L225 707 L128 707 L145 779 L350 779 L137 -144 Z " />
<glyph glyph-name="asciicircum" unicode="&#x5e;" horiz-adv-x="724" d="M521 284 L452 590 L248 284 L107 284 L407 706 L533 706 L648 284 L521 284 Z " />
<glyph glyph-name="underscore" unicode="&#x5f;" horiz-adv-x="500" d="M37 -228 L37 -125 L557 -125 L557 -228 L37 -228 Z " />
<glyph glyph-name="grave" unicode="&#x60;" horiz-adv-x="271" d="M102 570 L14 706 L163 706 L201 570 L102 570 Z " />
<glyph glyph-name="a" unicode="a" horiz-adv-x="562" d="M530 371 Q530 352 525 323 Q520 294 513.5 263.5 Q507 233 500 205 Q493 177 489 160 Q483 132 476.5 104 Q470 76 470 47 Q470 35 471 23 Q472 11 476 0 L347 0 Q346 6 345.5 12 Q345 18 345 24 Q345 31 345.5 37.5 Q346 44 347 51 Q313 20 278 5 Q243 -10 196 -10 Q162 -10 131.5 -1.5 Q101 7 78 24.5 Q55 42 41.5 69 Q28 96 28 133 Q28 187 61 231 Q78 254 98.5 267.5 Q119 281 143 289 Q167 297 193 300.5 Q219 304 245 306 L339 314 Q357 316 373 318.5 Q389 321 406 326 Q408 337 410.5 347.5 Q413 358 413 369 Q413 387 404 397.5 Q395 408 381 413 Q367 418 351.5 419.5 Q336 421 322 421 Q282 421 256 406.5 Q230 392 224 350 L97 350 Q99 376 109.5 397.5 Q120 419 137 439 Q174 481 226 493.5 Q278 506 330 506 Q363 506 398.5 500.5 Q434 495 463.5 480 Q493 465 511.5 438.5 Q530 412 530 371 Z M269 223 Q255 222 240 220.5 Q225 219 211 215.5 Q197 212 185 205 Q173 198 164 185 Q153 169 153 150 Q153 118 177 101.5 Q201 85 230 85 Q246 85 265.5 90.5 Q285 96 304 105 Q323 114 339.5 126 Q356 138 365 150 L385 237 L269 223 Z " />
<glyph glyph-name="b" unicode="b" horiz-adv-x="583" d="M563 305 Q563 247 545.5 190 Q528 133 494.5 88 Q461 43 411.5 15 Q362 -13 298 -13 Q250 -13 216.5 2 Q183 17 152 52 L140 0 L19 0 L182 706 L303 706 L247 464 Q301 511 375 511 Q421 511 456 495 Q491 479 515 451.5 Q539 424 551 386.5 Q563 349 563 305 Z M442 293 Q442 342 417 374.5 Q392 407 341 407 Q312 407 288 395 Q264 383 244 361 Q232 348 222 327 Q212 306 205 283.5 Q198 261 194 238.5 Q190 216 190 198 Q190 150 217 121 Q244 92 292 92 Q330 92 358.5 111 Q387 130 405.5 159.5 Q424 189 433 224.5 Q442 260 442 293 Z " />
<glyph glyph-name="c" unicode="c" horiz-adv-x="500" d="M406 321 Q403 360 384 386 Q365 412 321 412 Q282 412 253.5 393.5 Q225 375 206 345.5 Q187 316 177.5 280.5 Q168 245 168 211 Q168 187 173.5 165 Q179 143 191 126.5 Q203 110 222 100 Q241 90 268 90 Q318 90 345 118 Q372 146 391 187 L499 142 Q468 67 406.5 27 Q345 -13 264 -13 Q163 -13 104 44 Q45 101 45 202 Q45 261 64 316.5 Q83 372 118 415 Q153 458 203 484.5 Q253 511 316 511 Q352 511 386 502 Q420 493 447.5 474 Q475 455 494 426.5 Q513 398 519 359 L406 321 Z " />
<glyph glyph-name="d" unicode="d" horiz-adv-x="583" d="M473 0 L353 0 L365 52 Q333 19 302 3 Q271 -13 223 -13 Q179 -13 145.5 3.5 Q112 20 89.5 47.5 Q67 75 56 112 Q45 149 45 190 Q45 248 62 305.5 Q79 363 112.5 408.5 Q146 454 195.5 482.5 Q245 511 309 511 Q353 511 393 491.5 Q433 472 453 432 L516 706 L636 706 L473 0 Z M414 306 Q414 353 393 381.5 Q372 410 320 410 Q281 410 252.5 389.5 Q224 369 205.5 337.5 Q187 306 177.5 269.5 Q168 233 168 200 Q168 155 191 124 Q214 93 262 93 Q303 93 331.5 113.5 Q360 134 378.5 165.5 Q397 197 405.5 234.5 Q414 272 414 306 Z " />
<glyph glyph-name="e" unicode="e" horiz-adv-x="542" d="M527 303 Q527 270 519 233 L172 233 Q169 215 169 198 Q169 147 199 116.5 Q229 86 280 86 Q325 86 356 110 Q387 134 407 171 L508 109 Q469 47 404.5 17 Q340 -13 268 -13 Q218 -13 177 2 Q136 17 107 45 Q78 73 62 113.5 Q46 154 46 205 Q46 265 64.5 320.5 Q83 376 117.5 418.5 Q152 461 203 486 Q254 511 318 511 Q415 511 471 455 Q527 399 527 303 Z M406 332 Q406 374 382.5 398.5 Q359 423 317 423 Q269 423 239 393 Q209 363 193 321 L406 321 L406 332 Z " />
<glyph glyph-name="f" unicode="f" horiz-adv-x="313" d="M404 603 Q394 603 384 603.5 Q374 604 364 604 Q335 604 319 596 Q303 588 295 574 Q287 560 283 540.5 Q279 521 273 497 L379 497 L360 411 L254 411 L159 0 L37 0 L133 411 L53 411 L73 497 L152 497 Q164 544 173.5 583 Q183 622 201.5 650 Q220 678 253.5 693.5 Q287 709 346 709 Q386 709 426 703 L404 603 Z " />
<glyph glyph-name="g" unicode="g" horiz-adv-x="583" d="M500 117 Q485 52 467.5 -3.5 Q450 -59 419 -99.5 Q388 -140 339.5 -162.5 Q291 -185 213 -185 Q172 -185 133 -177 Q94 -169 63.5 -150.5 Q33 -132 14.5 -100 Q-4 -68 -4 -20 Q-4 -13 -3 -9 L121 -9 Q121 -53 145.5 -73 Q170 -93 212 -93 Q228 -93 246 -89 Q264 -85 278 -78 Q299 -68 313 -52.5 Q327 -37 336.5 -18 Q346 1 352.5 21.5 Q359 42 365 63 Q343 41 305.5 28 Q268 15 237 15 Q192 15 157.5 31.5 Q123 48 99.5 76 Q76 104 64 142 Q52 180 52 222 Q52 278 71 330.5 Q90 383 124.5 423 Q159 463 208 487 Q257 511 316 511 Q354 511 392 495.5 Q430 480 454 450 L465 497 L587 497 L500 117 Z M421 303 Q421 350 399.5 381.5 Q378 413 326 413 Q290 413 262.5 395.5 Q235 378 215.5 350.5 Q196 323 186 290 Q176 257 176 225 Q176 180 200.5 147.5 Q225 115 273 115 Q310 115 337.5 132.5 Q365 150 383.5 177 Q402 204 411.5 237.5 Q421 271 421 303 Z " />
<glyph glyph-name="h" unicode="h" horiz-adv-x="562" d="M530 375 Q530 344 524 314.5 Q518 285 511 255 L452 0 L330 0 L385 238 Q390 262 396 287.5 Q402 313 402 338 Q402 368 385.5 385.5 Q369 403 338 403 Q301 403 276.5 388 Q252 373 236.5 349.5 Q221 326 212 296.5 Q203 267 196 237 L141 0 L19 0 L182 706 L304 706 L245 450 Q250 455 255.5 459 Q261 463 266 467 Q291 485 324.5 495.5 Q358 506 388 506 Q448 506 489 472.5 Q530 439 530 375 Z " />
<glyph glyph-name="i" unicode="i" horiz-adv-x="250" d="M275 585 L155 585 L182 706 L303 706 L275 585 Z M140 0 L19 0 L135 497 L255 497 L140 0 Z " />
<glyph glyph-name="j" unicode="j" horiz-adv-x="250" d="M275 585 L155 585 L183 706 L303 706 L275 585 Z M140 -1 Q135 -24 129 -48 Q123 -72 113.5 -93.5 Q104 -115 89.5 -133 Q75 -151 51 -163 Q35 -171 15 -175.5 Q-5 -180 -22 -180 Q-36 -180 -60 -177 Q-84 -174 -97 -169 L-72 -63 Q-52 -68 -34 -68 Q-17 -68 -6.5 -58.5 Q4 -49 10 -35 Q16 -21 19.5 -5 Q23 11 26 23 L135 497 L255 497 L140 -1 Z " />
<glyph glyph-name="k" unicode="k" horiz-adv-x="542" d="M370 323 L513 0 L379 0 L276 248 L179 170 L139 0 L19 0 L182 706 L302 706 L211 312 L433 497 L586 497 L370 323 Z " />
<glyph glyph-name="l" unicode="l" horiz-adv-x="250" d="M140 0 L19 0 L182 706 L303 706 L140 0 Z " />
<glyph glyph-name="m" unicode="m" horiz-adv-x="854" d="M824 377 Q824 348 818 318.5 Q812 289 805 261 L745 0 L624 0 L682 250 Q687 272 692.5 294.5 Q698 317 698 340 Q698 370 680 386 Q662 402 633 402 Q616 402 598.5 395 Q581 388 567 378 Q548 364 535 344.5 Q522 325 513.5 303.5 Q505 282 499.5 258.5 Q494 235 489 213 L439 0 L319 0 L376 244 Q381 266 386.5 289.5 Q392 313 392 336 Q392 366 376 384 Q360 402 329 402 Q312 402 294.5 395.5 Q277 389 263 378 Q228 351 215.5 315.5 Q203 280 194 239 L139 0 L19 0 L135 497 L254 497 L241 444 Q297 506 383 506 Q425 506 458.5 488 Q492 470 509 429 Q544 464 586.5 485 Q629 506 680 506 Q709 506 735 497.5 Q761 489 781 472.5 Q801 456 812.5 432 Q824 408 824 377 Z " />
<glyph glyph-name="n" unicode="n" horiz-adv-x="562" d="M530 367 Q530 341 525.5 316 Q521 291 515 266 L454 0 L332 0 L389 247 Q394 268 398.5 290 Q403 312 403 334 Q403 366 387 384.5 Q371 403 339 403 Q318 403 300 395.5 Q282 388 265 376 Q246 362 234 342.5 Q222 323 213.5 300.5 Q205 278 199.5 255 Q194 232 189 210 L140 0 L19 0 L135 497 L248 497 L235 443 Q270 475 307.5 490.5 Q345 506 393 506 Q458 506 494 469.5 Q530 433 530 367 Z " />
<glyph glyph-name="o" unicode="o" horiz-adv-x="562" d="M544 303 Q544 283 541.5 263 Q539 243 534 223 Q522 170 498 126.5 Q474 83 438.5 52 Q403 21 357 4 Q311 -13 255 -13 Q185 -13 134 18.5 Q83 50 59 116 Q51 136 47 158 Q43 180 43 201 Q43 236 51.5 272.5 Q60 309 75.5 343.5 Q91 378 114 408 Q137 438 165 458 Q201 484 244.5 497.5 Q288 511 333 511 Q375 511 415 497 Q482 474 513 423 Q544 372 544 303 Z M424 301 Q424 349 398.5 380 Q373 411 322 411 Q283 411 253.5 392 Q224 373 204 343 Q184 313 174 276.5 Q164 240 164 206 Q164 159 188.5 124.5 Q213 90 265 90 Q306 90 335.5 110 Q365 130 385 160.5 Q405 191 414.5 228.5 Q424 266 424 301 Z " />
<glyph glyph-name="p" unicode="p" horiz-adv-x="583" d="M564 302 Q564 244 546.5 187.5 Q529 131 495 86.5 Q461 42 412 14.5 Q363 -13 300 -13 Q255 -13 216 2.5 Q177 18 154 60 L99 -180 L-21 -180 L136 497 L254 497 L241 443 Q266 477 302.5 494 Q339 511 381 511 Q427 511 461 494.5 Q495 478 518 449.5 Q541 421 552.5 383 Q564 345 564 302 Z M442 299 Q442 347 416.5 379 Q391 411 340 411 Q308 411 284.5 399 Q261 387 244 367.5 Q227 348 216 322.5 Q205 297 199 269 Q195 253 192.5 237.5 Q190 222 190 205 Q190 154 217 123 Q244 92 295 92 Q333 92 360.5 112.5 Q388 133 406 163.5 Q424 194 433 230.5 Q442 267 442 299 Z " />
<glyph glyph-name="q" unicode="q" horiz-adv-x="562" d="M431 -180 L312 -180 L362 38 Q330 13 298 0 Q266 -13 225 -13 Q181 -13 147 2 Q113 17 90.5 43 Q68 69 56.5 105 Q45 141 45 184 Q45 243 63.5 301.5 Q82 360 117.5 406.5 Q153 453 204 482 Q255 511 320 511 Q364 511 398 494 Q432 477 455 440 L468 497 L587 497 L431 -180 Z M421 304 Q421 351 397.5 378.5 Q374 406 326 406 Q286 406 256.5 386 Q227 366 207 335.5 Q187 305 177 268 Q167 231 167 197 Q167 152 189 123 Q211 94 259 94 Q298 94 328.5 114 Q359 134 379.5 164.5 Q400 195 410.5 232.5 Q421 270 421 304 Z " />
<glyph glyph-name="r" unicode="r" horiz-adv-x="354" d="M384 379 Q376 380 369.5 380.5 Q363 381 355 381 Q298 381 261 353.5 Q224 326 205 274 Q200 260 196.5 246 Q193 232 190 218 L140 0 L19 0 L135 497 L255 497 L229 411 Q260 453 299.5 478.5 Q339 504 392 504 Q397 504 402 504 Q407 504 412 503 L384 379 Z " />
<glyph glyph-name="s" unicode="s" horiz-adv-x="500" d="M408 345 Q397 382 362.5 400 Q328 418 292 418 Q280 418 265.5 416 Q251 414 238 408 Q225 402 216.5 392 Q208 382 208 366 Q208 346 227 334.5 Q246 323 274 313.5 Q302 304 335.5 293.5 Q369 283 397 266 Q425 249 444 222 Q463 195 463 153 Q463 108 443.5 76.5 Q424 45 393.5 25 Q363 5 324.5 -4 Q286 -13 247 -13 Q190 -13 134 4 Q78 21 40 67 Q31 78 22.5 90 Q14 102 9 116 L112 179 Q117 156 130.5 138.5 Q144 121 163 109.5 Q182 98 204 92 Q226 86 248 86 Q262 86 278 88.5 Q294 91 308.5 97.5 Q323 104 332.5 115 Q342 126 342 144 Q342 156 336.5 164.5 Q331 173 322 181 Q316 186 302.5 191.5 Q289 197 273 202.5 Q257 208 242 212.5 Q227 217 219 220 Q195 228 171 238.5 Q147 249 128 264 Q109 279 97 300.5 Q85 322 85 352 Q85 393 103.5 423 Q122 453 152 472.5 Q182 492 218.5 501.5 Q255 511 291 511 Q355 511 412.5 485 Q470 459 502 401 L408 345 Z " />
<glyph glyph-name="t" unicode="t" horiz-adv-x="313" d="M349 411 L257 411 L207 197 Q204 183 200.5 168 Q197 153 197 139 Q197 113 214 105 Q231 97 254 97 Q262 97 270 97.5 Q278 98 286 99 L264 0 Q246 -4 226.5 -5 Q207 -6 189 -6 Q138 -6 105 17.5 Q72 41 72 96 Q72 122 77.5 148.5 Q83 175 89 201 L138 411 L64 411 L84 497 L157 497 L197 671 L317 671 L277 497 L369 497 L349 411 Z " />
<glyph glyph-name="u" unicode="u" horiz-adv-x="562" d="M452 0 L341 0 L353 54 Q324 25 287 8 Q250 -9 208 -9 Q178 -9 150.5 -1.5 Q123 6 102 22 Q81 38 68.5 62.5 Q56 87 56 120 Q56 151 62 181 Q68 211 75 240 L135 497 L255 497 L199 255 Q194 231 188 206 Q182 181 182 156 Q182 125 203 109.5 Q224 94 253 94 Q267 94 282 98.5 Q297 103 309 111 Q331 125 345.5 146 Q360 167 370.5 191.5 Q381 216 387.5 242 Q394 268 399 291 L447 497 L567 497 L452 0 Z " />
<glyph glyph-name="v" unicode="v" horiz-adv-x="458" d="M243 0 L102 0 L63 497 L182 497 L192 108 L392 497 L516 497 L243 0 Z " />
<glyph glyph-name="w" unicode="w" horiz-adv-x="708" d="M514 0 L383 0 L383 338 L220 0 L93 0 L74 497 L192 497 L187 132 L356 497 L473 497 L473 132 L643 497 L770 497 L514 0 Z " />
<glyph glyph-name="x" unicode="x" horiz-adv-x="521" d="M342 256 L467 0 L334 0 L262 179 L122 0 L-27 0 L207 265 L95 497 L225 497 L287 341 L406 497 L552 497 L342 256 Z " />
<glyph glyph-name="y" unicode="y" horiz-adv-x="458" d="M233 -16 Q216 -48 199.5 -77.5 Q183 -107 161.5 -129.5 Q140 -152 111.5 -166 Q83 -180 42 -180 Q19 -180 -2 -176.5 Q-23 -173 -46 -171 L-21 -64 Q-9 -67 4 -68 Q17 -69 29 -69 Q58 -69 75 -55.5 Q92 -42 103 -16 L57 497 L179 497 L192 110 L389 497 L516 497 L233 -16 Z " />
<glyph glyph-name="z" unicode="z" horiz-adv-x="479" d="M497 411 L182 102 L454 102 L430 0 L-9 0 L9 80 L329 399 L83 399 L105 497 L517 497 L497 411 Z " />
<glyph glyph-name="braceleft" unicode="&#x7b;" horiz-adv-x="300" d="M403 711 L386 712 Q367 713 355.5 708.5 Q344 704 335 696 Q327 688 319 674 Q316 668 314.5 663 Q313 658 310.5 650.5 Q308 643 305.5 632 Q303 621 299 603 L263 450 Q255 416 245.5 392.5 Q236 369 223 353 Q210 337 192.5 328 Q175 319 150 314 Q207 295 207 234 Q207 208 199 171 L167 33 Q159 1 157.5 -10.5 Q156 -22 156 -32 Q156 -75 208 -75 L221 -75 L205 -147 L153 -147 Q101 -147 73 -120.5 Q45 -94 45 -45 Q45 -31 47.5 -14.5 Q50 2 58 34 L91 175 Q94 189 96.5 203.5 Q99 218 99 226 Q99 252 83.5 264.5 Q68 277 30 281 L47 356 Q70 357 81.5 359 Q93 361 106 367 Q125 376 135.5 396 Q146 416 157 462 L192 616 Q200 651 205.5 670 Q211 689 219 706 Q229 729 251 750 Q262 760 272.5 766.5 Q283 773 295.5 776.5 Q308 780 325.5 781.5 Q343 783 367 783 L419 783 L403 711 Z " />
<glyph glyph-name="bar" unicode="&#x7c;" horiz-adv-x="247" d="M100 -145 L-9 -145 L204 778 L312 778 L100 -145 Z " />
<glyph glyph-name="braceright" unicode="&#x7d;" horiz-adv-x="300" d="M303 280 Q280 279 268.5 277 Q257 275 244 269 Q225 260 214.5 240 Q204 220 193 174 L158 19 Q150 -16 144.5 -35 Q139 -54 131 -71 Q121 -94 100 -115 Q89 -125 78.5 -131.5 Q68 -138 55 -141.5 Q42 -145 24.5 -146.5 Q7 -148 -17 -148 L-69 -148 L-53 -76 L-36 -76 Q-17 -76 -5.5 -72.5 Q6 -69 15 -61 Q25 -51 31 -39 Q34 -33 35.5 -27.5 Q37 -22 39.5 -14.5 Q42 -7 44.5 3.5 Q47 14 51 32 L87 186 Q95 220 104.5 243.5 Q114 267 127 282.5 Q140 298 158 307 Q176 316 200 321 Q143 341 143 402 Q143 427 151 464 L183 602 Q191 634 193 645.5 Q195 657 195 667 Q195 711 143 711 L129 711 L145 782 L197 782 Q249 782 277 755.5 Q305 729 305 680 Q305 666 303 650 Q301 634 293 602 L259 460 Q256 446 254 432 Q252 418 252 410 Q252 383 267.5 371 Q283 359 321 354 L303 280 Z " />
<glyph glyph-name="asciitilde" unicode="&#x7e;" horiz-adv-x="724" d="M685 310 Q658 282 642 268.5 Q626 255 604 241 Q555 211 510 211 Q486 211 460 220 Q434 229 392 250 L358 267 Q326 284 303 290.5 Q280 297 258 297 Q240 297 225 291 Q206 284 191 272 Q176 260 148 230 L137 218 L93 320 Q115 346 126.5 357.5 Q138 369 154 382 Q177 400 205 410 Q233 420 262 420 Q283 420 303 415 Q315 411 335 403 Q355 395 374 386 L434 357 Q467 341 481 336.5 Q495 332 510 332 Q526 332 544.5 338 Q563 344 578 355 Q593 365 605.5 375.5 Q618 386 641 411 L685 310 Z " />
<glyph glyph-name="nbspace" unicode="&#xa0;" horiz-adv-x="288" d="" />
<glyph glyph-name="exclamdown" unicode="&#xa1;" horiz-adv-x="292" d="M279 571 L146 571 L177 706 L310 706 L279 571 Z M224 440 L212 303 L165 101 L142 0 L14 0 L37 99 L83 297 Q88 319 95.5 333 Q103 347 111 368 L167 509 L230 509 L224 440 Z " />
<glyph glyph-name="cent" unicode="&#xa2;" horiz-adv-x="521" d="M412 326 Q410 340 406.5 353.5 Q403 367 396.5 379 Q390 391 379.5 399.5 Q369 408 353 411 L280 93 L284 93 Q305 93 322.5 101.5 Q340 110 353.5 123.5 Q367 137 377.5 154.5 Q388 172 395 189 L504 143 Q467 60 405.5 24 Q344 -12 256 -12 L232 -114 L170 -114 L195 -4 Q176 4 159 10 Q142 16 125 28 Q82 59 63.5 104 Q45 149 45 200 Q45 247 56.5 293 Q68 339 91 379 Q114 419 148.5 450.5 Q183 482 229 499 Q251 507 271.5 509.5 Q292 512 315 515 L335 600 L397 600 L376 511 Q404 505 429.5 492.5 Q455 480 475.5 461.5 Q496 443 509 418 Q522 393 525 363 L412 326 Z M292 412 Q283 411 277 409 Q271 407 263 403 Q239 391 221 368.5 Q203 346 191 319 Q179 292 173.5 263.5 Q168 235 168 209 Q168 177 179 147.5 Q190 118 220 103 L292 412 Z " />
<glyph glyph-name="sterling" unicode="&#xa3;" horiz-adv-x="625" d="M638 491 Q638 480 637 469 Q636 458 634 447 L521 447 Q523 456 523 465 Q523 474 523 483 Q523 533 501 564.5 Q479 596 425 596 Q377 596 343.5 567 Q310 538 310 488 Q310 456 319.5 436 Q329 416 340 387 L472 387 L452 300 L356 300 Q361 285 363.5 270 Q366 255 366 239 Q366 212 359 185 Q352 158 339 134 Q357 123 376 110.5 Q395 98 418 98 Q439 98 452 112 Q465 126 473.5 145.5 Q482 165 487.5 186.5 Q493 208 498 223 L618 223 Q611 185 598 144 Q585 103 563 68.5 Q541 34 508.5 12 Q476 -10 429 -10 Q397 -10 366 1 Q335 12 310 32 Q304 37 298 42 Q292 47 285 52 Q257 24 222 6 Q187 -12 146 -12 Q121 -12 99 -4 Q77 4 60.5 19 Q44 34 34 55 Q24 76 24 102 Q24 156 58 192 Q92 228 147 228 Q173 228 199 220 Q225 212 246 195 Q256 218 256 239 Q256 257 251.5 270 Q247 283 241 300 L105 300 L125 387 L215 387 Q200 412 191.5 441 Q183 470 183 499 Q183 546 204 585 Q220 615 244 635.5 Q268 656 296.5 668.5 Q325 681 356.5 686.5 Q388 692 420 692 Q468 692 508.5 679.5 Q549 667 577.5 642 Q606 617 622 579.5 Q638 542 638 491 Z M207 115 Q197 123 179.5 131.5 Q162 140 148 140 Q134 140 124.5 130.5 Q115 121 115 107 Q115 94 125.5 86.5 Q136 79 148 79 Q165 79 181 90.5 Q197 102 207 115 Z " />
<glyph glyph-name="currency" unicode="&#xa4;" horiz-adv-x="689" d="M631 480 Q647 450 653.5 425 Q660 400 660 372 Q660 265 592 179 L660 98 L572 23 L504 104 Q466 84 433 75.5 Q400 67 360 67 Q337 67 318 69.5 Q299 72 281 78 Q263 84 245.5 93.5 Q228 103 207 118 L120 45 L52 127 L138 200 Q121 232 114 258 Q107 284 107 315 Q107 368 124.5 415 Q142 462 175 500 L108 580 L195 655 L262 576 Q297 596 332 604.5 Q367 613 406 613 Q451 613 485.5 602 Q520 591 561 562 L647 635 L716 552 L631 480 Z M540 357 Q540 421 500.5 460.5 Q461 500 397 500 Q361 500 330 486.5 Q299 473 276.5 449.5 Q254 426 241 393.5 Q228 361 228 323 Q228 292 238.5 265.5 Q249 239 267.5 220 Q286 201 311.5 190 Q337 179 367 179 Q403 179 435 193 Q467 207 490 231 Q513 255 526.5 287.5 Q540 320 540 357 Z " />
<glyph glyph-name="yen" unicode="&#xa5;" horiz-adv-x="583" d="M512 424 L608 424 L588 341 L448 341 L396 274 L573 274 L554 191 L375 191 L331 0 L203 0 L247 191 L57 191 L76 274 L264 274 L240 341 L92 341 L111 424 L212 424 L124 680 L255 680 L347 379 L562 680 L708 680 L512 424 Z " />
<glyph glyph-name="brokenbar" unicode="&#xa6;" horiz-adv-x="247" d="M223 377 L114 377 L207 779 L316 779 L223 377 Z M103 -143 L-6 -143 L87 259 L196 259 L103 -143 Z " />
<glyph glyph-name="section" unicode="&#xa7;" horiz-adv-x="604" d="M596 321 Q596 293 586 266.5 Q576 240 559 219 Q542 198 518 183 Q494 168 467 162 Q488 143 500.5 119.5 Q513 96 513 67 Q513 26 492 -9 Q476 -38 451 -57.5 Q426 -77 396 -89 Q366 -101 334 -106.5 Q302 -112 270 -112 Q206 -112 143 -89.5 Q80 -67 35 -21 L110 72 Q139 33 185 13 Q231 -7 279 -7 Q293 -7 312 -5 Q331 -3 348 3 Q365 9 376.5 21 Q388 33 388 52 Q388 73 364 87 Q340 101 303.5 113.5 Q267 126 225 140 Q183 154 146.5 175.5 Q110 197 86 228.5 Q62 260 62 308 Q62 369 95.5 412 Q129 455 190 466 Q171 481 162.5 503 Q154 525 154 548 Q154 572 163 596 Q172 620 187 639 Q224 686 276.5 703.5 Q329 721 386 721 Q440 721 495.5 704 Q551 687 593 652 L523 569 Q512 583 494.5 593 Q477 603 457.5 609.5 Q438 616 418 619.5 Q398 623 381 623 Q368 623 350.5 620.5 Q333 618 316.5 611.5 Q300 605 288.5 594 Q277 583 277 566 Q277 553 285 544 Q293 535 304.5 529 Q316 523 329 519 Q342 515 352 512 L430 485 Q462 474 492 462 Q522 450 545 432 Q568 414 582 387.5 Q596 361 596 321 Z M481 285 Q481 304 472 317 Q463 330 449.5 339 Q436 348 420 354 Q404 360 389 365 Q379 368 360.5 374 Q342 380 322 387 Q302 394 283.5 401.5 Q265 409 255 416 Q240 411 225.5 405.5 Q211 400 200 391 Q189 382 182.5 369 Q176 356 176 337 Q176 318 185.5 305 Q195 292 209.5 283 Q224 274 240.5 268 Q257 262 271 257 L346 231 Q355 228 372.5 221.5 Q390 215 397 210 Q428 213 454.5 232 Q481 251 481 285 Z " />
<glyph glyph-name="dieresis" unicode="&#xa8;" horiz-adv-x="271" d="M318 569 L192 569 L220 693 L346 693 L318 569 Z M86 569 L-41 569 L-12 693 L114 693 L86 569 Z " />
<glyph glyph-name="copyright" unicode="&#xa9;" horiz-adv-x="840" d="M812 361 Q812 283 785 217 Q758 151 710 102 Q662 53 597 25.5 Q532 -2 456 -2 Q382 -2 317 25.5 Q252 53 204 101 Q156 149 128.5 214 Q101 279 101 354 Q101 428 129 493 Q157 558 205 606 Q253 654 318 682 Q383 710 457 710 Q530 710 594.5 682.5 Q659 655 707.5 607.5 Q756 560 784 496.5 Q812 433 812 361 Z M772 348 Q772 417 748 476.5 Q724 536 681.5 579.5 Q639 623 581.5 648 Q524 673 456 673 Q391 673 333.5 648 Q276 623 233.5 579.5 Q191 536 166 477.5 Q141 419 141 353 Q141 286 165.5 228 Q190 170 232.5 127 Q275 84 332.5 59 Q390 34 456 34 Q521 34 578 59 Q635 84 678.5 127 Q722 170 747 227 Q772 284 772 348 Z M578 434 Q554 472 530.5 487.5 Q507 503 472 503 Q446 503 424 490 Q402 477 385.5 454 Q369 431 359.5 400.5 Q350 370 350 334 Q350 282 376.5 251 Q403 220 448 220 Q476 220 496.5 230 Q517 240 545 269 L599 199 Q578 179 559.5 165.5 Q541 152 522.5 143.5 Q504 135 484 131.5 Q464 128 440 128 Q398 128 363 143.5 Q328 159 302 186 Q276 213 261.5 250 Q247 287 247 330 Q247 386 264.5 434 Q282 482 313 517 Q344 552 386.5 572 Q429 592 478 592 Q535 592 575 569 Q615 546 650 492 L578 434 Z " />
<glyph glyph-name="ordfeminine" unicode="&#xaa;" horiz-adv-x="375" d="M428 622 Q428 597 422 571 Q416 545 408.5 518.5 Q401 492 395 466 Q389 440 389 416 Q389 407 390.5 399 Q392 391 394 382 L305 382 Q303 389 303.5 395.5 Q304 402 304 410 Q281 392 261.5 383.5 Q242 375 212 375 Q167 375 134 398 Q101 421 101 470 Q101 499 117 526 Q135 555 162 566.5 Q189 578 220 582.5 Q251 587 283 588 Q315 589 343 596 Q345 602 346 608.5 Q347 615 347 621 Q347 632 341.5 638 Q336 644 327.5 647 Q319 650 309.5 651 Q300 652 292 652 Q266 652 250.5 642.5 Q235 633 232 606 L144 606 Q148 636 162 656.5 Q176 677 197 689.5 Q218 702 243.5 707 Q269 712 296 712 Q318 712 341.5 708 Q365 704 384 694 Q403 684 415.5 666.5 Q428 649 428 622 Z M258 525 Q247 524 234.5 522.5 Q222 521 211.5 516.5 Q201 512 194 503.5 Q187 495 187 480 Q187 460 201 451 Q215 442 233 442 Q253 442 278 454.5 Q303 467 317 482 L328 533 L258 525 Z " />
<glyph glyph-name="guillemotleft" unicode="&#xab;" horiz-adv-x="437" d="M435 340 L339 290 L410 233 L382 112 L248 239 L274 356 L467 480 L435 340 Z M229 340 L133 290 L204 233 L176 112 L42 239 L68 356 L261 480 L229 340 Z " />
<glyph glyph-name="logicalnot" unicode="&#xac;" horiz-adv-x="724" d="M585 16 L455 16 L511 259 L75 259 L100 367 L666 367 L585 16 Z " />
<glyph glyph-name="registered" unicode="&#xae;" horiz-adv-x="840" d="M812 361 Q812 283 785 217 Q758 151 710 102 Q662 53 597 25.5 Q532 -2 456 -2 Q382 -2 317 25.5 Q252 53 204 101 Q156 149 128.5 214 Q101 279 101 354 Q101 428 129 493 Q157 558 205 606 Q253 654 318 682 Q383 710 457 710 Q530 710 594.5 682.5 Q659 655 707.5 607.5 Q756 560 784 496.5 Q812 433 812 361 Z M772 348 Q772 417 748 476.5 Q724 536 681.5 579.5 Q639 623 581.5 648 Q524 673 456 673 Q391 673 333.5 648 Q276 623 233.5 579.5 Q191 536 166 477.5 Q141 419 141 353 Q141 286 165.5 228 Q190 170 232.5 127 Q275 84 332.5 59 Q390 34 456 34 Q521 34 578 59 Q635 84 678.5 127 Q722 170 747 227 Q772 284 772 348 Z M646 461 Q646 355 543 319 L590 139 L491 139 L455 306 L397 306 L361 139 L269 139 L363 581 L466 581 Q492 581 510 580.5 Q528 580 542 578 Q556 576 566.5 572.5 Q577 569 588 564 Q615 551 630.5 524 Q646 497 646 461 Z M552 450 Q552 467 546 477 Q540 487 529.5 491.5 Q519 496 506 497 Q493 498 479 498 L437 498 L413 384 L458 384 Q509 384 530.5 399.5 Q552 415 552 450 Z " />
<glyph glyph-name="macron" unicode="&#xaf;" horiz-adv-x="271" d="M299 570 L-13 570 L6 653 L318 653 L299 570 Z " />
<glyph glyph-name="degree" unicode="&#xb0;" horiz-adv-x="354" d="M396 582 Q396 547 382.5 515.5 Q369 484 345.5 460.5 Q322 437 290.5 423.5 Q259 410 224 410 Q189 410 157.5 423.5 Q126 437 102.5 460.5 Q79 484 65.5 515.5 Q52 547 52 582 Q52 618 65.5 649.5 Q79 681 102 704.5 Q125 728 156.5 741.5 Q188 755 224 755 Q260 755 291.5 741.5 Q323 728 346 704.5 Q369 681 382.5 649.5 Q396 618 396 582 Z M296 582 Q296 612 274.5 632.5 Q253 653 224 653 Q194 653 173 632.5 Q152 612 152 582 Q152 553 173.5 531.5 Q195 510 224 510 Q253 510 274.5 531.5 Q296 553 296 582 Z " />
<glyph glyph-name="plusminus" unicode="&#xb1;" horiz-adv-x="724" d="M671 366 L467 366 L421 162 L291 162 L337 366 L136 366 L160 471 L361 471 L408 671 L537 671 L491 471 L695 471 L671 366 Z M588 0 L52 0 L77 106 L613 106 L588 0 Z " />
<glyph glyph-name="twosuperior" unicode="&#xb2;" horiz-adv-x="375" d="M405 565 Q405 537 394.5 512 Q384 487 367.5 465.5 Q351 444 330 425 Q309 406 289 389 Q243 350 193 314 L368 314 L350 238 L50 238 L66 308 Q80 316 93 326.5 Q106 337 119 347 Q151 370 182 395 Q213 420 242 447 Q253 457 265.5 470 Q278 483 288.5 497.5 Q299 512 306.5 527.5 Q314 543 314 558 Q314 581 299.5 596 Q285 611 262 611 Q243 611 229 602.5 Q215 594 205 580 Q195 566 189.5 549.5 Q184 533 182 516 L98 529 Q107 601 151 644.5 Q195 688 269 688 Q297 688 321.5 680 Q346 672 364.5 656 Q383 640 394 617 Q405 594 405 565 Z " />
<glyph glyph-name="threesuperior" unicode="&#xb3;" horiz-adv-x="375" d="M405 576 Q405 545 388.5 520 Q372 495 346 480 Q338 475 329 472.5 Q320 470 312 467 Q376 448 376 379 Q376 365 372.5 351.5 Q369 338 364 325 Q343 277 301.5 253.5 Q260 230 209 230 Q132 230 95.5 267 Q59 304 50 376 L139 385 Q139 383 138.5 381 Q138 379 138 377 Q138 345 158 325 Q178 305 210 305 Q241 305 264.5 325.5 Q288 346 288 378 Q288 413 266 425 Q244 437 213 437 Q208 437 203.5 437 Q199 437 194 436 L211 509 Q218 508 225 507.5 Q232 507 239 507 Q253 507 267 510 Q281 513 292 520 Q303 527 310.5 538 Q318 549 318 565 Q318 588 302 601.5 Q286 615 263 615 Q233 615 214 598 Q195 581 189 552 L105 571 Q110 583 114 595 Q118 607 125 618 Q148 653 185 670.5 Q222 688 263 688 L268 688 Q298 688 325 679 Q359 667 382 640 Q405 613 405 576 Z " />
<glyph glyph-name="acute" unicode="&#xb4;" horiz-adv-x="271" d="M180 570 L73 570 L145 706 L310 706 L180 570 Z " />
<glyph glyph-name="mu" unicode="&#xb5;" horiz-adv-x="595" d="M501 131 Q498 121 498 108 Q498 83 523 83 Q530 83 535.5 84 Q541 85 553 90 L533 -1 Q494 -10 466 -10 Q427 -10 402 12 Q392 20 388 31 Q384 42 382 69 Q353 25 324 7.5 Q295 -10 252 -10 Q187 -10 169 46 L111 -216 L-8 -216 L152 497 L270 497 L214 253 Q197 182 197 153 Q197 118 216 98 Q235 78 270 78 Q329 78 367 142 Q373 151 377.5 161 Q382 171 387 182 Q393 198 398.5 217 Q404 236 412 273 L464 497 L584 497 L501 131 Z " />
<glyph glyph-name="paragraph" unicode="&#xb6;" horiz-adv-x="639" d="M640 636 L605 636 L420 -167 L346 -167 L532 636 L403 636 L218 -167 L144 -167 L254 311 Q141 358 141 487 Q141 541 164.5 586.5 Q188 632 231 662 Q248 674 266.5 682.5 Q285 691 307.5 696 Q330 701 358.5 703.5 Q387 706 423 706 L656 706 L640 636 Z " />
<glyph glyph-name="periodcentered" unicode="&#xb7;" horiz-adv-x="200" d="M164 228 L62 228 L90 352 L191 352 L164 228 Z " />
<glyph glyph-name="cedilla" unicode="&#xb8;" horiz-adv-x="271" d="M48 -74 L57 -74 Q84 -74 108.5 -89.5 Q133 -105 133 -136 Q133 -160 118.5 -177 Q104 -194 83 -204.5 Q62 -215 38 -220 Q14 -225 -5 -225 Q-28 -225 -49 -220.5 Q-70 -216 -92 -211 L-83 -171 Q-70 -176 -56 -179 Q-42 -182 -28 -182 Q-22 -182 -12.5 -180.5 Q-3 -179 6 -175.5 Q15 -172 21.5 -166.5 Q28 -161 28 -152 Q28 -135 12.5 -131 Q-3 -127 -16 -127 Q-25 -127 -34 -128 Q-43 -129 -52 -130 L-46 -102 L95 41 L134 41 L48 -74 Z " />
<glyph glyph-name="onesuperior" unicode="&#xb9;" horiz-adv-x="375" d="M251 238 L166 238 L223 486 Q225 496 227.5 506 Q230 516 230 526 Q230 540 220 541.5 Q210 543 199 543 L134 543 L147 600 Q179 600 207.5 609.5 Q236 619 257 645 Q263 652 268.5 661.5 Q274 671 276 680 L353 680 L251 238 Z " />
<glyph glyph-name="ordmasculine" unicode="&#xba;" horiz-adv-x="375" d="M435 579 Q435 538 422.5 501 Q410 464 386 435.5 Q362 407 328 390 Q294 373 250 373 Q185 373 146.5 411.5 Q108 450 108 514 Q108 553 121.5 589.5 Q135 626 160 653.5 Q185 681 219 698 Q253 715 294 715 Q357 715 396 679 Q435 643 435 579 Z M353 578 Q353 608 337 626.5 Q321 645 290 645 Q266 645 247.5 633 Q229 621 216.5 602.5 Q204 584 198 561 Q192 538 192 517 Q192 488 207 466.5 Q222 445 254 445 Q279 445 297.5 458 Q316 471 328.5 490.5 Q341 510 347 533.5 Q353 557 353 578 Z " />
<glyph glyph-name="guillemotright" unicode="&#xbb;" horiz-adv-x="437" d="M411 236 L218 112 L250 252 L346 302 L275 359 L303 480 L437 352 L411 236 Z M205 236 L11 112 L44 252 L140 302 L69 359 L97 480 L232 352 L205 236 Z " />
<glyph glyph-name="onequarter" unicode="&#xbc;" horiz-adv-x="875" d="M793 175 L850 175 L833 103 L776 103 L752 0 L668 0 L692 103 L509 103 L528 182 L754 442 L854 442 L793 175 Z M263 -12 L213 23 L678 692 L728 658 L263 -12 Z M251 238 L166 238 L223 486 Q225 496 227.5 506 Q230 516 230 526 Q230 540 220 541.5 Q210 543 199 543 L134 543 L147 600 Q179 600 207.5 609.5 Q236 619 257 645 Q263 652 268.5 661.5 Q274 671 276 680 L353 680 L251 238 Z M608 175 L708 175 L751 341 L608 175 Z " />
<glyph glyph-name="onehalf" unicode="&#xbd;" horiz-adv-x="875" d="M850 326 Q850 281 823 240 Q811 221 787.5 198.5 Q764 176 737.5 153.5 Q711 131 684.5 110.5 Q658 90 638 76 L813 76 L795 0 L495 0 L511 69 Q532 84 563.5 107.5 Q595 131 627 157 Q659 183 687 208.5 Q715 234 730 254 Q741 269 749.5 285 Q758 301 758 320 Q758 343 744 357.5 Q730 372 707 372 Q688 372 674 363.5 Q660 355 650 341 Q640 327 634.5 310.5 Q629 294 627 277 L543 290 Q552 362 595.5 406 Q639 450 714 450 Q742 450 766.5 441.5 Q791 433 809.5 417 Q828 401 839 378 Q850 355 850 326 Z M230 -12 L180 23 L644 692 L694 658 L230 -12 Z M251 238 L166 238 L223 486 Q225 496 227.5 506 Q230 516 230 526 Q230 540 220 541.5 Q210 543 199 543 L134 543 L147 600 Q179 600 207.5 609.5 Q236 619 257 645 Q263 652 268.5 661.5 Q274 671 276 680 L353 680 L251 238 Z " />
<glyph glyph-name="threequarters" unicode="&#xbe;" horiz-adv-x="875" d="M793 175 L850 175 L833 103 L776 103 L752 0 L668 0 L692 103 L509 103 L528 182 L754 442 L854 442 L793 175 Z M293 -12 L243 23 L707 692 L757 658 L293 -12 Z M405 576 Q405 545 388.5 520 Q372 495 346 480 Q338 475 329 472.5 Q320 470 312 467 Q376 448 376 379 Q376 365 372.5 351.5 Q369 338 364 325 Q343 277 301.5 253.5 Q260 230 209 230 Q132 230 95.5 267 Q59 304 50 376 L139 385 Q139 383 138.5 381 Q138 379 138 377 Q138 345 158 325 Q178 305 210 305 Q241 305 264.5 325.5 Q288 346 288 378 Q288 413 266 425 Q244 437 213 437 Q208 437 203.5 437 Q199 437 194 436 L211 509 Q218 508 225 507.5 Q232 507 239 507 Q253 507 267 510 Q281 513 292 520 Q303 527 310.5 538 Q318 549 318 565 Q318 588 302 601.5 Q286 615 263 615 Q233 615 214 598 Q195 581 189 552 L105 571 Q110 583 114 595 Q118 607 125 618 Q148 653 185 670.5 Q222 688 263 688 L268 688 Q298 688 325 679 Q359 667 382 640 Q405 613 405 576 Z M608 175 L708 175 L751 341 L608 175 Z " />
<glyph glyph-name="questiondown" unicode="&#xbf;" horiz-adv-x="542" d="M389 571 L256 571 L288 706 L420 706 L389 571 Z M497 210 Q474 104 407 47.5 Q340 -9 232 -9 Q200 -9 168.5 -3 Q137 3 108.5 15.5 Q80 28 56 48.5 Q32 69 17 99 Q-1 134 -1 174 Q-1 211 13 239.5 Q27 268 49.5 291 Q72 314 99.5 333.5 Q127 353 153 372 Q173 387 187.5 397.5 Q202 408 213.5 419.5 Q225 431 233.5 446.5 Q242 462 248 486 Q250 492 251 498 Q252 504 254 509 L365 509 L353 457 Q346 426 339 406.5 Q332 387 321.5 372.5 Q311 358 295.5 344.5 Q280 331 254 311 L209 275 Q197 266 184.5 256.5 Q172 247 161.5 235.5 Q151 224 144 210.5 Q137 197 137 180 Q137 160 146 145 Q155 130 170 120 Q185 110 203 105 Q221 100 239 100 Q269 100 293.5 110.5 Q318 121 336 139.5 Q354 158 364.5 183 Q375 208 376 237 L497 210 Z " />
<glyph glyph-name="Agrave" unicode="&#xc0;" horiz-adv-x="646" d="M421 752 L339 871 L488 871 L521 752 L421 752 Z M469 0 L455 147 L197 147 L119 0 L-26 0 L379 706 L526 706 L602 0 L469 0 Z M423 572 L258 258 L446 258 L423 572 Z " />
<glyph glyph-name="Aacute" unicode="&#xc1;" horiz-adv-x="646" d="M489 749 L388 749 L454 871 L616 871 L489 749 Z M469 0 L455 147 L197 147 L119 0 L-26 0 L379 706 L526 706 L602 0 L469 0 Z M423 572 L258 258 L446 258 L423 572 Z " />
<glyph glyph-name="Acircumflex" unicode="&#xc2;" horiz-adv-x="646" d="M504 752 L473 817 L414 752 L286 752 L413 874 L545 874 L617 752 L504 752 Z M469 0 L455 147 L197 147 L119 0 L-26 0 L379 706 L526 706 L602 0 L469 0 Z M423 572 L258 258 L446 258 L423 572 Z " />
<glyph glyph-name="Atilde" unicode="&#xc3;" horiz-adv-x="646" d="M661 874 Q655 850 643.5 827.5 Q632 805 615 787 Q598 769 576 758.5 Q554 748 527 748 Q509 748 492 753 Q475 758 458.5 764.5 Q442 771 426.5 776 Q411 781 397 781 Q380 781 370.5 772 Q361 763 354 748 L279 748 L281 754 Q289 778 299.5 800 Q310 822 325 838.5 Q340 855 361 864.5 Q382 874 410 874 Q428 874 444.5 868.5 Q461 863 477 857 Q493 851 509 845.5 Q525 840 541 840 Q559 840 569.5 849.5 Q580 859 587 874 L661 874 Z M469 0 L455 147 L197 147 L119 0 L-26 0 L379 706 L526 706 L602 0 L469 0 Z M423 572 L258 258 L446 258 L423 572 Z " />
<glyph glyph-name="Adieresis" unicode="&#xc4;" horiz-adv-x="646" d="M637 751 L510 751 L539 874 L665 874 L637 751 Z M404 751 L278 751 L307 874 L433 874 L404 751 Z M469 0 L455 147 L197 147 L119 0 L-26 0 L379 706 L526 706 L602 0 L469 0 Z M423 572 L258 258 L446 258 L423 572 Z " />
<glyph glyph-name="Aring" unicode="&#xc5;" horiz-adv-x="646" d="M568 832 Q568 814 561 797 Q554 780 541.5 767 Q529 754 512.5 746.5 Q496 739 477 739 Q458 739 441 746.5 Q424 754 411.5 767 Q399 780 392 797 Q385 814 385 833 Q385 871 412 897 Q439 923 477 923 Q515 923 541.5 896.5 Q568 870 568 832 Z M469 0 L455 147 L197 147 L119 0 L-26 0 L379 706 L526 706 L602 0 L469 0 Z M520 833 Q520 851 507.5 863.5 Q495 876 477 876 Q458 876 445 863 Q432 850 432 831 Q432 812 446 799.5 Q460 787 478 787 Q496 787 508 801.5 Q520 816 520 833 Z M423 572 L258 258 L446 258 L423 572 Z " />
<glyph glyph-name="AE" unicode="&#xc6;" horiz-adv-x="979" d="M1015 590 L699 590 L660 422 L962 422 L935 305 L633 305 L589 116 L958 116 L931 0 L436 0 L473 163 L260 163 L142 0 L-21 0 L510 706 L1041 706 L1015 590 Z M344 279 L500 279 L578 618 L344 279 Z " />
<glyph glyph-name="Ccedilla" unicode="&#xc7;" horiz-adv-x="688" d="M589 461 Q589 533 553.5 570.5 Q518 608 444 608 Q373 608 317 561 Q292 540 272.5 508.5 Q253 477 240 441 Q227 405 220 368 Q213 331 213 299 Q213 260 222 224.5 Q231 189 250.5 162.5 Q270 136 301 120.5 Q332 105 375 105 Q413 105 442.5 116 Q472 127 495 146.5 Q518 166 536 192.5 Q554 219 569 251 L685 204 Q657 128 604 75 Q551 22 473 -1 Q453 -7 430.5 -11 Q408 -15 386 -15 L341 -74 Q356 -74 371 -77 Q386 -80 398.5 -87 Q411 -94 419 -106 Q427 -118 427 -136 Q427 -160 412.5 -176.5 Q398 -193 377 -204 Q356 -215 332 -220 Q308 -225 289 -225 Q266 -225 245 -221 Q224 -217 202 -211 L211 -171 Q222 -176 238 -179 Q254 -182 265 -182 Q271 -182 281 -180.5 Q291 -179 300 -176 Q309 -173 315.5 -167 Q322 -161 322 -152 Q322 -135 306 -131 Q290 -127 277 -127 Q259 -127 241 -130 L248 -102 L335 -13 Q314 -11 294.5 -7.5 Q275 -4 255 3 Q207 20 173 47 Q139 74 117.5 110 Q96 146 86 189.5 Q76 233 76 281 Q76 365 99.5 444.5 Q123 524 169.5 585.5 Q216 647 285.5 684 Q355 721 448 721 Q487 721 525 713.5 Q563 706 596 689 Q629 672 655.5 645.5 Q682 619 698 581 Q709 556 712.5 532.5 Q716 509 718 483 L589 461 Z " />
<glyph glyph-name="Egrave" unicode="&#xc8;" horiz-adv-x="625" d="M411 752 L329 871 L478 871 L511 752 L411 752 Z M640 591 L290 591 L251 424 L584 424 L558 311 L225 311 L180 114 L582 114 L556 0 L23 0 L186 706 L666 706 L640 591 Z " />
<glyph glyph-name="Eacute" unicode="&#xc9;" horiz-adv-x="625" d="M479 749 L378 749 L443 871 L605 871 L479 749 Z M640 591 L290 591 L251 424 L584 424 L558 311 L225 311 L180 114 L582 114 L556 0 L23 0 L186 706 L666 706 L640 591 Z " />
<glyph glyph-name="Ecircumflex" unicode="&#xca;" horiz-adv-x="625" d="M494 752 L463 817 L403 752 L275 752 L403 874 L535 874 L606 752 L494 752 Z M640 591 L290 591 L251 424 L584 424 L558 311 L225 311 L180 114 L582 114 L556 0 L23 0 L186 706 L666 706 L640 591 Z " />
<glyph glyph-name="Edieresis" unicode="&#xcb;" horiz-adv-x="625" d="M620 751 L493 751 L522 874 L648 874 L620 751 Z M387 751 L261 751 L290 874 L416 874 L387 751 Z M640 591 L290 591 L251 424 L584 424 L558 311 L225 311 L180 114 L582 114 L556 0 L23 0 L186 706 L666 706 L640 591 Z " />
<glyph glyph-name="Igrave" unicode="&#xcc;" horiz-adv-x="271" d="M233 752 L152 871 L301 871 L334 752 L233 752 Z M157 0 L24 0 L187 706 L320 706 L157 0 Z " />
<glyph glyph-name="Iacute" unicode="&#xcd;" horiz-adv-x="271" d="M302 749 L201 749 L266 871 L428 871 L302 749 Z M157 0 L24 0 L187 706 L320 706 L157 0 Z " />
<glyph glyph-name="Icircumflex" unicode="&#xce;" horiz-adv-x="271" d="M317 752 L286 817 L226 752 L98 752 L226 874 L358 874 L429 752 L317 752 Z M157 0 L24 0 L187 706 L320 706 L157 0 Z " />
<glyph glyph-name="Idieresis" unicode="&#xcf;" horiz-adv-x="271" d="M442 751 L316 751 L345 874 L471 874 L442 751 Z M210 751 L84 751 L112 874 L239 874 L210 751 Z M157 0 L24 0 L187 706 L320 706 L157 0 Z " />
<glyph glyph-name="Eth" unicode="&#xd0;" horiz-adv-x="729" d="M726 410 Q726 351 711 292.5 Q696 234 666.5 183 Q637 132 593.5 91.5 Q550 51 493 28 Q452 11 407 5.5 Q362 0 318 0 L23 0 L101 338 L0 338 L21 431 L122 431 L186 706 L379 706 Q420 706 461.5 704 Q503 702 541.5 692 Q580 682 614 661.5 Q648 641 674 605 Q704 563 715 512 Q726 461 726 410 Z M591 411 Q591 470 573.5 505.5 Q556 541 525.5 560 Q495 579 453 584.5 Q411 590 361 590 L293 590 L256 431 L414 431 L393 338 L235 338 L183 116 L225 116 Q280 116 330 118 Q380 120 423.5 134 Q467 148 502.5 179.5 Q538 211 563 271 Q577 302 584 339.5 Q591 377 591 411 Z " />
<glyph glyph-name="Ntilde" unicode="&#xd1;" horiz-adv-x="708" d="M692 874 Q686 850 674.5 827.5 Q663 805 646 787 Q629 769 607.5 758.5 Q586 748 559 748 Q541 748 523.5 753 Q506 758 489.5 764.5 Q473 771 457.5 776 Q442 781 428 781 Q409 781 401 771.5 Q393 762 385 748 L311 748 Q319 801 352 837.5 Q385 874 442 874 Q460 874 476.5 868.5 Q493 863 508.5 857 Q524 851 540 845.5 Q556 840 572 840 Q590 840 600.5 849.5 Q611 859 618 874 L692 874 Z M596 0 L479 0 L262 518 L152 0 L23 0 L186 706 L306 706 L521 185 L632 706 L759 706 L596 0 Z " />
<glyph glyph-name="Ograve" unicode="&#xd2;" horiz-adv-x="750" d="M473 752 L391 871 L540 871 L573 752 L473 752 Z M748 419 Q748 359 733.5 298 Q719 237 690 183 Q586 -15 366 -15 Q297 -15 242.5 6.5 Q188 28 151 68 Q114 108 94.5 163.5 Q75 219 75 287 Q75 323 80.5 359 Q86 395 96 430 Q114 495 146.5 548.5 Q179 602 224.5 640.5 Q270 679 328.5 700 Q387 721 456 721 Q494 721 533 713.5 Q572 706 605 688 Q642 668 669 638.5 Q696 609 713.5 574 Q731 539 739.5 499.5 Q748 460 748 419 Z M616 424 Q616 463 605.5 496.5 Q595 530 574.5 554 Q554 578 523 592 Q492 606 451 606 Q413 606 378 594 Q343 582 314 556 Q290 535 270.5 502.5 Q251 470 237.5 433.5 Q224 397 217 359.5 Q210 322 210 290 Q210 250 220.5 216 Q231 182 251.5 157 Q272 132 303.5 118 Q335 104 377 104 Q428 104 466 122.5 Q504 141 531.5 172.5 Q559 204 576.5 244.5 Q594 285 604 329 Q609 352 612.5 376 Q616 400 616 424 Z " />
<glyph glyph-name="Oacute" unicode="&#xd3;" horiz-adv-x="750" d="M541 749 L440 749 L506 871 L668 871 L541 749 Z M748 419 Q748 359 733.5 298 Q719 237 690 183 Q586 -15 366 -15 Q297 -15 242.5 6.5 Q188 28 151 68 Q114 108 94.5 163.5 Q75 219 75 287 Q75 323 80.5 359 Q86 395 96 430 Q114 495 146.5 548.5 Q179 602 224.5 640.5 Q270 679 328.5 700 Q387 721 456 721 Q494 721 533 713.5 Q572 706 605 688 Q642 668 669 638.5 Q696 609 713.5 574 Q731 539 739.5 499.5 Q748 460 748 419 Z M616 424 Q616 463 605.5 496.5 Q595 530 574.5 554 Q554 578 523 592 Q492 606 451 606 Q413 606 378 594 Q343 582 314 556 Q290 535 270.5 502.5 Q251 470 237.5 433.5 Q224 397 217 359.5 Q210 322 210 290 Q210 250 220.5 216 Q231 182 251.5 157 Q272 132 303.5 118 Q335 104 377 104 Q428 104 466 122.5 Q504 141 531.5 172.5 Q559 204 576.5 244.5 Q594 285 604 329 Q609 352 612.5 376 Q616 400 616 424 Z " />
<glyph glyph-name="Ocircumflex" unicode="&#xd4;" horiz-adv-x="750" d="M536 752 L504 817 L445 752 L317 752 L444 874 L577 874 L648 752 L536 752 Z M748 419 Q748 359 733.5 298 Q719 237 690 183 Q586 -15 366 -15 Q297 -15 242.5 6.5 Q188 28 151 68 Q114 108 94.5 163.5 Q75 219 75 287 Q75 323 80.5 359 Q86 395 96 430 Q114 495 146.5 548.5 Q179 602 224.5 640.5 Q270 679 328.5 700 Q387 721 456 721 Q494 721 533 713.5 Q572 706 605 688 Q642 668 669 638.5 Q696 609 713.5 574 Q731 539 739.5 499.5 Q748 460 748 419 Z M616 424 Q616 463 605.5 496.5 Q595 530 574.5 554 Q554 578 523 592 Q492 606 451 606 Q413 606 378 594 Q343 582 314 556 Q290 535 270.5 502.5 Q251 470 237.5 433.5 Q224 397 217 359.5 Q210 322 210 290 Q210 250 220.5 216 Q231 182 251.5 157 Q272 132 303.5 118 Q335 104 377 104 Q428 104 466 122.5 Q504 141 531.5 172.5 Q559 204 576.5 244.5 Q594 285 604 329 Q609 352 612.5 376 Q616 400 616 424 Z " />
<glyph glyph-name="Otilde" unicode="&#xd5;" horiz-adv-x="750" d="M697 874 Q691 850 679.5 827.5 Q668 805 651.5 787 Q635 769 613 758.5 Q591 748 564 748 Q546 748 528.5 753 Q511 758 494.5 764.5 Q478 771 462.5 776 Q447 781 433 781 Q414 781 406 771.5 Q398 762 390 748 L316 748 L318 754 Q326 778 336.5 800 Q347 822 362 838.5 Q377 855 398 864.5 Q419 874 447 874 Q465 874 481.5 868.5 Q498 863 513.5 857 Q529 851 545 845.5 Q561 840 577 840 Q610 840 623 874 L697 874 Z M748 419 Q748 359 733.5 298 Q719 237 690 183 Q586 -15 366 -15 Q297 -15 242.5 6.5 Q188 28 151 68 Q114 108 94.5 163.5 Q75 219 75 287 Q75 323 80.5 359 Q86 395 96 430 Q114 495 146.5 548.5 Q179 602 224.5 640.5 Q270 679 328.5 700 Q387 721 456 721 Q494 721 533 713.5 Q572 706 605 688 Q642 668 669 638.5 Q696 609 713.5 574 Q731 539 739.5 499.5 Q748 460 748 419 Z M616 424 Q616 463 605.5 496.5 Q595 530 574.5 554 Q554 578 523 592 Q492 606 451 606 Q413 606 378 594 Q343 582 314 556 Q290 535 270.5 502.5 Q251 470 237.5 433.5 Q224 397 217 359.5 Q210 322 210 290 Q210 250 220.5 216 Q231 182 251.5 157 Q272 132 303.5 118 Q335 104 377 104 Q428 104 466 122.5 Q504 141 531.5 172.5 Q559 204 576.5 244.5 Q594 285 604 329 Q609 352 612.5 376 Q616 400 616 424 Z " />
<glyph glyph-name="Odieresis" unicode="&#xd6;" horiz-adv-x="750" d="M669 751 L543 751 L571 874 L698 874 L669 751 Z M437 751 L311 751 L339 874 L465 874 L437 751 Z M748 419 Q748 359 733.5 298 Q719 237 690 183 Q638 85 557 35 Q476 -15 366 -15 Q296 -15 241.5 7 Q187 29 150 69 Q113 109 94 164.5 Q75 220 75 287 Q75 323 80.5 359 Q86 395 96 430 Q114 496 147 550 Q180 604 226 642 Q272 680 331.5 700.5 Q391 721 461 721 Q528 721 581.5 698.5 Q635 676 672 635.5 Q709 595 728.5 539.5 Q748 484 748 419 Z M616 424 Q616 463 605.5 496.5 Q595 530 574.5 554 Q554 578 523 592 Q492 606 451 606 Q413 606 378 594 Q343 582 314 556 Q290 535 270.5 502.5 Q251 470 237.5 433.5 Q224 397 217 359.5 Q210 322 210 290 Q210 250 220.5 216 Q231 182 251.5 157 Q272 132 303.5 118 Q335 104 377 104 Q428 104 466 122.5 Q504 141 531.5 172.5 Q559 204 576.5 244.5 Q594 285 604 329 Q609 352 612.5 376 Q616 400 616 424 Z " />
<glyph glyph-name="multiply" unicode="&#xd7;" horiz-adv-x="724" d="M459 315 L589 154 L489 73 L360 235 L177 86 L111 167 L294 316 L165 476 L264 556 L393 396 L578 546 L643 466 L459 315 Z " />
<glyph glyph-name="Oslash" unicode="&#xd8;" horiz-adv-x="750" d="M695 600 Q722 562 734 512 Q746 462 746 416 Q746 363 734 308.5 Q722 254 698.5 204.5 Q675 155 640 112.5 Q605 70 560 40 Q516 11 466 -2 Q416 -15 364 -15 Q305 -15 256 1 Q207 17 164 57 L101 -7 L60 34 L127 102 Q100 142 87.5 192.5 Q75 243 75 291 Q75 333 82.5 376 Q90 419 104 458 Q125 517 157.5 565 Q190 613 233.5 648 Q277 683 331.5 702 Q386 721 450 721 Q507 721 562 704 Q617 687 659 645 L719 706 L760 665 L695 600 Z M574 560 Q525 612 451 612 Q390 612 344.5 584 Q299 556 268 511 Q237 466 221.5 411 Q206 356 206 302 Q206 273 210 250 Q214 227 223 201 L574 560 Z M617 421 Q617 443 615 464.5 Q613 486 605 507 L255 149 Q276 120 311 110.5 Q346 101 379 101 Q440 101 485 131.5 Q530 162 559 209 Q588 256 602.5 312.5 Q617 369 617 421 Z " />
<glyph glyph-name="Ugrave" unicode="&#xd9;" horiz-adv-x="688" d="M421 752 L339 871 L488 871 L521 752 L421 752 Z M640 268 Q632 233 620 189 Q608 145 588 113 Q567 79 537.5 54.5 Q508 30 473 14.5 Q438 -1 400 -8 Q362 -15 323 -15 Q276 -15 230.5 -4 Q185 7 149 31 Q113 55 91 93 Q69 131 69 184 Q69 215 75 246 Q81 277 88 307 L181 706 L313 706 L222 309 Q216 283 209.5 256 Q203 229 203 203 Q203 175 214 156 Q225 137 243.5 125 Q262 113 285 107.5 Q308 102 332 102 Q354 102 376.5 106 Q399 110 418 121 Q442 134 456.5 150 Q471 166 481 185 Q491 204 496.5 226 Q502 248 508 273 L608 706 L741 706 L640 268 Z " />
<glyph glyph-name="Uacute" unicode="&#xda;" horiz-adv-x="688" d="M510 749 L409 749 L474 871 L637 871 L510 749 Z M640 268 Q632 233 620 189 Q608 145 588 113 Q567 79 537.5 54.5 Q508 30 473 14.5 Q438 -1 400 -8 Q362 -15 323 -15 Q276 -15 230.5 -4 Q185 7 149 31 Q113 55 91 93 Q69 131 69 184 Q69 215 75 246 Q81 277 88 307 L181 706 L313 706 L222 309 Q216 283 209.5 256 Q203 229 203 203 Q203 175 214 156 Q225 137 243.5 125 Q262 113 285 107.5 Q308 102 332 102 Q354 102 376.5 106 Q399 110 418 121 Q442 134 456.5 150 Q471 166 481 185 Q491 204 496.5 226 Q502 248 508 273 L608 706 L741 706 L640 268 Z " />
<glyph glyph-name="Ucircumflex" unicode="&#xdb;" horiz-adv-x="688" d="M525 752 L494 817 L435 752 L307 752 L434 874 L566 874 L638 752 L525 752 Z M640 268 Q632 233 620 189 Q608 145 588 113 Q567 79 537.5 54.5 Q508 30 473 14.5 Q438 -1 400 -8 Q362 -15 323 -15 Q276 -15 230.5 -4 Q185 7 149 31 Q113 55 91 93 Q69 131 69 184 Q69 215 75 246 Q81 277 88 307 L181 706 L313 706 L222 309 Q216 283 209.5 256 Q203 229 203 203 Q203 175 214 156 Q225 137 243.5 125 Q262 113 285 107.5 Q308 102 332 102 Q354 102 376.5 106 Q399 110 418 121 Q442 134 456.5 150 Q471 166 481 185 Q491 204 496.5 226 Q502 248 508 273 L608 706 L741 706 L640 268 Z " />
<glyph glyph-name="Udieresis" unicode="&#xdc;" horiz-adv-x="688" d="M647 751 L521 751 L549 874 L675 874 L647 751 Z M415 751 L288 751 L317 874 L443 874 L415 751 Z M640 268 Q632 233 620 189 Q608 145 588 113 Q567 79 537.5 54.5 Q508 30 473 14.5 Q438 -1 400 -8 Q362 -15 323 -15 Q276 -15 230.5 -4 Q185 7 149 31 Q113 55 91 93 Q69 131 69 184 Q69 215 75 246 Q81 277 88 307 L181 706 L313 706 L222 309 Q216 283 209.5 256 Q203 229 203 203 Q203 175 214 156 Q225 137 243.5 125 Q262 113 285 107.5 Q308 102 332 102 Q354 102 376.5 106 Q399 110 418 121 Q442 134 456.5 150 Q471 166 481 185 Q491 204 496.5 226 Q502 248 508 273 L608 706 L741 706 L640 268 Z " />
<glyph glyph-name="Yacute" unicode="&#xdd;" horiz-adv-x="604" d="M468 749 L367 749 L433 871 L595 871 L468 749 Z M399 281 L334 0 L200 0 L265 281 L118 706 L255 706 L351 394 L573 706 L726 706 L399 281 Z " />
<glyph glyph-name="Thorn" unicode="&#xde;" horiz-adv-x="604" d="M632 410 Q632 343 601 282.5 Q570 222 512 187 Q467 159 416.5 154.5 Q366 150 315 150 L190 150 L156 0 L23 0 L186 706 L319 706 L296 606 L355 606 Q386 606 416.5 606 Q447 606 476 601 Q505 596 531.5 584 Q558 572 582 548 Q610 519 621 484 Q632 449 632 410 Z M496 396 Q496 429 475 454 Q454 480 423.5 483.5 Q393 487 362 487 L268 487 L215 257 L317 257 Q339 257 359 257.5 Q379 258 397 262.5 Q415 267 431.5 277 Q448 287 463 305 Q478 322 487 347.5 Q496 373 496 396 Z " />
<glyph glyph-name="germandbls" unicode="&#xdf;" horiz-adv-x="562" d="M567 554 Q567 483 527 442 Q487 401 416 401 L399 401 Q465 392 500.5 354 Q536 316 536 247 Q536 213 527.5 177 Q519 141 502.5 109 Q486 77 461.5 51 Q437 25 405 10 Q379 -2 353.5 -7 Q328 -12 300 -12 L298 -12 Q270 -12 243 -7 Q216 -2 190 6 L213 107 Q233 102 252 96.5 Q271 91 293 91 Q326 91 349 105 Q372 119 387 141 Q402 163 409 191.5 Q416 220 416 248 Q416 305 385 328.5 Q354 352 302 352 Q294 352 285.5 351.5 Q277 351 269 350 L290 441 Q301 439 312.5 438 Q324 437 335 437 Q386 437 418 463.5 Q450 490 450 543 Q450 583 428 602.5 Q406 622 367 622 Q333 622 312.5 608.5 Q292 595 279.5 573 Q267 551 260.5 524 Q254 497 248 471 L140 0 L19 0 L133 492 Q138 512 142 531.5 Q146 551 153 570 Q203 715 356 715 L363 715 Q400 715 436.5 705.5 Q473 696 502 676.5 Q531 657 549 626.5 Q567 596 567 554 Z " />
<glyph glyph-name="agrave" unicode="&#xe0;" horiz-adv-x="562" d="M331 570 L243 706 L393 706 L430 570 L331 570 Z M530 371 Q530 352 525 323 Q520 294 513.5 263.5 Q507 233 500 205 Q493 177 489 160 Q483 132 476.5 104 Q470 76 470 47 Q470 35 471 23 Q472 11 476 0 L347 0 Q346 6 345.5 12 Q345 18 345 24 Q345 31 345.5 37.5 Q346 44 347 51 Q313 20 278 5 Q243 -10 196 -10 Q162 -10 131.5 -1.5 Q101 7 78 24.5 Q55 42 41.5 69 Q28 96 28 133 Q28 187 61 231 Q78 254 98.5 267.5 Q119 281 143 289 Q167 297 193 300.5 Q219 304 245 306 L339 314 Q357 316 373 318.5 Q389 321 406 326 Q408 337 410.5 347.5 Q413 358 413 369 Q413 387 404 397.5 Q395 408 381 413 Q367 418 351.5 419.5 Q336 421 322 421 Q282 421 256 406.5 Q230 392 224 350 L97 350 Q99 376 109.5 397.5 Q120 419 137 439 Q174 481 226 493.5 Q278 506 330 506 Q363 506 398.5 500.5 Q434 495 463.5 480 Q493 465 511.5 438.5 Q530 412 530 371 Z M269 223 Q255 222 240 220.5 Q225 219 211 215.5 Q197 212 185 205 Q173 198 164 185 Q153 169 153 150 Q153 118 177 101.5 Q201 85 230 85 Q246 85 265.5 90.5 Q285 96 304 105 Q323 114 339.5 126 Q356 138 365 150 L385 237 L269 223 Z " />
<glyph glyph-name="aacute" unicode="&#xe1;" horiz-adv-x="562" d="M409 570 L302 570 L374 706 L539 706 L409 570 Z M530 371 Q530 352 525 323 Q520 294 513.5 263.5 Q507 233 500 205 Q493 177 489 160 Q483 132 476.5 104 Q470 76 470 47 Q470 35 471 23 Q472 11 476 0 L347 0 Q346 6 345.5 12 Q345 18 345 24 Q345 31 345.5 37.5 Q346 44 347 51 Q313 20 278 5 Q243 -10 196 -10 Q162 -10 131.5 -1.5 Q101 7 78 24.5 Q55 42 41.5 69 Q28 96 28 133 Q28 187 61 231 Q78 254 98.5 267.5 Q119 281 143 289 Q167 297 193 300.5 Q219 304 245 306 L339 314 Q357 316 373 318.5 Q389 321 406 326 Q408 337 410.5 347.5 Q413 358 413 369 Q413 387 404 397.5 Q395 408 381 413 Q367 418 351.5 419.5 Q336 421 322 421 Q282 421 256 406.5 Q230 392 224 350 L97 350 Q99 376 109.5 397.5 Q120 419 137 439 Q174 481 226 493.5 Q278 506 330 506 Q363 506 398.5 500.5 Q434 495 463.5 480 Q493 465 511.5 438.5 Q530 412 530 371 Z M269 223 Q255 222 240 220.5 Q225 219 211 215.5 Q197 212 185 205 Q173 198 164 185 Q153 169 153 150 Q153 118 177 101.5 Q201 85 230 85 Q246 85 265.5 90.5 Q285 96 304 105 Q323 114 339.5 126 Q356 138 365 150 L385 237 L269 223 Z " />
<glyph glyph-name="acircumflex" unicode="&#xe2;" horiz-adv-x="562" d="M426 571 L388 648 L322 571 L195 571 L333 706 L457 706 L529 571 L426 571 Z M530 371 Q530 352 525 323 Q520 294 513.5 263.5 Q507 233 500 205 Q493 177 489 160 Q483 132 476.5 104 Q470 76 470 47 Q470 35 471 23 Q472 11 476 0 L347 0 Q346 6 345.5 12 Q345 18 345 24 Q345 31 345.5 37.5 Q346 44 347 51 Q313 20 278 5 Q243 -10 196 -10 Q162 -10 131.5 -1.5 Q101 7 78 24.5 Q55 42 41.5 69 Q28 96 28 133 Q28 187 61 231 Q78 254 98.5 267.5 Q119 281 143 289 Q167 297 193 300.5 Q219 304 245 306 L339 314 Q357 316 373 318.5 Q389 321 406 326 Q408 337 410.5 347.5 Q413 358 413 369 Q413 387 404 397.5 Q395 408 381 413 Q367 418 351.5 419.5 Q336 421 322 421 Q282 421 256 406.5 Q230 392 224 350 L97 350 Q99 376 109.5 397.5 Q120 419 137 439 Q174 481 226 493.5 Q278 506 330 506 Q363 506 398.5 500.5 Q434 495 463.5 480 Q493 465 511.5 438.5 Q530 412 530 371 Z M269 223 Q255 222 240 220.5 Q225 219 211 215.5 Q197 212 185 205 Q173 198 164 185 Q153 169 153 150 Q153 118 177 101.5 Q201 85 230 85 Q246 85 265.5 90.5 Q285 96 304 105 Q323 114 339.5 126 Q356 138 365 150 L385 237 L269 223 Z " />
<glyph glyph-name="atilde" unicode="&#xe3;" horiz-adv-x="562" d="M571 706 Q565 681 553.5 658.5 Q542 636 525 618.5 Q508 601 485.5 590.5 Q463 580 435 580 Q418 580 402 585 Q386 590 370.5 596.5 Q355 603 339.5 608 Q324 613 307 613 Q291 613 280 603.5 Q269 594 264 580 L190 580 Q190 582 190.5 583 Q191 584 191 586 Q197 610 208 632 Q219 654 235.5 670.5 Q252 687 273.5 696.5 Q295 706 321 706 Q339 706 355.5 701 Q372 696 387.5 689.5 Q403 683 419 678 Q435 673 451 673 Q469 673 479.5 681.5 Q490 690 498 706 L571 706 Z M530 371 Q530 352 525 323 Q520 294 513.5 263.5 Q507 233 500 205 Q493 177 489 160 Q483 132 476.5 104 Q470 76 470 47 Q470 35 471 23 Q472 11 476 0 L347 0 Q346 6 345.5 12 Q345 18 345 24 Q345 31 345.5 37.5 Q346 44 347 51 Q313 20 278 5 Q243 -10 196 -10 Q162 -10 131.5 -1.5 Q101 7 78 24.5 Q55 42 41.5 69 Q28 96 28 133 Q28 187 61 231 Q78 254 98.5 267.5 Q119 281 143 289 Q167 297 193 300.5 Q219 304 245 306 L339 314 Q357 316 373 318.5 Q389 321 406 326 Q408 337 410.5 347.5 Q413 358 413 369 Q413 387 404 397.5 Q395 408 381 413 Q367 418 351.5 419.5 Q336 421 322 421 Q282 421 256 406.5 Q230 392 224 350 L97 350 Q99 376 109.5 397.5 Q120 419 137 439 Q174 481 226 493.5 Q278 506 330 506 Q363 506 398.5 500.5 Q434 495 463.5 480 Q493 465 511.5 438.5 Q530 412 530 371 Z M269 223 Q255 222 240 220.5 Q225 219 211 215.5 Q197 212 185 205 Q173 198 164 185 Q153 169 153 150 Q153 118 177 101.5 Q201 85 230 85 Q246 85 265.5 90.5 Q285 96 304 105 Q323 114 339.5 126 Q356 138 365 150 L385 237 L269 223 Z " />
<glyph glyph-name="adieresis" unicode="&#xe4;" horiz-adv-x="562" d="M548 567 L422 567 L451 691 L577 691 L548 567 Z M316 567 L190 567 L218 691 L345 691 L316 567 Z M530 371 Q530 352 525 323 Q520 294 513.5 263.5 Q507 233 500 205 Q493 177 489 160 Q483 132 476.5 104 Q470 76 470 47 Q470 35 471 23 Q472 11 476 0 L347 0 Q346 6 345.5 12 Q345 18 345 24 Q345 31 345.5 37.5 Q346 44 347 51 Q313 20 278 5 Q243 -10 196 -10 Q162 -10 131.5 -1.5 Q101 7 78 24.5 Q55 42 41.5 69 Q28 96 28 133 Q28 187 61 231 Q78 254 98.5 267.5 Q119 281 143 289 Q167 297 193 300.5 Q219 304 245 306 L339 314 Q357 316 373 318.5 Q389 321 406 326 Q408 337 410.5 347.5 Q413 358 413 369 Q413 387 404 397.5 Q395 408 381 413 Q367 418 351.5 419.5 Q336 421 322 421 Q282 421 256 406.5 Q230 392 224 350 L97 350 Q99 376 109.5 397.5 Q120 419 137 439 Q174 481 226 493.5 Q278 506 330 506 Q363 506 398.5 500.5 Q434 495 463.5 480 Q493 465 511.5 438.5 Q530 412 530 371 Z M269 223 Q255 222 240 220.5 Q225 219 211 215.5 Q197 212 185 205 Q173 198 164 185 Q153 169 153 150 Q153 118 177 101.5 Q201 85 230 85 Q246 85 265.5 90.5 Q285 96 304 105 Q323 114 339.5 126 Q356 138 365 150 L385 237 L269 223 Z " />
<glyph glyph-name="aring" unicode="&#xe5;" horiz-adv-x="562" d="M471 625 Q471 607 464 590 Q457 573 445 560 Q433 547 417 539.5 Q401 532 382 532 Q343 532 315.5 559 Q288 586 288 625 Q288 663 314.5 689 Q341 715 379 715 Q417 715 444 689 Q471 663 471 625 Z M530 371 Q530 352 525 323 Q520 294 513.5 263.5 Q507 233 500 205 Q493 177 489 160 Q483 132 476.5 104 Q470 76 470 47 Q470 35 471 23 Q472 11 476 0 L347 0 Q346 6 345.5 12 Q345 18 345 24 Q345 31 345.5 37.5 Q346 44 347 51 Q313 20 278 5 Q243 -10 196 -10 Q162 -10 131.5 -1.5 Q101 7 78 24.5 Q55 42 41.5 69 Q28 96 28 133 Q28 187 61 231 Q78 254 98.5 267.5 Q119 281 143 289 Q167 297 193 300.5 Q219 304 245 306 L339 314 Q357 316 373 318.5 Q389 321 406 326 Q408 337 410.5 347.5 Q413 358 413 369 Q413 387 404 397.5 Q395 408 381 413 Q367 418 351.5 419.5 Q336 421 322 421 Q282 421 256 406.5 Q230 392 224 350 L97 350 Q99 376 109.5 397.5 Q120 419 137 439 Q174 481 226 493.5 Q278 506 330 506 Q363 506 398.5 500.5 Q434 495 463.5 480 Q493 465 511.5 438.5 Q530 412 530 371 Z M423 625 Q423 644 410 656 Q397 668 379 668 Q360 668 347.5 655.5 Q335 643 335 624 Q335 604 348.5 592 Q362 580 381 580 Q399 580 411 594 Q423 608 423 625 Z M269 223 Q255 222 240 220.5 Q225 219 211 215.5 Q197 212 185 205 Q173 198 164 185 Q153 169 153 150 Q153 118 177 101.5 Q201 85 230 85 Q246 85 265.5 90.5 Q285 96 304 105 Q323 114 339.5 126 Q356 138 365 150 L385 237 L269 223 Z " />
<glyph glyph-name="ae" unicode="&#xe6;" horiz-adv-x="854" d="M839 299 Q839 283 838 267 Q837 251 834 235 L491 235 Q489 225 488 215.5 Q487 206 487 196 Q487 148 515.5 116.5 Q544 85 593 85 Q636 85 670 110.5 Q704 136 727 170 L824 111 Q815 100 807 90 Q799 80 789 70 Q747 28 699.5 7.5 Q652 -13 592 -13 Q532 -13 488 6 Q444 25 408 74 Q370 32 314.5 9 Q259 -14 202 -14 Q168 -14 136.5 -5 Q105 4 80 22 Q55 40 40 68 Q25 96 25 133 Q25 184 53 222 Q71 248 95.5 263.5 Q120 279 147.5 287.5 Q175 296 205 299.5 Q235 303 263 306 L395 319 Q396 328 396.5 337 Q397 346 397 355 Q397 399 373 412.5 Q349 426 309 426 Q293 426 276 422.5 Q259 419 245.5 411 Q232 403 222.5 390 Q213 377 211 358 L84 358 Q92 399 114 428 Q136 457 166.5 475.5 Q197 494 233.5 502.5 Q270 511 309 511 Q331 511 354 508 Q377 505 398.5 497.5 Q420 490 439 478 Q458 466 471 447 L498 468 Q559 511 637 511 Q737 511 788 454.5 Q839 398 839 299 Z M725 319 Q721 364 701.5 393 Q682 422 630 422 Q581 422 551.5 393 Q522 364 510 319 L725 319 Z M289 224 Q273 222 255 220.5 Q237 219 219.5 214.5 Q202 210 187 202.5 Q172 195 161 181 Q148 165 148 145 Q148 129 155.5 117 Q163 105 175 97 Q187 89 201.5 85.5 Q216 82 230 82 Q247 82 265 87.5 Q283 93 298 101 Q321 114 335 127.5 Q349 141 357.5 157 Q366 173 371 192 Q376 211 381 235 L289 224 Z " />
<glyph glyph-name="ccedilla" unicode="&#xe7;" horiz-adv-x="500" d="M406 321 Q402 360 383.5 386 Q365 412 321 412 Q282 412 253.5 393.5 Q225 375 206 345.5 Q187 316 177.5 280.5 Q168 245 168 211 Q168 187 173.5 165 Q179 143 191 126.5 Q203 110 222 100 Q241 90 268 90 Q318 90 345 118 Q372 146 391 187 L499 142 Q470 70 420 35.5 Q370 1 298 -12 L251 -74 L260 -74 Q274 -74 287.5 -78 Q301 -82 312 -89.5 Q323 -97 330 -109 Q337 -121 337 -136 Q337 -160 322.5 -177 Q308 -194 287 -204.5 Q266 -215 242 -220 Q218 -225 199 -225 Q176 -225 155 -220.5 Q134 -216 111 -211 L120 -171 Q133 -176 147 -179 Q161 -182 175 -182 Q182 -182 191.5 -180.5 Q201 -179 210 -175.5 Q219 -172 225 -165.5 Q231 -159 231 -150 Q231 -142 226 -137.5 Q221 -133 214 -130.5 Q207 -128 199.5 -127.5 Q192 -127 187 -127 Q178 -127 169 -128 Q160 -129 151 -130 L157 -102 L245 -13 Q148 -5 96.5 50.5 Q45 106 45 202 Q45 261 64 316.5 Q83 372 118 415 Q153 458 203 484.5 Q253 511 316 511 Q352 511 386 502 Q420 493 447.5 474 Q475 455 494 426.5 Q513 398 519 359 L406 321 Z " />
<glyph glyph-name="egrave" unicode="&#xe8;" horiz-adv-x="542" d="M320 570 L233 706 L382 706 L419 570 L320 570 Z M527 303 Q527 270 519 233 L172 233 Q169 215 169 198 Q169 147 199 116.5 Q229 86 280 86 Q325 86 356 110 Q387 134 407 171 L508 109 Q469 47 404.5 17 Q340 -13 268 -13 Q218 -13 177 2 Q136 17 107 45 Q78 73 62 113.5 Q46 154 46 205 Q46 265 64.5 320.5 Q83 376 117.5 418.5 Q152 461 203 486 Q254 511 318 511 Q415 511 471 455 Q527 399 527 303 Z M406 332 Q406 374 382.5 398.5 Q359 423 317 423 Q269 423 239 393 Q209 363 193 321 L406 321 L406 332 Z " />
<glyph glyph-name="eacute" unicode="&#xe9;" horiz-adv-x="542" d="M398 570 L292 570 L364 706 L529 706 L398 570 Z M527 303 Q527 270 519 233 L172 233 Q169 215 169 198 Q169 147 199 116.5 Q229 86 280 86 Q325 86 356 110 Q387 134 407 171 L508 109 Q469 47 404.5 17 Q340 -13 268 -13 Q218 -13 177 2 Q136 17 107 45 Q78 73 62 113.5 Q46 154 46 205 Q46 265 64.5 320.5 Q83 376 117.5 418.5 Q152 461 203 486 Q254 511 318 511 Q415 511 471 455 Q527 399 527 303 Z M406 332 Q406 374 382.5 398.5 Q359 423 317 423 Q269 423 239 393 Q209 363 193 321 L406 321 L406 332 Z " />
<glyph glyph-name="ecircumflex" unicode="&#xea;" horiz-adv-x="542" d="M415 571 L378 648 L312 571 L185 571 L323 706 L447 706 L518 571 L415 571 Z M527 303 Q527 270 519 233 L172 233 Q169 215 169 198 Q169 147 199 116.5 Q229 86 280 86 Q325 86 356 110 Q387 134 407 171 L508 109 Q469 47 404.5 17 Q340 -13 268 -13 Q218 -13 177 2 Q136 17 107 45 Q78 73 62 113.5 Q46 154 46 205 Q46 265 64.5 320.5 Q83 376 117.5 418.5 Q152 461 203 486 Q254 511 318 511 Q415 511 471 455 Q527 399 527 303 Z M406 332 Q406 374 382.5 398.5 Q359 423 317 423 Q269 423 239 393 Q209 363 193 321 L406 321 L406 332 Z " />
<glyph glyph-name="edieresis" unicode="&#xeb;" horiz-adv-x="542" d="M537 569 L410 569 L439 693 L565 693 L537 569 Z M304 569 L178 569 L207 693 L333 693 L304 569 Z M527 303 Q527 270 519 233 L172 233 Q169 215 169 198 Q169 147 199 116.5 Q229 86 280 86 Q325 86 356 110 Q387 134 407 171 L508 109 Q469 47 404.5 17 Q340 -13 268 -13 Q218 -13 177 2 Q136 17 107 45 Q78 73 62 113.5 Q46 154 46 205 Q46 265 64.5 320.5 Q83 376 117.5 418.5 Q152 461 203 486 Q254 511 318 511 Q415 511 471 455 Q527 399 527 303 Z M406 332 Q406 374 382.5 398.5 Q359 423 317 423 Q269 423 239 393 Q209 363 193 321 L406 321 L406 332 Z " />
<glyph glyph-name="igrave" unicode="&#xec;" horiz-adv-x="250" d="M174 570 L87 706 L236 706 L274 570 L174 570 Z M140 0 L19 0 L135 497 L255 497 L140 0 Z " />
<glyph glyph-name="iacute" unicode="&#xed;" horiz-adv-x="250" d="M252 570 L146 570 L218 706 L383 706 L252 570 Z M140 0 L19 0 L135 497 L255 497 L140 0 Z " />
<glyph glyph-name="icircumflex" unicode="&#xee;" horiz-adv-x="250" d="M270 571 L232 648 L166 571 L39 571 L177 706 L301 706 L373 571 L270 571 Z M140 0 L19 0 L135 497 L255 497 L140 0 Z " />
<glyph glyph-name="idieresis" unicode="&#xef;" horiz-adv-x="250" d="M391 569 L265 569 L293 693 L419 693 L391 569 Z M159 569 L32 569 L61 693 L187 693 L159 569 Z M140 0 L19 0 L135 497 L255 497 L140 0 Z " />
<glyph glyph-name="eth" unicode="&#xf0;" horiz-adv-x="562" d="M495 593 Q521 536 534 471.5 Q547 407 547 344 Q547 275 530 210.5 Q513 146 477.5 96.5 Q442 47 386.5 17 Q331 -13 254 -13 Q184 -13 132.5 18.5 Q81 50 58 116 Q43 157 43 200 Q43 257 63 313 Q83 369 119 413 Q155 457 206 484 Q257 511 318 511 Q351 511 379 500 Q407 489 428 462 Q422 490 414.5 518.5 Q407 547 393 573 L238 543 L220 599 L361 628 L316 688 L420 721 Q433 704 444.5 685.5 Q456 667 467 649 L551 666 L570 608 L495 593 Z M424 297 Q424 347 399.5 379 Q375 411 322 411 Q300 411 279 405 Q258 399 241 385 Q223 371 208.5 349.5 Q194 328 184.5 304 Q175 280 169.5 254.5 Q164 229 164 206 Q164 159 188.5 124.5 Q213 90 265 90 Q304 90 334 109.5 Q364 129 384 159 Q404 189 414 226 Q424 263 424 297 Z " />
<glyph glyph-name="ntilde" unicode="&#xf1;" horiz-adv-x="562" d="M571 706 Q565 681 553.5 658.5 Q542 636 525 618.5 Q508 601 485.5 590.5 Q463 580 435 580 Q418 580 402 585 Q386 590 370.5 596.5 Q355 603 339.5 608 Q324 613 307 613 Q291 613 280 603.5 Q269 594 264 580 L190 580 Q190 582 190.5 583 Q191 584 191 586 Q197 610 208 632 Q219 654 235.5 670.5 Q252 687 273.5 696.5 Q295 706 321 706 Q339 706 355.5 701 Q372 696 387.5 689.5 Q403 683 419 678 Q435 673 451 673 Q469 673 479.5 681.5 Q490 690 498 706 L571 706 Z M530 367 Q530 341 525.5 316 Q521 291 515 266 L454 0 L332 0 L389 247 Q394 268 398.5 290 Q403 312 403 334 Q403 366 387 384.5 Q371 403 339 403 Q318 403 300 395.5 Q282 388 265 376 Q246 362 234 342.5 Q222 323 213.5 300.5 Q205 278 199.5 255 Q194 232 189 210 L140 0 L19 0 L135 497 L248 497 L235 443 Q270 475 307.5 490.5 Q345 506 393 506 Q458 506 494 469.5 Q530 433 530 367 Z " />
<glyph glyph-name="ograve" unicode="&#xf2;" horiz-adv-x="562" d="M331 570 L243 706 L393 706 L430 570 L331 570 Z M544 303 Q544 283 541.5 263 Q539 243 534 223 Q522 170 498 126.5 Q474 83 438.5 52 Q403 21 357 4 Q311 -13 255 -13 Q185 -13 134 18.5 Q83 50 59 116 Q51 136 47 158 Q43 180 43 201 Q43 236 51.5 272.5 Q60 309 75.5 343.5 Q91 378 114 408 Q137 438 165 458 Q201 484 244.5 497.5 Q288 511 333 511 Q375 511 415 497 Q482 474 513 423 Q544 372 544 303 Z M424 301 Q424 349 398.5 380 Q373 411 322 411 Q283 411 253.5 392 Q224 373 204 343 Q184 313 174 276.5 Q164 240 164 206 Q164 159 188.5 124.5 Q213 90 265 90 Q306 90 335.5 110 Q365 130 385 160.5 Q405 191 414.5 228.5 Q424 266 424 301 Z " />
<glyph glyph-name="oacute" unicode="&#xf3;" horiz-adv-x="562" d="M409 570 L302 570 L374 706 L539 706 L409 570 Z M544 303 Q544 283 541.5 263 Q539 243 534 223 Q522 170 498 126.5 Q474 83 438.5 52 Q403 21 357 4 Q311 -13 255 -13 Q185 -13 134 18.5 Q83 50 59 116 Q51 136 47 158 Q43 180 43 201 Q43 236 51.5 272.5 Q60 309 75.5 343.5 Q91 378 114 408 Q137 438 165 458 Q201 484 244.5 497.5 Q288 511 333 511 Q375 511 415 497 Q482 474 513 423 Q544 372 544 303 Z M424 301 Q424 349 398.5 380 Q373 411 322 411 Q283 411 253.5 392 Q224 373 204 343 Q184 313 174 276.5 Q164 240 164 206 Q164 159 188.5 124.5 Q213 90 265 90 Q306 90 335.5 110 Q365 130 385 160.5 Q405 191 414.5 228.5 Q424 266 424 301 Z " />
<glyph glyph-name="ocircumflex" unicode="&#xf4;" horiz-adv-x="562" d="M426 571 L388 648 L322 571 L195 571 L333 706 L457 706 L529 571 L426 571 Z M544 303 Q544 283 541.5 263 Q539 243 534 223 Q522 170 498 126.5 Q474 83 438.5 52 Q403 21 357 4 Q311 -13 255 -13 Q185 -13 134 18.5 Q83 50 59 116 Q51 136 47 158 Q43 180 43 201 Q43 236 51.5 272.5 Q60 309 75.5 343.5 Q91 378 114 408 Q137 438 165 458 Q201 484 244.5 497.5 Q288 511 333 511 Q375 511 415 497 Q482 474 513 423 Q544 372 544 303 Z M424 301 Q424 349 398.5 380 Q373 411 322 411 Q283 411 253.5 392 Q224 373 204 343 Q184 313 174 276.5 Q164 240 164 206 Q164 159 188.5 124.5 Q213 90 265 90 Q306 90 335.5 110 Q365 130 385 160.5 Q405 191 414.5 228.5 Q424 266 424 301 Z " />
<glyph glyph-name="otilde" unicode="&#xf5;" horiz-adv-x="562" d="M571 706 Q565 681 553.5 658.5 Q542 636 525 618.5 Q508 601 485.5 590.5 Q463 580 435 580 Q418 580 402 585 Q386 590 370.5 596.5 Q355 603 339.5 608 Q324 613 307 613 Q291 613 280 603.5 Q269 594 264 580 L190 580 Q190 582 190.5 583 Q191 584 191 586 Q197 610 208 632 Q219 654 235.5 670.5 Q252 687 273.5 696.5 Q295 706 321 706 Q339 706 355.5 701 Q372 696 387.5 689.5 Q403 683 419 678 Q435 673 451 673 Q469 673 479.5 681.5 Q490 690 498 706 L571 706 Z M544 303 Q544 283 541.5 263 Q539 243 534 223 Q522 170 498 126.5 Q474 83 438.5 52 Q403 21 357 4 Q311 -13 255 -13 Q185 -13 134 18.5 Q83 50 59 116 Q51 136 47 158 Q43 180 43 201 Q43 236 51.5 272.5 Q60 309 75.5 343.5 Q91 378 114 408 Q137 438 165 458 Q201 484 244.5 497.5 Q288 511 333 511 Q375 511 415 497 Q482 474 513 423 Q544 372 544 303 Z M424 301 Q424 349 398.5 380 Q373 411 322 411 Q283 411 253.5 392 Q224 373 204 343 Q184 313 174 276.5 Q164 240 164 206 Q164 159 188.5 124.5 Q213 90 265 90 Q306 90 335.5 110 Q365 130 385 160.5 Q405 191 414.5 228.5 Q424 266 424 301 Z " />
<glyph glyph-name="odieresis" unicode="&#xf6;" horiz-adv-x="562" d="M539 567 L413 567 L441 691 L567 691 L539 567 Z M307 567 L180 567 L209 691 L335 691 L307 567 Z M544 303 Q544 283 541.5 263 Q539 243 534 223 Q522 170 498 126.5 Q474 83 438.5 52 Q403 21 357 4 Q311 -13 255 -13 Q185 -13 134 18.5 Q83 50 59 116 Q51 136 47 158 Q43 180 43 201 Q43 236 51.5 272.5 Q60 309 75.5 343.5 Q91 378 114 408 Q137 438 165 458 Q201 484 244.5 497.5 Q288 511 333 511 Q375 511 415 497 Q482 474 513 423 Q544 372 544 303 Z M424 301 Q424 349 398.5 380 Q373 411 322 411 Q283 411 253.5 392 Q224 373 204 343 Q184 313 174 276.5 Q164 240 164 206 Q164 159 188.5 124.5 Q213 90 265 90 Q306 90 335.5 110 Q365 130 385 160.5 Q405 191 414.5 228.5 Q424 266 424 301 Z " />
<glyph glyph-name="divide" unicode="&#xf7;" horiz-adv-x="724" d="M483 428 L353 428 L383 557 L512 557 L483 428 Z M659 257 L94 257 L120 368 L685 368 L659 257 Z M400 67 L270 67 L300 195 L429 195 L400 67 Z " />
<glyph glyph-name="oslash" unicode="&#xf8;" horiz-adv-x="562" d="M516 404 Q532 381 537 349 Q542 317 542 290 Q542 230 522 175 Q502 120 466 78.5 Q430 37 378.5 12 Q327 -13 264 -13 Q221 -13 180.5 -1 Q140 11 109 42 L56 -4 L21 36 L77 84 Q58 112 51 143.5 Q44 175 44 208 Q44 269 64.5 324 Q85 379 122 420.5 Q159 462 211.5 486.5 Q264 511 327 511 Q374 511 413.5 496.5 Q453 482 486 449 L534 491 L568 450 L516 404 Z M404 375 Q372 413 320 413 Q285 413 254 396 Q203 370 179.5 320.5 Q156 271 156 216 Q156 203 157.5 188.5 Q159 174 164 162 L404 375 Z M430 293 Q430 311 426 324 L190 114 Q202 97 221 90 Q240 83 260 83 Q294 83 326 99 Q382 127 406 180 Q430 233 430 293 Z " />
<glyph glyph-name="ugrave" unicode="&#xf9;" horiz-adv-x="562" d="M331 570 L243 706 L393 706 L430 570 L331 570 Z M452 0 L341 0 L353 54 Q324 25 287 8 Q250 -9 208 -9 Q178 -9 150.5 -1.5 Q123 6 102 22 Q81 38 68.5 62.5 Q56 87 56 120 Q56 151 62 181 Q68 211 75 240 L135 497 L255 497 L199 255 Q194 231 188 206 Q182 181 182 156 Q182 125 203 109.5 Q224 94 253 94 Q267 94 282 98.5 Q297 103 309 111 Q331 125 345.5 146 Q360 167 370.5 191.5 Q381 216 387.5 242 Q394 268 399 291 L447 497 L567 497 L452 0 Z " />
<glyph glyph-name="uacute" unicode="&#xfa;" horiz-adv-x="562" d="M409 570 L302 570 L374 706 L539 706 L409 570 Z M452 0 L341 0 L353 54 Q324 25 287 8 Q250 -9 208 -9 Q178 -9 150.5 -1.5 Q123 6 102 22 Q81 38 68.5 62.5 Q56 87 56 120 Q56 151 62 181 Q68 211 75 240 L135 497 L255 497 L199 255 Q194 231 188 206 Q182 181 182 156 Q182 125 203 109.5 Q224 94 253 94 Q267 94 282 98.5 Q297 103 309 111 Q331 125 345.5 146 Q360 167 370.5 191.5 Q381 216 387.5 242 Q394 268 399 291 L447 497 L567 497 L452 0 Z " />
<glyph glyph-name="ucircumflex" unicode="&#xfb;" horiz-adv-x="562" d="M426 571 L388 648 L322 571 L195 571 L333 706 L457 706 L529 571 L426 571 Z M452 0 L341 0 L353 54 Q324 25 287 8 Q250 -9 208 -9 Q178 -9 150.5 -1.5 Q123 6 102 22 Q81 38 68.5 62.5 Q56 87 56 120 Q56 151 62 181 Q68 211 75 240 L135 497 L255 497 L199 255 Q194 231 188 206 Q182 181 182 156 Q182 125 203 109.5 Q224 94 253 94 Q267 94 282 98.5 Q297 103 309 111 Q331 125 345.5 146 Q360 167 370.5 191.5 Q381 216 387.5 242 Q394 268 399 291 L447 497 L567 497 L452 0 Z " />
<glyph glyph-name="udieresis" unicode="&#xfc;" horiz-adv-x="562" d="M538 567 L412 567 L440 691 L567 691 L538 567 Z M306 567 L180 567 L208 691 L334 691 L306 567 Z M452 0 L341 0 L353 54 Q324 25 287 8 Q250 -9 208 -9 Q178 -9 150.5 -1.5 Q123 6 102 22 Q81 38 68.5 62.5 Q56 87 56 120 Q56 151 62 181 Q68 211 75 240 L135 497 L255 497 L199 255 Q194 231 188 206 Q182 181 182 156 Q182 125 203 109.5 Q224 94 253 94 Q267 94 282 98.5 Q297 103 309 111 Q331 125 345.5 146 Q360 167 370.5 191.5 Q381 216 387.5 242 Q394 268 399 291 L447 497 L567 497 L452 0 Z " />
<glyph glyph-name="yacute" unicode="&#xfd;" horiz-adv-x="458" d="M357 570 L250 570 L322 706 L487 706 L357 570 Z M233 -16 Q216 -48 199.5 -77.5 Q183 -107 161.5 -129.5 Q140 -152 111.5 -166 Q83 -180 42 -180 Q19 -180 -2 -176.5 Q-23 -173 -46 -171 L-21 -64 Q-9 -67 4 -68 Q17 -69 29 -69 Q58 -69 75 -55.5 Q92 -42 103 -16 L57 497 L179 497 L192 110 L389 497 L516 497 L233 -16 Z " />
<glyph glyph-name="thorn" unicode="&#xfe;" horiz-adv-x="583" d="M564 302 Q564 244 546.5 187.5 Q529 131 495 86.5 Q461 42 412 14.5 Q363 -13 300 -13 Q255 -13 216 2.5 Q177 18 154 60 L99 -180 L-21 -180 L184 706 L302 706 L241 443 Q266 477 302.5 494 Q339 511 381 511 Q427 511 461 494.5 Q495 478 518 449.5 Q541 421 552.5 383 Q564 345 564 302 Z M442 299 Q442 347 416.5 379 Q391 411 340 411 Q308 411 284.5 399 Q261 387 244 367.5 Q227 348 216 322.5 Q205 297 199 269 Q195 253 192.5 237.5 Q190 222 190 205 Q190 154 217 123 Q244 92 295 92 Q333 92 360.5 112.5 Q388 133 406 163.5 Q424 194 433 230.5 Q442 267 442 299 Z " />
<glyph glyph-name="ydieresis" unicode="&#xff;" horiz-adv-x="458" d="M495 569 L369 569 L397 693 L524 693 L495 569 Z M263 569 L136 569 L165 693 L291 693 L263 569 Z M233 -16 Q216 -48 199.5 -77.5 Q183 -107 161.5 -129.5 Q140 -152 111.5 -166 Q83 -180 42 -180 Q19 -180 -2 -176.5 Q-23 -173 -46 -171 L-21 -64 Q-9 -67 4 -68 Q17 -69 29 -69 Q58 -69 75 -55.5 Q92 -42 103 -16 L57 497 L179 497 L192 110 L389 497 L516 497 L233 -16 Z " />
<glyph glyph-name="dotlessi" unicode="&#x131;" horiz-adv-x="250" d="M140 0 L19 0 L135 497 L255 497 L140 0 Z " />
<glyph glyph-name="Lslash" unicode="&#x141;" horiz-adv-x="521" d="M460 0 L23 0 L86 272 L13 230 L40 348 L113 390 L186 706 L319 706 L266 477 L455 585 L428 467 L239 360 L183 117 L487 117 L460 0 Z " />
<glyph glyph-name="lslash" unicode="&#x142;" horiz-adv-x="250" d="M303 405 L223 360 L140 0 L19 0 L84 281 L11 239 L36 350 L109 392 L182 706 L303 706 L249 471 L328 516 L303 405 Z " />
<glyph glyph-name="OE" unicode="&#x152;" horiz-adv-x="1062" d="M1098 591 L784 591 L745 418 L1040 418 L1014 304 L718 304 L675 117 L1041 117 L1014 0 L524 0 L533 42 Q488 16 445.5 2 Q403 -12 349 -12 Q283 -12 232.5 8.5 Q182 29 147 66 Q112 103 94 155.5 Q76 208 76 272 Q76 323 86.5 374.5 Q97 426 117.5 474.5 Q138 523 168.5 566 Q199 609 239 641 Q267 664 301.5 683 Q336 702 371 710 Q395 716 419 718.5 Q443 721 468 721 Q526 721 571.5 706.5 Q617 692 663 655 L675 706 L1125 706 L1098 591 Z M628 445 Q628 524 588 569.5 Q548 615 468 615 Q406 615 358.5 583 Q311 551 278.5 502 Q246 453 229.5 394 Q213 335 213 281 Q213 200 254 150 Q295 100 379 100 Q442 100 488.5 134 Q535 168 566 219.5 Q597 271 612.5 331.5 Q628 392 628 445 Z " />
<glyph glyph-name="oe" unicode="&#x153;" horiz-adv-x="896" d="M882 291 Q882 277 881 263 Q880 249 878 235 L529 235 Q527 225 526 214.5 Q525 204 525 194 Q525 143 556 113.5 Q587 84 637 84 Q682 84 713.5 109 Q745 134 768 170 L863 119 Q821 53 760 20 Q699 -13 621 -13 Q566 -13 519.5 11 Q473 35 447 86 Q412 36 363.5 11.5 Q315 -13 255 -13 Q206 -13 167 2.5 Q128 18 101 46 Q74 74 59.5 113.5 Q45 153 45 201 Q45 248 57 293.5 Q69 339 93 378 Q117 417 152 447 Q187 477 233 494 Q253 502 276 506.5 Q299 511 321 511 Q375 511 417.5 487 Q460 463 488 417 Q560 511 678 511 Q782 511 832 452.5 Q882 394 882 291 Z M765 323 Q765 368 742 393 Q719 418 671 418 Q624 418 591 390 Q558 362 546 317 L765 317 L765 323 Z M419 296 Q419 342 394 376 Q369 410 319 410 Q280 410 250 391 Q220 372 200.5 342.5 Q181 313 171 277 Q161 241 161 206 Q161 156 186 122.5 Q211 89 264 89 Q299 89 324.5 103 Q350 117 368 139.5 Q386 162 397 191 Q408 220 414 250 Q419 275 419 296 Z " />
<glyph glyph-name="Scaron" unicode="&#x160;" horiz-adv-x="625" d="M511 752 L379 752 L308 874 L420 874 L451 809 L510 874 L638 874 L511 752 Z M530 513 Q514 561 474 583 Q434 605 386 605 Q368 605 346.5 601.5 Q325 598 306 589 Q287 580 274.5 564.5 Q262 549 262 526 Q262 495 280 479.5 Q298 464 323 453 Q357 439 392 428 Q427 417 461 403 Q490 391 515.5 374 Q541 357 560 335 Q579 313 589.5 285 Q600 257 600 223 Q600 166 574 122 Q548 78 507 48 Q466 18 414.5 3 Q363 -12 312 -12 Q263 -12 217.5 0 Q172 12 134.5 36.5 Q97 61 70.5 98.5 Q44 136 32 187 L157 234 Q162 201 177.5 177 Q193 153 215.5 137.5 Q238 122 267 114 Q296 106 327 106 Q350 106 373 111.5 Q396 117 415 129 Q434 141 446 160 Q458 179 458 206 Q458 220 454.5 230.5 Q451 241 443 252 Q431 270 402.5 282 Q374 294 338 306 Q302 318 264 332.5 Q226 347 194 369.5 Q162 392 141.5 425 Q121 458 121 508 Q121 540 131 566.5 Q141 593 159 619 Q178 645 204.5 664 Q231 683 261 695 Q291 707 323 712.5 Q355 718 386 718 L390 718 Q473 718 541.5 683.5 Q610 649 644 571 L530 513 Z " />
<glyph glyph-name="scaron" unicode="&#x161;" horiz-adv-x="500" d="M398 571 L274 571 L202 706 L305 706 L343 630 L409 706 L536 706 L398 571 Z M408 345 Q397 382 362.5 400 Q328 418 292 418 Q280 418 265.5 416 Q251 414 238 408 Q225 402 216.5 392 Q208 382 208 366 Q208 346 227 334.5 Q246 323 274 313.5 Q302 304 335.5 293.5 Q369 283 397 266 Q425 249 444 222 Q463 195 463 153 Q463 108 443.5 76.5 Q424 45 393.5 25 Q363 5 324.5 -4 Q286 -13 247 -13 Q190 -13 134 4 Q78 21 40 67 Q31 78 22.5 90 Q14 102 9 116 L112 179 Q117 156 130.5 138.5 Q144 121 163 109.5 Q182 98 204 92 Q226 86 248 86 Q262 86 278 88.5 Q294 91 308.5 97.5 Q323 104 332.5 115 Q342 126 342 144 Q342 156 336.5 164.5 Q331 173 322 181 Q316 186 302.5 191.5 Q289 197 273 202.5 Q257 208 242 212.5 Q227 217 219 220 Q195 228 171 238.5 Q147 249 128 264 Q109 279 97 300.5 Q85 322 85 352 Q85 393 103.5 423 Q122 453 152 472.5 Q182 492 218.5 501.5 Q255 511 291 511 Q355 511 412.5 485 Q470 459 502 401 L408 345 Z " />
<glyph glyph-name="Ydieresis" unicode="&#x178;" horiz-adv-x="604" d="M609 751 L483 751 L511 874 L638 874 L609 751 Z M377 751 L251 751 L279 874 L405 874 L377 751 Z M399 281 L334 0 L200 0 L265 281 L118 706 L255 706 L351 394 L573 706 L726 706 L399 281 Z " />
<glyph glyph-name="Zcaron" unicode="&#x17d;" horiz-adv-x="583" d="M490 752 L358 752 L287 874 L399 874 L430 809 L489 874 L618 874 L490 752 Z M651 600 L168 115 L565 115 L539 0 L-28 0 L-1 117 L474 593 L115 593 L141 706 L676 706 L651 600 Z " />
<glyph glyph-name="zcaron" unicode="&#x17e;" horiz-adv-x="479" d="M387 571 L264 571 L192 706 L295 706 L333 630 L399 706 L525 706 L387 571 Z M497 411 L182 102 L454 102 L430 0 L-9 0 L9 80 L329 399 L83 399 L105 497 L517 497 L497 411 Z " />
<glyph glyph-name="florin" unicode="&#x192;" horiz-adv-x="313" d="M401 585 L392 585 Q383 585 374.5 586 Q366 587 357 587 Q330 587 315 578.5 Q300 570 292 555 Q284 540 279.5 520.5 Q275 501 270 480 L376 480 L356 394 L251 394 L162 17 Q156 -6 150.5 -29.5 Q145 -53 136 -74.5 Q127 -96 112.5 -114.5 Q98 -133 75 -145 Q59 -153 38 -157.5 Q17 -162 0 -162 Q-18 -162 -37.5 -159.5 Q-57 -157 -75 -152 L-50 -45 Q-41 -49 -32.5 -50 Q-24 -51 -14 -51 Q3 -51 13.5 -41.5 Q24 -32 30.5 -18 Q37 -4 40.5 11.5 Q44 27 47 40 L129 394 L50 394 L70 480 L149 480 Q161 527 171 565.5 Q181 604 200 632.5 Q219 661 252 676.5 Q285 692 343 692 Q363 692 383.5 690 Q404 688 424 686 L401 585 Z " />
<glyph glyph-name="circumflex" unicode="&#x2c6;" horiz-adv-x="271" d="M197 571 L159 648 L93 571 L-34 571 L104 706 L228 706 L300 571 L197 571 Z " />
<glyph glyph-name="caron" unicode="&#x2c7;" horiz-adv-x="271" d="M200 571 L76 571 L4 706 L107 706 L145 630 L211 706 L338 706 L200 571 Z " />
<glyph glyph-name="breve" unicode="&#x2d8;" horiz-adv-x="271" d="M297 706 Q294 692 292 679.5 Q290 667 284 653 Q265 610 228 590 Q191 570 146 570 Q119 570 94 576.5 Q69 583 50.5 597.5 Q32 612 20.5 633.5 Q9 655 9 685 Q9 690 9.5 695.5 Q10 701 10 706 L105 706 Q102 696 102 686 Q102 668 114.5 656 Q127 644 145 644 Q171 644 185 662.5 Q199 681 199 706 L297 706 Z " />
<glyph glyph-name="dotaccent" unicode="&#x2d9;" horiz-adv-x="271" d="M202 570 L75 570 L104 693 L230 693 L202 570 Z " />
<glyph glyph-name="ring" unicode="&#x2da;" horiz-adv-x="271" d="M235 625 Q235 607 228 590 Q221 573 209 560 Q197 547 181 539.5 Q165 532 146 532 Q107 532 79.5 559 Q52 586 52 625 Q52 663 78.5 689 Q105 715 143 715 Q181 715 208 689 Q235 663 235 625 Z M187 625 Q187 643 174 655.5 Q161 668 143 668 Q125 668 112 655 Q99 642 99 624 Q99 606 112 593 Q125 580 143 580 Q162 580 174.5 593 Q187 606 187 625 Z " />
<glyph glyph-name="ogonek" unicode="&#x2db;" horiz-adv-x="271" d="M223 -208 Q213 -210 201.5 -210.5 Q190 -211 179 -211 Q159 -211 138 -207.5 Q117 -204 100 -195 Q83 -186 72 -170.5 Q61 -155 61 -130 Q61 -109 68.5 -90.5 Q76 -72 87.5 -55 Q99 -38 113 -23 Q127 -8 141 6 L238 6 Q230 -2 217 -14 Q204 -26 191.5 -40 Q179 -54 170 -68.5 Q161 -83 161 -95 Q161 -112 173.5 -116.5 Q186 -121 200 -121 Q211 -121 221.5 -119.5 Q232 -118 243 -119 L223 -208 Z " />
<glyph glyph-name="tilde" unicode="&#x2dc;" horiz-adv-x="271" d="M342 706 Q336 681 324 658.5 Q312 636 295 618.5 Q278 601 256 590.5 Q234 580 206 580 Q189 580 173 585 Q157 590 141.5 596.5 Q126 603 110.5 608 Q95 613 78 613 Q62 613 51 603.5 Q40 594 35 580 L-39 580 Q-39 582 -38.5 583 Q-38 584 -38 586 Q-26 635 6.5 670.5 Q39 706 92 706 Q110 706 127 701 Q144 696 159.5 689.5 Q175 683 190.5 678 Q206 673 222 673 Q255 673 268 706 L342 706 Z " />
<glyph glyph-name="hungarumlaut" unicode="&#x2dd;" horiz-adv-x="271" d="M283 570 L176 570 L248 706 L413 706 L283 570 Z M93 570 L-14 570 L58 706 L223 706 L93 570 Z " />
<glyph glyph-name="Mu" unicode="&#x39c;" horiz-adv-x="562" d="M452 0 L341 0 L353 54 Q346 45 334.5 34.5 Q323 24 307.5 14 Q292 4 273.5 -2.5 Q255 -9 234 -9 Q233 -9 223.5 -9 Q214 -9 200.5 -5.5 Q187 -2 173 6.5 Q159 15 149 31 L99 -180 L-21 -180 L135 497 L255 497 L198 250 Q198 250 196 240.5 Q194 231 191.5 217.5 Q189 204 187 189 Q185 174 185 162 Q186 139 194.5 125.5 Q203 112 214.5 105 Q226 98 238 96 Q250 94 257 94 Q297 94 322.5 117 Q348 140 363.5 171.5 Q379 203 386.5 236.5 Q394 270 399 291 L447 497 L567 497 L452 0 Z " />
<glyph glyph-name="pi" unicode="&#x3c0;" horiz-adv-x="648" d="M635 399 L580 399 L525 166 Q521 149 520 141.5 Q519 134 519 129 Q519 110 533 103 Q538 99 547 99 Q550 98 568 98 L579 97 L557 0 Q543 -1 531 -1 Q519 -1 509 -1 Q446 -1 418.5 18 Q391 37 391 81 Q391 106 400 142 L461 399 L290 399 L196 0 L75 0 L169 399 L115 399 L137 497 L657 497 L635 399 Z " />
<glyph glyph-name="endash" unicode="&#x2013;" horiz-adv-x="610" d="M583 247 L55 247 L81 360 L609 360 L583 247 Z " />
<glyph glyph-name="emdash" unicode="&#x2014;" horiz-adv-x="893" d="M866 248 L55 248 L81 361 L892 361 L866 248 Z " />
<glyph glyph-name="quoteleft" unicode="&#x2018;" horiz-adv-x="250" d="M288 642 Q280 640 273 639.5 Q266 639 259 635 Q240 624 234.5 603.5 Q229 583 224 564 L278 564 L247 429 L114 429 L145 564 Q149 580 155 604.5 Q161 629 169 643 Q204 706 276 706 Q283 706 289 706 Q295 706 302 705 L288 642 Z " />
<glyph glyph-name="quoteright" unicode="&#x2019;" horiz-adv-x="250" d="M277 571 Q273 554 267 530 Q261 506 252 491 Q215 429 144 429 Q138 429 132 429 Q126 429 120 430 L135 493 Q152 493 163 500 Q174 507 181 518.5 Q188 530 192 544 Q196 558 199 571 L145 571 L176 706 L308 706 L277 571 Z " />
<glyph glyph-name="quotesinglbase" unicode="&#x201a;" horiz-adv-x="250" d="M145 0 Q141 -14 135 -39 Q129 -64 122 -77 Q87 -142 12 -142 Q6 -142 0 -142 Q-6 -142 -12 -141 L3 -78 Q21 -78 32 -71 Q43 -64 49.5 -53 Q56 -42 60 -28 Q64 -14 67 0 L13 0 L44 135 L177 135 L145 0 Z " />
<glyph glyph-name="quotedblleft" unicode="&#x201c;" horiz-adv-x="437" d="M472 642 Q464 640 457 639.5 Q450 639 443 635 Q423 624 418 603.5 Q413 583 407 564 L462 564 L430 429 L298 429 L329 564 Q333 580 339 604.5 Q345 629 353 643 Q370 673 397 689.5 Q424 706 459 706 Q466 706 472.5 706 Q479 706 486 705 L472 642 Z M285 642 Q253 640 239.5 616.5 Q226 593 221 564 L275 564 L244 429 L111 429 L142 564 Q146 581 152 604.5 Q158 628 166 643 Q201 706 273 706 Q280 706 286.5 706 Q293 706 300 705 L285 642 Z " />
<glyph glyph-name="quotedblright" unicode="&#x201d;" horiz-adv-x="437" d="M464 571 Q460 554 454 530 Q448 506 439 491 Q404 429 331 429 Q325 429 319 429 Q313 429 307 430 L321 493 Q339 493 350 500 Q361 507 367.5 518 Q374 529 378 543 Q382 557 385 571 L331 571 L362 706 L495 706 L464 571 Z M277 571 Q273 554 267 530.5 Q261 507 253 492 Q218 429 147 429 Q140 429 133.5 429 Q127 429 120 430 L135 493 Q151 493 162.5 500 Q174 507 181.5 518.5 Q189 530 193 544 Q197 558 199 571 L145 571 L176 706 L308 706 L277 571 Z " />
<glyph glyph-name="quotedblbase" unicode="&#x201e;" horiz-adv-x="437" d="M332 0 Q328 -16 322 -40.5 Q316 -65 308 -79 Q273 -142 199 -142 Q193 -142 187 -142 Q181 -142 175 -141 L190 -78 Q208 -78 219 -71 Q230 -64 236.5 -53 Q243 -42 247 -28 Q251 -14 254 0 L200 0 L231 135 L364 135 L332 0 Z M146 0 Q142 -17 136 -41 Q130 -65 121 -80 Q86 -142 13 -142 Q7 -142 1 -142 Q-5 -142 -11 -141 L3 -78 Q21 -78 32 -71 Q43 -64 49.5 -53 Q56 -42 60 -28 Q64 -14 67 0 L13 0 L44 135 L177 135 L146 0 Z " />
<glyph glyph-name="dagger" unicode="&#x2020;" horiz-adv-x="458" d="M484 368 L328 368 L233 -44 L112 -44 L207 368 L49 368 L75 480 L233 480 L285 706 L406 706 L353 480 L509 480 L484 368 Z " />
<glyph glyph-name="daggerdbl" unicode="&#x2021;" horiz-adv-x="479" d="M509 431 L354 431 L308 235 L464 235 L440 130 L284 130 L244 -43 L122 -43 L162 130 L6 130 L30 235 L186 235 L231 431 L75 431 L99 535 L255 535 L295 706 L417 706 L378 535 L534 535 L509 431 Z " />
<glyph glyph-name="bullet" unicode="&#x2022;" horiz-adv-x="333" d="M301 241 L73 241 L125 466 L352 466 L301 241 Z " />
<glyph glyph-name="ellipsis" unicode="&#x2026;" horiz-adv-x="1000" d="M847 0 L735 0 L761 111 L873 111 L847 0 Z M514 0 L402 0 L427 111 L540 111 L514 0 Z M180 0 L68 0 L93 111 L206 111 L180 0 Z " />
<glyph glyph-name="perthousand" unicode="&#x2030;" horiz-adv-x="1250" d="M1236 283 Q1236 234 1224 186 Q1216 151 1202.5 116 Q1189 81 1168 53.5 Q1147 26 1117 8.5 Q1087 -9 1045 -9 Q971 -9 934.5 35.5 Q898 80 898 152 Q898 197 908.5 249 Q919 301 942 346 Q965 391 1003 420.5 Q1041 450 1096 450 Q1134 450 1160.5 436.5 Q1187 423 1203.5 400.5 Q1220 378 1228 347.5 Q1236 317 1236 283 Z M862 283 Q862 258 858 234 Q854 210 849 186 Q841 151 827.5 116 Q814 81 793 53.5 Q772 26 741.5 8.5 Q711 -9 670 -9 Q596 -9 559.5 35.5 Q523 80 523 152 Q523 197 533.5 249 Q544 301 567 346 Q590 391 628 420.5 Q666 450 721 450 Q759 450 785.5 437 Q812 424 829 401 Q846 378 854 348 Q862 318 862 283 Z M263 -12 L213 23 L678 692 L728 658 L263 -12 Z M416 522 Q416 472 404 424 Q396 389 382.5 354 Q369 319 348 291.5 Q327 264 297 247 Q267 230 225 230 Q150 230 114 274.5 Q78 319 78 391 Q78 436 88 488.5 Q98 541 121.5 585 Q145 629 183 658.5 Q221 688 276 688 Q314 688 340.5 675 Q367 662 383.5 639.5 Q400 617 408 587 Q416 557 416 522 Z M1151 296 Q1151 325 1139 350 Q1127 375 1093 375 Q1063 375 1042 348.5 Q1021 322 1008.5 285 Q996 248 990 210 Q984 172 984 149 Q984 134 986 119.5 Q988 105 994.5 93 Q1001 81 1012.5 74 Q1024 67 1042 67 Q1066 67 1082 81.5 Q1098 96 1109.5 117 Q1121 138 1127.5 161.5 Q1134 185 1138 203 Q1143 226 1147 249 Q1151 272 1151 296 Z M776 296 Q776 325 764 350 Q752 375 718 375 Q688 375 667 348.5 Q646 322 633.5 285 Q621 248 615 210 Q609 172 609 149 Q609 134 611 119.5 Q613 105 619.5 93 Q626 81 637.5 74 Q649 67 667 67 Q698 67 719 94 Q740 121 752.5 158 Q765 195 770.5 234 Q776 273 776 296 Z M331 534 Q331 548 328.5 562.5 Q326 577 319 588.5 Q312 600 301 607 Q290 614 273 614 Q243 614 222 587 Q201 560 188.5 523.5 Q176 487 170 448.5 Q164 410 164 387 Q164 372 166.5 357.5 Q169 343 175 331.5 Q181 320 192.5 313 Q204 306 222 306 Q246 306 262.5 320.5 Q279 335 290.5 356 Q302 377 308.5 400.5 Q315 424 319 442 Q324 465 327.5 488 Q331 511 331 534 Z " />
<glyph glyph-name="guilsinglleft" unicode="&#x2039;" horiz-adv-x="229" d="M228 340 L132 290 L203 233 L175 112 L40 239 L67 356 L260 480 L228 340 Z " />
<glyph glyph-name="guilsinglright" unicode="&#x203a;" horiz-adv-x="229" d="M203 236 L10 112 L42 252 L138 302 L67 359 L95 480 L230 352 L203 236 Z " />
<glyph glyph-name="fraction" unicode="&#x2044;" horiz-adv-x="125" d="M-114 -10 L-152 14 L325 717 L362 693 L-114 -10 Z " />
<glyph glyph-name="Euro" unicode="&#x20ac;" horiz-adv-x="725" d="M685 484 Q647 535 603.5 559.5 Q560 584 497 584 Q420 584 370.5 546 Q321 508 292 439 L661 439 L619 366 L268 366 Q266 356 265 347 Q264 338 263 328 L596 328 L555 255 L261 255 Q272 170 323 131.5 Q374 93 457 93 Q514 93 567 115 Q620 137 662 175 L627 28 Q579 4 533 -5.5 Q487 -15 433 -15 Q366 -15 309.5 0.5 Q253 16 212.5 48.5 Q172 81 148.5 132 Q125 183 123 255 L25 255 L69 328 L126 328 Q127 338 128.5 347 Q130 356 132 366 L48 366 L91 439 L150 439 Q200 566 284 629 Q368 692 506 692 Q545 692 578 687 Q611 682 640 670 Q669 658 695.5 638.5 Q722 619 748 590 L685 484 Z " />
<glyph glyph-name="trademark" unicode="&#x2122;" horiz-adv-x="687" d="M661 374 L595 374 L657 637 L526 374 L468 374 L462 641 L404 374 L337 374 L414 706 L518 706 L521 473 L632 706 L737 706 L661 374 Z M359 648 L271 648 L208 374 L136 374 L199 648 L104 648 L118 706 L372 706 L359 648 Z " />
<glyph glyph-name="Omega" unicode="&#x2126;" horiz-adv-x="756" d="M753 457 Q753 399 736 344.5 Q719 290 688.5 243.5 Q658 197 615.5 161 Q573 125 521 105 L695 105 L670 0 L384 0 L409 108 Q419 111 426.5 113.5 Q434 116 439 118 Q472 131 502 157.5 Q532 184 556 221 Q586 269 603 325 Q620 381 620 432 Q620 517 576 564.5 Q532 612 454 612 Q403 612 360 589 Q317 566 286 525 Q255 484 237.5 426.5 Q220 369 220 301 Q220 257 228 224 Q236 191 254 162 Q265 144 278.5 132.5 Q292 121 318 107 L294 0 L8 0 L32 105 L207 105 Q150 140 120.5 199 Q91 258 91 336 Q91 402 110.5 465.5 Q130 529 166 580 Q269 724 459 724 Q527 724 581 705 Q635 686 673.5 651.5 Q712 617 732.5 567.5 Q753 518 753 457 Z " />
<glyph glyph-name="partialdiff" unicode="&#x2202;" horiz-adv-x="538" d="M528 486 Q528 443 522.5 394.5 Q517 346 507.5 298.5 Q498 251 484.5 209 Q471 167 455 135 Q381 -12 233 -12 Q144 -12 92 38.5 Q40 89 40 174 Q40 230 57.5 277.5 Q75 325 105.5 360 Q136 395 177.5 415 Q219 435 267 435 Q305 435 334 423 Q363 411 392 384 Q396 407 398.5 435.5 Q401 464 401 483 Q401 615 294 615 Q277 615 261 613 Q245 611 213 603 L213 702 Q266 717 332 717 Q429 717 478.5 659 Q528 601 528 486 Z M371 283 Q351 308 325.5 321.5 Q300 335 273 335 Q249 335 229 323.5 Q209 312 194.5 291.5 Q180 271 171.5 243 Q163 215 163 182 Q163 137 184.5 111.5 Q206 86 243 86 Q293 86 323 133 Q333 148 340.5 166 Q348 184 356 212 Q362 235 365 247.5 Q368 260 371 283 Z " />
<glyph glyph-name="Delta" unicode="&#x2206;" horiz-adv-x="696" d="M-45 0 L378 706 L532 706 L655 0 L-45 0 Z M420 560 L177 109 L495 109 L420 560 Z " />
<glyph glyph-name="product" unicode="&#x220f;" horiz-adv-x="748" d="M595 -122 L463 -122 L628 590 L291 590 L126 -122 L-4 -122 L187 706 L786 706 L595 -122 Z " />
<glyph glyph-name="summation" unicode="&#x2211;" horiz-adv-x="605" d="M670 591 L274 591 L462 296 L148 -9 L532 -9 L506 -122 L-47 -122 L-23 -16 L304 306 L119 598 L144 706 L698 706 L670 591 Z " />
<glyph glyph-name="minus" unicode="&#x2212;" horiz-adv-x="724" d="M660 257 L95 257 L120 369 L686 369 L660 257 Z " />
<glyph glyph-name="radical" unicode="&#x221a;" horiz-adv-x="724" d="M315 -185 L190 -185 L127 88 L49 63 L21 160 L222 233 L275 -20 L629 706 L769 706 L315 -185 Z " />
<glyph glyph-name="infinity" unicode="&#x221e;" horiz-adv-x="724" d="M723 357 Q723 306 707.5 261.5 Q692 217 665 183.5 Q638 150 601.5 131 Q565 112 524 112 Q498 112 477.5 117.5 Q457 123 439 136 Q421 149 405 170 Q389 191 372 222 Q321 162 278.5 136 Q236 110 188 110 Q126 110 90.5 152 Q55 194 55 268 Q55 318 71 362.5 Q87 407 114 440 Q141 473 177.5 492.5 Q214 512 255 512 Q290 512 316 499 Q338 488 354 472 Q369 457 378.5 442.5 Q388 428 403 398 Q416 412 424.5 421.5 Q433 431 440.5 438.5 Q448 446 454.5 451.5 Q461 457 469 464 Q496 487 528 499.5 Q560 512 589 512 Q649 512 686 469.5 Q723 427 723 357 Z M620 334 Q620 365 608 382.5 Q596 400 573 400 Q552 400 526 381 Q520 376 514.5 371.5 Q509 367 502.5 361 Q496 355 487.5 346 Q479 337 466 323 L452 309 Q478 256 496 236 Q514 216 538 216 Q555 216 570 225.5 Q585 235 596 251 Q607 267 613.5 288.5 Q620 310 620 334 Z M325 311 Q304 360 284 381.5 Q264 403 241 403 Q224 403 209 393.5 Q194 384 182.5 368 Q171 352 164.5 330.5 Q158 309 158 285 Q158 254 171 236 Q184 218 207 218 Q230 218 253 237 Q260 242 266 248 Q272 254 279 260 Q294 274 302.5 284 Q311 294 325 311 Z " />
<glyph glyph-name="integral" unicode="&#x222b;" horiz-adv-x="361" d="M424 592 Q410 603 400.5 607 Q391 611 380 611 Q363 611 352 603 Q343 596 339 587 Q334 578 332 569.5 Q330 561 323 536 L315 506 L209 30 Q202 -5 197.5 -20.5 Q193 -36 187 -55 Q179 -78 172.5 -92 Q166 -106 155 -119 Q107 -176 19 -176 Q-1 -176 -17 -173 Q-33 -170 -53 -162 L-27 -54 Q-13 -65 -4 -69 Q5 -73 16 -73 Q39 -73 51 -56.5 Q63 -40 73 3 L82 41 L187 517 Q201 579 212.5 610 Q224 641 240 660 Q263 688 298 702.5 Q333 717 376 717 Q396 717 413 714 Q430 711 451 703 L424 592 Z " />
<glyph glyph-name="approxequal" unicode="&#x2248;" horiz-adv-x="724" d="M706 414 Q676 388 658 374.5 Q640 361 617 349 Q565 321 520 321 Q496 321 470.5 329 Q445 337 406 357 L374 373 Q344 388 322 395 Q300 402 279 402 Q260 402 243 396 Q224 390 208 378.5 Q192 367 160 338 L148 327 L109 423 Q134 447 146.5 458 Q159 469 177 481 Q230 517 290 517 Q310 517 330 512 Q341 509 359.5 501.5 Q378 494 398 485 L454 458 Q486 443 499 438.5 Q512 434 527 434 Q544 434 562 440 Q580 446 598 456 Q614 465 627.5 475 Q641 485 667 508 L706 414 Z M658 199 Q628 173 610 160 Q592 147 569 134 Q517 106 472 106 Q448 106 423.5 113.5 Q399 121 358 142 L327 158 Q296 174 274 180.5 Q252 187 231 187 Q222 187 213 186 Q204 185 196 182 Q177 176 160.5 164 Q144 152 112 123 L100 112 L61 208 Q87 232 99.5 243 Q112 254 129 266 Q182 302 242 302 Q262 302 282 297 Q293 294 312.5 286.5 Q332 279 350 270 L406 243 Q438 228 451.5 224 Q465 220 480 220 Q496 220 515 225.5 Q534 231 551 241 Q566 250 579.5 260.5 Q593 271 619 294 L658 199 Z " />
<glyph glyph-name="notequal" unicode="&#x2260;" horiz-adv-x="724" d="M664 351 L478 351 L409 254 L642 254 L617 149 L333 149 L222 -6 L117 -6 L228 149 L91 149 L116 254 L305 254 L374 351 L138 351 L163 457 L451 457 L556 602 L661 602 L556 457 L689 457 L664 351 Z " />
<glyph glyph-name="lessequal" unicode="&#x2264;" horiz-adv-x="724" d="M688 556 L308 411 L622 264 L593 141 L178 358 L207 482 L719 689 L688 556 Z M560 0 L96 0 L121 106 L585 106 L560 0 Z " />
<glyph glyph-name="greaterequal" unicode="&#x2265;" horiz-adv-x="724" d="M619 346 L107 140 L139 273 L520 418 L205 566 L234 689 L647 471 L619 346 Z M540 0 L75 0 L99 106 L564 106 L540 0 Z " />
<glyph glyph-name="lozenge" unicode="&#x25ca;" horiz-adv-x="724" d="M373 0 L249 0 L148 353 L413 706 L537 706 L638 353 L373 0 Z M454 598 L272 351 L332 108 L516 357 L454 598 Z " />
<glyph glyph-name="fi" unicode="&#xfb01;" horiz-adv-x="562" d="M587 585 L467 585 L495 706 L615 706 L587 585 Z M452 0 L332 0 L447 497 L567 497 L452 0 Z M404 603 Q394 603 384 603.5 Q374 604 364 604 Q335 604 319 596 Q303 588 295 574 Q287 560 283 540.5 Q279 521 273 497 L379 497 L360 411 L254 411 L159 0 L37 0 L133 411 L53 411 L73 497 L152 497 Q164 544 173.5 583 Q183 622 201.5 650 Q220 678 253.5 693.5 Q287 709 346 709 Q386 709 426 703 L404 603 Z " />
<glyph glyph-name="fl" unicode="&#xfb02;" horiz-adv-x="562" d="M453 0 L332 0 L495 706 L616 706 L453 0 Z M404 603 Q394 603 384 603.5 Q374 604 364 604 Q335 604 319 596 Q303 588 295 574 Q287 560 283 540.5 Q279 521 273 497 L379 497 L360 411 L254 411 L159 0 L37 0 L133 411 L53 411 L73 497 L152 497 Q164 544 173.5 583 Q183 622 201.5 650 Q220 678 253.5 693.5 Q287 709 346 709 Q386 709 426 703 L404 603 Z " />
</font>
</svg>
