<?xml version="1.0" encoding="UTF-8"?>
<svg xmlns="http://www.w3.org/2000/svg" xmlns:xlink="http://www.w3.org/1999/xlink" version="1.2" >
<font id="NissanAG-ExtraBold">
<font-face  font-family="NissanAG" units-per-em="1000" ascent="750" descent="-250" font-style="normal" font-weight="800" font-stretch="normal" cap-height="750" x-height="500" underline-position="-75" underline-thickness="50" />
<missing-glyph  horiz-adv-x="1000" d="" />
<glyph glyph-name="null" d="" />
<glyph glyph-name="nonmarkingreturn" unicode="&#xd;" horiz-adv-x="250" d="" />
<glyph glyph-name="space" unicode="&#x20;" horiz-adv-x="271" d="" />
<glyph glyph-name="exclam" unicode="&#x21;" horiz-adv-x="292" d="M253 532 Q253 502 250 481 Q247 460 244 430 L226 227 L103 227 L86 430 Q84 460 80.5 481 Q77 502 77 532 L77 706 L253 706 L253 532 Z M77 0 L77 153 L253 153 L253 0 L77 0 Z " />
<glyph glyph-name="quotedbl" unicode="&#x22;" horiz-adv-x="323" d="M266 453 L226 453 L177 741 L315 741 L266 453 Z M96 453 L56 453 L7 741 L145 741 L96 453 Z " />
<glyph glyph-name="numbersign" unicode="&#x23;" horiz-adv-x="583" d="M471 406 L463 310 L565 310 L565 186 L452 186 L436 0 L310 0 L327 186 L228 186 L211 0 L88 0 L103 186 L7 186 L7 310 L114 310 L122 406 L19 406 L19 530 L132 530 L148 706 L272 706 L257 530 L356 530 L371 706 L495 706 L481 530 L576 530 L576 406 L471 406 Z M247 406 L238 310 L337 310 L345 406 L247 406 Z " />
<glyph glyph-name="dollar" unicode="&#x24;" horiz-adv-x="521" d="M504 179 Q504 133 491 100 Q478 67 454 45 Q430 23 395 10.5 Q360 -2 316 -8 L316 -153 L208 -153 L208 -8 Q178 -4 149.5 2 Q121 8 96.5 20 Q72 32 53 52 Q34 72 23 104 Q13 132 12.5 165.5 Q12 199 12 228 L210 228 L210 174 Q210 151 220.5 137 Q231 123 257 123 Q286 123 295 140 Q304 157 304 181 Q304 199 298.5 211.5 Q293 224 283.5 233.5 Q274 243 262 251 Q250 259 237 269 Q217 284 189.5 302 Q162 320 134.5 340 Q107 360 84 382 Q61 404 49 426 Q37 449 34 473 Q31 497 31 522 Q31 569 42 602.5 Q53 636 75 658.5 Q97 681 130.5 694 Q164 707 208 714 L208 836 L316 836 L316 714 Q342 711 367 704 Q392 697 414.5 684 Q437 671 454.5 653 Q472 635 482 609 Q493 580 494 547 Q495 514 495 483 L309 483 Q309 498 310 515 Q311 532 308 546.5 Q305 561 295 571 Q285 581 263 581 Q243 581 231 569 Q219 557 219 537 Q219 522 226 510.5 Q233 499 243.5 489.5 Q254 480 266.5 472.5 Q279 465 289 457 Q310 442 340 421.5 Q370 401 399.5 377.5 Q429 354 454 330 Q479 306 489 283 Q499 263 501.5 241.5 Q504 220 504 197 L504 179 Z " />
<glyph glyph-name="percent" unicode="&#x25;" horiz-adv-x="833" d="M805 116 Q805 99 803.5 82 Q802 65 794 51 Q784 33 767.5 21.5 Q751 10 731 3.5 Q711 -3 690 -5 Q669 -7 650 -7 Q629 -7 606.5 -4.5 Q584 -2 564 5.5 Q544 13 529 27 Q514 41 506 65 Q501 81 500.5 102 Q500 123 500 140 L500 327 Q500 343 501 359 Q502 375 510 389 Q520 408 536.5 420 Q553 432 572.5 438.5 Q592 445 613 447 Q634 449 653 449 Q685 449 713 444 Q741 439 761.5 425.5 Q782 412 793.5 388.5 Q805 365 805 329 L805 116 Z M352 0 L265 0 L479 706 L566 706 L352 0 Z M331 390 Q331 373 329.5 354.5 Q328 336 320 321 Q310 303 293.5 291.5 Q277 280 257 273.5 Q237 267 216 264.5 Q195 262 176 262 Q155 262 132.5 264.5 Q110 267 90 274.5 Q70 282 55 296.5 Q40 311 32 334 Q27 350 26.5 371 Q26 392 26 409 L26 596 Q26 612 27 628 Q28 644 36 658 Q46 678 62.5 689.5 Q79 701 98.5 707.5 Q118 714 139.5 716 Q161 718 180 718 Q212 718 239.5 713 Q267 708 287.5 694.5 Q308 681 319.5 658 Q331 635 331 599 L331 390 Z M687 341 Q687 375 653 375 Q620 375 620 342 L620 98 Q620 67 654 67 Q687 67 687 101 L687 341 Z M212 611 Q212 644 178 644 Q145 644 145 609 L145 370 Q145 336 180 336 Q197 336 204.5 345.5 Q212 355 212 371 L212 611 Z " />
<glyph glyph-name="ampersand" unicode="&#x26;" horiz-adv-x="604" d="M466 0 Q442 0 424 2.5 Q406 5 385 16 Q353 0 323 -5 Q293 -10 258 -10 Q229 -10 198.5 -7 Q168 -4 139.5 5 Q111 14 86 30 Q61 46 43 72 Q27 95 19.5 121 Q12 147 12 174 Q12 214 26 246 Q40 278 63 303.5 Q86 329 115.5 350.5 Q145 372 175 391 Q165 409 153.5 428 Q142 447 132 466.5 Q122 486 115.5 506.5 Q109 527 109 548 Q109 587 124.5 615.5 Q140 644 166 663.5 Q192 683 225 692.5 Q258 702 293 702 Q331 702 367.5 693.5 Q404 685 433 666.5 Q462 648 480 618 Q498 588 498 545 Q498 514 486.5 488 Q475 462 457 439.5 Q439 417 416.5 398.5 Q394 380 371 363 L422 276 Q427 296 429.5 315.5 Q432 335 434 355 L572 355 Q569 288 555.5 234.5 Q542 181 508 123 Q516 112 525 106 Q534 100 548 100 L599 100 L599 0 L466 0 Z M365 551 Q365 571 351.5 583.5 Q338 596 318 596 Q297 596 284.5 584.5 Q272 573 272 552 Q272 531 283 511.5 Q294 492 308 477 Q327 490 346 508 Q365 526 365 551 Z M246 264 Q225 251 207.5 233.5 Q190 216 190 189 Q190 175 196 161.5 Q202 148 211.5 137 Q221 126 234 119.5 Q247 113 261 113 Q278 113 291.5 119 Q305 125 319 134 L246 264 Z " />
<glyph glyph-name="quotesingle" unicode="&#x27;" horiz-adv-x="153" d="M96 453 L56 453 L7 741 L145 741 L96 453 Z " />
<glyph glyph-name="parenleft" unicode="&#x28;" horiz-adv-x="333" d="M257 -201 Q209 -201 170 -191 Q131 -181 103.5 -158.5 Q76 -136 61.5 -100 Q47 -64 47 -13 L47 494 Q47 515 48 537.5 Q49 560 55 580 Q67 620 91 645 Q115 670 146.5 683.5 Q178 697 215 702 Q252 707 288 707 L328 707 L328 639 Q294 639 273 634 Q252 629 240.5 616 Q229 603 225 582 Q221 561 221 528 L221 -15 Q221 -30 221.5 -46 Q222 -62 225 -77 Q228 -92 235 -105 Q242 -118 255 -127 Q271 -138 290.5 -138.5 Q310 -139 328 -139 L328 -201 L257 -201 Z " />
<glyph glyph-name="parenright" unicode="&#x29;" horiz-adv-x="333" d="M286 12 Q286 -9 285 -32 Q284 -55 278 -75 Q266 -115 242 -139.5 Q218 -164 186.5 -177.5 Q155 -191 118 -196 Q81 -201 45 -201 L5 -201 L5 -133 Q39 -133 60 -128 Q81 -123 92.5 -110 Q104 -97 108 -76 Q112 -55 112 -22 L112 521 Q112 554 109 577.5 Q106 601 95 616 Q84 631 62.5 638 Q41 645 5 645 L5 706 L76 706 Q93 706 109 705.5 Q125 705 141 702 Q219 688 252.5 640 Q286 592 286 517 L286 12 Z " />
<glyph glyph-name="asterisk" unicode="&#x2a;" horiz-adv-x="437" d="M323 482 L384 404 L287 327 L219 413 L155 326 L54 400 L113 480 L13 509 L48 628 L153 598 L152 705 L277 705 L277 598 L383 634 L423 516 L323 482 Z " />
<glyph glyph-name="plus" unicode="&#x2b;" horiz-adv-x="558" d="M372 227 L372 91 L188 91 L188 227 L80 227 L80 374 L188 374 L188 511 L372 511 L372 374 L478 374 L478 227 L372 227 Z " />
<glyph glyph-name="comma" unicode="&#x2c;" horiz-adv-x="250" d="M120 -152 L55 -152 L108 0 L38 0 L38 164 L210 164 L210 0 L120 -152 Z " />
<glyph glyph-name="hyphen" unicode="&#x2d;" horiz-adv-x="361" d="M29 232 L29 369 L331 369 L331 232 L29 232 Z " />
<glyph glyph-name="period" unicode="&#x2e;" horiz-adv-x="250" d="M37 0 L37 164 L211 164 L211 0 L37 0 Z " />
<glyph glyph-name="slash" unicode="&#x2f;" horiz-adv-x="333" d="M153 0 L1 0 L181 706 L331 706 L153 0 Z " />
<glyph glyph-name="zero" unicode="0" horiz-adv-x="521" d="M489 179 Q489 156 487 132 Q485 108 475 86 Q462 56 439 37 Q416 18 387.5 7.5 Q359 -3 328 -7 Q297 -11 267 -11 Q237 -11 203.5 -7.5 Q170 -4 139.5 6.5 Q109 17 83.5 36 Q58 55 43 86 Q32 110 29.5 135.5 Q27 161 27 187 L27 540 Q27 562 30 584 Q33 606 43 626 Q57 655 80.5 672.5 Q104 690 132.5 700.5 Q161 711 192.5 714.5 Q224 718 252 718 Q281 718 313 714 Q345 710 375 700 Q405 690 431 672.5 Q457 655 472 627 Q483 607 486 588.5 Q489 570 489 548 L489 179 Z M309 553 Q309 578 296.5 592 Q284 606 258 606 Q231 606 219.5 591.5 Q208 577 208 552 L208 150 Q208 124 219.5 111.5 Q231 99 258 99 Q285 99 297 112 Q309 125 309 151 L309 553 Z " />
<glyph glyph-name="one" unicode="1" horiz-adv-x="521" d="M189 0 L189 521 Q163 503 139.5 492 Q116 481 85 475 L85 602 Q106 604 121.5 614.5 Q137 625 149.5 640 Q162 655 171.5 672.5 Q181 690 189 706 L368 706 L368 0 L189 0 Z " />
<glyph glyph-name="two" unicode="2" horiz-adv-x="521" d="M31 0 L31 65 Q31 107 37 137.5 Q43 168 56.5 193.5 Q70 219 91.5 242.5 Q113 266 144 294 L219 363 Q225 369 237 380 Q249 391 262 403 Q275 415 285.5 426.5 Q296 438 299 444 Q304 454 306 467.5 Q308 481 308 495.5 Q308 510 307.5 524 Q307 538 307 549 Q307 576 297 589.5 Q287 603 258 603 Q229 603 218.5 590 Q208 577 208 550 L208 437 L31 437 L31 533 Q31 553 32.5 572.5 Q34 592 42 611 Q55 643 78.5 664 Q102 685 131 697 Q160 709 193 714 Q226 719 257 719 Q287 719 319 715.5 Q351 712 380 701.5 Q409 691 433 672 Q457 653 472 623 Q483 599 486 569 Q489 539 489 513 Q489 482 486 458.5 Q483 435 474.5 414.5 Q466 394 452 374.5 Q438 355 416 334 Q396 314 374 295 Q352 276 331 256 Q319 245 303.5 231.5 Q288 218 274.5 203 Q261 188 251.5 171.5 Q242 155 240 137 L493 137 L493 0 L31 0 Z " />
<glyph glyph-name="three" unicode="3" horiz-adv-x="521" d="M487 196 Q487 173 486 142 Q485 111 475 89 Q462 59 437 40 Q412 21 381.5 9.5 Q351 -2 318 -6.5 Q285 -11 256 -11 Q226 -11 193 -7 Q160 -3 129 8 Q98 19 73 38.5 Q48 58 36 90 Q31 104 29 122.5 Q27 141 26.5 161 Q26 181 26.5 200 Q27 219 27 233 L207 233 L207 160 Q207 134 217.5 121 Q228 108 256 108 Q283 108 294.5 120.5 Q306 133 306 159 L306 250 Q306 278 294.5 287.5 Q283 297 256 297 L183 297 L183 433 Q233 433 258 432 Q283 431 294 440 Q305 449 305.5 473 Q306 497 306 546 Q306 572 294.5 584 Q283 596 256 596 Q230 596 218.5 584.5 Q207 573 207 548 L207 495 L34 495 L34 539 Q34 557 35.5 575 Q37 593 43 610 Q55 643 78 664 Q101 685 129.5 697 Q158 709 190.5 713 Q223 717 254 717 Q283 717 316 713 Q349 709 379.5 698 Q410 687 435 668 Q460 649 474 619 Q485 596 486 567.5 Q487 539 487 514 Q487 485 483 464.5 Q479 444 469.5 428 Q460 412 444.5 398.5 Q429 385 406 369 Q432 360 447.5 349.5 Q463 339 472 325 Q481 311 484 291.5 Q487 272 487 245 L487 196 Z " />
<glyph glyph-name="four" unicode="4" horiz-adv-x="521" d="M428 150 L428 0 L246 0 L246 150 L20 150 L20 284 L224 706 L428 706 L428 284 L500 284 L500 150 L428 150 Z M255 539 L137 284 L255 284 L255 539 Z " />
<glyph glyph-name="five" unicode="5" horiz-adv-x="521" d="M488 181 Q488 154 484.5 125.5 Q481 97 467 74 Q451 48 427 31.5 Q403 15 374.5 6 Q346 -3 316 -6.5 Q286 -10 258 -10 Q231 -10 202 -7.5 Q173 -5 145.5 3.5 Q118 12 94.5 27 Q71 42 55 66 Q44 83 38.5 102.5 Q33 122 31 142.5 Q29 163 29.5 184 Q30 205 30 224 L208 224 L208 151 Q208 125 217.5 112 Q227 99 255 99 Q284 99 295.5 110.5 Q307 122 307 150 L307 310 Q307 335 296 347.5 Q285 360 258 360 Q212 360 208 315 L39 315 L47 706 L464 706 L464 571 L208 571 L203 412 Q229 442 259 458.5 Q289 475 330 475 Q378 475 419 452.5 Q460 430 477 383 Q485 362 486.5 340 Q488 318 488 296 L488 181 Z " />
<glyph glyph-name="six" unicode="6" horiz-adv-x="521" d="M493 194 Q493 168 490.5 141 Q488 114 476 90 Q462 61 437.5 42 Q413 23 384 11.5 Q355 0 323 -4.5 Q291 -9 261 -9 Q231 -9 198 -3.5 Q165 2 135.5 15 Q106 28 82 48.5 Q58 69 45 100 Q34 125 31.5 153.5 Q29 182 29 208 L29 509 Q29 538 32 568.5 Q35 599 49 625 Q64 653 88 671 Q112 689 140.5 699.5 Q169 710 200.5 714 Q232 718 260 718 Q288 718 319 714 Q350 710 378.5 700 Q407 690 430.5 672 Q454 654 469 627 Q486 596 486.5 561.5 Q487 527 487 493 L310 493 Q310 510 311 527.5 Q312 545 308.5 560 Q305 575 294.5 584.5 Q284 594 260 594 Q234 594 223.5 581.5 Q213 569 213 545 L213 382 Q236 414 267.5 426.5 Q299 439 337 439 Q412 439 452.5 403 Q493 367 493 291 L493 194 Z M310 286 Q310 332 261 332 Q213 332 213 283 L213 149 Q213 125 224 113.5 Q235 102 261 102 Q310 102 310 151 L310 286 Z " />
<glyph glyph-name="seven" unicode="7" horiz-adv-x="521" d="M498 569 Q487 553 476 538 Q465 523 455 506 Q433 469 410.5 418 Q388 367 368.5 312 Q349 257 334 203.5 Q319 150 311 107 Q306 80 304.5 53.5 Q303 27 301 0 L112 0 Q112 18 112.5 36 Q113 54 115 72 Q123 135 145 200 Q167 265 196.5 328.5 Q226 392 259.5 453 Q293 514 324 569 L176 569 L176 482 L29 482 L29 706 L498 706 L498 569 Z " />
<glyph glyph-name="eight" unicode="8" horiz-adv-x="521" d="M493 146 Q493 97 472.5 66.5 Q452 36 419.5 19 Q387 2 346.5 -4.5 Q306 -11 266 -11 Q238 -11 205 -7.5 Q172 -4 140.5 5.5 Q109 15 83 32.5 Q57 50 42 77 Q31 98 28 122 Q25 146 25 169 L25 249 Q25 305 47 333 Q69 361 121 380 Q94 391 77.5 404.5 Q61 418 51.5 435 Q42 452 38.5 473.5 Q35 495 35 523 Q35 550 37 578 Q39 606 52 631 Q66 658 89.5 674.5 Q113 691 141 701 Q169 711 199 714.5 Q229 718 256 718 Q285 718 316.5 714 Q348 710 377 700 Q406 690 431 672 Q456 654 471 627 Q481 609 484 585 Q487 561 487 541 Q487 508 484 483.5 Q481 459 470.5 440 Q460 421 441.5 406.5 Q423 392 391 380 Q450 364 471.5 334 Q493 304 493 246 L493 146 Z M310 561 Q310 588 296.5 597 Q283 606 257 606 Q231 606 220.5 596.5 Q210 587 210 561 L210 479 Q210 453 222.5 443.5 Q235 434 261 434 Q288 434 299 445 Q310 456 310 482 L310 561 Z M310 268 Q310 294 299 307 Q288 320 259 320 Q210 320 210 272 L210 149 Q210 120 223 110.5 Q236 101 263 101 Q310 101 310 147 L310 268 Z " />
<glyph glyph-name="nine" unicode="9" horiz-adv-x="521" d="M486 190 Q486 165 484.5 141 Q483 117 472 94 Q458 64 433.5 44 Q409 24 379.5 12 Q350 0 317.5 -5 Q285 -10 255 -10 Q224 -10 190.5 -4.5 Q157 1 127 13.5 Q97 26 73 47.5 Q49 69 35 101 Q24 128 23.5 157 Q23 186 23 215 L208 215 L208 152 Q208 127 218 115 Q228 103 255 103 Q282 103 294.5 114 Q307 125 307 152 L307 309 Q278 286 253 275.5 Q228 265 190 265 Q139 265 96.5 290 Q54 315 40 366 Q35 381 34.5 397 Q34 413 34 428 L34 536 Q34 558 36.5 580.5 Q39 603 49 623 Q63 650 85.5 668 Q108 686 135 696.5 Q162 707 192 711.5 Q222 716 250 716 Q280 716 314 711.5 Q348 707 379 695.5 Q410 684 435.5 664 Q461 644 474 613 Q482 593 484 574 Q486 555 486 535 L486 190 Z M307 541 Q307 571 295.5 583 Q284 595 254 595 Q226 595 217 582 Q208 569 208 543 L208 417 Q208 391 220.5 381 Q233 371 258 371 Q307 371 307 418 L307 541 Z " />
<glyph glyph-name="colon" unicode="&#x3a;" horiz-adv-x="292" d="M79 384 L79 548 L253 548 L253 384 L79 384 Z M79 0 L79 162 L253 162 L253 0 L79 0 Z " />
<glyph glyph-name="semicolon" unicode="&#x3b;" horiz-adv-x="292" d="M78 383 L78 549 L253 549 L253 383 L78 383 Z M156 -153 L95 -153 L150 0 L78 0 L78 161 L253 161 L253 0 L156 -153 Z " />
<glyph glyph-name="less" unicode="&#x3c;" horiz-adv-x="559" d="M86 269 L86 424 L444 619 L444 454 L244 351 L444 256 L444 75 L86 269 Z " />
<glyph glyph-name="equal" unicode="&#x3d;" horiz-adv-x="559" d="M85 359 L85 501 L474 501 L474 359 L85 359 Z M85 130 L85 272 L474 272 L474 130 L85 130 Z " />
<glyph glyph-name="greater" unicode="&#x3e;" horiz-adv-x="559" d="M115 76 L115 240 L315 343 L115 438 L115 619 L473 426 L473 271 L115 76 Z " />
<glyph glyph-name="question" unicode="&#x3f;" horiz-adv-x="479" d="M471 555 Q471 521 461 496.5 Q451 472 434.5 452 Q418 432 396.5 413.5 Q375 395 352 374 Q347 370 339.5 362.5 Q332 355 324.5 347 Q317 339 310.5 331 Q304 323 301 317 Q298 311 297 299 Q296 287 296 273.5 Q296 260 296.5 247.5 Q297 235 297 227 L123 227 L123 264 Q123 281 124 297.5 Q125 314 130 330 Q136 350 150.5 370 Q165 390 182 408.5 Q199 427 217 444 Q235 461 250 475 Q263 487 276.5 500 Q290 513 300 527 Q311 542 311 562 Q311 580 301 592.5 Q291 605 272 605 Q255 605 246.5 597 Q238 589 235 577 Q232 565 232.5 551 Q233 537 233 525 L78 525 L78 562 Q78 581 81.5 602 Q85 623 95 640 Q108 661 127.5 675 Q147 689 170 697 Q193 705 217.5 708.5 Q242 712 265 712 Q292 712 322.5 708.5 Q353 705 380 694.5 Q407 684 429 666 Q451 648 462 619 Q468 604 469.5 588 Q471 572 471 555 Z M123 0 L123 150 L297 150 L297 0 L123 0 Z " />
<glyph glyph-name="at" unicode="&#x40;" horiz-adv-x="786" d="M752 36 Q733 18 719 5 Q705 -8 691.5 -18 Q678 -28 664.5 -37 Q651 -46 634 -56 Q575 -89 517 -105.5 Q459 -122 396 -122 Q281 -122 188 -65 Q29 34 29 246 Q29 344 63 429 Q97 514 155.5 577 Q214 640 293 676.5 Q372 713 463 713 Q529 713 582 692 Q635 671 672.5 632.5 Q710 594 730 539.5 Q750 485 750 417 Q750 346 731.5 282 Q713 218 681.5 170 Q650 122 608.5 94 Q567 66 521 66 Q489 66 466.5 84 Q444 102 438 134 Q386 67 323 67 Q293 67 268 79.5 Q243 92 225 114.5 Q207 137 197 168 Q187 199 187 237 Q187 294 204 346 Q221 398 249.5 437 Q278 476 315.5 499.5 Q353 523 394 523 Q418 523 439 514 Q456 506 467 496 Q478 486 492 463 L502 503 L598 503 L559 307 Q551 271 547 241 Q543 211 543 197 Q543 172 559 172 Q567 172 577.5 182.5 Q588 193 599 212 Q622 250 636 303 Q644 332 647 355.5 Q650 379 650 408 Q650 453 643.5 482 Q637 511 621 537 Q595 579 551 600.5 Q507 622 450 622 Q385 622 327 592.5 Q269 563 226 512.5 Q183 462 158 394.5 Q133 327 133 251 Q133 187 152.5 135.5 Q172 84 207 47 Q242 10 292 -10 Q342 -30 403 -30 Q554 -30 696 110 L752 36 Z M460 348 Q460 385 443.5 407 Q427 429 401 429 Q381 429 362.5 413.5 Q344 398 329.5 372.5 Q315 347 306.5 313.5 Q298 280 298 244 Q298 206 312.5 184 Q327 162 353 162 Q392 162 423 212 Q439 237 449.5 274.5 Q460 312 460 344 L460 348 Z " />
<glyph glyph-name="A" unicode="A" horiz-adv-x="562" d="M363 0 L341 159 L220 159 L196 0 L-2 0 L162 706 L400 706 L560 0 L363 0 Z M281 568 L238 285 L323 285 L281 568 Z " />
<glyph glyph-name="B" unicode="B" horiz-adv-x="542" d="M530 195 Q530 138 517.5 100 Q505 62 478.5 40 Q452 18 412 9 Q372 0 316 0 L34 0 L34 706 L312 706 Q359 706 396.5 697 Q434 688 461 667 Q488 646 502.5 612.5 Q517 579 517 530 Q517 462 490.5 424 Q464 386 396 369 Q437 362 463 349.5 Q489 337 504 316.5 Q519 296 524.5 266 Q530 236 530 195 Z M325 522 Q325 551 312.5 560.5 Q300 570 273 570 L229 570 L229 424 L273 424 Q303 424 314 436 Q325 448 325 477 L325 522 Z M330 237 Q330 268 318 279.5 Q306 291 275 291 L229 291 L229 135 L273 135 Q305 135 317.5 145 Q330 155 330 189 L330 237 Z " />
<glyph glyph-name="C" unicode="C" horiz-adv-x="542" d="M527 198 Q527 168 522 134 Q517 100 502 74 Q486 46 459.5 29 Q433 12 402.5 2.5 Q372 -7 339 -10 Q306 -13 277 -13 Q242 -13 205 -8.5 Q168 -4 135 9.5 Q102 23 76.5 47 Q51 71 39 109 Q32 129 30.5 151.5 Q29 174 29 195 L29 506 Q29 532 32.5 562 Q36 592 47 616 Q62 647 87.5 667 Q113 687 144.5 698.5 Q176 710 210 714.5 Q244 719 275 719 Q305 719 339 714.5 Q373 710 405 699 Q437 688 463.5 669 Q490 650 505 620 Q515 602 519 580 Q523 558 524 535 Q525 512 524.5 489 Q524 466 524 446 L329 446 L329 530 Q329 579 279 579 Q227 579 227 530 L227 172 Q227 125 277 125 Q305 125 317 137 Q329 149 329 176 L329 261 L526 261 Q527 245 527 229.5 Q527 214 527 198 Z " />
<glyph glyph-name="D" unicode="D" horiz-adv-x="562" d="M533 243 Q533 215 532 187.5 Q531 160 525.5 134 Q520 108 507.5 84.5 Q495 61 472 42 Q439 14 400.5 7 Q362 0 320 0 L34 0 L34 706 L274 706 Q310 706 348.5 702.5 Q387 699 422 686.5 Q457 674 484 650 Q511 626 523 586 Q530 563 531.5 536.5 Q533 510 533 487 L533 243 Z M334 507 Q334 539 324.5 554.5 Q315 570 280 570 L234 570 L234 132 L278 132 Q311 132 322.5 145 Q334 158 334 190 L334 507 Z " />
<glyph glyph-name="E" unicode="E" horiz-adv-x="437" d="M34 0 L34 706 L420 706 L420 569 L233 569 L233 426 L406 426 L406 291 L233 291 L233 136 L420 136 L420 0 L34 0 Z " />
<glyph glyph-name="F" unicode="F" horiz-adv-x="417" d="M233 570 L233 427 L401 427 L401 292 L233 292 L233 0 L35 0 L35 706 L415 706 L415 570 L233 570 Z " />
<glyph glyph-name="G" unicode="G" horiz-adv-x="562" d="M341 0 L341 77 Q315 30 284.5 9.5 Q254 -11 199 -11 Q108 -11 67.5 38 Q27 87 27 172 L27 515 Q27 541 30.5 567 Q34 593 45 616 Q61 649 87.5 669 Q114 689 145.5 700 Q177 711 211.5 714.5 Q246 718 279 718 Q315 718 353.5 714 Q392 710 426 696.5 Q460 683 486.5 658.5 Q513 634 525 593 Q534 563 533 528 Q532 493 532 462 L341 462 L341 526 Q341 555 327 566 Q313 577 284 577 Q256 577 242 567 Q228 557 228 528 L228 167 Q228 139 240 124.5 Q252 110 282 110 Q311 110 326 122.5 Q341 135 341 164 L341 244 L280 244 L280 369 L532 369 L532 0 L341 0 Z " />
<glyph glyph-name="H" unicode="H" horiz-adv-x="562" d="M328 0 L328 282 L235 282 L235 0 L35 0 L35 706 L235 706 L235 428 L328 428 L328 706 L526 706 L526 0 L328 0 Z " />
<glyph glyph-name="I" unicode="I" horiz-adv-x="271" d="M35 0 L35 706 L235 706 L235 0 L35 0 Z " />
<glyph glyph-name="J" unicode="J" horiz-adv-x="354" d="M319 180 Q319 131 311 97 Q303 63 283.5 41.5 Q264 20 230 10 Q196 0 145 0 L12 0 L12 135 L69 135 Q102 135 111.5 150 Q121 165 121 195 L121 706 L319 706 L319 180 Z " />
<glyph glyph-name="K" unicode="K" horiz-adv-x="562" d="M358 0 L232 327 L232 0 L36 0 L36 706 L232 706 L232 382 L352 706 L552 706 L410 368 L570 0 L358 0 Z " />
<glyph glyph-name="L" unicode="L" horiz-adv-x="417" d="M36 0 L36 706 L233 706 L233 134 L416 134 L416 0 L36 0 Z " />
<glyph glyph-name="M" unicode="M" horiz-adv-x="750" d="M547 0 L547 484 L438 0 L311 0 L201 475 L201 0 L35 0 L35 706 L286 706 L376 240 L464 706 L713 706 L713 0 L547 0 Z " />
<glyph glyph-name="N" unicode="N" horiz-adv-x="562" d="M338 0 L227 335 Q211 382 199 431 L202 0 L36 0 L36 706 L219 706 L321 401 Q332 368 342 334.5 Q352 301 361 267 L359 706 L525 706 L525 0 L338 0 Z " />
<glyph glyph-name="O" unicode="O" horiz-adv-x="562" d="M531 208 Q531 179 528.5 150.5 Q526 122 514 96 Q500 65 474.5 44.5 Q449 24 417.5 11.5 Q386 -1 352 -5.5 Q318 -10 287 -10 Q254 -10 217.5 -6 Q181 -2 147 10 Q113 22 85 43.5 Q57 65 43 99 Q32 125 29.5 152 Q27 179 27 207 L27 497 Q27 523 29 552.5 Q31 582 42 606 Q57 640 83 661.5 Q109 683 141.5 695 Q174 707 209.5 711.5 Q245 716 278 716 Q308 716 341.5 712.5 Q375 709 406 698.5 Q437 688 464 670.5 Q491 653 507 624 Q524 594 527.5 557.5 Q531 521 531 487 L531 208 Z M331 530 Q331 558 319.5 570 Q308 582 279 582 Q252 582 239.5 570.5 Q227 559 227 532 L227 175 Q227 148 240 136.5 Q253 125 281 125 Q308 125 319.5 137 Q331 149 331 175 L331 530 Z " />
<glyph glyph-name="P" unicode="P" horiz-adv-x="542" d="M525 457 Q525 434 523 404.5 Q521 375 513 353 Q501 318 479.5 298.5 Q458 279 431 269 Q404 259 373 257 Q342 255 310 255 L233 255 L233 0 L35 0 L35 706 L343 706 Q370 706 395.5 702.5 Q421 699 443 689.5 Q465 680 482.5 662.5 Q500 645 510 617 Q518 594 520 570 Q522 546 523 522 Q524 505 524.5 489.5 Q525 474 525 457 Z M333 519 Q333 548 323 559.5 Q313 571 283 571 L233 571 L233 390 L283 390 Q315 390 324 403.5 Q333 417 333 447 L333 519 Z " />
<glyph glyph-name="Q" unicode="Q" horiz-adv-x="562" d="M531 200 Q531 147 517.5 105.5 Q504 64 457 32 Q434 17 410.5 9 Q387 1 361 -3 L361 -29 Q361 -54 370 -63.5 Q379 -73 404 -73 L462 -73 L462 -184 L297 -184 Q251 -184 229 -168.5 Q207 -153 199 -127 Q191 -101 191.5 -68.5 Q192 -36 192 -1 Q144 9 112 25.5 Q80 42 61.5 67 Q43 92 35 127 Q27 162 27 209 L27 495 Q27 521 29 551.5 Q31 582 42 606 Q57 640 83 661.5 Q109 683 141.5 695 Q174 707 209.5 711.5 Q245 716 278 716 Q308 716 341.5 712.5 Q375 709 406 698.5 Q437 688 464 670.5 Q491 653 507 624 Q523 596 527 561.5 Q531 527 531 495 L531 200 Z M331 530 Q331 558 319.5 570 Q308 582 279 582 Q252 582 239.5 570.5 Q227 559 227 532 L227 175 Q227 148 240 136.5 Q253 125 281 125 Q308 125 319.5 137 Q331 149 331 175 L331 530 Z " />
<glyph glyph-name="R" unicode="R" horiz-adv-x="562" d="M348 0 L253 289 L235 289 L235 0 L34 0 L34 706 L291 706 Q363 706 403 698.5 Q443 691 470 672 Q490 658 504.5 634.5 Q519 611 523 585 Q525 568 526 550.5 Q527 533 527 510 Q527 457 523.5 429.5 Q520 402 509 379 Q499 357 483 342 Q467 327 441 315 L556 0 L348 0 Z M333 522 Q333 546 323 556 Q313 566 288 566 L235 566 L235 427 L286 427 Q315 427 324 437.5 Q333 448 333 482 L333 522 Z " />
<glyph glyph-name="S" unicode="S" horiz-adv-x="521" d="M502 186 Q502 159 497.5 130 Q493 101 479 77 Q463 50 437.5 32.5 Q412 15 382.5 5.5 Q353 -4 321.5 -7.5 Q290 -11 261 -11 Q242 -11 223.5 -9.5 Q205 -8 186 -6 Q131 0 86.5 24 Q42 48 24 105 Q17 127 15.5 150.5 Q14 174 14 197 Q14 205 14 212 Q14 219 15 227 L208 227 Q208 212 207 194 Q206 176 210 160 Q214 144 224.5 133.5 Q235 123 257 123 Q287 123 295.5 139.5 Q304 156 304 182 Q304 193 302 203 Q300 213 293 222 Q289 228 278 237 Q267 246 255 255 Q243 264 231 272 Q219 280 211 285 Q193 298 167 316 Q141 334 115.5 354 Q90 374 69.5 396 Q49 418 40 439 Q32 459 30.5 479 Q29 499 29 519 Q29 545 32.5 570 Q36 595 47 618 Q62 649 86 668.5 Q110 688 139.5 699 Q169 710 201 714 Q233 718 264 718 Q294 718 325.5 713.5 Q357 709 386 698 Q415 687 439 668 Q463 649 478 619 Q492 590 493 552.5 Q494 515 494 483 L309 483 Q309 497 310 514.5 Q311 532 307.5 547 Q304 562 294 572 Q284 582 263 582 Q241 582 230 569.5 Q219 557 219 536 Q219 513 233.5 499.5 Q248 486 265 474 Q287 458 314 439.5 Q341 421 368 401 Q395 381 419.5 360.5 Q444 340 461 320 Q473 306 480.5 292 Q488 278 493 261 Q498 243 500 224 Q502 205 502 186 Z " />
<glyph glyph-name="T" unicode="T" horiz-adv-x="500" d="M348 571 L348 0 L149 0 L149 571 L-1 571 L-1 706 L498 706 L498 571 L348 571 Z " />
<glyph glyph-name="U" unicode="U" horiz-adv-x="562" d="M529 171 Q529 130 519.5 99.5 Q510 69 478 42 Q459 25 435 15 Q411 5 385 -0.5 Q359 -6 332.5 -8 Q306 -10 281 -10 Q251 -10 216.5 -7 Q182 -4 150 6 Q118 16 91 34 Q64 52 48 82 Q37 102 34 125.5 Q31 149 31 172 L31 706 L229 706 L229 187 Q229 161 240 145.5 Q251 130 280 130 Q309 130 319.5 145.5 Q330 161 330 187 L330 706 L529 706 L529 171 Z " />
<glyph glyph-name="V" unicode="V" horiz-adv-x="542" d="M403 0 L132 0 L-1 706 L194 706 L269 162 Q270 179 272 197 Q274 215 276 232 L343 706 L540 706 L403 0 Z " />
<glyph glyph-name="W" unicode="W" horiz-adv-x="833" d="M739 0 L494 0 L414 526 L333 0 L91 0 L1 706 L176 706 L230 205 L300 706 L528 706 L600 205 L653 706 L827 706 L739 0 Z " />
<glyph glyph-name="X" unicode="X" horiz-adv-x="521" d="M320 0 L271 195 Q267 211 264.5 226.5 Q262 242 260 258 Q248 192 231 128.5 Q214 65 197 0 L0 0 L122 369 L0 706 L201 706 Q217 640 233.5 575.5 Q250 511 260 444 Q263 466 266.5 487 Q270 508 275 529 L320 706 L517 706 L400 369 L517 0 L320 0 Z " />
<glyph glyph-name="Y" unicode="Y" horiz-adv-x="562" d="M382 227 L382 0 L185 0 L185 227 L0 706 L197 706 L282 400 L365 706 L558 706 L382 227 Z " />
<glyph glyph-name="Z" unicode="Z" horiz-adv-x="479" d="M16 0 L16 137 L245 572 L42 572 L42 706 L460 706 L460 567 L229 137 L460 137 L460 0 L16 0 Z " />
<glyph glyph-name="bracketleft" unicode="&#x5b;" horiz-adv-x="333" d="M46 -201 L46 706 L327 706 L327 641 L220 641 L220 -137 L327 -137 L327 -201 L46 -201 Z " />
<glyph glyph-name="backslash" unicode="&#x5c;" horiz-adv-x="333" d="M181 0 L1 706 L153 706 L331 0 L181 0 Z " />
<glyph glyph-name="bracketright" unicode="&#x5d;" horiz-adv-x="333" d="M4 -202 L4 -136 L112 -136 L112 642 L4 642 L4 706 L286 706 L286 -202 L4 -202 Z " />
<glyph glyph-name="asciicircum" unicode="&#x5e;" horiz-adv-x="559" d="M349 359 L283 552 L211 359 L32 359 L201 706 L360 706 L527 359 L349 359 Z " />
<glyph glyph-name="underscore" unicode="&#x5f;" horiz-adv-x="500" d="M-10 -240 L-10 -113 L510 -113 L510 -240 L-10 -240 Z " />
<glyph glyph-name="grave" unicode="&#x60;" horiz-adv-x="271" d="M125 572 L-5 696 L198 696 L276 572 L125 572 Z " />
<glyph glyph-name="a" unicode="a" horiz-adv-x="521" d="M300 0 L300 47 Q263 17 230 2 Q197 -13 148 -13 Q110 -13 77 3.5 Q44 20 29 58 Q23 73 22 97.5 Q21 122 21 138 Q21 183 30.5 211.5 Q40 240 59.5 258 Q79 276 108.5 287 Q138 298 178 307 Q210 315 240 322 Q270 329 300 343 L300 377 Q300 399 291.5 411 Q283 423 258 423 Q241 423 232.5 416 Q224 409 221 397.5 Q218 386 218 373 Q218 360 218 348 L43 348 L43 387 Q43 408 45.5 426.5 Q48 445 59 464 Q74 491 99 507 Q124 523 153.5 531.5 Q183 540 214 542.5 Q245 545 273 545 Q300 545 330 542 Q360 539 388 529.5 Q416 520 439 503 Q462 486 475 459 Q484 440 486.5 420 Q489 400 489 380 L489 68 Q489 44 492.5 30.5 Q496 17 513 0 L300 0 Z M300 256 Q291 253 277.5 248 Q264 243 251.5 237 Q239 231 228.5 223.5 Q218 216 213 206 Q211 201 210.5 195.5 Q210 190 210 185 L210 135 Q210 114 220 102 Q230 90 252 90 Q278 90 289 101.5 Q300 113 300 138 L300 256 Z " />
<glyph glyph-name="b" unicode="b" horiz-adv-x="521" d="M497 149 Q497 107 487 70 Q477 33 437 9 Q420 -2 400 -6.5 Q380 -11 360 -11 Q312 -11 278.5 6 Q245 23 219 63 L219 0 L31 0 L31 706 L219 706 L219 470 Q244 512 273.5 529.5 Q303 547 353 547 Q378 547 403 540 Q428 533 448 518 Q466 504 476 485.5 Q486 467 490.5 446 Q495 425 496 403 Q497 381 497 360 L497 149 Z M307 394 Q307 416 298 429.5 Q289 443 265 443 Q219 443 219 398 L219 143 Q219 118 228 105 Q237 92 264 92 Q307 92 307 135 L307 394 Z " />
<glyph glyph-name="c" unicode="c" horiz-adv-x="500" d="M479 155 Q479 133 477 113.5 Q475 94 464 74 Q451 48 428.5 31 Q406 14 379 4.5 Q352 -5 323 -8.5 Q294 -12 267 -12 Q234 -12 197 -9 Q160 -6 126.5 5.5 Q93 17 67 39 Q41 61 29 99 Q24 113 23.5 128.5 Q23 144 23 158 L23 371 Q23 395 26 419 Q29 443 42 464 Q57 490 80.5 506 Q104 522 131 530.5 Q158 539 187 542 Q216 545 243 545 Q282 545 322.5 539 Q363 533 396.5 516.5 Q430 500 451 470 Q472 440 472 391 L472 328 L292 328 L292 381 Q292 402 284 413 Q276 424 253 424 Q230 424 220.5 413 Q211 402 211 381 L211 153 Q211 132 220.5 121 Q230 110 253 110 Q271 110 279.5 118 Q288 126 291 138.5 Q294 151 293 165.5 Q292 180 292 192 L479 192 L479 155 Z " />
<glyph glyph-name="d" unicode="d" horiz-adv-x="521" d="M300 0 L300 62 Q277 20 247.5 4.5 Q218 -11 170 -11 Q90 -11 57 28 Q24 67 24 142 L24 382 Q24 419 30.5 449 Q37 479 52.5 500 Q68 521 95 532.5 Q122 544 163 544 Q208 544 242.5 530.5 Q277 517 300 476 L300 706 L489 706 L489 0 L300 0 Z M300 385 Q300 408 290 418 Q280 428 256 428 Q213 428 213 385 L213 140 Q213 117 224 107 Q235 97 258 97 Q300 97 300 140 L300 385 Z " />
<glyph glyph-name="e" unicode="e" horiz-adv-x="500" d="M480 156 Q480 101 462 67.5 Q444 34 413 16 Q382 -2 340.5 -7.5 Q299 -13 253 -13 Q224 -13 190.5 -10.5 Q157 -8 126.5 2 Q96 12 71 30.5 Q46 49 34 81 Q26 102 24.5 124 Q23 146 23 168 L23 354 Q23 379 25.5 405 Q28 431 36 454 Q48 486 71 504 Q94 522 123 531.5 Q152 541 184 543.5 Q216 546 245 546 Q274 546 308.5 543 Q343 540 375.5 529.5 Q408 519 433.5 500 Q459 481 471 448 Q477 432 478.5 414.5 Q480 397 480 380 L480 238 L213 238 L213 159 Q213 134 221 120.5 Q229 107 257 107 Q276 107 285 114.5 Q294 122 297 133.5 Q300 145 299.5 158.5 Q299 172 299 185 L480 185 L480 156 Z M302 388 Q302 411 292 422.5 Q282 434 257 434 Q233 434 223 422 Q213 410 213 387 L213 323 L302 323 L302 388 Z " />
<glyph glyph-name="f" unicode="f" horiz-adv-x="354" d="M360 605 Q342 605 325.5 606 Q309 607 296.5 603.5 Q284 600 276.5 589.5 Q269 579 269 556 L269 533 L354 533 L354 431 L269 431 L269 0 L81 0 L81 430 L0 430 L0 533 L81 533 L81 575 Q81 644 110 675 Q139 706 211 706 L360 706 L360 605 Z " />
<glyph glyph-name="g" unicode="g" horiz-adv-x="521" d="M489 -57 Q489 -78 487.5 -99.5 Q486 -121 478 -141 Q466 -173 441.5 -193 Q417 -213 386.5 -223.5 Q356 -234 323 -237.5 Q290 -241 260 -241 Q234 -241 204.5 -238 Q175 -235 147.5 -227 Q120 -219 95.5 -204 Q71 -189 55 -166 Q38 -141 34.5 -113.5 Q31 -86 31 -57 L211 -57 Q211 -71 211.5 -82.5 Q212 -94 216 -102.5 Q220 -111 229.5 -116 Q239 -121 257 -121 Q282 -121 292 -109.5 Q302 -98 302 -75 L302 57 Q279 21 247 5 Q215 -11 172 -11 Q123 -11 93.5 3.5 Q64 18 48.5 44 Q33 70 28.5 105.5 Q24 141 24 182 L24 371 Q24 394 25 416 Q26 438 32 458 Q38 478 50 495.5 Q62 513 84 525 Q103 536 123.5 540 Q144 544 166 544 Q199 544 231.5 532.5 Q264 521 286 495 Q291 490 294.5 483.5 Q298 477 302 471 L302 533 L489 533 L489 -57 Z M302 382 Q302 406 292 417.5 Q282 429 256 429 Q230 429 220.5 417.5 Q211 406 211 381 L211 155 Q211 130 221.5 118.5 Q232 107 258 107 Q281 107 291.5 116.5 Q302 126 302 149 L302 382 Z " />
<glyph glyph-name="h" unicode="h" horiz-adv-x="521" d="M300 0 L300 398 Q300 418 292 429.5 Q284 441 261 441 Q238 441 228 429.5 Q218 418 218 396 L218 0 L30 0 L30 706 L218 706 L218 481 Q243 514 273 529 Q303 544 345 544 Q369 544 390.5 538 Q412 532 432 518 Q468 492 478 458.5 Q488 425 488 384 L488 0 L300 0 Z " />
<glyph glyph-name="i" unicode="i" horiz-adv-x="250" d="M30 580 L30 706 L219 706 L219 580 L30 580 Z M30 0 L30 533 L219 533 L219 0 L30 0 Z " />
<glyph glyph-name="j" unicode="j" horiz-adv-x="250" d="M30 580 L30 706 L218 706 L218 580 L30 580 Z M219 -44 Q219 -82 215 -109.5 Q211 -137 197.5 -154.5 Q184 -172 159 -180.5 Q134 -189 92 -189 L-28 -189 L-28 -92 Q-16 -92 -5 -91.5 Q6 -91 13.5 -87.5 Q21 -84 25.5 -76 Q30 -68 30 -52 L30 533 L219 533 L219 -44 Z " />
<glyph glyph-name="k" unicode="k" horiz-adv-x="521" d="M324 0 L212 254 L212 0 L30 0 L30 706 L212 706 L212 313 L314 533 L498 533 L371 291 L522 0 L324 0 Z " />
<glyph glyph-name="l" unicode="l" horiz-adv-x="250" d="M31 0 L31 706 L219 706 L219 0 L31 0 Z " />
<glyph glyph-name="m" unicode="m" horiz-adv-x="792" d="M570 0 L570 380 Q570 400 561.5 412 Q553 424 530 424 Q507 424 498.5 411 Q490 398 490 378 L490 0 L301 0 L301 380 Q301 402 292 414.5 Q283 427 259 427 Q236 427 227 414.5 Q218 402 218 381 L218 0 L30 0 L30 533 L218 533 L218 470 Q263 543 350 543 Q397 543 429.5 524.5 Q462 506 482 464 Q507 502 536.5 522 Q566 542 614 542 Q659 542 698 522.5 Q737 503 752 458 Q757 444 757.5 430.5 Q758 417 758 403 L758 0 L570 0 Z " />
<glyph glyph-name="n" unicode="n" horiz-adv-x="521" d="M299 0 L299 381 Q299 402 292 416.5 Q285 431 260 431 Q235 431 227 417 Q219 403 219 382 L219 0 L30 0 L30 533 L219 533 L219 480 Q243 511 273 527.5 Q303 544 343 544 Q369 544 391.5 538 Q414 532 436 517 Q456 503 466.5 485.5 Q477 468 482 448.5 Q487 429 488 407.5 Q489 386 489 364 L489 0 L299 0 Z " />
<glyph glyph-name="o" unicode="o" horiz-adv-x="521" d="M495 156 Q495 103 478 70 Q461 37 431 19 Q401 1 360.5 -5.5 Q320 -12 273 -12 Q238 -12 200 -10 Q162 -8 128 2.5 Q94 13 68 35.5 Q42 58 31 99 Q27 115 26 130 Q25 145 25 161 L25 376 Q25 396 26.5 415.5 Q28 435 36 455 Q49 486 73.5 504.5 Q98 523 128 532.5 Q158 542 190.5 544.5 Q223 547 252 547 Q279 547 313 544.5 Q347 542 379.5 533 Q412 524 439.5 507.5 Q467 491 481 463 Q492 443 493.5 421 Q495 399 495 376 L495 156 Z M308 371 Q308 396 297.5 409.5 Q287 423 260 423 Q212 423 212 377 L212 159 Q212 136 224 122.5 Q236 109 260 109 Q286 109 297 121.5 Q308 134 308 158 L308 371 Z " />
<glyph glyph-name="p" unicode="p" horiz-adv-x="521" d="M496 140 Q496 68 462 27.5 Q428 -13 352 -13 Q307 -13 274 2.5 Q241 18 218 58 L218 -169 L30 -169 L30 533 L218 533 L218 467 Q222 475 226 482.5 Q230 490 235 497 Q256 523 286 533.5 Q316 544 348 544 Q420 544 458 508.5 Q496 473 496 401 L496 140 Z M307 381 Q307 427 263 427 Q218 427 218 382 L218 148 Q218 102 263 102 Q307 102 307 146 L307 381 Z " />
<glyph glyph-name="q" unicode="q" horiz-adv-x="521" d="M302 -168 L302 64 Q281 23 247 6 Q213 -11 168 -11 Q94 -11 59 29 Q24 69 24 141 L24 364 Q24 405 30 438 Q36 471 52 494.5 Q68 518 97 531 Q126 544 172 544 Q217 544 248 527.5 Q279 511 302 472 L302 533 L490 533 L490 -168 L302 -168 Z M302 383 Q302 407 291 417.5 Q280 428 256 428 Q231 428 222 415.5 Q213 403 213 380 L213 145 Q213 104 255 104 Q302 104 302 152 L302 383 Z " />
<glyph glyph-name="r" unicode="r" horiz-adv-x="333" d="M333 367 Q307 367 286 366.5 Q265 366 250 359.5 Q235 353 227 336.5 Q219 320 219 288 L219 0 L30 0 L30 533 L219 533 L219 450 Q241 489 264.5 509 Q288 529 333 540 L333 367 Z " />
<glyph glyph-name="s" unicode="s" horiz-adv-x="479" d="M471 154 Q471 102 451.5 69 Q432 36 400.5 17.5 Q369 -1 328 -7.5 Q287 -14 243 -14 Q212 -14 177 -11.5 Q142 -9 110 1.5 Q78 12 53 32 Q28 52 16 87 Q10 104 9.5 122.5 Q9 141 9 159 L198 159 Q198 146 198 133 Q198 120 201 109.5 Q204 99 213 92 Q222 85 240 85 Q280 85 280 127 Q280 136 278 141 Q276 146 270 153 Q266 158 252 165 Q238 172 220.5 180 Q203 188 187.5 194.5 Q172 201 165 204 Q132 219 105 233.5 Q78 248 58.5 267.5 Q39 287 28 314 Q17 341 17 381 Q17 407 21.5 431.5 Q26 456 41 477 Q56 498 81 511 Q106 524 134.5 531 Q163 538 192.5 540.5 Q222 543 246 543 Q271 543 301.5 540 Q332 537 360.5 528.5 Q389 520 413 504 Q437 488 449 462 Q460 440 460 417 Q460 394 460 371 L280 371 Q280 384 280 397 Q280 410 276.5 420.5 Q273 431 264 437.5 Q255 444 237 444 Q219 444 208.5 433.5 Q198 423 198 406 Q198 391 204.5 381 Q211 371 221.5 364.5 Q232 358 244.5 353 Q257 348 269 343 Q290 334 318 321.5 Q346 309 373 294 Q400 279 423 260.5 Q446 242 457 221 Q465 206 468 188.5 Q471 171 471 154 Z " />
<glyph glyph-name="t" unicode="t" horiz-adv-x="354" d="M210 0 Q165 0 131.5 15 Q98 30 84 78 Q80 91 80 105 Q80 119 80 132 L80 430 L0 430 L0 533 L80 533 L80 706 L264 706 L264 533 L348 533 L348 430 L264 430 L264 155 Q264 129 275 119.5 Q286 110 311 109 L353 108 L353 0 L210 0 Z " />
<glyph glyph-name="u" unicode="u" horiz-adv-x="521" d="M300 0 L300 54 Q271 19 240.5 3.5 Q210 -12 164 -12 Q127 -12 102 0.5 Q77 13 61 34 Q45 55 38 84 Q31 113 31 146 L31 533 L219 533 L219 139 Q219 119 228 106 Q237 93 259 93 Q286 93 293 108 Q300 123 300 146 L300 533 L489 533 L489 0 L300 0 Z " />
<glyph glyph-name="v" unicode="v" horiz-adv-x="479" d="M355 0 L129 0 L-1 533 L186 533 Q200 437 214.5 342.5 Q229 248 240 151 Q251 248 265.5 342.5 Q280 437 294 533 L479 533 L355 0 Z " />
<glyph glyph-name="w" unicode="w" horiz-adv-x="750" d="M644 0 L434 0 L372 345 L308 0 L98 0 L-1 533 L187 533 L223 161 L284 533 L467 533 L521 161 L565 533 L750 533 L644 0 Z " />
<glyph glyph-name="x" unicode="x" horiz-adv-x="500" d="M309 0 L248 185 L191 0 L2 0 L125 272 L13 533 L198 533 L248 360 L309 533 L495 533 L372 272 L495 0 L309 0 Z " />
<glyph glyph-name="y" unicode="y" horiz-adv-x="500" d="M351 7 Q336 -48 320.5 -87.5 Q305 -127 280.5 -153 Q256 -179 217.5 -191.5 Q179 -204 117 -204 L34 -204 L39 -87 Q60 -87 78.5 -87.5 Q97 -88 113 -83.5 Q129 -79 141 -67 Q153 -55 161 -31 L0 533 L187 533 L252 209 L314 533 L499 533 L351 7 Z " />
<glyph glyph-name="z" unicode="z" horiz-adv-x="458" d="M15 0 L15 108 L208 426 L51 426 L51 533 L426 533 L426 426 L226 108 L434 108 L434 0 L15 0 Z " />
<glyph glyph-name="braceleft" unicode="&#x7b;" horiz-adv-x="354" d="M322 -145 Q275 -145 249 -143 Q223 -141 203 -135 Q150 -119 128 -80.5 Q106 -42 106 34 L106 127 Q106 154 105 175 Q104 196 101 211 Q99 225 90 240.5 Q81 256 70 264 Q54 279 28 280 L28 354 L33 355 Q55 360 69.5 369.5 Q84 379 92.5 397 Q101 415 104 443 Q107 471 107 513 L106 599 Q105 653 114 683 Q123 713 144 735 Q163 754 183 761 Q197 767 210.5 770.5 Q224 774 241.5 776 Q259 778 282 778.5 Q305 779 339 779 L339 709 Q319 707 310 703.5 Q301 700 292 692 Q280 681 275.5 664.5 Q271 648 271 617 L271 522 L271 482 Q271 394 240 359 Q226 343 209 335 Q192 327 161 320 L161 314 Q186 308 198 303.5 Q210 299 222 291 Q250 271 261 235.5 Q272 200 272 129 L272 29 Q272 -8 275 -24.5 Q278 -41 288 -53 Q307 -75 339 -75 L339 -145 L322 -145 Z " />
<glyph glyph-name="bar" unicode="&#x7c;" horiz-adv-x="247" d="M44 -144 L44 779 L203 779 L203 -144 L44 -144 Z " />
<glyph glyph-name="braceright" unicode="&#x7d;" horiz-adv-x="354" d="M320 280 Q299 276 284.5 266.5 Q270 257 262 238.5 Q254 220 250.5 192 Q247 164 247 122 L247 36 Q247 -18 238.5 -48 Q230 -78 209 -100 Q193 -118 170 -126 Q156 -132 142.5 -135.5 Q129 -139 112 -141 Q95 -143 72 -144 Q49 -145 15 -145 L15 -74 Q35 -72 44 -68.5 Q53 -65 62 -57 Q73 -46 78 -30 Q83 -14 83 18 L83 112 L83 153 Q83 241 114 276 Q128 291 144.5 299.5 Q161 308 193 315 L193 321 Q167 327 155 331.5 Q143 336 132 344 Q104 364 93 400 Q82 436 82 506 L82 606 Q82 643 78.5 659.5 Q75 676 65 688 Q47 709 15 710 L15 780 L31 780 Q78 780 104.5 778 Q131 776 151 770 Q203 755 225 716 Q247 677 247 601 L247 508 Q247 453 253 424 Q255 410 263.5 394.5 Q272 379 283 370 Q300 357 325 354 L325 281 L320 280 Z " />
<glyph glyph-name="asciitilde" unicode="&#x7e;" horiz-adv-x="559" d="M502 267 Q465 229 434.5 213 Q404 197 372 197 Q354 197 335.5 202.5 Q317 208 285 224 L261 236 Q237 248 220.5 252.5 Q204 257 190 257 Q166 257 149 246.5 Q132 236 107 207 L57 349 Q74 367 83 375.5 Q92 384 104 393 Q140 420 183 420 Q201 420 213 416 Q222 414 236.5 408 Q251 402 265 396 L309 376 Q334 365 345.5 361.5 Q357 358 368 358 Q404 358 452 406 L502 267 Z " />
<glyph glyph-name="nbspace" unicode="&#xa0;" horiz-adv-x="271" d="" />
<glyph glyph-name="exclamdown" unicode="&#xa1;" horiz-adv-x="292" d="M37 555 L37 706 L213 706 L213 555 L37 555 Z M37 0 L37 174 Q37 204 40 225 Q43 246 46 276 L64 480 L187 480 L204 280 Q206 251 209.5 230 Q213 209 213 180 L213 0 L37 0 Z " />
<glyph glyph-name="cent" unicode="&#xa2;" horiz-adv-x="500" d="M479 155 Q479 138 478 120.5 Q477 103 470 87 Q460 63 442 45 Q424 27 401 15 Q378 3 352.5 -3.5 Q327 -10 302 -10 L302 -152 L191 -152 L191 -8 Q177 -4 162.5 -2.5 Q148 -1 134 4 Q74 24 48.5 60.5 Q23 97 23 158 L23 376 Q23 393 25 411 Q27 429 33 445 Q42 469 59 486.5 Q76 504 97.5 515.5 Q119 527 143 533.5 Q167 540 191 543 L191 661 L302 661 L302 542 Q325 540 349 533.5 Q373 527 395 516 Q417 505 434.5 489 Q452 473 462 450 Q470 433 471 417.5 Q472 402 472 384 L472 328 L292 328 L292 381 Q292 402 284 413 Q276 424 253 424 Q230 424 220.5 413 Q211 402 211 381 L211 153 Q211 132 220.5 121 Q230 110 253 110 Q271 110 279.5 118 Q288 126 291 138.5 Q294 151 293 165.5 Q292 180 292 192 L479 192 L479 155 Z " />
<glyph glyph-name="sterling" unicode="&#xa3;" horiz-adv-x="625" d="M610 156 Q610 122 604.5 91.5 Q599 61 584.5 38 Q570 15 544.5 1.5 Q519 -12 479 -12 Q434 -12 395 4.5 Q356 21 318 41 Q286 12 247 -1.5 Q208 -15 165 -15 Q137 -15 110.5 -9 Q84 -3 64 11 Q44 25 32 47 Q20 69 20 101 Q20 152 50.5 182.5 Q81 213 132 213 Q152 213 168.5 208.5 Q185 204 203 197 Q198 226 187.5 249 Q177 272 163 298 L32 298 L32 406 L106 406 Q90 440 80.5 473 Q71 506 71 544 Q71 596 90 629.5 Q109 663 141 682.5 Q173 702 214.5 710 Q256 718 301 718 Q328 718 358.5 714.5 Q389 711 418 701.5 Q447 692 472 676 Q497 660 512 635 Q522 619 526.5 597.5 Q531 576 532 553.5 Q533 531 532 509 Q531 487 531 469 L353 469 L353 541 Q353 568 342 582.5 Q331 597 301 597 Q246 597 246 542 Q246 509 261 472 Q276 435 292 406 L486 406 L486 298 L344 298 Q356 269 364 240 Q372 211 372 179 Q372 165 370 152 Q368 139 366 125 Q374 123 382.5 121.5 Q391 120 399 120 Q420 120 429 133 Q438 146 441 164.5 Q444 183 443 203 Q442 223 442 236 L610 236 L610 156 Z M196 108 Q185 114 174.5 119.5 Q164 125 150 125 Q138 125 127 118 Q116 111 116 97 Q116 84 128 78 Q140 72 151 72 Q170 72 179.5 82.5 Q189 93 196 108 Z " />
<glyph glyph-name="currency" unicode="&#xa4;" horiz-adv-x="679" d="M551 -1 L471 84 Q434 65 404 57.5 Q374 50 339 50 Q301 50 271 58 Q241 66 208 84 L126 0 L9 118 L91 202 Q73 235 65.5 267 Q58 299 58 338 Q58 377 66 410 Q74 443 92 475 L9 558 L125 676 L208 594 Q264 628 340 628 Q377 628 406.5 620.5 Q436 613 471 595 L554 678 L670 559 L588 477 Q605 441 613 408 Q621 375 621 340 Q621 304 613 271.5 Q605 239 587 202 L670 115 L551 -1 Z M451 338 Q451 365 442.5 388 Q434 411 419 428 Q404 445 383.5 454.5 Q363 464 340 464 Q316 464 295.5 454.5 Q275 445 260 428 Q245 411 236.5 388 Q228 365 228 339 Q228 313 236.5 290 Q245 267 260 250.5 Q275 234 295.5 224.5 Q316 215 340 215 Q363 215 383.5 224.5 Q404 234 419 251 Q434 268 442.5 290.5 Q451 313 451 338 Z " />
<glyph glyph-name="yen" unicode="&#xa5;" horiz-adv-x="562" d="M452 421 L534 421 L534 321 L416 321 L394 262 L534 262 L534 162 L382 162 L382 0 L185 0 L185 162 L29 162 L29 262 L171 262 L150 321 L29 321 L29 421 L112 421 L0 706 L197 706 L283 397 L365 706 L558 706 L452 421 Z " />
<glyph glyph-name="brokenbar" unicode="&#xa6;" horiz-adv-x="247" d="M44 378 L44 779 L203 779 L203 378 L44 378 Z M44 -144 L44 257 L203 257 L203 -144 L44 -144 Z " />
<glyph glyph-name="section" unicode="&#xa7;" horiz-adv-x="458" d="M439 352 Q439 320 424 293.5 Q409 267 381 250 Q373 245 364 242 Q355 239 346 237 Q381 217 403.5 192.5 Q426 168 426 124 Q426 85 408.5 59 Q391 33 364 17.5 Q337 2 303.5 -4.5 Q270 -11 237 -11 Q172 -11 118.5 5.5 Q65 22 9 52 L71 157 Q83 151 101.5 140.5 Q120 130 140.5 120 Q161 110 180.5 102.5 Q200 95 213 95 Q227 95 238.5 102.5 Q250 110 250 126 Q250 135 244 143 Q238 151 229 157.5 Q220 164 210.5 169 Q201 174 194 178 Q174 189 154.5 200.5 Q135 212 115 223 Q97 234 79 245 Q61 256 47 270 Q33 284 24 301.5 Q15 319 15 342 Q15 388 43 418 Q71 448 113 460 Q95 471 80 481 Q65 491 54 503 Q43 515 36.5 531.5 Q30 548 30 570 Q30 609 46.5 636.5 Q63 664 90 681.5 Q117 699 150.5 707 Q184 715 218 715 Q276 715 320.5 698.5 Q365 682 415 657 L354 554 Q344 559 327.5 567.5 Q311 576 292.5 584.5 Q274 593 257 599.5 Q240 606 229 606 Q216 606 206 599 Q196 592 196 578 Q196 568 203 559.5 Q210 551 219.5 544 Q229 537 240 531.5 Q251 526 258 522 Q278 511 296.5 500 Q315 489 335 478 Q354 467 372.5 455.5 Q391 444 406 429 Q421 414 430 395.5 Q439 377 439 352 Z M322 315 Q322 329 311 342 Q308 346 288.5 358 Q269 370 245.5 383.5 Q222 397 201 409.5 Q180 422 173 426 Q160 418 149.5 408 Q139 398 139 381 Q139 369 146 360 Q153 351 162.5 343.5 Q172 336 183 330.5 Q194 325 203 320 L287 271 Q301 277 311.5 287.5 Q322 298 322 315 Z " />
<glyph glyph-name="dieresis" unicode="&#xa8;" horiz-adv-x="271" d="M169 574 L169 696 L341 696 L341 574 L169 574 Z M-70 574 L-70 696 L102 696 L102 574 L-70 574 Z " />
<glyph glyph-name="copyright" unicode="&#xa9;" horiz-adv-x="833" d="M773 354 Q773 279 745.5 213.5 Q718 148 670 100 Q622 52 556.5 24.5 Q491 -3 416 -3 Q342 -3 277.5 25 Q213 53 165 101 Q117 149 89 214 Q61 279 61 353 Q61 427 88.5 492 Q116 557 164 605 Q212 653 277 681 Q342 709 417 709 Q492 709 557 681.5 Q622 654 670 606 Q718 558 745.5 493 Q773 428 773 354 Z M717 352 Q717 417 693.5 473.5 Q670 530 629.5 571.5 Q589 613 534 637 Q479 661 416 661 Q354 661 299.5 637 Q245 613 204.5 571 Q164 529 140.5 472.5 Q117 416 117 352 Q117 288 140 232 Q163 176 203.5 134.5 Q244 93 298.5 69 Q353 45 416 45 Q479 45 533.5 69 Q588 93 629 134.5 Q670 176 693.5 232 Q717 288 717 352 Z M576 270 Q576 191 540 158.5 Q504 126 416 126 Q394 126 375.5 128 Q357 130 340 135 Q326 139 313 147 Q300 155 289 166 Q270 186 263.5 209.5 Q257 233 257 278 L257 432 Q257 475 264.5 500.5 Q272 526 289 544 Q329 587 420 587 Q505 587 540.5 554.5 Q576 522 576 444 L576 409 L453 409 L453 443 Q453 471 445.5 481.5 Q438 492 418 492 Q394 492 387 475 Q383 467 382 459 Q381 451 381 429 L381 273 Q381 250 381.5 244.5 Q382 239 385 231 Q393 213 417 213 Q439 213 446 224.5 Q453 236 453 271 L453 306 L576 306 L576 270 Z " />
<glyph glyph-name="ordfeminine" unicode="&#xaa;" horiz-adv-x="354" d="M197 357 L197 386 Q162 350 108 350 Q62 350 42.5 372 Q23 394 23 438 L23 451 Q23 492 39 512.5 Q55 533 80.5 544 Q106 555 136.5 561 Q167 567 197 580 L197 600 Q197 612 192.5 619.5 Q188 627 174 627 Q164 627 158.5 622.5 Q153 618 151.5 611 Q150 604 150 595.5 Q150 587 150 580 L37 580 L37 600 Q37 625 42.5 644.5 Q48 664 68 681 Q78 689 92.5 694.5 Q107 700 122.5 703 Q138 706 153.5 707.5 Q169 709 181 709 Q202 709 224.5 706.5 Q247 704 266 696.5 Q285 689 300 674 Q315 659 321 635 Q324 623 324 610.5 Q324 598 324 585 L324 410 Q324 393 328 380 Q332 367 346 357 L197 357 Z M197 518 Q180 511 170 507.5 Q160 504 155 499 Q150 494 148.5 484.5 Q147 475 147 455 Q147 442 149.5 431 Q152 420 169 420 Q197 420 197 448 L197 518 Z " />
<glyph glyph-name="guillemotleft" unicode="&#xab;" horiz-adv-x="375" d="M194 221 L194 366 L354 498 L354 343 L292 293 L354 243 L354 89 L194 221 Z M13 220 L13 367 L171 496 L171 341 L110 293 L171 243 L171 91 L13 220 Z " />
<glyph glyph-name="logicalnot" unicode="&#xac;" horiz-adv-x="559" d="M288 43 L288 229 L49 229 L49 374 L474 374 L474 43 L288 43 Z " />
<glyph glyph-name="registered" unicode="&#xae;" horiz-adv-x="833" d="M773 354 Q773 279 745.5 213.5 Q718 148 670 100 Q622 52 556.5 24.5 Q491 -3 416 -3 Q342 -3 277.5 25 Q213 53 165 101 Q117 149 89 214 Q61 279 61 353 Q61 427 88.5 492 Q116 557 164 605 Q212 653 277 681 Q342 709 417 709 Q492 709 557 681.5 Q622 654 670 606 Q718 558 745.5 493 Q773 428 773 354 Z M717 352 Q717 417 693.5 473.5 Q670 530 629.5 571.5 Q589 613 534 637 Q479 661 416 661 Q354 661 299.5 637 Q245 613 204.5 571 Q164 529 140.5 472.5 Q117 416 117 352 Q117 288 140 232 Q163 176 203.5 134.5 Q244 93 298.5 69 Q353 45 416 45 Q479 45 533.5 69 Q588 93 629 134.5 Q670 176 693.5 232 Q717 288 717 352 Z M466 134 L401 302 L387 302 L387 134 L265 134 L265 577 L452 577 Q518 577 547 555 Q576 533 576 484 L576 408 Q576 336 517 317 L598 134 L466 134 Z M455 448 Q455 483 413 483 L387 483 L387 395 L409 395 Q435 395 445 404 Q455 413 455 436 L455 448 Z " />
<glyph glyph-name="macron" unicode="&#xaf;" horiz-adv-x="271" d="M-31 574 L-31 659 L302 659 L302 574 L-31 574 Z " />
<glyph glyph-name="degree" unicode="&#xb0;" horiz-adv-x="354" d="M349 573 Q349 537 335.5 505.5 Q322 474 298.5 450.5 Q275 427 244 413.5 Q213 400 177 400 Q141 400 110 413.5 Q79 427 55.5 450.5 Q32 474 18.5 505.5 Q5 537 5 573 Q5 609 18.5 640.5 Q32 672 55 695 Q78 718 109.5 731.5 Q141 745 177 745 Q213 745 244.5 731.5 Q276 718 299 695 Q322 672 335.5 640.5 Q349 609 349 573 Z M233 575 Q233 598 216.5 614 Q200 630 177 630 Q154 630 138 614 Q122 598 122 575 Q122 552 138 535.5 Q154 519 177 519 Q200 519 216.5 535.5 Q233 552 233 575 Z " />
<glyph glyph-name="plusminus" unicode="&#xb1;" horiz-adv-x="559" d="M373 347 L372 210 L189 210 L189 347 L81 347 L81 494 L189 494 L189 630 L373 630 L373 494 L479 494 L479 347 L373 347 Z M81 0 L81 147 L479 147 L479 0 L81 0 Z " />
<glyph glyph-name="twosuperior" unicode="&#xb2;" horiz-adv-x="354" d="M26 265 L26 304 Q26 342 36.5 369 Q47 396 65 418 Q83 440 107 459.5 Q131 479 157 502 Q160 504 167 510.5 Q174 517 181.5 524 Q189 531 195 537.5 Q201 544 202 546 Q208 558 207.5 574 Q207 590 207 603 Q207 620 201 628 Q195 636 176 636 Q158 636 149 629.5 Q140 623 140 603 L140 533 L26 533 L26 599 Q26 611 27.5 624 Q29 637 34 648 Q43 668 59.5 680 Q76 692 95.5 699.5 Q115 707 137 709.5 Q159 712 178 712 Q196 712 216.5 710 Q237 708 256 702 Q275 696 291 684.5 Q307 673 316 655 Q324 638 325.5 614.5 Q327 591 327 572 Q327 553 324.5 540 Q322 527 316.5 516.5 Q311 506 301.5 496 Q292 486 278 474 Q265 462 252 450.5 Q239 439 225 428 Q217 421 207 413 Q197 405 187.5 395.5 Q178 386 171 376 Q164 366 162 355 L328 355 L328 265 L26 265 Z " />
<glyph glyph-name="threesuperior" unicode="&#xb3;" horiz-adv-x="354" d="M330 364 Q330 350 328 336.5 Q326 323 318 311 Q308 295 291.5 284.5 Q275 274 256.5 268 Q238 262 218 259.5 Q198 257 180 257 Q160 257 137.5 259.5 Q115 262 94.5 269 Q74 276 57 289.5 Q40 303 31 324 Q27 333 26.5 343.5 Q26 354 26 364 L26 415 L142 415 L142 369 Q142 349 150 343 Q158 337 178 337 Q198 337 204.5 346.5 Q211 356 211 375 L211 421 Q211 438 205 443.5 Q199 449 182 449 L122 449 L122 539 L182 539 Q197 539 204 543 Q211 547 211 564 L211 603 Q211 622 202 627 Q193 632 176 632 Q160 632 152.5 627 Q145 622 142.5 613.5 Q140 605 141 593.5 Q142 582 142 570 L31 570 L31 604 Q31 637 44 658 Q57 679 78 691 Q99 703 126 707.5 Q153 712 180 712 Q198 712 218 710 Q238 708 256 702 Q274 696 290 685.5 Q306 675 316 658 Q326 642 328 623 Q330 604 330 586 Q330 557 319.5 534.5 Q309 512 283 498 Q314 487 322 468 Q330 449 330 420 L330 364 Z " />
<glyph glyph-name="acute" unicode="&#xb4;" horiz-adv-x="271" d="M145 572 L-5 572 L72 696 L276 696 L145 572 Z " />
<glyph glyph-name="mu" unicode="&#xb5;" horiz-adv-x="521" d="M301 0 L300 54 Q291 22 280.5 10 Q270 -2 250 -2 Q231 -2 219 11 L219 -168 L31 -168 L31 533 L219 533 L219 139 Q219 93 260 93 Q282 93 291 105 Q300 117 300 146 L300 533 L489 533 L489 68 Q489 54 490 44.5 Q491 35 493.5 28 Q496 21 500.5 14.5 Q505 8 513 0 L301 0 Z " />
<glyph glyph-name="paragraph" unicode="&#xb6;" horiz-adv-x="580" d="M489 612 L489 -168 L386 -168 L386 612 L309 612 L309 -167 L206 -167 L206 301 Q47 342 47 497 Q47 583 100 638 Q135 675 182.5 690.5 Q230 706 309 706 L525 706 L525 612 L489 612 Z " />
<glyph glyph-name="periodcentered" unicode="&#xb7;" horiz-adv-x="250" d="M37 268 L37 432 L211 432 L211 268 L37 268 Z " />
<glyph glyph-name="cedilla" unicode="&#xb8;" horiz-adv-x="271" d="M248 -103 Q248 -133 232.5 -153 Q217 -173 193.5 -186 Q170 -199 142.5 -204.5 Q115 -210 91 -210 Q81 -210 72 -209 Q63 -208 54 -207 L36 -155 Q44 -157 52.5 -159 Q61 -161 69 -161 Q87 -161 103 -153 Q119 -145 119 -124 Q119 -110 109.5 -101 Q100 -92 86 -92 Q75 -92 65 -97 Q55 -102 46 -107 L23 -63 L125 42 L222 42 L154 -34 Q159 -34 163 -33.5 Q167 -33 172 -33 Q205 -33 226.5 -51 Q248 -69 248 -103 Z " />
<glyph glyph-name="onesuperior" unicode="&#xb9;" horiz-adv-x="354" d="M129 265 L129 582 Q112 572 96 565.5 Q80 559 60 557 L60 641 Q89 648 103.5 663.5 Q118 679 129 706 L248 706 L248 265 L129 265 Z " />
<glyph glyph-name="ordmasculine" unicode="&#xba;" horiz-adv-x="354" d="M330 461 Q330 425 319 403 Q308 381 288.5 368.5 Q269 356 242 352 Q215 348 183 348 Q152 348 123 351 Q94 354 72 365 Q50 376 37 398 Q24 420 24 458 L24 594 Q24 606 24.5 620.5 Q25 635 30 646 Q39 669 55.5 681.5 Q72 694 92 701 Q112 708 134.5 709.5 Q157 711 178 711 Q205 711 232 707 Q259 703 280.5 692 Q302 681 316 661 Q330 641 330 608 L330 461 Z M203 589 Q203 604 198.5 614.5 Q194 625 177 625 Q160 625 154.5 616.5 Q149 608 149 592 L149 465 Q149 449 154.5 440.5 Q160 432 177 432 Q194 432 198.5 441 Q203 450 203 464 L203 589 Z " />
<glyph glyph-name="guillemotright" unicode="&#xbb;" horiz-adv-x="375" d="M202 87 L202 241 L262 290 L202 341 L202 493 L360 364 L360 217 L202 87 Z M19 87 L19 240 L80 290 L19 341 L19 495 L179 363 L179 218 L19 87 Z " />
<glyph glyph-name="onequarter" unicode="&#xbc;" horiz-adv-x="833" d="M761 88 L761 0 L645 0 L645 88 L498 88 L498 179 L630 442 L761 442 L761 179 L812 179 L812 88 L761 88 Z M348 0 L253 0 L468 706 L564 706 L348 0 Z M129 265 L129 582 Q112 572 96 565.5 Q80 559 60 557 L60 641 Q89 648 103.5 663.5 Q118 679 129 706 L248 706 L248 265 L129 265 Z M645 312 L577 179 L645 179 L645 312 Z " />
<glyph glyph-name="onehalf" unicode="&#xbd;" horiz-adv-x="833" d="M504 0 L504 39 Q504 78 515 105 Q526 132 544 153.5 Q562 175 586 194.5 Q610 214 636 237 Q639 240 646 246 Q653 252 660.5 258.5 Q668 265 674 271 Q680 277 681 280 Q687 291 686.5 308.5 Q686 326 686 338 Q686 355 680 363 Q674 371 655 371 Q637 371 628 364 Q619 357 619 338 Q619 335 620 334 L620 268 L504 268 L504 326 Q504 340 506 355.5 Q508 371 514 384 Q523 403 539.5 415.5 Q556 428 575.5 435 Q595 442 616.5 444.5 Q638 447 657 447 Q676 447 696 445 Q716 443 735 437 Q754 431 769.5 419.5 Q785 408 795 390 Q804 373 805 350 Q806 327 806 307 Q806 289 803.5 276 Q801 263 796 253 Q791 243 782 233 Q773 223 759 211 Q745 199 732 187.5 Q719 176 705 164 Q697 157 687 149 Q677 141 667 131.5 Q657 122 650 111.5 Q643 101 641 90 L808 90 L808 0 L504 0 Z M322 0 L226 0 L441 706 L537 706 L322 0 Z M129 265 L129 582 Q112 572 96 565.5 Q80 559 60 557 L60 641 Q89 648 103.5 663.5 Q118 679 129 706 L248 706 L248 265 L129 265 Z " />
<glyph glyph-name="threequarters" unicode="&#xbe;" horiz-adv-x="833" d="M761 88 L761 0 L645 0 L645 88 L498 88 L498 179 L630 442 L761 442 L761 179 L812 179 L812 88 L761 88 Z M378 0 L282 0 L497 706 L593 706 L378 0 Z M330 364 Q330 350 328 336.5 Q326 323 318 311 Q308 295 291.5 284.5 Q275 274 256.5 268 Q238 262 218 259.5 Q198 257 180 257 Q160 257 137.5 259.5 Q115 262 94.5 269 Q74 276 57 289.5 Q40 303 31 324 Q27 333 26.5 343.5 Q26 354 26 364 L26 415 L142 415 L142 369 Q142 349 150 343 Q158 337 178 337 Q198 337 204.5 346.5 Q211 356 211 375 L211 421 Q211 438 205 443.5 Q199 449 182 449 L122 449 L122 539 L182 539 Q197 539 204 543 Q211 547 211 564 L211 603 Q211 622 202 627 Q193 632 176 632 Q160 632 152.5 627 Q145 622 142.5 613.5 Q140 605 141 593.5 Q142 582 142 570 L31 570 L31 604 Q31 637 44 658 Q57 679 78 691 Q99 703 126 707.5 Q153 712 180 712 Q198 712 218 710 Q238 708 256 702 Q274 696 290 685.5 Q306 675 316 658 Q326 642 328 623 Q330 604 330 586 Q330 557 319.5 534.5 Q309 512 283 498 Q314 487 322 468 Q330 449 330 420 L330 364 Z M645 312 L577 179 L645 179 L645 312 Z " />
<glyph glyph-name="questiondown" unicode="&#xbf;" horiz-adv-x="479" d="M181 552 L181 706 L355 706 L355 552 L181 552 Z M400 141 Q400 122 396.5 101 Q393 80 383 63 Q370 42 350.5 28 Q331 14 307.5 5.5 Q284 -3 259 -6 Q234 -9 211 -9 Q185 -9 156.5 -5.5 Q128 -2 102 7 Q76 16 54.5 32.5 Q33 49 20 75 Q12 92 9.5 110 Q7 128 7 147 Q7 181 16.5 205.5 Q26 230 42 250 Q58 270 79 288 Q100 306 123 327 Q128 331 135.5 338.5 Q143 346 151 354 Q159 362 165.5 370 Q172 378 175 383 Q179 391 180.5 403 Q182 415 182 428.5 Q182 442 181.5 454.5 Q181 467 181 476 L355 476 L355 439 Q355 419 353.5 400 Q352 381 344 362 Q337 344 322.5 325 Q308 306 290.5 288 Q273 270 255 253.5 Q237 237 223 223 Q212 212 199 200.5 Q186 189 178 176 Q173 167 170 159.5 Q167 152 167 141 Q167 123 177 110.5 Q187 98 206 98 Q223 98 231.5 106 Q240 114 243 126 Q246 138 245.5 151.5 Q245 165 245 177 L400 177 L400 141 Z " />
<glyph glyph-name="Agrave" unicode="&#xc0;" horiz-adv-x="562" d="M212 765 L109 876 L300 876 L362 765 L212 765 Z M363 0 L341 159 L220 159 L196 0 L-2 0 L162 706 L400 706 L560 0 L363 0 Z M281 568 L238 285 L323 285 L281 568 Z " />
<glyph glyph-name="Aacute" unicode="&#xc1;" horiz-adv-x="562" d="M346 764 L197 764 L258 876 L449 876 L346 764 Z M363 0 L341 159 L220 159 L196 0 L-2 0 L162 706 L400 706 L560 0 L363 0 Z M281 568 L238 285 L323 285 L281 568 Z " />
<glyph glyph-name="Acircumflex" unicode="&#xc2;" horiz-adv-x="562" d="M311 758 L282 803 L254 758 L105 758 L182 867 L385 867 L460 758 L311 758 Z M363 0 L341 159 L220 159 L196 0 L-2 0 L162 706 L400 706 L560 0 L363 0 Z M281 568 L238 285 L323 285 L281 568 Z " />
<glyph glyph-name="Atilde" unicode="&#xc3;" horiz-adv-x="562" d="M455 861 Q454 846 452 829 Q450 812 443 798 Q428 769 401.5 755 Q375 741 343 741 Q324 741 305.5 746 Q287 751 269 757.5 Q251 764 234 769 Q217 774 199 774 Q185 774 177.5 766.5 Q170 759 166 746 L106 746 Q107 759 107.5 770.5 Q108 782 113 794 Q126 828 155 846 Q184 864 219 864 Q239 864 258.5 859.5 Q278 855 296.5 849 Q315 843 333 838.5 Q351 834 367 834 Q382 834 389 840.5 Q396 847 400 861 L455 861 Z M363 0 L341 159 L220 159 L196 0 L-2 0 L162 706 L400 706 L560 0 L363 0 Z M281 568 L238 285 L323 285 L281 568 Z " />
<glyph glyph-name="Adieresis" unicode="&#xc4;" horiz-adv-x="562" d="M316 760 L316 870 L481 870 L481 760 L316 760 Z M80 760 L80 870 L246 870 L246 760 L80 760 Z M363 0 L341 160 L220 160 L196 0 L-2 0 L162 706 L399 706 L560 0 L363 0 Z M281 567 L238 285 L323 285 L281 567 Z " />
<glyph glyph-name="Aring" unicode="&#xc5;" horiz-adv-x="562" d="M387 826 Q387 805 379 786 Q371 767 357 753 Q343 739 324 731 Q305 723 284 723 Q263 723 244 731 Q225 739 211.5 753.5 Q198 768 190 786.5 Q182 805 182 826 Q182 847 190 865.5 Q198 884 212 898 Q226 912 244.5 920 Q263 928 284 928 Q305 928 323.5 920 Q342 912 356.5 898 Q371 884 379 865.5 Q387 847 387 826 Z M363 0 L341 161 L220 161 L195 0 L-2 0 L165 706 L402 706 L560 0 L363 0 Z M317 826 Q317 839 307.5 848.5 Q298 858 285 858 Q271 858 262 849 Q253 840 253 826 Q253 812 262 802.5 Q271 793 285 793 Q299 793 308 803 Q317 813 317 826 Z M283 570 L240 286 L323 286 L283 570 Z " />
<glyph glyph-name="AE" unicode="&#xc6;" horiz-adv-x="792" d="M398 0 L398 189 L260 189 L199 0 L-1 0 L256 706 L777 706 L777 571 L590 571 L590 424 L765 424 L765 290 L590 290 L590 133 L777 133 L777 0 L398 0 Z M398 600 L303 315 L398 315 L398 600 Z " />
<glyph glyph-name="Ccedilla" unicode="&#xc7;" horiz-adv-x="542" d="M527 210 Q527 173 523 141 Q519 109 506.5 83 Q494 57 470 37 Q446 17 407 4 Q384 -4 357.5 -8 Q331 -12 307 -12 L288 -34 Q293 -34 297 -33.5 Q301 -33 306 -33 Q338 -33 359.5 -51.5 Q381 -70 381 -103 Q381 -133 365.5 -153 Q350 -173 326.5 -186 Q303 -199 275.5 -204.5 Q248 -210 224 -210 Q214 -210 205 -209 Q196 -208 187 -207 L170 -155 Q178 -157 186 -159 Q194 -161 203 -161 Q222 -161 237 -153.5 Q252 -146 252 -124 Q252 -110 242.5 -101 Q233 -92 219 -92 Q208 -92 198 -96.5 Q188 -101 179 -107 L157 -63 L210 -9 Q118 5 73.5 49.5 Q29 94 29 187 L29 505 Q29 531 32.5 561.5 Q36 592 47 616 Q62 647 88 667 Q114 687 145 698.5 Q176 710 210 714.5 Q244 719 275 719 Q305 719 339 714.5 Q373 710 404.5 699 Q436 688 462.5 669 Q489 650 505 620 Q515 602 519 580 Q523 558 524 534.5 Q525 511 524.5 488.5 Q524 466 524 446 L329 446 L329 530 Q329 579 279 579 Q227 579 227 530 L227 172 Q227 125 277 125 Q305 125 317 137 Q329 149 329 176 L329 261 L526 261 Q527 248 527 235.5 Q527 223 527 210 Z " />
<glyph glyph-name="Egrave" unicode="&#xc8;" horiz-adv-x="437" d="M155 765 L52 876 L243 876 L305 765 L155 765 Z M34 0 L34 706 L420 706 L420 569 L233 569 L233 426 L406 426 L406 291 L233 291 L233 136 L420 136 L420 0 L34 0 Z " />
<glyph glyph-name="Eacute" unicode="&#xc9;" horiz-adv-x="437" d="M289 764 L140 764 L201 876 L392 876 L289 764 Z M34 0 L34 706 L420 706 L420 569 L233 569 L233 426 L406 426 L406 291 L233 291 L233 136 L420 136 L420 0 L34 0 Z " />
<glyph glyph-name="Ecircumflex" unicode="&#xca;" horiz-adv-x="437" d="M254 758 L224 803 L197 758 L48 758 L125 867 L327 867 L402 758 L254 758 Z M34 0 L34 706 L420 706 L420 569 L233 569 L233 426 L406 426 L406 291 L233 291 L233 136 L420 136 L420 0 L34 0 Z " />
<glyph glyph-name="Edieresis" unicode="&#xcb;" horiz-adv-x="437" d="M258 756 L258 867 L424 867 L424 756 L258 756 Z M23 756 L23 867 L189 867 L189 756 L23 756 Z M34 0 L34 706 L420 706 L420 569 L233 569 L233 426 L406 426 L406 291 L233 291 L233 136 L420 136 L420 0 L34 0 Z " />
<glyph glyph-name="Igrave" unicode="&#xcc;" horiz-adv-x="271" d="M66 765 L-36 876 L154 876 L216 765 L66 765 Z M35 0 L35 706 L235 706 L235 0 L35 0 Z " />
<glyph glyph-name="Iacute" unicode="&#xcd;" horiz-adv-x="271" d="M200 764 L51 764 L112 876 L303 876 L200 764 Z M35 0 L35 706 L235 706 L235 0 L35 0 Z " />
<glyph glyph-name="Icircumflex" unicode="&#xce;" horiz-adv-x="271" d="M165 758 L136 803 L108 758 L-41 758 L36 867 L239 867 L314 758 L165 758 Z M35 0 L35 706 L235 706 L235 0 L35 0 Z " />
<glyph glyph-name="Idieresis" unicode="&#xcf;" horiz-adv-x="271" d="M170 756 L170 867 L335 867 L335 756 L170 756 Z M-66 756 L-66 867 L100 867 L100 756 L-66 756 Z M35 0 L35 706 L235 706 L235 0 L35 0 Z " />
<glyph glyph-name="Eth" unicode="&#xd0;" horiz-adv-x="562" d="M533 243 Q533 215 532 187.5 Q531 160 525.5 134 Q520 108 507.5 84.5 Q495 61 472 42 Q439 14 400.5 7 Q362 0 320 0 L34 0 L34 334 L0 334 L0 435 L34 435 L34 706 L274 706 Q310 706 348.5 702.5 Q387 699 422 686.5 Q457 674 484 650 Q511 626 523 586 Q530 563 531.5 536.5 Q533 510 533 487 L533 243 Z M334 507 Q334 539 324.5 554.5 Q315 570 280 570 L234 570 L234 435 L295 435 L295 334 L234 334 L234 132 L278 132 Q311 132 322.5 145 Q334 158 334 190 L334 507 Z " />
<glyph glyph-name="Ntilde" unicode="&#xd1;" horiz-adv-x="562" d="M460 861 Q460 846 458 829 Q456 812 449 798 Q434 769 407.5 755 Q381 741 349 741 Q329 741 310.5 746 Q292 751 274 757.5 Q256 764 239 769 Q222 774 204 774 Q190 774 182.5 766.5 Q175 759 171 746 L112 746 Q112 797 141 830.5 Q170 864 224 864 Q244 864 263.5 859.5 Q283 855 302 849 Q321 843 339 838.5 Q357 834 372 834 Q387 834 394 840.5 Q401 847 405 861 L460 861 Z M338 0 L227 335 Q211 382 199 431 L202 0 L36 0 L36 706 L219 706 L321 401 Q332 368 342 334.5 Q352 301 361 267 L359 706 L525 706 L525 0 L338 0 Z " />
<glyph glyph-name="Ograve" unicode="&#xd2;" horiz-adv-x="562" d="M212 765 L109 876 L300 876 L362 765 L212 765 Z M531 208 Q531 179 528.5 150.5 Q526 122 514 96 Q500 65 474.5 44.5 Q449 24 417.5 11.5 Q386 -1 352 -5.5 Q318 -10 287 -10 Q254 -10 217.5 -6 Q181 -2 147 10 Q113 22 85 43.5 Q57 65 43 99 Q32 125 29.5 152 Q27 179 27 207 L27 497 Q27 523 29 552.5 Q31 582 42 606 Q57 640 83 661.5 Q109 683 141.5 695 Q174 707 209.5 711.5 Q245 716 278 716 Q308 716 341.5 712.5 Q375 709 406 698.5 Q437 688 464 670.5 Q491 653 507 624 Q524 594 527.5 557.5 Q531 521 531 487 L531 208 Z M331 530 Q331 558 319.5 570 Q308 582 279 582 Q252 582 239.5 570.5 Q227 559 227 532 L227 175 Q227 148 240 136.5 Q253 125 281 125 Q308 125 319.5 137 Q331 149 331 175 L331 530 Z " />
<glyph glyph-name="Oacute" unicode="&#xd3;" horiz-adv-x="562" d="M346 764 L197 764 L258 876 L449 876 L346 764 Z M531 208 Q531 179 528.5 150.5 Q526 122 514 96 Q500 65 474.5 44.5 Q449 24 417.5 11.5 Q386 -1 352 -5.5 Q318 -10 287 -10 Q254 -10 217.5 -6 Q181 -2 147 10 Q113 22 85 43.5 Q57 65 43 99 Q32 125 29.5 152 Q27 179 27 207 L27 497 Q27 523 29 552.5 Q31 582 42 606 Q57 640 83 661.5 Q109 683 141.5 695 Q174 707 209.5 711.5 Q245 716 278 716 Q308 716 341.5 712.5 Q375 709 406 698.5 Q437 688 464 670.5 Q491 653 507 624 Q524 594 527.5 557.5 Q531 521 531 487 L531 208 Z M331 530 Q331 558 319.5 570 Q308 582 279 582 Q252 582 239.5 570.5 Q227 559 227 532 L227 175 Q227 148 240 136.5 Q253 125 281 125 Q308 125 319.5 137 Q331 149 331 175 L331 530 Z " />
<glyph glyph-name="Ocircumflex" unicode="&#xd4;" horiz-adv-x="562" d="M311 758 L282 803 L254 758 L105 758 L182 867 L385 867 L460 758 L311 758 Z M531 208 Q531 179 528.5 150.5 Q526 122 514 96 Q500 65 474.5 44.5 Q449 24 417.5 11.5 Q386 -1 352 -5.5 Q318 -10 287 -10 Q254 -10 217.5 -6 Q181 -2 147 10 Q113 22 85 43.5 Q57 65 43 99 Q32 125 29.5 152 Q27 179 27 207 L27 497 Q27 523 29 552.5 Q31 582 42 606 Q57 640 83 661.5 Q109 683 141.5 695 Q174 707 209.5 711.5 Q245 716 278 716 Q308 716 341.5 712.5 Q375 709 406 698.5 Q437 688 464 670.5 Q491 653 507 624 Q524 594 527.5 557.5 Q531 521 531 487 L531 208 Z M331 530 Q331 558 319.5 570 Q308 582 279 582 Q252 582 239.5 570.5 Q227 559 227 532 L227 175 Q227 148 240 136.5 Q253 125 281 125 Q308 125 319.5 137 Q331 149 331 175 L331 530 Z " />
<glyph glyph-name="Otilde" unicode="&#xd5;" horiz-adv-x="562" d="M455 861 Q454 846 452 829 Q450 812 443 798 Q428 769 401.5 755 Q375 741 343 741 Q324 741 305.5 746 Q287 751 269 757.5 Q251 764 234 769 Q217 774 199 774 Q185 774 177.5 766.5 Q170 759 166 746 L106 746 Q107 759 107.5 770.5 Q108 782 113 794 Q126 828 155 846 Q184 864 219 864 Q239 864 258.5 859.5 Q278 855 296.5 849 Q315 843 333 838.5 Q351 834 367 834 Q382 834 389 840.5 Q396 847 400 861 L455 861 Z M531 208 Q531 179 528.5 150.5 Q526 122 514 96 Q500 65 474.5 44.5 Q449 24 417.5 11.5 Q386 -1 352 -5.5 Q318 -10 287 -10 Q254 -10 217.5 -6 Q181 -2 147 10 Q113 22 85 43.5 Q57 65 43 99 Q32 125 29.5 152 Q27 179 27 207 L27 497 Q27 523 29 552.5 Q31 582 42 606 Q57 640 83 661.5 Q109 683 141.5 695 Q174 707 209.5 711.5 Q245 716 278 716 Q308 716 341.5 712.5 Q375 709 406 698.5 Q437 688 464 670.5 Q491 653 507 624 Q524 594 527.5 557.5 Q531 521 531 487 L531 208 Z M331 530 Q331 558 319.5 570 Q308 582 279 582 Q252 582 239.5 570.5 Q227 559 227 532 L227 175 Q227 148 240 136.5 Q253 125 281 125 Q308 125 319.5 137 Q331 149 331 175 L331 530 Z " />
<glyph glyph-name="Odieresis" unicode="&#xd6;" horiz-adv-x="562" d="M315 754 L315 865 L480 865 L480 754 L315 754 Z M79 754 L79 865 L246 865 L246 754 L79 754 Z M531 208 Q531 179 528.5 150.5 Q526 122 514 96 Q500 65 474.5 44.5 Q449 24 417.5 11.5 Q386 -1 352 -5.5 Q318 -10 287 -10 Q254 -10 217.5 -6 Q181 -2 147 10 Q113 22 85 43.5 Q57 65 43 99 Q32 125 29.5 152 Q27 179 27 207 L27 497 Q27 523 29 552.5 Q31 582 42 606 Q57 640 83 661.5 Q109 683 141.5 695 Q174 707 209.5 711.5 Q245 716 278 716 Q308 716 341.5 712.5 Q375 709 406 698.5 Q437 688 464 670.5 Q491 653 507 624 Q524 594 527.5 557.5 Q531 521 531 487 L531 208 Z M331 530 Q331 558 319.5 570 Q308 582 279 582 Q252 582 239.5 570.5 Q227 559 227 532 L227 175 Q227 148 240 136.5 Q253 125 281 125 Q308 125 319.5 137 Q331 149 331 175 L331 530 Z " />
<glyph glyph-name="multiply" unicode="&#xd7;" horiz-adv-x="558" d="M361 96 L272 185 L193 98 L90 197 L171 287 L81 380 L205 508 L292 419 L370 505 L474 408 L393 318 L485 224 L361 96 Z " />
<glyph glyph-name="Oslash" unicode="&#xd8;" horiz-adv-x="562" d="M511 623 Q524 594 526 569 Q528 544 528 512 L528 204 Q528 178 526 146.5 Q524 115 513 91 Q500 59 475 39.5 Q450 20 419.5 9 Q389 -2 356 -6 Q323 -10 292 -10 Q239 -10 194 -2.5 Q149 5 103 32 L69 -15 L13 24 L53 82 Q36 118 34 159 Q32 200 32 239 L32 522 Q32 547 35 571.5 Q38 596 49 619 Q64 651 91 670 Q118 689 150.5 700 Q183 711 217.5 714.5 Q252 718 283 718 Q314 718 353 713 Q392 708 421 695 Q432 690 442 684.5 Q452 679 462 674 L494 720 L551 681 L511 623 Z M335 529 Q335 555 323 568 Q311 581 283 581 Q254 581 241.5 567.5 Q229 554 229 527 L229 336 L335 490 L335 529 Z M335 368 L229 215 L229 172 Q229 121 281 121 Q310 121 322.5 134.5 Q335 148 335 176 L335 368 Z " />
<glyph glyph-name="Ugrave" unicode="&#xd9;" horiz-adv-x="562" d="M212 765 L109 876 L300 876 L362 765 L212 765 Z M529 171 Q529 130 519.5 99.5 Q510 69 478 42 Q459 25 435 15 Q411 5 385 -0.5 Q359 -6 332.5 -8 Q306 -10 281 -10 Q251 -10 216.5 -7 Q182 -4 150 6 Q118 16 91 34 Q64 52 48 82 Q37 102 34 125.5 Q31 149 31 172 L31 706 L229 706 L229 187 Q229 161 240 145.5 Q251 130 280 130 Q309 130 319.5 145.5 Q330 161 330 187 L330 706 L529 706 L529 171 Z " />
<glyph glyph-name="Uacute" unicode="&#xda;" horiz-adv-x="562" d="M346 764 L197 764 L258 876 L449 876 L346 764 Z M529 171 Q529 130 519.5 99.5 Q510 69 478 42 Q459 25 435 15 Q411 5 385 -0.5 Q359 -6 332.5 -8 Q306 -10 281 -10 Q251 -10 216.5 -7 Q182 -4 150 6 Q118 16 91 34 Q64 52 48 82 Q37 102 34 125.5 Q31 149 31 172 L31 706 L229 706 L229 187 Q229 161 240 145.5 Q251 130 280 130 Q309 130 319.5 145.5 Q330 161 330 187 L330 706 L529 706 L529 171 Z " />
<glyph glyph-name="Ucircumflex" unicode="&#xdb;" horiz-adv-x="562" d="M311 758 L282 803 L254 758 L105 758 L182 867 L385 867 L460 758 L311 758 Z M529 171 Q529 130 519.5 99.5 Q510 69 478 42 Q459 25 435 15 Q411 5 385 -0.5 Q359 -6 332.5 -8 Q306 -10 281 -10 Q251 -10 216.5 -7 Q182 -4 150 6 Q118 16 91 34 Q64 52 48 82 Q37 102 34 125.5 Q31 149 31 172 L31 706 L229 706 L229 187 Q229 161 240 145.5 Q251 130 280 130 Q309 130 319.5 145.5 Q330 161 330 187 L330 706 L529 706 L529 171 Z " />
<glyph glyph-name="Udieresis" unicode="&#xdc;" horiz-adv-x="562" d="M314 758 L314 868 L479 868 L479 758 L314 758 Z M78 758 L78 868 L244 868 L244 758 L78 758 Z M529 171 Q529 130 519.5 99.5 Q510 69 478 42 Q459 25 435 15 Q411 5 385 -0.5 Q359 -6 332.5 -8 Q306 -10 281 -10 Q251 -10 216.5 -7 Q182 -4 150 6 Q118 16 91 34 Q64 52 48 82 Q37 102 34 125.5 Q31 149 31 172 L31 706 L229 706 L229 187 Q229 161 240 145.5 Q251 130 280 130 Q309 130 319.5 145.5 Q330 161 330 187 L330 706 L529 706 L529 171 Z " />
<glyph glyph-name="Yacute" unicode="&#xdd;" horiz-adv-x="562" d="M346 764 L197 764 L258 876 L449 876 L346 764 Z M382 227 L382 0 L185 0 L185 227 L0 706 L197 706 L282 400 L365 706 L558 706 L382 227 Z " />
<glyph glyph-name="Thorn" unicode="&#xde;" horiz-adv-x="542" d="M525 340 Q525 317 523 287 Q521 257 513 236 Q501 201 479.5 181 Q458 161 431 151.5 Q404 142 373 139.5 Q342 137 310 137 L233 137 L233 0 L35 0 L35 706 L233 706 L233 589 L337 589 Q365 589 391.5 586 Q418 583 440.5 573.5 Q463 564 481 546 Q499 528 510 499 Q516 484 519 463.5 Q522 443 523.5 421 Q525 399 525 377.5 Q525 356 525 340 Z M333 402 Q333 431 322.5 442 Q312 453 283 453 L233 453 L233 272 L283 272 Q315 272 324 285.5 Q333 299 333 329 L333 402 Z " />
<glyph glyph-name="germandbls" unicode="&#xdf;" horiz-adv-x="521" d="M503 148 Q503 67 467.5 31.5 Q432 -4 348 -4 Q325 -4 301 -2.5 Q277 -1 254 1 L254 77 Q271 77 284 78.5 Q297 80 305.5 85 Q314 90 318 101.5 Q322 113 322 132 L322 289 Q322 309 317.5 319.5 Q313 330 304.5 334.5 Q296 339 283.5 339.5 Q271 340 254 340 L254 449 Q280 449 292.5 456 Q305 463 305 492 L305 555 Q305 578 296.5 592.5 Q288 607 262 607 Q239 607 228.5 595 Q218 583 218 562 L218 0 L30 0 L30 546 Q30 566 32 585.5 Q34 605 42 623 Q55 654 79.5 673 Q104 692 134.5 702 Q165 712 197.5 715 Q230 718 260 718 Q298 718 338 713 Q378 708 411 692 Q444 676 465 647 Q486 618 486 571 L486 494 Q486 450 471.5 428 Q457 406 416 392 Q441 383 458 373 Q475 363 485 348.5 Q495 334 499 314.5 Q503 295 503 268 L503 148 Z " />
<glyph glyph-name="agrave" unicode="&#xe0;" horiz-adv-x="521" d="M208 572 L77 696 L281 696 L359 572 L208 572 Z M300 0 L300 47 Q263 17 230 2 Q197 -13 148 -13 Q110 -13 77 3.5 Q44 20 29 58 Q23 73 22 97.5 Q21 122 21 138 Q21 183 30.5 211.5 Q40 240 59.5 258 Q79 276 108.5 287 Q138 298 178 307 Q210 315 240 322 Q270 329 300 343 L300 377 Q300 399 291.5 411 Q283 423 258 423 Q241 423 232.5 416 Q224 409 221 397.5 Q218 386 218 373 Q218 360 218 348 L43 348 L43 387 Q43 408 45.5 426.5 Q48 445 59 464 Q74 491 99 507 Q124 523 153.5 531.5 Q183 540 214 542.5 Q245 545 273 545 Q300 545 330 542 Q360 539 388 529.5 Q416 520 439 503 Q462 486 475 459 Q484 440 486.5 420 Q489 400 489 380 L489 68 Q489 44 492.5 30.5 Q496 17 513 0 L300 0 Z M300 256 Q291 253 277.5 248 Q264 243 251.5 237 Q239 231 228.5 223.5 Q218 216 213 206 Q211 201 210.5 195.5 Q210 190 210 185 L210 135 Q210 114 220 102 Q230 90 252 90 Q278 90 289 101.5 Q300 113 300 138 L300 256 Z " />
<glyph glyph-name="aacute" unicode="&#xe1;" horiz-adv-x="521" d="M341 572 L192 572 L269 696 L472 696 L341 572 Z M300 0 L300 47 Q263 17 230 2 Q197 -13 148 -13 Q110 -13 77 3.5 Q44 20 29 58 Q23 73 22 97.5 Q21 122 21 138 Q21 183 30.5 211.5 Q40 240 59.5 258 Q79 276 108.5 287 Q138 298 178 307 Q210 315 240 322 Q270 329 300 343 L300 377 Q300 399 291.5 411 Q283 423 258 423 Q241 423 232.5 416 Q224 409 221 397.5 Q218 386 218 373 Q218 360 218 348 L43 348 L43 387 Q43 408 45.5 426.5 Q48 445 59 464 Q74 491 99 507 Q124 523 153.5 531.5 Q183 540 214 542.5 Q245 545 273 545 Q300 545 330 542 Q360 539 388 529.5 Q416 520 439 503 Q462 486 475 459 Q484 440 486.5 420 Q489 400 489 380 L489 68 Q489 44 492.5 30.5 Q496 17 513 0 L300 0 Z M300 256 Q291 253 277.5 248 Q264 243 251.5 237 Q239 231 228.5 223.5 Q218 216 213 206 Q211 201 210.5 195.5 Q210 190 210 185 L210 135 Q210 114 220 102 Q230 90 252 90 Q278 90 289 101.5 Q300 113 300 138 L300 256 Z " />
<glyph glyph-name="acircumflex" unicode="&#xe2;" horiz-adv-x="521" d="M309 574 L271 627 L232 574 L87 574 L176 696 L365 696 L455 574 L309 574 Z M300 0 L300 47 Q263 17 230 2 Q197 -13 148 -13 Q110 -13 77 3.5 Q44 20 29 58 Q23 73 22 97.5 Q21 122 21 138 Q21 183 30.5 211.5 Q40 240 59.5 258 Q79 276 108.5 287 Q138 298 178 307 Q210 315 240 322 Q270 329 300 343 L300 377 Q300 399 291.5 411 Q283 423 258 423 Q241 423 232.5 416 Q224 409 221 397.5 Q218 386 218 373 Q218 360 218 348 L43 348 L43 387 Q43 408 45.5 426.5 Q48 445 59 464 Q74 491 99 507 Q124 523 153.5 531.5 Q183 540 214 542.5 Q245 545 273 545 Q300 545 330 542 Q360 539 388 529.5 Q416 520 439 503 Q462 486 475 459 Q484 440 486.5 420 Q489 400 489 380 L489 68 Q489 44 492.5 30.5 Q496 17 513 0 L300 0 Z M300 256 Q291 253 277.5 248 Q264 243 251.5 237 Q239 231 228.5 223.5 Q218 216 213 206 Q211 201 210.5 195.5 Q210 190 210 185 L210 135 Q210 114 220 102 Q230 90 252 90 Q278 90 289 101.5 Q300 113 300 138 L300 256 Z " />
<glyph glyph-name="atilde" unicode="&#xe3;" horiz-adv-x="521" d="M444 693 Q445 643 419 608 Q393 573 339 573 Q314 573 290.5 578.5 Q267 584 243 592 Q230 596 216 600.5 Q202 605 188 605 Q174 605 166.5 597.5 Q159 590 155 577 L95 577 Q97 591 98 604 Q99 617 105 631 Q119 663 146 679 Q173 695 208 695 Q231 695 254 689.5 Q277 684 300 677 Q314 673 328 669 Q342 665 356 665 Q372 665 378.5 672 Q385 679 389 693 L444 693 Z M300 0 L300 47 Q263 17 230 2 Q197 -13 148 -13 Q110 -13 77 3.5 Q44 20 29 58 Q23 73 22 97.5 Q21 122 21 138 Q21 183 30.5 211.5 Q40 240 59.5 258 Q79 276 108.5 287 Q138 298 178 307 Q210 315 240 322 Q270 329 300 343 L300 377 Q300 399 291.5 411 Q283 423 258 423 Q241 423 232.5 416 Q224 409 221 397.5 Q218 386 218 373 Q218 360 218 348 L43 348 L43 387 Q43 408 45.5 426.5 Q48 445 59 464 Q74 491 99 507 Q124 523 153.5 531.5 Q183 540 214 542.5 Q245 545 273 545 Q300 545 330 542 Q360 539 388 529.5 Q416 520 439 503 Q462 486 475 459 Q484 440 486.5 420 Q489 400 489 380 L489 68 Q489 44 492.5 30.5 Q496 17 513 0 L300 0 Z M300 256 Q291 253 277.5 248 Q264 243 251.5 237 Q239 231 228.5 223.5 Q218 216 213 206 Q211 201 210.5 195.5 Q210 190 210 185 L210 135 Q210 114 220 102 Q230 90 252 90 Q278 90 289 101.5 Q300 113 300 138 L300 256 Z " />
<glyph glyph-name="adieresis" unicode="&#xe4;" horiz-adv-x="521" d="M300 573 L300 695 L473 695 L473 573 L300 573 Z M62 573 L62 695 L233 695 L233 573 L62 573 Z M300 0 L300 47 Q263 17 230 2 Q197 -13 148 -13 Q110 -13 77 3.5 Q44 20 29 58 Q23 73 22 97.5 Q21 122 21 138 Q21 183 30.5 211.5 Q40 240 59.5 258 Q79 276 108.5 287 Q138 298 178 307 Q210 315 240 322 Q270 329 300 343 L300 377 Q300 399 291.5 411 Q283 423 258 423 Q241 423 232.5 416 Q224 409 221 397.5 Q218 386 218 373 Q218 360 218 348 L43 348 L43 387 Q43 408 45.5 426.5 Q48 445 59 464 Q74 491 99 507 Q124 523 153.5 531.5 Q183 540 214 542.5 Q245 545 273 545 Q300 545 330 542 Q360 539 388 529.5 Q416 520 439 503 Q462 486 475 459 Q484 440 486.5 420 Q489 400 489 380 L489 68 Q489 44 492.5 30.5 Q496 17 513 0 L300 0 Z M300 256 Q291 253 277.5 248 Q264 243 251.5 237 Q239 231 228.5 223.5 Q218 216 213 206 Q211 201 210.5 195.5 Q210 190 210 185 L210 135 Q210 114 220 102 Q230 90 252 90 Q278 90 289 101.5 Q300 113 300 138 L300 256 Z " />
<glyph glyph-name="aring" unicode="&#xe5;" horiz-adv-x="521" d="M369 666 Q369 645 361 626.5 Q353 608 339 594 Q325 580 306.5 572 Q288 564 267 564 Q246 564 227.5 572 Q209 580 195 594 Q181 608 173 626.5 Q165 645 165 666 Q165 687 173 705.5 Q181 724 195 738.5 Q209 753 227.5 761 Q246 769 267 769 Q288 769 307 761 Q326 753 339.5 738.5 Q353 724 361 705.5 Q369 687 369 666 Z M300 0 L300 47 Q263 17 230 2 Q197 -13 148 -13 Q110 -13 77 3.5 Q44 20 29 58 Q23 73 22 97.5 Q21 122 21 138 Q21 183 30.5 211.5 Q40 240 59.5 258 Q79 276 108.5 287 Q138 298 178 307 Q210 315 240 322 Q270 329 300 343 L300 377 Q300 399 291.5 411 Q283 423 258 423 Q241 423 232.5 416 Q224 409 221 397.5 Q218 386 218 373 Q218 360 218 348 L43 348 L43 387 Q43 408 45.5 426.5 Q48 445 59 464 Q74 491 99 507 Q124 523 153.5 531.5 Q183 540 214 542.5 Q245 545 273 545 Q300 545 330 542 Q360 539 388 529.5 Q416 520 439 503 Q462 486 475 459 Q484 440 486.5 420 Q489 400 489 380 L489 68 Q489 44 492.5 30.5 Q496 17 513 0 L300 0 Z M299 666 Q299 679 290 689 Q281 699 267 699 Q253 699 244 689.5 Q235 680 235 666 Q235 653 244.5 643.5 Q254 634 267 634 Q280 634 289.5 643.5 Q299 653 299 666 Z M300 256 Q291 253 277.5 248 Q264 243 251.5 237 Q239 231 228.5 223.5 Q218 216 213 206 Q211 201 210.5 195.5 Q210 190 210 185 L210 135 Q210 114 220 102 Q230 90 252 90 Q278 90 289 101.5 Q300 113 300 138 L300 256 Z " />
<glyph glyph-name="ae" unicode="&#xe6;" horiz-adv-x="771" d="M750 150 Q750 135 748.5 119 Q747 103 742 89 Q730 57 706.5 37.5 Q683 18 653 7 Q623 -4 590.5 -8 Q558 -12 528 -12 Q501 -12 470.5 -9.5 Q440 -7 411 0.5 Q382 8 356.5 22.5 Q331 37 314 61 Q276 24 239 5 Q202 -14 147 -14 Q78 -14 48.5 18 Q19 50 19 115 Q19 126 19 140.5 Q19 155 20 170 Q21 185 23 199 Q25 213 28 223 Q37 248 55 263 Q73 278 96.5 287.5 Q120 297 145 302 Q170 307 192 312 Q219 318 245 324 Q271 330 297 340 L297 381 Q297 403 287.5 415 Q278 427 254 427 Q236 427 227.5 419.5 Q219 412 215.5 400 Q212 388 212.5 374 Q213 360 213 348 L38 348 L38 388 Q38 434 54 464 Q70 494 97.5 512 Q125 530 161.5 537 Q198 544 238 544 Q283 544 320.5 534 Q358 524 389 490 Q424 524 462.5 534 Q501 544 549 544 Q575 544 602 540.5 Q629 537 654 527.5 Q679 518 700 502 Q721 486 734 461 Q745 440 747.5 414 Q750 388 750 365 L750 239 L482 239 L482 155 Q482 109 528 109 Q548 109 557 116.5 Q566 124 569.5 135.5 Q573 147 572.5 161.5 Q572 176 572 189 L750 189 L750 150 Z M572 388 Q572 432 528 432 Q482 432 482 386 L482 321 L572 321 L572 388 Z M297 256 Q288 253 274.5 248 Q261 243 248 237 Q235 231 224.5 223.5 Q214 216 210 206 Q206 197 205.5 186.5 Q205 176 205 166 L205 149 Q205 126 213 110 Q221 94 247 94 Q274 94 285.5 110 Q297 126 297 151 L297 256 Z " />
<glyph glyph-name="ccedilla" unicode="&#xe7;" horiz-adv-x="500" d="M479 155 Q479 138 478 120.5 Q477 103 470 87 Q459 60 439 41.5 Q419 23 394 11.5 Q369 0 341.5 -5.5 Q314 -11 287 -11 L267 -34 Q272 -34 276 -33.5 Q280 -33 285 -33 Q317 -33 338.5 -51.5 Q360 -70 360 -103 Q360 -133 344.5 -153 Q329 -173 305.5 -186 Q282 -199 254.5 -204.5 Q227 -210 203 -210 Q193 -210 184 -209 Q175 -208 166 -207 L149 -155 Q157 -157 165 -159 Q173 -161 182 -161 Q200 -161 215.5 -153 Q231 -145 231 -124 Q231 -110 221.5 -101 Q212 -92 198 -92 Q187 -92 177 -96.5 Q167 -101 158 -107 L136 -63 L190 -8 Q166 -5 141.5 1.5 Q117 8 95.5 20 Q74 32 57 50 Q40 68 31 93 Q26 108 24.5 125 Q23 142 23 158 L23 370 Q23 394 26 418.5 Q29 443 42 464 Q57 490 80.5 506 Q104 522 131 530.5 Q158 539 187 542 Q216 545 243 545 Q272 545 304.5 542 Q337 539 366.5 529.5 Q396 520 421 502 Q446 484 460 454 Q468 436 470 420 Q472 404 472 384 L472 328 L292 328 L292 381 Q292 402 284 413 Q276 424 253 424 Q230 424 220.5 413 Q211 402 211 381 L211 153 Q211 132 220.5 121 Q230 110 253 110 Q271 110 279.5 118 Q288 126 291 138.5 Q294 151 293 165.5 Q292 180 292 192 L479 192 L479 155 Z " />
<glyph glyph-name="egrave" unicode="&#xe8;" horiz-adv-x="500" d="M197 572 L67 696 L270 696 L348 572 L197 572 Z M480 156 Q480 101 462 67.5 Q444 34 413 16 Q382 -2 340.5 -7.5 Q299 -13 253 -13 Q224 -13 190.5 -10.5 Q157 -8 126.5 2 Q96 12 71 30.5 Q46 49 34 81 Q26 102 24.5 124 Q23 146 23 168 L23 354 Q23 379 25.5 405 Q28 431 36 454 Q48 486 71 504 Q94 522 123 531.5 Q152 541 184 543.5 Q216 546 245 546 Q274 546 308.5 543 Q343 540 375.5 529.5 Q408 519 433.5 500 Q459 481 471 448 Q477 432 478.5 414.5 Q480 397 480 380 L480 238 L213 238 L213 159 Q213 134 221 120.5 Q229 107 257 107 Q276 107 285 114.5 Q294 122 297 133.5 Q300 145 299.5 158.5 Q299 172 299 185 L480 185 L480 156 Z M302 388 Q302 411 292 422.5 Q282 434 257 434 Q233 434 223 422 Q213 410 213 387 L213 323 L302 323 L302 388 Z " />
<glyph glyph-name="eacute" unicode="&#xe9;" horiz-adv-x="500" d="M330 572 L182 572 L258 696 L462 696 L330 572 Z M480 156 Q480 101 462 67.5 Q444 34 413 16 Q382 -2 340.5 -7.5 Q299 -13 253 -13 Q224 -13 190.5 -10.5 Q157 -8 126.5 2 Q96 12 71 30.5 Q46 49 34 81 Q26 102 24.5 124 Q23 146 23 168 L23 354 Q23 379 25.5 405 Q28 431 36 454 Q48 486 71 504 Q94 522 123 531.5 Q152 541 184 543.5 Q216 546 245 546 Q274 546 308.5 543 Q343 540 375.5 529.5 Q408 519 433.5 500 Q459 481 471 448 Q477 432 478.5 414.5 Q480 397 480 380 L480 238 L213 238 L213 159 Q213 134 221 120.5 Q229 107 257 107 Q276 107 285 114.5 Q294 122 297 133.5 Q300 145 299.5 158.5 Q299 172 299 185 L480 185 L480 156 Z M302 388 Q302 411 292 422.5 Q282 434 257 434 Q233 434 223 422 Q213 410 213 387 L213 323 L302 323 L302 388 Z " />
<glyph glyph-name="ecircumflex" unicode="&#xea;" horiz-adv-x="500" d="M299 574 L261 627 L222 574 L76 574 L166 696 L355 696 L444 574 L299 574 Z M480 156 Q480 101 462 67.5 Q444 34 413 16 Q382 -2 340.5 -7.5 Q299 -13 253 -13 Q224 -13 190.5 -10.5 Q157 -8 126.5 2 Q96 12 71 30.5 Q46 49 34 81 Q26 102 24.5 124 Q23 146 23 168 L23 354 Q23 379 25.5 405 Q28 431 36 454 Q48 486 71 504 Q94 522 123 531.5 Q152 541 184 543.5 Q216 546 245 546 Q274 546 308.5 543 Q343 540 375.5 529.5 Q408 519 433.5 500 Q459 481 471 448 Q477 432 478.5 414.5 Q480 397 480 380 L480 238 L213 238 L213 159 Q213 134 221 120.5 Q229 107 257 107 Q276 107 285 114.5 Q294 122 297 133.5 Q300 145 299.5 158.5 Q299 172 299 185 L480 185 L480 156 Z M302 388 Q302 411 292 422.5 Q282 434 257 434 Q233 434 223 422 Q213 410 213 387 L213 323 L302 323 L302 388 Z " />
<glyph glyph-name="edieresis" unicode="&#xeb;" horiz-adv-x="500" d="M294 574 L294 696 L466 696 L466 574 L294 574 Z M56 574 L56 696 L227 696 L227 574 L56 574 Z M480 156 Q480 101 462 67.5 Q444 34 413 16 Q382 -2 340.5 -7.5 Q299 -13 253 -13 Q224 -13 190.5 -10.5 Q157 -8 126.5 2 Q96 12 71 30.5 Q46 49 34 81 Q26 102 24.5 124 Q23 146 23 168 L23 354 Q23 379 25.5 405 Q28 431 36 454 Q48 486 71 504 Q94 522 123 531.5 Q152 541 184 543.5 Q216 546 245 546 Q274 546 308.5 543 Q343 540 375.5 529.5 Q408 519 433.5 500 Q459 481 471 448 Q477 432 478.5 414.5 Q480 397 480 380 L480 238 L213 238 L213 159 Q213 134 221 120.5 Q229 107 257 107 Q276 107 285 114.5 Q294 122 297 133.5 Q300 145 299.5 158.5 Q299 172 299 185 L480 185 L480 156 Z M302 388 Q302 411 292 422.5 Q282 434 257 434 Q233 434 223 422 Q213 410 213 387 L213 323 L302 323 L302 388 Z " />
<glyph glyph-name="igrave" unicode="&#xec;" horiz-adv-x="250" d="M62 572 L-68 696 L135 696 L213 572 L62 572 Z M30 0 L30 533 L219 533 L219 0 L30 0 Z " />
<glyph glyph-name="iacute" unicode="&#xed;" horiz-adv-x="250" d="M195 572 L46 572 L123 696 L326 696 L195 572 Z M30 0 L30 533 L219 533 L219 0 L30 0 Z " />
<glyph glyph-name="icircumflex" unicode="&#xee;" horiz-adv-x="250" d="M163 574 L126 627 L86 574 L-59 574 L30 696 L220 696 L309 574 L163 574 Z M30 0 L30 533 L219 533 L219 0 L30 0 Z " />
<glyph glyph-name="idieresis" unicode="&#xef;" horiz-adv-x="250" d="M159 574 L159 696 L330 696 L330 574 L159 574 Z M-80 574 L-80 696 L91 696 L91 574 L-80 574 Z M30 0 L30 533 L219 533 L219 0 L30 0 Z " />
<glyph glyph-name="eth" unicode="&#xf0;" horiz-adv-x="521" d="M428 626 Q439 615 445.5 602.5 Q452 590 459 576 Q484 524 489.5 477.5 Q495 431 495 374 L495 156 Q495 103 478 70 Q461 37 431 19 Q401 1 360.5 -5.5 Q320 -12 273 -12 Q238 -12 200 -10 Q162 -8 128 2.5 Q94 13 68 35.5 Q42 58 31 99 Q27 115 26 130 Q25 145 25 161 L25 376 Q25 399 27.5 422.5 Q30 446 41 467 Q53 490 72.5 505 Q92 520 115.5 529 Q139 538 164 541.5 Q189 545 212 545 Q247 545 269 534.5 Q291 524 314 498 Q310 515 306 527 Q302 539 297.5 549 Q293 559 286.5 569.5 Q280 580 270 594 L131 565 L106 628 L219 652 Q209 660 199.5 668 Q190 676 180 684 L335 733 Q337 731 344.5 724 Q352 717 360.5 708.5 Q369 700 375.5 693.5 Q382 687 382 687 L470 705 L496 640 L428 626 Z M308 371 Q308 396 297.5 409.5 Q287 423 260 423 Q212 423 212 377 L212 159 Q212 136 224 122.5 Q236 109 260 109 Q286 109 297 121.5 Q308 134 308 158 L308 371 Z " />
<glyph glyph-name="ntilde" unicode="&#xf1;" horiz-adv-x="521" d="M434 693 Q434 642 408.5 607.5 Q383 573 329 573 Q303 573 280 578.5 Q257 584 233 592 Q221 596 206 600.5 Q191 605 178 605 Q163 605 156 597.5 Q149 590 144 577 L85 577 L85 580 Q85 632 115 663.5 Q145 695 197 695 Q221 695 244 689.5 Q267 684 290 677 Q304 673 318 669 Q332 665 346 665 Q362 665 369 672 Q376 679 378 693 L434 693 Z M299 0 L299 381 Q299 402 292 416.5 Q285 431 260 431 Q235 431 227 417 Q219 403 219 382 L219 0 L30 0 L30 533 L219 533 L219 480 Q243 511 273 527.5 Q303 544 343 544 Q369 544 391.5 538 Q414 532 436 517 Q456 503 466.5 485.5 Q477 468 482 448.5 Q487 429 488 407.5 Q489 386 489 364 L489 0 L299 0 Z " />
<glyph glyph-name="ograve" unicode="&#xf2;" horiz-adv-x="521" d="M197 572 L67 696 L270 696 L348 572 L197 572 Z M495 156 Q495 103 478 70 Q461 37 431 19 Q401 1 360.5 -5.5 Q320 -12 273 -12 Q238 -12 200 -10 Q162 -8 128 2.5 Q94 13 68 35.5 Q42 58 31 99 Q27 115 26 130 Q25 145 25 161 L25 376 Q25 396 26.5 415.5 Q28 435 36 455 Q49 486 73.5 504.5 Q98 523 128 532.5 Q158 542 190.5 544.5 Q223 547 252 547 Q279 547 313 544.5 Q347 542 379.5 533 Q412 524 439.5 507.5 Q467 491 481 463 Q492 443 493.5 421 Q495 399 495 376 L495 156 Z M308 371 Q308 396 297.5 409.5 Q287 423 260 423 Q212 423 212 377 L212 159 Q212 136 224 122.5 Q236 109 260 109 Q286 109 297 121.5 Q308 134 308 158 L308 371 Z " />
<glyph glyph-name="oacute" unicode="&#xf3;" horiz-adv-x="521" d="M330 572 L182 572 L258 696 L462 696 L330 572 Z M495 156 Q495 103 478 70 Q461 37 431 19 Q401 1 360.5 -5.5 Q320 -12 273 -12 Q238 -12 200 -10 Q162 -8 128 2.5 Q94 13 68 35.5 Q42 58 31 99 Q27 115 26 130 Q25 145 25 161 L25 376 Q25 396 26.5 415.5 Q28 435 36 455 Q49 486 73.5 504.5 Q98 523 128 532.5 Q158 542 190.5 544.5 Q223 547 252 547 Q279 547 313 544.5 Q347 542 379.5 533 Q412 524 439.5 507.5 Q467 491 481 463 Q492 443 493.5 421 Q495 399 495 376 L495 156 Z M308 371 Q308 396 297.5 409.5 Q287 423 260 423 Q212 423 212 377 L212 159 Q212 136 224 122.5 Q236 109 260 109 Q286 109 297 121.5 Q308 134 308 158 L308 371 Z " />
<glyph glyph-name="ocircumflex" unicode="&#xf4;" horiz-adv-x="521" d="M299 574 L261 627 L222 574 L76 574 L166 696 L355 696 L444 574 L299 574 Z M495 156 Q495 103 478 70 Q461 37 431 19 Q401 1 360.5 -5.5 Q320 -12 273 -12 Q238 -12 200 -10 Q162 -8 128 2.5 Q94 13 68 35.5 Q42 58 31 99 Q27 115 26 130 Q25 145 25 161 L25 376 Q25 396 26.5 415.5 Q28 435 36 455 Q49 486 73.5 504.5 Q98 523 128 532.5 Q158 542 190.5 544.5 Q223 547 252 547 Q279 547 313 544.5 Q347 542 379.5 533 Q412 524 439.5 507.5 Q467 491 481 463 Q492 443 493.5 421 Q495 399 495 376 L495 156 Z M308 371 Q308 396 297.5 409.5 Q287 423 260 423 Q212 423 212 377 L212 159 Q212 136 224 122.5 Q236 109 260 109 Q286 109 297 121.5 Q308 134 308 158 L308 371 Z " />
<glyph glyph-name="otilde" unicode="&#xf5;" horiz-adv-x="521" d="M434 693 Q434 642 408.5 607.5 Q383 573 329 573 Q303 573 280 578.5 Q257 584 233 592 Q221 596 206 600.5 Q191 605 178 605 Q163 605 156 597.5 Q149 590 144 577 L85 577 L85 580 Q85 632 115 663.5 Q145 695 197 695 Q221 695 244 689.5 Q267 684 290 677 Q304 673 318 669 Q332 665 346 665 Q362 665 369 672 Q376 679 378 693 L434 693 Z M495 156 Q495 103 478 70 Q461 37 431 19 Q401 1 360.5 -5.5 Q320 -12 273 -12 Q238 -12 200 -10 Q162 -8 128 2.5 Q94 13 68 35.5 Q42 58 31 99 Q27 115 26 130 Q25 145 25 161 L25 376 Q25 396 26.5 415.5 Q28 435 36 455 Q49 486 73.5 504.5 Q98 523 128 532.5 Q158 542 190.5 544.5 Q223 547 252 547 Q279 547 313 544.5 Q347 542 379.5 533 Q412 524 439.5 507.5 Q467 491 481 463 Q492 443 493.5 421 Q495 399 495 376 L495 156 Z M308 371 Q308 396 297.5 409.5 Q287 423 260 423 Q212 423 212 377 L212 159 Q212 136 224 122.5 Q236 109 260 109 Q286 109 297 121.5 Q308 134 308 158 L308 371 Z " />
<glyph glyph-name="odieresis" unicode="&#xf6;" horiz-adv-x="521" d="M293 575 L293 697 L465 697 L465 575 L293 575 Z M54 575 L54 697 L225 697 L225 575 L54 575 Z M495 156 Q495 103 478 70 Q461 37 431 19 Q401 1 360.5 -5.5 Q320 -12 273 -12 Q238 -12 200 -10 Q162 -8 128 2.5 Q94 13 68 35.5 Q42 58 31 99 Q27 115 26 130 Q25 145 25 161 L25 376 Q25 396 26.5 415.5 Q28 435 36 455 Q49 486 73.5 504.5 Q98 523 128 532.5 Q158 542 190.5 544.5 Q223 547 252 547 Q279 547 313 544.5 Q347 542 379.5 533 Q412 524 439.5 507.5 Q467 491 481 463 Q492 443 493.5 421 Q495 399 495 376 L495 156 Z M308 371 Q308 396 297.5 409.5 Q287 423 260 423 Q212 423 212 377 L212 159 Q212 136 224 122.5 Q236 109 260 109 Q286 109 297 121.5 Q308 134 308 158 L308 371 Z " />
<glyph glyph-name="divide" unicode="&#xf7;" horiz-adv-x="559" d="M199 426 L199 596 L361 596 L361 426 L199 426 Z M66 227 L66 374 L492 374 L492 227 L66 227 Z M199 6 L199 176 L361 176 L361 6 L199 6 Z " />
<glyph glyph-name="oslash" unicode="&#xf8;" horiz-adv-x="521" d="M470 467 Q486 440 489.5 418.5 Q493 397 493 366 L493 191 Q493 168 492.5 146.5 Q492 125 487.5 105.5 Q483 86 473 68.5 Q463 51 444 35 Q428 22 405.5 13 Q383 4 358 -1 Q333 -6 308.5 -8.5 Q284 -11 264 -11 Q213 -11 173 -2.5 Q133 6 88 30 L53 -10 L7 30 L42 72 Q30 95 28 116.5 Q26 138 26 164 L26 364 Q26 388 28 412 Q30 436 41 458 Q55 486 80 502.5 Q105 519 135.5 528 Q166 537 198 540 Q230 543 257 543 Q307 543 343.5 536 Q380 529 423 507 L457 547 L504 507 L470 467 Z M311 387 Q311 415 301 429 Q291 443 260 443 Q232 443 220 430 Q208 417 208 391 L208 261 L311 380 L311 387 Z M311 286 L208 165 L208 139 Q208 113 220 101.5 Q232 90 259 90 Q287 90 299 104 Q311 118 311 144 L311 286 Z " />
<glyph glyph-name="ugrave" unicode="&#xf9;" horiz-adv-x="521" d="M197 572 L67 696 L270 696 L348 572 L197 572 Z M300 0 L300 54 Q271 19 240.5 3.5 Q210 -12 164 -12 Q127 -12 102 0.5 Q77 13 61 34 Q45 55 38 84 Q31 113 31 146 L31 533 L219 533 L219 139 Q219 119 228 106 Q237 93 259 93 Q286 93 293 108 Q300 123 300 146 L300 533 L489 533 L489 0 L300 0 Z " />
<glyph glyph-name="uacute" unicode="&#xfa;" horiz-adv-x="521" d="M330 572 L182 572 L258 696 L462 696 L330 572 Z M300 0 L300 54 Q271 19 240.5 3.5 Q210 -12 164 -12 Q127 -12 102 0.5 Q77 13 61 34 Q45 55 38 84 Q31 113 31 146 L31 533 L219 533 L219 139 Q219 119 228 106 Q237 93 259 93 Q286 93 293 108 Q300 123 300 146 L300 533 L489 533 L489 0 L300 0 Z " />
<glyph glyph-name="ucircumflex" unicode="&#xfb;" horiz-adv-x="521" d="M299 574 L261 627 L222 574 L76 574 L166 696 L355 696 L444 574 L299 574 Z M300 0 L300 54 Q271 19 240.5 3.5 Q210 -12 164 -12 Q127 -12 102 0.5 Q77 13 61 34 Q45 55 38 84 Q31 113 31 146 L31 533 L219 533 L219 139 Q219 119 228 106 Q237 93 259 93 Q286 93 293 108 Q300 123 300 146 L300 533 L489 533 L489 0 L300 0 Z " />
<glyph glyph-name="udieresis" unicode="&#xfc;" horiz-adv-x="521" d="M290 574 L290 696 L462 696 L462 574 L290 574 Z M52 574 L52 696 L222 696 L222 574 L52 574 Z M300 0 L300 54 Q271 19 240.5 3.5 Q210 -12 164 -12 Q127 -12 102 0.5 Q77 13 61 34 Q45 55 38 84 Q31 113 31 146 L31 533 L219 533 L219 139 Q219 119 228 106 Q237 93 259 93 Q286 93 293 108 Q300 123 300 146 L300 533 L489 533 L489 0 L300 0 Z " />
<glyph glyph-name="yacute" unicode="&#xfd;" horiz-adv-x="500" d="M320 572 L171 572 L248 696 L451 696 L320 572 Z M351 7 Q336 -48 320.5 -87.5 Q305 -127 280.5 -153 Q256 -179 217.5 -191.5 Q179 -204 117 -204 L34 -204 L39 -87 Q60 -87 78.5 -87.5 Q97 -88 113 -83.5 Q129 -79 141 -67 Q153 -55 161 -31 L0 533 L187 533 L252 209 L314 533 L499 533 L351 7 Z " />
<glyph glyph-name="thorn" unicode="&#xfe;" horiz-adv-x="521" d="M496 140 Q496 68 462 27.5 Q428 -13 352 -13 Q320 -13 290 -3.5 Q260 6 237 31 Q232 37 227.5 44 Q223 51 218 58 L218 -169 L30 -169 L30 706 L220 706 L220 469 Q238 511 271 527.5 Q304 544 348 544 Q420 544 458 508.5 Q496 473 496 401 L496 140 Z M307 381 Q307 427 263 427 Q218 427 218 382 L218 148 Q218 102 263 102 Q307 102 307 146 L307 381 Z " />
<glyph glyph-name="ydieresis" unicode="&#xff;" horiz-adv-x="500" d="M284 574 L284 696 L455 696 L455 574 L284 574 Z M45 574 L45 696 L216 696 L216 574 L45 574 Z M351 7 Q336 -48 320.5 -87.5 Q305 -127 280.5 -153 Q256 -179 217.5 -191.5 Q179 -204 117 -204 L34 -204 L39 -87 Q60 -87 78.5 -87.5 Q97 -88 113 -83.5 Q129 -79 141 -67 Q153 -55 161 -31 L0 533 L187 533 L252 209 L314 533 L499 533 L351 7 Z " />
<glyph glyph-name="dotlessi" unicode="&#x131;" horiz-adv-x="250" d="M30 0 L30 533 L219 533 L219 0 L30 0 Z " />
<glyph glyph-name="Lslash" unicode="&#x141;" horiz-adv-x="417" d="M36 0 L36 225 L0 199 L0 319 L36 346 L36 706 L233 706 L233 493 L364 591 L364 466 L233 370 L233 134 L416 134 L416 0 L36 0 Z " />
<glyph glyph-name="lslash" unicode="&#x142;" horiz-adv-x="250" d="M219 421 L219 0 L31 0 L31 238 L0 208 L0 325 L31 355 L31 706 L219 706 L219 540 L250 570 L250 451 L219 421 Z " />
<glyph glyph-name="OE" unicode="&#x152;" horiz-adv-x="729" d="M329 0 L329 30 Q304 7 273.5 -1.5 Q243 -10 210 -10 Q178 -10 143 -2 Q108 6 82 28 Q62 45 51 66 Q40 87 35 110.5 Q30 134 29 158.5 Q28 183 28 208 L28 220 L28 542 Q28 631 70.5 674.5 Q113 718 205 718 Q241 718 270.5 710 Q300 702 329 680 L329 706 L711 706 L711 567 L527 567 L527 427 L697 427 L697 291 L527 291 L527 136 L711 136 L711 0 L329 0 Z M331 538 Q331 568 321 583.5 Q311 599 278 599 Q248 599 238.5 582 Q229 565 229 539 L229 152 Q229 104 277 104 Q331 104 331 157 L331 538 Z " />
<glyph glyph-name="oe" unicode="&#x153;" horiz-adv-x="771" d="M749 150 Q749 130 747 108 Q745 86 736 68 Q724 44 703 28.5 Q682 13 657.5 4.5 Q633 -4 606 -7.5 Q579 -11 555 -11 Q520 -11 482.5 -4 Q445 3 416 24 Q409 29 403 34.5 Q397 40 390 45 Q355 13 318.5 -1 Q282 -15 235 -15 Q207 -15 176.5 -11 Q146 -7 118.5 3.5 Q91 14 69 33.5 Q47 53 36 83 Q29 102 27 125 Q25 148 25 168 L25 376 Q25 396 28 417 Q31 438 41 456 Q54 481 75.5 497.5 Q97 514 123 523.5 Q149 533 177 537 Q205 541 231 541 Q279 541 316 528.5 Q353 516 390 487 Q425 520 462.5 532 Q500 544 548 544 Q574 544 602 540 Q630 536 655.5 526 Q681 516 702.5 499.5 Q724 483 736 457 Q745 437 747 416 Q749 395 749 374 L749 238 L482 238 L482 160 Q482 137 489.5 121 Q497 105 524 105 Q544 105 553.5 112.5 Q563 120 567 131.5 Q571 143 570.5 157.5 Q570 172 570 186 L749 186 L749 150 Z M570 385 Q570 430 526 430 Q482 430 482 385 L482 321 L570 321 L570 385 Z M294 380 Q294 423 252 423 Q229 423 219.5 411 Q210 399 210 378 L210 152 Q210 132 220 119 Q230 106 252 106 Q274 106 284 118.5 Q294 131 294 152 L294 380 Z " />
<glyph glyph-name="Scaron" unicode="&#x160;" horiz-adv-x="521" d="M360 758 L158 758 L83 868 L231 868 L261 822 L289 868 L437 868 L360 758 Z M502 186 Q502 159 497.5 130 Q493 101 479 77 Q463 50 437.5 32.5 Q412 15 382.5 5.5 Q353 -4 321.5 -7.5 Q290 -11 261 -11 Q242 -11 223.5 -9.5 Q205 -8 186 -6 Q131 0 86.5 24 Q42 48 24 105 Q17 127 15.5 150.5 Q14 174 14 197 Q14 205 14 212 Q14 219 15 227 L208 227 Q208 212 207 194 Q206 176 210 160 Q214 144 224.5 133.5 Q235 123 257 123 Q287 123 295.5 139.5 Q304 156 304 182 Q304 193 302 203 Q300 213 293 222 Q289 228 278 237 Q267 246 255 255 Q243 264 231 272 Q219 280 211 285 Q193 298 167 316 Q141 334 115.5 354 Q90 374 69.5 396 Q49 418 40 439 Q32 459 30.5 479 Q29 499 29 519 Q29 545 32.5 570 Q36 595 47 618 Q62 649 86 668.5 Q110 688 139.5 699 Q169 710 201 714 Q233 718 264 718 Q294 718 325.5 713.5 Q357 709 386 698 Q415 687 439 668 Q463 649 478 619 Q492 590 493 552.5 Q494 515 494 483 L309 483 Q309 497 310 514.5 Q311 532 307.5 547 Q304 562 294 572 Q284 582 263 582 Q241 582 230 569.5 Q219 557 219 536 Q219 513 233.5 499.5 Q248 486 265 474 Q287 458 314 439.5 Q341 421 368 401 Q395 381 419.5 360.5 Q444 340 461 320 Q473 306 480.5 292 Q488 278 493 261 Q498 243 500 224 Q502 205 502 186 Z " />
<glyph glyph-name="scaron" unicode="&#x161;" horiz-adv-x="479" d="M334 575 L145 575 L57 696 L201 696 L239 644 L278 696 L424 696 L334 575 Z M471 154 Q471 102 451.5 69 Q432 36 400.5 17.5 Q369 -1 328 -7.5 Q287 -14 243 -14 Q212 -14 177 -11.5 Q142 -9 110 1.5 Q78 12 53 32 Q28 52 16 87 Q10 104 9.5 122.5 Q9 141 9 159 L198 159 Q198 146 198 133 Q198 120 201 109.5 Q204 99 213 92 Q222 85 240 85 Q280 85 280 127 Q280 136 278 141 Q276 146 270 153 Q266 158 252 165 Q238 172 220.5 180 Q203 188 187.5 194.5 Q172 201 165 204 Q132 219 105 233.5 Q78 248 58.5 267.5 Q39 287 28 314 Q17 341 17 381 Q17 407 21.5 431.5 Q26 456 41 477 Q56 498 81 511 Q106 524 134.5 531 Q163 538 192.5 540.5 Q222 543 246 543 Q271 543 301.5 540 Q332 537 360.5 528.5 Q389 520 413 504 Q437 488 449 462 Q460 440 460 417 Q460 394 460 371 L280 371 Q280 384 280 397 Q280 410 276.5 420.5 Q273 431 264 437.5 Q255 444 237 444 Q219 444 208.5 433.5 Q198 423 198 406 Q198 391 204.5 381 Q211 371 221.5 364.5 Q232 358 244.5 353 Q257 348 269 343 Q290 334 318 321.5 Q346 309 373 294 Q400 279 423 260.5 Q446 242 457 221 Q465 206 468 188.5 Q471 171 471 154 Z " />
<glyph glyph-name="Ydieresis" unicode="&#x178;" horiz-adv-x="562" d="M316 756 L316 867 L481 867 L481 756 L316 756 Z M80 756 L80 867 L246 867 L246 756 L80 756 Z M382 227 L382 0 L185 0 L185 227 L0 706 L197 706 L282 400 L365 706 L558 706 L382 227 Z " />
<glyph glyph-name="Zcaron" unicode="&#x17d;" horiz-adv-x="479" d="M345 758 L143 758 L67 868 L215 868 L245 822 L273 868 L421 868 L345 758 Z M16 0 L16 137 L245 572 L42 572 L42 706 L460 706 L460 567 L229 137 L460 137 L460 0 L16 0 Z " />
<glyph glyph-name="zcaron" unicode="&#x17e;" horiz-adv-x="458" d="M324 575 L135 575 L47 696 L191 696 L229 644 L267 696 L413 696 L324 575 Z M15 0 L15 108 L208 426 L51 426 L51 533 L426 533 L426 426 L226 108 L434 108 L434 0 L15 0 Z " />
<glyph glyph-name="florin" unicode="&#x192;" horiz-adv-x="437" d="M422 605 Q391 605 373 605 Q355 605 344.5 598.5 Q334 592 329.5 575.5 Q325 559 321 527 L407 527 L395 429 L309 429 L254 -13 Q246 -77 216 -111 Q186 -145 117 -145 L-41 -145 L-29 -44 Q-11 -44 5.5 -45 Q22 -46 35 -42.5 Q48 -39 57 -28.5 Q66 -18 69 5 L122 429 L40 429 L53 527 L134 527 Q138 557 141.5 585 Q145 613 154.5 636.5 Q164 660 184 677.5 Q204 695 240 703 Q249 705 258 705.5 Q267 706 276 706 L435 706 L422 605 Z " />
<glyph glyph-name="circumflex" unicode="&#x2c6;" horiz-adv-x="271" d="M174 574 L137 627 L98 574 L-49 574 L40 696 L230 696 L320 574 L174 574 Z " />
<glyph glyph-name="caron" unicode="&#x2c7;" horiz-adv-x="271" d="M230 575 L41 575 L-48 696 L96 696 L134 644 L172 696 L319 696 L230 575 Z " />
<glyph glyph-name="breve" unicode="&#x2d8;" horiz-adv-x="271" d="M292 693 Q281 630 242.5 600 Q204 570 140 570 Q77 570 33.5 598.5 Q-10 627 -21 693 L51 693 Q61 668 85.5 659.5 Q110 651 134 651 Q160 651 183.5 659 Q207 667 220 693 L292 693 Z " />
<glyph glyph-name="dotaccent" unicode="&#x2d9;" horiz-adv-x="271" d="M49 574 L49 696 L222 696 L222 574 L49 574 Z " />
<glyph glyph-name="ring" unicode="&#x2da;" horiz-adv-x="271" d="M238 666 Q238 645 230 626.5 Q222 608 208 594 Q194 580 175.5 572 Q157 564 136 564 Q115 564 96.5 572 Q78 580 63.5 593.5 Q49 607 41 626 Q33 645 33 666 Q33 687 41 705.5 Q49 724 63.5 738.5 Q78 753 96.5 761 Q115 769 136 769 Q157 769 176 761 Q195 753 208.5 738.5 Q222 724 230 705.5 Q238 687 238 666 Z M168 666 Q168 679 159 689 Q150 699 136 699 Q122 699 112.5 689.5 Q103 680 103 666 Q103 653 113 643.5 Q123 634 136 634 Q149 634 158.5 643.5 Q168 653 168 666 Z " />
<glyph glyph-name="ogonek" unicode="&#x2db;" horiz-adv-x="271" d="M228 -188 Q203 -191 178 -191 Q156 -191 132 -187 Q108 -183 88 -173 Q68 -163 55.5 -145 Q43 -127 43 -99 Q43 -70 56.5 -45 Q70 -20 90 0 L204 0 Q191 -8 175.5 -25 Q160 -42 160 -58 Q160 -67 166 -72.5 Q172 -78 180 -81 Q188 -84 197 -85 Q206 -86 213 -86 Q223 -86 228 -84 L228 -188 Z " />
<glyph glyph-name="tilde" unicode="&#x2dc;" horiz-adv-x="271" d="M310 693 Q310 644 284 608.5 Q258 573 205 573 Q180 573 156.5 578.5 Q133 584 109 592 Q96 596 82 600.5 Q68 605 54 605 Q40 605 32.5 597.5 Q25 590 21 577 L-39 577 L-39 580 Q-39 632 -9 663.5 Q21 695 73 695 Q97 695 120 689.5 Q143 684 166 677 Q180 673 194 669 Q208 665 222 665 Q238 665 244 672 Q250 679 254 693 L310 693 Z " />
<glyph glyph-name="hungarumlaut" unicode="&#x2dd;" horiz-adv-x="271" d="M261 572 L112 572 L189 696 L392 696 L261 572 Z M28 572 L-121 572 L-44 696 L160 696 L28 572 Z " />
<glyph glyph-name="Mu" unicode="&#x39c;" horiz-adv-x="521" d="M300 0 L300 54 Q294 36 283.5 17 Q273 -2 250 -2 Q239 -2 233 1.5 Q227 5 219 11 L219 -168 L31 -168 L31 533 L219 533 L219 139 Q219 119 228 106 Q237 93 259 93 Q286 93 293 108 Q300 123 300 146 L300 533 L489 533 L489 0 L300 0 Z " />
<glyph glyph-name="pi" unicode="&#x3c0;" horiz-adv-x="604" d="M578 -1 Q548 -2 531 -2 Q514 -2 506 -2 Q452 -2 421.5 8 Q391 18 370 43 Q352 63 345.5 91 Q339 119 339 171 L339 425 L266 425 L266 0 L78 0 L78 426 L38 427 L38 534 L561 534 L561 427 L526 426 L526 176 Q526 151 526.5 142.5 Q527 134 532 126 Q537 116 547.5 112 Q558 108 578 108 L578 -1 Z " />
<glyph glyph-name="endash" unicode="&#x2013;" horiz-adv-x="546" d="M29 232 L29 369 L516 369 L516 232 L29 232 Z " />
<glyph glyph-name="emdash" unicode="&#x2014;" horiz-adv-x="729" d="M29 232 L29 369 L700 369 L700 232 L29 232 Z " />
<glyph glyph-name="quoteleft" unicode="&#x2018;" horiz-adv-x="250" d="M38 392 L38 554 L128 706 L192 706 L140 554 L210 554 L210 392 L38 392 Z " />
<glyph glyph-name="quoteright" unicode="&#x2019;" horiz-adv-x="250" d="M125 386 L62 386 L108 541 L37 541 L37 706 L212 706 L212 541 L125 386 Z " />
<glyph glyph-name="quotesinglbase" unicode="&#x201a;" horiz-adv-x="250" d="M125 -155 L62 -155 L108 0 L37 0 L37 165 L212 165 L212 0 L125 -155 Z " />
<glyph glyph-name="quotedblleft" unicode="&#x201c;" horiz-adv-x="458" d="M245 389 L245 551 L340 706 L406 706 L350 551 L421 551 L421 389 L245 389 Z M34 389 L34 551 L127 706 L191 706 L138 551 L210 551 L210 389 L34 389 Z " />
<glyph glyph-name="quotedblright" unicode="&#x201d;" horiz-adv-x="458" d="M332 390 L266 390 L319 544 L245 544 L245 706 L421 706 L421 544 L332 390 Z M125 390 L58 390 L110 544 L34 544 L34 706 L211 706 L211 544 L125 390 Z " />
<glyph glyph-name="quotedblbase" unicode="&#x201e;" horiz-adv-x="458" d="M329 -154 L264 -154 L318 0 L245 0 L245 164 L421 164 L421 0 L329 -154 Z M115 -154 L49 -154 L105 0 L34 0 L34 164 L210 164 L210 0 L115 -154 Z " />
<glyph glyph-name="dagger" unicode="&#x2020;" horiz-adv-x="521" d="M356 383 L356 0 L163 0 L163 383 L7 383 L7 533 L163 533 L163 706 L356 706 L356 533 L512 533 L512 383 L356 383 Z " />
<glyph glyph-name="daggerdbl" unicode="&#x2021;" horiz-adv-x="542" d="M369 132 L369 0 L174 0 L174 132 L18 132 L18 283 L174 283 L174 427 L18 427 L18 578 L174 578 L174 706 L369 706 L369 578 L522 578 L522 427 L369 427 L369 283 L522 283 L522 132 L369 132 Z " />
<glyph glyph-name="bullet" unicode="&#x2022;" horiz-adv-x="333" d="M38 218 L38 475 L295 475 L295 218 L38 218 Z " />
<glyph glyph-name="ellipsis" unicode="&#x2026;" horiz-adv-x="1000" d="M765 0 L765 145 L901 145 L901 0 L765 0 Z M434 0 L434 145 L569 145 L569 0 L434 0 Z M99 0 L99 145 L234 145 L234 0 L99 0 Z " />
<glyph glyph-name="perthousand" unicode="&#x2030;" horiz-adv-x="1188" d="M1163 127 Q1163 112 1163 96 Q1163 80 1158 66 Q1151 42 1136 27.5 Q1121 13 1102 5 Q1083 -3 1061.5 -5.5 Q1040 -8 1018 -8 Q987 -8 958 -3.5 Q929 1 907 14 Q885 27 872 49.5 Q859 72 859 109 L859 332 Q859 368 871.5 391 Q884 414 905 426.5 Q926 439 953.5 443.5 Q981 448 1012 448 Q1040 448 1067 443.5 Q1094 439 1115.5 427 Q1137 415 1150 393.5 Q1163 372 1163 339 L1163 127 Z M809 127 Q809 112 808.5 94.5 Q808 77 803 63 Q795 41 780 27 Q765 13 746 5 Q727 -3 705.5 -5.5 Q684 -8 663 -8 Q642 -8 619.5 -5.5 Q597 -3 576 4.5 Q555 12 538 26 Q521 40 512 62 Q507 75 505.5 94 Q504 113 504 127 L504 321 Q504 359 515 384 Q526 409 546 423 Q566 437 594.5 442.5 Q623 448 658 448 Q686 448 713 443.5 Q740 439 761.5 427 Q783 415 796 393.5 Q809 372 809 339 L809 127 Z M357 0 L261 0 L477 706 L572 706 L357 0 Z M330 388 Q330 374 330 359.5 Q330 345 325 331 Q318 307 303 292.5 Q288 278 269 270 Q250 262 228.5 259.5 Q207 257 185 257 Q166 257 145 259 Q124 261 104.5 266.5 Q85 272 68 283 Q51 294 40 312 Q31 328 28.5 345.5 Q26 363 26 380 Q26 383 25.5 385.5 Q25 388 25 391 L25 588 Q25 627 36.5 651 Q48 675 68 689 Q88 703 116 708 Q144 713 178 713 Q209 713 236.5 708 Q264 703 285 690 Q306 677 318 654.5 Q330 632 330 596 L330 388 Z M1045 341 Q1045 375 1013 375 Q992 375 984.5 365 Q977 355 977 335 L977 97 Q977 78 988 72 Q999 66 1016 66 Q1045 66 1045 96 L1045 341 Z M691 341 Q691 375 659 375 Q623 375 623 340 L623 97 Q623 78 634 72 Q645 66 662 66 Q691 66 691 96 L691 341 Z M212 606 Q212 640 180 640 Q144 640 144 605 L144 362 Q144 343 155 337 Q166 331 183 331 Q212 331 212 361 L212 606 Z " />
<glyph glyph-name="guilsinglleft" unicode="&#x2039;" horiz-adv-x="187" d="M11 220 L11 367 L169 496 L169 341 L108 293 L169 243 L169 91 L11 220 Z " />
<glyph glyph-name="guilsinglright" unicode="&#x203a;" horiz-adv-x="187" d="M15 87 L15 240 L77 290 L15 341 L15 495 L175 363 L175 218 L15 87 Z " />
<glyph glyph-name="fraction" unicode="&#x2044;" horiz-adv-x="125" d="M-1 0 L-89 0 L127 706 L214 706 L-1 0 Z " />
<glyph glyph-name="Euro" unicode="&#x20ac;" horiz-adv-x="592" d="M514 522 Q490 549 460 565 Q430 581 393 581 Q339 581 312 551 Q285 521 285 468 Q285 466 285.5 463.5 Q286 461 286 459 L490 459 L454 379 L286 379 L286 339 L442 339 L406 258 L285 258 L285 250 Q285 194 310.5 162.5 Q336 131 394 131 Q433 131 468.5 148 Q504 165 532 192 L532 19 Q508 9 487.5 2.5 Q467 -4 446.5 -7.5 Q426 -11 404.5 -12.5 Q383 -14 357 -14 Q284 -14 233.5 1.5 Q183 17 152 50 Q121 83 107.5 134.5 Q94 186 94 258 L16 258 L52 339 L95 339 L96 379 L20 379 L54 459 L94 459 L94 472 Q94 538 114.5 585.5 Q135 633 172.5 663 Q210 693 262 707 Q314 721 376 721 Q435 721 481 709.5 Q527 698 577 665 L514 522 Z " />
<glyph glyph-name="trademark" unicode="&#x2122;" horiz-adv-x="686" d="M632 374 L535 374 L545 602 L498 374 L424 374 L375 599 L383 374 L287 374 L287 706 L412 706 L461 505 L504 706 L633 706 L632 374 Z M193 625 L193 374 L90 374 L90 625 L13 625 L13 706 L269 706 L269 625 L193 625 Z " />
<glyph glyph-name="Omega" unicode="&#x2126;" horiz-adv-x="581" d="M315 0 L315 138 Q325 147 330.5 156 Q336 165 339 179 Q341 188 343 205 Q345 226 345.5 256.5 Q346 287 346 312 L346 487 Q346 517 344.5 530.5 Q343 544 338 555 Q326 582 293 582 Q268 582 253 569 Q241 556 237 537 Q235 529 235 518.5 Q235 508 235 487 L235 312 Q235 302 235 288 Q235 274 236 256 Q237 222 238.5 206 Q240 190 242 179 Q245 165 250.5 156 Q256 147 266 138 L266 0 L15 0 L15 136 L173 136 Q151 147 140 153.5 Q129 160 118 169 Q76 202 56 251.5 Q36 301 36 372 L36 497 Q36 612 96.5 664 Q157 716 291 716 Q425 716 485 664 Q545 612 545 497 L545 372 Q545 280 509 221 Q492 193 471 175 Q450 157 408 136 L566 136 L566 0 L315 0 Z " />
<glyph glyph-name="partialdiff" unicode="&#x2202;" horiz-adv-x="526" d="M495 402 Q495 323 483 250.5 Q471 178 450 130 Q388 -12 250 -12 Q201 -12 161 5 Q121 22 92.5 53 Q64 84 48.5 127.5 Q33 171 33 225 Q33 276 46 317.5 Q59 359 83 388.5 Q107 418 140.5 434.5 Q174 451 215 451 Q249 451 274.5 440.5 Q300 430 323 407 Q323 415 323.5 420 Q324 425 324 430 Q324 453 321.5 477 Q319 501 315 514 Q307 546 284 562.5 Q261 579 226 579 Q212 579 198 577.5 Q184 576 155 570 L145 706 Q202 718 255 718 Q495 718 495 402 Z M307 269 Q277 317 244 317 Q219 317 204.5 291 Q190 265 190 220 Q190 174 206.5 145 Q223 116 249 116 Q277 116 291 153 Q305 190 307 269 Z " />
<glyph glyph-name="Delta" unicode="&#x2206;" horiz-adv-x="605" d="M0 0 L213 706 L396 706 L603 0 L0 0 Z M301 477 L222 134 L379 134 L301 477 Z " />
<glyph glyph-name="product" unicode="&#x220f;" horiz-adv-x="669" d="M414 -122 L414 569 L254 569 L254 -122 L59 -122 L59 706 L610 706 L610 -122 L414 -122 Z " />
<glyph glyph-name="summation" unicode="&#x2211;" horiz-adv-x="523" d="M24 -122 L24 22 L209 311 L24 567 L24 706 L497 706 L497 568 L239 568 L423 312 L224 13 L497 13 L497 -122 L24 -122 Z " />
<glyph glyph-name="minus" unicode="&#x2212;" horiz-adv-x="558" d="M69 228 L69 376 L495 376 L495 228 L69 228 Z " />
<glyph glyph-name="radical" unicode="&#x221a;" horiz-adv-x="559" d="M373 -185 L194 -185 L120 55 L53 31 L6 163 L217 234 L272 61 L392 706 L550 706 L373 -185 Z " />
<glyph glyph-name="infinity" unicode="&#x221e;" horiz-adv-x="559" d="M532 310 Q532 262 522 223 Q512 184 494 156 Q476 128 450.5 112.5 Q425 97 395 97 Q357 97 329.5 116 Q302 135 273 180 Q264 165 259.5 159 Q255 153 249 145 Q209 95 156 95 Q96 95 61.5 145 Q27 195 27 284 Q27 331 37.5 370 Q48 409 67 437 Q86 465 111.5 481 Q137 497 168 497 Q203 497 229.5 477 Q256 457 284 409 Q332 497 405 497 Q434 497 457 483.5 Q480 470 497 445.5 Q514 421 523 386.5 Q532 352 532 310 Z M412 296 Q412 320 405 334 Q398 348 387 348 Q378 348 366.5 334.5 Q355 321 339 292 Q355 260 364.5 248 Q374 236 383 236 Q396 236 404 252.5 Q412 269 412 296 Z M209 295 Q195 326 185 338.5 Q175 351 166 351 Q153 351 145 334 Q137 317 137 291 Q137 267 143.5 253 Q150 239 161 239 Q171 239 181.5 252 Q192 265 209 295 Z " />
<glyph glyph-name="integral" unicode="&#x222b;" horiz-adv-x="364" d="M336 544 Q319 557 311.5 561 Q304 565 294 565 Q272 565 267 543 Q264 534 264 520 Q263 509 263 494 Q263 479 263 462 L263 59 Q263 41 263 28 Q263 15 262.5 5 Q262 -5 261.5 -13.5 Q261 -22 260 -32 Q257 -56 253 -72.5 Q249 -89 241 -103 Q201 -176 107 -176 Q81 -176 64.5 -172.5 Q48 -169 20 -158 L20 -4 Q36 -16 44 -20 Q52 -24 62 -24 Q84 -24 90 -1 Q92 8 92.5 19.5 Q93 31 93 57 L93 78 L92 481 Q92 517 92.5 536 Q93 555 95 572 Q97 595 102 612 Q107 629 115 643 Q153 715 252 715 Q273 715 292 711.5 Q311 708 336 698 L336 544 Z " />
<glyph glyph-name="approxequal" unicode="&#x2248;" horiz-adv-x="559" d="M501 392 Q464 354 433.5 337.5 Q403 321 371 321 Q354 321 335 326.5 Q316 332 284 348 L260 360 Q236 372 219.5 377 Q203 382 189 382 Q166 382 148.5 371.5 Q131 361 106 332 L58 468 Q75 486 84 494.5 Q93 503 105 512 Q139 539 184 539 Q201 539 214 536 Q222 534 237 528 Q252 522 266 516 L310 496 Q335 485 346.5 481 Q358 477 369 477 Q404 477 453 526 L501 392 Z M502 162 Q465 125 434.5 108.5 Q404 92 372 92 Q354 92 335.5 97.5 Q317 103 285 119 L261 131 Q237 143 220.5 148 Q204 153 190 153 Q166 153 149 142.5 Q132 132 107 103 L59 239 Q76 257 85 265.5 Q94 274 106 283 Q142 310 185 310 Q202 310 215 307 Q223 305 238 299.5 Q253 294 267 287 L311 267 Q335 256 347 252 Q359 248 370 248 Q405 248 454 297 L502 162 Z " />
<glyph glyph-name="notequal" unicode="&#x2260;" horiz-adv-x="559" d="M271 129 L223 5 L99 5 L147 129 L85 129 L85 272 L202 272 L236 359 L85 359 L85 501 L292 501 L335 614 L460 614 L415 501 L474 501 L474 359 L361 359 L327 272 L474 272 L474 129 L271 129 Z " />
<glyph glyph-name="lessequal" unicode="&#x2264;" horiz-adv-x="559" d="M86 362 L86 517 L449 712 L449 548 L248 446 L449 351 L449 169 L86 362 Z M86 0 L86 147 L449 147 L449 0 L86 0 Z " />
<glyph glyph-name="greaterequal" unicode="&#x2265;" horiz-adv-x="559" d="M110 170 L110 334 L311 436 L110 532 L110 713 L473 520 L473 365 L110 170 Z M109 0 L109 147 L472 147 L472 0 L109 0 Z " />
<glyph glyph-name="lozenge" unicode="&#x25ca;" horiz-adv-x="559" d="M352 0 L206 0 L56 352 L206 706 L353 706 L503 353 L352 0 Z M283 551 L215 353 L279 156 L343 354 L283 551 Z " />
<glyph glyph-name="fi" unicode="&#xfb01;" horiz-adv-x="604" d="M384 580 L384 706 L573 706 L573 580 L384 580 Z M384 0 L384 533 L573 533 L573 0 L384 0 Z M360 605 Q329 605 311 605 Q293 605 283.5 598.5 Q274 592 271.5 575.5 Q269 559 269 527 L354 527 L354 429 L269 429 L269 0 L81 0 L81 429 L0 429 L0 527 L81 527 Q81 555 81 582.5 Q81 610 87.5 633.5 Q94 657 110.5 674.5 Q127 692 160 701 Q172 704 185 705 Q198 706 211 706 L360 706 L360 605 Z " />
<glyph glyph-name="fl" unicode="&#xfb02;" horiz-adv-x="604" d="M385 0 L385 706 L573 706 L573 0 L385 0 Z M360 605 Q329 605 311 605 Q293 605 283.5 598.5 Q274 592 271.5 575.5 Q269 559 269 527 L354 527 L354 429 L269 429 L269 0 L81 0 L81 429 L0 429 L0 527 L81 527 Q81 555 81 582.5 Q81 610 87.5 633.5 Q94 657 110.5 674.5 Q127 692 160 701 Q172 704 185 705 Q198 706 211 706 L360 706 L360 605 Z " />
</font>
</svg>
