<?xml version="1.0" encoding="UTF-8"?>
<svg xmlns="http://www.w3.org/2000/svg" xmlns:xlink="http://www.w3.org/1999/xlink" version="1.2" >
<font id="NissanAG-Super">
<font-face  font-family="NissanAG" units-per-em="1000" ascent="750" descent="-250" font-style="normal" font-weight="400" font-stretch="normal" cap-height="750" x-height="500" underline-position="-75" underline-thickness="50" />
<missing-glyph  horiz-adv-x="1000" d="" />
<glyph glyph-name="null" d="" />
<glyph glyph-name="nonmarkingreturn" unicode="&#xd;" horiz-adv-x="250" d="" />
<glyph glyph-name="space" unicode="&#x20;" horiz-adv-x="313" d="" />
<glyph glyph-name="exclam" unicode="&#x21;" horiz-adv-x="292" d="M257 515 Q257 489 252.5 472 Q248 455 244 429 L218 258 L117 258 L88 431 Q83 456 78.5 473.5 Q74 491 74 517 L74 706 L257 706 L257 515 Z M74 0 L74 188 L257 188 L257 0 L74 0 Z " />
<glyph glyph-name="quotedbl" unicode="&#x22;" horiz-adv-x="306" d="M253 435 L213 435 L178 743 L287 743 L253 435 Z M94 435 L55 435 L19 743 L129 743 L94 435 Z " />
<glyph glyph-name="numbersign" unicode="&#x23;" horiz-adv-x="668" d="M523 397 L513 317 L609 317 L609 178 L493 178 L468 0 L325 0 L351 178 L269 178 L244 0 L102 0 L126 178 L34 178 L34 317 L146 317 L157 397 L59 397 L59 536 L176 536 L200 706 L342 706 L318 536 L401 536 L424 706 L566 706 L543 536 L632 536 L632 397 L523 397 Z M299 397 L288 317 L370 317 L382 397 L299 397 Z " />
<glyph glyph-name="dollar" unicode="&#x24;" horiz-adv-x="667" d="M647 216 Q647 190 640.5 162 Q634 134 620 111 Q601 77 576 55 Q551 33 521.5 19.5 Q492 6 458.5 -1 Q425 -8 389 -13 L389 -114 L293 -114 L293 -13 Q250 -8 216.5 -2.5 Q183 3 152.5 12 Q122 21 91.5 35.5 Q61 50 24 72 L130 198 Q151 184 170 173.5 Q189 163 207.5 155.5 Q226 148 247 143.5 Q268 139 293 136 L293 268 Q263 275 228.5 283 Q194 291 162 303.5 Q130 316 103 335 Q76 354 59 384 Q35 428 35 477 Q35 557 83 610.5 Q131 664 205 685 Q227 691 248.5 693.5 Q270 696 293 698 L293 763 L389 763 L389 695 Q424 691 451 685.5 Q478 680 503 671 Q528 662 552.5 649 Q577 636 606 618 L503 496 Q488 507 475.5 515.5 Q463 524 450 529.5 Q437 535 422.5 538.5 Q408 542 389 544 L389 432 Q434 426 480 411.5 Q526 397 563 372 Q600 347 623.5 308.5 Q647 270 647 216 Z M293 547 Q282 546 270 542.5 Q258 539 248 533 Q238 527 231.5 517.5 Q225 508 225 494 Q225 481 232 473 Q239 465 249.5 460.5 Q260 456 271.5 453.5 Q283 451 293 449 L293 547 Z M456 201 Q456 215 449.5 224 Q443 233 433.5 238.5 Q424 244 412 247 Q400 250 389 253 L389 138 Q413 143 434.5 158 Q456 173 456 201 Z " />
<glyph glyph-name="percent" unicode="&#x25;" horiz-adv-x="1000" d="M977 225 Q977 177 965 134.5 Q953 92 928 59.5 Q903 27 864.5 8.5 Q826 -10 774 -10 Q723 -10 686.5 8.5 Q650 27 626.5 58.5 Q603 90 592 131.5 Q581 173 581 219 Q581 253 588.5 287.5 Q596 322 612.5 352 Q629 382 654 405.5 Q679 429 713 441 Q730 447 747.5 449 Q765 451 783 451 Q803 451 822 448.5 Q841 446 860 439 Q892 427 914 403.5 Q936 380 950 351 Q964 322 970.5 289 Q977 256 977 225 Z M397 0 L306 0 L607 706 L699 706 L397 0 Z M416 469 Q416 421 404 378.5 Q392 336 367 303.5 Q342 271 303.5 252.5 Q265 234 213 234 Q162 234 125.5 252.5 Q89 271 65.5 302.5 Q42 334 31 375.5 Q20 417 20 463 Q20 497 27.5 531.5 Q35 566 51.5 596.5 Q68 627 93 650.5 Q118 674 152 685 Q169 690 186.5 692 Q204 694 222 694 Q242 694 261 692 Q280 690 299 683 Q331 671 353 648 Q375 625 389 595.5 Q403 566 409.5 533 Q416 500 416 469 Z M838 231 Q838 245 837 266.5 Q836 288 830.5 307.5 Q825 327 814 341 Q803 355 782 355 Q758 355 745 339 Q732 323 726.5 301 Q721 279 720.5 255 Q720 231 720 214 Q720 199 720.5 177.5 Q721 156 726 136.5 Q731 117 743 103 Q755 89 777 89 Q802 89 814.5 105 Q827 121 832.5 143.5 Q838 166 838 190 Q838 214 838 231 Z M278 468 Q278 483 277 505 Q276 527 271 548 Q266 569 254 584 Q242 599 221 599 Q197 599 184 583 Q171 567 165.5 545 Q160 523 159.5 499 Q159 475 159 458 Q159 442 159.5 420.5 Q160 399 165 379.5 Q170 360 182 346.5 Q194 333 217 333 Q241 333 253.5 348 Q266 363 271.5 384 Q277 405 277.5 428.5 Q278 452 278 468 Z " />
<glyph glyph-name="ampersand" unicode="&#x26;" horiz-adv-x="688" d="M675 1 Q655 -1 634 -2.5 Q613 -4 593 -4 Q553 -4 526 3.5 Q499 11 467 37 Q420 9 377.5 -3 Q335 -15 280 -15 Q225 -15 176 0.5 Q127 16 86 54 Q51 87 34 124 Q17 161 17 210 Q17 254 29 287.5 Q41 321 62.5 347 Q84 373 114.5 393 Q145 413 181 431 Q158 461 146 492 Q134 523 134 561 Q134 603 151 632 Q168 661 196 679 Q224 697 259.5 705 Q295 713 332 713 Q371 713 407 705 Q443 697 470.5 678.5 Q498 660 514.5 629.5 Q531 599 531 555 Q531 505 504.5 465 Q478 425 436 400 Q425 393 413.5 388 Q402 383 391 378 Q412 352 433 327 Q454 302 477 277 Q493 322 502 366 L653 310 Q639 267 623 228 Q607 189 584 151 Q601 143 612.5 139 Q624 135 644 135 Q652 135 659.5 135.5 Q667 136 675 137 L675 1 Z M380 553 Q380 575 365 584.5 Q350 594 330 594 Q310 594 298 584.5 Q286 575 286 555 Q286 536 296.5 518.5 Q307 501 318 487 Q327 492 338 498.5 Q349 505 358 513 Q367 521 373.5 531 Q380 541 380 553 Z M372 150 Q342 186 313.5 224 Q285 262 257 300 Q237 284 221 265 Q205 246 205 218 Q205 179 229.5 153 Q254 127 294 127 Q315 127 334.5 133 Q354 139 372 150 Z " />
<glyph glyph-name="quotesingle" unicode="&#x27;" horiz-adv-x="148" d="M94 435 L55 435 L19 743 L129 743 L94 435 Z " />
<glyph glyph-name="parenleft" unicode="&#x28;" horiz-adv-x="344" d="M291 -166 Q283 -159 276.5 -154.5 Q270 -150 266 -146 Q229 -116 199.5 -88 Q170 -60 150 -37 Q89 34 58 121 Q27 208 27 308 Q27 409 58.5 501 Q90 593 153 671 Q208 740 286 803 L355 733 L342 717 Q321 690 305 668.5 Q289 647 277 626.5 Q265 606 255.5 586 Q246 566 237 543 Q199 444 199 319 Q199 199 234 100 Q254 43 282 0 Q310 -43 355 -85 L291 -166 Z " />
<glyph glyph-name="parenright" unicode="&#x29;" horiz-adv-x="344" d="M317 326 Q317 260 302.5 193.5 Q288 127 260 70 Q232 12 188 -41.5 Q144 -95 73 -156 L58 -169 L-11 -100 L2 -84 Q24 -57 39.5 -35.5 Q55 -14 67 6.5 Q79 27 88.5 47 Q98 67 107 91 Q145 193 145 315 Q145 573 -11 719 L53 800 Q61 793 67 788 Q73 783 78 780 Q118 748 145 722 Q172 696 194 670 Q317 526 317 326 Z " />
<glyph glyph-name="asterisk" unicode="&#x2a;" horiz-adv-x="437" d="M323 482 L384 404 L287 327 L219 413 L155 326 L54 400 L113 480 L13 509 L48 628 L153 598 L152 705 L277 705 L277 598 L383 634 L423 516 L323 482 Z " />
<glyph glyph-name="plus" unicode="&#x2b;" horiz-adv-x="724" d="M462 258 L462 64 L262 64 L262 258 L91 258 L91 411 L262 411 L262 600 L462 600 L462 411 L633 411 L633 258 L462 258 Z " />
<glyph glyph-name="comma" unicode="&#x2c;" horiz-adv-x="250" d="M216 37 Q216 4 211.5 -25.5 Q207 -55 195 -80 Q183 -105 162.5 -125 Q142 -145 109 -159 Q91 -167 72 -170.5 Q53 -174 34 -177 L34 -89 Q69 -77 82 -57.5 Q95 -38 96 0 L34 0 L34 188 L216 188 L216 37 Z " />
<glyph glyph-name="hyphen" unicode="&#x2d;" horiz-adv-x="374" d="M29 230 L29 401 L344 401 L344 230 L29 230 Z " />
<glyph glyph-name="period" unicode="&#x2e;" horiz-adv-x="250" d="M34 0 L34 188 L216 188 L216 0 L34 0 Z " />
<glyph glyph-name="slash" unicode="&#x2f;" horiz-adv-x="500" d="M196 0 L1 0 L304 706 L497 706 L196 0 Z " />
<glyph glyph-name="zero" unicode="0" horiz-adv-x="646" d="M623 358 Q623 285 605 217.5 Q587 150 549.5 98 Q512 46 453.5 14.5 Q395 -17 314 -17 Q238 -17 182.5 11.5 Q127 40 91 88.5 Q55 137 37.5 200 Q20 263 20 332 Q20 405 38 471.5 Q56 538 93.5 589 Q131 640 189 670 Q247 700 328 700 Q362 700 396.5 694 Q431 688 462 672 Q505 650 535.5 615.5 Q566 581 585.5 539 Q605 497 614 450 Q623 403 623 358 Z M420 334 Q420 351 419 378 Q418 405 415 433.5 Q412 462 406 487.5 Q400 513 391 526 Q378 544 362.5 554 Q347 564 324 564 Q285 564 264.5 534.5 Q244 505 235 464.5 Q226 424 225 382 Q224 340 224 314 Q224 290 226 257 Q228 224 238 194.5 Q248 165 267.5 144.5 Q287 124 321 124 Q357 124 376.5 147.5 Q396 171 406 204 Q416 237 418 273 Q420 309 420 334 Z " />
<glyph glyph-name="one" unicode="1" horiz-adv-x="646" d="M257 0 L257 456 Q222 442 185 441 Q148 440 110 439 L110 594 L133 594 Q157 594 181 599 Q205 604 225.5 615 Q246 626 261.5 644 Q277 662 285 687 L463 687 L463 0 L257 0 Z " />
<glyph glyph-name="two" unicode="2" horiz-adv-x="646" d="M606 476 Q606 414 578.5 366 Q551 318 508.5 280.5 Q466 243 415 213.5 Q364 184 317 157 Q344 158 370.5 159 Q397 160 424 160 L597 160 L597 0 L27 0 L27 130 Q56 149 107 183.5 Q158 218 211 257 Q264 296 309.5 334.5 Q355 373 373 400 Q384 417 391 434.5 Q398 452 398 473 Q398 512 376.5 532.5 Q355 553 316 553 Q268 553 248 525 Q228 497 228 452 Q228 438 229 426 Q230 414 235 401 L32 425 Q33 451 34.5 477 Q36 503 43 529 Q57 580 86 612.5 Q115 645 154 663.5 Q193 682 238.5 689.5 Q284 697 331 697 Q363 697 395.5 693.5 Q428 690 458 681 Q488 672 515 655 Q542 638 563 611 Q586 582 596 547.5 Q606 513 606 476 Z " />
<glyph glyph-name="three" unicode="3" horiz-adv-x="646" d="M621 204 Q621 178 614.5 151.5 Q608 125 595 103 Q573 64 540.5 41 Q508 18 470 6 Q432 -6 390 -10 Q348 -14 308 -14 Q268 -14 228.5 -9 Q189 -4 153.5 9.5 Q118 23 87.5 46.5 Q57 70 36 107 Q22 130 15 155 Q8 180 3 206 L194 243 Q200 188 225 157.5 Q250 127 311 127 Q353 127 382.5 146.5 Q412 166 412 213 Q412 237 401.5 251.5 Q391 266 374.5 273.5 Q358 281 337.5 283.5 Q317 286 298 286 Q285 286 272 285 Q259 284 246 281 L246 417 Q257 416 269 415 Q281 414 292 414 Q312 414 331.5 416.5 Q351 419 367.5 427.5 Q384 436 394 450.5 Q404 465 404 489 Q404 529 376 545 Q348 561 313 561 Q261 561 240.5 533 Q220 505 215 459 L26 471 Q31 500 37.5 527.5 Q44 555 58 581 Q78 617 107.5 639.5 Q137 662 172 675.5 Q207 689 246 694 Q285 699 322 699 Q369 699 418 690 Q467 681 507.5 658.5 Q548 636 573.5 598.5 Q599 561 599 504 Q599 447 570 411.5 Q541 376 489 356 Q549 340 585 305 Q621 270 621 204 Z " />
<glyph glyph-name="four" unicode="4" horiz-adv-x="646" d="M535 143 L535 0 L339 0 L339 143 L19 143 L19 280 L331 688 L535 688 L535 279 L622 279 L622 143 L535 143 Z M344 503 Q306 444 265.5 389.5 Q225 335 183 279 L339 279 L341 436 Q341 453 341.5 469.5 Q342 486 344 503 Z " />
<glyph glyph-name="five" unicode="5" horiz-adv-x="646" d="M621 244 Q621 210 612 174.5 Q603 139 585 110 Q562 73 532 48 Q502 23 467 9 Q432 -5 392.5 -11 Q353 -17 312 -17 Q275 -17 238 -12 Q201 -7 167 6 Q133 19 104 41 Q75 63 54 97 Q38 123 30 151 Q22 179 16 208 L220 229 Q220 219 220 205.5 Q220 192 223 183 Q233 151 256 136 Q279 121 311 121 Q359 121 386 150 Q413 179 413 226 Q413 276 386.5 305 Q360 334 309 334 Q280 334 259.5 324.5 Q239 315 224 290 L52 311 L91 683 L600 683 L586 540 L236 540 L226 444 Q259 461 291 467.5 Q323 474 360 474 Q411 474 458 458.5 Q505 443 541 413.5 Q577 384 599 341 Q621 298 621 244 Z " />
<glyph glyph-name="six" unicode="6" horiz-adv-x="646" d="M627 226 Q627 165 601.5 119.5 Q576 74 534.5 44 Q493 14 440.5 -1 Q388 -16 333 -16 Q292 -16 249.5 -8 Q207 0 170 19 Q125 42 95.5 75 Q66 108 49 147.5 Q32 187 25 232.5 Q18 278 18 325 Q18 405 38.5 473.5 Q59 542 100 592.5 Q141 643 203.5 672 Q266 701 351 701 Q384 701 417 695.5 Q450 690 480 677.5 Q510 665 535.5 645 Q561 625 579 596 Q590 579 597 560.5 Q604 542 610 523 L415 494 Q414 499 411.5 510.5 Q409 522 406 527 Q395 546 377 556 Q359 566 337 566 Q297 566 266 541 Q247 525 235.5 507.5 Q224 490 218 470 Q212 450 210.5 428.5 Q209 407 208 384 Q240 425 288.5 440.5 Q337 456 387 456 Q438 456 481.5 439.5 Q525 423 557.5 393 Q590 363 608.5 320.5 Q627 278 627 226 Z M430 224 Q430 269 403.5 297.5 Q377 326 331 326 Q284 326 255 296.5 Q226 267 226 220 Q226 176 253.5 146.5 Q281 117 326 117 Q374 117 402 146.5 Q430 176 430 224 Z " />
<glyph glyph-name="seven" unicode="7" horiz-adv-x="646" d="M594 558 Q569 531 547.5 506 Q526 481 507.5 455 Q489 429 472 400.5 Q455 372 438 338 Q416 293 400 253 Q384 213 372 173 Q360 133 351.5 91 Q343 49 335 0 L120 0 Q148 118 193.5 225 Q239 332 305 435 Q322 461 339.5 485 Q357 509 374 533 L43 533 L43 689 L594 689 L594 558 Z " />
<glyph glyph-name="eight" unicode="8" horiz-adv-x="646" d="M626 198 Q626 169 617 140 Q608 111 590 88 Q566 56 534.5 36 Q503 16 468 5 Q433 -6 395 -10 Q357 -14 319 -14 Q283 -14 247 -10.5 Q211 -7 177.5 3.5 Q144 14 113.5 32 Q83 50 59 79 Q38 104 28 133.5 Q18 163 18 195 Q18 240 38.5 279 Q59 318 97 343 Q107 349 116.5 353 Q126 357 137 362 Q96 387 74.5 420 Q53 453 53 502 Q53 534 63.5 562.5 Q74 591 94 615 Q115 640 142 656 Q169 672 199 681 Q229 690 261 693.5 Q293 697 323 697 Q355 697 389 694 Q423 691 455 681.5 Q487 672 515 655 Q543 638 564 610 Q581 587 589 560.5 Q597 534 597 505 Q597 457 577.5 423 Q558 389 517 363 Q525 359 532.5 356 Q540 353 548 348 Q589 325 607.5 284.5 Q626 244 626 198 Z M411 496 Q411 516 403.5 529.5 Q396 543 383 551 Q370 559 353.5 562.5 Q337 566 320 566 Q287 566 260.5 549.5 Q234 533 234 496 Q234 478 242 464.5 Q250 451 263 442 Q276 433 292 428.5 Q308 424 324 424 Q358 424 384.5 441.5 Q411 459 411 496 Z M426 201 Q426 247 395 268.5 Q364 290 321 290 Q280 290 249.5 268 Q219 246 219 201 Q219 156 249 135.5 Q279 115 321 115 Q341 115 359.5 120.5 Q378 126 393 136.5 Q408 147 417 163 Q426 179 426 201 Z " />
<glyph glyph-name="nine" unicode="9" horiz-adv-x="646" d="M626 358 Q626 278 606 209.5 Q586 141 544.5 90.5 Q503 40 440.5 11.5 Q378 -17 293 -17 Q260 -17 227 -12 Q194 -7 164 5 Q134 17 108 37 Q82 57 64 87 Q53 104 46.5 122.5 Q40 141 34 160 L229 190 Q230 183 232 172.5 Q234 162 238 156 Q261 117 307 117 Q325 117 344.5 124 Q364 131 378 142 Q398 158 409 176 Q420 194 425.5 213.5 Q431 233 433 254.5 Q435 276 436 299 Q423 283 407 270 Q378 248 335 238 Q292 228 257 228 Q206 228 162.5 244.5 Q119 261 86.5 291 Q54 321 35.5 363 Q17 405 17 457 Q17 516 41.5 561 Q66 606 105.5 637 Q145 668 196 684 Q247 700 301 700 Q468 700 547 611 Q626 522 626 358 Z M417 464 Q417 507 389.5 537 Q362 567 318 567 Q269 567 241.5 537.5 Q214 508 214 459 Q214 414 241 386 Q268 358 313 358 Q361 358 389 387 Q417 416 417 464 Z " />
<glyph glyph-name="colon" unicode="&#x3a;" horiz-adv-x="292" d="M74 330 L74 518 L256 518 L256 330 L74 330 Z M74 0 L74 188 L256 188 L256 0 L74 0 Z " />
<glyph glyph-name="semicolon" unicode="&#x3b;" horiz-adv-x="292" d="M74 330 L74 518 L256 518 L256 330 L74 330 Z M256 37 Q256 4 251.5 -25.5 Q247 -55 235 -80 Q223 -105 202.5 -125 Q182 -145 149 -159 Q131 -167 112 -170.5 Q93 -174 74 -177 L74 -89 Q109 -77 122 -57.5 Q135 -38 136 0 L74 0 L74 188 L256 188 L256 37 Z " />
<glyph glyph-name="less" unicode="&#x3c;" horiz-adv-x="724" d="M112 258 L112 437 L577 653 L577 469 L293 354 L577 230 L577 36 L112 258 Z " />
<glyph glyph-name="equal" unicode="&#x3d;" horiz-adv-x="724" d="M100 353 L100 508 L625 508 L625 353 L100 353 Z M100 124 L100 278 L625 278 L625 124 L100 124 Z " />
<glyph glyph-name="greater" unicode="&#x3e;" horiz-adv-x="724" d="M141 36 L141 220 L425 335 L140 459 L141 653 L605 431 L605 252 L141 36 Z " />
<glyph glyph-name="question" unicode="&#x3f;" horiz-adv-x="604" d="M593 525 Q593 492 583 467 Q573 442 556.5 422 Q540 402 517.5 386 Q495 370 471 353 Q454 341 436.5 330 Q419 319 404 305 Q391 293 386 284 Q381 275 376 258 L203 258 Q204 269 205 280 Q206 291 209 302 Q217 335 241 360 Q265 385 291 405 Q304 415 321.5 427 Q339 439 354.5 452.5 Q370 466 380.5 482.5 Q391 499 391 518 Q391 550 368.5 566.5 Q346 583 317 583 Q290 583 272 574 Q254 565 242.5 550 Q231 535 225 515 Q219 495 216 472 L46 529 Q58 580 85.5 616 Q113 652 150.5 674.5 Q188 697 233.5 707.5 Q279 718 328 718 Q358 718 389 714.5 Q420 711 449.5 702 Q479 693 505 677.5 Q531 662 552 638 Q593 590 593 525 Z M197 0 L197 188 L380 188 L380 0 L197 0 Z " />
<glyph glyph-name="at" unicode="&#x40;" horiz-adv-x="850" d="M811 417 Q811 346 791 282 Q771 218 737.5 170 Q704 122 659 94 Q614 66 564 66 Q529 66 504.5 84 Q480 102 473 134 Q418 67 349 67 Q316 67 289.5 79.5 Q263 92 243.5 114.5 Q224 137 213.5 168 Q203 199 203 237 Q203 294 221.5 346 Q240 398 270.5 437 Q301 476 341.5 499.5 Q382 523 426 523 Q453 523 474 514 Q493 506 504.5 496 Q516 486 533 463 L543 503 L647 503 L605 307 Q597 271 592.5 241 Q588 211 588 197 Q588 172 605 172 Q614 172 625.5 182.5 Q637 193 651 212 Q678 251 694 303 Q710 355 710 406 Q710 448 702 479 Q694 510 675 536 Q646 578 596 600 Q546 622 483 622 Q411 622 348 592.5 Q285 563 237.5 513 Q190 463 162.5 395.5 Q135 328 135 252 Q135 188 156.5 135.5 Q178 83 217 46.5 Q256 10 311.5 -10 Q367 -30 435 -30 Q601 -30 753 110 L810 39 Q789 21 773 7.5 Q757 -6 743 -16.5 Q729 -27 715 -36 Q701 -45 684 -55 Q622 -90 560.5 -107 Q499 -124 430 -124 Q304 -124 203 -66 Q31 32 31 246 Q31 344 67.5 429 Q104 514 167.5 577 Q231 640 317 676.5 Q403 713 501 713 Q572 713 629 692 Q686 671 726.5 632.5 Q767 594 789 539.5 Q811 485 811 417 Z M498 345 Q498 380 480.5 401 Q463 422 434 422 Q412 422 392 407.5 Q372 393 356.5 368.5 Q341 344 331.5 312.5 Q322 281 322 246 Q322 210 338 189 Q354 168 382 168 Q402 168 422 180.5 Q442 193 458 216 Q475 240 486.5 276 Q498 312 498 342 L498 345 Z " />
<glyph glyph-name="A" unicode="A" horiz-adv-x="792" d="M547 0 L516 99 L270 99 L239 0 L-1 0 L269 706 L523 706 L787 0 L547 0 Z M395 505 L318 256 L470 256 L395 505 Z " />
<glyph glyph-name="B" unicode="B" horiz-adv-x="729" d="M709 204 Q709 179 704 153 Q699 127 688 104 Q672 71 649.5 50.5 Q627 30 599.5 19 Q572 8 540.5 4 Q509 0 476 0 L44 0 L44 706 L462 706 Q494 706 525.5 701.5 Q557 697 585 686 Q613 675 636 655 Q659 635 674 603 Q682 586 686 565.5 Q690 545 690 527 Q690 489 673.5 453 Q657 417 627 393 Q616 384 604 377.5 Q592 371 579 366 Q641 349 675 309.5 Q709 270 709 204 Z M463 497 Q463 529 444.5 543 Q426 557 397 557 L267 557 L267 438 L396 438 Q425 438 444 451.5 Q463 465 463 497 Z M482 219 Q482 257 459 273.5 Q436 290 401 290 L266 290 L266 152 L408 152 Q440 152 461 168.5 Q482 185 482 219 Z " />
<glyph glyph-name="C" unicode="C" horiz-adv-x="750" d="M737 182 Q724 159 710 136.5 Q696 114 678 94 Q623 34 550 6 Q477 -22 396 -22 Q354 -22 313.5 -16 Q273 -10 235 7 Q184 30 145 66 Q106 102 80 147 Q54 192 40.5 243.5 Q27 295 27 349 Q27 428 53.5 498 Q80 568 128 620 Q176 672 243 702 Q310 732 391 732 Q476 732 556.5 699.5 Q637 667 692 600 Q716 570 736 535 L549 442 Q538 467 524.5 488.5 Q511 510 494 525.5 Q477 541 454 550 Q431 559 401 559 Q361 559 332.5 542 Q304 525 287 497 Q270 469 262 434.5 Q254 400 254 365 Q254 329 261 292.5 Q268 256 285 226 Q302 196 330 177 Q358 158 401 158 Q458 158 494 189.5 Q530 221 546 274 L737 182 Z " />
<glyph glyph-name="D" unicode="D" horiz-adv-x="750" d="M724 349 Q724 297 713 245.5 Q702 194 678.5 150 Q655 106 617.5 72 Q580 38 527 19 Q489 5 445.5 2.5 Q402 0 362 0 L44 0 L44 706 L311 706 Q337 706 368 705.5 Q399 705 430.5 702 Q462 699 491.5 693 Q521 687 545 677 Q596 655 630.5 620.5 Q665 586 686 543 Q707 500 715.5 450.5 Q724 401 724 349 Z M499 353 Q499 374 496 398.5 Q493 423 485.5 446.5 Q478 470 465 490 Q452 510 433 522 Q416 533 395 537 Q374 541 354 541 L268 541 L268 162 L353 162 Q395 162 423 178.5 Q451 195 468 222 Q485 249 492 283 Q499 317 499 353 Z " />
<glyph glyph-name="E" unicode="E" horiz-adv-x="646" d="M44 0 L44 706 L603 706 L603 551 L268 551 L268 446 L581 446 L581 293 L267 293 L267 153 L633 153 L633 0 L44 0 Z " />
<glyph glyph-name="F" unicode="F" horiz-adv-x="625" d="M266 551 L266 424 L580 424 L580 271 L266 271 L266 0 L44 0 L44 706 L602 706 L602 551 L266 551 Z " />
<glyph glyph-name="G" unicode="G" horiz-adv-x="792" d="M558 460 Q555 473 551.5 486 Q548 499 541 510 Q522 542 488 554 Q454 566 419 566 Q373 566 341 549 Q309 532 290 503.5 Q271 475 262.5 437 Q254 399 254 358 Q254 314 264 275.5 Q274 237 296 209 Q318 181 351.5 165 Q385 149 433 149 Q468 149 500.5 163.5 Q533 178 550 210 Q554 218 556 229.5 Q558 241 560 249 L429 249 L429 391 L753 391 L753 0 L587 0 L587 49 Q538 14 487 -2.5 Q436 -19 375 -19 Q322 -19 272.5 -4.5 Q223 10 181.5 38 Q140 66 107.5 105.5 Q75 145 55 194 Q40 231 33.5 269.5 Q27 308 27 348 Q27 432 54 503 Q81 574 130 625.5 Q179 677 249 706 Q319 735 404 735 Q446 735 489.5 727 Q533 719 573.5 703 Q614 687 650 662.5 Q686 638 713 604 Q730 583 739.5 562 Q749 541 758 517 L558 460 Z " />
<glyph glyph-name="H" unicode="H" horiz-adv-x="750" d="M480 0 L480 272 L267 272 L267 0 L44 0 L44 706 L267 706 L267 449 L480 449 L480 706 L705 706 L705 0 L480 0 Z " />
<glyph glyph-name="I" unicode="I" horiz-adv-x="313" d="M44 0 L44 706 L268 706 L268 0 L44 0 Z " />
<glyph glyph-name="J" unicode="J" horiz-adv-x="417" d="M371 196 Q371 137 357.5 99 Q344 61 316 39 Q288 17 246.5 8.5 Q205 0 149 0 L0 0 L0 174 Q14 170 28 169 Q42 168 56 168 Q104 168 126 184 Q148 200 148 249 L148 706 L371 706 L371 196 Z " />
<glyph glyph-name="K" unicode="K" horiz-adv-x="771" d="M528 0 L372 282 L267 167 L267 0 L44 0 L44 706 L267 706 L267 439 L489 706 L761 706 L516 438 L779 0 L528 0 Z " />
<glyph glyph-name="L" unicode="L" horiz-adv-x="542" d="M44 0 L44 706 L267 706 L267 178 L540 178 L540 0 L44 0 Z " />
<glyph glyph-name="M" unicode="M" horiz-adv-x="958" d="M698 0 L698 408 Q698 440 700 470.5 Q702 501 704 533 Q698 504 691 476 Q684 448 676 419 L559 0 L393 0 Q357 133 320 264 Q283 395 251 529 Q253 505 254 481.5 Q255 458 255 434 L255 0 L43 0 L43 706 L363 706 L449 380 Q459 343 466 305.5 Q473 268 478 230 Q485 274 492.5 317 Q500 360 511 403 L591 706 L911 706 L911 0 L698 0 Z " />
<glyph glyph-name="N" unicode="N" horiz-adv-x="771" d="M485 0 Q422 107 360.5 212.5 Q299 318 245 430 Q248 394 250 358 Q252 322 252 286 L252 0 L44 0 L44 706 L281 706 L439 439 Q464 397 485 354 Q506 311 526 266 Q522 307 519.5 347 Q517 387 517 429 L517 706 L726 706 L726 0 L485 0 Z " />
<glyph glyph-name="O" unicode="O" horiz-adv-x="812" d="M784 358 Q784 307 772.5 257 Q761 207 737 162 Q685 65 597 21 Q509 -23 402 -23 Q315 -23 245 4 Q175 31 126.5 81 Q78 131 52 201 Q26 271 26 357 Q26 400 34.5 443 Q43 486 61 525 Q86 580 122 619 Q158 658 203.5 683 Q249 708 301.5 720 Q354 732 412 732 Q457 732 500 724.5 Q543 717 584 698 Q634 676 671.5 640 Q709 604 734 559 Q759 514 771.5 462.5 Q784 411 784 358 Z M559 358 Q559 396 551.5 431 Q544 466 526 493.5 Q508 521 478.5 537.5 Q449 554 406 554 Q362 554 332 536.5 Q302 519 284 490.5 Q266 462 258 426 Q250 390 250 352 Q250 313 258 277.5 Q266 242 284 215 Q302 188 332 172 Q362 156 406 156 Q449 156 478 174 Q507 192 525 220.5 Q543 249 551 285.5 Q559 322 559 358 Z " />
<glyph glyph-name="P" unicode="P" horiz-adv-x="708" d="M708 482 Q708 437 697.5 395.5 Q687 354 659 318 Q637 289 613 271.5 Q589 254 562 245 Q535 236 505 233 Q475 230 440 230 L268 230 L268 0 L44 0 L44 706 L447 706 Q479 706 517 702.5 Q555 699 585 685 Q648 657 678 602.5 Q708 548 708 482 Z M486 469 Q486 515 462 536.5 Q438 558 394 558 L268 558 L268 378 L395 378 Q438 378 462 402 Q486 426 486 469 Z " />
<glyph glyph-name="Q" unicode="Q" horiz-adv-x="812" d="M754 -83 Q725 -78 701.5 -70.5 Q678 -63 657.5 -52.5 Q637 -42 617.5 -26.5 Q598 -11 578 11 Q534 -8 490.5 -16 Q447 -24 399 -24 Q313 -24 244 3.5 Q175 31 127 80.5 Q79 130 53 199.5 Q27 269 27 353 Q27 412 41 466.5 Q55 521 83 567.5 Q111 614 153 650.5 Q195 687 251 708 Q288 722 327.5 727.5 Q367 733 407 733 Q439 733 471.5 730 Q504 727 536 718 Q595 701 641.5 665 Q688 629 719.5 581 Q751 533 767.5 476.5 Q784 420 784 360 Q784 315 773 264 Q762 213 742 173 Q735 159 726.5 146.5 Q718 134 710 121 Q738 101 762.5 88 Q787 75 822 72 L754 -83 Z M557 356 Q557 394 549.5 429.5 Q542 465 524.5 493 Q507 521 478 537.5 Q449 554 405 554 Q363 554 334 536 Q305 518 287 489.5 Q269 461 261 424.5 Q253 388 253 352 Q253 314 260 278.5 Q267 243 284.5 216 Q302 189 331 172.5 Q360 156 403 156 Q445 156 474.5 173.5 Q504 191 522 219.5 Q540 248 548.5 284 Q557 320 557 356 Z " />
<glyph glyph-name="R" unicode="R" horiz-adv-x="708" d="M470 0 L333 249 L268 249 L268 0 L44 0 L44 706 L434 706 Q470 706 503 702 Q536 698 565.5 686.5 Q595 675 619.5 654.5 Q644 634 663 600 Q678 574 685 542 Q692 510 692 480 Q692 405 654.5 356.5 Q617 308 547 285 L720 0 L470 0 Z M469 477 Q469 503 460 519 Q451 535 435.5 543.5 Q420 552 400 555 Q380 558 359 558 L268 558 L268 394 L372 394 Q414 394 441.5 412.5 Q469 431 469 477 Z " />
<glyph glyph-name="S" unicode="S" horiz-adv-x="729" d="M700 228 Q700 159 670 111 Q640 63 592 34 Q544 5 484 -8 Q424 -21 364 -21 L360 -21 Q279 -21 201.5 0 Q124 21 62 75 Q46 89 33 104 Q20 119 7 135 L178 244 Q186 232 194 221 Q202 210 213 200 Q228 187 248 178 Q268 169 289.5 163 Q311 157 333.5 154 Q356 151 375 151 Q387 151 405.5 153 Q424 155 441 160.5 Q458 166 470 176.5 Q482 187 482 205 Q482 219 475 227 Q468 235 457 242 Q449 248 431.5 252.5 Q414 257 394 261 Q374 265 355.5 268 Q337 271 326 273 Q311 276 295.5 279 Q280 282 265 286 Q224 296 187.5 312 Q151 328 124 352 Q97 376 81.5 410.5 Q66 445 66 493 Q66 558 94 603 Q122 648 166.5 676 Q211 704 266.5 716.5 Q322 729 378 729 L381 729 Q448 729 518 711.5 Q588 694 643 653 Q658 642 670.5 629.5 Q683 617 696 604 L555 487 Q540 508 518.5 522 Q497 536 472.5 544.5 Q448 553 421.5 556 Q395 559 370 559 Q360 559 346 557.5 Q332 556 319 551 Q306 546 297.5 537 Q289 528 289 514 Q289 503 294 495.5 Q299 488 307 481 Q314 475 338.5 469 Q363 463 391.5 457.5 Q420 452 446.5 447.5 Q473 443 485 440 Q529 430 568.5 415 Q608 400 637 375.5 Q666 351 683 315.5 Q700 280 700 228 Z " />
<glyph glyph-name="T" unicode="T" horiz-adv-x="583" d="M402 532 L402 0 L179 0 L179 532 L-1 532 L-1 706 L581 706 L581 532 L402 532 Z " />
<glyph glyph-name="U" unicode="U" horiz-adv-x="729" d="M686 283 Q686 210 662 153.5 Q638 97 595 58.5 Q552 20 493 0.5 Q434 -19 363 -19 Q316 -19 268.5 -9.5 Q221 0 180 21 Q139 42 107 75.5 Q75 109 58 157 Q47 186 44.5 220.5 Q42 255 42 287 L42 706 L266 706 L266 265 Q266 217 286 185.5 Q306 154 361 154 Q418 154 439.5 184 Q461 214 461 265 L461 706 L686 706 L686 283 Z " />
<glyph glyph-name="V" unicode="V" horiz-adv-x="708" d="M469 0 L236 0 L0 706 L228 706 L312 426 Q327 377 336.5 333 Q346 289 353 238 Q361 280 369.5 320.5 Q378 361 390 403 L479 706 L708 706 L469 0 Z " />
<glyph glyph-name="W" unicode="W" horiz-adv-x="1042" d="M864 0 L625 0 L561 256 Q547 310 537 364.5 Q527 419 517 475 Q502 353 472.5 236 Q443 119 414 0 L174 0 L-2 706 L216 706 L285 398 Q296 351 303.5 306 Q311 261 316 213 Q323 261 331.5 306.5 Q340 352 351 399 L424 706 L613 706 L690 399 Q702 352 709.5 307 Q717 262 723 214 Q729 259 736 303.5 Q743 348 753 393 L823 706 L1040 706 L864 0 Z " />
<glyph glyph-name="X" unicode="X" horiz-adv-x="833" d="M570 0 L416 254 L260 0 L-2 0 L271 379 L42 706 L304 706 L416 512 L530 706 L785 706 L562 380 L833 0 L570 0 Z " />
<glyph glyph-name="Y" unicode="Y" horiz-adv-x="792" d="M504 297 L504 0 L280 0 L280 297 L-3 706 L255 706 L394 471 L530 706 L788 706 L504 297 Z " />
<glyph glyph-name="Z" unicode="Z" horiz-adv-x="667" d="M298 172 L653 172 L653 0 L2 0 L2 141 L364 537 L23 537 L23 706 L654 706 L654 562 L298 172 Z " />
<glyph glyph-name="bracketleft" unicode="&#x5b;" horiz-adv-x="299" d="M44 -144 L44 779 L284 779 L284 684 L200 684 L200 -49 L284 -49 L284 -144 L44 -144 Z " />
<glyph glyph-name="backslash" unicode="&#x5c;" horiz-adv-x="500" d="M304 0 L1 706 L196 706 L497 0 L304 0 Z " />
<glyph glyph-name="bracketright" unicode="&#x5d;" horiz-adv-x="299" d="M14 -144 L14 -49 L99 -49 L99 684 L14 684 L14 779 L255 779 L255 -144 L14 -144 Z " />
<glyph glyph-name="asciicircum" unicode="&#x5e;" horiz-adv-x="724" d="M472 279 L370 534 L264 279 L56 279 L274 706 L458 706 L669 279 L472 279 Z " />
<glyph glyph-name="underscore" unicode="&#x5f;" horiz-adv-x="500" d="M-10 -240 L-10 -113 L510 -113 L510 -240 L-10 -240 Z " />
<glyph glyph-name="grave" unicode="&#x60;" horiz-adv-x="313" d="M174 587 L12 724 L225 724 L301 587 L174 587 Z " />
<glyph glyph-name="a" unicode="a" horiz-adv-x="604" d="M377 0 L377 40 Q339 11 296 -0.5 Q253 -12 205 -12 Q166 -12 132 -1.5 Q98 9 73 30 Q48 51 33.5 82 Q19 113 19 154 Q19 214 54 256 Q75 281 100 295 Q125 309 152.5 316.5 Q180 324 209.5 328 Q239 332 268 336 Q294 340 318 344.5 Q342 349 367 356 Q367 394 347 405 Q327 416 294 416 Q264 416 249.5 406 Q235 396 229 367 L36 362 Q41 381 45 400 Q49 419 60 436 Q80 469 109.5 488.5 Q139 508 173.5 518.5 Q208 529 245.5 532 Q283 535 317 535 Q349 535 385.5 531 Q422 527 455 515 Q488 503 514.5 481.5 Q541 460 553 424 Q560 405 561 385.5 Q562 366 562 346 L562 64 Q562 43 564.5 30 Q567 17 580 0 L377 0 Z M366 241 Q351 236 336 231.5 Q321 227 306 222 Q295 219 278.5 215 Q262 211 247 204.5 Q232 198 221 187.5 Q210 177 210 162 Q210 141 226 131 Q242 121 260 121 Q274 121 288 125.5 Q302 130 314 137 Q343 155 354.5 178 Q366 201 366 235 L366 241 Z " />
<glyph glyph-name="b" unicode="b" horiz-adv-x="625" d="M605 281 Q605 225 592 172 Q579 119 551 78 Q523 37 478.5 12 Q434 -13 371 -13 Q330 -13 299 -2.5 Q268 8 241 38 L241 0 L42 0 L42 706 L247 706 L247 482 Q276 510 307.5 521.5 Q339 533 379 533 Q433 533 475.5 512.5 Q518 492 546.5 457.5 Q575 423 590 377.5 Q605 332 605 281 Z M402 256 Q402 286 396.5 318.5 Q391 351 366 371 Q358 378 346 382 Q334 386 323 386 Q300 386 280 371 Q254 351 248 320 Q242 289 242 259 Q242 240 245 218 Q248 196 256.5 178 Q265 160 280.5 148 Q296 136 321 136 Q346 136 361.5 147.5 Q377 159 386 176.5 Q395 194 398.5 215 Q402 236 402 256 Z " />
<glyph glyph-name="c" unicode="c" horiz-adv-x="562" d="M561 139 Q554 125 546.5 112 Q539 99 530 86 Q488 29 424 4.5 Q360 -20 292 -20 Q229 -20 178 0.5 Q127 21 91.5 58.5 Q56 96 37 148 Q18 200 18 262 Q18 320 37 371 Q70 462 142 501.5 Q214 541 307 541 L316 541 Q394 541 456.5 508 Q519 475 560 406 L404 318 Q395 351 374 373.5 Q353 396 316 396 Q288 396 269.5 382.5 Q251 369 240.5 348 Q230 327 226 302 Q222 277 222 254 Q222 232 226 211 Q230 190 240.5 173.5 Q251 157 268 147 Q285 137 310 137 Q350 137 371.5 164 Q393 191 403 225 L561 139 Z " />
<glyph glyph-name="d" unicode="d" horiz-adv-x="625" d="M383 0 L383 38 Q357 9 324 -2 Q291 -13 253 -13 Q190 -13 145.5 12 Q101 37 73 78 Q45 119 32 172 Q19 225 19 281 Q19 331 34 377 Q49 423 78 457.5 Q107 492 149 512.5 Q191 533 245 533 Q286 533 317 521.5 Q348 510 377 482 L377 706 L582 706 L582 0 L383 0 Z M382 259 Q382 279 379 301.5 Q376 324 367 342.5 Q358 361 342.5 373.5 Q327 386 301 386 Q275 386 255 368 Q233 349 227.5 317.5 Q222 286 222 259 Q222 239 225 217 Q228 195 237 177 Q246 159 262 147.5 Q278 136 303 136 Q314 136 326 140 Q338 144 346 151 Q371 171 376.5 200.5 Q382 230 382 259 Z " />
<glyph glyph-name="e" unicode="e" horiz-adv-x="604" d="M227 223 Q229 181 248 153 Q267 125 314 125 Q349 125 371.5 143.5 Q394 162 408 192 L577 121 Q532 50 463 14.5 Q394 -21 311 -21 Q247 -21 193 -1.5 Q139 18 100 54 Q61 90 39 142.5 Q17 195 17 261 Q17 326 38 377.5 Q59 429 97 465 Q135 501 187.5 520 Q240 539 303 539 Q350 539 393.5 527.5 Q437 516 473 492.5 Q509 469 535.5 434.5 Q562 400 575 353 Q584 321 585.5 288.5 Q587 256 588 223 L227 223 Z M379 331 Q378 366 359 387.5 Q340 409 305 409 Q268 409 251.5 386 Q235 363 229 331 L379 331 Z " />
<glyph glyph-name="f" unicode="f" horiz-adv-x="375" d="M282 394 L282 0 L76 0 L76 394 L-1 394 L-1 506 L76 506 Q76 535 76 567.5 Q76 600 87 628 Q98 655 117.5 672.5 Q137 690 161.5 700 Q186 710 213 714 Q240 718 266 718 Q295 718 321 714 Q347 710 375 704 L375 563 Q358 570 337 570 Q302 570 292 553.5 Q282 537 282 506 L375 506 L375 394 L282 394 Z " />
<glyph glyph-name="g" unicode="g" horiz-adv-x="625" d="M582 29 Q582 -22 570.5 -62 Q559 -102 518 -136 Q496 -154 467 -165.5 Q438 -177 406.5 -183.5 Q375 -190 343 -192.5 Q311 -195 284 -195 Q250 -195 210.5 -192 Q171 -189 135 -177.5 Q99 -166 70 -144 Q41 -122 29 -83 Q23 -65 22 -45.5 Q21 -26 20 -7 L207 -7 Q206 -46 229.5 -60 Q253 -74 288 -74 Q330 -74 350 -62 Q370 -50 377.5 -29 Q385 -8 385 19.5 Q385 47 386 78 Q376 62 360.5 52 Q345 42 327 36 Q309 30 290 27.5 Q271 25 253 25 Q196 25 152 43.5 Q108 62 78 95 Q48 128 33 174 Q18 220 18 275 Q18 332 33.5 379.5 Q49 427 79 460.5 Q109 494 154.5 513 Q200 532 260 532 Q306 532 341 518.5 Q376 505 405 469 L404 518 L582 518 L582 29 Z M380 289 Q380 309 376 327 Q372 345 362.5 358.5 Q353 372 338 380.5 Q323 389 300 389 Q275 389 258 378.5 Q241 368 231.5 351.5 Q222 335 218 313.5 Q214 292 214 271 Q214 249 217 229 Q220 209 229 194 Q238 179 254 170 Q270 161 296 161 Q325 161 341.5 172.5 Q358 184 366.5 202.5 Q375 221 377.5 244 Q380 267 380 289 Z " />
<glyph glyph-name="h" unicode="h" horiz-adv-x="646" d="M397 0 L397 295 Q397 332 379.5 351 Q362 370 323 370 Q283 370 265 350 Q247 330 247 292 L247 0 L41 0 L41 706 L246 706 L246 466 Q279 507 319 523.5 Q359 540 411 540 Q435 540 462 535 Q489 530 511 519 Q540 505 557.5 486 Q575 467 585.5 444 Q596 421 599.5 394.5 Q603 368 603 338 L603 0 L397 0 Z " />
<glyph glyph-name="i" unicode="i" horiz-adv-x="292" d="M42 569 L42 706 L248 706 L248 569 L42 569 Z M42 0 L42 518 L248 518 L248 0 L42 0 Z " />
<glyph glyph-name="j" unicode="j" horiz-adv-x="292" d="M43 569 L43 706 L249 706 L249 569 L43 569 Z M249 8 Q249 -3 249 -18 Q249 -33 248 -49 Q247 -65 245 -79.5 Q243 -94 239 -104 Q227 -136 202 -154 Q177 -172 146.5 -181 Q116 -190 82.5 -192 Q49 -194 20 -194 Q6 -194 -7.5 -193.5 Q-21 -193 -35 -193 L-35 -43 Q-19 -43 -4.5 -41.5 Q10 -40 20.5 -34.5 Q31 -29 37 -18 Q43 -7 43 13 L43 518 L249 518 L249 8 Z " />
<glyph glyph-name="k" unicode="k" horiz-adv-x="646" d="M413 0 L301 197 L247 145 L247 0 L41 0 L41 706 L247 706 L247 370 L388 518 L639 518 L442 331 L648 0 L413 0 Z " />
<glyph glyph-name="l" unicode="l" horiz-adv-x="292" d="M41 0 L41 706 L248 706 L248 0 L41 0 Z " />
<glyph glyph-name="m" unicode="m" horiz-adv-x="1000" d="M749 0 L749 271 Q749 290 746.5 306.5 Q744 323 736.5 335 Q729 347 715 354 Q701 361 679 361 Q635 361 618.5 338 Q602 315 602 276 L602 0 L396 0 L396 280 Q396 315 380 338 Q364 361 325 361 Q287 361 267.5 340 Q248 319 248 281 L248 0 L41 0 L41 518 L240 518 L240 444 Q246 455 252.5 464.5 Q259 474 268 483 Q294 509 329.5 519.5 Q365 530 401 530 Q443 530 486.5 517.5 Q530 505 558 472 Q566 463 571.5 453.5 Q577 444 583 434 Q594 459 613 477 Q632 495 655.5 507 Q679 519 705 524.5 Q731 530 757 530 Q788 530 817.5 524 Q847 518 871.5 504.5 Q896 491 915 469.5 Q934 448 945 416 Q952 396 953.5 375 Q955 354 955 334 L955 0 L749 0 Z " />
<glyph glyph-name="n" unicode="n" horiz-adv-x="646" d="M391 0 L391 283 Q391 320 377 340.5 Q363 361 321 361 Q278 361 262 337.5 Q246 314 246 276 L246 0 L41 0 L41 518 L235 518 L235 449 Q244 462 255 475 Q284 507 325 519.5 Q366 532 408 532 Q477 532 525.5 499.5 Q574 467 591 397 Q595 380 596 362 Q597 344 597 327 L597 0 L391 0 Z " />
<glyph glyph-name="o" unicode="o" horiz-adv-x="646" d="M624 258 Q624 190 600 138 Q576 86 534 51 Q492 16 436 -2 Q380 -20 315 -20 Q251 -20 197 -2 Q143 16 103.5 50.5 Q64 85 42 135.5 Q20 186 20 251 L20 255 Q20 324 43 377 Q66 430 107 466.5 Q148 503 204 521.5 Q260 540 326 540 Q392 540 446.5 521 Q501 502 540.5 465.5 Q580 429 602 376.5 Q624 324 624 258 Z M416 261 Q416 285 412.5 309 Q409 333 398.5 352 Q388 371 370 383 Q352 395 323 395 Q295 395 276 383.5 Q257 372 245.5 353.5 Q234 335 229.5 311 Q225 287 225 263 Q225 239 229 214.5 Q233 190 243.5 170 Q254 150 272.5 137.5 Q291 125 321 125 Q350 125 368.5 137.5 Q387 150 397.5 169.5 Q408 189 412 213 Q416 237 416 261 Z " />
<glyph glyph-name="p" unicode="p" horiz-adv-x="625" d="M606 256 Q606 202 593 153 Q580 104 553 67.5 Q526 31 483 9 Q440 -13 380 -13 Q338 -13 306.5 -3.5 Q275 6 244 35 L244 -188 L42 -188 L42 518 L243 518 L243 478 Q269 509 303.5 520.5 Q338 532 378 532 Q439 532 482.5 509.5 Q526 487 553.5 449 Q581 411 593.5 361 Q606 311 606 256 Z M403 253 Q403 273 400.5 296 Q398 319 389.5 338 Q381 357 365.5 369.5 Q350 382 323 382 Q294 382 271 361 Q251 341 246.5 313 Q242 285 242 259 Q242 238 244.5 215.5 Q247 193 255 174.5 Q263 156 279.5 144 Q296 132 323 132 Q345 132 363 145 Q390 165 396.5 193.5 Q403 222 403 253 Z " />
<glyph glyph-name="q" unicode="q" horiz-adv-x="625" d="M381 -188 L381 35 Q350 6 318.5 -3.5 Q287 -13 245 -13 Q185 -13 142.5 9 Q100 31 72.5 67.5 Q45 104 32 153 Q19 202 19 256 Q19 310 31.5 360 Q44 410 71.5 448.5 Q99 487 142.5 509.5 Q186 532 247 532 Q275 532 307.5 524 Q340 516 363 498 Q374 489 383 478 L383 518 L584 518 L584 -188 L381 -188 Z M384 259 Q384 280 381 302 Q378 324 368.5 342 Q359 360 342.5 371 Q326 382 299 382 Q274 382 258.5 369 Q243 356 235 336.5 Q227 317 224.5 294.5 Q222 272 222 253 Q222 224 229 193.5 Q236 163 262 145 Q282 132 302 132 Q329 132 345 144 Q361 156 370 174.5 Q379 193 381.5 215.5 Q384 238 384 259 Z " />
<glyph glyph-name="r" unicode="r" horiz-adv-x="417" d="M411 355 Q400 356 390.5 356.5 Q381 357 370 357 Q311 357 278.5 331 Q246 305 246 244 L246 0 L41 0 L41 521 L239 521 L239 473 Q260 492 279 503 Q298 514 318 520 Q338 526 360.5 527.5 Q383 529 411 529 L411 355 Z " />
<glyph glyph-name="s" unicode="s" horiz-adv-x="542" d="M523 174 Q523 132 504 95 Q489 64 464.5 42 Q440 20 410.5 6 Q381 -8 347.5 -14 Q314 -20 281 -20 Q223 -20 165.5 -5 Q108 10 59 41 Q43 51 28.5 62 Q14 73 -1 84 L115 190 Q147 158 188.5 139 Q230 120 276 120 Q283 120 292 121.5 Q301 123 309.5 126.5 Q318 130 323.5 136.5 Q329 143 329 152 Q329 163 322.5 169.5 Q316 176 306.5 179.5 Q297 183 286 184.5 Q275 186 267 187 Q248 190 221 195.5 Q194 201 167 209.5 Q140 218 115.5 228.5 Q91 239 77 251 Q53 271 39.5 300.5 Q26 330 26 361 Q26 413 57 455 Q93 504 148.5 521.5 Q204 539 262 539 Q310 539 362.5 529 Q415 519 458 497 Q472 490 484 481.5 Q496 473 508 464 L397 363 Q365 384 333.5 398.5 Q302 413 263 413 Q250 413 235 408 Q220 403 220 386 Q220 377 225 372 Q230 367 237.5 364 Q245 361 253.5 359.5 Q262 358 268 356 Q286 352 310 346.5 Q334 341 359 335 Q384 329 407 321.5 Q430 314 446 305 Q483 284 503 250.5 Q523 217 523 174 Z " />
<glyph glyph-name="t" unicode="t" horiz-adv-x="375" d="M369 4 Q337 0 304.5 -3.5 Q272 -7 239 -7 Q200 -7 168.5 0.5 Q137 8 114.5 25 Q92 42 80 70 Q68 98 68 139 Q68 203 69 266.5 Q70 330 71 394 L0 394 L0 506 L72 506 L74 669 L281 669 L280 506 L368 506 L368 394 L278 394 Q277 343 276 293 Q275 243 275 192 Q275 163 290.5 152 Q306 141 334 141 Q343 141 352 142 Q361 143 369 145 L369 4 Z " />
<glyph glyph-name="u" unicode="u" horiz-adv-x="646" d="M406 0 L406 76 Q395 51 376.5 34 Q358 17 335 6.5 Q312 -4 286.5 -8.5 Q261 -13 235 -13 Q206 -13 177.5 -7 Q149 -1 124 14 Q72 45 55.5 92.5 Q39 140 39 197 L39 518 L246 518 L246 236 Q246 197 261 174.5 Q276 152 321 152 Q367 152 381 178 Q395 204 395 244 L395 518 L602 518 L602 0 L406 0 Z " />
<glyph glyph-name="v" unicode="v" horiz-adv-x="562" d="M389 0 L170 0 L-3 518 L215 518 L256 326 Q264 288 268.5 249 Q273 210 278 171 Q283 213 288.5 253.5 Q294 294 303 335 L345 518 L561 518 L389 0 Z " />
<glyph glyph-name="w" unicode="w" horiz-adv-x="854" d="M696 0 L491 0 L445 207 Q437 245 432 283 Q427 321 424 361 Q421 294 408 230 L360 0 L155 0 L-1 518 L209 518 L249 323 Q257 282 262.5 242 Q268 202 273 160 Q283 254 300 339.5 Q317 425 336 518 L513 518 Q532 427 550 339 Q568 251 579 160 Q587 251 604.5 339 Q622 427 640 518 L851 518 L696 0 Z " />
<glyph glyph-name="x" unicode="x" horiz-adv-x="604" d="M386 0 L301 168 L217 0 L-4 0 L170 272 L16 518 L237 518 L301 363 L369 518 L591 518 L434 273 L606 0 L386 0 Z " />
<glyph glyph-name="y" unicode="y" horiz-adv-x="583" d="M392 -30 Q384 -53 374.5 -76.5 Q365 -100 351 -120 Q336 -142 320 -155 Q304 -168 286 -175 Q268 -182 247 -184.5 Q226 -187 201 -187 Q169 -187 139 -185.5 Q109 -184 78 -180 L78 -33 Q92 -34 106 -35 Q120 -36 134 -36 Q141 -36 149 -35.5 Q157 -35 164 -33 Q171 -31 175.5 -25.5 Q180 -20 180 -11 Q180 -2 173.5 15.5 Q167 33 164 42 L0 518 L215 518 L266 295 Q274 257 279.5 219 Q285 181 290 143 Q295 183 300.5 222.5 Q306 262 315 301 L367 518 L581 518 L392 -30 Z " />
<glyph glyph-name="z" unicode="z" horiz-adv-x="542" d="M288 155 L527 155 L527 0 L8 0 L8 114 L254 364 L39 364 L39 518 L529 518 L529 400 L288 155 Z " />
<glyph glyph-name="braceleft" unicode="&#x7b;" horiz-adv-x="332" d="M246 -149 Q219 -149 200 -147.5 Q181 -146 167 -142 Q153 -138 143 -131.5 Q133 -125 124 -114 Q107 -94 101 -70 Q97 -53 96 -37.5 Q95 -22 95 13 L95 19 L95 162 Q95 192 92.5 207.5 Q90 223 85 234 Q76 250 58.5 257.5 Q41 265 8 268 L8 366 Q31 368 42.5 371 Q54 374 65 381 Q83 391 89 409.5 Q95 428 95 472 L95 614 L95 621 Q95 654 95.5 670 Q96 686 101 703 Q107 728 124 747 Q134 758 144 764.5 Q154 771 167.5 775 Q181 779 199 780.5 Q217 782 244 782 L320 781 L320 686 L305 686 Q281 686 267 671 Q259 662 256 649 Q253 638 252.5 625.5 Q252 613 252 578 L252 451 Q252 420 248.5 398.5 Q245 377 235.5 362 Q226 347 210 336 Q194 325 169 316 Q186 311 195.5 306 Q205 301 216 292 Q236 275 244 251 Q252 227 252 182 L252 55 Q252 21 253 8 Q254 -5 257 -16 Q262 -33 276 -43.5 Q290 -54 310 -54 L320 -54 L320 -148 L246 -149 Z " />
<glyph glyph-name="bar" unicode="&#x7c;" horiz-adv-x="264" d="M54 -144 L54 779 L210 779 L210 -144 L54 -144 Z " />
<glyph glyph-name="braceright" unicode="&#x7d;" horiz-adv-x="332" d="M324 267 Q301 265 290 262 Q279 259 267 252 Q250 242 243.5 223.5 Q237 205 237 161 L238 18 L238 12 Q238 -22 236.5 -38 Q235 -54 231 -71 Q225 -96 208 -114 Q198 -125 188.5 -131.5 Q179 -138 165.5 -142 Q152 -146 133.5 -147.5 Q115 -149 88 -149 L12 -149 L12 -54 L28 -54 Q52 -54 65 -39 Q73 -27 76 -17 Q79 -5 79.5 7.5 Q80 20 80 54 L80 182 Q80 213 83.5 234.5 Q87 256 96.5 271 Q106 286 122 297 Q138 308 163 317 Q146 322 136.5 326.5 Q127 331 116 341 Q96 358 88 382 Q80 406 80 451 L80 578 Q80 613 80 625 Q80 637 76 649 Q71 666 56.5 676.5 Q42 687 22 687 L12 687 L12 781 L87 781 Q114 781 133 779.5 Q152 778 165.5 774 Q179 770 189 763.5 Q199 757 208 746 Q225 728 231 703 Q235 686 236.5 670 Q238 654 238 620 L238 614 L237 471 Q237 441 239.5 425 Q242 409 248 398 Q256 383 273.5 375.5 Q291 368 324 365 L324 267 Z " />
<glyph glyph-name="asciitilde" unicode="&#x7e;" horiz-adv-x="724" d="M655 302 Q632 273 617 259.5 Q602 246 582 232 Q537 203 491 203 Q467 203 440.5 211.5 Q414 220 369 241 L333 258 Q299 274 275.5 281.5 Q252 289 230 289 Q212 289 197 283 Q180 276 166.5 263.5 Q153 251 127 221 L117 209 L69 370 Q88 396 98.5 407 Q109 418 123 431 Q167 469 228 469 Q249 469 269 464 Q281 460 302 452.5 Q323 445 343 436 L406 407 Q441 391 455.5 386.5 Q470 382 484 382 Q501 382 518.5 388 Q536 394 551 405 Q565 415 576 425.5 Q587 436 607 461 L655 302 Z " />
<glyph glyph-name="nbspace" unicode="&#xa0;" horiz-adv-x="313" d="" />
<glyph glyph-name="exclamdown" unicode="&#xa1;" horiz-adv-x="292" d="M32 518 L32 706 L215 706 L215 518 L32 518 Z M32 0 L32 192 Q32 218 36.5 235 Q41 252 45 277 L71 448 L172 448 L201 276 Q206 250 210.5 233 Q215 216 215 190 L215 0 L32 0 Z " />
<glyph glyph-name="cent" unicode="&#xa2;" horiz-adv-x="583" d="M566 131 Q535 63 482 27.5 Q429 -8 357 -19 L357 -147 L256 -147 L256 -19 L249 -19 Q195 -13 153 10 Q111 33 82 68.5 Q53 104 38 150 Q23 196 23 248 Q23 302 38.5 350.5 Q54 399 83.5 437 Q113 475 156.5 500 Q200 525 256 531 L256 647 L357 647 L357 532 Q425 524 476.5 492 Q528 460 562 400 L407 312 Q396 346 377 367.5 Q358 389 318 389 Q290 389 272.5 376 Q255 363 245 342.5 Q235 322 231.5 298 Q228 274 228 252 Q228 230 231 208.5 Q234 187 243 170 Q252 153 269 142.5 Q286 132 313 132 Q353 132 374 158 Q395 184 408 217 L566 131 Z " />
<glyph glyph-name="sterling" unicode="&#xa3;" horiz-adv-x="729" d="M707 184 Q707 153 704 124.5 Q701 96 691.5 71.5 Q682 47 663 28 Q644 9 612 -4 Q594 -12 575.5 -14.5 Q557 -17 537 -17 Q485 -17 441 4 Q397 25 355 54 Q316 18 273.5 1.5 Q231 -15 177 -15 Q148 -15 119 -8 Q90 -1 67 14 Q44 29 29.5 53 Q15 77 15 111 Q15 144 30 168.5 Q45 193 68.5 209.5 Q92 226 121.5 234 Q151 242 180 242 Q194 242 207.5 240.5 Q221 239 235 237 Q218 271 197 299 L63 299 L63 400 L133 400 Q111 428 100 453.5 Q89 479 89 515 Q89 574 126 622 Q147 649 176 666.5 Q205 684 237.5 694 Q270 704 304 708 Q338 712 371 712 Q401 712 435.5 709 Q470 706 503.5 697.5 Q537 689 567 674 Q597 659 618 635 Q647 602 656.5 562 Q666 522 666 479 Q666 473 665.5 467.5 Q665 462 665 456 L487 456 Q488 461 488 465 Q488 469 488 474 Q488 526 458 546.5 Q428 567 382 567 Q364 567 346.5 563 Q329 559 315.5 550 Q302 541 293.5 527 Q285 513 285 492 Q285 466 300 443 Q315 420 330 400 L486 400 L486 299 L396 299 Q407 279 414.5 256.5 Q422 234 422 210 Q422 191 417 168 Q434 157 457.5 143.5 Q481 130 502 130 Q515 130 522.5 136 Q530 142 533.5 151 Q537 160 538 171 Q539 182 539 191 Q539 214 535 233 L707 233 L707 184 Z M247 127 Q232 135 217.5 140 Q203 145 186 145 Q171 145 154.5 138 Q138 131 138 112 Q138 95 150.5 88 Q163 81 177 81 Q201 81 217 95 Q233 109 247 127 Z " />
<glyph glyph-name="currency" unicode="&#xa4;" horiz-adv-x="700" d="M596 490 Q619 452 628.5 416.5 Q638 381 638 340 Q638 298 628 261.5 Q618 225 595 187 L676 105 L580 10 L499 92 Q459 69 425.5 59.5 Q392 50 350 50 Q306 50 271 60 Q236 70 198 94 L117 12 L22 107 L104 189 Q81 222 70.5 257.5 Q60 293 60 337 Q60 381 70 416.5 Q80 452 103 490 L23 570 L118 665 L198 585 Q265 628 351 628 Q393 628 427 618 Q461 608 500 585 L581 666 L677 570 L596 490 Z M481 338 Q481 367 471 391.5 Q461 416 443.5 434 Q426 452 402 462.5 Q378 473 350 473 Q322 473 298 462.5 Q274 452 256 434 Q238 416 228 391.5 Q218 367 218 339 Q218 311 228 286.5 Q238 262 256 244 Q274 226 298 216 Q322 206 350 206 Q377 206 401 216.5 Q425 227 443 245 Q461 263 471 287 Q481 311 481 338 Z " />
<glyph glyph-name="yen" unicode="&#xa5;" horiz-adv-x="792" d="M634 478 L710 478 L710 356 L548 356 L504 293 L504 286 L710 286 L710 164 L504 164 L504 0 L280 0 L280 164 L82 164 L82 286 L280 286 L280 293 L236 356 L82 356 L82 478 L151 478 L-3 698 L255 698 L393 460 L530 698 L788 698 L634 478 Z " />
<glyph glyph-name="brokenbar" unicode="&#xa6;" horiz-adv-x="264" d="M54 382 L54 779 L210 779 L210 382 L54 382 Z M54 -144 L54 253 L210 253 L210 -144 L54 -144 Z " />
<glyph glyph-name="section" unicode="&#xa7;" horiz-adv-x="625" d="M606 252 Q606 195 577.5 157.5 Q549 120 505 90 Q523 73 531.5 49 Q540 25 540 1 Q540 -41 521 -71.5 Q502 -102 471.5 -121.5 Q441 -141 403.5 -150 Q366 -159 330 -159 L327 -159 Q287 -159 252 -152 Q217 -145 184 -132.5 Q151 -120 119 -103 Q87 -86 54 -67 L153 38 Q194 15 240.5 -7 Q287 -29 335 -29 Q346 -29 361.5 -25 Q377 -21 377 -5 Q377 3 372 9 Q367 15 362 20 Q356 25 330.5 37.5 Q305 50 274 63.5 Q243 77 214.5 89 Q186 101 175 106 Q144 121 115 137.5 Q86 154 64.5 176.5 Q43 199 30 227.5 Q17 256 17 295 Q17 352 43 388 Q69 424 115 453 Q99 473 90 493.5 Q81 514 81 540 Q81 582 99.5 613.5 Q118 645 148 665 Q178 685 215.5 695 Q253 705 290 705 Q365 705 431 681 Q497 657 561 620 L469 515 Q424 538 381.5 555 Q339 572 287 572 Q276 572 261 568.5 Q246 565 246 550 Q246 543 249.5 538.5 Q253 534 258 530 Q264 525 289.5 513 Q315 501 345.5 488 Q376 475 404 463 Q432 451 443 446 Q475 431 504.5 414 Q534 397 556.5 375.5 Q579 354 592.5 325.5 Q606 297 606 258 L606 252 Z M449 230 Q449 247 435 260.5 Q421 274 402.5 285.5 Q384 297 364 305.5 Q344 314 332 320 Q300 335 269 350 Q238 365 207 381 Q195 369 184 354 Q173 339 173 321 Q173 307 181 295 Q189 283 200 274 Q208 267 222.5 259 Q237 251 253.5 243 Q270 235 286 228 Q302 221 313 216 Q339 205 363.5 193 Q388 181 414 170 Q427 181 438 196.5 Q449 212 449 230 Z " />
<glyph glyph-name="dieresis" unicode="&#xa8;" horiz-adv-x="313" d="M196 605 L196 724 L362 724 L362 605 L196 605 Z M-49 605 L-49 724 L117 724 L117 605 L-49 605 Z " />
<glyph glyph-name="copyright" unicode="&#xa9;" horiz-adv-x="833" d="M773 360 Q773 282 746 216 Q719 150 671 101 Q623 52 558 24.5 Q493 -3 416 -3 Q342 -3 277.5 25 Q213 53 165 101 Q117 149 89 214 Q61 279 61 353 Q61 427 89 492 Q117 557 165 605 Q213 653 278 681 Q343 709 417 709 Q490 709 555 681.5 Q620 654 668.5 606.5 Q717 559 745 495.5 Q773 432 773 360 Z M717 346 Q717 413 694 470.5 Q671 528 630.5 570.5 Q590 613 535 637 Q480 661 416 661 Q354 661 299.5 637 Q245 613 204.5 571 Q164 529 140.5 472.5 Q117 416 117 352 Q117 288 140 232 Q163 176 203.5 134.5 Q244 93 298.5 69 Q353 45 416 45 Q478 45 532.5 69 Q587 93 628 134 Q669 175 693 230 Q717 285 717 346 Z M608 198 Q563 153 521 135 Q479 117 423 117 Q370 117 326.5 134 Q283 151 252 182.5 Q221 214 204 257.5 Q187 301 187 354 Q187 407 204.5 450.5 Q222 494 253 525.5 Q284 557 327.5 574.5 Q371 592 423 592 Q482 592 523.5 574 Q565 556 608 511 L526 417 Q500 446 478.5 457 Q457 468 426 468 Q378 468 349 436 Q320 404 320 351 Q320 301 348.5 271 Q377 241 425 241 Q455 241 476 251 Q497 261 527 290 L608 198 Z " />
<glyph glyph-name="ordfeminine" unicode="&#xaa;" horiz-adv-x="396" d="M245 374 L245 400 Q224 381 197 373.5 Q170 366 142 366 Q91 366 55 392.5 Q19 419 19 474 Q19 512 42 539 Q54 553 69 561.5 Q84 570 101 575 Q118 580 135.5 582.5 Q153 585 170 588 Q187 591 204.5 594.5 Q222 598 239 601 Q238 623 228 630 Q218 637 197 637 Q178 637 167.5 631.5 Q157 626 154 606 L30 604 Q35 637 51 658 Q67 679 90 692 Q113 705 141 710 Q169 715 198 715 Q228 715 258 711.5 Q288 708 311.5 696 Q335 684 350 661.5 Q365 639 365 602 L365 401 Q365 391 367 386 Q369 381 376 374 L245 374 Z M238 526 Q229 523 220 519.5 Q211 516 201 514 Q194 512 184 509.5 Q174 507 164.5 503.5 Q155 500 148.5 493.5 Q142 487 142 478 Q142 465 152.5 458.5 Q163 452 174 452 Q182 452 192 455.5 Q202 459 209 464 Q229 478 233 491 Q237 504 238 526 Z " />
<glyph glyph-name="guillemotleft" unicode="&#xab;" horiz-adv-x="417" d="M225 225 L225 408 L383 533 L383 384 L293 315 L383 248 L383 100 L225 225 Z M32 225 L32 408 L189 533 L189 384 L100 315 L189 248 L189 100 L32 225 Z " />
<glyph glyph-name="logicalnot" unicode="&#xac;" horiz-adv-x="724" d="M433 31 L433 253 L67 253 L67 411 L633 411 L633 31 L433 31 Z " />
<glyph glyph-name="registered" unicode="&#xae;" horiz-adv-x="833" d="M773 360 Q773 282 746 216 Q719 150 671 101 Q623 52 558 24.5 Q493 -3 416 -3 Q342 -3 277.5 25 Q213 53 165 101 Q117 149 89 214 Q61 279 61 353 Q61 427 89 492 Q117 557 165 605 Q213 653 278 681 Q343 709 417 709 Q490 709 555 681.5 Q620 654 668.5 606.5 Q717 559 745 495.5 Q773 432 773 360 Z M717 346 Q717 413 694 470.5 Q671 528 630.5 570.5 Q590 613 535 637 Q480 661 416 661 Q354 661 299.5 637 Q245 613 204.5 571 Q164 529 140.5 472.5 Q117 416 117 352 Q117 288 140 232 Q163 176 203.5 134.5 Q244 93 298.5 69 Q353 45 416 45 Q478 45 532.5 69 Q587 93 628 134 Q669 175 693 230 Q717 285 717 346 Z M481 144 L417 299 L380 299 L380 144 L254 144 L254 576 L394 576 Q401 576 412 575.5 Q423 575 444 574 Q481 572 499 568.5 Q517 565 534 555 Q602 516 602 436 Q602 395 585 366.5 Q568 338 530 316 L616 144 L481 144 Z M477 436 Q477 482 415 482 L379 482 L379 389 L416 389 Q449 389 463 399.5 Q477 410 477 436 Z " />
<glyph glyph-name="macron" unicode="&#xaf;" horiz-adv-x="313" d="M-49 605 L-49 698 L362 698 L362 605 L-49 605 Z " />
<glyph glyph-name="degree" unicode="&#xb0;" horiz-adv-x="354" d="M349 573 Q349 537 335.5 505.5 Q322 474 298.5 450.5 Q275 427 244 413.5 Q213 400 177 400 Q141 400 110 413.5 Q79 427 55.5 450.5 Q32 474 18.5 505.5 Q5 537 5 573 Q5 609 18.5 640.5 Q32 672 55 695 Q78 718 109.5 731.5 Q141 745 177 745 Q213 745 244.5 731.5 Q276 718 299 695 Q322 672 335.5 640.5 Q349 609 349 573 Z M233 575 Q233 598 216.5 614 Q200 630 177 630 Q154 630 138 614 Q122 598 122 575 Q122 552 138 535.5 Q154 519 177 519 Q200 519 216.5 535.5 Q233 552 233 575 Z " />
<glyph glyph-name="plusminus" unicode="&#xb1;" horiz-adv-x="724" d="M461 383 L462 205 L262 205 L262 383 L92 383 L91 535 L262 535 L263 706 L462 706 L462 535 L633 535 L633 383 L461 383 Z M91 0 L91 154 L632 154 L632 0 L91 0 Z " />
<glyph glyph-name="twosuperior" unicode="&#xb2;" horiz-adv-x="437" d="M407 549 Q407 510 392 481 Q377 452 353.5 429.5 Q330 407 300.5 388.5 Q271 370 242 353 L402 353 L402 243 L20 243 L20 332 Q75 362 135.5 400.5 Q196 439 239 485 Q250 496 258 511.5 Q266 527 266 543 Q266 568 250 580.5 Q234 593 211 593 Q181 593 168 576.5 Q155 560 155 531 Q155 522 156 512.5 Q157 503 159 494 L22 511 Q24 562 35.5 596.5 Q47 631 71 652 Q95 673 131 682 Q167 691 218 691 L227 691 Q262 691 294.5 684 Q327 677 352 660.5 Q377 644 392 617 Q407 590 407 549 Z " />
<glyph glyph-name="threesuperior" unicode="&#xb3;" horiz-adv-x="437" d="M409 379 Q409 356 401.5 333 Q394 310 380 293 Q365 275 345.5 263.5 Q326 252 304 245.5 Q282 239 259 237 Q236 235 213 235 Q174 235 141 241 Q108 247 81.5 262 Q55 277 36.5 303.5 Q18 330 9 371 L137 395 Q146 335 209 335 Q233 335 251 345.5 Q269 356 269 383 Q269 401 259 409.5 Q249 418 234.5 421 Q220 424 204.5 423.5 Q189 423 177 423 L177 516 Q189 516 204 515.5 Q219 515 232 518.5 Q245 522 254 530.5 Q263 539 263 557 Q263 580 246 589 Q229 598 209 598 Q180 598 167.5 585.5 Q155 573 150 545 L22 552 Q28 594 44.5 621 Q61 648 86 664.5 Q111 681 144 687.5 Q177 694 216 694 Q248 694 280 688.5 Q312 683 337.5 668.5 Q363 654 379.5 629.5 Q396 605 396 567 Q396 533 380.5 512.5 Q365 492 338 475 Q372 462 390.5 438.5 Q409 415 409 379 Z " />
<glyph glyph-name="acute" unicode="&#xb4;" horiz-adv-x="313" d="M140 587 L12 587 L89 724 L301 724 L140 587 Z " />
<glyph glyph-name="mu" unicode="&#xb5;" horiz-adv-x="676" d="M668 0 Q644 -7 615 -10.5 Q586 -14 559 -14 Q531 -14 510.5 -9 Q490 -4 471 7 Q455 16 446 27 Q437 38 422 64 Q410 25 391.5 8.5 Q373 -8 338 -8 Q307 -8 287.5 6 Q268 20 256 49 L259 -216 L52 -216 L52 517 L260 517 L260 254 Q260 232 262 218 Q264 204 267 192 Q273 166 290 151.5 Q307 137 331 137 Q364 137 379 164 Q393 188 396 233 Q397 247 397.5 275.5 Q398 304 398 327 L398 517 L605 517 L605 188 Q605 138 639 138 Q646 138 651.5 139 Q657 140 668 145 L668 0 Z " />
<glyph glyph-name="paragraph" unicode="&#xb6;" horiz-adv-x="637" d="M520 610 L520 -167 L418 -167 L418 610 L319 610 L319 -167 L216 -167 L216 292 Q62 332 62 491 Q62 592 128 652 Q150 673 178 685 Q192 691 204.5 695 Q217 699 232 701.5 Q247 704 266 705 Q285 706 311 706 L556 706 L556 610 L520 610 Z " />
<glyph glyph-name="periodcentered" unicode="&#xb7;" horiz-adv-x="250" d="M32 197 L32 382 L218 382 L218 197 L32 197 Z " />
<glyph glyph-name="cedilla" unicode="&#xb8;" horiz-adv-x="313" d="M260 -129 Q260 -142 255.5 -154 Q251 -166 243 -176 Q223 -202 194.5 -210 Q166 -218 134 -218 Q113 -218 93 -216 Q73 -214 53 -211 L56 -156 Q61 -158 66.5 -159 Q72 -160 78 -160 Q83 -160 90.5 -159 Q98 -158 105 -155.5 Q112 -153 116.5 -148.5 Q121 -144 121 -137 Q121 -127 112.5 -124 Q104 -121 96 -121 Q86 -121 76.5 -123 Q67 -125 58 -127 L61 -92 L127 6 L174 -9 L150 -59 Q157 -58 164 -57.5 Q171 -57 178 -57 Q210 -57 235 -76 Q260 -95 260 -129 Z " />
<glyph glyph-name="onesuperior" unicode="&#xb9;" horiz-adv-x="437" d="M170 243 L170 528 Q153 523 136 521.5 Q119 520 102 520 L77 520 L77 626 Q97 626 114.5 627 Q132 628 146 634 Q160 640 170.5 652 Q181 664 188 685 L308 685 L308 243 L170 243 Z " />
<glyph glyph-name="ordmasculine" unicode="&#xba;" horiz-adv-x="417" d="M399 538 Q399 493 383.5 460 Q368 427 341.5 405 Q315 383 279 372 Q243 361 202 361 Q162 361 128 373 Q94 385 69 407.5 Q44 430 30 462.5 Q16 495 16 536 Q16 580 30 613.5 Q44 647 69.5 670 Q95 693 130.5 705 Q166 717 208 717 Q250 717 285 705.5 Q320 694 345.5 671 Q371 648 385 615 Q399 582 399 538 Z M266 540 Q266 575 254.5 599 Q243 623 203 623 Q185 623 174 614 Q163 605 157 591 Q151 577 149 561.5 Q147 546 147 532 Q147 504 160 479 Q173 454 207 454 Q225 454 236.5 462 Q248 470 254.5 482 Q261 494 263.5 509.5 Q266 525 266 540 Z " />
<glyph glyph-name="guillemotright" unicode="&#xbb;" horiz-adv-x="417" d="M225 100 L225 249 L315 318 L225 385 L225 533 L383 408 L383 225 L225 100 Z M32 100 L32 249 L122 318 L32 385 L32 533 L189 408 L189 225 L32 100 Z " />
<glyph glyph-name="onequarter" unicode="&#xbc;" horiz-adv-x="1000" d="M913 90 L913 0 L783 0 L783 89 L574 89 L574 177 L777 443 L913 443 L913 186 L977 186 L977 90 L913 90 Z M397 0 L306 0 L607 706 L699 706 L397 0 Z M170 243 L170 528 Q153 523 136 521.5 Q119 520 102 520 L77 520 L77 626 Q97 626 114.5 627 Q132 628 146 634 Q160 640 170.5 652 Q181 664 188 685 L308 685 L308 243 L170 243 Z M788 317 Q767 283 744 250.5 Q721 218 697 186 L784 186 Q785 219 785.5 251.5 Q786 284 788 317 Z " />
<glyph glyph-name="onehalf" unicode="&#xbd;" horiz-adv-x="1000" d="M970 306 Q970 267 955 238 Q940 209 916 186.5 Q892 164 862.5 145.5 Q833 127 804 110 L964 110 L964 0 L582 0 L582 89 Q605 102 646.5 126 Q688 150 728.5 179.5 Q769 209 799 241 Q829 273 829 301 Q829 326 812.5 338 Q796 350 773 350 Q743 350 730 333.5 Q717 317 717 288 Q717 278 718.5 269 Q720 260 721 251 L585 268 Q586 320 598.5 354.5 Q611 389 636 410 Q661 431 698.5 439.5 Q736 448 787 448 Q822 448 855 441 Q888 434 913.5 417.5 Q939 401 954.5 374 Q970 347 970 306 Z M374 0 L282 0 L583 706 L675 706 L374 0 Z M170 243 L170 528 Q153 523 136 521.5 Q119 520 102 520 L77 520 L77 626 Q97 626 114.5 627 Q132 628 146 634 Q160 640 170.5 652 Q181 664 188 685 L308 685 L308 243 L170 243 Z " />
<glyph glyph-name="threequarters" unicode="&#xbe;" horiz-adv-x="1000" d="M913 90 L913 0 L783 0 L783 89 L574 89 L574 177 L777 443 L913 443 L913 186 L977 186 L977 90 L913 90 Z M397 0 L306 0 L607 706 L699 706 L397 0 Z M409 379 Q409 356 401.5 333 Q394 310 380 293 Q365 275 345.5 263.5 Q326 252 304 245.5 Q282 239 259 237 Q236 235 213 235 Q174 235 141 241 Q108 247 81.5 262 Q55 277 36.5 303.5 Q18 330 9 371 L137 395 Q146 335 209 335 Q233 335 251 345.5 Q269 356 269 383 Q269 401 259 409.5 Q249 418 234.5 421 Q220 424 204.5 423.5 Q189 423 177 423 L177 516 Q189 516 204 515.5 Q219 515 232 518.5 Q245 522 254 530.5 Q263 539 263 557 Q263 580 246 589 Q229 598 209 598 Q180 598 167.5 585.5 Q155 573 150 545 L22 552 Q28 594 44.5 621 Q61 648 86 664.5 Q111 681 144 687.5 Q177 694 216 694 Q248 694 280 688.5 Q312 683 337.5 668.5 Q363 654 379.5 629.5 Q396 605 396 567 Q396 533 380.5 512.5 Q365 492 338 475 Q372 462 390.5 438.5 Q409 415 409 379 Z M788 317 Q767 283 744 250.5 Q721 218 697 186 L784 186 Q785 219 785.5 251.5 Q786 284 788 317 Z " />
<glyph glyph-name="questiondown" unicode="&#xbf;" horiz-adv-x="604" d="M224 518 L224 706 L406 706 L406 518 L224 518 Z M558 178 Q547 140 531.5 112 Q516 84 485 56 Q440 15 387.5 2 Q335 -11 276 -11 Q246 -11 215 -7.5 Q184 -4 154.5 4.5 Q125 13 99 28.5 Q73 44 52 68 Q10 116 10 181 Q10 222 24.5 251 Q39 280 61.5 301.5 Q84 323 110.5 339.5 Q137 356 161.5 372 Q186 388 204 406 Q222 424 227 448 L401 448 Q400 437 399 426.5 Q398 416 395 405 Q386 372 362 347 Q338 322 312 302 Q299 292 282 280 Q265 268 249.5 254 Q234 240 223.5 223.5 Q213 207 213 188 Q213 156 235.5 139.5 Q258 123 287 123 Q314 123 332 132 Q350 141 361.5 156 Q373 171 379 191.5 Q385 212 387 235 L558 178 Z " />
<glyph glyph-name="Agrave" unicode="&#xc0;" horiz-adv-x="792" d="M357 754 L207 874 L424 874 L488 754 L357 754 Z M547 0 L516 99 L270 99 L239 0 L-1 0 L269 706 L523 706 L787 0 L547 0 Z M395 505 L318 256 L470 256 L395 505 Z " />
<glyph glyph-name="Aacute" unicode="&#xc1;" horiz-adv-x="792" d="M436 754 L305 754 L369 874 L586 874 L436 754 Z M547 0 L516 99 L270 99 L239 0 L-1 0 L269 706 L523 706 L787 0 L547 0 Z M395 505 L318 256 L470 256 L395 505 Z " />
<glyph glyph-name="Acircumflex" unicode="&#xc2;" horiz-adv-x="792" d="M431 751 L397 804 L366 751 L225 751 L318 874 L479 874 L574 751 L431 751 Z M547 0 L516 99 L270 99 L239 0 L-1 0 L269 706 L523 706 L787 0 L547 0 Z M395 505 L318 256 L470 256 L395 505 Z " />
<glyph glyph-name="Atilde" unicode="&#xc3;" horiz-adv-x="792" d="M596 877 Q592 850 584.5 828 Q577 806 563.5 789.5 Q550 773 529 764 Q508 755 477 755 Q452 755 427.5 760.5 Q403 766 379 771 Q368 773 357 776 Q346 779 335 779 Q311 779 310 756 L209 756 Q214 783 221.5 805 Q229 827 242.5 843 Q256 859 276 868 Q296 877 327 877 Q362 877 396.5 867 Q431 857 462 857 Q482 857 490 877 L596 877 Z M547 0 L516 99 L270 99 L239 0 L-1 0 L269 706 L523 706 L787 0 L547 0 Z M395 505 L318 256 L470 256 L395 505 Z " />
<glyph glyph-name="Adieresis" unicode="&#xc4;" horiz-adv-x="792" d="M428 757 L428 876 L594 876 L594 757 L428 757 Z M198 757 L198 876 L364 876 L364 757 L198 757 Z M547 0 L516 99 L270 99 L239 0 L-1 0 L269 706 L523 706 L787 0 L547 0 Z M395 505 L318 256 L470 256 L395 505 Z " />
<glyph glyph-name="Aring" unicode="&#xc5;" horiz-adv-x="792" d="M510 829 Q510 805 500 786.5 Q490 768 474 755 Q458 742 437 735.5 Q416 729 394 729 Q372 729 351 735.5 Q330 742 314 755 Q298 768 288 786.5 Q278 805 278 829 Q278 853 287.5 872 Q297 891 313.5 904 Q330 917 351 923.5 Q372 930 394 930 Q416 930 437 923 Q458 916 474 903.5 Q490 891 500 872 Q510 853 510 829 Z M547 0 L516 99 L270 99 L239 0 L-1 0 L269 706 L523 706 L787 0 L547 0 Z M430 829 Q430 844 419.5 854.5 Q409 865 394 865 Q379 865 368.5 854.5 Q358 844 358 829 Q358 815 369 804 Q380 793 394 793 Q409 793 419.5 803.5 Q430 814 430 829 Z M395 505 L318 256 L470 256 L395 505 Z " />
<glyph glyph-name="AE" unicode="&#xc6;" horiz-adv-x="1104" d="M513 0 L513 100 L286 100 L235 0 L-17 0 L396 706 L1054 706 L1054 553 L729 553 L729 447 L1029 447 L1029 292 L729 292 L729 155 L1089 155 L1089 0 L513 0 Z M520 569 Q509 541 497.5 513.5 Q486 486 472 459 L366 254 L514 254 Q513 292 512.5 328.5 Q512 365 512 403 Q512 445 515 486 Q518 527 520 569 Z " />
<glyph glyph-name="Ccedilla" unicode="&#xc7;" horiz-adv-x="750" d="M737 182 Q728 165 718.5 149 Q709 133 698 118 Q663 70 613 38 Q563 6 506 -8 Q483 -14 460 -16.5 Q437 -19 413 -22 L396 -67 Q407 -64 418 -62 Q429 -60 440 -60 Q475 -60 497.5 -82 Q520 -104 520 -139 Q520 -167 507.5 -186 Q495 -205 475.5 -216.5 Q456 -228 431.5 -233 Q407 -238 384 -238 Q347 -238 311 -232 L310 -174 Q318 -176 326.5 -177 Q335 -178 343 -178 Q356 -178 369.5 -173.5 Q383 -169 383 -152 Q383 -141 372.5 -136 Q362 -131 353 -131 Q342 -131 331 -134.5 Q320 -138 309 -143 L308 -98 L358 -21 Q283 -14 221.5 16.5 Q160 47 117 96 Q74 145 50.5 209.5 Q27 274 27 349 Q27 428 53.5 498 Q80 568 128 620 Q176 672 243 702 Q310 732 391 732 Q477 732 556.5 699.5 Q636 667 692 600 Q716 570 736 535 L549 442 Q538 467 524.5 488.5 Q511 510 494 525.5 Q477 541 454 550 Q431 559 401 559 Q361 559 332.5 542 Q304 525 287 497 Q270 469 262 434.5 Q254 400 254 365 Q254 329 261 292.5 Q268 256 285 226 Q302 196 330 177 Q358 158 401 158 Q458 158 493.5 189.5 Q529 221 546 274 L737 182 Z " />
<glyph glyph-name="Egrave" unicode="&#xc8;" horiz-adv-x="646" d="M284 754 L134 874 L351 874 L415 754 L284 754 Z M44 0 L44 706 L603 706 L603 551 L268 551 L268 446 L581 446 L581 293 L267 293 L267 153 L633 153 L633 0 L44 0 Z " />
<glyph glyph-name="Eacute" unicode="&#xc9;" horiz-adv-x="646" d="M364 754 L232 754 L296 874 L513 874 L364 754 Z M44 0 L44 706 L603 706 L603 551 L268 551 L268 446 L581 446 L581 293 L267 293 L267 153 L633 153 L633 0 L44 0 Z " />
<glyph glyph-name="Ecircumflex" unicode="&#xca;" horiz-adv-x="646" d="M358 751 L324 804 L293 751 L152 751 L245 874 L406 874 L502 751 L358 751 Z M44 0 L44 706 L603 706 L603 551 L268 551 L268 446 L581 446 L581 293 L267 293 L267 153 L633 153 L633 0 L44 0 Z " />
<glyph glyph-name="Edieresis" unicode="&#xcb;" horiz-adv-x="646" d="M357 757 L357 876 L523 876 L523 757 L357 757 Z M128 757 L128 876 L293 876 L293 757 L128 757 Z M44 0 L44 706 L603 706 L603 551 L268 551 L268 446 L581 446 L581 293 L267 293 L267 153 L633 153 L633 0 L44 0 Z " />
<glyph glyph-name="Igrave" unicode="&#xcc;" horiz-adv-x="313" d="M117 754 L-33 874 L184 874 L249 754 L117 754 Z M44 0 L44 706 L268 706 L268 0 L44 0 Z " />
<glyph glyph-name="Iacute" unicode="&#xcd;" horiz-adv-x="313" d="M197 754 L65 754 L130 874 L347 874 L197 754 Z M44 0 L44 706 L268 706 L268 0 L44 0 Z " />
<glyph glyph-name="Icircumflex" unicode="&#xce;" horiz-adv-x="313" d="M192 751 L157 804 L127 751 L-15 751 L78 874 L240 874 L335 751 L192 751 Z M44 0 L44 706 L268 706 L268 0 L44 0 Z " />
<glyph glyph-name="Idieresis" unicode="&#xcf;" horiz-adv-x="313" d="M190 757 L190 876 L356 876 L356 757 L190 757 Z M-39 757 L-39 876 L127 876 L127 757 L-39 757 Z M44 0 L44 706 L268 706 L268 0 L44 0 Z " />
<glyph glyph-name="Eth" unicode="&#xd0;" horiz-adv-x="750" d="M724 349 Q724 297 713 245.5 Q702 194 678.5 150 Q655 106 617.5 72 Q580 38 527 19 Q489 5 445.5 2.5 Q402 0 362 0 L44 0 L44 300 L0 300 L0 431 L44 431 L44 706 L311 706 Q337 706 368 705.5 Q399 705 430.5 702 Q462 699 491.5 693 Q521 687 545 677 Q596 655 630.5 620.5 Q665 586 686 543 Q707 500 715.5 450.5 Q724 401 724 349 Z M499 353 Q499 374 496 398.5 Q493 423 485.5 446.5 Q478 470 465 490 Q452 510 433 522 Q416 533 395 537 Q374 541 354 541 L268 541 L268 431 L412 431 L412 300 L268 300 L268 162 L353 162 Q395 162 423 178.5 Q451 195 468 222 Q485 249 492 283 Q499 317 499 353 Z " />
<glyph glyph-name="Ntilde" unicode="&#xd1;" horiz-adv-x="771" d="M586 877 Q584 866 582 855.5 Q580 845 577 834 Q552 755 467 755 Q442 755 417 760.5 Q392 766 368 771 Q357 773 346.5 776 Q336 779 325 779 Q301 779 300 756 L199 756 Q204 783 211.5 805 Q219 827 232.5 843 Q246 859 266 868 Q286 877 317 877 Q352 877 387 867 Q422 857 451 857 Q473 857 479 877 L586 877 Z M485 0 Q422 107 360.5 212.5 Q299 318 245 430 Q248 394 250 358 Q252 322 252 286 L252 0 L44 0 L44 706 L281 706 L439 439 Q464 397 485 354 Q506 311 526 266 Q522 307 519.5 347 Q517 387 517 429 L517 706 L726 706 L726 0 L485 0 Z " />
<glyph glyph-name="Ograve" unicode="&#xd2;" horiz-adv-x="812" d="M367 754 L217 874 L434 874 L499 754 L367 754 Z M784 358 Q784 307 772.5 257 Q761 207 737 162 Q685 65 597 21 Q509 -23 402 -23 Q315 -23 245 4 Q175 31 126.5 81 Q78 131 52 201 Q26 271 26 357 Q26 400 34.5 443 Q43 486 61 525 Q86 580 122 619 Q158 658 203.5 683 Q249 708 301.5 720 Q354 732 412 732 Q457 732 500 724.5 Q543 717 584 698 Q634 676 671.5 640 Q709 604 734 559 Q759 514 771.5 462.5 Q784 411 784 358 Z M559 358 Q559 396 551.5 431 Q544 466 526 493.5 Q508 521 478.5 537.5 Q449 554 406 554 Q362 554 332 536.5 Q302 519 284 490.5 Q266 462 258 426 Q250 390 250 352 Q250 313 258 277.5 Q266 242 284 215 Q302 188 332 172 Q362 156 406 156 Q449 156 478 174 Q507 192 525 220.5 Q543 249 551 285.5 Q559 322 559 358 Z " />
<glyph glyph-name="Oacute" unicode="&#xd3;" horiz-adv-x="812" d="M447 754 L315 754 L380 874 L597 874 L447 754 Z M784 358 Q784 307 772.5 257 Q761 207 737 162 Q685 65 597 21 Q509 -23 402 -23 Q315 -23 245 4 Q175 31 126.5 81 Q78 131 52 201 Q26 271 26 357 Q26 400 34.5 443 Q43 486 61 525 Q86 580 122 619 Q158 658 203.5 683 Q249 708 301.5 720 Q354 732 412 732 Q457 732 500 724.5 Q543 717 584 698 Q634 676 671.5 640 Q709 604 734 559 Q759 514 771.5 462.5 Q784 411 784 358 Z M559 358 Q559 396 551.5 431 Q544 466 526 493.5 Q508 521 478.5 537.5 Q449 554 406 554 Q362 554 332 536.5 Q302 519 284 490.5 Q266 462 258 426 Q250 390 250 352 Q250 313 258 277.5 Q266 242 284 215 Q302 188 332 172 Q362 156 406 156 Q449 156 478 174 Q507 192 525 220.5 Q543 249 551 285.5 Q559 322 559 358 Z " />
<glyph glyph-name="Ocircumflex" unicode="&#xd4;" horiz-adv-x="812" d="M442 751 L407 804 L377 751 L235 751 L328 874 L490 874 L585 751 L442 751 Z M784 358 Q784 307 772.5 257 Q761 207 737 162 Q685 65 597 21 Q509 -23 402 -23 Q315 -23 245 4 Q175 31 126.5 81 Q78 131 52 201 Q26 271 26 357 Q26 400 34.5 443 Q43 486 61 525 Q86 580 122 619 Q158 658 203.5 683 Q249 708 301.5 720 Q354 732 412 732 Q457 732 500 724.5 Q543 717 584 698 Q634 676 671.5 640 Q709 604 734 559 Q759 514 771.5 462.5 Q784 411 784 358 Z M559 358 Q559 396 551.5 431 Q544 466 526 493.5 Q508 521 478.5 537.5 Q449 554 406 554 Q362 554 332 536.5 Q302 519 284 490.5 Q266 462 258 426 Q250 390 250 352 Q250 313 258 277.5 Q266 242 284 215 Q302 188 332 172 Q362 156 406 156 Q449 156 478 174 Q507 192 525 220.5 Q543 249 551 285.5 Q559 322 559 358 Z " />
<glyph glyph-name="Otilde" unicode="&#xd5;" horiz-adv-x="812" d="M607 877 Q605 866 603 855.5 Q601 845 598 834 Q573 755 488 755 Q463 755 438 760.5 Q413 766 389 771 Q378 773 367 776 Q356 779 345 779 Q332 779 327 773.5 Q322 768 321 756 L220 756 Q225 782 232.5 804.5 Q240 827 253 843 Q266 859 286.5 868 Q307 877 337 877 Q373 877 408 867 Q443 857 472 857 Q494 857 500 877 L607 877 Z M784 358 Q784 307 772.5 257 Q761 207 737 162 Q685 65 597 21 Q509 -23 402 -23 Q315 -23 245 4 Q175 31 126.5 81 Q78 131 52 201 Q26 271 26 357 Q26 400 34.5 443 Q43 486 61 525 Q86 580 122 619 Q158 658 203.5 683 Q249 708 301.5 720 Q354 732 412 732 Q457 732 500 724.5 Q543 717 584 698 Q634 676 671.5 640 Q709 604 734 559 Q759 514 771.5 462.5 Q784 411 784 358 Z M559 358 Q559 396 551.5 431 Q544 466 526 493.5 Q508 521 478.5 537.5 Q449 554 406 554 Q362 554 332 536.5 Q302 519 284 490.5 Q266 462 258 426 Q250 390 250 352 Q250 313 258 277.5 Q266 242 284 215 Q302 188 332 172 Q362 156 406 156 Q449 156 478 174 Q507 192 525 220.5 Q543 249 551 285.5 Q559 322 559 358 Z " />
<glyph glyph-name="Odieresis" unicode="&#xd6;" horiz-adv-x="812" d="M439 757 L439 876 L604 876 L604 757 L439 757 Z M209 757 L209 876 L375 876 L375 757 L209 757 Z M784 358 Q784 307 772.5 257 Q761 207 737 162 Q685 65 597 21 Q509 -23 402 -23 Q315 -23 245 4 Q175 31 126.5 81 Q78 131 52 201 Q26 271 26 357 Q26 400 34.5 443 Q43 486 61 525 Q86 580 122 619 Q158 658 203.5 683 Q249 708 301.5 720 Q354 732 412 732 Q457 732 500 724.5 Q543 717 584 698 Q634 676 671.5 640 Q709 604 734 559 Q759 514 771.5 462.5 Q784 411 784 358 Z M559 358 Q559 396 551.5 431 Q544 466 526 493.5 Q508 521 478.5 537.5 Q449 554 406 554 Q362 554 332 536.5 Q302 519 284 490.5 Q266 462 258 426 Q250 390 250 352 Q250 313 258 277.5 Q266 242 284 215 Q302 188 332 172 Q362 156 406 156 Q449 156 478 174 Q507 192 525 220.5 Q543 249 551 285.5 Q559 322 559 358 Z " />
<glyph glyph-name="multiply" unicode="&#xd7;" horiz-adv-x="724" d="M493 77 L350 208 L234 82 L122 185 L237 311 L98 439 L233 586 L372 458 L488 585 L600 482 L484 355 L627 224 L493 77 Z " />
<glyph glyph-name="Oslash" unicode="&#xd8;" horiz-adv-x="812" d="M718 580 Q753 525 768.5 474.5 Q784 424 784 358 Q784 301 769 246 Q754 191 725 144 Q696 97 653.5 60.5 Q611 24 557 2 Q521 -12 481 -18 Q441 -24 402 -24 Q336 -24 272 -6.5 Q208 11 156 53 L79 -19 L14 50 L92 124 Q57 181 42.5 234 Q28 287 28 354 Q28 414 42.5 470 Q57 526 86.5 573.5 Q116 621 160 657 Q204 693 262 713 Q297 725 334 729 Q371 733 408 733 Q453 733 505 723.5 Q557 714 597 693 Q613 685 627 675 Q641 665 655 654 L735 729 L801 658 L718 580 Z M510 516 Q492 539 464.5 548 Q437 557 409 557 Q365 557 334.5 540.5 Q304 524 285 496.5 Q266 469 257.5 433 Q249 397 249 358 Q249 338 251 317.5 Q253 297 255 277 L510 516 Z M561 361 Q561 378 559.5 395 Q558 412 556 429 L301 189 Q326 170 346.5 161 Q367 152 399 152 Q445 152 476 169.5 Q507 187 526 216.5 Q545 246 553 283.5 Q561 321 561 361 Z " />
<glyph glyph-name="Ugrave" unicode="&#xd9;" horiz-adv-x="729" d="M325 754 L176 874 L393 874 L457 754 L325 754 Z M686 283 Q686 210 662 153.5 Q638 97 595 58.5 Q552 20 493 0.5 Q434 -19 363 -19 Q316 -19 268.5 -9.5 Q221 0 180 21 Q139 42 107 75.5 Q75 109 58 157 Q47 186 44.5 220.5 Q42 255 42 287 L42 706 L266 706 L266 265 Q266 217 286 185.5 Q306 154 361 154 Q418 154 439.5 184 Q461 214 461 265 L461 706 L686 706 L686 283 Z " />
<glyph glyph-name="Uacute" unicode="&#xda;" horiz-adv-x="729" d="M405 754 L274 754 L338 874 L555 874 L405 754 Z M686 283 Q686 210 662 153.5 Q638 97 595 58.5 Q552 20 493 0.5 Q434 -19 363 -19 Q316 -19 268.5 -9.5 Q221 0 180 21 Q139 42 107 75.5 Q75 109 58 157 Q47 186 44.5 220.5 Q42 255 42 287 L42 706 L266 706 L266 265 Q266 217 286 185.5 Q306 154 361 154 Q418 154 439.5 184 Q461 214 461 265 L461 706 L686 706 L686 283 Z " />
<glyph glyph-name="Ucircumflex" unicode="&#xdb;" horiz-adv-x="729" d="M400 751 L366 804 L335 751 L193 751 L286 874 L448 874 L543 751 L400 751 Z M686 283 Q686 210 662 153.5 Q638 97 595 58.5 Q552 20 493 0.5 Q434 -19 363 -19 Q316 -19 268.5 -9.5 Q221 0 180 21 Q139 42 107 75.5 Q75 109 58 157 Q47 186 44.5 220.5 Q42 255 42 287 L42 706 L266 706 L266 265 Q266 217 286 185.5 Q306 154 361 154 Q418 154 439.5 184 Q461 214 461 265 L461 706 L686 706 L686 283 Z " />
<glyph glyph-name="Udieresis" unicode="&#xdc;" horiz-adv-x="729" d="M396 757 L396 876 L561 876 L561 757 L396 757 Z M166 757 L166 876 L332 876 L332 757 L166 757 Z M686 283 Q686 210 662 153.5 Q638 97 595 58.5 Q552 20 493 0.5 Q434 -19 363 -19 Q316 -19 268.5 -9.5 Q221 0 180 21 Q139 42 107 75.5 Q75 109 58 157 Q47 186 44.5 220.5 Q42 255 42 287 L42 706 L266 706 L266 265 Q266 217 286 185.5 Q306 154 361 154 Q418 154 439.5 184 Q461 214 461 265 L461 706 L686 706 L686 283 Z " />
<glyph glyph-name="Yacute" unicode="&#xdd;" horiz-adv-x="792" d="M436 754 L305 754 L369 874 L586 874 L436 754 Z M504 297 L504 0 L280 0 L280 297 L-3 706 L255 706 L394 471 L530 706 L788 706 L504 297 Z " />
<glyph glyph-name="Thorn" unicode="&#xde;" horiz-adv-x="708" d="M708 382 Q708 337 697.5 295.5 Q687 254 659 218 Q637 189 613 171.5 Q589 154 562 145 Q535 136 505 133 Q475 130 440 130 L268 130 L268 0 L44 0 L44 706 L268 706 L268 606 L447 606 Q479 606 517 602.5 Q555 599 585 585 Q648 557 678 502.5 Q708 448 708 382 Z M486 369 Q486 415 462 436.5 Q438 458 394 458 L268 458 L268 278 L395 278 Q439 278 462.5 301.5 Q486 325 486 369 Z " />
<glyph glyph-name="germandbls" unicode="&#xdf;" horiz-adv-x="625" d="M601 226 Q601 172 588 127.5 Q575 83 548 52 Q521 21 479 4 Q437 -13 380 -13 Q351 -13 331 -8.5 Q311 -4 285 8 L285 138 Q297 129 309 123.5 Q321 118 337 118 Q360 118 373.5 130 Q387 142 394 159.5 Q401 177 402.5 197.5 Q404 218 404 235 Q404 268 400 289 Q396 310 384.5 322.5 Q373 335 353.5 340 Q334 345 303 345 L303 455 Q308 454 312 453.5 Q316 453 321 453 Q349 453 361 474 Q373 495 373 519 Q373 551 358.5 569.5 Q344 588 311 588 Q290 588 277 581 Q264 574 257 562 Q250 550 248 534 Q246 518 246 500 L246 0 L41 0 L41 455 Q41 483 43 514.5 Q45 546 55 572 Q71 615 99 642.5 Q127 670 163 685.5 Q199 701 239.5 707 Q280 713 321 713 Q366 713 409 704 Q452 695 485.5 674 Q519 653 540 618 Q561 583 561 531 Q561 503 553.5 475.5 Q546 448 525 428 Q518 422 511 417.5 Q504 413 496 408 Q511 404 525 398.5 Q539 393 551 383 Q566 370 576 351 Q586 332 591.5 310.5 Q597 289 599 267 Q601 245 601 226 Z " />
<glyph glyph-name="agrave" unicode="&#xe0;" horiz-adv-x="604" d="M294 587 L132 724 L345 724 L421 587 L294 587 Z M377 0 L377 40 Q339 11 296 -0.5 Q253 -12 205 -12 Q166 -12 132 -1.5 Q98 9 73 30 Q48 51 33.5 82 Q19 113 19 154 Q19 214 54 256 Q75 281 100 295 Q125 309 152.5 316.5 Q180 324 209.5 328 Q239 332 268 336 Q294 340 318 344.5 Q342 349 367 356 Q367 394 347 405 Q327 416 294 416 Q264 416 249.5 406 Q235 396 229 367 L36 362 Q41 381 45 400 Q49 419 60 436 Q80 469 109.5 488.5 Q139 508 173.5 518.5 Q208 529 245.5 532 Q283 535 317 535 Q349 535 385.5 531 Q422 527 455 515 Q488 503 514.5 481.5 Q541 460 553 424 Q560 405 561 385.5 Q562 366 562 346 L562 64 Q562 43 564.5 30 Q567 17 580 0 L377 0 Z M366 241 Q351 236 336 231.5 Q321 227 306 222 Q295 219 278.5 215 Q262 211 247 204.5 Q232 198 221 187.5 Q210 177 210 162 Q210 141 226 131 Q242 121 260 121 Q274 121 288 125.5 Q302 130 314 137 Q343 155 354.5 178 Q366 201 366 235 L366 241 Z " />
<glyph glyph-name="aacute" unicode="&#xe1;" horiz-adv-x="604" d="M358 587 L230 587 L307 724 L519 724 L358 587 Z M377 0 L377 40 Q339 11 296 -0.5 Q253 -12 205 -12 Q166 -12 132 -1.5 Q98 9 73 30 Q48 51 33.5 82 Q19 113 19 154 Q19 214 54 256 Q75 281 100 295 Q125 309 152.5 316.5 Q180 324 209.5 328 Q239 332 268 336 Q294 340 318 344.5 Q342 349 367 356 Q367 394 347 405 Q327 416 294 416 Q264 416 249.5 406 Q235 396 229 367 L36 362 Q41 381 45 400 Q49 419 60 436 Q80 469 109.5 488.5 Q139 508 173.5 518.5 Q208 529 245.5 532 Q283 535 317 535 Q349 535 385.5 531 Q422 527 455 515 Q488 503 514.5 481.5 Q541 460 553 424 Q560 405 561 385.5 Q562 366 562 346 L562 64 Q562 43 564.5 30 Q567 17 580 0 L377 0 Z M366 241 Q351 236 336 231.5 Q321 227 306 222 Q295 219 278.5 215 Q262 211 247 204.5 Q232 198 221 187.5 Q210 177 210 162 Q210 141 226 131 Q242 121 260 121 Q274 121 288 125.5 Q302 130 314 137 Q343 155 354.5 178 Q366 201 366 235 L366 241 Z " />
<glyph glyph-name="acircumflex" unicode="&#xe2;" horiz-adv-x="604" d="M344 586 L303 652 L263 586 L121 586 L227 724 L383 724 L487 586 L344 586 Z M377 0 L377 40 Q339 11 296 -0.5 Q253 -12 205 -12 Q166 -12 132 -1.5 Q98 9 73 30 Q48 51 33.5 82 Q19 113 19 154 Q19 214 54 256 Q75 281 100 295 Q125 309 152.5 316.5 Q180 324 209.5 328 Q239 332 268 336 Q294 340 318 344.5 Q342 349 367 356 Q367 394 347 405 Q327 416 294 416 Q264 416 249.5 406 Q235 396 229 367 L36 362 Q41 381 45 400 Q49 419 60 436 Q80 469 109.5 488.5 Q139 508 173.5 518.5 Q208 529 245.5 532 Q283 535 317 535 Q349 535 385.5 531 Q422 527 455 515 Q488 503 514.5 481.5 Q541 460 553 424 Q560 405 561 385.5 Q562 366 562 346 L562 64 Q562 43 564.5 30 Q567 17 580 0 L377 0 Z M366 241 Q351 236 336 231.5 Q321 227 306 222 Q295 219 278.5 215 Q262 211 247 204.5 Q232 198 221 187.5 Q210 177 210 162 Q210 141 226 131 Q242 121 260 121 Q274 121 288 125.5 Q302 130 314 137 Q343 155 354.5 178 Q366 201 366 235 L366 241 Z " />
<glyph glyph-name="atilde" unicode="&#xe3;" horiz-adv-x="604" d="M485 723 Q482 701 477.5 676 Q473 651 462.5 631 Q452 611 434.5 597.5 Q417 584 388 584 Q360 584 333 591 Q306 598 279 605 Q266 608 252.5 611.5 Q239 615 226 615 Q212 615 207 607.5 Q202 600 201 587 L113 587 Q116 610 120.5 635 Q125 660 135.5 680.5 Q146 701 164 714 Q182 727 212 727 Q237 727 262.5 720.5 Q288 714 312 708 Q322 705 339.5 700 Q357 695 366 695 Q395 695 395 723 L485 723 Z M377 0 L377 40 Q339 11 296 -0.5 Q253 -12 205 -12 Q166 -12 132 -1.5 Q98 9 73 30 Q48 51 33.5 82 Q19 113 19 154 Q19 214 54 256 Q75 281 100 295 Q125 309 152.5 316.5 Q180 324 209.5 328 Q239 332 268 336 Q294 340 318 344.5 Q342 349 367 356 Q367 394 347 405 Q327 416 294 416 Q264 416 249.5 406 Q235 396 229 367 L36 362 Q41 381 45 400 Q49 419 60 436 Q80 469 109.5 488.5 Q139 508 173.5 518.5 Q208 529 245.5 532 Q283 535 317 535 Q349 535 385.5 531 Q422 527 455 515 Q488 503 514.5 481.5 Q541 460 553 424 Q560 405 561 385.5 Q562 366 562 346 L562 64 Q562 43 564.5 30 Q567 17 580 0 L377 0 Z M366 241 Q351 236 336 231.5 Q321 227 306 222 Q295 219 278.5 215 Q262 211 247 204.5 Q232 198 221 187.5 Q210 177 210 162 Q210 141 226 131 Q242 121 260 121 Q274 121 288 125.5 Q302 130 314 137 Q343 155 354.5 178 Q366 201 366 235 L366 241 Z " />
<glyph glyph-name="adieresis" unicode="&#xe4;" horiz-adv-x="604" d="M360 605 L360 724 L525 724 L525 605 L360 605 Z M114 605 L114 724 L281 724 L281 605 L114 605 Z M377 0 L377 40 Q339 11 296 -0.5 Q253 -12 205 -12 Q166 -12 132 -1.5 Q98 9 73 30 Q48 51 33.5 82 Q19 113 19 154 Q19 214 54 256 Q75 281 100 295 Q125 309 152.5 316.5 Q180 324 209.5 328 Q239 332 268 336 Q294 340 318 344.5 Q342 349 367 356 Q367 394 347 405 Q327 416 294 416 Q264 416 249.5 406 Q235 396 229 367 L36 362 Q41 381 45 400 Q49 419 60 436 Q80 469 109.5 488.5 Q139 508 173.5 518.5 Q208 529 245.5 532 Q283 535 317 535 Q349 535 385.5 531 Q422 527 455 515 Q488 503 514.5 481.5 Q541 460 553 424 Q560 405 561 385.5 Q562 366 562 346 L562 64 Q562 43 564.5 30 Q567 17 580 0 L377 0 Z M366 241 Q351 236 336 231.5 Q321 227 306 222 Q295 219 278.5 215 Q262 211 247 204.5 Q232 198 221 187.5 Q210 177 210 162 Q210 141 226 131 Q242 121 260 121 Q274 121 288 125.5 Q302 130 314 137 Q343 155 354.5 178 Q366 201 366 235 L366 241 Z " />
<glyph glyph-name="aring" unicode="&#xe5;" horiz-adv-x="604" d="M432 689 Q432 666 423 646 Q414 626 399 611 Q384 596 364 587 Q344 578 321 578 Q298 578 278 587 Q258 596 243 611 Q228 626 219 646 Q210 666 210 689 Q210 712 219 732 Q228 752 243 767 Q258 782 278 791 Q298 800 321 800 Q344 800 364 791 Q384 782 399 767 Q414 752 423 732 Q432 712 432 689 Z M377 0 L377 40 Q339 11 296 -0.5 Q253 -12 205 -12 Q166 -12 132 -1.5 Q98 9 73 30 Q48 51 33.5 82 Q19 113 19 154 Q19 214 54 256 Q75 281 100 295 Q125 309 152.5 316.5 Q180 324 209.5 328 Q239 332 268 336 Q294 340 318 344.5 Q342 349 367 356 Q367 394 347 405 Q327 416 294 416 Q264 416 249.5 406 Q235 396 229 367 L36 362 Q41 381 45 400 Q49 419 60 436 Q80 469 109.5 488.5 Q139 508 173.5 518.5 Q208 529 245.5 532 Q283 535 317 535 Q349 535 385.5 531 Q422 527 455 515 Q488 503 514.5 481.5 Q541 460 553 424 Q560 405 561 385.5 Q562 366 562 346 L562 64 Q562 43 564.5 30 Q567 17 580 0 L377 0 Z M356 689 Q356 704 346 714.5 Q336 725 321 725 Q306 725 295.5 714.5 Q285 704 285 689 Q285 675 296 664 Q307 653 321 653 Q336 653 346 663.5 Q356 674 356 689 Z M366 241 Q351 236 336 231.5 Q321 227 306 222 Q295 219 278.5 215 Q262 211 247 204.5 Q232 198 221 187.5 Q210 177 210 162 Q210 141 226 131 Q242 121 260 121 Q274 121 288 125.5 Q302 130 314 137 Q343 155 354.5 178 Q366 201 366 235 L366 241 Z " />
<glyph glyph-name="ae" unicode="&#xe6;" horiz-adv-x="938" d="M922 250 Q922 243 922 236.5 Q922 230 921 223 L561 223 L561 215 Q561 171 584 148 Q607 125 650 125 Q685 125 708 144 Q731 163 745 194 L913 124 Q820 -21 644 -21 Q587 -21 542 -6 Q497 9 452 42 Q397 10 342.5 -5.5 Q288 -21 224 -21 Q184 -21 146.5 -11 Q109 -1 80.5 20 Q52 41 34.5 73.5 Q17 106 17 150 Q17 178 26 205.5 Q35 233 53 254 Q74 278 98 291.5 Q122 305 149 312 Q176 319 205 322 Q234 325 263 329 Q289 333 315 338 Q341 343 367 348 Q367 350 367.5 353 Q368 356 368 358 Q368 392 349.5 404 Q331 416 301 416 Q269 416 251.5 406 Q234 396 230 363 L36 359 Q38 378 42.5 395 Q47 412 56 429 Q74 461 101 482 Q128 503 160.5 515.5 Q193 528 228.5 533 Q264 538 298 538 Q319 538 344.5 536 Q370 534 396 529 Q422 524 446 516 Q470 508 488 495 Q530 519 566 529 Q602 539 650 539 Q692 539 732.5 526.5 Q773 514 807.5 491 Q842 468 868 435 Q894 402 907 360 Q915 333 918.5 305.5 Q922 278 922 250 Z M711 331 Q711 366 693 385.5 Q675 405 639 405 Q604 405 586.5 384 Q569 363 565 331 L711 331 Z M373 236 Q360 232 348 228.5 Q336 225 323 222 Q310 219 290.5 215.5 Q271 212 252.5 205.5 Q234 199 221 188.5 Q208 178 208 160 Q208 138 225 128.5 Q242 119 261 119 Q292 119 320 137.5 Q348 156 361 183 Q366 194 369 209 Q372 224 373 236 Z " />
<glyph glyph-name="ccedilla" unicode="&#xe7;" horiz-adv-x="562" d="M561 139 Q525 62 468 27 Q411 -8 329 -19 L309 -59 Q317 -58 323.5 -57.5 Q330 -57 338 -57 Q370 -57 394.5 -75.5 Q419 -94 419 -129 Q419 -156 401 -178 Q381 -203 352 -210.5 Q323 -218 293 -218 Q273 -218 253 -216 Q233 -214 213 -211 L215 -156 Q221 -158 226.5 -159 Q232 -160 238 -160 Q243 -160 250.5 -159 Q258 -158 265 -155.5 Q272 -153 276.5 -148.5 Q281 -144 281 -137 Q281 -127 272 -124 Q263 -121 256 -121 Q246 -121 236.5 -123 Q227 -125 217 -127 L220 -92 L269 -19 Q252 -19 233.5 -15.5 Q215 -12 199 -7 Q153 7 119 33.5 Q85 60 62.5 95.5 Q40 131 29 173.5 Q18 216 18 262 Q18 320 37 371 Q70 462 142 501.5 Q214 541 307 541 L316 541 Q379 541 436.5 517.5 Q494 494 534 445 Q542 436 548 426 Q554 416 560 406 L404 318 Q395 351 374 373.5 Q353 396 316 396 Q287 396 268.5 381.5 Q250 367 239.5 345 Q229 323 225.5 297 Q222 271 222 248 Q222 227 226.5 207 Q231 187 241.5 171.5 Q252 156 269 146.5 Q286 137 310 137 Q330 137 345 144.5 Q360 152 371 164 Q382 176 389.5 192 Q397 208 403 225 L561 139 Z " />
<glyph glyph-name="egrave" unicode="&#xe8;" horiz-adv-x="604" d="M278 587 L116 724 L329 724 L405 587 L278 587 Z M227 223 Q229 181 248 153 Q267 125 314 125 Q349 125 371.5 143.5 Q394 162 408 192 L577 121 Q532 50 463 14.5 Q394 -21 311 -21 Q247 -21 193 -1.5 Q139 18 100 54 Q61 90 39 142.5 Q17 195 17 261 Q17 326 38 377.5 Q59 429 97 465 Q135 501 187.5 520 Q240 539 303 539 Q350 539 393.5 527.5 Q437 516 473 492.5 Q509 469 535.5 434.5 Q562 400 575 353 Q584 321 585.5 288.5 Q587 256 588 223 L227 223 Z M379 331 Q378 366 359 387.5 Q340 409 305 409 Q268 409 251.5 386 Q235 363 229 331 L379 331 Z " />
<glyph glyph-name="eacute" unicode="&#xe9;" horiz-adv-x="604" d="M332 587 L204 587 L281 724 L493 724 L332 587 Z M227 223 Q229 181 248 153 Q267 125 314 125 Q349 125 371.5 143.5 Q394 162 408 192 L577 121 Q532 50 463 14.5 Q394 -21 311 -21 Q247 -21 193 -1.5 Q139 18 100 54 Q61 90 39 142.5 Q17 195 17 261 Q17 326 38 377.5 Q59 429 97 465 Q135 501 187.5 520 Q240 539 303 539 Q350 539 393.5 527.5 Q437 516 473 492.5 Q509 469 535.5 434.5 Q562 400 575 353 Q584 321 585.5 288.5 Q587 256 588 223 L227 223 Z M379 331 Q378 366 359 387.5 Q340 409 305 409 Q268 409 251.5 386 Q235 363 229 331 L379 331 Z " />
<glyph glyph-name="ecircumflex" unicode="&#xea;" horiz-adv-x="604" d="M344 586 L303 652 L263 586 L121 586 L227 724 L383 724 L487 586 L344 586 Z M227 223 Q229 181 248 153 Q267 125 314 125 Q349 125 371.5 143.5 Q394 162 408 192 L577 121 Q532 50 463 14.5 Q394 -21 311 -21 Q247 -21 193 -1.5 Q139 18 100 54 Q61 90 39 142.5 Q17 195 17 261 Q17 326 38 377.5 Q59 429 97 465 Q135 501 187.5 520 Q240 539 303 539 Q350 539 393.5 527.5 Q437 516 473 492.5 Q509 469 535.5 434.5 Q562 400 575 353 Q584 321 585.5 288.5 Q587 256 588 223 L227 223 Z M379 331 Q378 366 359 387.5 Q340 409 305 409 Q268 409 251.5 386 Q235 363 229 331 L379 331 Z " />
<glyph glyph-name="edieresis" unicode="&#xeb;" horiz-adv-x="604" d="M342 605 L342 724 L507 724 L507 605 L342 605 Z M97 605 L97 724 L263 724 L263 605 L97 605 Z M227 223 Q229 181 248 153 Q267 125 314 125 Q349 125 371.5 143.5 Q394 162 408 192 L577 121 Q532 50 463 14.5 Q394 -21 311 -21 Q247 -21 193 -1.5 Q139 18 100 54 Q61 90 39 142.5 Q17 195 17 261 Q17 326 38 377.5 Q59 429 97 465 Q135 501 187.5 520 Q240 539 303 539 Q350 539 393.5 527.5 Q437 516 473 492.5 Q509 469 535.5 434.5 Q562 400 575 353 Q584 321 585.5 288.5 Q587 256 588 223 L227 223 Z M379 331 Q378 366 359 387.5 Q340 409 305 409 Q268 409 251.5 386 Q235 363 229 331 L379 331 Z " />
<glyph glyph-name="igrave" unicode="&#xec;" horiz-adv-x="292" d="M122 587 L-40 724 L173 724 L249 587 L122 587 Z M42 0 L42 518 L248 518 L248 0 L42 0 Z " />
<glyph glyph-name="iacute" unicode="&#xed;" horiz-adv-x="292" d="M175 587 L48 587 L124 724 L337 724 L175 587 Z M42 0 L42 518 L248 518 L248 0 L42 0 Z " />
<glyph glyph-name="icircumflex" unicode="&#xee;" horiz-adv-x="292" d="M188 586 L146 652 L106 586 L-35 586 L71 724 L227 724 L330 586 L188 586 Z M42 0 L42 518 L248 518 L248 0 L42 0 Z " />
<glyph glyph-name="idieresis" unicode="&#xef;" horiz-adv-x="292" d="M186 605 L186 724 L351 724 L351 605 L186 605 Z M-60 605 L-60 724 L106 724 L106 605 L-60 605 Z M42 0 L42 518 L248 518 L248 0 L42 0 Z " />
<glyph glyph-name="eth" unicode="&#xf0;" horiz-adv-x="646" d="M625 293 Q625 219 602.5 160.5 Q580 102 538 62 Q496 22 436.5 1 Q377 -20 303 -20 Q241 -20 189 -0.5 Q137 19 99.5 55.5 Q62 92 41 143.5 Q20 195 20 258 Q20 334 54 398.5 Q88 463 154 502 Q185 521 220 531 Q255 541 291 541 Q336 541 369.5 524 Q403 507 432 473 Q418 505 400 539 Q382 573 359 599 L191 561 L176 615 L318 648 Q309 659 299 670 Q289 681 279 692 L422 724 Q432 713 441 702.5 Q450 692 460 681 L551 701 L569 646 L500 631 Q557 559 591 472 Q625 385 625 293 Z M416 261 Q416 285 412.5 309 Q409 333 398.5 352 Q388 371 370 383 Q352 395 323 395 Q295 395 276 383.5 Q257 372 245.5 353.5 Q234 335 229.5 311 Q225 287 225 263 Q225 239 229 214.5 Q233 190 243.5 170 Q254 150 272.5 137.5 Q291 125 321 125 Q350 125 368.5 137.5 Q387 150 397.5 169.5 Q408 189 412 213 Q416 237 416 261 Z " />
<glyph glyph-name="ntilde" unicode="&#xf1;" horiz-adv-x="646" d="M506 723 Q503 701 498.5 676 Q494 651 483.5 631 Q473 611 455.5 597.5 Q438 584 409 584 Q381 584 354 591 Q327 598 300 605 Q287 608 273.5 611.5 Q260 615 247 615 Q233 615 228 607.5 Q223 600 222 587 L133 587 Q136 610 141 634.5 Q146 659 156.5 679.5 Q167 700 185 713.5 Q203 727 233 727 Q258 727 283.5 721 Q309 715 333 708 Q343 705 360.5 700 Q378 695 387 695 Q416 695 416 723 L506 723 Z M391 0 L391 283 Q391 320 377 340.5 Q363 361 321 361 Q278 361 262 337.5 Q246 314 246 276 L246 0 L41 0 L41 518 L235 518 L235 449 Q244 462 255 475 Q284 507 325 519.5 Q366 532 408 532 Q477 532 525.5 499.5 Q574 467 591 397 Q595 380 596 362 Q597 344 597 327 L597 0 L391 0 Z " />
<glyph glyph-name="ograve" unicode="&#xf2;" horiz-adv-x="646" d="M299 587 L137 724 L350 724 L426 587 L299 587 Z M624 258 Q624 190 600 138 Q576 86 534 51 Q492 16 436 -2 Q380 -20 315 -20 Q251 -20 197 -2 Q143 16 103.5 50.5 Q64 85 42 135.5 Q20 186 20 251 L20 255 Q20 324 43 377 Q66 430 107 466.5 Q148 503 204 521.5 Q260 540 326 540 Q392 540 446.5 521 Q501 502 540.5 465.5 Q580 429 602 376.5 Q624 324 624 258 Z M416 261 Q416 285 412.5 309 Q409 333 398.5 352 Q388 371 370 383 Q352 395 323 395 Q295 395 276 383.5 Q257 372 245.5 353.5 Q234 335 229.5 311 Q225 287 225 263 Q225 239 229 214.5 Q233 190 243.5 170 Q254 150 272.5 137.5 Q291 125 321 125 Q350 125 368.5 137.5 Q387 150 397.5 169.5 Q408 189 412 213 Q416 237 416 261 Z " />
<glyph glyph-name="oacute" unicode="&#xf3;" horiz-adv-x="646" d="M352 587 L225 587 L301 724 L514 724 L352 587 Z M624 258 Q624 190 600 138 Q576 86 534 51 Q492 16 436 -2 Q380 -20 315 -20 Q251 -20 197 -2 Q143 16 103.5 50.5 Q64 85 42 135.5 Q20 186 20 251 L20 255 Q20 324 43 377 Q66 430 107 466.5 Q148 503 204 521.5 Q260 540 326 540 Q392 540 446.5 521 Q501 502 540.5 465.5 Q580 429 602 376.5 Q624 324 624 258 Z M416 261 Q416 285 412.5 309 Q409 333 398.5 352 Q388 371 370 383 Q352 395 323 395 Q295 395 276 383.5 Q257 372 245.5 353.5 Q234 335 229.5 311 Q225 287 225 263 Q225 239 229 214.5 Q233 190 243.5 170 Q254 150 272.5 137.5 Q291 125 321 125 Q350 125 368.5 137.5 Q387 150 397.5 169.5 Q408 189 412 213 Q416 237 416 261 Z " />
<glyph glyph-name="ocircumflex" unicode="&#xf4;" horiz-adv-x="646" d="M365 586 L324 652 L284 586 L142 586 L248 724 L404 724 L507 586 L365 586 Z M624 258 Q624 190 600 138 Q576 86 534 51 Q492 16 436 -2 Q380 -20 315 -20 Q251 -20 197 -2 Q143 16 103.5 50.5 Q64 85 42 135.5 Q20 186 20 251 L20 255 Q20 324 43 377 Q66 430 107 466.5 Q148 503 204 521.5 Q260 540 326 540 Q392 540 446.5 521 Q501 502 540.5 465.5 Q580 429 602 376.5 Q624 324 624 258 Z M416 261 Q416 285 412.5 309 Q409 333 398.5 352 Q388 371 370 383 Q352 395 323 395 Q295 395 276 383.5 Q257 372 245.5 353.5 Q234 335 229.5 311 Q225 287 225 263 Q225 239 229 214.5 Q233 190 243.5 170 Q254 150 272.5 137.5 Q291 125 321 125 Q350 125 368.5 137.5 Q387 150 397.5 169.5 Q408 189 412 213 Q416 237 416 261 Z " />
<glyph glyph-name="otilde" unicode="&#xf5;" horiz-adv-x="646" d="M506 723 Q503 701 498.5 676 Q494 651 483.5 631 Q473 611 455.5 597.5 Q438 584 409 584 Q381 584 354 591 Q327 598 300 605 Q287 608 273.5 611.5 Q260 615 247 615 Q233 615 228 607.5 Q223 600 222 587 L133 587 Q136 610 141 634.5 Q146 659 156.5 679.5 Q167 700 185 713.5 Q203 727 233 727 Q258 727 283.5 721 Q309 715 333 708 Q343 705 360.5 700 Q378 695 387 695 Q416 695 416 723 L506 723 Z M624 258 Q624 190 600 138 Q576 86 534 51 Q492 16 436 -2 Q380 -20 315 -20 Q251 -20 197 -2 Q143 16 103.5 50.5 Q64 85 42 135.5 Q20 186 20 251 L20 255 Q20 324 43 377 Q66 430 107 466.5 Q148 503 204 521.5 Q260 540 326 540 Q392 540 446.5 521 Q501 502 540.5 465.5 Q580 429 602 376.5 Q624 324 624 258 Z M416 261 Q416 285 412.5 309 Q409 333 398.5 352 Q388 371 370 383 Q352 395 323 395 Q295 395 276 383.5 Q257 372 245.5 353.5 Q234 335 229.5 311 Q225 287 225 263 Q225 239 229 214.5 Q233 190 243.5 170 Q254 150 272.5 137.5 Q291 125 321 125 Q350 125 368.5 137.5 Q387 150 397.5 169.5 Q408 189 412 213 Q416 237 416 261 Z " />
<glyph glyph-name="odieresis" unicode="&#xf6;" horiz-adv-x="646" d="M362 605 L362 724 L527 724 L527 605 L362 605 Z M117 605 L117 724 L283 724 L283 605 L117 605 Z M624 258 Q624 190 600 138 Q576 86 534 51 Q492 16 436 -2 Q380 -20 315 -20 Q251 -20 197 -2 Q143 16 103.5 50.5 Q64 85 42 135.5 Q20 186 20 251 L20 255 Q20 324 43 377 Q66 430 107 466.5 Q148 503 204 521.5 Q260 540 326 540 Q392 540 446.5 521 Q501 502 540.5 465.5 Q580 429 602 376.5 Q624 324 624 258 Z M416 261 Q416 285 412.5 309 Q409 333 398.5 352 Q388 371 370 383 Q352 395 323 395 Q295 395 276 383.5 Q257 372 245.5 353.5 Q234 335 229.5 311 Q225 287 225 263 Q225 239 229 214.5 Q233 190 243.5 170 Q254 150 272.5 137.5 Q291 125 321 125 Q350 125 368.5 137.5 Q387 150 397.5 169.5 Q408 189 412 213 Q416 237 416 261 Z " />
<glyph glyph-name="divide" unicode="&#xf7;" horiz-adv-x="724" d="M273 462 L273 637 L449 637 L449 462 L273 462 Z M79 251 L79 415 L644 415 L644 251 L79 251 Z M272 29 L272 204 L448 204 L448 29 L272 29 Z " />
<glyph glyph-name="oslash" unicode="&#xf8;" horiz-adv-x="646" d="M627 257 Q627 188 602.5 135 Q578 82 535.5 46 Q493 10 436 -8 Q379 -26 313 -26 Q251 -26 205.5 -11.5 Q160 3 110 40 L48 -14 L4 39 L64 91 Q52 112 43.5 130.5 Q35 149 29.5 167 Q24 185 21 205 Q18 225 18 250 Q18 321 40 375.5 Q62 430 101.5 468 Q141 506 197.5 525.5 Q254 545 323 545 Q377 545 428.5 532 Q480 519 525 487 L580 535 L625 483 L572 437 Q598 395 612.5 351 Q627 307 627 257 Z M392 372 Q380 389 362 396 Q344 403 324 403 Q294 403 274.5 392 Q255 381 243.5 362 Q232 343 227.5 319 Q223 295 223 269 Q223 258 223 248.5 Q223 239 224 228 L392 372 Z M422 254 Q422 267 421 280 Q420 293 418 307 L247 157 Q260 135 278.5 125.5 Q297 116 322 116 Q351 116 370 128.5 Q389 141 400.5 161 Q412 181 417 205.5 Q422 230 422 254 Z " />
<glyph glyph-name="ugrave" unicode="&#xf9;" horiz-adv-x="646" d="M299 587 L137 724 L350 724 L426 587 L299 587 Z M406 0 L406 76 Q395 51 376.5 34 Q358 17 335 6.5 Q312 -4 286.5 -8.5 Q261 -13 235 -13 Q206 -13 177.5 -7 Q149 -1 124 14 Q72 45 55.5 92.5 Q39 140 39 197 L39 518 L246 518 L246 236 Q246 197 261 174.5 Q276 152 321 152 Q367 152 381 178 Q395 204 395 244 L395 518 L602 518 L602 0 L406 0 Z " />
<glyph glyph-name="uacute" unicode="&#xfa;" horiz-adv-x="646" d="M352 587 L225 587 L301 724 L514 724 L352 587 Z M406 0 L406 76 Q395 51 376.5 34 Q358 17 335 6.5 Q312 -4 286.5 -8.5 Q261 -13 235 -13 Q206 -13 177.5 -7 Q149 -1 124 14 Q72 45 55.5 92.5 Q39 140 39 197 L39 518 L246 518 L246 236 Q246 197 261 174.5 Q276 152 321 152 Q367 152 381 178 Q395 204 395 244 L395 518 L602 518 L602 0 L406 0 Z " />
<glyph glyph-name="ucircumflex" unicode="&#xfb;" horiz-adv-x="646" d="M365 586 L324 652 L284 586 L142 586 L248 724 L404 724 L507 586 L365 586 Z M406 0 L406 76 Q395 51 376.5 34 Q358 17 335 6.5 Q312 -4 286.5 -8.5 Q261 -13 235 -13 Q206 -13 177.5 -7 Q149 -1 124 14 Q72 45 55.5 92.5 Q39 140 39 197 L39 518 L246 518 L246 236 Q246 197 261 174.5 Q276 152 321 152 Q367 152 381 178 Q395 204 395 244 L395 518 L602 518 L602 0 L406 0 Z " />
<glyph glyph-name="udieresis" unicode="&#xfc;" horiz-adv-x="646" d="M360 605 L360 724 L525 724 L525 605 L360 605 Z M114 605 L114 724 L281 724 L281 605 L114 605 Z M406 0 L406 76 Q395 51 376.5 34 Q358 17 335 6.5 Q312 -4 286.5 -8.5 Q261 -13 235 -13 Q206 -13 177.5 -7 Q149 -1 124 14 Q72 45 55.5 92.5 Q39 140 39 197 L39 518 L246 518 L246 236 Q246 197 261 174.5 Q276 152 321 152 Q367 152 381 178 Q395 204 395 244 L395 518 L602 518 L602 0 L406 0 Z " />
<glyph glyph-name="yacute" unicode="&#xfd;" horiz-adv-x="583" d="M321 587 L194 587 L270 724 L483 724 L321 587 Z M392 -30 Q384 -53 374.5 -76.5 Q365 -100 351 -120 Q336 -142 320 -155 Q304 -168 286 -175 Q268 -182 247 -184.5 Q226 -187 201 -187 Q169 -187 139 -185.5 Q109 -184 78 -180 L78 -33 Q92 -34 106 -35 Q120 -36 134 -36 Q141 -36 149 -35.5 Q157 -35 164 -33 Q171 -31 175.5 -25.5 Q180 -20 180 -11 Q180 -2 173.5 15.5 Q167 33 164 42 L0 518 L215 518 L266 295 Q274 257 279.5 219 Q285 181 290 143 Q295 183 300.5 222.5 Q306 262 315 301 L367 518 L581 518 L392 -30 Z " />
<glyph glyph-name="thorn" unicode="&#xfe;" horiz-adv-x="625" d="M606 256 Q606 202 593 153 Q580 104 553 67.5 Q526 31 483 9 Q440 -13 380 -13 Q338 -13 306.5 -3.5 Q275 6 244 35 L244 -188 L42 -188 L42 706 L243 706 L243 478 Q269 509 303.5 520.5 Q338 532 378 532 Q439 532 482.5 509.5 Q526 487 553.5 449 Q581 411 593.5 361 Q606 311 606 256 Z M403 253 Q403 273 400.5 296 Q398 319 389.5 338 Q381 357 365.5 369.5 Q350 382 323 382 Q294 382 271 361 Q251 341 246.5 313 Q242 285 242 259 Q242 238 244.5 215.5 Q247 193 255 174.5 Q263 156 279.5 144 Q296 132 323 132 Q345 132 363 145 Q390 165 396.5 193.5 Q403 222 403 253 Z " />
<glyph glyph-name="ydieresis" unicode="&#xff;" horiz-adv-x="583" d="M331 605 L331 724 L497 724 L497 605 L331 605 Z M86 605 L86 724 L252 724 L252 605 L86 605 Z M392 -30 Q384 -53 374.5 -76.5 Q365 -100 351 -120 Q336 -142 320 -155 Q304 -168 286 -175 Q268 -182 247 -184.5 Q226 -187 201 -187 Q169 -187 139 -185.5 Q109 -184 78 -180 L78 -33 Q92 -34 106 -35 Q120 -36 134 -36 Q141 -36 149 -35.5 Q157 -35 164 -33 Q171 -31 175.5 -25.5 Q180 -20 180 -11 Q180 -2 173.5 15.5 Q167 33 164 42 L0 518 L215 518 L266 295 Q274 257 279.5 219 Q285 181 290 143 Q295 183 300.5 222.5 Q306 262 315 301 L367 518 L581 518 L392 -30 Z " />
<glyph glyph-name="dotlessi" unicode="&#x131;" horiz-adv-x="292" d="M42 0 L42 518 L248 518 L248 0 L42 0 Z " />
<glyph glyph-name="Lslash" unicode="&#x141;" horiz-adv-x="542" d="M44 0 L44 187 L0 160 L0 289 L44 315 L44 706 L267 706 L267 449 L460 565 L460 437 L267 321 L267 178 L540 178 L540 0 L44 0 Z " />
<glyph glyph-name="lslash" unicode="&#x142;" horiz-adv-x="292" d="M248 384 L248 0 L41 0 L41 245 L0 217 L0 328 L41 356 L41 706 L248 706 L248 498 L292 527 L292 414 L248 384 Z " />
<glyph glyph-name="OE" unicode="&#x152;" horiz-adv-x="1104" d="M518 0 L518 25 Q481 2 446 -6.5 Q411 -15 368 -15 Q288 -15 225.5 14 Q163 43 119.5 93 Q76 143 53.5 210 Q31 277 31 353 Q31 404 41.5 452 Q52 500 74.5 542.5 Q97 585 131 620 Q165 655 211 679 Q246 697 286 707.5 Q326 718 365 718 Q376 718 391.5 716.5 Q407 715 423.5 712.5 Q440 710 455.5 706.5 Q471 703 481 698 Q491 693 500 687.5 Q509 682 518 677 L518 706 L1054 706 L1054 552 L732 552 L732 448 L1032 448 L1032 294 L732 294 L732 154 L1088 154 L1088 0 L518 0 Z M518 511 Q491 531 467.5 538.5 Q444 546 411 546 Q367 546 337 530 Q307 514 288 487.5 Q269 461 261 426 Q253 391 253 353 Q253 318 260.5 283 Q268 248 285.5 220.5 Q303 193 331 175.5 Q359 158 400 158 Q433 158 461.5 168 Q490 178 518 195 L518 511 Z " />
<glyph glyph-name="oe" unicode="&#x153;" horiz-adv-x="1000" d="M626 224 Q628 183 647.5 154.5 Q667 126 713 126 Q748 126 771.5 145 Q795 164 811 193 L981 122 Q970 107 958 92 Q946 77 932 64 Q887 21 825.5 0.5 Q764 -20 702 -20 Q645 -20 604 -6 Q563 8 516 37 Q468 6 421.5 -6.5 Q375 -19 317 -19 Q254 -19 199.5 -0.5 Q145 18 105 53.5 Q65 89 42 140.5 Q19 192 19 258 Q19 325 42.5 377.5 Q66 430 106.5 466.5 Q147 503 202 522 Q257 541 320 541 Q374 541 427 529 Q480 517 526 489 Q570 515 612 528.5 Q654 542 705 542 Q749 542 790.5 531 Q832 520 867 498.5 Q902 477 929 444.5 Q956 412 971 369 Q983 334 985.5 297 Q988 260 990 224 L626 224 Z M778 333 Q777 367 759.5 388 Q742 409 707 409 Q669 409 652.5 387.5 Q636 366 630 333 L778 333 Z M417 269 Q417 292 413 315 Q409 338 398.5 356 Q388 374 370.5 385 Q353 396 325 396 Q295 396 276 384 Q257 372 245.5 353 Q234 334 229.5 310 Q225 286 225 261 Q225 238 228.5 214 Q232 190 242.5 171 Q253 152 271 140 Q289 128 318 128 Q348 128 367 140.5 Q386 153 397.5 173.5 Q409 194 413 219 Q417 244 417 269 Z " />
<glyph glyph-name="Scaron" unicode="&#x160;" horiz-adv-x="729" d="M445 751 L283 751 L188 874 L331 874 L365 822 L396 874 L538 874 L445 751 Z M700 228 Q700 159 670 111 Q640 63 592 34 Q544 5 484 -8 Q424 -21 364 -21 L360 -21 Q279 -21 201.5 0 Q124 21 62 75 Q46 89 33 104 Q20 119 7 135 L178 244 Q186 232 194 221 Q202 210 213 200 Q228 187 248 178 Q268 169 289.5 163 Q311 157 333.5 154 Q356 151 375 151 Q387 151 405.5 153 Q424 155 441 160.5 Q458 166 470 176.5 Q482 187 482 205 Q482 219 475 227 Q468 235 457 242 Q449 248 431.5 252.5 Q414 257 394 261 Q374 265 355.5 268 Q337 271 326 273 Q311 276 295.5 279 Q280 282 265 286 Q224 296 187.5 312 Q151 328 124 352 Q97 376 81.5 410.5 Q66 445 66 493 Q66 558 94 603 Q122 648 166.5 676 Q211 704 266.5 716.5 Q322 729 378 729 L381 729 Q448 729 518 711.5 Q588 694 643 653 Q658 642 670.5 629.5 Q683 617 696 604 L555 487 Q540 508 518.5 522 Q497 536 472.5 544.5 Q448 553 421.5 556 Q395 559 370 559 Q360 559 346 557.5 Q332 556 319 551 Q306 546 297.5 537 Q289 528 289 514 Q289 503 294 495.5 Q299 488 307 481 Q314 475 338.5 469 Q363 463 391.5 457.5 Q420 452 446.5 447.5 Q473 443 485 440 Q529 430 568.5 415 Q608 400 637 375.5 Q666 351 683 315.5 Q700 280 700 228 Z " />
<glyph glyph-name="scaron" unicode="&#x161;" horiz-adv-x="542" d="M347 586 L191 586 L87 724 L230 724 L271 658 L311 724 L452 724 L347 586 Z M523 174 Q523 132 504 95 Q489 64 464.5 42 Q440 20 410.5 6 Q381 -8 347.5 -14 Q314 -20 281 -20 Q223 -20 165.5 -5 Q108 10 59 41 Q43 51 28.5 62 Q14 73 -1 84 L115 190 Q147 158 188.5 139 Q230 120 276 120 Q283 120 292 121.5 Q301 123 309.5 126.5 Q318 130 323.5 136.5 Q329 143 329 152 Q329 163 322.5 169.5 Q316 176 306.5 179.5 Q297 183 286 184.5 Q275 186 267 187 Q248 190 221 195.5 Q194 201 167 209.5 Q140 218 115.5 228.5 Q91 239 77 251 Q53 271 39.5 300.5 Q26 330 26 361 Q26 413 57 455 Q93 504 148.5 521.5 Q204 539 262 539 Q310 539 362.5 529 Q415 519 458 497 Q472 490 484 481.5 Q496 473 508 464 L397 363 Q365 384 333.5 398.5 Q302 413 263 413 Q250 413 235 408 Q220 403 220 386 Q220 377 225 372 Q230 367 237.5 364 Q245 361 253.5 359.5 Q262 358 268 356 Q286 352 310 346.5 Q334 341 359 335 Q384 329 407 321.5 Q430 314 446 305 Q483 284 503 250.5 Q523 217 523 174 Z " />
<glyph glyph-name="Ydieresis" unicode="&#x178;" horiz-adv-x="792" d="M430 757 L430 876 L596 876 L596 757 L430 757 Z M200 757 L200 876 L366 876 L366 757 L200 757 Z M504 297 L504 0 L280 0 L280 297 L-3 706 L255 706 L394 471 L530 706 L788 706 L504 297 Z " />
<glyph glyph-name="Zcaron" unicode="&#x17d;" horiz-adv-x="667" d="M413 751 L252 751 L156 874 L300 874 L334 822 L365 874 L506 874 L413 751 Z M298 172 L653 172 L653 0 L2 0 L2 141 L364 537 L23 537 L23 706 L654 706 L654 562 L298 172 Z " />
<glyph glyph-name="zcaron" unicode="&#x17e;" horiz-adv-x="542" d="M347 586 L191 586 L87 724 L230 724 L271 658 L311 724 L452 724 L347 586 Z M288 155 L527 155 L527 0 L8 0 L8 114 L254 364 L39 364 L39 518 L529 518 L529 400 L288 155 Z " />
<glyph glyph-name="florin" unicode="&#x192;" horiz-adv-x="437" d="M430 545 Q411 553 391 553 Q356 553 345 535.5 Q334 518 330 489 L423 489 L411 376 L318 376 L284 69 Q280 37 277.5 3.5 Q275 -30 267.5 -61 Q260 -92 244 -119 Q228 -146 196 -165 Q167 -183 132.5 -189 Q98 -195 64 -195 Q36 -195 9.5 -191.5 Q-17 -188 -44 -182 L-28 -41 Q-10 -48 10 -48 Q36 -48 49 -37 Q62 -26 67.5 -8.5 Q73 9 74.5 29.5 Q76 50 78 69 L112 376 L35 376 L47 489 L125 489 Q128 523 132 558.5 Q136 594 156 623 Q171 646 191.5 660.5 Q212 675 236.5 684 Q261 693 287 696.5 Q313 700 338 700 Q366 700 392.5 696.5 Q419 693 446 687 L430 545 Z " />
<glyph glyph-name="circumflex" unicode="&#x2c6;" horiz-adv-x="313" d="M197 586 L156 652 L116 586 L-27 586 L79 724 L235 724 L340 586 L197 586 Z " />
<glyph glyph-name="caron" unicode="&#x2c7;" horiz-adv-x="313" d="M234 586 L78 586 L-27 724 L116 724 L157 658 L197 724 L340 724 L234 586 Z " />
<glyph glyph-name="breve" unicode="&#x2d8;" horiz-adv-x="313" d="M314 726 Q307 692 295.5 663.5 Q284 635 265 615.5 Q246 596 218.5 585 Q191 574 152 574 Q84 574 42.5 616.5 Q1 659 -1 726 L113 726 Q113 704 120 688 Q127 672 153 672 Q179 672 186 688.5 Q193 705 193 726 L314 726 Z " />
<glyph glyph-name="dotaccent" unicode="&#x2d9;" horiz-adv-x="313" d="M73 605 L73 724 L240 724 L240 605 L73 605 Z " />
<glyph glyph-name="ring" unicode="&#x2da;" horiz-adv-x="313" d="M268 691 Q268 668 259 648 Q250 628 235 613 Q220 598 200 589 Q180 580 157 580 Q134 580 113.5 589 Q93 598 78 613 Q63 628 54 648 Q45 668 45 691 Q45 714 54 734 Q63 754 78 769 Q93 784 113.5 792.5 Q134 801 156 801 Q179 801 199 792.5 Q219 784 234.5 769 Q250 754 259 734 Q268 714 268 691 Z M193 691 Q193 706 182.5 716 Q172 726 157 726 Q142 726 131 716 Q120 706 120 691 Q120 676 130.5 665.5 Q141 655 156 655 Q171 655 181.5 665.5 Q192 676 192 691 L193 691 Z " />
<glyph glyph-name="ogonek" unicode="&#x2db;" horiz-adv-x="313" d="M257 -175 Q232 -186 211 -190.5 Q190 -195 162 -195 Q143 -195 124 -189.5 Q105 -184 90 -173.5 Q75 -163 65.5 -147 Q56 -131 56 -109 Q56 -87 65.5 -70 Q75 -53 89.5 -40 Q104 -27 122 -17.5 Q140 -8 157 0 L212 0 Q192 -17 174 -36 Q156 -55 156 -84 Q156 -109 172.5 -124 Q189 -139 213 -139 Q224 -139 233.5 -135.5 Q243 -132 253 -127 L257 -175 Z " />
<glyph glyph-name="tilde" unicode="&#x2dc;" horiz-adv-x="313" d="M343 723 Q340 701 335.5 676 Q331 651 320.5 631 Q310 611 292.5 597.5 Q275 584 246 584 Q218 584 191 591 Q164 598 137 605 Q124 608 110.5 611.5 Q97 615 84 615 Q59 615 59 587 L-30 587 Q-27 610 -22.5 635 Q-18 660 -7.5 680.5 Q3 701 21 714 Q39 727 69 727 Q94 727 120 720.5 Q146 714 169 708 Q180 705 197 700 Q214 695 223 695 Q252 695 252 723 L343 723 Z " />
<glyph glyph-name="hungarumlaut" unicode="&#x2dd;" horiz-adv-x="313" d="M260 587 L132 587 L208 724 L422 724 L260 587 Z M19 587 L-109 587 L-33 724 L180 724 L19 587 Z " />
<glyph glyph-name="Mu" unicode="&#x39c;" horiz-adv-x="646" d="M406 0 L406 76 Q400 60 392.5 44.5 Q385 29 375.5 18 Q366 7 352.5 0.5 Q339 -6 319 -6 Q290 -5 273.5 7.5 Q257 20 246 35 L246 -188 L39 -188 L39 518 L246 518 L246 236 Q246 227 246.5 213 Q247 199 254 185.5 Q261 172 276 162 Q291 152 319 152 Q343 152 358 159 Q373 166 381.5 179 Q390 192 392.5 208.5 Q395 225 395 244 L395 518 L602 518 L602 0 L406 0 Z " />
<glyph glyph-name="pi" unicode="&#x3c0;" horiz-adv-x="688" d="M674 0 Q642 -1 617 -1.5 Q592 -2 573 -2 Q518 -2 490.5 4.5 Q463 11 442 30 Q418 52 407.5 83 Q397 114 397 165 L397 366 L278 366 L278 0 L71 0 L71 366 L17 365 L17 515 L658 515 L658 365 L604 366 L604 216 Q604 191 605 183 Q606 175 611 167 Q617 156 628 152 Q639 148 662 148 L674 148 L674 0 Z " />
<glyph glyph-name="endash" unicode="&#x2013;" horiz-adv-x="629" d="M29 230 L29 401 L600 401 L600 230 L29 230 Z " />
<glyph glyph-name="emdash" unicode="&#x2014;" horiz-adv-x="948" d="M29 230 L29 401 L918 401 L918 230 L29 230 Z " />
<glyph glyph-name="quoteleft" unicode="&#x2018;" horiz-adv-x="250" d="M34 343 L34 493 Q34 526 38.5 556 Q43 586 54.5 611 Q66 636 87 656 Q108 676 141 690 Q159 698 178 702 Q197 706 216 709 L216 620 Q180 609 167.5 588.5 Q155 568 154 531 L216 531 L216 343 L34 343 Z " />
<glyph glyph-name="quoteright" unicode="&#x2019;" horiz-adv-x="250" d="M216 555 Q216 522 211.5 492.5 Q207 463 195 438 Q183 413 162.5 393 Q142 373 109 359 Q91 351 72 347.5 Q53 344 34 341 L34 429 Q69 441 82 460.5 Q95 480 96 518 L34 518 L34 706 L216 706 L216 555 Z " />
<glyph glyph-name="quotesinglbase" unicode="&#x201a;" horiz-adv-x="250" d="M216 37 Q216 4 211.5 -25.5 Q207 -55 195 -80 Q183 -105 162.5 -125 Q142 -145 109 -159 Q91 -167 72 -170.5 Q53 -174 34 -177 L34 -89 Q69 -77 82 -57.5 Q95 -38 96 0 L34 0 L34 188 L216 188 L216 37 Z " />
<glyph glyph-name="quotedblleft" unicode="&#x201c;" horiz-adv-x="521" d="M296 343 L296 493 Q296 526 300.5 556 Q305 586 316.5 611 Q328 636 349 656 Q370 676 403 690 Q421 698 440 702 Q459 706 478 709 L478 620 Q442 609 429.5 588.5 Q417 568 416 531 L478 531 L478 343 L296 343 Z M41 343 L41 493 Q41 526 45.5 555.5 Q50 585 61.5 610.5 Q73 636 94 656 Q115 676 148 690 Q166 698 185 702 Q204 706 224 709 L224 620 Q188 609 175.5 588.5 Q163 568 162 531 L224 531 L224 343 L41 343 Z " />
<glyph glyph-name="quotedblright" unicode="&#x201d;" horiz-adv-x="521" d="M478 555 Q478 522 473.5 492.5 Q469 463 457 438 Q445 413 424.5 393 Q404 373 371 359 Q353 351 334 347.5 Q315 344 296 341 L296 429 Q331 441 344 460.5 Q357 480 358 518 L296 518 L296 706 L478 706 L478 555 Z M224 555 Q224 522 219.5 492.5 Q215 463 203 438 Q191 413 170.5 393 Q150 373 117 359 Q99 351 79.5 347.5 Q60 344 41 341 L41 429 Q76 441 89 460.5 Q102 480 103 518 L41 518 L41 706 L224 706 L224 555 Z " />
<glyph glyph-name="quotedblbase" unicode="&#x201e;" horiz-adv-x="521" d="M478 37 Q478 4 473.5 -25.5 Q469 -55 457 -80 Q445 -105 424.5 -125 Q404 -145 371 -159 Q353 -167 334 -170.5 Q315 -174 296 -177 L296 -89 Q331 -77 344 -57.5 Q357 -38 358 0 L296 0 L296 188 L478 188 L478 37 Z M224 37 Q224 4 219.5 -25.5 Q215 -55 203 -80 Q191 -105 170.5 -125 Q150 -145 117 -159 Q99 -167 79.5 -170.5 Q60 -174 41 -177 L41 -89 Q76 -77 89 -57.5 Q102 -38 103 0 L41 0 L41 188 L224 188 L224 37 Z " />
<glyph glyph-name="dagger" unicode="&#x2020;" horiz-adv-x="625" d="M409 335 L409 -153 L215 -153 L215 335 L38 335 L38 493 L215 493 L215 706 L409 706 L409 493 L587 493 L587 335 L409 335 Z " />
<glyph glyph-name="daggerdbl" unicode="&#x2021;" horiz-adv-x="646" d="M414 391 L414 196 L596 196 L596 42 L414 42 L414 -151 L232 -151 L232 42 L49 42 L49 196 L232 196 L232 391 L49 391 L49 544 L232 544 L232 706 L414 706 L414 544 L597 544 L597 391 L414 391 Z " />
<glyph glyph-name="bullet" unicode="&#x2022;" horiz-adv-x="333" d="M38 219 L38 477 L295 477 L295 219 L38 219 Z " />
<glyph glyph-name="ellipsis" unicode="&#x2026;" horiz-adv-x="1000" d="M762 0 L762 140 L904 140 L904 0 L762 0 Z M430 0 L430 140 L571 140 L571 0 L430 0 Z M95 0 L95 140 L237 140 L237 0 L95 0 Z " />
<glyph glyph-name="perthousand" unicode="&#x2030;" horiz-adv-x="1438" d="M1414 225 Q1414 177 1402 134.5 Q1390 92 1365 60 Q1340 28 1301.5 9 Q1263 -10 1211 -10 Q1160 -10 1123.5 8.5 Q1087 27 1063.5 58.5 Q1040 90 1029 131.5 Q1018 173 1018 219 Q1018 266 1030.5 308.5 Q1043 351 1068.5 382.5 Q1094 414 1131.5 432.5 Q1169 451 1220 451 Q1240 451 1259 448.5 Q1278 446 1297 439 Q1329 427 1351 403.5 Q1373 380 1387 351 Q1401 322 1407.5 289 Q1414 256 1414 225 Z M977 225 Q977 177 965 134.5 Q953 92 928 59.5 Q903 27 864.5 8.5 Q826 -10 774 -10 Q723 -10 686.5 8.5 Q650 27 626.5 58.5 Q603 90 592 131.5 Q581 173 581 219 Q581 253 588.5 287.5 Q596 322 612.5 352 Q629 382 654 405.5 Q679 429 713 441 Q730 447 747.5 449 Q765 451 783 451 Q803 451 822 448.5 Q841 446 860 439 Q892 427 914 403.5 Q936 380 950 351 Q964 322 970.5 289 Q977 256 977 225 Z M397 0 L306 0 L607 706 L699 706 L397 0 Z M416 469 Q416 421 404 378.5 Q392 336 367 303.5 Q342 271 303.5 252.5 Q265 234 213 234 Q162 234 125.5 252.5 Q89 271 65.5 302.5 Q42 334 31 375.5 Q20 417 20 463 Q20 497 27.5 531.5 Q35 566 51.5 596.5 Q68 627 93 650.5 Q118 674 152 685 Q169 690 186.5 692 Q204 694 222 694 Q242 694 261 692 Q280 690 299 683 Q331 671 353 648 Q375 625 389 595.5 Q403 566 409.5 533 Q416 500 416 469 Z M1276 225 Q1276 240 1275 262 Q1274 284 1269 304.5 Q1264 325 1252 340 Q1240 355 1219 355 Q1195 355 1182 338.5 Q1169 322 1163.5 299.5 Q1158 277 1157.5 252.5 Q1157 228 1157 211 Q1157 196 1158 175 Q1159 154 1164 135 Q1169 116 1181 102.5 Q1193 89 1215 89 Q1239 89 1251.5 104 Q1264 119 1269.5 140.5 Q1275 162 1275.5 185.5 Q1276 209 1276 225 Z M838 231 Q838 245 837 266.5 Q836 288 830.5 307.5 Q825 327 814 341 Q803 355 782 355 Q758 355 745 339 Q732 323 726.5 301 Q721 279 720.5 255 Q720 231 720 214 Q720 199 720.5 177.5 Q721 156 726 136.5 Q731 117 743 103 Q755 89 777 89 Q802 89 814.5 105 Q827 121 832.5 143.5 Q838 166 838 190 Q838 214 838 231 Z M278 468 Q278 483 277 505 Q276 527 271 548 Q266 569 254 584 Q242 599 221 599 Q197 599 184 583 Q171 567 165.5 545 Q160 523 159.5 499 Q159 475 159 458 Q159 442 159.5 420.5 Q160 399 165 379.5 Q170 360 182 346.5 Q194 333 217 333 Q241 333 253.5 348 Q266 363 271.5 384 Q277 405 277.5 428.5 Q278 452 278 468 Z " />
<glyph glyph-name="guilsinglleft" unicode="&#x2039;" horiz-adv-x="229" d="M35 225 L35 408 L192 533 L192 384 L103 315 L192 248 L192 100 L35 225 Z " />
<glyph glyph-name="guilsinglright" unicode="&#x203a;" horiz-adv-x="229" d="M35 100 L35 249 L125 318 L35 385 L35 533 L192 408 L192 225 L35 100 Z " />
<glyph glyph-name="fraction" unicode="&#x2044;" horiz-adv-x="125" d="M-56 -33 L-125 1 L237 736 L306 701 L-56 -33 Z " />
<glyph glyph-name="Euro" unicode="&#x20ac;" horiz-adv-x="716" d="M621 473 Q591 507 557.5 523.5 Q524 540 479 540 Q431 540 395 516.5 Q359 493 345 445 L611 445 L581 363 L332 364 Q329 345 329 324 L567 324 L537 243 L344 243 Q352 219 367 202 Q382 185 401.5 174 Q421 163 444 158 Q467 153 490 153 Q535 153 577.5 172 Q620 191 649 226 L650 18 Q607 -4 561.5 -13 Q516 -22 468 -22 Q431 -22 394 -18 Q357 -14 322.5 -3.5 Q288 7 256.5 25 Q225 43 198 71 Q164 106 142.5 150.5 Q121 195 112 243 L33 243 L61 324 L103 324 L104 364 L37 363 L65 445 L115 445 Q129 509 160 558 Q191 607 236 640.5 Q281 674 337.5 691 Q394 708 458 708 Q525 708 577 695 Q629 682 684 643 L621 473 Z " />
<glyph glyph-name="trademark" unicode="&#x2122;" horiz-adv-x="749" d="M601 374 L605 604 L547 374 L467 374 L412 603 L414 374 L317 374 L318 706 L460 706 L507 493 L554 706 L696 706 L697 374 L601 374 Z M201 633 L201 374 L99 374 L99 633 L15 633 L15 706 L282 706 L282 633 L201 633 Z " />
<glyph glyph-name="Omega" unicode="&#x2126;" horiz-adv-x="778" d="M741 0 L430 0 L430 153 Q445 167 452 175.5 Q459 184 466 197 Q483 226 492 271 Q501 316 501 369 Q501 458 474 503.5 Q447 549 394 549 Q336 549 306 498.5 Q276 448 276 351 Q276 304 281.5 269 Q287 234 301 206 Q309 190 318.5 179 Q328 168 348 152 L349 0 L36 0 L36 150 L224 150 Q143 185 100.5 251.5 Q58 318 58 411 Q58 481 83 539 Q108 597 153 638.5 Q198 680 261 703 Q324 726 400 726 Q477 726 533.5 705.5 Q590 685 635 641 Q722 556 722 427 Q722 333 679.5 261 Q637 189 558 150 L742 150 L741 0 Z " />
<glyph glyph-name="partialdiff" unicode="&#x2202;" horiz-adv-x="590" d="M557 379 Q557 -16 269 -16 Q218 -16 182 -5.5 Q146 5 114 30 Q29 94 29 208 Q29 261 45 305 Q61 349 89.5 380.5 Q118 412 158.5 429.5 Q199 447 248 447 Q284 447 314 435 Q326 430 335 424 Q344 418 359 407 L359 410 Q359 422 358.5 429 Q358 436 357 453 Q355 472 353.5 482 Q352 492 347 504 Q322 563 254 563 Q237 563 219 560 Q201 557 163 547 L145 696 Q183 707 224 713 Q265 719 303 719 Q362 719 403.5 704 Q445 689 477 655 Q519 612 538 547 Q557 482 557 379 Z M347 261 Q333 277 315 286 Q297 295 280 295 Q253 295 236.5 273 Q220 251 220 215 Q220 179 237.5 156 Q255 133 282 133 Q314 133 330 164 Q346 195 347 261 Z " />
<glyph glyph-name="Delta" unicode="&#x2206;" horiz-adv-x="790" d="M1 0 L274 706 L522 706 L789 0 L1 0 Z M393 507 L293 157 L506 157 L393 507 Z " />
<glyph glyph-name="product" unicode="&#x220f;" horiz-adv-x="790" d="M521 -122 L521 550 L268 550 L268 -122 L46 -122 L46 706 L743 706 L743 -122 L521 -122 Z " />
<glyph glyph-name="summation" unicode="&#x2211;" horiz-adv-x="624" d="M25 -122 L25 31 L240 292 L25 550 L25 706 L602 706 L602 550 L258 550 L481 299 L246 34 L602 34 L602 -122 L25 -122 Z " />
<glyph glyph-name="minus" unicode="&#x2212;" horiz-adv-x="724" d="M80 250 L80 414 L644 414 L644 250 L80 250 Z " />
<glyph glyph-name="radical" unicode="&#x221a;" horiz-adv-x="724" d="M445 -185 L258 -185 L152 53 L78 30 L20 181 L258 265 L341 58 L493 706 L691 706 L445 -185 Z " />
<glyph glyph-name="infinity" unicode="&#x221e;" horiz-adv-x="724" d="M693 339 Q693 287 680.5 244.5 Q668 202 645 172 Q622 142 589.5 125.5 Q557 109 518 109 Q469 109 432 130.5 Q395 152 357 203 Q345 186 340 178.5 Q335 171 327 163 Q275 107 206 107 Q125 107 78.5 166 Q32 225 32 329 Q32 379 45 421.5 Q58 464 81.5 494.5 Q105 525 137.5 542 Q170 559 209 559 Q264 559 309 523 Q325 509 335.5 497.5 Q346 486 364 460 Q378 481 386.5 492 Q395 503 408 514 Q456 559 521 559 Q559 559 591 543 Q623 527 645.5 498 Q668 469 680.5 428.5 Q693 388 693 339 Z M551 330 Q551 358 542 374.5 Q533 391 517 391 Q506 391 492 378 Q483 369 476.5 360 Q470 351 456 329 Q477 293 490 279 Q503 265 515 265 Q531 265 541 283 Q551 301 551 330 Z M270 331 Q250 366 236.5 380.5 Q223 395 211 395 Q195 395 185 377.5 Q175 360 175 331 Q175 302 184 285.5 Q193 269 208 269 Q221 269 235.5 283.5 Q250 298 270 331 Z " />
<glyph glyph-name="integral" unicode="&#x222b;" horiz-adv-x="394" d="M376 542 Q359 555 348.5 560 Q338 565 327 565 Q307 565 299.5 550 Q292 535 292 493 L292 462 L291 59 Q291 40 291 27 Q291 14 290.5 4 Q290 -6 289 -14 Q288 -22 287 -32 Q284 -56 279 -72.5 Q274 -89 265 -103 Q221 -176 111 -176 Q86 -176 63.5 -172 Q41 -168 12 -158 L12 -3 Q31 -16 40.5 -20.5 Q50 -25 61 -25 Q75 -25 82 -19 Q90 -11 93 2 Q96 15 96 47 L96 78 L94 481 L94 491 Q94 551 100 585.5 Q106 620 120 643 Q164 715 277 715 Q305 715 327 711.5 Q349 708 376 698 L376 542 Z " />
<glyph glyph-name="approxequal" unicode="&#x2248;" horiz-adv-x="724" d="M655 428 Q632 401 617 387.5 Q602 374 582 361 Q559 346 536.5 339.5 Q514 333 491 333 Q467 333 440.5 341.5 Q414 350 369 370 L333 386 Q299 401 275.5 408.5 Q252 416 230 416 Q212 416 197 410 Q180 403 166.5 391.5 Q153 380 127 351 L117 340 L69 493 Q89 518 99 529 Q109 540 123 552 Q168 588 228 588 Q249 588 269 583 Q282 580 302 572.5 Q322 565 343 556 L406 529 Q441 514 455.5 509.5 Q470 505 484 505 Q519 505 551 526 Q565 536 576 546.5 Q587 557 607 580 L655 428 Z M655 174 Q632 146 617 133 Q602 120 582 107 Q536 79 491 79 Q467 79 440.5 87.5 Q414 96 369 116 L333 132 Q298 148 275.5 154.5 Q253 161 230 161 Q212 161 197 155 Q180 149 166.5 137 Q153 125 127 96 L117 85 L69 239 Q88 263 98.5 274 Q109 285 123 297 Q168 334 228 334 Q249 334 269 329 Q281 326 302 317.5 Q323 309 343 301 L406 274 Q440 260 455 255 Q470 250 485 250 Q501 250 518.5 256 Q536 262 551 272 Q565 282 576 292 Q587 302 607 325 L655 174 Z " />
<glyph glyph-name="notequal" unicode="&#x2260;" horiz-adv-x="724" d="M346 123 L283 -6 L136 -6 L200 123 L99 123 L99 277 L276 277 L312 352 L99 352 L99 506 L388 506 L449 628 L595 628 L535 506 L625 506 L625 352 L459 352 L422 277 L625 277 L625 123 L346 123 Z " />
<glyph glyph-name="lessequal" unicode="&#x2264;" horiz-adv-x="724" d="M123 382 L123 562 L586 745 L586 564 L298 473 L586 376 L586 176 L123 382 Z M123 0 L123 154 L586 154 L586 0 L123 0 Z " />
<glyph glyph-name="greaterequal" unicode="&#x2265;" horiz-adv-x="724" d="M138 176 L138 357 L425 447 L138 544 L138 744 L601 538 L601 359 L138 176 Z M138 0 L138 154 L601 154 L601 0 L138 0 Z " />
<glyph glyph-name="lozenge" unicode="&#x25ca;" horiz-adv-x="724" d="M456 0 L272 0 L80 353 L272 706 L457 706 L644 353 L456 0 Z M367 556 L262 353 L358 152 L462 353 L367 556 Z " />
<glyph glyph-name="fi" unicode="&#xfb01;" horiz-adv-x="667" d="M416 569 L416 706 L623 706 L623 569 L416 569 Z M416 0 L416 518 L623 518 L623 0 L416 0 Z M282 394 L282 0 L76 0 L76 394 L-1 394 L-1 506 L76 506 Q76 535 76 567.5 Q76 600 87 628 Q98 655 117.5 672.5 Q137 690 161.5 700 Q186 710 213 714 Q240 718 266 718 Q295 718 321 714 Q347 710 375 704 L375 563 Q358 570 337 570 Q302 570 292 553.5 Q282 537 282 506 L375 506 L375 394 L282 394 Z " />
<glyph glyph-name="fl" unicode="&#xfb02;" horiz-adv-x="667" d="M416 0 L416 706 L623 706 L623 0 L416 0 Z M282 394 L282 0 L76 0 L76 394 L-1 394 L-1 506 L76 506 Q76 535 76 567.5 Q76 600 87 628 Q98 655 117.5 672.5 Q137 690 161.5 700 Q186 710 213 714 Q240 718 266 718 Q295 718 321 714 Q347 710 375 704 L375 563 Q358 570 337 570 Q302 570 292 553.5 Q282 537 282 506 L375 506 L375 394 L282 394 Z " />
</font>
</svg>
