<?xml version="1.0" encoding="UTF-8"?>
<svg xmlns="http://www.w3.org/2000/svg" xmlns:xlink="http://www.w3.org/1999/xlink" version="1.2" >
<font id="NissanAG-XBoldCnd">
<font-face  font-family="NissanAG" units-per-em="1000" ascent="750" descent="-250" font-style="normal" font-weight="700" font-stretch="condensed" cap-height="750" x-height="500" underline-position="-75" underline-thickness="50" />
<missing-glyph  horiz-adv-x="1000" d="" />
<glyph glyph-name="null" d="" />
<glyph glyph-name="nonmarkingreturn" unicode="&#xd;" horiz-adv-x="250" d="" />
<glyph glyph-name="space" unicode="&#x20;" horiz-adv-x="271" d="" />
<glyph glyph-name="exclam" unicode="&#x21;" horiz-adv-x="292" d="M240 609 Q240 566 236.5 524 Q233 482 229 440 Q224 387 219.5 334.5 Q215 282 210 229 L118 229 Q114 287 110 344.5 Q106 402 101 460 Q98 498 95 534.5 Q92 571 92 609 L92 706 L240 706 L240 609 Z M91 0 L91 154 L239 154 L239 0 L91 0 Z " />
<glyph glyph-name="quotedbl" unicode="&#x22;" horiz-adv-x="313" d="M256 453 L220 453 L177 741 L299 741 L256 453 Z M93 453 L57 453 L14 741 L136 741 L93 453 Z " />
<glyph glyph-name="numbersign" unicode="&#x23;" horiz-adv-x="561" d="M439 408 L431 308 L540 308 L540 201 L421 201 L404 0 L295 0 L313 201 L222 201 L204 0 L97 0 L114 201 L9 201 L9 308 L123 308 L131 408 L23 408 L23 515 L140 515 L157 706 L265 706 L249 515 L339 515 L355 706 L464 706 L448 515 L551 515 L551 408 L439 408 Z M240 408 L231 308 L322 308 L330 408 L240 408 Z " />
<glyph glyph-name="dollar" unicode="&#x24;" horiz-adv-x="500" d="M477 192 Q477 141 467 105 Q457 69 435 45.5 Q413 22 378 9.5 Q343 -3 292 -9 L292 -137 L209 -137 L209 -9 Q181 -6 154.5 -1 Q128 4 105 14.5 Q82 25 64.5 43.5 Q47 62 36 91 Q32 103 29.5 121 Q27 139 26.5 158 Q26 177 26 195.5 Q26 214 26 227 L195 227 L195 177 Q195 145 205.5 129 Q216 113 251 113 Q286 113 296 128 Q306 143 306 174 Q306 202 299.5 214.5 Q293 227 271 245 Q258 256 244 265 Q230 274 216 284 Q193 300 170 316 Q147 332 124 349 Q111 358 98.5 368 Q86 378 75 389 Q46 421 40.5 454 Q35 487 35 528 Q35 577 44.5 611 Q54 645 75 667.5 Q96 690 129 701.5 Q162 713 209 717 L209 834 L292 834 L292 717 Q320 715 345 711 Q370 707 391 696.5 Q412 686 427.5 668 Q443 650 452 619 Q457 599 458.5 578 Q460 557 460 537 L460 489 L298 489 L298 540 Q298 571 289 584.5 Q280 598 246 598 Q217 598 209.5 580.5 Q202 563 202 539 L202 529 Q202 514 203.5 504.5 Q205 495 209 488 Q213 481 220 475 Q227 469 239 460 Q260 444 287 427 Q314 410 342 392.5 Q370 375 395 357.5 Q420 340 437 322 Q463 294 470 261.5 Q477 229 477 192 Z " />
<glyph glyph-name="percent" unicode="&#x25;" horiz-adv-x="792" d="M764 130 Q764 61 734 28.5 Q704 -4 631 -4 Q600 -4 572.5 1 Q545 6 525 19 Q505 32 493.5 55.5 Q482 79 482 115 L482 321 Q482 397 516.5 424.5 Q551 452 626 452 Q646 452 667 449.5 Q688 447 706.5 439 Q725 431 739 417.5 Q753 404 760 381 Q763 371 763.5 361 Q764 351 764 340 L764 130 Z M312 0 L241 0 L474 706 L545 706 L312 0 Z M309 395 Q309 326 278.5 293 Q248 260 175 260 Q152 260 128.5 263 Q105 266 85.5 275 Q66 284 51 300 Q36 316 30 342 Q28 352 27.5 362.5 Q27 373 27 383 L27 585 Q27 661 61.5 688.5 Q96 716 171 716 Q203 716 228.5 711 Q254 706 272 693 Q290 680 299.5 658 Q309 636 309 601 L309 395 Z M661 339 Q661 361 652 367.5 Q643 374 623 374 Q589 374 589 340 L589 109 Q589 90 597.5 84 Q606 78 624 78 Q642 78 651.5 84.5 Q661 91 661 110 L661 339 Z M205 604 Q205 626 196 632 Q187 638 167 638 Q148 638 140.5 629.5 Q133 621 133 604 L133 374 Q133 355 140.5 349 Q148 343 167 343 Q185 343 195 349 Q205 355 205 375 L205 604 Z " />
<glyph glyph-name="ampersand" unicode="&#x26;" horiz-adv-x="604" d="M479 0 Q448 0 430 4.5 Q412 9 389 30 Q352 7 320 -2.5 Q288 -12 244 -12 Q199 -12 158.5 -0.5 Q118 11 87.5 34.5 Q57 58 39 94 Q21 130 21 179 Q21 219 35 248.5 Q49 278 71 301.5 Q93 325 121.5 345 Q150 365 178 386 Q155 423 133.5 460 Q112 497 112 543 Q112 581 127.5 609.5 Q143 638 168 657.5 Q193 677 226 686.5 Q259 696 293 696 Q329 696 362 687.5 Q395 679 420.5 660.5 Q446 642 461.5 613.5 Q477 585 477 545 Q477 514 466 488 Q455 462 437 441 Q419 420 396.5 402 Q374 384 351 367 L424 244 Q429 272 432 298 Q435 324 435 353 L554 353 Q553 316 551 287 Q549 258 543 231.5 Q537 205 526 178 Q515 151 497 119 Q505 106 515.5 99.5 Q526 93 539 90.5 Q552 88 565.5 88.5 Q579 89 592 89 L592 0 L479 0 Z M365 549 Q365 574 346.5 588.5 Q328 603 305 603 Q284 603 270.5 588.5 Q257 574 257 553 Q257 530 269 506 Q281 482 295 464 Q306 472 318 480.5 Q330 489 340.5 499.5 Q351 510 358 522 Q365 534 365 549 Z M239 282 Q227 275 214 266 Q201 257 190.5 246 Q180 235 173 221.5 Q166 208 166 192 Q166 182 170.5 169 Q175 156 181.5 144 Q188 132 197 121.5 Q206 111 215 106 Q232 95 253 95 Q274 95 294 104.5 Q314 114 331 126 L239 282 Z " />
<glyph glyph-name="quotesingle" unicode="&#x27;" horiz-adv-x="150" d="M93 453 L57 453 L14 741 L136 741 L93 453 Z " />
<glyph glyph-name="parenleft" unicode="&#x28;" horiz-adv-x="354" d="M322 -196 Q283 -196 246.5 -187.5 Q210 -179 179 -161 Q148 -143 125.5 -114.5 Q103 -86 92 -45 Q87 -25 85.5 -4 Q84 17 84 38 L84 482 Q84 535 96 576 Q108 617 150 652 Q191 686 235.5 696 Q280 706 331 709 L331 647 Q301 644 281.5 638 Q262 632 250.5 620 Q239 608 234.5 588 Q230 568 230 538 L230 -36 Q230 -92 253.5 -113 Q277 -134 331 -136 L331 -196 L322 -196 Z " />
<glyph glyph-name="parenright" unicode="&#x29;" horiz-adv-x="354" d="M270 31 Q270 -22 258 -63 Q246 -104 204 -139 Q165 -172 119 -182 Q73 -192 23 -195 L23 -134 Q53 -131 72.5 -125 Q92 -119 103.5 -107 Q115 -95 119.5 -75 Q124 -55 124 -25 L124 549 Q124 585 113.5 608 Q103 631 66 644 Q55 648 44.5 648.5 Q34 649 23 650 L23 709 L32 709 Q71 709 107.5 700.5 Q144 692 175 674 Q206 656 228.5 627.5 Q251 599 262 558 Q267 538 268.5 517 Q270 496 270 475 L270 31 Z " />
<glyph glyph-name="asterisk" unicode="&#x2a;" horiz-adv-x="411" d="M295 500 L356 422 L271 355 L205 440 L144 355 L57 419 L114 498 L16 527 L47 631 L148 601 L148 706 L256 706 L256 601 L359 636 L394 534 L295 500 Z " />
<glyph glyph-name="plus" unicode="&#x2b;" horiz-adv-x="558" d="M358 237 L358 91 L202 91 L202 237 L81 237 L81 363 L202 363 L202 509 L358 509 L358 363 L477 363 L477 237 L358 237 Z " />
<glyph glyph-name="comma" unicode="&#x2c;" horiz-adv-x="250" d="M115 -152 L45 -152 L99 0 L52 0 L52 153 L199 153 L199 0 L115 -152 Z " />
<glyph glyph-name="hyphen" unicode="&#x2d;" horiz-adv-x="329" d="M28 235 L28 357 L301 357 L301 235 L28 235 Z " />
<glyph glyph-name="period" unicode="&#x2e;" horiz-adv-x="250" d="M51 0 L51 152 L199 152 L199 0 L51 0 Z " />
<glyph glyph-name="slash" unicode="&#x2f;" horiz-adv-x="313" d="M131 0 L9 0 L181 706 L305 706 L131 0 Z " />
<glyph glyph-name="zero" unicode="0" horiz-adv-x="500" d="M466 193 Q466 134 452.5 94.5 Q439 55 411 31.5 Q383 8 341.5 -2 Q300 -12 243 -12 Q194 -12 155 -2 Q116 8 89 31 Q62 54 47.5 90.5 Q33 127 33 180 L33 516 Q33 536 35 558 Q37 580 42 598 Q53 634 73 657 Q93 680 119.5 694 Q146 708 177.5 713.5 Q209 719 243 719 Q275 719 307.5 714.5 Q340 710 368.5 697.5 Q397 685 419.5 663.5 Q442 642 454 608 Q462 588 464 565.5 Q466 543 466 522 L466 193 Z M303 536 Q303 590 250 590 Q220 590 207.5 576 Q195 562 195 533 L196 172 Q196 142 205.5 125 Q215 108 249 108 Q282 108 292.5 124.5 Q303 141 303 171 L303 536 Z " />
<glyph glyph-name="one" unicode="1" horiz-adv-x="500" d="M192 0 L192 519 Q140 488 85 469 L85 612 Q133 620 162.5 640.5 Q192 661 213 706 L343 706 L343 0 L192 0 Z " />
<glyph glyph-name="two" unicode="2" horiz-adv-x="500" d="M460 513 Q460 484 458.5 461 Q457 438 450.5 418.5 Q444 399 432 380.5 Q420 362 399 341 Q379 321 359 303.5 Q339 286 319 267 Q287 238 257.5 207.5 Q228 177 217 134 L458 134 L458 0 L38 0 L38 27 Q38 56 39.5 85 Q41 114 48 143 Q56 175 73.5 202.5 Q91 230 113 255 Q135 280 160 302 Q185 324 208 345 Q216 352 227.5 362 Q239 372 250.5 383.5 Q262 395 272.5 406 Q283 417 288 426 Q304 452 303.5 479.5 Q303 507 303 536 Q303 564 291.5 582 Q280 600 248 600 Q216 600 204 581.5 Q192 563 192 535 L192 436 L44 436 L44 538 Q44 559 46 581 Q48 603 57 623 Q69 652 90.5 670.5 Q112 689 138.5 699.5 Q165 710 194.5 714.5 Q224 719 252 719 Q296 719 339.5 708.5 Q383 698 415 666 Q426 655 434.5 643.5 Q443 632 449 617 Q458 594 459 566 Q460 538 460 513 Z " />
<glyph glyph-name="three" unicode="3" horiz-adv-x="500" d="M459 226 Q459 202 459.5 175.5 Q460 149 457 123 Q454 97 445 73.5 Q436 50 416 32 Q382 2 337 -5.5 Q292 -13 249 -13 Q219 -13 187 -10 Q155 -7 127 3.5 Q99 14 77.5 34 Q56 54 47 88 Q42 104 41.5 120.5 Q41 137 41 154 L41 244 L197 244 L197 161 Q197 135 209 119 Q221 103 250 103 Q272 103 283.5 111.5 Q295 120 300 133 Q305 146 305.5 163 Q306 180 306 196 L306 232 Q306 249 305 262.5 Q304 276 298.5 286.5 Q293 297 282 302.5 Q271 308 251 308 L181 308 L181 429 Q192 429 208.5 428.5 Q225 428 242.5 429.5 Q260 431 275.5 434.5 Q291 438 298 447 Q306 455 306.5 470 Q307 485 307 496 Q307 514 307 533 Q307 552 302.5 567.5 Q298 583 286 593 Q274 603 250 603 Q221 603 208.5 588.5 Q196 574 196 547 L196 488 L47 488 L47 562 Q47 579 48.5 594.5 Q50 610 56 625 Q67 654 88.5 672.5 Q110 691 136.5 701.5 Q163 712 192.5 715.5 Q222 719 249 719 Q276 719 305.5 715 Q335 711 362 701 Q389 691 410.5 673 Q432 655 443 627 Q451 607 452.5 575.5 Q454 544 454 521 Q454 490 451.5 469 Q449 448 440.5 432 Q432 416 416.5 402.5 Q401 389 375 372 Q386 369 397.5 363 Q409 357 417 350 Q449 325 454 294.5 Q459 264 459 226 Z " />
<glyph glyph-name="four" unicode="4" horiz-adv-x="500" d="M405 155 L405 0 L262 0 L262 155 L34 155 L34 284 L236 706 L405 706 L405 279 L479 279 L479 155 L405 155 Z M262 541 L137 279 L262 279 L262 541 Z " />
<glyph glyph-name="five" unicode="5" horiz-adv-x="500" d="M458 182 Q458 159 457.5 139.5 Q457 120 452.5 102.5 Q448 85 438 68.5 Q428 52 410 36 Q377 7 334 -2 Q291 -11 248 -11 Q221 -11 191 -8 Q161 -5 133.5 4.5 Q106 14 83.5 31.5 Q61 49 49 78 Q39 101 37.5 129.5 Q36 158 36 184 L36 230 L191 230 L191 175 Q191 143 202 126 Q213 109 248 109 Q282 109 291.5 129 Q301 149 301 178 L301 303 Q301 335 291 354.5 Q281 374 244 374 Q193 374 191 323 L45 323 L45 706 L441 706 L441 581 L191 581 L191 431 Q214 460 239.5 471.5 Q265 483 303 483 Q324 483 346 478.5 Q368 474 386 464 Q413 449 428 428.5 Q443 408 449.5 384 Q456 360 457 333 Q458 306 458 278 L458 182 Z " />
<glyph glyph-name="six" unicode="6" horiz-adv-x="500" d="M458 155 Q458 109 441 77.5 Q424 46 395.5 26 Q367 6 330 -3 Q293 -12 252 -12 Q222 -12 192.5 -7 Q163 -2 137 10 Q111 22 90 42 Q69 62 57 92 Q48 115 46 139.5 Q44 164 44 188 L44 527 Q44 547 46 569 Q48 591 54 610 Q65 643 84.5 664 Q104 685 129.5 697 Q155 709 185 713.5 Q215 718 246 718 Q273 718 302.5 714 Q332 710 359 699.5 Q386 689 408 671.5 Q430 654 442 626 Q451 606 452.5 585 Q454 564 454 543 L454 494 L308 494 Q308 511 308.5 528.5 Q309 546 304.5 560 Q300 574 289 583 Q278 592 254 592 Q224 592 210.5 575.5 Q197 559 197 531 L197 394 Q223 420 246 430 Q269 440 306 440 Q349 440 388.5 422.5 Q428 405 447 364 Q454 348 456 331.5 Q458 315 458 298 L458 155 Z M308 186 Q308 204 308 222.5 Q308 241 307 260 Q307 276 306 291 Q305 306 300 317.5 Q295 329 284 336 Q273 343 252 343 Q230 343 218 334.5 Q206 326 201.5 313 Q197 300 196.5 283.5 Q196 267 196 250 L196 171 Q196 143 209.5 127.5 Q223 112 252 112 Q288 112 298 133.5 Q308 155 308 186 Z " />
<glyph glyph-name="seven" unicode="7" horiz-adv-x="500" d="M463 578 Q452 561 442 543 Q432 525 423 507 Q405 470 384.5 420 Q364 370 346 316 Q328 262 313.5 210 Q299 158 292 117 Q287 88 285 59 Q283 30 282 0 L113 0 Q119 78 139 153.5 Q159 229 187.5 301.5 Q216 374 250 444.5 Q284 515 319 584 L167 584 L167 490 L27 490 L27 706 L463 706 L463 578 Z " />
<glyph glyph-name="eight" unicode="8" horiz-adv-x="500" d="M458 158 Q458 137 456 116 Q454 95 444 75 Q431 49 408.5 32.5 Q386 16 359.5 6.5 Q333 -3 304 -6.5 Q275 -10 248 -10 Q220 -10 190 -6 Q160 -2 133 9 Q106 20 84 39 Q62 58 51 88 Q42 112 40.5 143 Q39 174 39 200 Q39 237 39 264 Q39 291 46 311.5 Q53 332 72 348 Q91 364 128 379 Q99 383 83 398.5 Q67 414 59 435.5 Q51 457 49 482 Q47 507 47 530 Q47 556 50.5 585 Q54 614 66 637 Q80 661 101 677 Q122 693 147 702.5 Q172 712 199 715.5 Q226 719 252 719 Q282 719 311.5 714.5 Q341 710 366.5 698 Q392 686 412.5 666 Q433 646 444 615 Q450 598 451.5 580.5 Q453 563 453 546 Q453 516 452.5 490 Q452 464 444.5 443 Q437 422 420.5 406 Q404 390 371 379 Q400 367 417 355.5 Q434 344 443 329 Q452 314 455 292.5 Q458 271 458 240 L458 158 Z M304 525 Q304 540 303 553.5 Q302 567 297 576.5 Q292 586 281.5 592 Q271 598 252 598 Q230 598 217.5 591 Q205 584 200 572 Q195 560 194 544.5 Q193 529 193 511 L193 485 Q193 457 202.5 439 Q212 421 244 421 Q276 421 290 434 Q304 447 304 478 L304 525 Z M302 233 Q302 250 301.5 265.5 Q301 281 296.5 293 Q292 305 281 312.5 Q270 320 249 320 Q227 320 215 313 Q203 306 198.5 294 Q194 282 193.5 266.5 Q193 251 193 233 Q193 213 192.5 187.5 Q192 162 196 142 Q203 102 246 102 Q267 102 278.5 109 Q290 116 295 127.5 Q300 139 301 154.5 Q302 170 302 187 L302 233 Z " />
<glyph glyph-name="nine" unicode="9" horiz-adv-x="500" d="M451 191 Q451 161 447 128 Q443 95 426 69 Q412 46 391 31 Q370 16 345 7 Q320 -2 293.5 -6 Q267 -10 242 -10 Q214 -10 184 -5.5 Q154 -1 127.5 10.5 Q101 22 79.5 41 Q58 60 46 88 Q35 114 34.5 150 Q34 186 34 214 L186 214 Q186 195 185 176 Q184 157 188.5 141.5 Q193 126 205 116 Q217 106 244 106 Q275 106 287 119.5 Q299 133 299 162 L299 315 Q273 292 251 282 Q229 272 194 272 Q171 272 149 277.5 Q127 283 107 295 Q82 311 68 332 Q54 353 47 377.5 Q40 402 38.5 428.5 Q37 455 37 482 Q37 497 37.5 516 Q38 535 39.5 554.5 Q41 574 45 592 Q49 610 55 624 Q69 653 91 672 Q113 691 139.5 701.5 Q166 712 195.5 716 Q225 720 255 720 Q323 720 375 689.5 Q427 659 445 590 Q450 572 450.5 553 Q451 534 451 515 L451 191 Z M301 493 Q301 509 301 528 Q301 547 296 563.5 Q291 580 279.5 591 Q268 602 245 602 Q222 602 210 593.5 Q198 585 193 571.5 Q188 558 187.5 541 Q187 524 187 507 Q187 488 186.5 470 Q186 452 186 433 Q186 406 199 386.5 Q212 367 242 367 Q262 367 273.5 374 Q285 381 291 393 Q297 405 299 420 Q301 435 301 450 L301 493 Z " />
<glyph glyph-name="colon" unicode="&#x3a;" horiz-adv-x="292" d="M91 386 L91 538 L238 538 L238 386 L91 386 Z M91 0 L91 152 L238 152 L238 0 L91 0 Z " />
<glyph glyph-name="semicolon" unicode="&#x3b;" horiz-adv-x="292" d="M88 386 L88 539 L235 539 L235 386 L88 386 Z M151 -152 L82 -152 L133 0 L88 0 L88 153 L235 153 L235 0 L151 -152 Z " />
<glyph glyph-name="less" unicode="&#x3c;" horiz-adv-x="559" d="M86 269 L86 402 L444 597 L444 456 L222 340 L444 231 L444 76 L86 269 Z " />
<glyph glyph-name="equal" unicode="&#x3d;" horiz-adv-x="559" d="M85 357 L85 479 L474 479 L474 357 L85 357 Z M85 145 L85 267 L474 267 L474 145 L85 145 Z " />
<glyph glyph-name="greater" unicode="&#x3e;" horiz-adv-x="559" d="M115 76 L115 217 L337 333 L115 442 L115 597 L473 404 L473 271 L115 76 Z " />
<glyph glyph-name="question" unicode="&#x3f;" horiz-adv-x="500" d="M459 548 Q459 529 457 515.5 Q455 502 450 491 Q445 480 436 469.5 Q427 459 413 445 L359 394 Q346 382 333.5 371.5 Q321 361 311.5 349.5 Q302 338 296 324 Q290 310 290 290 L290 230 L144 230 L144 279 Q144 303 146 320.5 Q148 338 154 352.5 Q160 367 171 380.5 Q182 394 200 411 L275 483 Q295 502 302.5 515 Q310 528 310 557 Q310 579 301 594.5 Q292 610 268 610 Q242 610 233.5 595.5 Q225 581 225 558 L225 502 L82 502 L82 562 Q82 581 83.5 603.5 Q85 626 92 643 Q102 669 121 684 Q140 699 163.5 707 Q187 715 212.5 717.5 Q238 720 262 720 Q283 720 307.5 718 Q332 716 355.5 710 Q379 704 399.5 693 Q420 682 434 664 Q451 641 455 608 Q459 575 459 548 Z M142 1 L142 152 L290 152 L290 1 L142 1 Z " />
<glyph glyph-name="at" unicode="&#x40;" horiz-adv-x="834" d="M796 432 Q796 361 775.5 295.5 Q755 230 721 179.5 Q687 129 643 98.5 Q599 68 551 68 Q515 68 491.5 86 Q468 104 462 136 Q406 68 336 68 Q273 68 237 112 Q201 156 201 232 Q201 290 219 343 Q237 396 267.5 436 Q298 476 338 500 Q378 524 421 524 Q444 524 465 516 Q482 509 494 498.5 Q506 488 520 464 L531 504 L624 504 L589 345 Q582 311 577 289 Q572 267 569 251.5 Q566 236 564 225.5 Q562 215 561 204 Q560 199 559.5 193.5 Q559 188 559 185 Q559 158 579 158 Q597 158 621 185 Q639 205 654 232.5 Q669 260 680.5 291.5 Q692 323 698 356.5 Q704 390 704 422 Q704 522 646.5 578 Q589 634 486 634 Q413 634 348 602 Q283 570 234 516 Q185 462 156.5 390 Q128 318 128 238 Q128 175 146.5 125 Q165 75 201 40 Q239 3 296 -18 Q353 -39 416 -39 Q501 -39 584.5 -3 Q668 33 740 102 L788 36 Q768 18 753 5 Q738 -8 724 -18 Q710 -28 695 -37.5 Q680 -47 661 -57 Q598 -90 536.5 -106 Q475 -122 407 -122 Q323 -122 250.5 -94.5 Q178 -67 127 -16 Q34 77 34 234 Q34 335 69.5 422.5 Q105 510 166.5 575 Q228 640 311.5 677 Q395 714 491 714 Q559 714 615 693.5 Q671 673 711.5 635.5 Q752 598 774 546.5 Q796 495 796 432 Z M485 347 Q485 384 468.5 406 Q452 428 423 428 Q401 428 380.5 412.5 Q360 397 344 371 Q328 345 318.5 312 Q309 279 309 243 Q309 206 324.5 185.5 Q340 165 367 165 Q387 165 406.5 178.5 Q426 192 443 215 Q461 240 473 277.5 Q485 315 485 347 Z " />
<glyph glyph-name="A" unicode="A" horiz-adv-x="521" d="M351 0 L327 161 L196 161 L171 0 L4 0 L147 706 L375 706 L518 0 L351 0 Z M263 594 L215 280 L310 280 L263 594 Z " />
<glyph glyph-name="B" unicode="B" horiz-adv-x="521" d="M488 193 Q488 143 480 106.5 Q472 70 451.5 46.5 Q431 23 397.5 11.5 Q364 0 313 0 L51 0 L51 706 L283 706 Q304 706 325.5 705.5 Q347 705 367 700 Q425 686 452 651.5 Q479 617 479 559 Q479 524 478 495.5 Q477 467 469 444.5 Q461 422 441.5 405 Q422 388 384 374 Q423 362 444 346 Q465 330 475 308.5 Q485 287 486.5 258.5 Q488 230 488 193 Z M328 507 Q328 523 327 536.5 Q326 550 321 560 Q316 570 305.5 575.5 Q295 581 276 581 L211 581 L211 430 L281 430 Q299 430 309 436.5 Q319 443 323 454 Q327 465 327.5 479 Q328 493 328 507 Z M331 213 Q331 230 331 247 Q331 264 326.5 277 Q322 290 311 298 Q300 306 277 306 L211 306 L211 127 L277 127 Q298 127 309.5 134 Q321 141 325.5 153 Q330 165 330.5 180.5 Q331 196 331 213 Z " />
<glyph glyph-name="C" unicode="C" horiz-adv-x="521" d="M494 206 Q494 166 489.5 132.5 Q485 99 471 73 Q457 47 431 28 Q405 9 361 -1 Q337 -7 310.5 -8 Q284 -9 259 -9 Q227 -9 193.5 -5.5 Q160 -2 131 9 Q102 20 79.5 42 Q57 64 47 100 Q42 118 41 136.5 Q40 155 40 173 L40 521 Q40 544 42 566.5 Q44 589 52 610 Q65 644 88 665.5 Q111 687 140 699 Q169 711 201.5 715 Q234 719 267 719 Q299 719 332.5 714.5 Q366 710 395.5 697 Q425 684 448 662 Q471 640 482 605 Q487 589 488.5 572 Q490 555 490 538 L490 445 L322 445 L322 533 Q322 566 311 581 Q300 596 263 596 Q230 596 220 578.5 Q210 561 210 532 L210 181 Q210 149 219 130 Q228 111 266 111 Q298 111 309.5 126 Q321 141 321 171 L321 269 L494 269 L494 206 Z " />
<glyph glyph-name="D" unicode="D" horiz-adv-x="542" d="M504 170 Q504 119 492 86 Q480 53 456.5 34 Q433 15 397.5 7.5 Q362 0 315 0 L50 0 L50 706 L308 706 Q339 706 368.5 702.5 Q398 699 423.5 687.5 Q449 676 468 655.5 Q487 635 497 601 Q502 584 503 566 Q504 548 504 530 L504 170 Z M332 520 Q332 555 317.5 569.5 Q303 584 268 584 L216 584 L216 122 L269 122 Q304 122 318 134 Q332 146 332 182 L332 520 Z " />
<glyph glyph-name="E" unicode="E" horiz-adv-x="437" d="M51 0 L51 706 L416 706 L416 582 L222 582 L222 419 L405 419 L405 295 L222 295 L222 125 L416 125 L416 0 L51 0 Z " />
<glyph glyph-name="F" unicode="F" horiz-adv-x="396" d="M221 585 L221 427 L382 427 L382 303 L221 303 L221 0 L49 0 L49 706 L396 706 L396 585 L221 585 Z " />
<glyph glyph-name="G" unicode="G" horiz-adv-x="521" d="M318 0 L318 65 Q291 27 259 12.5 Q227 -2 182 -2 Q159 -2 136.5 5.5 Q114 13 95 28 Q74 45 63 68 Q52 91 46.5 116.5 Q41 142 40.5 169 Q40 196 40 220 L40 499 Q40 559 51 600.5 Q62 642 87 668.5 Q112 695 154 707 Q196 719 257 719 Q287 719 319 716 Q351 713 380 703.5 Q409 694 433 675.5 Q457 657 470 625 Q477 609 480 588 Q483 567 483.5 545.5 Q484 524 483.5 503 Q483 482 483 465 L318 465 L318 538 Q318 566 305.5 581 Q293 596 264 596 Q231 596 221 579.5 Q211 563 211 534 L211 168 Q211 142 223.5 125.5 Q236 109 265 109 Q293 109 305.5 124 Q318 139 318 165 L318 256 L253 256 L253 374 L483 374 L483 0 L318 0 Z " />
<glyph glyph-name="H" unicode="H" horiz-adv-x="562" d="M340 0 L340 296 L221 296 L221 0 L51 0 L51 706 L221 706 L221 421 L340 421 L340 706 L511 706 L511 0 L340 0 Z " />
<glyph glyph-name="I" unicode="I" horiz-adv-x="271" d="M49 0 L49 706 L220 706 L220 0 L49 0 Z " />
<glyph glyph-name="J" unicode="J" horiz-adv-x="333" d="M292 174 Q292 153 291 129 Q290 105 283 85 Q273 57 257 40 Q241 23 220 14 Q199 5 174.5 2.5 Q150 0 124 0 L16 0 L16 122 L73 122 Q104 122 112.5 135 Q121 148 121 177 L121 706 L292 706 L292 174 Z " />
<glyph glyph-name="K" unicode="K" horiz-adv-x="521" d="M362 0 L219 345 L219 0 L50 0 L50 706 L219 706 L219 386 L349 706 L523 706 L381 372 L542 0 L362 0 Z " />
<glyph glyph-name="L" unicode="L" horiz-adv-x="417" d="M50 0 L50 706 L222 706 L222 125 L398 125 L398 0 L50 0 Z " />
<glyph glyph-name="M" unicode="M" horiz-adv-x="771" d="M569 0 L569 449 Q569 466 569.5 483.5 Q570 501 571 518 L460 0 L310 0 L199 521 Q200 492 200.5 462.5 Q201 433 201 404 L201 0 L52 0 L52 706 L280 706 Q308 571 336 437.5 Q364 304 387 167 Q391 199 395 231 Q399 263 406 295 L490 706 L721 706 L721 0 L569 0 Z " />
<glyph glyph-name="N" unicode="N" horiz-adv-x="562" d="M340 0 L193 460 L193 0 L49 0 L49 706 L218 706 L366 248 L366 706 L512 706 L512 0 L340 0 Z " />
<glyph glyph-name="O" unicode="O" horiz-adv-x="542" d="M499 222 Q499 197 497.5 172.5 Q496 148 490 123 Q480 83 458.5 57.5 Q437 32 407.5 17 Q378 2 343 -3.5 Q308 -9 270 -9 Q237 -9 204 -4.5 Q171 0 142.5 12.5 Q114 25 91.5 47 Q69 69 55 103 Q44 130 42 158.5 Q40 187 40 216 L40 507 Q40 566 56 607 Q72 648 102 673 Q132 698 175.5 709 Q219 720 274 720 Q309 720 341.5 715 Q374 710 402.5 696.5 Q431 683 453 659.5 Q475 636 487 600 Q495 578 497 552.5 Q499 527 499 504 L499 222 Z M329 536 Q329 571 314.5 582.5 Q300 594 267 594 Q235 594 223.5 581 Q212 568 212 537 L212 169 Q212 137 225 126 Q238 115 270 115 Q301 115 315 127 Q329 139 329 170 L329 536 Z " />
<glyph glyph-name="P" unicode="P" horiz-adv-x="521" d="M500 412 Q500 386 497 362.5 Q494 339 485 319.5 Q476 300 459 285.5 Q442 271 413 263 Q396 258 378.5 258 Q361 258 344 258 L220 258 L220 0 L50 0 L50 706 L347 706 Q427 706 463.5 674 Q500 642 500 562 L500 412 Z M341 497 Q341 526 340 543.5 Q339 561 332.5 570.5 Q326 580 310 583 Q294 586 264 586 L220 586 L220 382 L278 382 Q301 382 314 386.5 Q327 391 333 400.5 Q339 410 340 425 Q341 440 341 460 L341 497 Z " />
<glyph glyph-name="Q" unicode="Q" horiz-adv-x="542" d="M499 222 Q499 202 498.5 181 Q498 160 494 140 Q481 72 441.5 39 Q402 6 337 -5 L337 -42 Q337 -63 346 -70.5 Q355 -78 376 -78 L453 -78 L453 -185 L315 -185 Q266 -185 241 -172 Q216 -159 206.5 -135 Q197 -111 197 -77.5 Q197 -44 197 -4 Q149 7 118.5 25.5 Q88 44 70.5 71.5 Q53 99 46.5 135 Q40 171 40 216 L40 507 Q40 566 56 607 Q72 648 102 673 Q132 698 175.5 709 Q219 720 274 720 Q309 720 341.5 715 Q374 710 402.5 696.5 Q431 683 453 659.5 Q475 636 487 600 Q495 578 497 552.5 Q499 527 499 504 L499 222 Z M329 536 Q329 571 314.5 582.5 Q300 594 267 594 Q235 594 223.5 581 Q212 568 212 537 L212 169 Q212 137 225 126 Q238 115 270 115 Q301 115 315 127 Q329 139 329 170 L329 536 Z " />
<glyph glyph-name="R" unicode="R" horiz-adv-x="521" d="M334 0 L238 301 L210 301 L210 0 L50 0 L50 706 L291 706 Q362 706 401.5 687.5 Q441 669 458 629 Q474 590 474 507 Q474 466 470 436.5 Q466 407 455.5 386 Q445 365 428 350 Q411 335 385 323 L504 0 L334 0 Z M322 495 Q322 509 321 525.5 Q320 542 319 551 Q316 568 303 576 Q290 584 262 584 L210 584 L210 422 L263 422 Q297 422 309.5 437 Q322 452 322 495 Z " />
<glyph glyph-name="S" unicode="S" horiz-adv-x="479" d="M463 185 Q463 128 448 90.5 Q433 53 404.5 30.5 Q376 8 335 -1 Q294 -10 241 -10 Q211 -10 179 -7 Q147 -4 118 6 Q89 16 66 35.5 Q43 55 31 87 Q23 110 20.5 135 Q18 160 18 184 Q18 195 18 205 Q18 215 19 226 L188 226 L188 170 Q188 144 198.5 129 Q209 114 238 114 Q264 114 278 125.5 Q292 137 292 163 Q292 188 289.5 202 Q287 216 279.5 226 Q272 236 260 245 Q248 254 228 268 L126 342 Q98 362 79 378 Q60 394 48.5 412 Q37 430 32 454 Q27 478 27 515 Q27 576 39.5 615.5 Q52 655 79 678 Q106 701 148 710 Q190 719 248 719 Q302 719 340 710.5 Q378 702 402 680.5 Q426 659 436.5 622.5 Q447 586 447 530 Q447 519 447 509.5 Q447 500 446 489 L285 489 L285 539 Q285 567 277 582.5 Q269 598 237 598 Q221 598 212.5 592.5 Q204 587 200 578.5 Q196 570 195.5 558.5 Q195 547 195 535 Q195 508 199.5 493.5 Q204 479 227 463 L372 362 Q401 342 419 325.5 Q437 309 447 290 Q457 271 460 246 Q463 221 463 185 Z " />
<glyph glyph-name="T" unicode="T" horiz-adv-x="479" d="M326 583 L326 0 L153 0 L153 583 L13 583 L13 706 L467 706 L467 583 L326 583 Z " />
<glyph glyph-name="U" unicode="U" horiz-adv-x="542" d="M493 199 Q493 175 491.5 151 Q490 127 484 104 Q474 68 453 45.5 Q432 23 404.5 10.5 Q377 -2 344 -6.5 Q311 -11 278 -11 Q246 -11 212 -7 Q178 -3 147.5 9 Q117 21 93.5 42.5 Q70 64 58 99 Q52 118 50 142 Q48 166 48 186 L48 706 L218 706 L218 174 Q218 145 230 128 Q242 111 274 111 Q303 111 312.5 127.5 Q322 144 322 169 L322 706 L493 706 L493 199 Z " />
<glyph glyph-name="V" unicode="V" horiz-adv-x="500" d="M372 0 L129 0 L-3 706 L170 706 L245 159 L253 159 L326 706 L498 706 L372 0 Z " />
<glyph glyph-name="W" unicode="W" horiz-adv-x="812" d="M723 0 L502 0 L406 552 L314 0 L92 0 L2 706 L164 706 L215 161 L223 161 L305 706 L502 706 L599 161 L605 161 L644 706 L808 706 L723 0 Z " />
<glyph glyph-name="X" unicode="X" horiz-adv-x="479" d="M305 0 L241 270 L176 0 L4 0 L126 374 L-1 706 L171 706 L241 479 L309 706 L479 706 L354 374 L479 0 L305 0 Z " />
<glyph glyph-name="Y" unicode="Y" horiz-adv-x="521" d="M339 248 L339 0 L172 0 L172 248 L4 706 L172 706 L258 394 L344 706 L515 706 L339 248 Z " />
<glyph glyph-name="Z" unicode="Z" horiz-adv-x="437" d="M-1 0 L-1 138 L244 582 L30 582 L30 706 L421 706 L421 567 L176 125 L427 125 L427 0 L-1 0 Z " />
<glyph glyph-name="bracketleft" unicode="&#x5b;" horiz-adv-x="354" d="M87 -206 L87 706 L341 706 L341 642 L234 642 L234 -139 L341 -139 L341 -206 L87 -206 Z " />
<glyph glyph-name="backslash" unicode="&#x5c;" horiz-adv-x="313" d="M181 0 L9 706 L131 706 L305 0 L181 0 Z " />
<glyph glyph-name="bracketright" unicode="&#x5d;" horiz-adv-x="354" d="M14 -208 L14 -141 L120 -141 L120 640 L14 640 L14 706 L268 706 L268 -208 L14 -208 Z " />
<glyph glyph-name="asciicircum" unicode="&#x5e;" horiz-adv-x="559" d="M366 359 L282 574 L194 359 L40 359 L212 706 L349 706 L518 359 L366 359 Z " />
<glyph glyph-name="underscore" unicode="&#x5f;" horiz-adv-x="500" d="M-10 -240 L-10 -113 L510 -113 L510 -240 L-10 -240 Z " />
<glyph glyph-name="grave" unicode="&#x60;" horiz-adv-x="271" d="M142 609 L1 736 L175 736 L270 609 L142 609 Z " />
<glyph glyph-name="a" unicode="a" horiz-adv-x="500" d="M291 0 L291 45 Q259 18 231 1.5 Q203 -15 158 -15 Q88 -15 59.5 22 Q31 59 31 123 Q31 171 39.5 200.5 Q48 230 67 249 Q86 268 115 281.5 Q144 295 184 310 Q211 321 238 331.5 Q265 342 291 355 L291 387 Q291 411 280 424.5 Q269 438 243 438 Q224 438 214.5 430 Q205 422 201.5 409.5 Q198 397 198.5 382.5 Q199 368 199 355 L46 355 Q45 361 45 367 Q45 373 45 379 Q45 402 47.5 424.5 Q50 447 61 467 Q74 491 94 506.5 Q114 522 138.5 530.5 Q163 539 189 542.5 Q215 546 240 546 Q269 546 301 542.5 Q333 539 361.5 528 Q390 517 412 497 Q434 477 444 445 Q449 429 449.5 414.5 Q450 400 450 383 L450 83 Q450 57 453 39 Q456 21 473 0 L291 0 Z M291 267 Q279 261 267 255 Q255 249 244 242 Q225 231 215 222.5 Q205 214 200.5 203.5 Q196 193 195.5 179 Q195 165 195 144 Q195 122 200 104.5 Q205 87 233 87 Q270 87 280.5 105 Q291 123 291 156 L291 267 Z " />
<glyph glyph-name="b" unicode="b" horiz-adv-x="500" d="M460 151 Q460 129 458 107.5 Q456 86 449 66.5 Q442 47 429.5 30.5 Q417 14 396 2 Q368 -14 333 -14 Q292 -14 262.5 2.5 Q233 19 204 45 L204 0 L45 0 L45 706 L204 706 L204 489 Q230 517 259 531.5 Q288 546 327 546 Q369 546 395.5 532.5 Q422 519 436 496 Q450 473 455 442.5 Q460 412 460 377 L460 151 Z M302 384 Q302 407 291.5 421 Q281 435 256 435 Q227 435 215.5 419 Q204 403 204 377 L204 151 Q204 128 214.5 110.5 Q225 93 251 93 Q278 93 290 108.5 Q302 124 302 150 L302 384 Z " />
<glyph glyph-name="c" unicode="c" horiz-adv-x="458" d="M439 131 Q439 89 423 61 Q407 33 380 16 Q353 -1 318.5 -8 Q284 -15 248 -15 Q220 -15 188.5 -11.5 Q157 -8 129 2.5 Q101 13 78.5 31.5 Q56 50 45 81 Q39 97 37.5 114 Q36 131 36 148 L36 374 Q36 425 51 458 Q66 491 93 510.5 Q120 530 157.5 537.5 Q195 545 240 545 Q277 545 312.5 538 Q348 531 376 514 Q404 497 421.5 468.5 Q439 440 439 397 L439 328 L281 328 L281 388 Q281 409 273 423.5 Q265 438 240 438 Q217 438 206 425.5 Q195 413 195 391 L195 134 Q195 88 239 88 Q263 88 272 100 Q281 112 281 134 L281 187 L439 187 L439 131 Z " />
<glyph glyph-name="d" unicode="d" horiz-adv-x="500" d="M295 0 L295 57 Q272 20 242 2.5 Q212 -15 167 -15 Q124 -15 98.5 0 Q73 15 59.5 39.5 Q46 64 41.5 96.5 Q37 129 37 164 L37 377 Q37 410 42 440.5 Q47 471 60.5 494.5 Q74 518 98.5 532 Q123 546 162 546 Q207 546 238.5 528 Q270 510 295 474 L295 706 L454 706 L454 0 L295 0 Z M295 383 Q295 408 282 422 Q269 436 243 436 Q218 436 206.5 422 Q195 408 195 385 L195 155 Q195 102 247 102 Q276 102 285.5 119.5 Q295 137 295 162 L295 383 Z " />
<glyph glyph-name="e" unicode="e" horiz-adv-x="479" d="M446 162 Q446 138 443 113 Q440 88 429 66 Q416 41 395.5 25.5 Q375 10 350.5 1 Q326 -8 299 -11.5 Q272 -15 246 -15 Q217 -15 184.5 -10.5 Q152 -6 125 7 Q97 20 80 37 Q63 54 53.5 75 Q44 96 40.5 121 Q37 146 37 174 L37 339 Q37 397 48 436.5 Q59 476 83.5 500.5 Q108 525 147.5 535.5 Q187 546 245 546 Q271 546 298.5 542.5 Q326 539 351 529.5 Q376 520 396 503 Q416 486 428 460 Q436 443 438 421 Q440 399 440 379 L440 230 L198 230 L198 139 Q198 117 209 104.5 Q220 92 243 92 Q264 92 274.5 99.5 Q285 107 289 119 Q293 131 293 146 Q293 161 293 176 L446 176 L446 162 Z M290 393 Q290 416 280 430 Q270 444 245 444 Q219 444 208.5 429 Q198 414 198 391 L198 331 L290 331 L290 393 Z " />
<glyph glyph-name="f" unicode="f" horiz-adv-x="313" d="M233 432 L233 0 L75 0 L75 432 L5 432 L5 531 L75 531 Q75 570 75.5 602 Q76 634 85.5 657 Q95 680 119 693 Q143 706 191 706 L304 706 L304 606 Q277 606 263 605 Q249 604 242 597.5 Q235 591 234 575.5 Q233 560 233 531 L304 531 L304 432 L233 432 Z " />
<glyph glyph-name="g" unicode="g" horiz-adv-x="500" d="M454 -46 Q454 -69 452.5 -92 Q451 -115 444 -138 Q434 -172 413.5 -192.5 Q393 -213 365.5 -224.5 Q338 -236 307 -239.5 Q276 -243 245 -243 Q203 -243 165 -237.5 Q127 -232 98.5 -215 Q70 -198 53 -167 Q36 -136 36 -85 Q36 -77 36 -70.5 Q36 -64 37 -56 L196 -56 Q196 -70 195.5 -85.5 Q195 -101 198.5 -113.5 Q202 -126 212 -134.5 Q222 -143 242 -143 Q270 -143 281.5 -128 Q293 -113 293 -88 L293 44 Q272 9 243 -2.5 Q214 -14 175 -14 Q102 -14 69.5 24.5 Q37 63 37 132 L37 384 Q37 422 43 452 Q49 482 64.5 503 Q80 524 107 535 Q134 546 176 546 Q218 546 244.5 531 Q271 516 293 481 L293 531 L454 531 L454 -46 Z M293 384 Q293 407 281.5 421 Q270 435 245 435 Q219 435 207.5 419.5 Q196 404 196 380 L196 143 Q196 120 207 106 Q218 92 243 92 Q269 92 281 108 Q293 124 293 148 L293 384 Z " />
<glyph glyph-name="h" unicode="h" horiz-adv-x="500" d="M295 0 L295 374 Q295 396 285.5 413.5 Q276 431 250 431 Q221 431 211.5 413 Q202 395 202 371 L202 0 L44 0 L44 706 L202 706 L202 483 Q225 515 250 531 Q275 547 317 547 Q338 547 360 542.5 Q382 538 400 525 Q438 498 446 463 Q454 428 454 384 L454 0 L295 0 Z " />
<glyph glyph-name="i" unicode="i" horiz-adv-x="250" d="M45 584 L45 706 L204 706 L204 584 L45 584 Z M45 0 L45 531 L204 531 L204 0 L45 0 Z " />
<glyph glyph-name="j" unicode="j" horiz-adv-x="250" d="M41 585 L41 706 L200 706 L200 585 L41 585 Z M200 -65 Q200 -137 167 -163.5 Q134 -190 67 -190 L-30 -190 L-30 -84 Q-13 -84 0.5 -83.5 Q14 -83 23 -78.5 Q32 -74 37 -63.5 Q42 -53 42 -33 L42 531 L200 531 L200 -65 Z " />
<glyph glyph-name="k" unicode="k" horiz-adv-x="500" d="M325 0 L203 271 L203 0 L45 0 L45 706 L203 706 L203 330 L314 531 L492 531 L349 303 L503 0 L325 0 Z " />
<glyph glyph-name="l" unicode="l" horiz-adv-x="250" d="M45 0 L45 706 L205 706 L205 0 L45 0 Z " />
<glyph glyph-name="m" unicode="m" horiz-adv-x="750" d="M542 0 L542 383 Q542 405 533.5 420.5 Q525 436 499 436 Q473 436 463 422 Q453 408 453 385 L453 0 L293 0 L293 384 Q293 407 284 422 Q275 437 249 437 Q223 437 214 422 Q205 407 205 385 L205 0 L46 0 L46 531 L205 531 L205 475 Q225 511 254.5 528.5 Q284 546 326 546 Q406 546 448 475 Q474 512 500 529 Q526 546 572 546 Q607 546 631.5 535 Q656 524 671.5 504.5 Q687 485 694 458 Q701 431 701 399 L701 0 L542 0 Z " />
<glyph glyph-name="n" unicode="n" horiz-adv-x="500" d="M299 0 L299 378 Q299 402 290 419 Q281 436 252 436 Q224 436 214 420.5 Q204 405 204 381 L204 0 L45 0 L45 531 L204 531 L204 482 Q228 511 256.5 528.5 Q285 546 324 546 Q368 546 402 522 Q437 497 447 463 Q457 429 457 389 L457 0 L299 0 Z " />
<glyph glyph-name="o" unicode="o" horiz-adv-x="479" d="M442 167 Q442 146 440.5 123.5 Q439 101 431 81 Q419 51 398.5 32.5 Q378 14 352 3 Q326 -8 297.5 -12 Q269 -16 240 -16 Q215 -16 187.5 -12.5 Q160 -9 134.5 0.5 Q109 10 88 26 Q67 42 54 66 Q42 89 39 114.5 Q36 140 36 166 L36 366 Q36 390 39 415.5 Q42 441 53 463 Q65 488 86 504 Q107 520 132.5 529 Q158 538 185.5 541.5 Q213 545 238 545 Q280 545 317 537.5 Q354 530 381.5 511.5 Q409 493 425.5 461.5 Q442 430 442 383 L442 167 Z M285 376 L285 384 Q285 406 275 421 Q265 436 240 436 Q214 436 203.5 419.5 Q193 403 193 380 L193 149 Q193 125 203 111 Q213 97 240 97 Q269 97 277 115.5 Q285 134 285 157 L285 376 Z " />
<glyph glyph-name="p" unicode="p" horiz-adv-x="500" d="M465 161 Q465 125 460 93.5 Q455 62 440.5 38 Q426 14 400 0 Q374 -14 332 -14 Q287 -14 259.5 1 Q232 16 205 49 L205 -187 L46 -187 L46 531 L205 531 L205 474 Q231 512 259.5 529 Q288 546 336 546 Q378 546 410 527.5 Q442 509 456 468 Q461 453 462.5 437 Q464 421 464 405 Q464 344 464.5 283 Q465 222 465 161 Z M307 374 Q307 400 295 414.5 Q283 429 255 429 Q225 429 215 412 Q205 395 205 369 L205 165 L205 158 Q205 133 216.5 116 Q228 99 256 99 Q284 99 295.5 115.5 Q307 132 307 158 L307 374 Z " />
<glyph glyph-name="q" unicode="q" horiz-adv-x="500" d="M295 -188 L295 47 Q272 16 244.5 0.5 Q217 -15 178 -15 Q133 -15 97.5 6 Q62 27 48 71 Q42 89 39.5 112.5 Q37 136 37 156 L37 355 Q37 379 38 403.5 Q39 428 45 450.5 Q51 473 63.5 492 Q76 511 98 526 Q114 536 134 540.5 Q154 545 173 545 Q212 545 244 530 Q276 515 295 479 L295 531 L454 531 L454 -188 L295 -188 Z M295 380 Q295 404 283.5 418.5 Q272 433 246 433 Q219 433 207 417.5 Q195 402 195 377 L195 369 L195 165 Q195 139 204.5 120 Q214 101 245 101 Q279 101 287 120 Q295 139 295 167 L295 380 Z " />
<glyph glyph-name="r" unicode="r" horiz-adv-x="354" d="M352 405 Q319 405 292 404.5 Q265 404 246 395.5 Q227 387 216.5 366.5 Q206 346 206 305 L206 0 L46 0 L46 531 L206 531 L206 453 Q219 479 232.5 495.5 Q246 512 263 522 Q280 532 302 536.5 Q324 541 352 543 L352 405 Z " />
<glyph glyph-name="s" unicode="s" horiz-adv-x="437" d="M422 160 Q422 137 419.5 112.5 Q417 88 406 67 Q393 43 371.5 27 Q350 11 324 2 Q298 -7 270.5 -10.5 Q243 -14 218 -14 Q192 -14 163.5 -10.5 Q135 -7 109 3 Q83 13 62.5 30.5 Q42 48 31 76 Q24 93 22.5 113.5 Q21 134 21 151 L21 164 L174 164 Q173 159 173 154.5 Q173 150 173 145 Q173 122 183 107.5 Q193 93 218 93 Q237 93 249 103.5 Q261 114 261 134 Q261 156 247 166.5 Q233 177 216 186 L142 227 Q113 243 91 256.5 Q69 270 54.5 287 Q40 304 33 327.5 Q26 351 26 387 L26 390 Q26 413 30.5 437.5 Q35 462 49 481 Q63 501 83.5 513.5 Q104 526 127.5 533.5 Q151 541 175.5 543.5 Q200 546 222 546 Q249 546 277 542 Q305 538 330.5 528 Q356 518 376 500 Q396 482 406 453 Q414 433 415 414 Q416 395 416 374 L265 374 Q265 386 264 397.5 Q263 409 259 418.5 Q255 428 246 433.5 Q237 439 222 439 Q202 439 191 427.5 Q180 416 180 396 Q180 382 186.5 372.5 Q193 363 202.5 355.5 Q212 348 224 342.5 Q236 337 246 332 L338 286 Q362 274 378 263 Q394 252 403.5 238 Q413 224 417.5 205.5 Q422 187 422 160 Z " />
<glyph glyph-name="t" unicode="t" horiz-adv-x="313" d="M209 0 Q134 0 102.5 29 Q71 58 71 131 L71 432 L0 432 L0 531 L71 531 L71 706 L229 706 L229 531 L300 531 L300 432 L229 432 L229 157 Q229 138 233.5 127.5 Q238 117 247 112 Q256 107 269.5 106.5 Q283 106 300 106 L300 0 L209 0 Z " />
<glyph glyph-name="u" unicode="u" horiz-adv-x="500" d="M296 0 L296 58 Q274 22 246.5 4 Q219 -14 175 -14 Q154 -14 133 -9 Q112 -4 95 9 Q58 36 50 72.5 Q42 109 42 152 L42 531 L200 531 L200 157 Q200 108 247 108 Q275 108 285.5 122.5 Q296 137 296 162 L296 531 L454 531 L454 0 L296 0 Z " />
<glyph glyph-name="v" unicode="v" horiz-adv-x="437" d="M326 0 L114 0 L4 531 L159 531 L217 135 L228 135 L276 531 L434 531 L326 0 Z " />
<glyph glyph-name="w" unicode="w" horiz-adv-x="708" d="M600 0 L436 0 L356 368 L275 0 L111 0 L0 531 L162 531 L202 145 L268 531 L447 531 L510 145 L552 531 L712 531 L600 0 Z " />
<glyph glyph-name="x" unicode="x" horiz-adv-x="437" d="M271 0 L221 163 L163 0 L-1 0 L124 276 L6 531 L172 531 L221 375 L265 531 L427 531 L313 276 L437 0 L271 0 Z " />
<glyph glyph-name="y" unicode="y" horiz-adv-x="437" d="M309 -15 Q301 -50 292 -78.5 Q283 -107 267.5 -128.5 Q252 -150 227.5 -164 Q203 -178 164 -185 Q144 -189 124 -189.5 Q104 -190 84 -190 L7 -190 L7 -87 L77 -87 Q109 -87 121 -76 Q133 -65 136 -35 L-2 531 L154 531 L218 114 L277 531 L436 531 L309 -15 Z " />
<glyph glyph-name="z" unicode="z" horiz-adv-x="396" d="M188 102 L369 102 L369 0 L10 0 L10 102 L206 430 L46 430 L46 531 L385 531 L385 430 L188 102 Z " />
<glyph glyph-name="braceleft" unicode="&#x7b;" horiz-adv-x="354" d="M331 -196 Q304 -196 275 -196 Q246 -196 220 -189 Q184 -180 162.5 -163 Q141 -146 129.5 -123 Q118 -100 115 -71.5 Q112 -43 112 -10 L112 72 Q112 95 110.5 120 Q109 145 101.5 166 Q94 187 77.5 201.5 Q61 216 31 219 L31 294 Q63 297 79.5 312.5 Q96 328 103 351 Q110 374 111 400 Q112 426 112 450 L112 535 Q112 564 115.5 589 Q119 614 129.5 635 Q140 656 158.5 672 Q177 688 207 698 Q229 706 254 706 Q279 706 302 708 Q310 709 316.5 709 Q323 709 331 709 L331 639 Q301 639 284 633 Q267 627 258.5 614 Q250 601 247.5 582 Q245 563 245 537 L245 423 Q245 392 241 364.5 Q237 337 225 315 Q213 293 191 278.5 Q169 264 134 259 L134 253 Q170 248 191.5 233.5 Q213 219 225 197.5 Q237 176 241 148 Q245 120 245 89 L245 -12 Q245 -39 246.5 -60 Q248 -81 256 -95.5 Q264 -110 281.5 -118 Q299 -126 331 -126 L331 -196 Z " />
<glyph glyph-name="bar" unicode="&#x7c;" horiz-adv-x="229" d="M51 -199 L51 707 L178 707 L178 -199 L51 -199 Z " />
<glyph glyph-name="braceright" unicode="&#x7d;" horiz-adv-x="354" d="M331 219 Q300 216 283 200.5 Q266 185 259 162 Q252 139 251 113 Q250 87 250 63 L250 -19 Q250 -50 246 -77 Q242 -104 231 -125.5 Q220 -147 199.5 -163 Q179 -179 146 -188 Q119 -196 89 -196 Q59 -196 31 -196 L31 -126 Q60 -126 77 -120 Q94 -114 103 -101 Q112 -88 114.5 -69.5 Q117 -51 117 -25 L117 88 Q117 119 121 146.5 Q125 174 137 196 Q149 218 170.5 233 Q192 248 227 253 L227 259 Q185 265 162.5 284.5 Q140 304 130 331.5 Q120 359 118.5 392 Q117 425 117 458 L117 550 Q117 599 99.5 619 Q82 639 31 639 L31 709 Q58 709 87 709 Q116 709 142 702 Q178 693 199.5 676.5 Q221 660 232.5 637 Q244 614 247 585.5 Q250 557 250 524 L250 421 Q250 399 252.5 377.5 Q255 356 263.5 338 Q272 320 288 308.5 Q304 297 331 294 L331 219 Z " />
<glyph glyph-name="asciitilde" unicode="&#x7e;" horiz-adv-x="561" d="M502 277 Q466 239 435.5 222.5 Q405 206 373 206 Q356 206 336.5 211.5 Q317 217 285 233 L260 245 Q236 256 219.5 261 Q203 266 188 266 Q156 266 135 246 Q127 240 122 235 Q117 230 105 216 L59 334 Q76 353 84.5 361 Q93 369 105 378 Q141 406 184 406 Q201 406 218.5 401 Q236 396 265 383 L311 362 Q336 351 348 347.5 Q360 344 371 344 Q391 344 410.5 355.5 Q430 367 455 393 L502 277 Z " />
<glyph glyph-name="nbspace" unicode="&#xa0;" horiz-adv-x="271" d="" />
<glyph glyph-name="exclamdown" unicode="&#xa1;" horiz-adv-x="292" d="M49 554 L49 706 L197 706 L197 554 L49 554 Z M49 0 L49 99 Q49 142 53 184 Q57 226 61 268 Q66 321 70.5 373.5 Q75 426 79 479 L172 479 Q176 421 179.5 363.5 Q183 306 188 248 Q191 210 194 173.5 Q197 137 197 99 L197 0 L49 0 Z " />
<glyph glyph-name="cent" unicode="&#xa2;" horiz-adv-x="458" d="M439 131 Q439 115 437 98 Q435 81 427 67 Q417 48 401 33 Q385 18 365 8 Q345 -2 323.5 -7.5 Q302 -13 281 -13 L281 -142 L198 -142 L198 -12 Q120 -4 78 31 Q36 66 36 148 L36 386 Q36 499 142 533 Q156 538 170 539.5 Q184 541 198 544 L198 651 L281 651 L281 543 Q314 540 343 530 Q372 520 393 502 Q414 484 426.5 457.5 Q439 431 439 395 L439 328 L281 328 L281 388 Q281 409 273 423.5 Q265 438 240 438 Q217 438 206 425.5 Q195 413 195 391 L195 134 Q195 88 239 88 Q263 88 272 100 Q281 112 281 134 L281 187 L439 187 L439 131 Z " />
<glyph glyph-name="sterling" unicode="&#xa3;" horiz-adv-x="583" d="M565 198 Q565 161 563.5 124 Q562 87 550.5 57.5 Q539 28 513 9.5 Q487 -9 438 -9 Q396 -9 353.5 8.5 Q311 26 273 43 Q244 17 215 2.5 Q186 -12 145 -12 Q97 -12 62.5 13 Q28 38 28 89 Q28 137 58 162 Q88 187 133 187 Q154 187 174 182.5 Q194 178 214 172 Q214 194 210.5 212 Q207 230 201 246.5 Q195 263 187 280 Q179 297 169 316 L31 316 L31 396 L130 396 Q114 436 105 467 Q96 498 96 541 Q96 566 99.5 592 Q103 618 116 640 Q131 666 155 681.5 Q179 697 207 705.5 Q235 714 265 717 Q295 720 322 720 Q352 720 381.5 716 Q411 712 436 700 Q461 688 479.5 667.5 Q498 647 507 614 Q512 593 513.5 571.5 Q515 550 515 528 Q515 517 515 507.5 Q515 498 514 487 L376 487 Q376 506 376.5 527.5 Q377 549 371.5 567.5 Q366 586 353 598 Q340 610 313 610 Q278 610 264 592.5 Q250 575 250 543 Q250 505 262 468 Q274 431 288 396 L450 396 L450 316 L320 316 Q330 289 337 261.5 Q344 234 344 205 Q344 185 340.5 167.5 Q337 150 330 131 Q344 125 358.5 119.5 Q373 114 389 114 Q412 114 420 127.5 Q428 141 428 161 L428 236 L565 236 L565 198 Z M196 95 Q186 103 175 109.5 Q164 116 151 116 Q140 116 133 109.5 Q126 103 126 92 Q126 79 135 72.5 Q144 66 155 66 Q169 66 179 75 Q189 84 196 95 Z " />
<glyph glyph-name="currency" unicode="&#xa4;" horiz-adv-x="679" d="M580 490 Q601 452 611 416.5 Q621 381 621 340 Q621 298 611 261.5 Q601 225 579 187 L657 105 L564 10 L485 92 Q446 69 413.5 59.5 Q381 50 340 50 Q297 50 263 60 Q229 70 192 94 L113 12 L20 107 L100 189 Q58 253 58 337 Q58 381 67.5 416.5 Q77 452 99 490 L21 570 L114 665 L192 585 Q256 628 340 628 Q382 628 415 618 Q448 608 486 585 L565 666 L658 570 L580 490 Z M476 338 Q476 370 465.5 398 Q455 426 436.5 446.5 Q418 467 393.5 479 Q369 491 340 491 Q311 491 286 479 Q261 467 242.5 446.5 Q224 426 213.5 398 Q203 370 203 338 Q203 307 213.5 279.5 Q224 252 242.5 231.5 Q261 211 286 199.5 Q311 188 340 188 Q369 188 393.5 200 Q418 212 436.5 232 Q455 252 465.5 279.5 Q476 307 476 338 Z " />
<glyph glyph-name="yen" unicode="&#xa5;" horiz-adv-x="521" d="M390 382 L478 382 L478 295 L357 295 L340 252 L340 240 L478 240 L478 154 L339 154 L339 0 L172 0 L172 154 L34 154 L34 240 L171 240 L171 252 L155 295 L34 295 L34 382 L124 382 L4 706 L172 706 L259 396 L344 706 L515 706 L390 382 Z " />
<glyph glyph-name="brokenbar" unicode="&#xa6;" horiz-adv-x="229" d="M51 324 L51 707 L178 707 L178 324 L51 324 Z M51 -199 L51 183 L178 183 L178 -199 L51 -199 Z " />
<glyph glyph-name="section" unicode="&#xa7;" horiz-adv-x="437" d="M361 560 Q349 566 331 575 Q313 584 293.5 592.5 Q274 601 256 607 Q238 613 225 613 Q211 613 200.5 604.5 Q190 596 190 581 Q190 565 206.5 552 Q223 539 248 526 Q273 513 302.5 499 Q332 485 357 465.5 Q382 446 398.5 420.5 Q415 395 415 359 Q415 319 396.5 290.5 Q378 262 351 236 Q376 219 392 196 Q408 173 408 141 Q408 102 389.5 73 Q371 44 342.5 25.5 Q314 7 278.5 -2 Q243 -11 209 -11 Q178 -11 152 -6.5 Q126 -2 102 6.5 Q78 15 54.5 26.5 Q31 38 4 52 L67 161 Q81 153 99 142 Q117 131 136.5 121 Q156 111 175 104 Q194 97 210 97 Q226 97 238.5 106.5 Q251 116 251 133 Q251 142 247.5 148 Q244 154 238 160 Q235 163 220 172 Q205 181 186.5 191 Q168 201 151.5 210.5 Q135 220 129 223 Q109 234 91.5 246 Q74 258 60.5 273 Q47 288 39 307 Q31 326 31 352 Q31 394 52 421.5 Q73 449 107 471 Q77 491 59 515.5 Q41 540 41 579 Q41 617 56 643.5 Q71 670 95.5 687 Q120 704 151.5 712 Q183 720 216 720 Q275 720 321 705 Q367 690 419 667 L361 560 Z M315 323 Q315 334 312.5 339.5 Q310 345 302 353 Q297 358 279 369 Q261 380 240 392 Q219 404 199.5 415 Q180 426 172 431 Q160 423 150.5 411.5 Q141 400 141 385 Q141 368 153 353 Q156 349 174.5 337.5 Q193 326 215.5 313.5 Q238 301 258 290 Q278 279 285 275 Q297 284 306 295 Q315 306 315 323 Z " />
<glyph glyph-name="dieresis" unicode="&#xa8;" horiz-adv-x="271" d="M176 609 L176 733 L318 733 L318 609 L176 609 Z M-47 609 L-47 733 L97 733 L97 609 L-47 609 Z " />
<glyph glyph-name="copyright" unicode="&#xa9;" horiz-adv-x="799" d="M756 354 Q756 279 728.5 213.5 Q701 148 653 100 Q605 52 539.5 24.5 Q474 -3 399 -3 Q325 -3 260.5 25 Q196 53 148 101 Q100 149 72 214 Q44 279 44 353 Q44 427 72 492 Q100 557 148 605 Q196 653 261 681 Q326 709 400 709 Q475 709 540 681.5 Q605 654 653 606 Q701 558 728.5 493 Q756 428 756 354 Z M705 352 Q705 418 681.5 475 Q658 532 616.5 574.5 Q575 617 519.5 641 Q464 665 400 665 Q337 665 281.5 640.5 Q226 616 184.5 573.5 Q143 531 119 474.5 Q95 418 95 353 Q95 288 118.5 231 Q142 174 183.5 132 Q225 90 280.5 65.5 Q336 41 399 41 Q463 41 518.5 65.5 Q574 90 615.5 132 Q657 174 681 231 Q705 288 705 352 Z M546 265 Q546 187 513 154.5 Q480 122 400 122 Q379 122 361 124.5 Q343 127 326 133 Q284 147 266.5 180.5 Q249 214 249 277 L249 435 Q249 478 255.5 503 Q262 528 279 547 Q316 590 401 590 Q480 590 513 558 Q546 526 546 448 L546 413 L443 413 L443 453 Q443 482 432.5 494.5 Q422 507 399 507 Q370 507 359 487 Q355 479 353.5 469.5 Q352 460 352 438 L352 276 Q352 254 353.5 244 Q355 234 359 227 Q368 207 399 207 Q422 207 432.5 219.5 Q443 232 443 261 L443 304 L546 304 L546 265 Z " />
<glyph glyph-name="ordfeminine" unicode="&#xaa;" horiz-adv-x="354" d="M207 371 L207 394 Q184 380 163 370 Q142 360 113 360 Q65 360 49 385.5 Q33 411 33 453 Q33 485 42.5 506.5 Q52 528 81 545 Q89 550 100 553 Q111 556 121 560 Q143 568 164.5 575.5 Q186 583 207 591 L207 610 Q207 642 174 642 Q161 642 154 638 Q147 634 144.5 627.5 Q142 621 142 611.5 Q142 602 142 591 L42 591 L42 610 Q42 622 43 634.5 Q44 647 49 658 Q57 675 70.5 685.5 Q84 696 100.5 702 Q117 708 135 710 Q153 712 170 712 Q184 712 201.5 710.5 Q219 709 236.5 705 Q254 701 269 693.5 Q284 686 293 674 Q297 669 299.5 663.5 Q302 658 304 652 Q309 638 309.5 622 Q310 606 310 591 L310 424 Q310 407 312 396 Q314 385 325 371 L207 371 Z M207 532 Q186 525 173 521 Q160 517 152.5 510.5 Q145 504 142 492.5 Q139 481 139 458 Q139 425 172 425 Q194 425 200.5 437.5 Q207 450 207 468 L207 532 Z " />
<glyph glyph-name="guillemotleft" unicode="&#xab;" horiz-adv-x="396" d="M212 254 L212 374 L353 491 L353 363 L295 315 L353 263 L353 138 L212 254 Z M31 253 L31 374 L173 490 L173 364 L115 316 L173 265 L173 137 L31 253 Z " />
<glyph glyph-name="logicalnot" unicode="&#xac;" horiz-adv-x="559" d="M317 52 L317 238 L52 238 L52 362 L474 362 L474 52 L317 52 Z " />
<glyph glyph-name="registered" unicode="&#xae;" horiz-adv-x="799" d="M756 354 Q756 279 728.5 213.5 Q701 148 653 100 Q605 52 539.5 24.5 Q474 -3 399 -3 Q325 -3 260.5 25 Q196 53 148 101 Q100 149 72 214 Q44 279 44 353 Q44 427 72 492 Q100 557 148 605 Q196 653 261 681 Q326 709 400 709 Q475 709 540 681.5 Q605 654 653 606 Q701 558 728.5 493 Q756 428 756 354 Z M705 352 Q705 418 681.5 475 Q658 532 616.5 574.5 Q575 617 519.5 641 Q464 665 400 665 Q337 665 281.5 640.5 Q226 616 184.5 573.5 Q143 531 119 474.5 Q95 418 95 353 Q95 288 118.5 231 Q142 174 183.5 132 Q225 90 280.5 65.5 Q336 41 399 41 Q463 41 518.5 65.5 Q574 90 615.5 132 Q657 174 681 231 Q705 288 705 352 Z M461 130 L394 313 L376 313 L376 130 L272 130 L272 579 L424 579 Q490 579 518 558.5 Q546 538 546 488 L546 412 Q546 348 491 322 L570 130 L461 130 Z M444 462 Q444 497 402 497 L376 497 L376 401 L398 401 Q424 401 434 411.5 Q444 422 444 448 L444 462 Z " />
<glyph glyph-name="macron" unicode="&#xaf;" horiz-adv-x="271" d="M-20 609 L-20 699 L291 699 L291 609 L-20 609 Z " />
<glyph glyph-name="degree" unicode="&#xb0;" horiz-adv-x="354" d="M349 573 Q349 537 335.5 505.5 Q322 474 298.5 450.5 Q275 427 244 413.5 Q213 400 177 400 Q141 400 110 413.5 Q79 427 55.5 450.5 Q32 474 18.5 505.5 Q5 537 5 573 Q5 609 18.5 640.5 Q32 672 55 695 Q78 718 109.5 731.5 Q141 745 177 745 Q213 745 244.5 731.5 Q276 718 299 695 Q322 672 335.5 640.5 Q349 609 349 573 Z M233 575 Q233 598 216.5 614 Q200 630 177 630 Q154 630 138 614 Q122 598 122 575 Q122 552 138 535.5 Q154 519 177 519 Q200 519 216.5 535.5 Q233 552 233 575 Z " />
<glyph glyph-name="plusminus" unicode="&#xb1;" horiz-adv-x="559" d="M358 332 L358 187 L203 187 L203 332 L82 332 L82 458 L203 458 L203 604 L358 604 L358 458 L478 458 L478 332 L358 332 Z M82 0 L82 126 L478 126 L478 0 L82 0 Z " />
<glyph glyph-name="twosuperior" unicode="&#xb2;" horiz-adv-x="333" d="M304 585 Q304 564 302.5 547.5 Q301 531 296 517.5 Q291 504 281.5 491.5 Q272 479 256 465 Q227 439 198.5 413 Q170 387 150 352 L303 352 L303 264 L29 264 L29 298 Q29 327 34 349 Q39 371 49 389.5 Q59 408 74.5 425.5 Q90 443 111 462 Q125 474 138 486 Q151 498 165 509 Q174 517 182.5 523.5 Q191 530 197 540 Q203 550 203 562.5 Q203 575 203 586 Q203 606 198 620.5 Q193 635 167 635 Q144 635 135.5 623.5 Q127 612 127 592 L127 533 L29 533 L29 592 Q29 632 40.5 659 Q52 686 92 702 Q107 708 126.5 710.5 Q146 713 162 713 Q180 713 200 710.5 Q220 708 238.5 701 Q257 694 272 682 Q287 670 296 652 Q302 639 303 624 Q304 609 304 595 L304 585 Z " />
<glyph glyph-name="threesuperior" unicode="&#xb3;" horiz-adv-x="333" d="M299 363 Q299 331 289 310.5 Q279 290 261 278.5 Q243 267 219 262.5 Q195 258 166 258 L160 258 Q126 258 100.5 261.5 Q75 265 58.5 277 Q42 289 34 311 Q26 333 26 370 L26 422 L125 422 L125 378 Q125 357 132.5 345.5 Q140 334 164 334 Q190 334 194.5 349 Q199 364 199 384 Q199 393 199.5 401.5 Q200 410 200 419 Q200 442 189 448.5 Q178 455 158 455 Q146 455 133.5 454.5 Q121 454 109 454 L109 535 L153 535 Q173 535 186.5 540.5 Q200 546 200 569 L200 576 Q200 591 200 602.5 Q200 614 196 621.5 Q192 629 183 633 Q174 637 156 637 Q141 637 134.5 629.5 Q128 622 125.5 611.5 Q123 601 124 588.5 Q125 576 125 566 L26 566 L26 611 Q26 642 35.5 661.5 Q45 681 62 692.5 Q79 704 102.5 708 Q126 712 154 712 Q182 712 207.5 709 Q233 706 252.5 695.5 Q272 685 284 665.5 Q296 646 296 613 L296 579 Q296 550 286.5 530 Q277 510 250 497 Q281 486 290 465 Q299 444 299 415 L299 363 Z " />
<glyph glyph-name="acute" unicode="&#xb4;" horiz-adv-x="271" d="M126 610 L8 610 L95 735 L263 735 L126 610 Z " />
<glyph glyph-name="mu" unicode="&#xb5;" horiz-adv-x="500" d="M301 0 L296 58 Q285 22 271.5 8 Q258 -6 234 -6 Q213 -6 200 8 L200 -187 L42 -187 L42 531 L200 531 L200 157 Q200 108 247 108 Q296 108 296 162 L296 531 L454 531 L454 83 Q454 66 455 54.5 Q456 43 458 34 Q460 25 465 17.5 Q470 10 477 0 L301 0 Z " />
<glyph glyph-name="paragraph" unicode="&#xb6;" horiz-adv-x="575" d="M480 618 L480 -168 L386 -168 L386 618 L303 618 L303 -167 L206 -167 L206 301 Q47 342 47 497 Q47 583 100 638 Q135 675 182.5 690.5 Q230 706 309 706 L516 706 L516 618 L480 618 Z " />
<glyph glyph-name="periodcentered" unicode="&#xb7;" horiz-adv-x="250" d="M51 280 L51 432 L199 432 L199 280 L51 280 Z " />
<glyph glyph-name="cedilla" unicode="&#xb8;" horiz-adv-x="271" d="M237 -136 Q237 -163 223.5 -181.5 Q210 -200 189 -212 Q168 -224 143 -229 Q118 -234 96 -234 Q88 -234 79.5 -234 Q71 -234 63 -233 L45 -185 Q53 -186 59.5 -186.5 Q66 -187 74 -187 Q95 -187 114.5 -176 Q134 -165 134 -141 Q134 -122 121.5 -114.5 Q109 -107 92 -107 Q80 -107 71 -110 Q62 -113 51 -118 L34 -83 L124 20 L212 20 L145 -58 Q163 -60 179.5 -64 Q196 -68 209 -77 Q222 -86 229.5 -100.5 Q237 -115 237 -136 Z " />
<glyph glyph-name="onesuperior" unicode="&#xb9;" horiz-adv-x="333" d="M129 264 L129 580 Q111 568 97 562 Q83 556 63 550 L63 644 Q93 649 112.5 662.5 Q132 676 145 705 L228 705 L228 264 L129 264 Z " />
<glyph glyph-name="ordmasculine" unicode="&#xba;" horiz-adv-x="333" d="M302 473 Q302 407 267.5 382.5 Q233 358 170 358 Q146 358 121 362 Q96 366 76 380 Q60 391 51 404.5 Q42 418 37.5 433.5 Q33 449 32.5 466 Q32 483 32 501 L32 559 Q32 579 32 598.5 Q32 618 35.5 635.5 Q39 653 49 668 Q59 683 78 694 Q95 704 117.5 707.5 Q140 711 160 711 Q177 711 196 709 Q215 707 232.5 702 Q250 697 265.5 687 Q281 677 290 660 Q295 651 297.5 635.5 Q300 620 301 602.5 Q302 585 302 568.5 Q302 552 302 541 L302 473 Z M200 605 Q200 623 193 632 Q186 641 167 641 Q146 641 140.5 630.5 Q135 620 135 602 L135 466 Q135 432 168 432 Q200 432 200 462 L200 605 Z " />
<glyph glyph-name="guillemotright" unicode="&#xbb;" horiz-adv-x="396" d="M222 141 L222 266 L279 313 L222 364 L222 492 L364 375 L364 257 L222 141 Z M42 139 L42 267 L98 314 L42 366 L42 492 L183 375 L183 255 L42 139 Z " />
<glyph glyph-name="onequarter" unicode="&#xbc;" horiz-adv-x="792" d="M726 92 L726 0 L631 0 L631 92 L479 92 L479 177 L603 442 L726 442 L726 177 L771 177 L771 92 L726 92 Z M311 0 L239 0 L479 706 L551 706 L311 0 Z M129 264 L129 580 Q111 568 97 562 Q83 556 63 550 L63 644 Q93 649 112.5 662.5 Q132 676 145 705 L228 705 L228 264 L129 264 Z M631 346 L552 177 L631 177 L631 346 Z " />
<glyph glyph-name="onehalf" unicode="&#xbd;" horiz-adv-x="792" d="M763 320 Q763 300 761.5 284.5 Q760 269 755.5 255.5 Q751 242 742 229.5 Q733 217 718 203 Q688 175 658 149.5 Q628 124 608 87 L761 87 L761 -1 L487 -1 L487 33 Q487 73 497.5 102 Q508 131 526.5 154.5 Q545 178 570 198.5 Q595 219 623 243 Q630 248 641.5 258 Q653 268 657 276 Q661 284 661.5 296 Q662 308 662 317 Q662 338 657 354 Q652 370 625 370 Q602 370 594 358.5 Q586 347 586 327 L586 268 L487 268 L487 325 Q487 366 498 393 Q509 420 551 437 Q566 443 585 445.5 Q604 448 620 448 Q639 448 660 445.5 Q681 443 699.5 435.5 Q718 428 733 415 Q748 402 756 382 Q761 370 762 351.5 Q763 333 763 320 Z M288 0 L215 0 L455 706 L528 706 L288 0 Z M129 264 L129 580 Q111 568 97 562 Q83 556 63 550 L63 644 Q93 649 112.5 662.5 Q132 676 145 705 L228 705 L228 264 L129 264 Z " />
<glyph glyph-name="threequarters" unicode="&#xbe;" horiz-adv-x="792" d="M726 92 L726 0 L631 0 L631 92 L479 92 L479 177 L603 442 L726 442 L726 177 L771 177 L771 92 L726 92 Z M329 0 L256 0 L496 706 L569 706 L329 0 Z M299 363 Q299 331 289 310.5 Q279 290 261 278.5 Q243 267 219 262.5 Q195 258 166 258 L160 258 Q126 258 100.5 261.5 Q75 265 58.5 277 Q42 289 34 311 Q26 333 26 370 L26 422 L125 422 L125 378 Q125 357 132.5 345.5 Q140 334 164 334 Q190 334 194.5 349 Q199 364 199 384 Q199 393 199.5 401.5 Q200 410 200 419 Q200 442 189 448.5 Q178 455 158 455 Q146 455 133.5 454.5 Q121 454 109 454 L109 535 L153 535 Q173 535 186.5 540.5 Q200 546 200 569 L200 576 Q200 591 200 602.5 Q200 614 196 621.5 Q192 629 183 633 Q174 637 156 637 Q141 637 134.5 629.5 Q128 622 125.5 611.5 Q123 601 124 588.5 Q125 576 125 566 L26 566 L26 611 Q26 642 35.5 661.5 Q45 681 62 692.5 Q79 704 102.5 708 Q126 712 154 712 Q182 712 207.5 709 Q233 706 252.5 695.5 Q272 685 284 665.5 Q296 646 296 613 L296 579 Q296 550 286.5 530 Q277 510 250 497 Q281 486 290 465 Q299 444 299 415 L299 363 Z M631 346 L552 177 L631 177 L631 346 Z " />
<glyph glyph-name="questiondown" unicode="&#xbf;" horiz-adv-x="500" d="M208 555 L208 706 L356 706 L356 555 L208 555 Z M417 152 Q417 132 415.5 108.5 Q414 85 406 66 Q396 41 377.5 25.5 Q359 10 335.5 1.5 Q312 -7 286.5 -9.5 Q261 -12 237 -12 Q216 -12 191.5 -10 Q167 -8 143.5 -2 Q120 4 99 15 Q78 26 64 44 Q47 67 43 100 Q39 133 39 160 Q39 180 41 193 Q43 206 48 217.5 Q53 229 62 239.5 Q71 250 85 264 L139 315 Q152 327 164.5 337.5 Q177 348 186.5 359.5 Q196 371 202 385 Q208 399 208 418 L208 479 L355 479 L355 429 Q355 405 352.5 387.5 Q350 370 344 355.5 Q338 341 327 327.5 Q316 314 298 297 L223 225 Q204 206 196 193.5 Q188 181 188 152 Q188 129 197 113.5 Q206 98 231 98 Q258 98 266 113 Q274 128 274 151 L274 206 L417 206 L417 152 Z " />
<glyph glyph-name="Agrave" unicode="&#xc0;" horiz-adv-x="521" d="M228 766 L79 908 L240 908 L337 766 L228 766 Z M351 0 L327 161 L196 161 L171 0 L4 0 L147 706 L375 706 L518 0 L351 0 Z M263 594 L215 280 L310 280 L263 594 Z " />
<glyph glyph-name="Aacute" unicode="&#xc1;" horiz-adv-x="521" d="M300 768 L194 768 L288 910 L451 910 L300 768 Z M351 0 L327 161 L196 161 L171 0 L4 0 L147 706 L375 706 L518 0 L351 0 Z M263 594 L215 280 L310 280 L263 594 Z " />
<glyph glyph-name="Acircumflex" unicode="&#xc2;" horiz-adv-x="521" d="M320 765 L261 848 L203 765 L81 765 L177 907 L344 907 L450 765 L320 765 Z M351 0 L327 161 L196 161 L171 0 L4 0 L147 706 L375 706 L518 0 L351 0 Z M263 594 L215 280 L310 280 L263 594 Z " />
<glyph glyph-name="Atilde" unicode="&#xc3;" horiz-adv-x="521" d="M424 899 Q421 875 415 853 Q409 831 397 813.5 Q385 796 366 786 Q347 776 318 776 Q297 776 277 782 Q257 788 239.5 795 Q222 802 206.5 808 Q191 814 179 814 Q162 814 154.5 805 Q147 796 145 781 L95 781 Q98 806 103.5 828 Q109 850 120.5 866.5 Q132 883 151 892.5 Q170 902 200 902 Q218 902 236 896.5 Q254 891 271 884.5 Q288 878 304 872.5 Q320 867 335 867 Q368 867 373 899 L424 899 Z M351 0 L327 161 L196 161 L171 0 L4 0 L147 706 L375 706 L518 0 L351 0 Z M263 594 L215 280 L310 280 L263 594 Z " />
<glyph glyph-name="Adieresis" unicode="&#xc4;" horiz-adv-x="521" d="M288 786 L288 898 L423 898 L423 786 L288 786 Z M96 786 L96 898 L231 898 L231 786 L96 786 Z M350 0 L327 161 L195 161 L171 0 L3 0 L147 706 L374 706 L517 0 L350 0 Z M263 593 L215 280 L309 280 L263 593 Z " />
<glyph glyph-name="Aring" unicode="&#xc5;" horiz-adv-x="521" d="M358 828 Q358 808 350 790 Q342 772 328.5 758.5 Q315 745 297 737 Q279 729 259 729 Q239 729 221 737 Q203 745 189.5 758.5 Q176 772 168 790 Q160 808 160 828 Q160 848 168 866 Q176 884 189.5 897.5 Q203 911 221 919 Q239 927 259 927 Q279 927 297 919 Q315 911 328.5 897.5 Q342 884 350 866 Q358 848 358 828 Z M350 0 L327 161 L195 161 L171 0 L3 0 L147 706 L375 706 L517 0 L350 0 Z M296 828 Q296 843 285 854 Q274 865 259 865 Q244 865 233 854 Q222 843 222 828 Q222 813 233 802 Q244 791 259 791 Q274 791 285 802 Q296 813 296 828 Z M263 594 L215 279 L309 279 L263 594 Z " />
<glyph glyph-name="AE" unicode="&#xc6;" horiz-adv-x="771" d="M390 0 L390 191 L244 191 L180 0 L2 0 L275 706 L748 706 L748 579 L560 579 L560 422 L735 422 L735 296 L560 296 L560 126 L748 126 L748 0 L390 0 Z M390 579 L378 579 L286 311 L390 311 L390 579 Z " />
<glyph glyph-name="Ccedilla" unicode="&#xc7;" horiz-adv-x="521" d="M494 206 Q494 169 490 136.5 Q486 104 473.5 77.5 Q461 51 436.5 31.5 Q412 12 371 1 Q355 -3 339.5 -4.5 Q324 -6 308 -8 L266 -58 Q302 -61 329 -78 Q356 -95 356 -136 Q356 -163 342.5 -181.5 Q329 -200 308 -212 Q287 -224 262 -229 Q237 -234 215 -234 Q207 -234 199 -234 Q191 -234 183 -233 L165 -185 Q173 -186 179.5 -186.5 Q186 -187 194 -187 Q216 -187 235 -176.5 Q254 -166 254 -141 Q254 -122 241 -114.5 Q228 -107 211 -107 Q199 -107 190.5 -109.5 Q182 -112 171 -118 L155 -83 L220 -8 Q195 -8 169 -3 Q143 2 120.5 13.5 Q98 25 80 43.5 Q62 62 52 87 Q44 107 42 129.5 Q40 152 40 173 L40 521 Q40 543 42 566.5 Q44 590 52 610 Q66 644 89 665.5 Q112 687 140.5 699 Q169 711 201.5 715 Q234 719 267 719 Q300 719 333 714.5 Q366 710 395.5 697 Q425 684 447.5 662 Q470 640 482 605 Q488 587 489 568 Q490 549 490 530 L490 445 L322 445 L322 533 Q322 566 311 581 Q300 596 263 596 Q230 596 220 578.5 Q210 561 210 532 L210 181 Q210 149 219 130 Q228 111 266 111 Q298 111 309.5 126 Q321 141 321 171 L321 269 L494 269 L494 206 Z " />
<glyph glyph-name="Egrave" unicode="&#xc8;" horiz-adv-x="437" d="M197 766 L47 908 L209 908 L306 766 L197 766 Z M51 0 L51 706 L416 706 L416 582 L222 582 L222 419 L405 419 L405 295 L222 295 L222 125 L416 125 L416 0 L51 0 Z " />
<glyph glyph-name="Eacute" unicode="&#xc9;" horiz-adv-x="437" d="M269 768 L163 768 L257 910 L419 910 L269 768 Z M51 0 L51 706 L416 706 L416 582 L222 582 L222 419 L405 419 L405 295 L222 295 L222 125 L416 125 L416 0 L51 0 Z " />
<glyph glyph-name="Ecircumflex" unicode="&#xca;" horiz-adv-x="437" d="M289 765 L229 848 L171 765 L50 765 L146 907 L313 907 L419 765 L289 765 Z M51 0 L51 706 L416 706 L416 582 L222 582 L222 419 L405 419 L405 295 L222 295 L222 125 L416 125 L416 0 L51 0 Z " />
<glyph glyph-name="Edieresis" unicode="&#xcb;" horiz-adv-x="437" d="M257 784 L257 897 L392 897 L392 784 L257 784 Z M65 784 L65 897 L200 897 L200 784 L65 784 Z M51 0 L51 706 L416 706 L416 582 L222 582 L222 419 L405 419 L405 295 L222 295 L222 125 L416 125 L416 0 L51 0 Z " />
<glyph glyph-name="Igrave" unicode="&#xcc;" horiz-adv-x="271" d="M103 766 L-46 908 L115 908 L212 766 L103 766 Z M49 0 L49 706 L220 706 L220 0 L49 0 Z " />
<glyph glyph-name="Iacute" unicode="&#xcd;" horiz-adv-x="271" d="M175 768 L69 768 L163 910 L326 910 L175 768 Z M49 0 L49 706 L220 706 L220 0 L49 0 Z " />
<glyph glyph-name="Icircumflex" unicode="&#xce;" horiz-adv-x="271" d="M195 765 L136 848 L78 765 L-44 765 L52 907 L219 907 L325 765 L195 765 Z M49 0 L49 706 L220 706 L220 0 L49 0 Z " />
<glyph glyph-name="Idieresis" unicode="&#xcf;" horiz-adv-x="271" d="M164 784 L164 897 L298 897 L298 784 L164 784 Z M-29 784 L-29 897 L107 897 L107 784 L-29 784 Z M49 0 L49 706 L220 706 L220 0 L49 0 Z " />
<glyph glyph-name="Eth" unicode="&#xd0;" horiz-adv-x="542" d="M504 170 Q504 119 492 86 Q480 53 456.5 34 Q433 15 397.5 7.5 Q362 0 315 0 L50 0 L50 333 L1 333 L1 435 L50 435 L50 706 L308 706 Q339 706 368.5 702.5 Q398 699 423.5 687.5 Q449 676 468 655.5 Q487 635 497 601 Q502 584 503 566 Q504 548 504 530 L504 170 Z M332 520 Q332 555 317.5 569.5 Q303 584 268 584 L216 584 L216 435 L280 435 L280 333 L216 333 L216 122 L269 122 Q304 122 318 134 Q332 146 332 182 L332 520 Z " />
<glyph glyph-name="Ntilde" unicode="&#xd1;" horiz-adv-x="562" d="M445 899 Q442 875 436 853 Q430 831 418 813.5 Q406 796 387 786 Q368 776 339 776 Q318 776 298 782 Q278 788 260.5 795 Q243 802 227.5 808 Q212 814 199 814 Q182 814 175 805.5 Q168 797 166 781 L116 781 Q119 806 124.5 828 Q130 850 141.5 866.5 Q153 883 172 892.5 Q191 902 221 902 Q241 902 259 896.5 Q277 891 294 884.5 Q311 878 326.5 872.5 Q342 867 356 867 Q389 867 394 899 L445 899 Z M340 0 L193 460 L193 0 L49 0 L49 706 L218 706 L366 248 L366 706 L512 706 L512 0 L340 0 Z " />
<glyph glyph-name="Ograve" unicode="&#xd2;" horiz-adv-x="542" d="M238 766 L89 908 L251 908 L347 766 L238 766 Z M499 222 Q499 197 497.5 172.5 Q496 148 490 123 Q480 83 458.5 57.5 Q437 32 407.5 17 Q378 2 343 -3.5 Q308 -9 270 -9 Q237 -9 204 -4.5 Q171 0 142.5 12.5 Q114 25 91.5 47 Q69 69 55 103 Q44 130 42 158.5 Q40 187 40 216 L40 507 Q40 566 56 607 Q72 648 102 673 Q132 698 175.5 709 Q219 720 274 720 Q309 720 341.5 715 Q374 710 402.5 696.5 Q431 683 453 659.5 Q475 636 487 600 Q495 578 497 552.5 Q499 527 499 504 L499 222 Z M329 536 Q329 571 314.5 582.5 Q300 594 267 594 Q235 594 223.5 581 Q212 568 212 537 L212 169 Q212 137 225 126 Q238 115 270 115 Q301 115 315 127 Q329 139 329 170 L329 536 Z " />
<glyph glyph-name="Oacute" unicode="&#xd3;" horiz-adv-x="542" d="M311 768 L205 768 L298 910 L461 910 L311 768 Z M499 222 Q499 197 497.5 172.5 Q496 148 490 123 Q480 83 458.5 57.5 Q437 32 407.5 17 Q378 2 343 -3.5 Q308 -9 270 -9 Q237 -9 204 -4.5 Q171 0 142.5 12.5 Q114 25 91.5 47 Q69 69 55 103 Q44 130 42 158.5 Q40 187 40 216 L40 507 Q40 566 56 607 Q72 648 102 673 Q132 698 175.5 709 Q219 720 274 720 Q309 720 341.5 715 Q374 710 402.5 696.5 Q431 683 453 659.5 Q475 636 487 600 Q495 578 497 552.5 Q499 527 499 504 L499 222 Z M329 536 Q329 571 314.5 582.5 Q300 594 267 594 Q235 594 223.5 581 Q212 568 212 537 L212 169 Q212 137 225 126 Q238 115 270 115 Q301 115 315 127 Q329 139 329 170 L329 536 Z " />
<glyph glyph-name="Ocircumflex" unicode="&#xd4;" horiz-adv-x="542" d="M331 765 L271 848 L213 765 L92 765 L187 907 L354 907 L461 765 L331 765 Z M499 222 Q499 197 497.5 172.5 Q496 148 490 123 Q480 83 458.5 57.5 Q437 32 407.5 17 Q378 2 343 -3.5 Q308 -9 270 -9 Q237 -9 204 -4.5 Q171 0 142.5 12.5 Q114 25 91.5 47 Q69 69 55 103 Q44 130 42 158.5 Q40 187 40 216 L40 507 Q40 566 56 607 Q72 648 102 673 Q132 698 175.5 709 Q219 720 274 720 Q309 720 341.5 715 Q374 710 402.5 696.5 Q431 683 453 659.5 Q475 636 487 600 Q495 578 497 552.5 Q499 527 499 504 L499 222 Z M329 536 Q329 571 314.5 582.5 Q300 594 267 594 Q235 594 223.5 581 Q212 568 212 537 L212 169 Q212 137 225 126 Q238 115 270 115 Q301 115 315 127 Q329 139 329 170 L329 536 Z " />
<glyph glyph-name="Otilde" unicode="&#xd5;" horiz-adv-x="542" d="M434 899 Q431 875 425 853 Q419 831 407 813.5 Q395 796 376 786 Q357 776 328 776 Q307 776 287.5 782 Q268 788 250.5 795 Q233 802 217.5 808 Q202 814 189 814 Q172 814 164.5 805 Q157 796 155 781 L105 781 Q108 806 113.5 828 Q119 850 131 866.5 Q143 883 162 892.5 Q181 902 210 902 Q230 902 248 896.5 Q266 891 283 884.5 Q300 878 316 872.5 Q332 867 346 867 Q376 867 384 899 L434 899 Z M499 222 Q499 197 497.5 172.5 Q496 148 490 123 Q480 83 458.5 57.5 Q437 32 407.5 17 Q378 2 343 -3.5 Q308 -9 270 -9 Q237 -9 204 -4.5 Q171 0 142.5 12.5 Q114 25 91.5 47 Q69 69 55 103 Q44 130 42 158.5 Q40 187 40 216 L40 507 Q40 566 56 607 Q72 648 102 673 Q132 698 175.5 709 Q219 720 274 720 Q309 720 341.5 715 Q374 710 402.5 696.5 Q431 683 453 659.5 Q475 636 487 600 Q495 578 497 552.5 Q499 527 499 504 L499 222 Z M329 536 Q329 571 314.5 582.5 Q300 594 267 594 Q235 594 223.5 581 Q212 568 212 537 L212 169 Q212 137 225 126 Q238 115 270 115 Q301 115 315 127 Q329 139 329 170 L329 536 Z " />
<glyph glyph-name="Odieresis" unicode="&#xd6;" horiz-adv-x="542" d="M298 788 L298 899 L433 899 L433 788 L298 788 Z M106 788 L106 899 L241 899 L241 788 L106 788 Z M499 222 Q499 197 497.5 172.5 Q496 148 490 123 Q480 83 458.5 57.5 Q437 32 407.5 17 Q378 2 343 -3.5 Q308 -9 270 -9 Q237 -9 204 -4.5 Q171 0 142.5 12.5 Q114 25 91.5 47 Q69 69 55 103 Q44 130 42 158.5 Q40 187 40 216 L40 507 Q40 566 56 607 Q72 648 102 673 Q132 698 175.5 709 Q219 720 274 720 Q309 720 341.5 715 Q374 710 402.5 696.5 Q431 683 453 659.5 Q475 636 487 600 Q495 578 497 552.5 Q499 527 499 504 L499 222 Z M329 536 Q329 571 314.5 582.5 Q300 594 267 594 Q235 594 223.5 581 Q212 568 212 537 L212 169 Q212 137 225 126 Q238 115 270 115 Q301 115 315 127 Q329 139 329 170 L329 536 Z " />
<glyph glyph-name="multiply" unicode="&#xd7;" horiz-adv-x="558" d="M376 110 L278 203 L199 108 L108 187 L190 286 L90 382 L190 495 L287 403 L364 496 L454 415 L375 319 L475 224 L376 110 Z " />
<glyph glyph-name="Oslash" unicode="&#xd8;" horiz-adv-x="542" d="M480 609 Q487 592 490.5 578 Q494 564 495.5 550.5 Q497 537 497.5 522 Q498 507 498 489 L498 220 Q498 195 496.5 170.5 Q495 146 489 122 Q479 82 457 56 Q435 30 405.5 15 Q376 0 341 -5.5 Q306 -11 268 -11 Q217 -11 177 -1.5 Q137 8 96 40 L57 -16 L5 19 L57 98 Q44 131 41.5 155 Q39 179 39 214 L39 505 Q39 565 54.5 605.5 Q70 646 100 671.5 Q130 697 173.5 708 Q217 719 273 719 Q322 719 362.5 709 Q403 699 441 667 L480 722 L533 687 L480 609 Z M333 537 Q333 571 317.5 582 Q302 593 270 593 Q238 593 221 582 Q204 571 204 537 L204 317 L333 507 L333 537 Z M333 390 L204 201 L204 161 Q204 102 264 102 Q302 102 317.5 113 Q333 124 333 165 L333 390 Z " />
<glyph glyph-name="Ugrave" unicode="&#xd9;" horiz-adv-x="542" d="M238 766 L89 908 L251 908 L347 766 L238 766 Z M493 199 Q493 175 491.5 151 Q490 127 484 104 Q474 68 453 45.5 Q432 23 404.5 10.5 Q377 -2 344 -6.5 Q311 -11 278 -11 Q246 -11 212 -7 Q178 -3 147.5 9 Q117 21 93.5 42.5 Q70 64 58 99 Q52 118 50 142 Q48 166 48 186 L48 706 L218 706 L218 174 Q218 145 230 128 Q242 111 274 111 Q303 111 312.5 127.5 Q322 144 322 169 L322 706 L493 706 L493 199 Z " />
<glyph glyph-name="Uacute" unicode="&#xda;" horiz-adv-x="542" d="M311 768 L205 768 L298 910 L461 910 L311 768 Z M493 199 Q493 175 491.5 151 Q490 127 484 104 Q474 68 453 45.5 Q432 23 404.5 10.5 Q377 -2 344 -6.5 Q311 -11 278 -11 Q246 -11 212 -7 Q178 -3 147.5 9 Q117 21 93.5 42.5 Q70 64 58 99 Q52 118 50 142 Q48 166 48 186 L48 706 L218 706 L218 174 Q218 145 230 128 Q242 111 274 111 Q303 111 312.5 127.5 Q322 144 322 169 L322 706 L493 706 L493 199 Z " />
<glyph glyph-name="Ucircumflex" unicode="&#xdb;" horiz-adv-x="542" d="M331 765 L271 848 L213 765 L92 765 L187 907 L354 907 L461 765 L331 765 Z M493 199 Q493 175 491.5 151 Q490 127 484 104 Q474 68 453 45.5 Q432 23 404.5 10.5 Q377 -2 344 -6.5 Q311 -11 278 -11 Q246 -11 212 -7 Q178 -3 147.5 9 Q117 21 93.5 42.5 Q70 64 58 99 Q52 118 50 142 Q48 166 48 186 L48 706 L218 706 L218 174 Q218 145 230 128 Q242 111 274 111 Q303 111 312.5 127.5 Q322 144 322 169 L322 706 L493 706 L493 199 Z " />
<glyph glyph-name="Udieresis" unicode="&#xdc;" horiz-adv-x="542" d="M299 785 L299 897 L433 897 L433 785 L299 785 Z M107 785 L107 897 L241 897 L241 785 L107 785 Z M493 199 Q493 175 491.5 151 Q490 127 484 104 Q474 68 453 45.5 Q432 23 404.5 10.5 Q377 -2 344 -6.5 Q311 -11 278 -11 Q246 -11 212 -7 Q178 -3 147.5 9 Q117 21 93.5 42.5 Q70 64 58 99 Q52 118 50 142 Q48 166 48 186 L48 706 L218 706 L218 174 Q218 145 230 128 Q242 111 274 111 Q303 111 312.5 127.5 Q322 144 322 169 L322 706 L493 706 L493 199 Z " />
<glyph glyph-name="Yacute" unicode="&#xdd;" horiz-adv-x="521" d="M300 768 L194 768 L288 910 L451 910 L300 768 Z M339 248 L339 0 L172 0 L172 248 L4 706 L172 706 L258 394 L344 706 L515 706 L339 248 Z " />
<glyph glyph-name="Thorn" unicode="&#xde;" horiz-adv-x="521" d="M500 292 Q500 249 491.5 220 Q483 191 464.5 173 Q446 155 416.5 147.5 Q387 140 344 140 L220 140 L220 0 L50 0 L50 706 L220 706 L220 589 L335 589 Q376 589 407 582.5 Q438 576 458.5 560 Q479 544 489.5 516 Q500 488 500 444 L500 292 Z M341 380 Q341 406 341 423 Q341 440 335.5 450 Q330 460 316 464 Q302 468 275 468 L220 468 L220 265 Q236 265 251 264.5 Q266 264 282 264 Q305 264 317 269.5 Q329 275 334 285 Q339 295 340 309.5 Q341 324 341 343 L341 380 Z " />
<glyph glyph-name="germandbls" unicode="&#xdf;" horiz-adv-x="521" d="M486 195 Q486 184 486 167.5 Q486 151 485.5 134 Q485 117 483.5 101.5 Q482 86 478 76 Q469 52 454 37.5 Q439 23 419.5 14.5 Q400 6 378 3 Q356 0 333 0 Q311 0 289 2.5 Q267 5 245 7 L245 85 Q255 81 262 80 Q269 79 279 79 Q325 79 325 126 L325 299 Q325 320 319 330.5 Q313 341 302.5 345.5 Q292 350 278 350 Q264 350 248 350 L248 447 Q253 446 258 445.5 Q263 445 268 445 Q291 445 300 456 Q309 467 309 488 L309 562 Q309 588 295 600.5 Q281 613 255 613 Q222 613 212 596 Q202 579 202 550 L202 0 L45 0 L45 549 Q45 569 48 594.5 Q51 620 61 638 Q75 663 96.5 678.5 Q118 694 143.5 703 Q169 712 197 715 Q225 718 250 718 Q277 718 307.5 714.5 Q338 711 365.5 701 Q393 691 416 673.5 Q439 656 452 628 Q463 605 464.5 576.5 Q466 548 466 523 Q466 498 465 478 Q464 458 458 442 Q452 426 438.5 413.5 Q425 401 400 390 Q414 385 427 379.5 Q440 374 451 364 Q466 351 473.5 329.5 Q481 308 484 284.5 Q487 261 486.5 237.5 Q486 214 486 195 Z " />
<glyph glyph-name="agrave" unicode="&#xe0;" horiz-adv-x="500" d="M231 609 L91 736 L265 736 L359 609 L231 609 Z M291 0 L291 45 Q259 18 231 1.5 Q203 -15 158 -15 Q88 -15 59.5 22 Q31 59 31 123 Q31 171 39.5 200.5 Q48 230 67 249 Q86 268 115 281.5 Q144 295 184 310 Q211 321 238 331.5 Q265 342 291 355 L291 387 Q291 411 280 424.5 Q269 438 243 438 Q224 438 214.5 430 Q205 422 201.5 409.5 Q198 397 198.5 382.5 Q199 368 199 355 L46 355 Q45 361 45 367 Q45 373 45 379 Q45 402 47.5 424.5 Q50 447 61 467 Q74 491 94 506.5 Q114 522 138.5 530.5 Q163 539 189 542.5 Q215 546 240 546 Q269 546 301 542.5 Q333 539 361.5 528 Q390 517 412 497 Q434 477 444 445 Q449 429 449.5 414.5 Q450 400 450 383 L450 83 Q450 57 453 39 Q456 21 473 0 L291 0 Z M291 267 Q279 261 267 255 Q255 249 244 242 Q225 231 215 222.5 Q205 214 200.5 203.5 Q196 193 195.5 179 Q195 165 195 144 Q195 122 200 104.5 Q205 87 233 87 Q270 87 280.5 105 Q291 123 291 156 L291 267 Z " />
<glyph glyph-name="aacute" unicode="&#xe1;" horiz-adv-x="500" d="M267 610 L150 610 L236 735 L404 735 L267 610 Z M291 0 L291 45 Q259 18 231 1.5 Q203 -15 158 -15 Q88 -15 59.5 22 Q31 59 31 123 Q31 171 39.5 200.5 Q48 230 67 249 Q86 268 115 281.5 Q144 295 184 310 Q211 321 238 331.5 Q265 342 291 355 L291 387 Q291 411 280 424.5 Q269 438 243 438 Q224 438 214.5 430 Q205 422 201.5 409.5 Q198 397 198.5 382.5 Q199 368 199 355 L46 355 Q45 361 45 367 Q45 373 45 379 Q45 402 47.5 424.5 Q50 447 61 467 Q74 491 94 506.5 Q114 522 138.5 530.5 Q163 539 189 542.5 Q215 546 240 546 Q269 546 301 542.5 Q333 539 361.5 528 Q390 517 412 497 Q434 477 444 445 Q449 429 449.5 414.5 Q450 400 450 383 L450 83 Q450 57 453 39 Q456 21 473 0 L291 0 Z M291 267 Q279 261 267 255 Q255 249 244 242 Q225 231 215 222.5 Q205 214 200.5 203.5 Q196 193 195.5 179 Q195 165 195 144 Q195 122 200 104.5 Q205 87 233 87 Q270 87 280.5 105 Q291 123 291 156 L291 267 Z " />
<glyph glyph-name="acircumflex" unicode="&#xe2;" horiz-adv-x="500" d="M295 612 L249 671 L206 612 L87 612 L186 736 L312 736 L413 612 L295 612 Z M291 0 L291 45 Q259 18 231 1.5 Q203 -15 158 -15 Q88 -15 59.5 22 Q31 59 31 123 Q31 171 39.5 200.5 Q48 230 67 249 Q86 268 115 281.5 Q144 295 184 310 Q211 321 238 331.5 Q265 342 291 355 L291 387 Q291 411 280 424.5 Q269 438 243 438 Q224 438 214.5 430 Q205 422 201.5 409.5 Q198 397 198.5 382.5 Q199 368 199 355 L46 355 Q45 361 45 367 Q45 373 45 379 Q45 402 47.5 424.5 Q50 447 61 467 Q74 491 94 506.5 Q114 522 138.5 530.5 Q163 539 189 542.5 Q215 546 240 546 Q269 546 301 542.5 Q333 539 361.5 528 Q390 517 412 497 Q434 477 444 445 Q449 429 449.5 414.5 Q450 400 450 383 L450 83 Q450 57 453 39 Q456 21 473 0 L291 0 Z M291 267 Q279 261 267 255 Q255 249 244 242 Q225 231 215 222.5 Q205 214 200.5 203.5 Q196 193 195.5 179 Q195 165 195 144 Q195 122 200 104.5 Q205 87 233 87 Q270 87 280.5 105 Q291 123 291 156 L291 267 Z " />
<glyph glyph-name="atilde" unicode="&#xe3;" horiz-adv-x="500" d="M413 739 Q411 715 404.5 693 Q398 671 385.5 654 Q373 637 353.5 627 Q334 617 307 617 Q286 617 266.5 623 Q247 629 229 635.5 Q211 642 195.5 648 Q180 654 168 654 Q151 654 143.5 645.5 Q136 637 135 621 L84 621 Q87 646 92.5 668 Q98 690 110 706.5 Q122 723 141 732.5 Q160 742 189 742 Q210 742 228 736.5 Q246 731 263 724.5 Q280 718 295 712.5 Q310 707 325 707 Q342 707 350.5 715.5 Q359 724 363 739 L413 739 Z M291 0 L291 45 Q259 18 231 1.5 Q203 -15 158 -15 Q88 -15 59.5 22 Q31 59 31 123 Q31 171 39.5 200.5 Q48 230 67 249 Q86 268 115 281.5 Q144 295 184 310 Q211 321 238 331.5 Q265 342 291 355 L291 387 Q291 411 280 424.5 Q269 438 243 438 Q224 438 214.5 430 Q205 422 201.5 409.5 Q198 397 198.5 382.5 Q199 368 199 355 L46 355 Q45 361 45 367 Q45 373 45 379 Q45 402 47.5 424.5 Q50 447 61 467 Q74 491 94 506.5 Q114 522 138.5 530.5 Q163 539 189 542.5 Q215 546 240 546 Q269 546 301 542.5 Q333 539 361.5 528 Q390 517 412 497 Q434 477 444 445 Q449 429 449.5 414.5 Q450 400 450 383 L450 83 Q450 57 453 39 Q456 21 473 0 L291 0 Z M291 267 Q279 261 267 255 Q255 249 244 242 Q225 231 215 222.5 Q205 214 200.5 203.5 Q196 193 195.5 179 Q195 165 195 144 Q195 122 200 104.5 Q205 87 233 87 Q270 87 280.5 105 Q291 123 291 156 L291 267 Z " />
<glyph glyph-name="adieresis" unicode="&#xe4;" horiz-adv-x="500" d="M300 609 L300 733 L441 733 L441 609 L300 609 Z M77 609 L77 733 L220 733 L220 609 L77 609 Z M291 0 L291 45 Q259 18 231 1.5 Q203 -15 158 -15 Q88 -15 59.5 22 Q31 59 31 123 Q31 171 39.5 200.5 Q48 230 67 249 Q86 268 115 281.5 Q144 295 184 310 Q211 321 238 331.5 Q265 342 291 355 L291 387 Q291 411 280 424.5 Q269 438 243 438 Q224 438 214.5 430 Q205 422 201.5 409.5 Q198 397 198.5 382.5 Q199 368 199 355 L46 355 Q45 361 45 367 Q45 373 45 379 Q45 402 47.5 424.5 Q50 447 61 467 Q74 491 94 506.5 Q114 522 138.5 530.5 Q163 539 189 542.5 Q215 546 240 546 Q269 546 301 542.5 Q333 539 361.5 528 Q390 517 412 497 Q434 477 444 445 Q449 429 449.5 414.5 Q450 400 450 383 L450 83 Q450 57 453 39 Q456 21 473 0 L291 0 Z M291 267 Q279 261 267 255 Q255 249 244 242 Q225 231 215 222.5 Q205 214 200.5 203.5 Q196 193 195.5 179 Q195 165 195 144 Q195 122 200 104.5 Q205 87 233 87 Q270 87 280.5 105 Q291 123 291 156 L291 267 Z " />
<glyph glyph-name="aring" unicode="&#xe5;" horiz-adv-x="500" d="M358 665 Q358 645 350 627 Q342 609 328.5 595.5 Q315 582 297 574 Q279 566 259 566 Q239 566 221 574 Q203 582 189.5 595.5 Q176 609 168 627 Q160 645 160 665 Q160 685 168 703 Q176 721 189.5 734.5 Q203 748 221 756 Q239 764 259 764 Q279 764 297 756 Q315 748 328.5 734.5 Q342 721 350 703 Q358 685 358 665 Z M291 0 L291 45 Q259 18 231 1.5 Q203 -15 158 -15 Q88 -15 59.5 22 Q31 59 31 123 Q31 171 39.5 200.5 Q48 230 67 249 Q86 268 115 281.5 Q144 295 184 310 Q211 321 238 331.5 Q265 342 291 355 L291 387 Q291 411 280 424.5 Q269 438 243 438 Q224 438 214.5 430 Q205 422 201.5 409.5 Q198 397 198.5 382.5 Q199 368 199 355 L46 355 Q45 361 45 367 Q45 373 45 379 Q45 402 47.5 424.5 Q50 447 61 467 Q74 491 94 506.5 Q114 522 138.5 530.5 Q163 539 189 542.5 Q215 546 240 546 Q269 546 301 542.5 Q333 539 361.5 528 Q390 517 412 497 Q434 477 444 445 Q449 429 449.5 414.5 Q450 400 450 383 L450 83 Q450 57 453 39 Q456 21 473 0 L291 0 Z M296 665 Q296 680 285 691 Q274 702 259 702 Q244 702 233 691 Q222 680 222 665 Q222 649 232.5 638.5 Q243 628 259 628 Q274 628 285 639 Q296 650 296 665 Z M291 267 Q279 261 267 255 Q255 249 244 242 Q225 231 215 222.5 Q205 214 200.5 203.5 Q196 193 195.5 179 Q195 165 195 144 Q195 122 200 104.5 Q205 87 233 87 Q270 87 280.5 105 Q291 123 291 156 L291 267 Z " />
<glyph glyph-name="ae" unicode="&#xe6;" horiz-adv-x="729" d="M693 149 Q693 129 691 106.5 Q689 84 679 66 Q667 43 644 27.5 Q621 12 594 2.5 Q567 -7 538.5 -11 Q510 -15 487 -15 Q461 -15 434 -11 Q407 -7 382.5 2 Q358 11 336.5 26 Q315 41 300 64 Q285 45 270.5 30.5 Q256 16 240 5.5 Q224 -5 204.5 -10.5 Q185 -16 159 -16 Q119 -16 94 -4.5 Q69 7 55 27.5 Q41 48 36.5 77 Q32 106 32 141 Q32 184 44.5 211.5 Q57 239 79 257.5 Q101 276 130.5 289 Q160 302 194 316 Q217 326 240.5 336 Q264 346 287 356 L287 395 Q287 418 278 430 Q269 442 244 442 Q224 442 214.5 434 Q205 426 202 413.5 Q199 401 199.5 385.5 Q200 370 200 356 L49 356 L49 365 Q49 388 50.5 413.5 Q52 439 62 460 Q73 484 92.5 500.5 Q112 517 136 527 Q160 537 186 541.5 Q212 546 237 546 Q278 546 306.5 537.5 Q335 529 367 506 Q398 530 429.5 538.5 Q461 547 500 547 Q602 547 647 501.5 Q692 456 692 358 L692 234 L444 234 L444 134 Q444 111 453.5 98.5 Q463 86 489 86 Q511 86 521 94 Q531 102 534.5 114.5 Q538 127 537 143 Q536 159 536 175 L692 175 Q693 168 693 162 Q693 156 693 149 Z M536 397 Q536 421 525.5 432 Q515 443 491 443 Q465 443 454.5 431.5 Q444 420 444 396 L444 329 L536 329 L536 397 Z M287 265 Q279 261 267.5 255 Q256 249 244 242 Q232 235 222 227.5 Q212 220 206 213 Q196 200 194.5 187.5 Q193 175 193 160 Q193 147 194 135 Q195 123 199 113.5 Q203 104 212.5 98.5 Q222 93 238 93 Q266 93 276.5 105 Q287 117 287 144 L287 265 Z " />
<glyph glyph-name="ccedilla" unicode="&#xe7;" horiz-adv-x="458" d="M439 139 Q439 120 436.5 102 Q434 84 426 67 Q416 47 398.5 31.5 Q381 16 360 6 Q339 -4 316 -9 Q293 -14 272 -14 L235 -58 Q271 -61 298 -77.5 Q325 -94 325 -136 Q325 -163 311.5 -181.5 Q298 -200 277 -212 Q256 -224 231 -229 Q206 -234 184 -234 Q176 -234 168 -234 Q160 -234 152 -233 L134 -185 Q142 -186 148.5 -186.5 Q155 -187 163 -187 Q184 -187 203.5 -176 Q223 -165 223 -141 Q223 -122 210 -114.5 Q197 -107 180 -107 Q168 -107 159.5 -109.5 Q151 -112 140 -118 L123 -83 L187 -11 Q110 0 73 35 Q36 70 36 148 L36 374 Q36 425 50.5 458 Q65 491 92 510.5 Q119 530 156.5 537.5 Q194 545 240 545 Q277 545 312.5 538 Q348 531 376 514 Q404 497 421.5 468.5 Q439 440 439 397 L439 328 L281 328 L281 388 Q281 409 273 423.5 Q265 438 240 438 Q217 438 206 425.5 Q195 413 195 391 L195 134 Q195 88 239 88 Q263 88 272 100 Q281 112 281 134 L281 187 L439 187 L439 139 Z " />
<glyph glyph-name="egrave" unicode="&#xe8;" horiz-adv-x="479" d="M211 609 L71 736 L244 736 L339 609 L211 609 Z M446 162 Q446 138 443 113 Q440 88 429 66 Q416 41 395.5 25.5 Q375 10 350.5 1 Q326 -8 299 -11.5 Q272 -15 246 -15 Q217 -15 184.5 -10.5 Q152 -6 125 7 Q97 20 80 37 Q63 54 53.5 75 Q44 96 40.5 121 Q37 146 37 174 L37 339 Q37 397 48 436.5 Q59 476 83.5 500.5 Q108 525 147.5 535.5 Q187 546 245 546 Q271 546 298.5 542.5 Q326 539 351 529.5 Q376 520 396 503 Q416 486 428 460 Q436 443 438 421 Q440 399 440 379 L440 230 L198 230 L198 139 Q198 117 209 104.5 Q220 92 243 92 Q264 92 274.5 99.5 Q285 107 289 119 Q293 131 293 146 Q293 161 293 176 L446 176 L446 162 Z M290 393 Q290 416 280 430 Q270 444 245 444 Q219 444 208.5 429 Q198 414 198 391 L198 331 L290 331 L290 393 Z " />
<glyph glyph-name="eacute" unicode="&#xe9;" horiz-adv-x="479" d="M267 610 L150 610 L236 735 L404 735 L267 610 Z M446 162 Q446 138 443 113 Q440 88 429 66 Q416 41 395.5 25.5 Q375 10 350.5 1 Q326 -8 299 -11.5 Q272 -15 246 -15 Q217 -15 184.5 -10.5 Q152 -6 125 7 Q97 20 80 37 Q63 54 53.5 75 Q44 96 40.5 121 Q37 146 37 174 L37 339 Q37 397 48 436.5 Q59 476 83.5 500.5 Q108 525 147.5 535.5 Q187 546 245 546 Q271 546 298.5 542.5 Q326 539 351 529.5 Q376 520 396 503 Q416 486 428 460 Q436 443 438 421 Q440 399 440 379 L440 230 L198 230 L198 139 Q198 117 209 104.5 Q220 92 243 92 Q264 92 274.5 99.5 Q285 107 289 119 Q293 131 293 146 Q293 161 293 176 L446 176 L446 162 Z M290 393 Q290 416 280 430 Q270 444 245 444 Q219 444 208.5 429 Q198 414 198 391 L198 331 L290 331 L290 393 Z " />
<glyph glyph-name="ecircumflex" unicode="&#xea;" horiz-adv-x="479" d="M285 612 L239 671 L196 612 L77 612 L175 736 L301 736 L403 612 L285 612 Z M446 162 Q446 138 443 113 Q440 88 429 66 Q416 41 395.5 25.5 Q375 10 350.5 1 Q326 -8 299 -11.5 Q272 -15 246 -15 Q217 -15 184.5 -10.5 Q152 -6 125 7 Q97 20 80 37 Q63 54 53.5 75 Q44 96 40.5 121 Q37 146 37 174 L37 339 Q37 397 48 436.5 Q59 476 83.5 500.5 Q108 525 147.5 535.5 Q187 546 245 546 Q271 546 298.5 542.5 Q326 539 351 529.5 Q376 520 396 503 Q416 486 428 460 Q436 443 438 421 Q440 399 440 379 L440 230 L198 230 L198 139 Q198 117 209 104.5 Q220 92 243 92 Q264 92 274.5 99.5 Q285 107 289 119 Q293 131 293 146 Q293 161 293 176 L446 176 L446 162 Z M290 393 Q290 416 280 430 Q270 444 245 444 Q219 444 208.5 429 Q198 414 198 391 L198 331 L290 331 L290 393 Z " />
<glyph glyph-name="edieresis" unicode="&#xeb;" horiz-adv-x="479" d="M279 609 L279 733 L420 733 L420 609 L279 609 Z M56 609 L56 733 L200 733 L200 609 L56 609 Z M446 162 Q446 138 443 113 Q440 88 429 66 Q416 41 395.5 25.5 Q375 10 350.5 1 Q326 -8 299 -11.5 Q272 -15 246 -15 Q217 -15 184.5 -10.5 Q152 -6 125 7 Q97 20 80 37 Q63 54 53.5 75 Q44 96 40.5 121 Q37 146 37 174 L37 339 Q37 397 48 436.5 Q59 476 83.5 500.5 Q108 525 147.5 535.5 Q187 546 245 546 Q271 546 298.5 542.5 Q326 539 351 529.5 Q376 520 396 503 Q416 486 428 460 Q436 443 438 421 Q440 399 440 379 L440 230 L198 230 L198 139 Q198 117 209 104.5 Q220 92 243 92 Q264 92 274.5 99.5 Q285 107 289 119 Q293 131 293 146 Q293 161 293 176 L446 176 L446 162 Z M290 393 Q290 416 280 430 Q270 444 245 444 Q219 444 208.5 429 Q198 414 198 391 L198 331 L290 331 L290 393 Z " />
<glyph glyph-name="igrave" unicode="&#xec;" horiz-adv-x="250" d="M106 609 L-34 736 L140 736 L235 609 L106 609 Z M45 0 L45 531 L204 531 L204 0 L45 0 Z " />
<glyph glyph-name="iacute" unicode="&#xed;" horiz-adv-x="250" d="M142 610 L25 610 L111 735 L279 735 L142 610 Z M45 0 L45 531 L204 531 L204 0 L45 0 Z " />
<glyph glyph-name="icircumflex" unicode="&#xee;" horiz-adv-x="250" d="M170 612 L124 671 L81 612 L-38 612 L61 736 L187 736 L288 612 L170 612 Z M45 0 L45 531 L204 531 L204 0 L45 0 Z " />
<glyph glyph-name="idieresis" unicode="&#xef;" horiz-adv-x="250" d="M164 609 L164 733 L306 733 L306 609 L164 609 Z M-59 609 L-59 733 L85 733 L85 609 L-59 609 Z M45 0 L45 531 L204 531 L204 0 L45 0 Z " />
<glyph glyph-name="eth" unicode="&#xf0;" horiz-adv-x="479" d="M442 160 Q442 140 440 119 Q438 98 431 80 Q420 51 399 32 Q378 13 352 2.5 Q326 -8 297 -12 Q268 -16 240 -16 Q215 -16 187.5 -12.5 Q160 -9 135 0.5 Q110 10 88.5 26 Q67 42 54 66 Q42 89 39 115 Q36 141 36 167 L36 372 Q36 417 47 453.5 Q58 490 94 519 Q111 533 131.5 539 Q152 545 174 545 Q213 545 236.5 530 Q260 515 280 483 Q273 517 263.5 541 Q254 565 234 594 L112 562 L92 618 L191 644 Q177 658 163 669 Q149 680 134 691 L280 730 Q294 721 309.5 708.5 Q325 696 336 683 L404 702 L426 649 L376 635 Q386 623 393.5 609 Q401 595 407 581 Q431 528 436.5 481.5 Q442 435 442 377 L442 160 Z M285 376 L285 384 Q285 406 275 421 Q265 436 240 436 Q214 436 203.5 419.5 Q193 403 193 380 L193 149 Q193 125 203 111 Q213 97 240 97 Q269 97 277 115.5 Q285 134 285 157 L285 376 Z " />
<glyph glyph-name="ntilde" unicode="&#xf1;" horiz-adv-x="500" d="M413 739 Q411 715 404.5 693 Q398 671 385.5 654 Q373 637 353.5 627 Q334 617 307 617 Q286 617 266.5 623 Q247 629 229 635.5 Q211 642 195.5 648 Q180 654 168 654 Q151 654 143.5 645.5 Q136 637 135 621 L84 621 Q87 646 92.5 668 Q98 690 110 706.5 Q122 723 141 732.5 Q160 742 189 742 Q210 742 228 736.5 Q246 731 263 724.5 Q280 718 295 712.5 Q310 707 325 707 Q342 707 350.5 715.5 Q359 724 363 739 L413 739 Z M299 0 L299 378 Q299 402 290 419 Q281 436 252 436 Q224 436 214 420.5 Q204 405 204 381 L204 0 L45 0 L45 531 L204 531 L204 482 Q228 511 256.5 528.5 Q285 546 324 546 Q368 546 402 522 Q437 497 447 463 Q457 429 457 389 L457 0 L299 0 Z " />
<glyph glyph-name="ograve" unicode="&#xf2;" horiz-adv-x="479" d="M221 609 L81 736 L255 736 L349 609 L221 609 Z M442 167 Q442 146 440.5 123.5 Q439 101 431 81 Q419 51 398.5 32.5 Q378 14 352 3 Q326 -8 297.5 -12 Q269 -16 240 -16 Q215 -16 187.5 -12.5 Q160 -9 134.5 0.5 Q109 10 88 26 Q67 42 54 66 Q42 89 39 114.5 Q36 140 36 166 L36 366 Q36 390 39 415.5 Q42 441 53 463 Q65 488 86 504 Q107 520 132.5 529 Q158 538 185.5 541.5 Q213 545 238 545 Q280 545 317 537.5 Q354 530 381.5 511.5 Q409 493 425.5 461.5 Q442 430 442 383 L442 167 Z M285 376 L285 384 Q285 406 275 421 Q265 436 240 436 Q214 436 203.5 419.5 Q193 403 193 380 L193 149 Q193 125 203 111 Q213 97 240 97 Q269 97 277 115.5 Q285 134 285 157 L285 376 Z " />
<glyph glyph-name="oacute" unicode="&#xf3;" horiz-adv-x="479" d="M257 610 L140 610 L226 735 L394 735 L257 610 Z M442 167 Q442 146 440.5 123.5 Q439 101 431 81 Q419 51 398.5 32.5 Q378 14 352 3 Q326 -8 297.5 -12 Q269 -16 240 -16 Q215 -16 187.5 -12.5 Q160 -9 134.5 0.5 Q109 10 88 26 Q67 42 54 66 Q42 89 39 114.5 Q36 140 36 166 L36 366 Q36 390 39 415.5 Q42 441 53 463 Q65 488 86 504 Q107 520 132.5 529 Q158 538 185.5 541.5 Q213 545 238 545 Q280 545 317 537.5 Q354 530 381.5 511.5 Q409 493 425.5 461.5 Q442 430 442 383 L442 167 Z M285 376 L285 384 Q285 406 275 421 Q265 436 240 436 Q214 436 203.5 419.5 Q193 403 193 380 L193 149 Q193 125 203 111 Q213 97 240 97 Q269 97 277 115.5 Q285 134 285 157 L285 376 Z " />
<glyph glyph-name="ocircumflex" unicode="&#xf4;" horiz-adv-x="479" d="M285 612 L239 671 L196 612 L77 612 L175 736 L301 736 L403 612 L285 612 Z M442 167 Q442 146 440.5 123.5 Q439 101 431 81 Q419 51 398.5 32.5 Q378 14 352 3 Q326 -8 297.5 -12 Q269 -16 240 -16 Q215 -16 187.5 -12.5 Q160 -9 134.5 0.5 Q109 10 88 26 Q67 42 54 66 Q42 89 39 114.5 Q36 140 36 166 L36 366 Q36 390 39 415.5 Q42 441 53 463 Q65 488 86 504 Q107 520 132.5 529 Q158 538 185.5 541.5 Q213 545 238 545 Q280 545 317 537.5 Q354 530 381.5 511.5 Q409 493 425.5 461.5 Q442 430 442 383 L442 167 Z M285 376 L285 384 Q285 406 275 421 Q265 436 240 436 Q214 436 203.5 419.5 Q193 403 193 380 L193 149 Q193 125 203 111 Q213 97 240 97 Q269 97 277 115.5 Q285 134 285 157 L285 376 Z " />
<glyph glyph-name="otilde" unicode="&#xf5;" horiz-adv-x="479" d="M403 739 Q400 715 393.5 693 Q387 671 375.5 654 Q364 637 345 627 Q326 617 297 617 Q276 617 256.5 623 Q237 629 219 635.5 Q201 642 185.5 648 Q170 654 158 654 Q140 654 133 645.5 Q126 637 124 621 L74 621 Q77 646 82.5 668 Q88 690 100 706.5 Q112 723 131 732.5 Q150 742 179 742 Q199 742 217 736.5 Q235 731 251.5 724.5 Q268 718 284 712.5 Q300 707 315 707 Q347 707 352 739 L403 739 Z M442 167 Q442 146 440.5 123.5 Q439 101 431 81 Q419 51 398.5 32.5 Q378 14 352 3 Q326 -8 297.5 -12 Q269 -16 240 -16 Q215 -16 187.5 -12.5 Q160 -9 134.5 0.5 Q109 10 88 26 Q67 42 54 66 Q42 89 39 114.5 Q36 140 36 166 L36 366 Q36 390 39 415.5 Q42 441 53 463 Q65 488 86 504 Q107 520 132.5 529 Q158 538 185.5 541.5 Q213 545 238 545 Q280 545 317 537.5 Q354 530 381.5 511.5 Q409 493 425.5 461.5 Q442 430 442 383 L442 167 Z M285 376 L285 384 Q285 406 275 421 Q265 436 240 436 Q214 436 203.5 419.5 Q193 403 193 380 L193 149 Q193 125 203 111 Q213 97 240 97 Q269 97 277 115.5 Q285 134 285 157 L285 376 Z " />
<glyph glyph-name="odieresis" unicode="&#xf6;" horiz-adv-x="479" d="M279 612 L279 736 L421 736 L421 612 L279 612 Z M56 612 L56 736 L200 736 L200 612 L56 612 Z M442 167 Q442 146 440.5 123.5 Q439 101 431 81 Q419 51 398.5 32.5 Q378 14 352 3 Q326 -8 297.5 -12 Q269 -16 240 -16 Q215 -16 187.5 -12.5 Q160 -9 134.5 0.5 Q109 10 88 26 Q67 42 54 66 Q42 89 39 114.5 Q36 140 36 166 L36 366 Q36 390 39 415.5 Q42 441 53 463 Q65 488 86 504 Q107 520 132.5 529 Q158 538 185.5 541.5 Q213 545 238 545 Q280 545 317 537.5 Q354 530 381.5 511.5 Q409 493 425.5 461.5 Q442 430 442 383 L442 167 Z M285 376 L285 384 Q285 406 275 421 Q265 436 240 436 Q214 436 203.5 419.5 Q193 403 193 380 L193 149 Q193 125 203 111 Q213 97 240 97 Q269 97 277 115.5 Q285 134 285 157 L285 376 Z " />
<glyph glyph-name="divide" unicode="&#xf7;" horiz-adv-x="559" d="M211 417 L211 567 L350 567 L350 417 L211 417 Z M70 237 L70 363 L489 363 L489 237 L70 237 Z M211 32 L211 183 L350 183 L350 32 L211 32 Z " />
<glyph glyph-name="oslash" unicode="&#xf8;" horiz-adv-x="479" d="M421 476 Q436 450 439.5 429 Q443 408 443 379 L443 185 Q443 159 441 132.5 Q439 106 429 82 Q417 54 397 35 Q377 16 351.5 5.5 Q326 -5 297 -9.5 Q268 -14 240 -14 Q204 -14 167.5 -7 Q131 0 100 20 L70 -22 L18 14 L56 69 Q49 84 45 96 Q41 108 38.5 119.5 Q36 131 35.5 144 Q35 157 35 174 L35 383 Q35 430 51.5 461.5 Q68 493 96.5 512 Q125 531 162 539.5 Q199 548 239 548 Q276 548 308 541.5 Q340 535 373 519 L404 562 L456 526 L421 476 Z M290 401 Q283 441 240 441 Q211 441 199 424 Q187 407 187 381 L187 254 L290 401 Z M290 292 L187 141 Q191 116 201 105 Q211 94 239 94 Q266 94 278 109 Q290 124 290 150 L290 292 Z " />
<glyph glyph-name="ugrave" unicode="&#xf9;" horiz-adv-x="500" d="M231 609 L91 736 L265 736 L359 609 L231 609 Z M296 0 L296 58 Q274 22 246.5 4 Q219 -14 175 -14 Q154 -14 133 -9 Q112 -4 95 9 Q58 36 50 72.5 Q42 109 42 152 L42 531 L200 531 L200 157 Q200 108 247 108 Q275 108 285.5 122.5 Q296 137 296 162 L296 531 L454 531 L454 0 L296 0 Z " />
<glyph glyph-name="uacute" unicode="&#xfa;" horiz-adv-x="500" d="M267 610 L150 610 L236 735 L404 735 L267 610 Z M296 0 L296 58 Q274 22 246.5 4 Q219 -14 175 -14 Q154 -14 133 -9 Q112 -4 95 9 Q58 36 50 72.5 Q42 109 42 152 L42 531 L200 531 L200 157 Q200 108 247 108 Q275 108 285.5 122.5 Q296 137 296 162 L296 531 L454 531 L454 0 L296 0 Z " />
<glyph glyph-name="ucircumflex" unicode="&#xfb;" horiz-adv-x="500" d="M295 612 L249 671 L206 612 L87 612 L186 736 L312 736 L413 612 L295 612 Z M296 0 L296 58 Q274 22 246.5 4 Q219 -14 175 -14 Q154 -14 133 -9 Q112 -4 95 9 Q58 36 50 72.5 Q42 109 42 152 L42 531 L200 531 L200 157 Q200 108 247 108 Q275 108 285.5 122.5 Q296 137 296 162 L296 531 L454 531 L454 0 L296 0 Z " />
<glyph glyph-name="udieresis" unicode="&#xfc;" horiz-adv-x="500" d="M285 611 L285 735 L426 735 L426 611 L285 611 Z M62 611 L62 735 L206 735 L206 611 L62 611 Z M296 0 L296 58 Q274 22 246.5 4 Q219 -14 175 -14 Q154 -14 133 -9 Q112 -4 95 9 Q58 36 50 72.5 Q42 109 42 152 L42 531 L200 531 L200 157 Q200 108 247 108 Q275 108 285.5 122.5 Q296 137 296 162 L296 531 L454 531 L454 0 L296 0 Z " />
<glyph glyph-name="yacute" unicode="&#xfd;" horiz-adv-x="437" d="M236 610 L119 610 L205 735 L373 735 L236 610 Z M309 -15 Q301 -50 292 -78.5 Q283 -107 267.5 -128.5 Q252 -150 227.5 -164 Q203 -178 164 -185 Q144 -189 124 -189.5 Q104 -190 84 -190 L7 -190 L7 -87 L77 -87 Q109 -87 121 -76 Q133 -65 136 -35 L-2 531 L154 531 L218 114 L277 531 L436 531 L309 -15 Z " />
<glyph glyph-name="thorn" unicode="&#xfe;" horiz-adv-x="500" d="M465 161 Q465 125 460 93.5 Q455 62 440.5 38 Q426 14 400 0 Q374 -14 332 -14 Q287 -14 259.5 1 Q232 16 205 49 L205 -187 L46 -187 L46 706 L205 706 L205 474 Q231 512 259.5 529 Q288 546 336 546 Q378 546 410 527.5 Q442 509 456 468 Q461 453 462.5 437 Q464 421 464 405 Q464 344 464.5 283 Q465 222 465 161 Z M307 374 Q307 400 295 414.5 Q283 429 255 429 Q225 429 215 412 Q205 395 205 369 L205 165 L205 158 Q205 133 216.5 116 Q228 99 256 99 Q284 99 295.5 115.5 Q307 132 307 158 L307 374 Z " />
<glyph glyph-name="ydieresis" unicode="&#xff;" horiz-adv-x="437" d="M258 609 L258 733 L399 733 L399 609 L258 609 Z M35 609 L35 733 L179 733 L179 609 L35 609 Z M309 -15 Q301 -50 292 -78.5 Q283 -107 267.5 -128.5 Q252 -150 227.5 -164 Q203 -178 164 -185 Q144 -189 124 -189.5 Q104 -190 84 -190 L7 -190 L7 -87 L77 -87 Q109 -87 121 -76 Q133 -65 136 -35 L-2 531 L154 531 L218 114 L277 531 L436 531 L309 -15 Z " />
<glyph glyph-name="dotlessi" unicode="&#x131;" horiz-adv-x="250" d="M45 0 L45 531 L204 531 L204 0 L45 0 Z " />
<glyph glyph-name="Lslash" unicode="&#x141;" horiz-adv-x="417" d="M50 0 L50 235 L1 199 L1 295 L50 331 L50 706 L222 706 L222 459 L339 546 L339 447 L222 361 L222 125 L398 125 L398 0 L50 0 Z " />
<glyph glyph-name="lslash" unicode="&#x142;" horiz-adv-x="250" d="M205 426 L205 0 L45 0 L45 268 L0 224 L0 307 L45 351 L45 706 L205 706 L205 506 L250 549 L250 470 L205 426 Z " />
<glyph glyph-name="OE" unicode="&#x152;" horiz-adv-x="708" d="M326 0 L326 31 Q296 11 269.5 0.5 Q243 -10 206 -10 Q155 -10 123 9.5 Q91 29 73 61 Q55 93 48.5 133.5 Q42 174 42 215 L42 504 Q42 545 49 583.5 Q56 622 74 652 Q92 682 123.5 700.5 Q155 719 204 719 Q274 719 326 673 L326 706 L685 706 L685 581 L496 581 L496 423 L670 423 L670 298 L496 298 L496 126 L685 126 L685 0 L326 0 Z M326 546 Q326 574 312.5 589.5 Q299 605 270 605 Q212 605 212 547 L212 165 Q212 106 270 106 Q326 106 326 163 L326 546 Z " />
<glyph glyph-name="oe" unicode="&#x153;" horiz-adv-x="729" d="M695 140 Q695 123 694 108.5 Q693 94 686 77 Q675 49 655.5 31 Q636 13 611 3 Q586 -7 558.5 -11 Q531 -15 504 -15 Q468 -15 432.5 -8.5 Q397 -2 367 20 Q332 0 304 -7.5 Q276 -15 235 -15 Q205 -15 175.5 -11 Q146 -7 120.5 4.5 Q95 16 75.5 36 Q56 56 45 88 Q38 109 36.5 134 Q35 159 35 182 L35 373 Q35 389 36 404.5 Q37 420 41 435 Q50 468 70 489.5 Q90 511 116.5 523.5 Q143 536 174 540.5 Q205 545 235 545 Q274 545 304.5 537.5 Q335 530 367 507 Q396 533 426 539 Q456 545 494 545 Q520 545 547 541 Q574 537 598.5 527 Q623 517 644 500.5 Q665 484 677 459 Q688 437 690.5 413 Q693 389 693 365 L693 231 L444 231 L444 136 Q444 110 454.5 97 Q465 84 493 84 Q511 84 521 90 Q531 96 535.5 106.5 Q540 117 540.5 130 Q541 143 541 157 L541 170 L695 170 L695 140 Z M539 393 Q539 440 492 440 Q466 440 455 428 Q444 416 444 392 L444 327 L539 327 L539 393 Z M285 394 Q285 418 275.5 432 Q266 446 239 446 Q215 446 203.5 436 Q192 426 192 402 L192 131 Q192 84 239 84 Q264 84 274.5 96.5 Q285 109 285 132 L285 394 Z " />
<glyph glyph-name="Scaron" unicode="&#x160;" horiz-adv-x="479" d="M323 768 L156 768 L49 909 L180 909 L239 827 L297 909 L418 909 L323 768 Z M463 185 Q463 128 448 90.5 Q433 53 404.5 30.5 Q376 8 335 -1 Q294 -10 241 -10 Q211 -10 179 -7 Q147 -4 118 6 Q89 16 66 35.5 Q43 55 31 87 Q23 110 20.5 135 Q18 160 18 184 Q18 195 18 205 Q18 215 19 226 L188 226 L188 170 Q188 144 198.5 129 Q209 114 238 114 Q264 114 278 125.5 Q292 137 292 163 Q292 188 289.5 202 Q287 216 279.5 226 Q272 236 260 245 Q248 254 228 268 L126 342 Q98 362 79 378 Q60 394 48.5 412 Q37 430 32 454 Q27 478 27 515 Q27 576 39.5 615.5 Q52 655 79 678 Q106 701 148 710 Q190 719 248 719 Q302 719 340 710.5 Q378 702 402 680.5 Q426 659 436.5 622.5 Q447 586 447 530 Q447 519 447 509.5 Q447 500 446 489 L285 489 L285 539 Q285 567 277 582.5 Q269 598 237 598 Q221 598 212.5 592.5 Q204 587 200 578.5 Q196 570 195.5 558.5 Q195 547 195 535 Q195 508 199.5 493.5 Q204 479 227 463 L372 362 Q401 342 419 325.5 Q437 309 447 290 Q457 271 460 246 Q463 221 463 185 Z " />
<glyph glyph-name="scaron" unicode="&#x161;" horiz-adv-x="437" d="M284 611 L158 611 L55 736 L174 736 L220 677 L262 736 L381 736 L284 611 Z M422 160 Q422 137 419.5 112.5 Q417 88 406 67 Q393 43 371.5 27 Q350 11 324 2 Q298 -7 270.5 -10.5 Q243 -14 218 -14 Q192 -14 163.5 -10.5 Q135 -7 109 3 Q83 13 62.5 30.5 Q42 48 31 76 Q24 93 22.5 113.5 Q21 134 21 151 L21 164 L174 164 Q173 159 173 154.5 Q173 150 173 145 Q173 122 183 107.5 Q193 93 218 93 Q237 93 249 103.5 Q261 114 261 134 Q261 156 247 166.5 Q233 177 216 186 L142 227 Q113 243 91 256.5 Q69 270 54.5 287 Q40 304 33 327.5 Q26 351 26 387 L26 390 Q26 413 30.5 437.5 Q35 462 49 481 Q63 501 83.5 513.5 Q104 526 127.5 533.5 Q151 541 175.5 543.5 Q200 546 222 546 Q249 546 277 542 Q305 538 330.5 528 Q356 518 376 500 Q396 482 406 453 Q414 433 415 414 Q416 395 416 374 L265 374 Q265 386 264 397.5 Q263 409 259 418.5 Q255 428 246 433.5 Q237 439 222 439 Q202 439 191 427.5 Q180 416 180 396 Q180 382 186.5 372.5 Q193 363 202.5 355.5 Q212 348 224 342.5 Q236 337 246 332 L338 286 Q362 274 378 263 Q394 252 403.5 238 Q413 224 417.5 205.5 Q422 187 422 160 Z " />
<glyph glyph-name="Ydieresis" unicode="&#x178;" horiz-adv-x="521" d="M289 784 L289 897 L423 897 L423 784 L289 784 Z M96 784 L96 897 L232 897 L232 784 L96 784 Z M339 248 L339 0 L172 0 L172 248 L4 706 L172 706 L258 394 L344 706 L515 706 L339 248 Z " />
<glyph glyph-name="Zcaron" unicode="&#x17d;" horiz-adv-x="437" d="M312 768 L146 768 L39 909 L169 909 L228 827 L287 909 L408 909 L312 768 Z M-1 0 L-1 138 L244 582 L30 582 L30 706 L421 706 L421 567 L176 125 L427 125 L427 0 L-1 0 Z " />
<glyph glyph-name="zcaron" unicode="&#x17e;" horiz-adv-x="396" d="M278 611 L152 611 L50 736 L169 736 L214 677 L257 736 L376 736 L278 611 Z M188 102 L369 102 L369 0 L10 0 L10 102 L206 430 L46 430 L46 531 L385 531 L385 430 L188 102 Z " />
<glyph glyph-name="florin" unicode="&#x192;" horiz-adv-x="354" d="M358 606 Q330 606 315.5 604.5 Q301 603 294 596 Q287 589 284.5 573.5 Q282 558 278 531 L349 531 L337 432 L266 432 L208 -54 Q204 -89 194 -111 Q184 -133 167.5 -146 Q151 -159 126.5 -164 Q102 -169 68 -169 L-36 -169 L-24 -69 Q-9 -69 3.5 -69.5 Q16 -70 26 -67 Q36 -64 43 -55 Q50 -46 52 -28 L108 432 L38 432 L50 531 L120 531 Q125 570 129 602 Q133 634 145.5 657.5 Q158 681 184 693.5 Q210 706 258 706 L370 706 L358 606 Z " />
<glyph glyph-name="circumflex" unicode="&#x2c6;" horiz-adv-x="271" d="M181 612 L136 671 L93 612 L-28 612 L71 736 L197 736 L299 612 L181 612 Z " />
<glyph glyph-name="caron" unicode="&#x2c7;" horiz-adv-x="271" d="M201 611 L75 611 L-28 736 L90 736 L136 677 L178 736 L299 736 L201 611 Z " />
<glyph glyph-name="breve" unicode="&#x2d8;" horiz-adv-x="271" d="M282 733 Q274 667 234 636 Q194 605 131 605 Q102 605 76 613.5 Q50 622 30.5 638.5 Q11 655 0 678.5 Q-11 702 -11 733 L52 733 Q59 704 85.5 693.5 Q112 683 138 683 Q164 683 188.5 694 Q213 705 219 733 L282 733 Z " />
<glyph glyph-name="dotaccent" unicode="&#x2d9;" horiz-adv-x="271" d="M63 609 L63 733 L208 733 L208 609 L63 609 Z " />
<glyph glyph-name="ring" unicode="&#x2da;" horiz-adv-x="271" d="M235 665 Q235 645 227 627 Q219 609 205.5 595.5 Q192 582 174 574 Q156 566 136 566 Q116 566 97.5 574 Q79 582 65.5 595.5 Q52 609 44 627 Q36 645 36 665 Q36 685 44 703 Q52 721 65.5 734.5 Q79 748 97 756 Q115 764 135 764 Q155 764 173.5 756 Q192 748 205.5 734.5 Q219 721 227 703 Q235 685 235 665 Z M173 665 Q173 680 162 691 Q151 702 136 702 Q121 702 109.5 691 Q98 680 98 665 Q98 649 108.5 638.5 Q119 628 135 628 Q151 628 161.5 638.5 Q172 649 172 665 L173 665 Z " />
<glyph glyph-name="ogonek" unicode="&#x2db;" horiz-adv-x="271" d="M226 -190 Q204 -193 182 -193 Q159 -193 134.5 -188.5 Q110 -184 90 -173.5 Q70 -163 57.5 -144.5 Q45 -126 45 -98 Q45 -66 58.5 -44.5 Q72 -23 92 0 L191 0 Q177 -11 163 -26.5 Q149 -42 149 -61 Q149 -82 166.5 -89.5 Q184 -97 201 -97 Q207 -97 213.5 -96 Q220 -95 226 -94 L226 -190 Z " />
<glyph glyph-name="tilde" unicode="&#x2dc;" horiz-adv-x="271" d="M300 739 Q298 715 291.5 693 Q285 671 272.5 654 Q260 637 241 627 Q222 617 194 617 Q173 617 153.5 623 Q134 629 116 635.5 Q98 642 82.5 648 Q67 654 55 654 Q38 654 30.5 645.5 Q23 637 22 621 L-29 621 Q-26 646 -20.5 668 Q-15 690 -3 706.5 Q9 723 28 732.5 Q47 742 76 742 Q97 742 115 736.5 Q133 731 150 724.5 Q167 718 182 712.5 Q197 707 212 707 Q229 707 237.5 715.5 Q246 724 250 739 L300 739 Z " />
<glyph glyph-name="hungarumlaut" unicode="&#x2dd;" horiz-adv-x="271" d="M227 610 L110 610 L196 735 L364 735 L227 610 Z M24 610 L-93 610 L-7 735 L161 735 L24 610 Z " />
<glyph glyph-name="Mu" unicode="&#x39c;" horiz-adv-x="500" d="M296 0 L296 58 Q292 49 287 37.5 Q282 26 275.5 16.5 Q269 7 259.5 0.5 Q250 -6 238 -6 Q223 -6 218 -1.5 Q213 3 200 8 L200 -187 L42 -187 L42 531 L200 531 L200 157 Q200 108 247 108 Q275 108 285.5 122.5 Q296 137 296 162 L296 531 L454 531 L454 0 L296 0 Z " />
<glyph glyph-name="pi" unicode="&#x3c0;" horiz-adv-x="554" d="M526 -1 Q503 -1 489 -1.5 Q475 -2 468 -2 Q420 -2 393 7 Q366 16 347 38 Q331 57 325 82 Q319 107 319 155 L319 429 L234 429 L234 0 L74 0 L74 429 L36 429 L36 531 L512 531 L512 429 L477 429 L477 157 Q477 134 478 126.5 Q479 119 483 111 Q488 102 497.5 98 Q507 94 526 94 L526 -1 Z " />
<glyph glyph-name="endash" unicode="&#x2013;" horiz-adv-x="493" d="M28 235 L28 357 L465 357 L465 235 L28 235 Z " />
<glyph glyph-name="emdash" unicode="&#x2014;" horiz-adv-x="664" d="M28 235 L28 357 L636 357 L636 235 L28 235 Z " />
<glyph glyph-name="quoteleft" unicode="&#x2018;" horiz-adv-x="250" d="M55 401 L55 554 L135 706 L202 706 L156 554 L202 554 L202 401 L55 401 Z " />
<glyph glyph-name="quoteright" unicode="&#x2019;" horiz-adv-x="250" d="M118 402 L51 402 L97 554 L51 554 L51 706 L198 706 L198 554 L118 402 Z " />
<glyph glyph-name="quotesinglbase" unicode="&#x201a;" horiz-adv-x="250" d="M109 -152 L41 -152 L97 0 L52 0 L52 152 L197 152 L197 0 L109 -152 Z " />
<glyph glyph-name="quotedblleft" unicode="&#x201c;" horiz-adv-x="437" d="M347 552 L391 552 L391 401 L246 401 L246 552 L333 706 L402 706 L347 552 Z M150 552 L193 552 L193 401 L48 401 L48 552 L137 706 L206 706 L150 552 Z " />
<glyph glyph-name="quotedblright" unicode="&#x201d;" horiz-adv-x="437" d="M301 403 L233 403 L289 556 L244 556 L244 706 L390 706 L390 556 L301 403 Z M105 403 L36 403 L92 556 L46 556 L46 706 L192 706 L192 556 L105 403 Z " />
<glyph glyph-name="quotedblbase" unicode="&#x201e;" horiz-adv-x="437" d="M301 -152 L233 -152 L289 0 L244 0 L244 152 L390 152 L390 0 L301 -152 Z M105 -152 L36 -152 L92 0 L46 0 L46 152 L191 152 L191 0 L105 -152 Z " />
<glyph glyph-name="dagger" unicode="&#x2020;" horiz-adv-x="542" d="M351 406 L351 0 L194 0 L194 406 L41 406 L41 539 L194 539 L194 706 L351 706 L351 539 L504 539 L504 406 L351 406 Z " />
<glyph glyph-name="daggerdbl" unicode="&#x2021;" horiz-adv-x="542" d="M350 159 L350 -1 L193 -1 L193 159 L41 159 L41 281 L193 281 L193 454 L41 454 L41 577 L193 577 L193 705 L350 705 L350 577 L504 577 L504 454 L350 454 L350 281 L504 281 L504 159 L350 159 Z " />
<glyph glyph-name="bullet" unicode="&#x2022;" horiz-adv-x="333" d="M49 225 L49 471 L283 471 L283 225 L49 225 Z " />
<glyph glyph-name="ellipsis" unicode="&#x2026;" horiz-adv-x="1000" d="M773 0 L773 133 L893 133 L893 0 L773 0 Z M440 0 L440 133 L560 133 L560 0 L440 0 Z M107 0 L107 133 L227 133 L227 0 L107 0 Z " />
<glyph glyph-name="perthousand" unicode="&#x2030;" horiz-adv-x="1125" d="M1101 128 Q1101 54 1068.5 23 Q1036 -8 960 -8 Q885 -8 851 24 Q817 56 817 129 L817 306 Q817 384 849 415.5 Q881 447 959 447 Q979 447 1000.5 444.5 Q1022 442 1040.5 435 Q1059 428 1073.5 414.5 Q1088 401 1095 379 Q1100 362 1100.5 345.5 Q1101 329 1101 312 L1101 128 Z M768 119 Q768 47 731 19.5 Q694 -8 626 -8 Q551 -8 517.5 24 Q484 56 484 129 L484 306 Q484 385 516 416 Q548 447 626 447 Q647 447 669 444.5 Q691 442 709.5 434.5 Q728 427 742.5 413 Q757 399 763 375 Q768 358 768 342 Q768 326 768 309 L768 306 L768 119 Z M311 0 L239 0 L479 706 L551 706 L311 0 Z M310 393 Q310 317 276 287 Q242 257 168 257 Q93 257 59.5 289 Q26 321 26 394 L26 571 Q26 649 57.5 680.5 Q89 712 167 712 Q188 712 209.5 709.5 Q231 707 250 700 Q269 693 283.5 679.5 Q298 666 304 643 Q309 626 309.5 608.5 Q310 591 310 574 L310 393 Z M996 337 Q996 357 985.5 363.5 Q975 370 957 370 Q937 370 930.5 360.5 Q924 351 924 333 L924 108 Q924 88 932 81 Q940 74 959 74 Q979 74 987.5 81 Q996 88 996 108 L996 337 Z M662 337 Q662 357 652.5 363.5 Q643 370 624 370 Q604 370 597 361 Q590 352 590 333 L590 108 Q590 88 598 81 Q606 74 625 74 Q645 74 653.5 81 Q662 88 662 108 L662 337 Z M204 602 Q204 622 194 628.5 Q184 635 166 635 Q147 635 139.5 626.5 Q132 618 132 600 L132 373 Q132 353 139.5 346 Q147 339 167 339 Q187 339 195.5 346 Q204 353 204 373 L204 602 Z " />
<glyph glyph-name="guilsinglleft" unicode="&#x2039;" horiz-adv-x="208" d="M27 253 L27 374 L170 490 L170 364 L111 316 L170 265 L170 137 L27 253 Z " />
<glyph glyph-name="guilsinglright" unicode="&#x203a;" horiz-adv-x="208" d="M38 139 L38 267 L95 314 L38 366 L38 492 L180 375 L180 255 L38 139 Z " />
<glyph glyph-name="fraction" unicode="&#x2044;" horiz-adv-x="125" d="M-26 0 L-91 0 L149 706 L214 706 L-26 0 Z " />
<glyph glyph-name="Euro" unicode="&#x20ac;" horiz-adv-x="520" d="M468 544 Q442 573 413.5 584.5 Q385 596 347 596 Q311 596 292 585.5 Q273 575 264 556.5 Q255 538 253.5 513 Q252 488 252 459 L439 459 L412 379 L252 379 L252 338 L398 338 L370 258 L252 258 L252 235 Q252 212 253.5 185.5 Q255 159 275 142 Q289 130 308 125 Q327 120 346 120 Q383 120 414.5 134 Q446 148 474 172 L475 22 Q430 5 389 -2 Q348 -9 300 -9 Q279 -9 254.5 -7 Q230 -5 206 0.5 Q182 6 160.5 16.5 Q139 27 124 44 Q106 64 97 90.5 Q88 117 85 146 Q82 175 82 204 Q82 233 82 258 L17 258 L43 338 L83 338 L83 379 L17 379 L43 459 L82 459 L82 507 Q82 547 92 586 Q102 625 129 656 Q148 677 171.5 689.5 Q195 702 220.5 708.5 Q246 715 273 717 Q300 719 327 719 Q380 719 424 711 Q468 703 513 674 L468 544 Z " />
<glyph glyph-name="trademark" unicode="&#x2122;" horiz-adv-x="642" d="M515 374 L516 627 L468 374 L397 374 L344 631 L347 374 L263 374 L263 706 L393 706 L434 523 L474 706 L596 706 L596 374 L515 374 Z M170 638 L170 374 L80 374 L80 638 L8 638 L8 706 L239 706 L239 638 L170 638 Z " />
<glyph glyph-name="Omega" unicode="&#x2126;" horiz-adv-x="581" d="M318 0 L318 127 Q335 144 340 168 Q342 180 343 195 Q344 215 345 246.5 Q346 278 346 301 L346 487 Q346 518 345 530.5 Q344 543 339 554 Q327 583 291 583 Q254 583 242 554 Q237 543 236 530.5 Q235 518 235 487 L235 301 Q235 290 235.5 276 Q236 262 236 245 Q237 212 238 195.5 Q239 179 241 168 Q243 154 248.5 145 Q254 136 263 127 L263 0 L43 0 L43 125 L185 125 Q165 136 155.5 142.5 Q146 149 136 158 Q98 191 80 240.5 Q62 290 62 361 L62 497 Q62 612 116 664 Q170 716 291 716 Q412 716 465.5 664 Q519 612 519 497 L519 361 Q519 268 487 210 Q472 182 452.5 164 Q433 146 396 125 L538 125 L538 0 L318 0 Z " />
<glyph glyph-name="partialdiff" unicode="&#x2202;" horiz-adv-x="502" d="M469 398 Q469 321 458.5 250 Q448 179 428 130 Q372 -12 240 -12 Q194 -12 156 4.5 Q118 21 91 51.5 Q64 82 49.5 125 Q35 168 35 220 Q35 271 48 312.5 Q61 354 84 383.5 Q107 413 140 429 Q173 445 213 445 Q246 445 272.5 433.5 Q299 422 322 399 L322 422 Q322 516 298.5 557 Q275 598 220 598 Q205 598 191 596 Q177 594 150 588 L141 705 Q169 711 193 714 Q217 717 243 717 Q358 717 413.5 639 Q469 561 469 398 Z M308 277 Q275 329 235 329 Q206 329 188.5 298.5 Q171 268 171 216 Q171 164 190 132 Q209 100 239 100 Q272 100 288 142 Q297 163 302 199 Q307 235 308 277 Z " />
<glyph glyph-name="Delta" unicode="&#x2206;" horiz-adv-x="559" d="M1 0 L203 706 L361 706 L557 0 L1 0 Z M278 487 L199 124 L356 124 L278 487 Z " />
<glyph glyph-name="product" unicode="&#x220f;" horiz-adv-x="618" d="M391 -122 L391 582 L227 582 L227 -122 L61 -122 L61 706 L557 706 L557 -122 L391 -122 Z " />
<glyph glyph-name="summation" unicode="&#x2211;" horiz-adv-x="496" d="M29 -122 L29 2 L215 308 L29 586 L29 706 L464 706 L464 582 L214 582 L398 309 L204 3 L464 3 L464 -122 L29 -122 Z " />
<glyph glyph-name="minus" unicode="&#x2212;" horiz-adv-x="559" d="M66 237 L66 363 L493 363 L493 237 L66 237 Z " />
<glyph glyph-name="radical" unicode="&#x221a;" horiz-adv-x="559" d="M358 -185 L206 -185 L123 71 L59 47 L17 161 L208 227 L272 27 L401 706 L537 706 L358 -185 Z " />
<glyph glyph-name="infinity" unicode="&#x221e;" horiz-adv-x="559" d="M532 308 Q532 261 522.5 222 Q513 183 495 155.5 Q477 128 452.5 112.5 Q428 97 398 97 Q360 97 331.5 118 Q303 139 274 190 L268 180 Q240 133 214 114.5 Q188 96 153 96 Q94 96 60.5 146.5 Q27 197 27 285 Q27 331 37.5 370 Q48 409 66 437 Q84 465 109.5 480.5 Q135 496 165 496 Q201 496 228 474.5 Q255 453 284 399 Q312 450 341.5 473 Q371 496 409 496 Q465 496 498.5 444.5 Q532 393 532 308 Z M427 296 Q427 327 419 344.5 Q411 362 397 362 Q384 362 371.5 346.5 Q359 331 338 293 Q358 251 369 237 Q380 223 393 223 Q408 223 417.5 243 Q427 263 427 296 Z M221 294 Q202 334 190.5 349 Q179 364 166 364 Q151 364 142.5 344.5 Q134 325 134 291 Q134 260 141 243 Q148 226 162 226 Q175 226 188 241 Q201 256 221 294 Z " />
<glyph glyph-name="integral" unicode="&#x222b;" horiz-adv-x="338" d="M313 567 Q298 579 289 583 Q280 587 270 587 Q246 587 241 565 Q239 556 238.5 540.5 Q238 525 238 483 L238 47 Q238 29 238 16.5 Q238 4 237.5 -5.5 Q237 -15 236.5 -23.5 Q236 -32 235 -42 Q233 -65 229 -80.5 Q225 -96 217 -110 Q182 -176 93 -176 Q71 -176 54.5 -172.5 Q38 -169 15 -160 L15 -27 Q30 -38 38.5 -41.5 Q47 -45 58 -45 Q82 -45 88 -22 Q90 -12 91 2.5 Q92 17 92 55 L92 61 L91 495 Q91 528 91.5 546.5 Q92 565 94 582 Q98 626 111 651 Q128 683 160 699.5 Q192 716 235 716 Q255 716 272.5 712.5 Q290 709 313 700 L313 567 Z " />
<glyph glyph-name="approxequal" unicode="&#x2248;" horiz-adv-x="561" d="M501 390 Q466 353 435.5 336.5 Q405 320 373 320 Q355 320 336 326 Q317 332 285 347 L260 359 Q235 371 218.5 375.5 Q202 380 188 380 Q157 380 134 360 Q126 354 121 349 Q116 344 104 330 L60 444 Q77 463 85.5 471 Q94 479 106 488 Q141 515 184 515 Q201 515 218.5 510.5 Q236 506 265 493 L312 472 Q337 461 348.5 457 Q360 453 371 453 Q391 453 410.5 465 Q430 477 456 503 L501 390 Z M502 178 Q466 141 435.5 124.5 Q405 108 373 108 Q356 108 337 114.5 Q318 121 286 135 L260 147 Q236 158 219.5 163 Q203 168 188 168 Q156 168 135 148 Q127 142 122 137 Q117 132 105 118 L61 232 Q78 251 86.5 259 Q95 267 107 276 Q142 303 185 303 Q202 303 219.5 298.5 Q237 294 266 281 L313 260 Q338 249 349.5 245.5 Q361 242 372 242 Q392 242 411.5 253.5 Q431 265 457 291 L502 178 Z " />
<glyph glyph-name="notequal" unicode="&#x2260;" horiz-adv-x="546" d="M262 144 L211 15 L102 15 L153 144 L79 144 L79 266 L201 266 L238 356 L79 356 L79 479 L286 479 L333 596 L443 596 L395 479 L467 479 L467 356 L347 356 L311 266 L467 266 L467 144 L262 144 Z " />
<glyph glyph-name="lessequal" unicode="&#x2264;" horiz-adv-x="559" d="M87 346 L87 479 L449 674 L449 533 L226 418 L449 308 L449 152 L87 346 Z M87 0 L87 126 L449 126 L449 0 L87 0 Z " />
<glyph glyph-name="greaterequal" unicode="&#x2265;" horiz-adv-x="559" d="M109 153 L109 294 L333 409 L109 520 L109 675 L471 481 L471 348 L109 153 Z M109 0 L109 126 L471 126 L471 0 L109 0 Z " />
<glyph glyph-name="lozenge" unicode="&#x25ca;" horiz-adv-x="559" d="M342 0 L215 0 L63 353 L216 706 L342 706 L496 353 L342 0 Z M281 572 L202 354 L279 135 L357 355 L281 572 Z " />
<glyph glyph-name="fi" unicode="&#xfb01;" horiz-adv-x="562" d="M358 584 L358 706 L517 706 L517 584 L358 584 Z M358 0 L358 531 L517 531 L517 0 L358 0 Z M233 432 L233 0 L75 0 L75 432 L5 432 L5 531 L75 531 Q75 570 75.5 602 Q76 634 85.5 657 Q95 680 119 693 Q143 706 191 706 L304 706 L304 606 Q277 606 263 605 Q249 604 242 597.5 Q235 591 234 575.5 Q233 560 233 531 L304 531 L304 432 L233 432 Z " />
<glyph glyph-name="fl" unicode="&#xfb02;" horiz-adv-x="562" d="M358 0 L358 706 L518 706 L518 0 L358 0 Z M233 432 L233 0 L75 0 L75 432 L5 432 L5 531 L75 531 Q75 570 75.5 602 Q76 634 85.5 657 Q95 680 119 693 Q143 706 191 706 L304 706 L304 606 Q277 606 263 605 Q249 604 242 597.5 Q235 591 234 575.5 Q233 560 233 531 L304 531 L304 432 L233 432 Z " />
</font>
</svg>
