<?xml version="1.0" encoding="UTF-8"?>
<svg xmlns="http://www.w3.org/2000/svg" xmlns:xlink="http://www.w3.org/1999/xlink" version="1.2" >
<font id="NissanAG-Light">
<font-face  font-family="NissanAG" units-per-em="1000" ascent="750" descent="-250" font-style="normal" font-weight="300" font-stretch="normal" cap-height="750" x-height="500" underline-position="-75" underline-thickness="50" />
<missing-glyph  horiz-adv-x="1000" d="" />
<glyph glyph-name="null" d="" />
<glyph glyph-name="nonmarkingreturn" unicode="&#xd;" horiz-adv-x="250" d="" />
<glyph glyph-name="space" unicode="&#x20;" horiz-adv-x="258" d="" />
<glyph glyph-name="exclam" unicode="&#x21;" horiz-adv-x="208" d="M156 307 Q156 296 155 285 Q154 274 153 263 L147 176 L100 176 L95 263 Q94 274 93 285 Q92 296 92 307 L92 712 L156 712 L156 307 Z M86 0 L86 116 L162 116 L162 0 L86 0 Z " />
<glyph glyph-name="quotedbl" unicode="&#x22;" horiz-adv-x="357" d="M280 452 L250 452 L223 743 L306 743 L280 452 Z M108 452 L78 452 L51 743 L134 743 L108 452 Z " />
<glyph glyph-name="numbersign" unicode="&#x23;" horiz-adv-x="667" d="M449 410 L436 313 L604 313 L604 259 L429 259 L394 0 L332 0 L370 259 L269 259 L231 0 L173 0 L209 259 L42 259 L42 313 L217 313 L230 410 L63 410 L63 467 L237 467 L269 708 L332 708 L298 467 L398 467 L429 708 L489 708 L456 467 L624 467 L624 410 L449 410 Z M290 410 L276 313 L377 313 L390 410 L290 410 Z " />
<glyph glyph-name="dollar" unicode="&#x24;" horiz-adv-x="604" d="M552 207 Q552 137 514 88.5 Q476 40 412 17 Q391 9 368.5 4.5 Q346 0 323 0 L323 -92 L265 -92 L265 0 Q176 10 119.5 54 Q63 98 26 178 L97 185 Q124 132 164.5 101 Q205 70 265 62 L265 346 Q230 357 194.5 371 Q159 385 131 406 Q103 427 85.5 457.5 Q68 488 68 531 Q68 575 84.5 606 Q101 637 128 658 Q155 679 190.5 690.5 Q226 702 265 706 L265 768 L323 768 L323 706 Q402 700 449.5 659 Q497 618 520 543 L453 536 Q435 581 404.5 609.5 Q374 638 323 643 L323 396 Q359 386 399.5 372.5 Q440 359 474 338 Q508 317 530 285.5 Q552 254 552 207 Z M265 645 Q240 645 216.5 637.5 Q193 630 174.5 615.5 Q156 601 145 580.5 Q134 560 134 533 Q134 507 147 485 Q154 473 168.5 461 Q183 449 200 439 Q217 429 234.5 422.5 Q252 416 265 414 L265 645 Z M484 197 Q484 229 468 250.5 Q452 272 428 287 Q404 302 376 311 Q348 320 323 327 L323 60 Q353 60 382 69 Q411 78 433.5 95 Q456 112 470 138 Q484 164 484 197 Z " />
<glyph glyph-name="percent" unicode="&#x25;" horiz-adv-x="875" d="M844 212 Q844 175 836 136 Q828 97 809 65 Q790 33 760 12.5 Q730 -8 686 -8 Q641 -8 611 14 Q581 36 563 70 Q545 104 538 144 Q531 184 531 221 Q531 259 538.5 299.5 Q546 340 564 373 Q582 406 612.5 427.5 Q643 449 689 449 Q737 449 767 426.5 Q797 404 814.5 369 Q832 334 838 292 Q844 250 844 212 Z M285 -39 L245 -21 L596 749 L638 730 L285 -39 Z M344 477 Q344 440 335.5 401 Q327 362 308.5 330 Q290 298 259.5 277.5 Q229 257 185 257 Q140 257 110.5 279 Q81 301 63.5 334.5 Q46 368 38.5 408 Q31 448 31 484 Q31 522 38.5 562.5 Q46 603 64 637 Q82 671 112.5 692.5 Q143 714 189 714 Q237 714 267 691.5 Q297 669 314.5 634 Q332 599 338 557 Q344 515 344 477 Z M793 218 Q793 243 789 275.5 Q785 308 773.5 337 Q762 366 741.5 386 Q721 406 688 406 Q655 406 634 386 Q613 366 601.5 337.5 Q590 309 586 276.5 Q582 244 582 219 Q582 193 586 161 Q590 129 601 101.5 Q612 74 633.5 55.5 Q655 37 689 37 Q723 37 743.5 55.5 Q764 74 775 102 Q786 130 789.5 161.5 Q793 193 793 218 Z M293 483 Q293 508 289 540 Q285 572 273.5 601 Q262 630 241.5 650 Q221 670 188 670 Q155 670 134.5 650.5 Q114 631 102 603 Q90 575 86 543 Q82 511 82 486 Q82 459 85.5 427 Q89 395 100.5 367.5 Q112 340 133 321 Q154 302 189 302 Q223 302 243.5 320.5 Q264 339 275 367 Q286 395 289.5 426.5 Q293 458 293 483 Z " />
<glyph glyph-name="ampersand" unicode="&#x26;" horiz-adv-x="646" d="M620 -9 Q593 -9 572 -1.5 Q551 6 534 18.5 Q517 31 501.5 48 Q486 65 469 83 Q434 36 382.5 14 Q331 -8 274 -8 Q230 -8 190 6 Q150 20 120 45.5 Q90 71 72.5 108.5 Q55 146 55 192 Q55 258 87.5 305 Q120 352 171 389 Q186 400 201.5 409.5 Q217 419 232 430 Q206 468 190.5 502 Q175 536 175 583 Q175 646 215 682.5 Q255 719 316 719 Q345 719 369.5 711 Q394 703 413 687 Q432 671 442.5 648 Q453 625 453 595 Q453 549 427.5 510 Q402 471 367 444 Q355 435 342 427 Q329 419 316 410 Q335 378 355 348 Q375 318 396 288 Q414 262 431.5 236 Q449 210 469 187 Q479 219 486.5 251 Q494 283 494 316 L557 316 Q557 268 543.5 223.5 Q530 179 507 137 Q517 122 530 108 Q551 83 568 69 Q585 55 620 52 L620 -9 Z M391 591 Q391 624 370 643.5 Q349 663 317 663 Q279 663 257.5 641 Q236 619 236 581 Q236 549 252 518.5 Q268 488 284 462 Q288 463 292 466 Q310 476 327.5 488.5 Q345 501 359 516 Q373 531 382 550 Q391 569 391 591 Z M435 128 Q421 149 405.5 169.5 Q390 190 376 211 Q347 253 320 294.5 Q293 336 266 378 Q240 363 214.5 344 Q189 325 169 302.5 Q149 280 136.5 252 Q124 224 124 191 Q124 159 136.5 133 Q149 107 170 88.5 Q191 70 219 60 Q247 50 277 50 Q323 50 364.5 71.5 Q406 93 435 128 Z " />
<glyph glyph-name="quotesingle" unicode="&#x27;" horiz-adv-x="185" d="M108 452 L78 452 L51 743 L134 743 L108 452 Z " />
<glyph glyph-name="parenleft" unicode="&#x28;" horiz-adv-x="308" d="M286 -162 Q167 -71 105 53 Q43 177 43 325 Q43 374 51.5 425.5 Q60 477 76 525 Q114 638 190 718 Q201 730 210.5 739 Q220 748 230 756.5 Q240 765 252.5 774.5 Q265 784 283 797 L307 764 Q289 748 276 736.5 Q263 725 253 714.5 Q243 704 234.5 693.5 Q226 683 216 670 Q168 605 142 517 Q116 429 116 329 Q116 250 134.5 172 Q153 94 187 27 Q215 -27 248 -66 Q264 -85 276 -96.5 Q288 -108 311 -125 L286 -162 Z " />
<glyph glyph-name="parenright" unicode="&#x29;" horiz-adv-x="313" d="M275 315 Q275 265 266 213 Q257 161 241 113 Q204 2 126 -80 Q115 -91 106 -100 Q97 -109 86.5 -117.5 Q76 -126 63.5 -135.5 Q51 -145 33 -158 L9 -126 Q27 -110 40 -98 Q53 -86 63 -76 Q73 -66 81.5 -55.5 Q90 -45 100 -32 Q149 34 175 122.5 Q201 211 201 311 Q201 389 183 467 Q165 545 131 612 Q104 663 71 705 Q55 724 43 735 Q31 746 8 764 L33 801 Q151 710 213 586 Q275 462 275 315 Z " />
<glyph glyph-name="asterisk" unicode="&#x2a;" horiz-adv-x="357" d="M214 556 L281 465 L244 438 L176 528 L115 438 L77 465 L139 557 L33 587 L47 630 L153 602 L153 711 L201 711 L201 600 L309 636 L324 595 L214 556 Z " />
<glyph glyph-name="plus" unicode="&#x2b;" horiz-adv-x="724" d="M392 263 L392 25 L332 25 L332 263 L94 263 L94 323 L332 323 L332 560 L392 560 L392 323 L630 323 L630 263 L392 263 Z " />
<glyph glyph-name="comma" unicode="&#x2c;" horiz-adv-x="167" d="M123 18 Q123 -9 121.5 -31.5 Q120 -54 115.5 -74 Q111 -94 102 -114.5 Q93 -135 77 -158 L44 -135 Q56 -116 63 -101 Q70 -86 74.5 -70.5 Q79 -55 80.5 -38.5 Q82 -22 82 0 L44 0 L44 116 L123 116 L123 18 Z " />
<glyph glyph-name="hyphen" unicode="&#x2d;" horiz-adv-x="341" d="M38 264 L38 324 L303 324 L303 264 L38 264 Z " />
<glyph glyph-name="period" unicode="&#x2e;" horiz-adv-x="167" d="M44 0 L44 116 L123 116 L123 0 L44 0 Z " />
<glyph glyph-name="slash" unicode="&#x2f;" horiz-adv-x="479" d="M86 0 L10 0 L395 706 L469 706 L86 0 Z " />
<glyph glyph-name="zero" unicode="0" horiz-adv-x="583" d="M540 339 Q540 281 527 218.5 Q514 156 484 104.5 Q454 53 406 20 Q358 -13 288 -13 Q217 -13 170 22.5 Q123 58 95 112 Q67 166 55.5 230 Q44 294 44 352 Q44 411 55.5 476 Q67 541 95.5 595 Q124 649 172 684.5 Q220 720 293 720 Q370 720 418 683.5 Q466 647 493 590.5 Q520 534 530 467 Q540 400 540 339 Z M473 351 Q473 395 466 449.5 Q459 504 439.5 552 Q420 600 384.5 632.5 Q349 665 292 665 Q236 665 200.5 632.5 Q165 600 145 552.5 Q125 505 118 451 Q111 397 111 354 Q111 310 117.5 256 Q124 202 143.5 154.5 Q163 107 198.5 75 Q234 43 292 43 Q351 43 386.5 74.5 Q422 106 441.5 152.5 Q461 199 467 252.5 Q473 306 473 351 Z " />
<glyph glyph-name="one" unicode="1" horiz-adv-x="583" d="M289 0 L289 574 Q279 564 262.5 558.5 Q246 553 228 550 Q210 547 192 546 Q174 545 160 545 L160 599 L167 599 Q194 599 224.5 608 Q255 617 272 640 Q283 655 286 671.5 Q289 688 289 706 L350 706 L350 0 L289 0 Z " />
<glyph glyph-name="two" unicode="2" horiz-adv-x="583" d="M530 495 Q530 431 500 373 Q470 315 424 265.5 Q378 216 323.5 174 Q269 132 221 99 Q204 88 187 76.5 Q170 65 152 55 L506 55 L506 0 L60 0 L60 55 Q97 79 147 113 Q197 147 246.5 185.5 Q296 224 339.5 263.5 Q383 303 408 338 Q433 373 448.5 413 Q464 453 464 498 Q464 577 416.5 622 Q369 667 291 667 Q238 667 196.5 645 Q155 623 132 573 Q125 558 121 542 Q117 526 117 509 Q117 474 130 444 Q143 414 166 388 L84 398 Q59 455 59 517 Q59 567 78 605 Q97 643 129 668.5 Q161 694 203 707 Q245 720 291 720 Q343 720 386.5 705 Q430 690 462 661 Q494 632 512 590.5 Q530 549 530 495 Z " />
<glyph glyph-name="three" unicode="3" horiz-adv-x="583" d="M524 196 Q524 145 505.5 105.5 Q487 66 454.5 40 Q422 14 379.5 0.5 Q337 -13 289 -13 Q186 -13 120 42.5 Q54 98 43 202 L110 225 Q110 138 155.5 91 Q201 44 289 44 Q324 44 354.5 53 Q385 62 407.5 80 Q430 98 443.5 125.5 Q457 153 457 190 Q457 271 413 305 Q369 339 293 339 L272 339 L174 339 L174 394 Q193 394 211 393.5 Q229 393 248 393 Q284 393 319 397 Q354 401 382.5 414.5 Q411 428 428.5 454.5 Q446 481 446 526 Q446 559 433.5 585.5 Q421 612 399.5 630 Q378 648 350 657.5 Q322 667 290 667 Q255 667 225 656 Q195 645 173 624.5 Q151 604 138.5 575 Q126 546 126 510 L56 529 Q79 622 135.5 671 Q192 720 289 720 Q335 720 375 708 Q415 696 445 671.5 Q475 647 492 610 Q509 573 509 524 Q509 448 467.5 412.5 Q426 377 355 369 Q433 368 478.5 320.5 Q524 273 524 196 Z " />
<glyph glyph-name="four" unicode="4" horiz-adv-x="583" d="M432 177 L432 0 L371 0 L371 177 L56 177 L56 228 L366 706 L432 706 L432 232 L542 232 L542 177 L432 177 Z M371 607 L125 232 L371 232 L371 607 Z " />
<glyph glyph-name="five" unicode="5" horiz-adv-x="583" d="M524 241 Q524 187 508 141 Q492 95 461.5 60.5 Q431 26 387 6.5 Q343 -13 287 -13 Q240 -13 199 0 Q158 13 127.5 38 Q97 63 77.5 100 Q58 137 53 186 L118 205 Q118 130 163.5 86 Q209 42 283 42 Q327 42 360 57.5 Q393 73 414.5 99.5 Q436 126 447 162 Q458 198 458 239 Q458 278 448 313.5 Q438 349 417.5 376.5 Q397 404 365.5 420 Q334 436 291 436 Q262 436 236 425.5 Q210 415 190 396.5 Q170 378 156.5 353.5 Q143 329 138 301 L87 307 L99 706 L472 706 L472 647 L157 647 L143 404 Q153 427 170.5 443 Q188 459 209 469 Q230 479 254 484 Q278 489 301 489 Q355 489 396.5 469 Q438 449 466.5 415.5 Q495 382 509.5 337 Q524 292 524 241 Z " />
<glyph glyph-name="six" unicode="6" horiz-adv-x="583" d="M542 228 Q542 173 525 128.5 Q508 84 476.5 52.5 Q445 21 400 4 Q355 -13 300 -13 Q261 -13 223.5 -1.5 Q186 10 155 35 Q124 60 104.5 95 Q85 130 74.5 170 Q64 210 60.5 251.5 Q57 293 57 330 Q57 396 68 465 Q79 534 108.5 591 Q138 648 189.5 684 Q241 720 323 720 Q401 720 458 680.5 Q515 641 535 564 L469 540 Q463 604 424.5 634 Q386 664 323 664 Q274 664 240 646.5 Q206 629 183.5 599 Q161 569 148.5 530 Q136 491 129 449 Q126 431 124 413 Q122 395 121 376 Q150 426 203.5 449.5 Q257 473 313 473 Q368 473 410.5 454.5 Q453 436 482.5 403.5 Q512 371 527 326 Q542 281 542 228 Z M476 230 Q476 271 465.5 305.5 Q455 340 433.5 365.5 Q412 391 379.5 405 Q347 419 304 419 Q268 419 235.5 406.5 Q203 394 178.5 371.5 Q154 349 139 318 Q124 287 124 250 Q124 231 127.5 212.5 Q131 194 136 176 Q156 113 198 77.5 Q240 42 307 42 Q349 42 380.5 56.5 Q412 71 433 96.5 Q454 122 465 156.5 Q476 191 476 230 Z " />
<glyph glyph-name="seven" unicode="7" horiz-adv-x="583" d="M511 647 Q494 624 478 601 Q462 578 447 555 Q405 489 374 423 Q343 357 321.5 288.5 Q300 220 286 148.5 Q272 77 264 0 L197 0 Q199 22 201 43.5 Q203 65 206 87 Q217 165 240 238.5 Q263 312 295.5 382 Q328 452 368.5 518 Q409 584 454 647 L120 647 L120 489 L63 489 L63 706 L511 706 L511 647 Z " />
<glyph glyph-name="eight" unicode="8" horiz-adv-x="583" d="M538 192 Q538 147 518 107 Q502 74 477.5 51 Q453 28 423 13.5 Q393 -1 359.5 -7 Q326 -13 291 -13 Q242 -13 197.5 0 Q153 13 119 39.5 Q85 66 65 105.5 Q45 145 45 198 Q45 230 56.5 259 Q68 288 87.5 311.5 Q107 335 133.5 352 Q160 369 190 376 Q138 394 105 435.5 Q72 477 72 534 Q72 581 90.5 616 Q109 651 140 674 Q171 697 211 708.5 Q251 720 293 720 Q337 720 377.5 709 Q418 698 449 675.5 Q480 653 499 617.5 Q518 582 518 534 Q518 476 485 433.5 Q452 391 396 376 Q427 369 453 351 Q479 333 498 308.5 Q517 284 527.5 254 Q538 224 538 192 Z M454 534 Q454 568 440.5 593 Q427 618 405 634 Q383 650 354.5 657.5 Q326 665 295 665 Q264 665 235 657 Q206 649 184 632.5 Q162 616 148.5 591 Q135 566 135 531 Q135 500 148.5 475.5 Q162 451 183.5 434.5 Q205 418 233 409.5 Q261 401 289 401 Q321 401 350.5 408.5 Q380 416 403 432 Q426 448 440 473 Q454 498 454 534 Z M472 193 Q472 232 456.5 261 Q441 290 415.5 308.5 Q390 327 357 336.5 Q324 346 289 346 Q255 346 223 336.5 Q191 327 166.5 308 Q142 289 127 261 Q112 233 112 195 Q112 156 128 127.5 Q144 99 170 80.5 Q196 62 229 53 Q262 44 297 44 Q330 44 361.5 53.5 Q393 63 417.5 82 Q442 101 457 129 Q472 157 472 193 Z " />
<glyph glyph-name="nine" unicode="9" horiz-adv-x="583" d="M527 372 Q527 304 516.5 235.5 Q506 167 477 111.5 Q448 56 395.5 21.5 Q343 -13 260 -13 Q175 -13 125.5 26 Q76 65 50 143 L119 169 Q127 103 163 72.5 Q199 42 265 42 Q330 42 368 70.5 Q406 99 426.5 143 Q447 187 454 240.5 Q461 294 463 344 Q434 286 382 260 Q330 234 267 234 Q213 234 171 252.5 Q129 271 100 303.5 Q71 336 55.5 380.5 Q40 425 40 477 Q40 530 56.5 574.5 Q73 619 103.5 651 Q134 683 177 701.5 Q220 720 274 720 Q352 720 401 690 Q450 660 478 611 Q506 562 516.5 499.5 Q527 437 527 372 Z M458 461 Q458 500 445.5 537.5 Q433 575 410 604 Q387 633 353 650.5 Q319 668 277 668 Q234 668 202 653.5 Q170 639 149 613.5 Q128 588 117.5 553.5 Q107 519 107 478 Q107 436 116.5 401.5 Q126 367 146.5 342.5 Q167 318 199 304 Q231 290 276 290 Q315 290 348 301.5 Q381 313 405.5 335 Q430 357 444 389 Q458 421 458 461 Z " />
<glyph glyph-name="colon" unicode="&#x3a;" horiz-adv-x="208" d="M86 352 L86 468 L165 468 L165 352 L86 352 Z M86 0 L86 116 L165 116 L165 0 L86 0 Z " />
<glyph glyph-name="semicolon" unicode="&#x3b;" horiz-adv-x="208" d="M86 352 L86 468 L165 468 L165 352 L86 352 Z M165 1 Q165 -24 163 -44 Q161 -64 155.5 -82.5 Q150 -101 141 -119 Q132 -137 118 -158 L86 -135 Q98 -116 105 -101 Q112 -86 116.5 -71 Q121 -56 122.5 -39 Q124 -22 124 0 L86 0 L86 116 L165 116 L165 1 Z " />
<glyph glyph-name="less" unicode="&#x3c;" horiz-adv-x="724" d="M114 256 L114 324 L580 563 L580 499 L171 291 L580 85 L580 20 L114 256 Z " />
<glyph glyph-name="equal" unicode="&#x3d;" horiz-adv-x="724" d="M99 349 L99 408 L625 408 L625 349 L99 349 Z M99 173 L99 231 L625 231 L625 173 L99 173 Z " />
<glyph glyph-name="greater" unicode="&#x3e;" horiz-adv-x="724" d="M145 17 L145 82 L554 290 L145 496 L145 560 L610 324 L610 257 L145 17 Z " />
<glyph glyph-name="question" unicode="&#x3f;" horiz-adv-x="479" d="M462 526 Q462 489 453.5 460.5 Q445 432 429 408.5 Q413 385 392 363.5 Q371 342 345 319 Q326 301 312.5 289 Q299 277 290.5 264.5 Q282 252 278.5 234.5 Q275 217 275 189 L275 169 L213 169 L213 204 Q213 233 217.5 252.5 Q222 272 231 288 Q240 304 254.5 318 Q269 332 289 351 Q308 369 327.5 387.5 Q347 406 362.5 427 Q378 448 388 471.5 Q398 495 398 523 Q398 553 387.5 578 Q377 603 359 621 Q341 639 316 649 Q291 659 261 659 Q198 659 163 622.5 Q128 586 128 524 Q128 500 134.5 474 Q141 448 153 427 L78 449 Q74 469 70.5 489 Q67 509 67 529 Q67 573 81 608 Q95 643 121 667.5 Q147 692 183 705 Q219 718 262 718 Q304 718 340.5 704 Q377 690 404 664.5 Q431 639 446.5 604 Q462 569 462 526 Z M206 0 L206 116 L284 116 L284 0 L206 0 Z " />
<glyph glyph-name="at" unicode="&#x40;" horiz-adv-x="896" d="M827 424 Q827 391 822 358 Q817 325 808 293 Q798 260 779 221.5 Q760 183 733 149.5 Q706 116 672 94 Q638 72 599 72 Q554 72 536 98 Q518 124 519 165 Q493 127 454.5 100 Q416 73 368 73 Q334 73 310 86.5 Q286 100 270.5 122.5 Q255 145 248 173.5 Q241 202 241 232 Q241 266 248.5 301.5 Q256 337 270 370 Q284 403 305.5 432 Q327 461 355 481 Q376 496 400 505.5 Q424 515 450 515 Q497 515 525.5 488.5 Q554 462 569 420 L585 492 L644 492 L612 346 Q602 302 592 258 Q582 214 582 169 Q582 152 590.5 136 Q599 120 619 120 Q635 120 649.5 130 Q664 140 675 150 Q701 173 720.5 206 Q740 239 753.5 275.5 Q767 312 774 350.5 Q781 389 781 423 Q781 482 762.5 527.5 Q744 573 710.5 604 Q677 635 630 651.5 Q583 668 526 668 Q439 668 364 632 Q289 596 233.5 536 Q178 476 146 397.5 Q114 319 114 234 Q114 159 140 100.5 Q166 42 211.5 2.5 Q257 -37 318.5 -58 Q380 -79 452 -79 Q547 -79 635 -40 Q723 -1 790 66 L817 34 Q739 -38 650 -81 Q561 -124 452 -124 Q373 -124 303 -99.5 Q233 -75 181 -28.5 Q129 18 99 84 Q69 150 69 233 Q69 329 104.5 415.5 Q140 502 202 568 Q264 634 348.5 673 Q433 712 530 712 Q596 712 651 692.5 Q706 673 745 635.5 Q784 598 805.5 545 Q827 492 827 424 Z M548 352 Q548 373 542.5 393 Q537 413 525.5 428 Q514 443 496.5 452.5 Q479 462 456 462 Q419 462 391.5 438 Q364 414 345.5 379 Q327 344 318 305 Q309 266 309 236 Q309 215 314 195.5 Q319 176 329.5 161 Q340 146 356.5 136.5 Q373 127 396 127 Q434 127 462.5 150.5 Q491 174 510 208 Q529 242 538.5 281.5 Q548 321 548 352 Z " />
<glyph glyph-name="A" unicode="A" horiz-adv-x="646" d="M562 0 L481 213 L165 213 L84 0 L10 0 L298 706 L354 706 L635 0 L562 0 Z M325 628 L187 267 L461 267 L325 628 Z " />
<glyph glyph-name="B" unicode="B" horiz-adv-x="667" d="M626 197 Q626 165 617.5 135 Q609 105 590 79 Q571 53 547.5 37.5 Q524 22 498 13.5 Q472 5 443 2.5 Q414 0 384 0 L81 0 L81 706 L385 706 Q439 706 487.5 693.5 Q536 681 570 635 Q587 613 595 586 Q603 559 603 532 Q603 503 594.5 477 Q586 451 569.5 430.5 Q553 410 529.5 396.5 Q506 383 476 380 Q549 366 587.5 319 Q626 272 626 197 Z M533 531 Q533 551 527.5 569.5 Q522 588 509 603 Q484 634 447.5 640 Q411 646 374 646 L148 646 L148 407 L363 407 Q403 407 442.5 414.5 Q482 422 509 456 Q521 471 527 491.5 Q533 512 533 531 Z M559 197 Q559 223 551 247 Q543 271 526 291 Q494 329 449.5 339 Q405 349 358 349 L148 349 L148 61 L381 61 Q422 61 461.5 68 Q501 75 529 108 Q546 127 552.5 149.5 Q559 172 559 197 Z " />
<glyph glyph-name="C" unicode="C" horiz-adv-x="667" d="M557 507 L557 511 Q546 558 517 595 Q485 635 444 650 Q403 665 354 665 Q287 665 242 638.5 Q197 612 170 568.5 Q143 525 131.5 469.5 Q120 414 120 357 Q120 295 131.5 238 Q143 181 171 137.5 Q199 94 246.5 68 Q294 42 366 42 Q416 42 453 59 Q490 76 520 116 Q533 133 542.5 152 Q552 171 557 192 L620 154 Q582 69 518 25.5 Q454 -18 361 -18 Q278 -18 219 10.5 Q160 39 122.5 88.5 Q85 138 67.5 204 Q50 270 50 346 Q50 419 66 487.5 Q82 556 118 608.5 Q154 661 211.5 692.5 Q269 724 352 724 Q430 724 493 695 Q556 666 597 596 Q605 582 611.5 568.5 Q618 555 625 541 L557 507 Z " />
<glyph glyph-name="D" unicode="D" horiz-adv-x="688" d="M638 356 Q638 308 627.5 256 Q617 204 595 157 Q573 110 538 73.5 Q503 37 453 19 Q415 5 372.5 2.5 Q330 0 291 0 L81 0 L81 706 L282 706 Q324 706 373.5 703.5 Q423 701 463 685 Q510 666 543 630 Q576 594 597 548.5 Q618 503 628 453 Q638 403 638 356 Z M570 350 Q570 388 563 430.5 Q556 473 540.5 511.5 Q525 550 498.5 581.5 Q472 613 433 629 Q405 641 375 643 Q345 645 316 645 L149 645 L149 60 L284 60 Q302 60 323 60.5 Q344 61 366 63.5 Q388 66 408 70.5 Q428 75 444 82 Q478 99 502 129.5 Q526 160 541 197.5 Q556 235 563 275 Q570 315 570 350 Z " />
<glyph glyph-name="E" unicode="E" horiz-adv-x="604" d="M81 0 L81 706 L542 706 L542 645 L148 645 L148 393 L505 393 L505 331 L148 331 L148 62 L567 62 L567 0 L81 0 Z " />
<glyph glyph-name="F" unicode="F" horiz-adv-x="562" d="M146 647 L146 408 L502 408 L502 350 L146 350 L146 0 L81 0 L81 706 L543 706 L543 647 L146 647 Z " />
<glyph glyph-name="G" unicode="G" horiz-adv-x="708" d="M564 511 Q541 587 495 627.5 Q449 668 368 668 Q309 668 257 639 Q218 617 191.5 584 Q165 551 149.5 512 Q134 473 127.5 430.5 Q121 388 121 346 Q121 291 133.5 236.5 Q146 182 173.5 138.5 Q201 95 245.5 68.5 Q290 42 354 42 Q412 42 452 64.5 Q492 87 517 124.5 Q542 162 553 209.5 Q564 257 564 308 L304 308 L304 369 L622 369 L622 0 L564 0 L564 118 Q537 49 481 15.5 Q425 -18 352 -18 Q274 -18 217 13 Q160 44 123 95 Q86 146 68 212 Q50 278 50 348 Q50 423 69 491.5 Q88 560 127 611.5 Q166 663 226.5 693.5 Q287 724 370 724 Q466 724 528.5 678.5 Q591 633 627 545 L564 511 Z " />
<glyph glyph-name="H" unicode="H" horiz-adv-x="729" d="M581 0 L581 331 L147 331 L147 0 L81 0 L81 706 L147 706 L147 391 L581 391 L581 706 L648 706 L648 0 L581 0 Z " />
<glyph glyph-name="I" unicode="I" horiz-adv-x="229" d="M81 0 L81 706 L148 706 L148 0 L81 0 Z " />
<glyph glyph-name="J" unicode="J" horiz-adv-x="500" d="M419 216 Q419 164 410.5 121 Q402 78 380.5 47.5 Q359 17 321 0.5 Q283 -16 224 -16 Q120 -16 66.5 36.5 Q13 89 13 194 L84 210 Q83 202 82.5 194.5 Q82 187 82 179 Q82 106 120 74.5 Q158 43 228 43 Q272 43 297 57.5 Q322 72 334.5 97 Q347 122 350 154 Q353 186 353 222 L353 706 L419 706 L419 216 Z " />
<glyph glyph-name="K" unicode="K" horiz-adv-x="667" d="M567 0 L303 382 L149 227 L149 0 L81 0 L81 706 L149 706 L149 312 L533 706 L625 706 L349 426 L649 0 L567 0 Z " />
<glyph glyph-name="L" unicode="L" horiz-adv-x="562" d="M81 0 L81 706 L149 706 L149 62 L539 62 L539 0 L81 0 Z " />
<glyph glyph-name="M" unicode="M" horiz-adv-x="792" d="M645 0 L650 600 L420 0 L374 0 L139 600 L147 0 L81 0 L81 706 L160 706 L399 107 L628 706 L711 706 L711 0 L645 0 Z " />
<glyph glyph-name="N" unicode="N" horiz-adv-x="708" d="M561 0 L147 610 L147 0 L81 0 L81 706 L147 706 L566 102 L561 706 L627 706 L627 0 L561 0 Z " />
<glyph glyph-name="O" unicode="O" horiz-adv-x="708" d="M658 363 Q658 292 641.5 223.5 Q625 155 589 101.5 Q553 48 496 15 Q439 -18 358 -18 Q278 -18 219.5 13.5 Q161 45 123.5 96.5 Q86 148 68 215.5 Q50 283 50 355 Q50 427 68 494 Q86 561 124 612 Q162 663 220.5 693.5 Q279 724 359 724 Q437 724 493.5 694 Q550 664 586.5 613.5 Q623 563 640.5 498 Q658 433 658 363 Z M587 360 Q587 413 574.5 467.5 Q562 522 535 566 Q508 610 464.5 638 Q421 666 358 666 Q293 666 247.5 638 Q202 610 174 565.5 Q146 521 133.5 465 Q121 409 121 353 Q121 298 133 242.5 Q145 187 172.5 142.5 Q200 98 244.5 70 Q289 42 353 42 Q418 42 463 71 Q508 100 535.5 146 Q563 192 575 248.5 Q587 305 587 360 Z " />
<glyph glyph-name="P" unicode="P" horiz-adv-x="625" d="M613 512 Q613 479 604 445.5 Q595 412 574 386 Q556 363 534 349.5 Q512 336 487 328.5 Q462 321 435.5 319 Q409 317 382 317 Q362 317 341.5 317.5 Q321 318 301 318 L145 318 L145 0 L81 0 L81 706 L387 706 Q413 706 438.5 704.5 Q464 703 488 696.5 Q512 690 534 677.5 Q556 665 573 643 Q595 615 604 581 Q613 547 613 512 Z M548 510 Q548 551 537.5 578 Q527 605 506.5 621 Q486 637 456.5 643.5 Q427 650 389 650 L145 650 L145 377 Q203 377 261 376.5 Q319 376 377 376 Q398 376 418.5 377 Q439 378 458 383.5 Q477 389 494 399.5 Q511 410 524 428 Q538 446 543 467 Q548 488 548 510 Z " />
<glyph glyph-name="Q" unicode="Q" horiz-adv-x="708" d="M653 -16 L564 66 Q520 22 468.5 2 Q417 -18 355 -18 Q277 -18 219.5 12.5 Q162 43 124.5 93.5 Q87 144 68.5 209.5 Q50 275 50 346 Q50 418 68.5 486 Q87 554 125.5 607 Q164 660 222.5 692 Q281 724 361 724 Q439 724 495 693.5 Q551 663 588 612 Q625 561 642.5 495.5 Q660 430 660 360 Q660 296 646 234.5 Q632 173 600 117 L695 29 L653 -16 Z M592 351 Q592 406 580 462 Q568 518 540.5 563.5 Q513 609 468.5 637.5 Q424 666 359 666 Q294 666 248.5 637 Q203 608 174.5 562.5 Q146 517 133 460.5 Q120 404 120 348 Q120 293 132.5 238 Q145 183 173 138.5 Q201 94 246 66.5 Q291 39 355 39 Q421 39 466.5 66.5 Q512 94 539.5 138.5 Q567 183 579.5 238.5 Q592 294 592 351 Z " />
<glyph glyph-name="R" unicode="R" horiz-adv-x="646" d="M537 0 L314 313 L149 313 L149 0 L81 0 L81 706 L340 706 Q369 706 399 704.5 Q429 703 457 696.5 Q485 690 510 676 Q535 662 556 638 Q579 611 590 575.5 Q601 540 601 505 Q601 459 585 423 Q569 387 541 363 Q513 339 474.5 326 Q436 313 392 313 L621 0 L537 0 Z M535 507 Q535 529 529.5 551 Q524 573 511 591 Q485 629 448 637.5 Q411 646 369 646 L149 646 L149 371 L353 371 Q373 371 394.5 372.5 Q416 374 436.5 379 Q457 384 475.5 394 Q494 404 507 421 Q522 440 528.5 461.5 Q535 483 535 507 Z " />
<glyph glyph-name="S" unicode="S" horiz-adv-x="604" d="M575 194 Q575 139 546 93 Q528 63 501.5 42 Q475 21 444.5 7.5 Q414 -6 380 -12 Q346 -18 313 -18 Q273 -18 235.5 -10.5 Q198 -3 165 14 Q132 31 106.5 58.5 Q81 86 65 125 Q60 138 56.5 151 Q53 164 49 178 L116 213 Q116 169 131.5 136.5 Q147 104 173.5 83 Q200 62 235.5 51.5 Q271 41 312 41 Q347 41 381.5 49.5 Q416 58 444 76 Q472 94 489.5 122.5 Q507 151 507 191 Q507 245 478.5 273 Q450 301 403 318 Q377 328 349.5 334.5 Q322 341 294.5 348 Q267 355 240 363 Q213 371 188 384 Q140 408 112.5 446 Q85 484 85 540 Q85 591 105 626 Q125 661 158 682.5 Q191 704 233 714 Q275 724 319 724 Q360 724 397.5 715 Q435 706 467 687 Q499 668 523.5 639 Q548 610 561 569 L499 535 Q493 552 486.5 568.5 Q480 585 469 599 Q443 635 401.5 652 Q360 669 316 669 Q286 669 256.5 662.5 Q227 656 203.5 641 Q180 626 165 602 Q150 578 150 543 Q150 495 177.5 469 Q205 443 247 427 Q273 417 299.5 410.5 Q326 404 353 397.5 Q380 391 406 383.5 Q432 376 457 364 Q510 338 542.5 296 Q575 254 575 194 Z " />
<glyph glyph-name="T" unicode="T" horiz-adv-x="542" d="M304 647 L304 0 L237 0 L237 647 L15 647 L15 706 L527 706 L527 647 L304 647 Z " />
<glyph glyph-name="U" unicode="U" horiz-adv-x="688" d="M608 284 Q608 247 605.5 211 Q603 175 593.5 142 Q584 109 565 80 Q546 51 513 27 Q475 1 430.5 -8.5 Q386 -18 341 -18 Q293 -18 246.5 -5 Q200 8 162 39 Q133 63 116.5 92 Q100 121 92 153 Q84 185 82 219 Q80 253 80 288 L80 706 L146 706 L146 270 Q146 241 148 213 Q150 185 157.5 160 Q165 135 180.5 113 Q196 91 223 74 Q251 57 283.5 50.5 Q316 44 348 44 Q408 44 445.5 61 Q483 78 504.5 109 Q526 140 533.5 183.5 Q541 227 541 280 L541 706 L608 706 L608 284 Z " />
<glyph glyph-name="V" unicode="V" horiz-adv-x="604" d="M329 0 L269 0 L10 706 L84 706 L301 92 L523 706 L594 706 L329 0 Z " />
<glyph glyph-name="W" unicode="W" horiz-adv-x="875" d="M663 0 L609 0 L440 571 L272 0 L219 0 L10 706 L82 706 L248 120 L416 706 L462 706 L636 120 L797 706 L864 706 L663 0 Z " />
<glyph glyph-name="X" unicode="X" horiz-adv-x="667" d="M563 0 L335 338 L98 0 L21 0 L289 380 L58 706 L143 706 L335 421 L531 706 L612 706 L380 380 L646 0 L563 0 Z " />
<glyph glyph-name="Y" unicode="Y" horiz-adv-x="625" d="M339 292 L339 0 L273 0 L273 292 L10 706 L89 706 L307 355 L534 706 L615 706 L339 292 Z " />
<glyph glyph-name="Z" unicode="Z" horiz-adv-x="583" d="M124 60 L548 60 L548 0 L29 0 L29 44 L464 646 L55 646 L55 706 L554 706 L554 660 L124 60 Z " />
<glyph glyph-name="bracketleft" unicode="&#x5b;" horiz-adv-x="271" d="M74 -144 L74 779 L244 779 L244 728 L135 728 L135 -94 L244 -94 L244 -144 L74 -144 Z " />
<glyph glyph-name="backslash" unicode="&#x5c;" horiz-adv-x="479" d="M395 0 L10 706 L86 706 L469 0 L395 0 Z " />
<glyph glyph-name="bracketright" unicode="&#x5d;" horiz-adv-x="271" d="M26 -143 L26 -93 L135 -93 L135 730 L26 730 L26 780 L196 780 L196 -143 L26 -143 Z " />
<glyph glyph-name="asciicircum" unicode="&#x5e;" horiz-adv-x="724" d="M532 289 L362 649 L192 289 L128 289 L327 706 L395 706 L596 289 L532 289 Z " />
<glyph glyph-name="underscore" unicode="&#x5f;" horiz-adv-x="500" d="M-10 -206 L-10 -147 L510 -147 L510 -206 L-10 -206 Z " />
<glyph glyph-name="grave" unicode="&#x60;" horiz-adv-x="271" d="M195 558 L23 698 L135 698 L248 558 L195 558 Z " />
<glyph glyph-name="a" unicode="a" horiz-adv-x="500" d="M484 0 Q460 0 438 2.5 Q416 5 399.5 14 Q383 23 373.5 40 Q364 57 364 87 Q356 71 348.5 59 Q341 47 328 35 Q302 11 265.5 0.5 Q229 -10 195 -10 Q165 -10 137.5 -2 Q110 6 89.5 22.5 Q69 39 57 63.5 Q45 88 45 121 Q45 167 73 196.5 Q101 226 142 244.5 Q183 263 228.5 273.5 Q274 284 308 291 L364 303 L364 328 Q364 388 334 412.5 Q304 437 247 437 Q187 437 155.5 411 Q124 385 124 322 L59 333 Q71 414 119.5 451.5 Q168 489 248 489 Q265 489 285 486.5 Q305 484 325 478 Q345 472 362.5 463 Q380 454 391 440 Q412 415 416.5 385.5 Q421 356 421 325 L421 115 Q421 73 436 59.5 Q451 46 492 47 L492 0 L484 0 Z M364 252 Q347 247 312.5 238.5 Q278 230 241.5 219.5 Q205 209 174 198.5 Q143 188 132 179 Q118 168 110 154.5 Q102 141 102 123 Q102 82 130.5 62 Q159 42 196 42 Q219 42 243 48.5 Q267 55 288.5 67 Q310 79 327 96.5 Q344 114 353 136 Q361 155 362.5 175.5 Q364 196 364 216 L364 252 Z " />
<glyph glyph-name="b" unicode="b" horiz-adv-x="521" d="M477 233 Q477 185 466 141 Q455 97 431.5 63.5 Q408 30 370.5 9.5 Q333 -11 279 -11 Q228 -11 190.5 14 Q153 39 132 85 L132 0 L75 0 L75 706 L132 706 L132 395 Q156 439 191 463 Q226 487 277 487 Q329 487 366.5 464.5 Q404 442 428.5 405.5 Q453 369 465 323.5 Q477 278 477 233 Z M414 233 Q414 268 407 303.5 Q400 339 383 368 Q366 397 338 415.5 Q310 434 269 434 Q227 434 200 416 Q173 398 158 369 Q143 340 137.5 305 Q132 270 132 235 Q132 200 139 165.5 Q146 131 162.5 103.5 Q179 76 206.5 59 Q234 42 275 42 Q316 42 343 59 Q370 76 385.5 103.5 Q401 131 407.5 165 Q414 199 414 233 Z " />
<glyph glyph-name="c" unicode="c" horiz-adv-x="479" d="M454 107 Q398 -12 264 -12 Q209 -12 168 7.5 Q127 27 99.5 61 Q72 95 58 140 Q44 185 44 236 Q44 288 59 334 Q74 380 103 414.5 Q132 449 174.5 469 Q217 489 272 489 Q335 489 383.5 459 Q432 429 454 369 L399 355 Q384 395 347.5 415.5 Q311 436 270 436 Q228 436 197.5 419 Q167 402 147 374.5 Q127 347 117.5 311.5 Q108 276 108 238 Q108 201 116.5 165 Q125 129 143.5 101.5 Q162 74 192 57 Q222 40 265 40 Q311 40 342 60 Q373 80 394 120 L454 107 Z " />
<glyph glyph-name="d" unicode="d" horiz-adv-x="521" d="M388 0 L388 86 Q381 63 366 45 Q351 27 331.5 14.5 Q312 2 289 -4.5 Q266 -11 243 -11 Q198 -11 157 11 Q126 28 104 53 Q82 78 69 108 Q56 138 50 172 Q44 206 44 239 Q44 285 57 329.5 Q70 374 95.5 409 Q121 444 159.5 465.5 Q198 487 249 487 Q294 487 333.5 466.5 Q373 446 388 401 L388 706 L446 706 L446 0 L388 0 Z M389 243 Q389 266 387 290 Q385 314 379 336.5 Q373 359 361 378.5 Q349 398 328 411 Q311 422 291.5 427.5 Q272 433 252 433 Q213 433 185.5 415 Q158 397 140.5 369 Q123 341 115.5 306.5 Q108 272 108 239 Q108 205 115 170 Q122 135 138.5 107.5 Q155 80 182 62.5 Q209 45 250 45 Q294 45 321.5 62.5 Q349 80 364 108 Q379 136 384 171.5 Q389 207 389 243 Z " />
<glyph glyph-name="e" unicode="e" horiz-adv-x="521" d="M479 126 Q448 56 397.5 22 Q347 -12 270 -12 Q213 -12 171 8 Q129 28 100.5 62.5 Q72 97 58 143.5 Q44 190 44 243 Q44 292 58.5 336.5 Q73 381 101 415 Q129 449 170 469 Q211 489 263 489 Q316 489 356.5 468 Q397 447 424 412.5 Q451 378 465 333 Q479 288 479 239 L109 239 L109 229 Q109 189 118.5 155 Q128 121 148 96 Q168 71 199 56.5 Q230 42 273 42 Q327 42 364 68 Q401 94 424 142 L479 126 Z M411 287 Q407 319 396.5 346 Q386 373 367.5 393 Q349 413 323.5 424.5 Q298 436 264 436 Q197 436 158 393.5 Q119 351 110 287 L411 287 Z " />
<glyph glyph-name="f" unicode="f" horiz-adv-x="313" d="M187 427 L187 0 L128 0 L128 427 L23 427 L23 477 L128 477 L128 592 Q128 622 132 646 Q136 670 147.5 686.5 Q159 703 179.5 711.5 Q200 720 234 720 Q250 720 265 718 Q280 716 295 713 L295 655 Q282 662 267.5 665 Q253 668 239 668 Q207 668 196.5 648 Q186 628 186 600 Q186 569 186.5 538.5 Q187 508 187 477 L295 477 L295 427 L187 427 Z " />
<glyph glyph-name="g" unicode="g" horiz-adv-x="542" d="M466 -19 Q466 -50 463 -79.5 Q460 -109 450.5 -134.5 Q441 -160 423 -181.5 Q405 -203 375 -219 Q348 -233 317 -238.5 Q286 -244 255 -244 Q213 -244 176.5 -234.5 Q140 -225 113 -204 Q86 -183 69 -151 Q52 -119 48 -74 L110 -62 Q116 -131 154.5 -162 Q193 -193 260 -193 Q315 -193 353 -171 Q391 -149 402 -91 Q405 -74 406 -56.5 Q407 -39 407 -22 Q408 7 408.5 35 Q409 63 409 92 Q402 65 386 45.5 Q370 26 348 14 Q326 2 300.5 -4 Q275 -10 249 -10 Q195 -10 156 12 Q117 34 92 69.5 Q67 105 55.5 151 Q44 197 44 245 Q44 293 57 337 Q70 381 95.5 414 Q121 447 160.5 467 Q200 487 252 487 Q276 487 301 481 Q326 475 348 463 Q370 451 386.5 432.5 Q403 414 409 389 L409 477 L466 477 L466 -19 Z M407 238 Q407 276 401 312 Q395 348 378.5 375.5 Q362 403 333 419.5 Q304 436 259 436 Q217 436 188 419.5 Q159 403 140 376 Q121 349 112.5 314.5 Q104 280 104 243 Q104 206 111.5 170 Q119 134 136.5 105.5 Q154 77 183.5 60 Q213 43 257 43 Q302 43 331.5 59 Q361 75 377.5 101.5 Q394 128 400.5 163.5 Q407 199 407 238 Z " />
<glyph glyph-name="h" unicode="h" horiz-adv-x="521" d="M387 0 L387 296 Q387 326 382 351 Q377 376 364.5 394 Q352 412 330.5 422.5 Q309 433 275 433 Q252 433 230 427 Q208 421 190 407 Q167 389 155.5 366.5 Q144 344 139.5 318.5 Q135 293 135 266.5 Q135 240 135 214 L135 0 L75 0 L75 706 L135 706 L135 401 Q157 445 196 466 Q235 487 283 487 Q362 487 403.5 440 Q445 393 445 316 L445 0 L387 0 Z " />
<glyph glyph-name="i" unicode="i" horiz-adv-x="208" d="M75 589 L75 680 L133 680 L133 589 L75 589 Z M75 0 L75 477 L133 477 L133 0 L75 0 Z " />
<glyph glyph-name="j" unicode="j" horiz-adv-x="208" d="M75 589 L75 680 L133 680 L133 589 L75 589 Z M133 -21 Q133 -46 133 -70.5 Q133 -95 132 -120 Q132 -148 129.5 -172.5 Q127 -197 117.5 -215.5 Q108 -234 89 -245 Q70 -256 35 -256 Q-8 -256 -48 -236 L-48 -180 Q-30 -191 -9.5 -197.5 Q11 -204 32 -204 Q52 -204 64 -192 Q69 -187 71 -170.5 Q73 -154 74 -135 Q75 -116 74.5 -98.5 Q74 -81 74 -73 Q74 65 74.5 202 Q75 339 75 477 L133 477 L133 -21 Z " />
<glyph glyph-name="k" unicode="k" horiz-adv-x="500" d="M417 0 L235 247 L133 150 L133 0 L75 0 L75 706 L133 706 L133 226 L401 477 L475 477 L276 287 L489 0 L417 0 Z " />
<glyph glyph-name="l" unicode="l" horiz-adv-x="208" d="M74 0 L74 706 L134 706 L134 0 L74 0 Z " />
<glyph glyph-name="m" unicode="m" horiz-adv-x="771" d="M637 0 Q637 77 637.5 153 Q638 229 638 306 Q638 331 635 354 Q632 377 622.5 394.5 Q613 412 594.5 422.5 Q576 433 546 433 Q495 433 460 397 Q441 377 431.5 353 Q422 329 418 303.5 Q414 278 414 251.5 Q414 225 414 199 L414 0 L356 0 L356 293 Q356 319 353.5 344 Q351 369 342 388.5 Q333 408 314.5 420.5 Q296 433 264 433 Q213 433 180 398 Q161 378 151.5 353 Q142 328 138 300.5 Q134 273 134 245.5 Q134 218 134 192 L134 0 L75 0 L75 477 L134 477 L134 378 Q148 431 185 459 Q222 487 276 487 Q333 487 367.5 456 Q402 425 407 368 Q421 426 460 456.5 Q499 487 559 487 Q607 487 634.5 469 Q662 451 675.5 422 Q689 393 692.5 356 Q696 319 696 281 L696 0 L637 0 Z " />
<glyph glyph-name="n" unicode="n" horiz-adv-x="521" d="M447 295 Q447 221 446.5 147.5 Q446 74 446 0 L387 0 L387 282 Q387 300 386.5 318.5 Q386 337 382.5 354 Q379 371 371 386.5 Q363 402 347 414 Q333 425 313.5 429.5 Q294 434 276 434 Q248 434 224.5 426.5 Q201 419 181 399 Q161 380 151 357.5 Q141 335 137.5 310.5 Q134 286 134 260.5 Q134 235 134 209 L134 0 L75 0 L75 477 L134 477 L134 392 Q152 440 192.5 463.5 Q233 487 283 487 Q329 487 360.5 473 Q392 459 411 433.5 Q430 408 438.5 372.5 Q447 337 447 295 Z " />
<glyph glyph-name="o" unicode="o" horiz-adv-x="521" d="M477 239 Q477 190 463 144.5 Q449 99 421.5 64.5 Q394 30 353 9 Q312 -12 259 -12 Q206 -12 166 8 Q126 28 99 61.5 Q72 95 58 139.5 Q44 184 44 233 Q44 285 57.5 331.5 Q71 378 98.5 413 Q126 448 167.5 468.5 Q209 489 265 489 Q318 489 358 468 Q398 447 424.5 412.5 Q451 378 464 332.5 Q477 287 477 239 Z M414 241 Q414 277 406.5 312.5 Q399 348 381 376 Q363 404 334 421.5 Q305 439 263 439 Q218 439 188 421 Q158 403 140 374 Q122 345 114.5 307.5 Q107 270 107 232 Q107 196 115 161.5 Q123 127 141 100 Q159 73 187.5 56.5 Q216 40 257 40 Q301 40 331 57 Q361 74 379.5 102 Q398 130 406 166.5 Q414 203 414 241 Z " />
<glyph glyph-name="p" unicode="p" horiz-adv-x="521" d="M477 239 Q477 195 465 150.5 Q453 106 428.5 70 Q404 34 367 11.5 Q330 -11 280 -11 Q257 -11 234 -5.5 Q211 0 191.5 11.5 Q172 23 156.5 40 Q141 57 133 80 L133 -253 L75 -253 L75 477 L133 477 L133 399 Q153 444 191 465.5 Q229 487 277 487 Q328 487 366 465.5 Q404 444 428.5 409 Q453 374 465 329.5 Q477 285 477 239 Z M416 243 Q416 279 408 313 Q400 347 382 374 Q364 401 335.5 417 Q307 433 266 433 Q222 433 195.5 413.5 Q169 394 155 363 Q141 332 137 295.5 Q133 259 133 224 Q133 192 139.5 160 Q146 128 161.5 102.5 Q177 77 202.5 61 Q228 45 267 45 Q308 45 336 63 Q364 81 382 109.5 Q400 138 408 173 Q416 208 416 243 Z " />
<glyph glyph-name="q" unicode="q" horiz-adv-x="500" d="M388 -253 L388 83 Q381 59 365.5 41.5 Q350 24 329.5 12.5 Q309 1 285.5 -5 Q262 -11 239 -11 Q188 -11 151 12 Q114 35 90.5 71.5 Q67 108 55.5 153 Q44 198 44 242 Q44 289 55.5 333 Q67 377 91.5 411 Q116 445 153.5 466 Q191 487 243 487 Q289 487 329.5 466.5 Q370 446 388 401 L388 477 L445 477 L445 -253 L388 -253 Z M389 246 Q389 280 383 313.5 Q377 347 361 373.5 Q345 400 318.5 416.5 Q292 433 251 433 Q212 433 184.5 416.5 Q157 400 139 373.5 Q121 347 113 313.5 Q105 280 105 246 Q105 212 113 176 Q121 140 139 110.5 Q157 81 185.5 62.5 Q214 44 254 44 Q297 44 323.5 63 Q350 82 364.5 111 Q379 140 384 176 Q389 212 389 246 Z " />
<glyph glyph-name="r" unicode="r" horiz-adv-x="313" d="M306 429 Q285 432 265 432 Q242 432 220.5 425.5 Q199 419 182 404 Q161 386 151 362 Q141 338 137 311.5 Q133 285 133.5 258 Q134 231 134 206 L134 0 L75 0 L75 477 L134 477 L134 401 Q153 443 187.5 464 Q222 485 267 485 Q287 485 306 482 L306 429 Z " />
<glyph glyph-name="s" unicode="s" horiz-adv-x="458" d="M404 135 Q404 98 388.5 70.5 Q373 43 348 24.5 Q323 6 291 -3 Q259 -12 226 -12 Q157 -12 109 20.5 Q61 53 34 116 L92 137 Q103 90 141.5 66 Q180 42 226 42 Q248 42 269.5 47 Q291 52 308.5 63 Q326 74 336.5 92 Q347 110 347 135 Q347 170 326 187 Q305 204 273.5 213.5 Q242 223 205.5 229.5 Q169 236 137.5 249 Q106 262 85 286.5 Q64 311 64 356 Q64 392 78.5 417 Q93 442 117 458 Q141 474 171.5 481.5 Q202 489 233 489 Q261 489 288.5 483.5 Q316 478 339 465.5 Q362 453 379.5 432 Q397 411 404 381 L348 366 Q344 387 331.5 400.5 Q319 414 302.5 422 Q286 430 267 433.5 Q248 437 230 437 Q211 437 192 433.5 Q173 430 157.5 421 Q142 412 132 397 Q122 382 122 359 Q122 327 143 311.5 Q164 296 195 287.5 Q226 279 263 273 Q300 267 331 252.5 Q362 238 383 211 Q404 184 404 135 Z " />
<glyph glyph-name="t" unicode="t" horiz-adv-x="292" d="M277 14 Q260 2 240.5 -3.5 Q221 -9 201 -9 Q168 -9 150.5 1 Q133 11 125 28.5 Q117 46 116 69 Q115 92 115 117 L115 427 L15 427 L15 477 L115 477 L115 680 L172 680 L172 477 L277 477 L277 427 L172 427 L172 101 Q172 82 179 62.5 Q186 43 211 43 Q228 43 245.5 52.5 Q263 62 277 73 L277 14 Z " />
<glyph glyph-name="u" unicode="u" horiz-adv-x="521" d="M387 0 L387 86 Q367 34 326.5 11.5 Q286 -11 232 -11 Q206 -11 180.5 -3.5 Q155 4 135 21 Q114 38 102 58.5 Q90 79 84 102 Q78 125 76.5 150 Q75 175 75 199 L75 477 L135 477 L135 204 Q135 173 137.5 144 Q140 115 151 93 Q162 71 184 57.5 Q206 44 245 44 Q272 44 296 51.5 Q320 59 340 79 Q372 111 379.5 151.5 Q387 192 387 235 L387 261 L387 477 L446 477 L446 0 L387 0 Z " />
<glyph glyph-name="v" unicode="v" horiz-adv-x="417" d="M223 0 L175 0 L10 477 L69 477 L201 89 L348 477 L406 477 L223 0 Z " />
<glyph glyph-name="w" unicode="w" horiz-adv-x="688" d="M516 0 L467 0 L349 393 L232 0 L182 0 L21 477 L78 477 L206 92 L323 477 L373 477 L491 92 L610 477 L667 477 L516 0 Z " />
<glyph glyph-name="x" unicode="x" horiz-adv-x="458" d="M369 0 L229 203 L84 0 L21 0 L196 248 L35 477 L104 477 L229 295 L358 477 L421 477 L261 248 L436 0 L369 0 Z " />
<glyph glyph-name="y" unicode="y" horiz-adv-x="437" d="M212 -69 Q204 -89 196.5 -108 Q189 -127 181 -147 Q173 -167 164 -184 Q155 -201 143 -214 Q131 -227 114.5 -234.5 Q98 -242 74 -242 Q39 -242 11 -223 L11 -163 Q25 -172 41 -179 Q57 -186 74 -186 Q90 -186 101.5 -175.5 Q113 -165 121 -150.5 Q129 -136 135 -120 Q141 -104 146 -92 Q155 -69 164 -46 Q173 -23 181 0 L16 477 L73 477 L212 71 L367 477 L427 477 L212 -69 Z " />
<glyph glyph-name="z" unicode="z" horiz-adv-x="396" d="M28 0 L28 37 L286 426 L50 426 L50 477 L369 477 L369 442 L111 53 L376 53 L376 0 L28 0 Z " />
<glyph glyph-name="braceleft" unicode="&#x7b;" horiz-adv-x="268" d="M226 -147 Q191 -145 169.5 -138 Q148 -131 132 -112 Q116 -93 110 -69 Q106 -52 104.5 -36 Q103 -20 103 14 L103 20 L104 186 Q104 216 102 232 Q100 248 94 259 Q86 274 68.5 281.5 Q51 289 19 292 L19 343 Q42 345 53 348 Q64 351 75 358 Q92 368 98 386.5 Q104 405 104 449 L103 616 L103 621 Q103 656 104 672 Q105 688 110 705 Q128 783 226 783 L255 783 L255 734 L238 734 Q215 734 202.5 730.5 Q190 727 182 718 Q173 709 170 696 Q169 690 168 685.5 Q167 681 166 673.5 Q165 666 165 655 Q165 644 165 626 L165 452 Q165 421 161.5 399.5 Q158 378 149 363 Q140 348 124 337 Q108 326 84 317 Q101 312 110.5 307.5 Q120 303 131 293 Q151 275 158 251.5 Q165 228 165 183 L165 9 Q165 -26 166 -38 Q167 -50 170 -61 Q175 -81 190.5 -90 Q206 -99 238 -99 L255 -99 L255 -148 L226 -147 Z " />
<glyph glyph-name="bar" unicode="&#x7c;" horiz-adv-x="229" d="M83 -143 L83 778 L144 778 L144 -143 L83 -143 Z " />
<glyph glyph-name="braceright" unicode="&#x7d;" horiz-adv-x="268" d="M248 292 Q225 290 214 287 Q203 284 192 277 Q175 267 169 248.5 Q163 230 163 186 L164 19 L164 14 Q164 -21 163 -37 Q162 -53 157 -70 Q137 -148 41 -148 L12 -148 L12 -99 L30 -99 Q53 -99 65 -95.5 Q77 -92 85 -83 Q94 -74 97 -61 Q99 -55 99.5 -50.5 Q100 -46 101 -39 Q102 -32 102 -20.5 Q102 -9 102 9 L102 183 Q102 214 105.5 235.5 Q109 257 118 272 Q127 287 143 298 Q159 309 183 318 Q166 323 157 327.5 Q148 332 137 342 Q117 360 109.5 383.5 Q102 407 102 452 L102 625 Q102 660 101 672.5 Q100 685 97 696 Q92 716 76.5 725 Q61 734 30 734 L12 734 L12 783 L41 782 Q76 780 97.5 773 Q119 766 135 747 Q150 730 157 704 Q162 687 163 671 Q164 655 164 621 L164 615 L163 449 Q163 419 165 403 Q167 387 173 376 Q181 361 198.5 353 Q216 345 248 343 L248 292 Z " />
<glyph glyph-name="asciitilde" unicode="&#x7e;" horiz-adv-x="724" d="M650 318 Q627 289 612.5 275.5 Q598 262 578 248 Q533 219 485 219 Q468 219 454 222 Q440 225 420 233 Q406 238 393.5 243 Q381 248 366 256 L330 274 Q295 291 271.5 297.5 Q248 304 226 304 Q208 304 193 298 Q176 291 163.5 277.5 Q151 264 125 236 L115 225 L75 266 Q93 292 103.5 303.5 Q114 315 128 328 Q173 367 232 367 Q251 367 274 362 Q283 360 292 357 Q301 354 311.5 350 Q322 346 336 340 Q350 334 370 325 L411 307 Q446 292 461 287 Q476 282 490 282 Q507 282 524.5 288 Q542 294 556 305 Q570 315 580 325 Q590 335 610 359 L650 318 Z " />
<glyph glyph-name="nbspace" unicode="&#xa0;" horiz-adv-x="258" d="" />
<glyph glyph-name="exclamdown" unicode="&#xa1;" horiz-adv-x="208" d="M47 596 L47 712 L122 712 L122 596 L47 596 Z M52 0 L52 405 Q52 416 53 427 Q54 438 55 449 L61 536 L108 536 L114 449 Q115 438 116 427 Q117 416 117 405 L117 0 L52 0 Z " />
<glyph glyph-name="cent" unicode="&#xa2;" horiz-adv-x="479" d="M454 107 Q432 53 389.5 23.5 Q347 -6 290 -11 L290 -113 L240 -113 L240 -11 Q190 -6 153 16 Q116 38 92 71 Q68 104 56 146.5 Q44 189 44 236 Q44 283 56 325.5 Q68 368 92.5 401.5 Q117 435 154 458 Q191 481 240 487 L240 580 L290 580 L290 488 Q317 488 343 479 Q369 470 391 454.5 Q413 439 429 417 Q445 395 454 369 L399 355 Q385 391 356 410 Q327 429 290 435 L290 42 Q328 48 352 68 Q376 88 394 120 L454 107 Z M240 433 Q204 426 179 407 Q154 388 138.5 361.5 Q123 335 115.5 303 Q108 271 108 238 Q108 217 111.5 193.5 Q115 170 122.5 147.5 Q130 125 142.5 105 Q155 85 172 71 Q187 59 204 52.5 Q221 46 240 42 L240 433 Z " />
<glyph glyph-name="sterling" unicode="&#xa3;" horiz-adv-x="604" d="M565 181 Q565 147 559.5 113.5 Q554 80 539 54.5 Q524 29 497.5 13 Q471 -3 430 -3 Q388 -3 350 13.5 Q312 30 277 50 Q249 22 219 8.5 Q189 -5 150 -5 Q131 -5 111.5 -1 Q92 3 76.5 12.5 Q61 22 51.5 37.5 Q42 53 42 75 Q42 95 51 109.5 Q60 124 74 133 Q88 142 105.5 146.5 Q123 151 140 151 Q166 151 196.5 143.5 Q227 136 250 123 Q258 140 263.5 158 Q269 176 269 195 Q269 221 258.5 243 Q248 265 229 282 L97 282 L97 334 L190 334 Q175 345 162.5 357.5 Q150 370 138 384 Q111 416 91 449.5 Q71 483 71 527 Q71 571 91 604 Q111 637 142.5 660 Q174 683 213.5 694.5 Q253 706 292 706 Q339 706 378.5 695 Q418 684 448.5 660.5 Q479 637 498 601.5 Q517 566 522 517 L456 503 Q456 538 443 565 Q430 592 407.5 610 Q385 628 355.5 637 Q326 646 293 646 Q266 646 238.5 639 Q211 632 189.5 617.5 Q168 603 154 580.5 Q140 558 140 527 Q140 502 150.5 480 Q161 458 177 438.5 Q193 419 211 402 Q229 385 245 368 Q253 360 261 351 Q269 342 277 334 L429 334 L429 282 L308 282 Q321 261 328 238.5 Q335 216 335 191 Q335 169 328.5 145 Q322 121 308 104 Q320 98 336.5 90 Q353 82 371 74.5 Q389 67 406.5 61.5 Q424 56 437 56 Q461 56 474 70.5 Q487 85 492.5 105.5 Q498 126 498.5 148.5 Q499 171 499 188 L565 181 Z M229 74 Q209 88 185.5 93.5 Q162 99 139 99 Q125 99 109.5 94.5 Q94 90 94 72 Q94 56 111 50 Q128 44 141 44 Q164 44 188.5 50.5 Q213 57 229 74 Z " />
<glyph glyph-name="currency" unicode="&#xa4;" horiz-adv-x="667" d="M536 495 Q590 425 590 339 Q590 294 577 258 Q564 222 535 182 L609 107 L563 62 L489 137 Q451 108 415.5 95.5 Q380 83 332 83 Q286 83 252.5 94.5 Q219 106 177 137 L102 64 L57 109 L132 182 Q102 224 89.5 259.5 Q77 295 77 341 Q77 386 89.5 421 Q102 456 132 496 L59 569 L104 614 L177 542 Q216 571 252 583.5 Q288 596 333 596 Q379 596 420 582 Q461 568 490 542 L564 615 L610 569 L536 495 Z M527 339 Q527 382 512.5 418 Q498 454 472 480.5 Q446 507 411 522 Q376 537 334 537 Q293 537 257.5 522 Q222 507 195.5 480.5 Q169 454 154 418 Q139 382 139 340 Q139 298 154 261.5 Q169 225 195.5 198.5 Q222 172 258.5 157 Q295 142 337 142 Q378 142 412.5 157 Q447 172 472.5 198.5 Q498 225 512.5 261 Q527 297 527 339 Z " />
<glyph glyph-name="yen" unicode="&#xa5;" horiz-adv-x="625" d="M410 399 L567 399 L567 343 L373 343 L339 290 L567 290 L567 234 L339 234 L339 0 L273 0 L273 234 L58 234 L58 290 L273 290 L241 343 L58 343 L58 399 L205 399 L10 706 L89 706 L307 358 L534 706 L615 706 L410 399 Z " />
<glyph glyph-name="brokenbar" unicode="&#xa6;" horiz-adv-x="229" d="M84 383 L84 778 L145 778 L145 383 L84 383 Z M84 -143 L84 253 L145 253 L145 -143 L84 -143 Z " />
<glyph glyph-name="section" unicode="&#xa7;" horiz-adv-x="521" d="M474 356 Q474 299 446.5 261.5 Q419 224 370 199 Q408 177 429.5 149 Q451 121 451 75 Q451 36 435 6.5 Q419 -23 393 -42.5 Q367 -62 333 -72 Q299 -82 264 -82 Q200 -82 142 -56 Q84 -30 39 16 L86 62 Q121 27 169.5 4 Q218 -19 269 -19 Q290 -19 310.5 -13.5 Q331 -8 347.5 3.5 Q364 15 374 32 Q384 49 384 73 Q384 96 371.5 112.5 Q359 129 340.5 141 Q322 153 301 162 Q280 171 263 178 Q239 189 215 200 Q191 211 168 224 Q145 236 123.5 250.5 Q102 265 85.5 283 Q69 301 59.5 323.5 Q50 346 50 375 Q50 429 82 471 Q114 513 165 530 Q133 551 114 577 Q95 603 95 643 Q95 657 98.5 670 Q102 683 107 696 Q127 741 165.5 762 Q204 783 252 783 Q310 783 355 758.5 Q400 734 442 697 L396 652 Q363 680 328.5 701 Q294 722 248 722 Q211 722 186 702 Q161 682 161 643 Q161 614 184 594.5 Q207 575 242 558.5 Q277 542 317.5 526.5 Q358 511 393 488.5 Q428 466 451 434.5 Q474 403 474 356 Z M410 350 Q410 370 403.5 385.5 Q397 401 383 416 Q372 428 350.5 440 Q329 452 304.5 463.5 Q280 475 256 484 Q232 493 216 499 Q198 491 179.5 479 Q161 467 147 451.5 Q133 436 124 417.5 Q115 399 115 377 Q115 360 120.5 348 Q126 336 137 324 Q147 313 171.5 298 Q196 283 224.5 269 Q253 255 280 243.5 Q307 232 322 227 Q337 235 352.5 248.5 Q368 262 381 278.5 Q394 295 402 313.5 Q410 332 410 350 Z " />
<glyph glyph-name="dieresis" unicode="&#xa8;" horiz-adv-x="271" d="M191 582 L191 674 L252 674 L252 582 L191 582 Z M19 582 L19 674 L80 674 L80 582 L19 582 Z " />
<glyph glyph-name="copyright" unicode="&#xa9;" horiz-adv-x="833" d="M773 358 Q773 282 745.5 216 Q718 150 670 101.5 Q622 53 557 25 Q492 -3 417 -3 Q342 -3 277 24.5 Q212 52 164 100 Q116 148 88.5 213 Q61 278 61 353 Q61 428 88.5 493 Q116 558 164 606 Q212 654 277.5 681.5 Q343 709 418 709 Q492 709 556.5 681.5 Q621 654 669 606.5 Q717 559 745 495 Q773 431 773 358 Z M740 352 Q740 421 715.5 480 Q691 539 647.5 583 Q604 627 545 652 Q486 677 418 677 Q350 677 291 652 Q232 627 188 583 Q144 539 118.5 479.5 Q93 420 93 352 Q93 285 118.5 226 Q144 167 187.5 123.5 Q231 80 290.5 54.5 Q350 29 417 29 Q484 29 543 54.5 Q602 80 645.5 123.5 Q689 167 714.5 226 Q740 285 740 352 Z M606 276 Q589 200 541 159.5 Q493 119 420 119 Q375 119 338.5 135 Q302 151 276 181 Q250 211 236 252.5 Q222 294 222 345 Q222 399 237 443 Q252 487 279.5 519 Q307 551 345 568.5 Q383 586 429 586 Q566 586 602 448 L548 436 Q532 490 503 513 Q474 536 424 536 Q356 536 318 487 Q280 438 280 350 Q280 264 317.5 217 Q355 170 424 170 Q475 170 508 198.5 Q541 227 553 282 L606 276 Z " />
<glyph glyph-name="ordfeminine" unicode="&#xaa;" horiz-adv-x="313" d="M299 406 Q289 406 276 407.5 Q263 409 251 413 Q239 417 231 425.5 Q223 434 223 447 Q206 422 179 411 Q152 400 123 400 Q83 400 54.5 421 Q26 442 26 485 Q26 517 47.5 537.5 Q69 558 100 570.5 Q131 583 164 589.5 Q197 596 221 600 L221 611 Q221 644 204.5 658.5 Q188 673 156 673 Q116 673 100 657 Q84 641 84 601 L34 610 Q40 658 69 686 Q98 714 147 714 Q164 714 182.5 712 Q201 710 216.5 703 Q232 696 244.5 684.5 Q257 673 262 653 Q265 642 265 630 Q265 618 265 607 L265 495 Q265 466 271 455.5 Q277 445 309 445 L309 406 L299 406 Z M221 558 Q212 555 192.5 550.5 Q173 546 152 540 Q131 534 113 528 Q95 522 89 517 Q81 510 76.5 503.5 Q72 497 72 486 Q72 463 88 452.5 Q104 442 125 442 Q151 442 176.5 456 Q202 470 213 494 Q218 505 219.5 517.5 Q221 530 221 542 L221 558 Z " />
<glyph glyph-name="guillemotleft" unicode="&#xab;" horiz-adv-x="375" d="M292 137 L173 309 L292 494 L339 464 L240 309 L339 168 L292 137 Z M156 137 L38 309 L156 494 L204 464 L104 309 L204 168 L156 137 Z " />
<glyph glyph-name="logicalnot" unicode="&#xac;" horiz-adv-x="724" d="M576 0 L576 263 L71 263 L71 323 L637 323 L637 0 L576 0 Z " />
<glyph glyph-name="registered" unicode="&#xae;" horiz-adv-x="833" d="M772 351 Q771 276 743 211.5 Q715 147 667 99.5 Q619 52 554 24.5 Q489 -3 415 -3 Q341 -3 276.5 25 Q212 53 164 101 Q116 149 88.5 214.5 Q61 280 61 355 Q61 429 88.5 493.5 Q116 558 164 606 Q212 654 277 681.5 Q342 709 417 709 Q491 709 556 681.5 Q621 654 669 606.5 Q717 559 745 494.5 Q773 430 773 356 L772 351 Z M740 351 Q740 420 715 479.5 Q690 539 646.5 583 Q603 627 544 652 Q485 677 417 677 Q349 677 290 651.5 Q231 626 187 582 Q143 538 117.5 479 Q92 420 92 352 Q92 285 117.5 226 Q143 167 186.5 123.5 Q230 80 289.5 54.5 Q349 29 416 29 Q483 29 542 54.5 Q601 80 645 123.5 Q689 167 714.5 225.5 Q740 284 740 351 Z M505 128 L413 326 L339 326 L339 128 L285 128 L285 578 L408 578 Q457 578 484 569.5 Q511 561 529 541 Q558 509 558 452 Q558 350 469 332 L564 128 L505 128 Z M504 452 Q504 496 484 512.5 Q464 529 410 529 L339 529 L339 373 L417 373 Q465 373 484.5 391 Q504 409 504 452 Z " />
<glyph glyph-name="macron" unicode="&#xaf;" horiz-adv-x="271" d="M19 582 L19 644 L252 644 L252 582 L19 582 Z " />
<glyph glyph-name="degree" unicode="&#xb0;" horiz-adv-x="354" d="M324 601 Q324 571 312.5 544 Q301 517 281 497 Q261 477 234 465.5 Q207 454 177 454 Q147 454 120 465.5 Q93 477 73 497 Q53 517 41.5 544 Q30 571 30 601 Q30 631 41.5 658 Q53 685 73 705 Q93 725 120 736.5 Q147 748 177 748 Q207 748 233.5 736.5 Q260 725 280.5 704.5 Q301 684 312.5 657.5 Q324 631 324 601 Z M263 601 Q263 637 238 662.5 Q213 688 177 688 Q141 688 115.5 662.5 Q90 637 90 601 Q90 565 115.5 539.5 Q141 514 177 514 Q213 514 238 539.5 Q263 565 263 601 Z " />
<glyph glyph-name="plusminus" unicode="&#xb1;" horiz-adv-x="724" d="M392 348 L392 119 L332 119 L332 348 L94 348 L94 408 L332 408 L332 636 L392 636 L392 408 L630 408 L630 348 L392 348 Z M94 0 L94 60 L630 60 L630 0 L94 0 Z " />
<glyph glyph-name="twosuperior" unicode="&#xb2;" horiz-adv-x="375" d="M338 572 Q338 529 316.5 490.5 Q295 452 262.5 419 Q230 386 192 358 Q154 330 122 309 L324 309 L324 265 L41 265 L41 307 Q64 321 94.5 342 Q125 363 156 386.5 Q187 410 213.5 434.5 Q240 459 255 480 Q270 501 278.5 524.5 Q287 548 287 574 Q287 619 259.5 645.5 Q232 672 187 672 Q147 672 116.5 647.5 Q86 623 86 581 Q86 557 96.5 537 Q107 517 123 500 L57 508 Q49 526 44.5 544.5 Q40 563 40 583 Q40 615 51.5 639.5 Q63 664 83.5 680.5 Q104 697 130.5 705.5 Q157 714 187 714 Q253 714 295.5 677 Q338 640 338 572 Z " />
<glyph glyph-name="threesuperior" unicode="&#xb3;" horiz-adv-x="375" d="M335 390 Q335 357 323 332.5 Q311 308 290.5 291 Q270 274 242.5 265.5 Q215 257 185 257 Q138 257 99 278.5 Q60 300 42 345 Q37 358 34.5 370.5 Q32 383 30 397 L82 414 Q82 360 106 331 Q130 302 187 302 Q227 302 255 322.5 Q283 343 283 386 Q283 413 275 429.5 Q267 446 253 455.5 Q239 465 219 468.5 Q199 472 176 472 L110 472 L110 516 Q123 516 135.5 515.5 Q148 515 162 515 Q182 515 202.5 517.5 Q223 520 239.5 527.5 Q256 535 266 550.5 Q276 566 276 591 Q276 630 249.5 651 Q223 672 186 672 Q143 672 116.5 645.5 Q90 619 92 575 L37 589 Q52 650 86.5 682 Q121 714 186 714 Q215 714 240.5 706.5 Q266 699 285 683.5 Q304 668 315 644.5 Q326 621 326 590 Q326 517 258 496 Q296 485 315.5 456.5 Q335 428 335 390 Z " />
<glyph glyph-name="acute" unicode="&#xb4;" horiz-adv-x="271" d="M77 558 L24 558 L136 698 L247 698 L77 558 Z " />
<glyph glyph-name="mu" unicode="&#xb5;" horiz-adv-x="536" d="M510 -2 Q497 -6 489.5 -7 Q482 -8 473 -8 Q432 -8 413.5 11 Q395 30 393 73 Q368 28 337 8 Q306 -12 258 -12 Q219 -12 191.5 1.5 Q164 15 141 47 L145 -216 L81 -216 L81 471 L142 471 L142 225 Q142 171 147 141.5 Q152 112 165 92 Q179 70 204.5 57 Q230 44 258 44 Q293 44 322.5 63 Q352 82 369 116 Q375 128 379 139 Q383 150 385 164.5 Q387 179 388 198 Q389 217 389 244 L390 471 L450 471 L450 114 Q450 70 456.5 55.5 Q463 41 483 41 Q490 41 495 42 Q500 43 510 48 L510 -2 Z " />
<glyph glyph-name="paragraph" unicode="&#xb6;" horiz-adv-x="643" d="M485 662 L485 -167 L439 -167 L439 662 L282 662 L282 -167 L236 -167 L236 331 Q217 333 208.5 335 Q200 337 189 341 Q138 359 108.5 405.5 Q79 452 79 513 Q79 597 132 650 Q162 680 199.5 693 Q237 706 297 706 L518 706 L518 662 L485 662 Z " />
<glyph glyph-name="periodcentered" unicode="&#xb7;" horiz-adv-x="187" d="M53 236 L53 344 L134 344 L134 236 L53 236 Z " />
<glyph glyph-name="cedilla" unicode="&#xb8;" horiz-adv-x="271" d="M205 -108 Q205 -129 196 -144.5 Q187 -160 172.5 -170 Q158 -180 140 -185 Q122 -190 103 -190 Q84 -190 66 -187 L66 -160 L73 -160 Q78 -160 84 -161 Q90 -162 95 -162 Q115 -162 134.5 -154 Q154 -146 154 -122 Q154 -103 138 -94 Q122 -85 105 -85 Q86 -85 66 -95 L66 -70 L107 0 L131 0 L107 -47 Q115 -46 122 -45 Q129 -44 137 -44 Q166 -44 185.5 -61.5 Q205 -79 205 -108 Z " />
<glyph glyph-name="onesuperior" unicode="&#xb9;" horiz-adv-x="375" d="M180 265 L180 610 Q165 602 149.5 599.5 Q134 597 117 597 L102 597 L102 641 Q139 641 159.5 652.5 Q180 664 180 706 L228 706 L228 265 L180 265 Z " />
<glyph glyph-name="ordmasculine" unicode="&#xba;" horiz-adv-x="333" d="M304 558 Q304 527 295 498 Q286 469 268.5 447 Q251 425 225 412 Q199 399 165 399 Q131 399 105.5 411.5 Q80 424 63 445.5 Q46 467 37.5 495 Q29 523 29 554 Q29 586 38 615 Q47 644 64.5 666 Q82 688 108 701 Q134 714 169 714 Q202 714 227 701 Q252 688 269.5 666.5 Q287 645 295.5 616.5 Q304 588 304 558 Z M255 554 Q255 575 251 596.5 Q247 618 237 635 Q227 652 210.5 662.5 Q194 673 168 673 Q142 673 125 662.5 Q108 652 97.5 635 Q87 618 82.5 596.5 Q78 575 78 553 Q78 532 82.5 511.5 Q87 491 97.5 475.5 Q108 460 125 450.5 Q142 441 166 441 Q190 441 207 450.5 Q224 460 234.5 476 Q245 492 250 512.5 Q255 533 255 554 Z " />
<glyph glyph-name="guillemotright" unicode="&#xbb;" horiz-adv-x="375" d="M219 137 L171 167 L270 322 L171 463 L219 494 L337 322 L219 137 Z M83 137 L36 167 L135 322 L36 463 L83 494 L202 322 L83 137 Z " />
<glyph glyph-name="onequarter" unicode="&#xbc;" horiz-adv-x="875" d="M779 108 L779 0 L731 0 L731 108 L539 108 L539 146 L730 442 L779 442 L779 152 L845 152 L845 108 L779 108 Z M285 -39 L245 -21 L596 749 L638 730 L285 -39 Z M180 265 L180 610 Q165 602 149.5 599.5 Q134 597 117 597 L102 597 L102 641 Q139 641 159.5 652.5 Q180 664 180 706 L228 706 L228 265 L180 265 Z M731 358 L596 152 L731 152 L731 358 Z " />
<glyph glyph-name="onehalf" unicode="&#xbd;" horiz-adv-x="875" d="M838 307 Q838 264 816.5 225.5 Q795 187 762.5 154 Q730 121 692 93 Q654 65 622 44 L824 44 L824 0 L541 0 L541 42 Q562 55 593 76.5 Q624 98 655.5 122 Q687 146 714.5 170.5 Q742 195 755 215 Q769 236 778 259.5 Q787 283 787 309 Q787 354 759.5 380.5 Q732 407 687 407 Q647 407 616.5 382.5 Q586 358 586 316 Q586 293 597 272.5 Q608 252 623 235 L557 243 Q549 261 544.5 279.5 Q540 298 540 318 Q540 350 551.5 374.5 Q563 399 583.5 415.5 Q604 432 630.5 440.5 Q657 449 687 449 Q753 449 795.5 412 Q838 375 838 307 Z M261 -39 L221 -21 L573 749 L614 730 L261 -39 Z M180 265 L180 610 Q165 602 149.5 599.5 Q134 597 117 597 L102 597 L102 641 Q139 641 159.5 652.5 Q180 664 180 706 L228 706 L228 265 L180 265 Z " />
<glyph glyph-name="threequarters" unicode="&#xbe;" horiz-adv-x="875" d="M779 108 L779 0 L731 0 L731 108 L539 108 L539 146 L730 442 L779 442 L779 152 L845 152 L845 108 L779 108 Z M320 -39 L280 -21 L632 749 L673 730 L320 -39 Z M335 390 Q335 357 323 332.5 Q311 308 290.5 291 Q270 274 242.5 265.5 Q215 257 185 257 Q138 257 99 278.5 Q60 300 42 345 Q37 358 34.5 370.5 Q32 383 30 397 L82 414 Q82 360 106 331 Q130 302 187 302 Q227 302 255 322.5 Q283 343 283 386 Q283 413 275 429.5 Q267 446 253 455.5 Q239 465 219 468.5 Q199 472 176 472 L110 472 L110 516 Q123 516 135.5 515.5 Q148 515 162 515 Q182 515 202.5 517.5 Q223 520 239.5 527.5 Q256 535 266 550.5 Q276 566 276 591 Q276 630 249.5 651 Q223 672 186 672 Q143 672 116.5 645.5 Q90 619 92 575 L37 589 Q52 650 86.5 682 Q121 714 186 714 Q215 714 240.5 706.5 Q266 699 285 683.5 Q304 668 315 644.5 Q326 621 326 590 Q326 517 258 496 Q296 485 315.5 456.5 Q335 428 335 390 Z M731 358 L596 152 L731 152 L731 358 Z " />
<glyph glyph-name="questiondown" unicode="&#xbf;" horiz-adv-x="479" d="M195 590 L195 706 L273 706 L273 590 L195 590 Z M413 177 Q413 132 398.5 97 Q384 62 358.5 38 Q333 14 297 1 Q261 -12 217 -12 Q175 -12 138.5 2 Q102 16 75 41.5 Q48 67 32.5 102.5 Q17 138 17 181 Q17 218 26 246 Q35 274 51 298 Q67 322 88.5 343.5 Q110 365 135 388 Q155 406 168 418 Q181 430 189 443 Q197 456 200.5 473 Q204 490 204 518 L204 537 L266 537 L266 503 Q266 473 262 453.5 Q258 434 249 418.5 Q240 403 225.5 388.5 Q211 374 190 355 Q171 337 152 318.5 Q133 300 117.5 279.5 Q102 259 92 235.5 Q82 212 82 184 Q82 124 120 85.5 Q158 47 218 47 Q281 47 316 84 Q351 121 351 183 Q351 206 345.5 232.5 Q340 259 326 279 L401 258 Q405 238 409 217.5 Q413 197 413 177 Z " />
<glyph glyph-name="Agrave" unicode="&#xc0;" horiz-adv-x="646" d="M307 770 L160 895 L266 895 L364 770 L307 770 Z M562 0 L481 213 L165 213 L84 0 L10 0 L298 706 L354 706 L635 0 L562 0 Z M325 628 L187 267 L461 267 L325 628 Z " />
<glyph glyph-name="Aacute" unicode="&#xc1;" horiz-adv-x="646" d="M336 770 L278 770 L377 895 L483 895 L336 770 Z M562 0 L481 213 L165 213 L84 0 L10 0 L298 706 L354 706 L635 0 L562 0 Z M325 628 L187 267 L461 267 L325 628 Z " />
<glyph glyph-name="Acircumflex" unicode="&#xc2;" horiz-adv-x="646" d="M402 772 L324 828 L247 772 L200 772 L305 895 L347 895 L451 772 L402 772 Z M562 0 L481 213 L165 213 L84 0 L10 0 L298 706 L354 706 L635 0 L562 0 Z M325 628 L187 267 L461 267 L325 628 Z " />
<glyph glyph-name="Atilde" unicode="&#xc3;" horiz-adv-x="646" d="M494 867 Q490 861 487.5 854.5 Q485 848 482 841 Q470 815 450.5 794.5 Q431 774 399 774 Q378 774 358 782.5 Q338 791 319 801.5 Q300 812 282.5 820.5 Q265 829 251 829 Q228 829 216.5 810.5 Q205 792 198 774 L158 787 Q163 803 171.5 821 Q180 839 192 854.5 Q204 870 220 880 Q236 890 256 890 Q277 890 296 881.5 Q315 873 333 862.5 Q351 852 367 843 Q383 834 398 834 Q418 834 431 851.5 Q444 869 451 886 L494 867 Z M562 0 L481 213 L165 213 L84 0 L10 0 L298 706 L354 706 L635 0 L562 0 Z M325 628 L187 267 L461 267 L325 628 Z " />
<glyph glyph-name="Adieresis" unicode="&#xc4;" horiz-adv-x="646" d="M403 784 L403 881 L470 881 L470 784 L403 784 Z M184 784 L184 881 L251 881 L251 784 L184 784 Z M562 0 L481 213 L165 213 L84 0 L10 0 L298 706 L354 706 L635 0 L562 0 Z M325 628 L187 267 L461 267 L325 628 Z " />
<glyph glyph-name="Aring" unicode="&#xc5;" horiz-adv-x="646" d="M408 827 Q408 795 384 771.5 Q360 748 328 748 Q296 748 272 771 Q248 794 248 827 Q248 860 271.5 883.5 Q295 907 328 907 Q360 907 384 883 Q408 859 408 827 Z M562 0 L481 213 L165 213 L84 0 L10 0 L298 706 L354 706 L635 0 L562 0 Z M369 829 Q369 846 356 858.5 Q343 871 326 871 Q309 871 296.5 858.5 Q284 846 284 829 Q284 812 296.5 799 Q309 786 326 786 Q344 786 356.5 798.5 Q369 811 369 829 Z M325 628 L187 267 L461 267 L325 628 Z " />
<glyph glyph-name="AE" unicode="&#xc6;" horiz-adv-x="1000" d="M474 0 L474 204 L208 204 L79 0 L0 0 L452 706 L951 706 L951 645 L540 645 L540 391 L910 391 L910 329 L540 329 L540 60 L970 60 L970 0 L474 0 Z M474 632 L248 267 L474 267 L474 632 Z " />
<glyph glyph-name="Ccedilla" unicode="&#xc7;" horiz-adv-x="667" d="M557 507 L557 509 Q557 517 552.5 529 Q548 541 542 553.5 Q536 566 529 577.5 Q522 589 517 595 Q485 635 444 650 Q403 665 354 665 Q287 665 242 638.5 Q197 612 170 568.5 Q143 525 131.5 469.5 Q120 414 120 357 Q120 295 131.5 238 Q143 181 171 137.5 Q199 94 246.5 68 Q294 42 366 42 Q416 42 453 59 Q490 76 520 116 Q532 133 542.5 152.5 Q553 172 557 192 L620 154 Q583 70 519 26.5 Q455 -17 363 -18 L348 -47 Q363 -44 378 -44 Q407 -44 426.5 -61 Q446 -78 446 -108 Q446 -129 437 -144.5 Q428 -160 413.5 -170 Q399 -180 381 -185 Q363 -190 344 -190 Q326 -190 308 -187 L308 -160 L315 -160 Q320 -160 326 -161 Q332 -162 337 -162 Q357 -162 376 -154 Q395 -146 395 -122 Q395 -102 379 -93.5 Q363 -85 346 -85 Q328 -85 308 -95 L308 -70 L338 -17 Q306 -13 275 -7.5 Q244 -2 215 12 Q168 35 136 72.5 Q104 110 85 155 Q66 200 58 249.5 Q50 299 50 348 Q50 421 66 489 Q82 557 118 609 Q154 661 211.5 692.5 Q269 724 352 724 Q431 724 493 695 Q555 666 597 596 Q605 582 611 568.5 Q617 555 625 541 L557 507 Z " />
<glyph glyph-name="Egrave" unicode="&#xc8;" horiz-adv-x="604" d="M286 770 L139 895 L245 895 L344 770 L286 770 Z M81 0 L81 706 L542 706 L542 645 L148 645 L148 393 L505 393 L505 331 L148 331 L148 62 L567 62 L567 0 L81 0 Z " />
<glyph glyph-name="Eacute" unicode="&#xc9;" horiz-adv-x="604" d="M315 770 L258 770 L357 895 L462 895 L315 770 Z M81 0 L81 706 L542 706 L542 645 L148 645 L148 393 L505 393 L505 331 L148 331 L148 62 L567 62 L567 0 L81 0 Z " />
<glyph glyph-name="Ecircumflex" unicode="&#xca;" horiz-adv-x="604" d="M381 772 L303 828 L226 772 L179 772 L284 895 L326 895 L430 772 L381 772 Z M81 0 L81 706 L542 706 L542 645 L148 645 L148 393 L505 393 L505 331 L148 331 L148 62 L567 62 L567 0 L81 0 Z " />
<glyph glyph-name="Edieresis" unicode="&#xcb;" horiz-adv-x="604" d="M379 784 L379 881 L446 881 L446 784 L379 784 Z M160 784 L160 881 L227 881 L227 784 L160 784 Z M81 0 L81 706 L542 706 L542 645 L148 645 L148 393 L505 393 L505 331 L148 331 L148 62 L567 62 L567 0 L81 0 Z " />
<glyph glyph-name="Igrave" unicode="&#xcc;" horiz-adv-x="229" d="M99 770 L-49 895 L57 895 L156 770 L99 770 Z M81 0 L81 706 L148 706 L148 0 L81 0 Z " />
<glyph glyph-name="Iacute" unicode="&#xcd;" horiz-adv-x="229" d="M127 770 L70 770 L169 895 L275 895 L127 770 Z M81 0 L81 706 L148 706 L148 0 L81 0 Z " />
<glyph glyph-name="Icircumflex" unicode="&#xce;" horiz-adv-x="229" d="M194 772 L116 828 L39 772 L-8 772 L96 895 L138 895 L243 772 L194 772 Z M81 0 L81 706 L148 706 L148 0 L81 0 Z " />
<glyph glyph-name="Idieresis" unicode="&#xcf;" horiz-adv-x="229" d="M191 784 L191 881 L258 881 L258 784 L191 784 Z M-28 784 L-28 881 L39 881 L39 784 L-28 784 Z M81 0 L81 706 L148 706 L148 0 L81 0 Z " />
<glyph glyph-name="Eth" unicode="&#xd0;" horiz-adv-x="688" d="M638 356 Q638 308 627.5 256 Q617 204 595 157 Q573 110 538 73.5 Q503 37 453 19 Q415 5 372.5 2.5 Q330 0 291 0 L81 0 L81 352 L0 352 L0 406 L81 406 L81 706 L282 706 Q324 706 373.5 703.5 Q423 701 463 685 Q510 666 543 630 Q576 594 597 548.5 Q618 503 628 453 Q638 403 638 356 Z M570 350 Q570 388 563 430.5 Q556 473 540.5 511.5 Q525 550 498.5 581.5 Q472 613 433 629 Q405 641 375 643 Q345 645 316 645 L149 645 L149 406 L370 406 L370 352 L149 352 L149 60 L284 60 Q302 60 323 60.5 Q344 61 366 63.5 Q388 66 408 70.5 Q428 75 444 82 Q478 99 502 129.5 Q526 160 541 197.5 Q556 235 563 275 Q570 315 570 350 Z " />
<glyph glyph-name="Ntilde" unicode="&#xd1;" horiz-adv-x="708" d="M525 867 Q519 852 510 835.5 Q501 819 489.5 805.5 Q478 792 463.5 783 Q449 774 430 774 Q409 774 389 782.5 Q369 791 350 801.5 Q331 812 314 820.5 Q297 829 282 829 Q259 829 248 810.5 Q237 792 229 774 L189 787 Q194 804 203 822 Q212 840 224 855 Q236 870 252 880 Q268 890 288 890 Q308 890 327 881.5 Q346 873 364 862.5 Q382 852 398 843 Q414 834 429 834 Q449 834 462.5 851.5 Q476 869 483 886 L525 867 Z M561 0 L147 610 L147 0 L81 0 L81 706 L147 706 L566 102 L561 706 L627 706 L627 0 L561 0 Z " />
<glyph glyph-name="Ograve" unicode="&#xd2;" horiz-adv-x="708" d="M338 770 L191 895 L297 895 L396 770 L338 770 Z M658 363 Q658 292 641.5 223.5 Q625 155 589 101.5 Q553 48 496 15 Q439 -18 358 -18 Q278 -18 219.5 13.5 Q161 45 123.5 96.5 Q86 148 68 215.5 Q50 283 50 355 Q50 427 68 494 Q86 561 124 612 Q162 663 220.5 693.5 Q279 724 359 724 Q437 724 493.5 694 Q550 664 586.5 613.5 Q623 563 640.5 498 Q658 433 658 363 Z M587 360 Q587 413 574.5 467.5 Q562 522 535 566 Q508 610 464.5 638 Q421 666 358 666 Q293 666 247.5 638 Q202 610 174 565.5 Q146 521 133.5 465 Q121 409 121 353 Q121 298 133 242.5 Q145 187 172.5 142.5 Q200 98 244.5 70 Q289 42 353 42 Q418 42 463 71 Q508 100 535.5 146 Q563 192 575 248.5 Q587 305 587 360 Z " />
<glyph glyph-name="Oacute" unicode="&#xd3;" horiz-adv-x="708" d="M367 770 L310 770 L409 895 L514 895 L367 770 Z M658 363 Q658 292 641.5 223.5 Q625 155 589 101.5 Q553 48 496 15 Q439 -18 358 -18 Q278 -18 219.5 13.5 Q161 45 123.5 96.5 Q86 148 68 215.5 Q50 283 50 355 Q50 427 68 494 Q86 561 124 612 Q162 663 220.5 693.5 Q279 724 359 724 Q437 724 493.5 694 Q550 664 586.5 613.5 Q623 563 640.5 498 Q658 433 658 363 Z M587 360 Q587 413 574.5 467.5 Q562 522 535 566 Q508 610 464.5 638 Q421 666 358 666 Q293 666 247.5 638 Q202 610 174 565.5 Q146 521 133.5 465 Q121 409 121 353 Q121 298 133 242.5 Q145 187 172.5 142.5 Q200 98 244.5 70 Q289 42 353 42 Q418 42 463 71 Q508 100 535.5 146 Q563 192 575 248.5 Q587 305 587 360 Z " />
<glyph glyph-name="Ocircumflex" unicode="&#xd4;" horiz-adv-x="708" d="M433 772 L355 828 L279 772 L231 772 L336 895 L378 895 L482 772 L433 772 Z M658 363 Q658 292 641.5 223.5 Q625 155 589 101.5 Q553 48 496 15 Q439 -18 358 -18 Q278 -18 219.5 13.5 Q161 45 123.5 96.5 Q86 148 68 215.5 Q50 283 50 355 Q50 427 68 494 Q86 561 124 612 Q162 663 220.5 693.5 Q279 724 359 724 Q437 724 493.5 694 Q550 664 586.5 613.5 Q623 563 640.5 498 Q658 433 658 363 Z M587 360 Q587 413 574.5 467.5 Q562 522 535 566 Q508 610 464.5 638 Q421 666 358 666 Q293 666 247.5 638 Q202 610 174 565.5 Q146 521 133.5 465 Q121 409 121 353 Q121 298 133 242.5 Q145 187 172.5 142.5 Q200 98 244.5 70 Q289 42 353 42 Q418 42 463 71 Q508 100 535.5 146 Q563 192 575 248.5 Q587 305 587 360 Z " />
<glyph glyph-name="Otilde" unicode="&#xd5;" horiz-adv-x="708" d="M525 867 Q519 852 510 835.5 Q501 819 489.5 805.5 Q478 792 463.5 783 Q449 774 430 774 Q409 774 389 782.5 Q369 791 350 801.5 Q331 812 314 820.5 Q297 829 282 829 Q259 829 248 810.5 Q237 792 229 774 L189 787 Q194 804 203 822 Q212 840 224 855 Q236 870 252 880 Q268 890 288 890 Q308 890 327 881.5 Q346 873 364 862.5 Q382 852 398 843 Q414 834 429 834 Q449 834 462.5 851.5 Q476 869 483 886 L525 867 Z M658 363 Q658 292 641.5 223.5 Q625 155 589 101.5 Q553 48 496 15 Q439 -18 358 -18 Q278 -18 219.5 13.5 Q161 45 123.5 96.5 Q86 148 68 215.5 Q50 283 50 355 Q50 427 68 494 Q86 561 124 612 Q162 663 220.5 693.5 Q279 724 359 724 Q437 724 493.5 694 Q550 664 586.5 613.5 Q623 563 640.5 498 Q658 433 658 363 Z M587 360 Q587 413 574.5 467.5 Q562 522 535 566 Q508 610 464.5 638 Q421 666 358 666 Q293 666 247.5 638 Q202 610 174 565.5 Q146 521 133.5 465 Q121 409 121 353 Q121 298 133 242.5 Q145 187 172.5 142.5 Q200 98 244.5 70 Q289 42 353 42 Q418 42 463 71 Q508 100 535.5 146 Q563 192 575 248.5 Q587 305 587 360 Z " />
<glyph glyph-name="Odieresis" unicode="&#xd6;" horiz-adv-x="708" d="M432 784 L432 881 L499 881 L499 784 L432 784 Z M213 784 L213 881 L280 881 L280 784 L213 784 Z M658 363 Q658 292 641.5 223.5 Q625 155 589 101.5 Q553 48 496 15 Q439 -18 358 -18 Q278 -18 219.5 13.5 Q161 45 123.5 96.5 Q86 148 68 215.5 Q50 283 50 355 Q50 427 68 494 Q86 561 124 612 Q162 663 220.5 693.5 Q279 724 359 724 Q437 724 493.5 694 Q550 664 586.5 613.5 Q623 563 640.5 498 Q658 433 658 363 Z M587 360 Q587 413 574.5 467.5 Q562 522 535 566 Q508 610 464.5 638 Q421 666 358 666 Q293 666 247.5 638 Q202 610 174 565.5 Q146 521 133.5 465 Q121 409 121 353 Q121 298 133 242.5 Q145 187 172.5 142.5 Q200 98 244.5 70 Q289 42 353 42 Q418 42 463 71 Q508 100 535.5 146 Q563 192 575 248.5 Q587 305 587 360 Z " />
<glyph glyph-name="multiply" unicode="&#xd7;" horiz-adv-x="724" d="M529 81 L361 250 L192 82 L150 124 L318 292 L150 460 L193 503 L361 335 L529 503 L571 460 L403 292 L572 124 L529 81 Z " />
<glyph glyph-name="Oslash" unicode="&#xd8;" horiz-adv-x="708" d="M599 601 Q632 547 646.5 486.5 Q661 426 661 363 Q661 289 644.5 220.5 Q628 152 591 99 Q554 46 496 14 Q438 -18 354 -18 Q298 -18 245 0 Q192 18 154 60 L95 -10 L58 21 L122 99 Q83 160 66.5 221.5 Q50 283 50 355 Q50 429 68 495.5 Q86 562 124 613 Q162 664 220.5 694 Q279 724 360 724 Q423 724 473.5 704.5 Q524 685 567 640 L627 714 L666 683 L599 601 Z M521 586 Q509 607 491.5 622 Q474 637 452.5 646 Q431 655 408 659.5 Q385 664 362 664 Q334 664 307 660 Q280 656 255 643 Q217 624 191.5 591.5 Q166 559 150 519.5 Q134 480 127.5 437.5 Q121 395 121 356 Q121 303 131.5 251.5 Q142 200 167 153 L521 586 Z M589 337 Q589 391 581.5 441.5 Q574 492 550 542 L196 112 Q225 75 267 58 Q309 41 355 41 Q418 41 462.5 66.5 Q507 92 535 133.5 Q563 175 576 228.5 Q589 282 589 337 Z " />
<glyph glyph-name="Ugrave" unicode="&#xd9;" horiz-adv-x="688" d="M328 770 L180 895 L286 895 L385 770 L328 770 Z M608 284 Q608 247 605.5 211 Q603 175 593.5 142 Q584 109 565 80 Q546 51 513 27 Q475 1 430.5 -8.5 Q386 -18 341 -18 Q293 -18 246.5 -5 Q200 8 162 39 Q133 63 116.5 92 Q100 121 92 153 Q84 185 82 219 Q80 253 80 288 L80 706 L146 706 L146 270 Q146 241 148 213 Q150 185 157.5 160 Q165 135 180.5 113 Q196 91 223 74 Q251 57 283.5 50.5 Q316 44 348 44 Q408 44 445.5 61 Q483 78 504.5 109 Q526 140 533.5 183.5 Q541 227 541 280 L541 706 L608 706 L608 284 Z " />
<glyph glyph-name="Uacute" unicode="&#xda;" horiz-adv-x="688" d="M356 770 L299 770 L398 895 L504 895 L356 770 Z M608 284 Q608 247 605.5 211 Q603 175 593.5 142 Q584 109 565 80 Q546 51 513 27 Q475 1 430.5 -8.5 Q386 -18 341 -18 Q293 -18 246.5 -5 Q200 8 162 39 Q133 63 116.5 92 Q100 121 92 153 Q84 185 82 219 Q80 253 80 288 L80 706 L146 706 L146 270 Q146 241 148 213 Q150 185 157.5 160 Q165 135 180.5 113 Q196 91 223 74 Q251 57 283.5 50.5 Q316 44 348 44 Q408 44 445.5 61 Q483 78 504.5 109 Q526 140 533.5 183.5 Q541 227 541 280 L541 706 L608 706 L608 284 Z " />
<glyph glyph-name="Ucircumflex" unicode="&#xdb;" horiz-adv-x="688" d="M423 772 L345 828 L268 772 L221 772 L326 895 L368 895 L472 772 L423 772 Z M608 284 Q608 247 605.5 211 Q603 175 593.5 142 Q584 109 565 80 Q546 51 513 27 Q475 1 430.5 -8.5 Q386 -18 341 -18 Q293 -18 246.5 -5 Q200 8 162 39 Q133 63 116.5 92 Q100 121 92 153 Q84 185 82 219 Q80 253 80 288 L80 706 L146 706 L146 270 Q146 241 148 213 Q150 185 157.5 160 Q165 135 180.5 113 Q196 91 223 74 Q251 57 283.5 50.5 Q316 44 348 44 Q408 44 445.5 61 Q483 78 504.5 109 Q526 140 533.5 183.5 Q541 227 541 280 L541 706 L608 706 L608 284 Z " />
<glyph glyph-name="Udieresis" unicode="&#xdc;" horiz-adv-x="688" d="M421 784 L421 881 L488 881 L488 784 L421 784 Z M202 784 L202 881 L269 881 L269 784 L202 784 Z M608 284 Q608 247 605.5 211 Q603 175 593.5 142 Q584 109 565 80 Q546 51 513 27 Q475 1 430.5 -8.5 Q386 -18 341 -18 Q293 -18 246.5 -5 Q200 8 162 39 Q133 63 116.5 92 Q100 121 92 153 Q84 185 82 219 Q80 253 80 288 L80 706 L146 706 L146 270 Q146 241 148 213 Q150 185 157.5 160 Q165 135 180.5 113 Q196 91 223 74 Q251 57 283.5 50.5 Q316 44 348 44 Q408 44 445.5 61 Q483 78 504.5 109 Q526 140 533.5 183.5 Q541 227 541 280 L541 706 L608 706 L608 284 Z " />
<glyph glyph-name="Yacute" unicode="&#xdd;" horiz-adv-x="625" d="M325 770 L268 770 L367 895 L473 895 L325 770 Z M339 292 L339 0 L273 0 L273 292 L10 706 L89 706 L307 355 L534 706 L615 706 L339 292 Z " />
<glyph glyph-name="Thorn" unicode="&#xde;" horiz-adv-x="625" d="M613 403 Q613 370 603.5 337 Q594 304 574 278 Q556 255 534 241.5 Q512 228 487 220.5 Q462 213 435.5 210.5 Q409 208 382 208 Q362 208 341.5 208.5 Q321 209 301 209 L145 209 L145 0 L81 0 L81 706 L145 706 L145 597 Q205 597 264.5 597.5 Q324 598 384 598 Q410 598 436 596 Q462 594 487 587.5 Q512 581 534 568.5 Q556 556 573 534 Q595 506 604 472 Q613 438 613 403 Z M548 401 Q548 442 537.5 469 Q527 496 506.5 512 Q486 528 456.5 534.5 Q427 541 389 541 L145 541 L145 268 Q203 268 261 267.5 Q319 267 377 267 Q398 267 418.5 268 Q439 269 458 274.5 Q477 280 494 290.5 Q511 301 524 319 Q538 337 543 358 Q548 379 548 401 Z " />
<glyph glyph-name="germandbls" unicode="&#xdf;" horiz-adv-x="500" d="M460 188 Q460 151 451 114.5 Q442 78 422.5 49.5 Q403 21 372.5 3 Q342 -15 300 -15 Q272 -15 242.5 -7 Q213 1 190 16 L190 84 Q213 67 240.5 53 Q268 39 298 39 Q328 39 347 53.5 Q366 68 377 89.5 Q388 111 392 137 Q396 163 396 187 Q396 278 346.5 323.5 Q297 369 208 369 L177 369 L177 427 Q181 427 184 426.5 Q187 426 191 426 Q223 426 253 432 Q283 438 306 452 Q329 466 342.5 491 Q356 516 356 553 Q356 604 327.5 635.5 Q299 667 247 667 Q202 667 178.5 648 Q155 629 144.5 599.5 Q134 570 132.5 534.5 Q131 499 131 466 L131 0 L74 0 L74 498 Q74 524 75.5 550 Q77 576 83 600 Q89 624 101.5 646 Q114 668 135 686 Q159 706 189.5 715 Q220 724 251 724 Q289 724 320 711.5 Q351 699 373 677 Q395 655 407 624 Q419 593 419 555 Q419 528 411.5 502 Q404 476 389 456 Q374 436 352 422 Q330 408 301 405 Q343 399 373.5 379.5 Q404 360 423 330.5 Q442 301 451 264 Q460 227 460 188 Z " />
<glyph glyph-name="agrave" unicode="&#xe0;" horiz-adv-x="500" d="M275 558 L105 698 L216 698 L328 558 L275 558 Z M484 0 Q460 0 438 2.5 Q416 5 399.5 14 Q383 23 373.5 40 Q364 57 364 87 Q356 71 348.5 59 Q341 47 328 35 Q302 11 265.5 0.5 Q229 -10 195 -10 Q165 -10 137.5 -2 Q110 6 89.5 22.5 Q69 39 57 63.5 Q45 88 45 121 Q45 167 73 196.5 Q101 226 142 244.5 Q183 263 228.5 273.5 Q274 284 308 291 L364 303 L364 328 Q364 388 334 412.5 Q304 437 247 437 Q187 437 155.5 411 Q124 385 124 322 L59 333 Q71 414 119.5 451.5 Q168 489 248 489 Q265 489 285 486.5 Q305 484 325 478 Q345 472 362.5 463 Q380 454 391 440 Q412 415 416.5 385.5 Q421 356 421 325 L421 115 Q421 73 436 59.5 Q451 46 492 47 L492 0 L484 0 Z M364 252 Q347 247 312.5 238.5 Q278 230 241.5 219.5 Q205 209 174 198.5 Q143 188 132 179 Q118 168 110 154.5 Q102 141 102 123 Q102 82 130.5 62 Q159 42 196 42 Q219 42 243 48.5 Q267 55 288.5 67 Q310 79 327 96.5 Q344 114 353 136 Q361 155 362.5 175.5 Q364 196 364 216 L364 252 Z " />
<glyph glyph-name="aacute" unicode="&#xe1;" horiz-adv-x="500" d="M261 558 L208 558 L319 698 L431 698 L261 558 Z M484 0 Q460 0 438 2.5 Q416 5 399.5 14 Q383 23 373.5 40 Q364 57 364 87 Q356 71 348.5 59 Q341 47 328 35 Q302 11 265.5 0.5 Q229 -10 195 -10 Q165 -10 137.5 -2 Q110 6 89.5 22.5 Q69 39 57 63.5 Q45 88 45 121 Q45 167 73 196.5 Q101 226 142 244.5 Q183 263 228.5 273.5 Q274 284 308 291 L364 303 L364 328 Q364 388 334 412.5 Q304 437 247 437 Q187 437 155.5 411 Q124 385 124 322 L59 333 Q71 414 119.5 451.5 Q168 489 248 489 Q265 489 285 486.5 Q305 484 325 478 Q345 472 362.5 463 Q380 454 391 440 Q412 415 416.5 385.5 Q421 356 421 325 L421 115 Q421 73 436 59.5 Q451 46 492 47 L492 0 L484 0 Z M364 252 Q347 247 312.5 238.5 Q278 230 241.5 219.5 Q205 209 174 198.5 Q143 188 132 179 Q118 168 110 154.5 Q102 141 102 123 Q102 82 130.5 62 Q159 42 196 42 Q219 42 243 48.5 Q267 55 288.5 67 Q310 79 327 96.5 Q344 114 353 136 Q361 155 362.5 175.5 Q364 196 364 216 L364 252 Z " />
<glyph glyph-name="acircumflex" unicode="&#xe2;" horiz-adv-x="500" d="M347 558 L249 623 L160 558 L110 558 L238 696 L264 696 L398 558 L347 558 Z M484 0 Q460 0 438 2.5 Q416 5 399.5 14 Q383 23 373.5 40 Q364 57 364 87 Q356 71 348.5 59 Q341 47 328 35 Q302 11 265.5 0.5 Q229 -10 195 -10 Q165 -10 137.5 -2 Q110 6 89.5 22.5 Q69 39 57 63.5 Q45 88 45 121 Q45 167 73 196.5 Q101 226 142 244.5 Q183 263 228.5 273.5 Q274 284 308 291 L364 303 L364 328 Q364 388 334 412.5 Q304 437 247 437 Q187 437 155.5 411 Q124 385 124 322 L59 333 Q71 414 119.5 451.5 Q168 489 248 489 Q265 489 285 486.5 Q305 484 325 478 Q345 472 362.5 463 Q380 454 391 440 Q412 415 416.5 385.5 Q421 356 421 325 L421 115 Q421 73 436 59.5 Q451 46 492 47 L492 0 L484 0 Z M364 252 Q347 247 312.5 238.5 Q278 230 241.5 219.5 Q205 209 174 198.5 Q143 188 132 179 Q118 168 110 154.5 Q102 141 102 123 Q102 82 130.5 62 Q159 42 196 42 Q219 42 243 48.5 Q267 55 288.5 67 Q310 79 327 96.5 Q344 114 353 136 Q361 155 362.5 175.5 Q364 196 364 216 L364 252 Z " />
<glyph glyph-name="atilde" unicode="&#xe3;" horiz-adv-x="500" d="M405 665 Q398 650 390 634 Q382 618 371 605 Q360 592 345.5 583.5 Q331 575 311 575 Q293 575 275.5 582.5 Q258 590 241 599 Q224 608 209 615.5 Q194 623 181 623 Q162 623 152 610 Q142 597 135 581 L93 590 Q99 606 107.5 622 Q116 638 127 650.5 Q138 663 153 670.5 Q168 678 187 678 Q205 678 222.5 671 Q240 664 256 655 Q272 646 287 639 Q302 632 316 632 Q336 632 346.5 645.5 Q357 659 365 675 L405 665 Z M484 0 Q460 0 438 2.5 Q416 5 399.5 14 Q383 23 373.5 40 Q364 57 364 87 Q356 71 348.5 59 Q341 47 328 35 Q302 11 265.5 0.5 Q229 -10 195 -10 Q165 -10 137.5 -2 Q110 6 89.5 22.5 Q69 39 57 63.5 Q45 88 45 121 Q45 167 73 196.5 Q101 226 142 244.5 Q183 263 228.5 273.5 Q274 284 308 291 L364 303 L364 328 Q364 388 334 412.5 Q304 437 247 437 Q187 437 155.5 411 Q124 385 124 322 L59 333 Q71 414 119.5 451.5 Q168 489 248 489 Q265 489 285 486.5 Q305 484 325 478 Q345 472 362.5 463 Q380 454 391 440 Q412 415 416.5 385.5 Q421 356 421 325 L421 115 Q421 73 436 59.5 Q451 46 492 47 L492 0 L484 0 Z M364 252 Q347 247 312.5 238.5 Q278 230 241.5 219.5 Q205 209 174 198.5 Q143 188 132 179 Q118 168 110 154.5 Q102 141 102 123 Q102 82 130.5 62 Q159 42 196 42 Q219 42 243 48.5 Q267 55 288.5 67 Q310 79 327 96.5 Q344 114 353 136 Q361 155 362.5 175.5 Q364 196 364 216 L364 252 Z " />
<glyph glyph-name="adieresis" unicode="&#xe4;" horiz-adv-x="500" d="M294 582 L294 674 L355 674 L355 582 L294 582 Z M122 582 L122 674 L183 674 L183 582 L122 582 Z M484 0 Q460 0 438 2.5 Q416 5 399.5 14 Q383 23 373.5 40 Q364 57 364 87 Q356 71 348.5 59 Q341 47 328 35 Q302 11 265.5 0.5 Q229 -10 195 -10 Q165 -10 137.5 -2 Q110 6 89.5 22.5 Q69 39 57 63.5 Q45 88 45 121 Q45 167 73 196.5 Q101 226 142 244.5 Q183 263 228.5 273.5 Q274 284 308 291 L364 303 L364 328 Q364 388 334 412.5 Q304 437 247 437 Q187 437 155.5 411 Q124 385 124 322 L59 333 Q71 414 119.5 451.5 Q168 489 248 489 Q265 489 285 486.5 Q305 484 325 478 Q345 472 362.5 463 Q380 454 391 440 Q412 415 416.5 385.5 Q421 356 421 325 L421 115 Q421 73 436 59.5 Q451 46 492 47 L492 0 L484 0 Z M364 252 Q347 247 312.5 238.5 Q278 230 241.5 219.5 Q205 209 174 198.5 Q143 188 132 179 Q118 168 110 154.5 Q102 141 102 123 Q102 82 130.5 62 Q159 42 196 42 Q219 42 243 48.5 Q267 55 288.5 67 Q310 79 327 96.5 Q344 114 353 136 Q361 155 362.5 175.5 Q364 196 364 216 L364 252 Z " />
<glyph glyph-name="aring" unicode="&#xe5;" horiz-adv-x="500" d="M320 632 Q320 599 297 575.5 Q274 552 241 552 Q208 552 184.5 575.5 Q161 599 161 632 Q161 665 184.5 688 Q208 711 241 711 Q274 711 297 688 Q320 665 320 632 Z M484 0 Q460 0 438 2.5 Q416 5 399.5 14 Q383 23 373.5 40 Q364 57 364 87 Q356 71 348.5 59 Q341 47 328 35 Q302 11 265.5 0.5 Q229 -10 195 -10 Q165 -10 137.5 -2 Q110 6 89.5 22.5 Q69 39 57 63.5 Q45 88 45 121 Q45 167 73 196.5 Q101 226 142 244.5 Q183 263 228.5 273.5 Q274 284 308 291 L364 303 L364 328 Q364 388 334 412.5 Q304 437 247 437 Q187 437 155.5 411 Q124 385 124 322 L59 333 Q71 414 119.5 451.5 Q168 489 248 489 Q265 489 285 486.5 Q305 484 325 478 Q345 472 362.5 463 Q380 454 391 440 Q412 415 416.5 385.5 Q421 356 421 325 L421 115 Q421 73 436 59.5 Q451 46 492 47 L492 0 L484 0 Z M281 633 Q281 650 268.5 662.5 Q256 675 239 675 Q221 675 209 663 Q197 651 197 633 Q197 616 209.5 603.5 Q222 591 239 591 Q256 591 268.5 603.5 Q281 616 281 633 Z M364 252 Q347 247 312.5 238.5 Q278 230 241.5 219.5 Q205 209 174 198.5 Q143 188 132 179 Q118 168 110 154.5 Q102 141 102 123 Q102 82 130.5 62 Q159 42 196 42 Q219 42 243 48.5 Q267 55 288.5 67 Q310 79 327 96.5 Q344 114 353 136 Q361 155 362.5 175.5 Q364 196 364 216 L364 252 Z " />
<glyph glyph-name="ae" unicode="&#xe6;" horiz-adv-x="833" d="M792 137 Q785 117 774.5 99.5 Q764 82 751 66 Q718 25 676.5 6.5 Q635 -12 583 -12 Q553 -12 523 -5 Q493 2 467 16 Q441 30 420.5 52 Q400 74 389 104 Q360 45 308 17.5 Q256 -10 192 -10 Q162 -10 134 -3 Q106 4 85 19 Q64 34 51 58 Q38 82 38 116 Q38 148 51.5 173 Q65 198 91 218 Q108 230 134 240.5 Q160 251 188.5 259 Q217 267 245 274 Q273 281 294 286 L365 304 L365 328 Q365 359 359.5 379.5 Q354 400 341.5 412 Q329 424 308.5 429 Q288 434 257 434 Q227 434 201.5 429.5 Q176 425 157.5 412.5 Q139 400 129 378 Q119 356 119 322 L53 330 Q58 372 75 402 Q92 432 118 451.5 Q144 471 178.5 480 Q213 489 253 489 Q276 489 300.5 485.5 Q325 482 347 473 Q369 464 387 448.5 Q405 433 415 410 Q448 454 487 471.5 Q526 489 580 489 Q635 489 675 468.5 Q715 448 741 413 Q767 378 779.5 332.5 Q792 287 792 237 L424 237 L424 213 Q424 176 434 144.5 Q444 113 464.5 89.5 Q485 66 514.5 53 Q544 40 583 40 Q642 40 677.5 68.5 Q713 97 738 148 L792 137 Z M722 286 Q720 303 717.5 320 Q715 337 708 353 Q691 396 656 416 Q621 436 576 436 Q507 436 468.5 394 Q430 352 424 286 L722 286 Z M365 251 Q346 247 311 238.5 Q276 230 239.5 219.5 Q203 209 171 198 Q139 187 126 177 Q110 164 103 151.5 Q96 139 96 119 Q96 98 104 83.5 Q112 69 125.5 60.5 Q139 52 156.5 48 Q174 44 192 44 Q213 44 237 49.5 Q261 55 283 65.5 Q305 76 323.5 91.5 Q342 107 352 127 Q361 144 363 163 Q365 182 365 201 L365 251 Z " />
<glyph glyph-name="ccedilla" unicode="&#xe7;" horiz-adv-x="479" d="M454 107 Q424 46 382 19.5 Q340 -7 273 -12 L255 -47 Q263 -46 269.5 -45 Q276 -44 284 -44 Q313 -44 333 -61 Q353 -78 353 -108 Q353 -130 344 -145.5 Q335 -161 320.5 -171 Q306 -181 287.5 -185.5 Q269 -190 250 -190 Q232 -190 214 -187 L214 -160 L221 -160 Q226 -160 232 -161 Q238 -162 243 -162 Q263 -162 282.5 -154 Q302 -146 302 -122 Q302 -102 285.5 -93.5 Q269 -85 252 -85 Q234 -85 214 -95 L214 -70 L248 -11 Q228 -9 209 -6 Q190 -3 172 5 Q138 19 113.5 44 Q89 69 73.5 100 Q58 131 51 166.5 Q44 202 44 236 Q44 288 59 334 Q74 380 102.5 414.5 Q131 449 174 469 Q217 489 272 489 Q335 489 383 459 Q431 429 454 369 L399 355 Q384 394 347.5 415 Q311 436 270 436 Q228 436 197.5 419 Q167 402 147 374.5 Q127 347 117.5 311.5 Q108 276 108 238 Q108 201 116.5 165 Q125 129 143.5 101.5 Q162 74 192 57 Q222 40 265 40 Q311 40 341.5 60 Q372 80 394 120 L454 107 Z " />
<glyph glyph-name="egrave" unicode="&#xe8;" horiz-adv-x="521" d="M249 558 L79 698 L190 698 L302 558 L249 558 Z M479 126 Q448 56 397.5 22 Q347 -12 270 -12 Q213 -12 171 8 Q129 28 100.5 62.5 Q72 97 58 143.5 Q44 190 44 243 Q44 292 58.5 336.5 Q73 381 101 415 Q129 449 170 469 Q211 489 263 489 Q316 489 356.5 468 Q397 447 424 412.5 Q451 378 465 333 Q479 288 479 239 L109 239 L109 229 Q109 189 118.5 155 Q128 121 148 96 Q168 71 199 56.5 Q230 42 273 42 Q327 42 364 68 Q401 94 424 142 L479 126 Z M411 287 Q407 319 396.5 346 Q386 373 367.5 393 Q349 413 323.5 424.5 Q298 436 264 436 Q197 436 158 393.5 Q119 351 110 287 L411 287 Z " />
<glyph glyph-name="eacute" unicode="&#xe9;" horiz-adv-x="521" d="M271 558 L218 558 L330 698 L442 698 L271 558 Z M479 126 Q448 56 397.5 22 Q347 -12 270 -12 Q213 -12 171 8 Q129 28 100.5 62.5 Q72 97 58 143.5 Q44 190 44 243 Q44 292 58.5 336.5 Q73 381 101 415 Q129 449 170 469 Q211 489 263 489 Q316 489 356.5 468 Q397 447 424 412.5 Q451 378 465 333 Q479 288 479 239 L109 239 L109 229 Q109 189 118.5 155 Q128 121 148 96 Q168 71 199 56.5 Q230 42 273 42 Q327 42 364 68 Q401 94 424 142 L479 126 Z M411 287 Q407 319 396.5 346 Q386 373 367.5 393 Q349 413 323.5 424.5 Q298 436 264 436 Q197 436 158 393.5 Q119 351 110 287 L411 287 Z " />
<glyph glyph-name="ecircumflex" unicode="&#xea;" horiz-adv-x="521" d="M358 558 L259 623 L170 558 L121 558 L248 696 L275 696 L409 558 L358 558 Z M479 126 Q448 56 397.5 22 Q347 -12 270 -12 Q213 -12 171 8 Q129 28 100.5 62.5 Q72 97 58 143.5 Q44 190 44 243 Q44 292 58.5 336.5 Q73 381 101 415 Q129 449 170 469 Q211 489 263 489 Q316 489 356.5 468 Q397 447 424 412.5 Q451 378 465 333 Q479 288 479 239 L109 239 L109 229 Q109 189 118.5 155 Q128 121 148 96 Q168 71 199 56.5 Q230 42 273 42 Q327 42 364 68 Q401 94 424 142 L479 126 Z M411 287 Q407 319 396.5 346 Q386 373 367.5 393 Q349 413 323.5 424.5 Q298 436 264 436 Q197 436 158 393.5 Q119 351 110 287 L411 287 Z " />
<glyph glyph-name="edieresis" unicode="&#xeb;" horiz-adv-x="521" d="M317 582 L317 674 L378 674 L378 582 L317 582 Z M145 582 L145 674 L206 674 L206 582 L145 582 Z M479 126 Q448 56 397.5 22 Q347 -12 270 -12 Q213 -12 171 8 Q129 28 100.5 62.5 Q72 97 58 143.5 Q44 190 44 243 Q44 292 58.5 336.5 Q73 381 101 415 Q129 449 170 469 Q211 489 263 489 Q316 489 356.5 468 Q397 447 424 412.5 Q451 378 465 333 Q479 288 479 239 L109 239 L109 229 Q109 189 118.5 155 Q128 121 148 96 Q168 71 199 56.5 Q230 42 273 42 Q327 42 364 68 Q401 94 424 142 L479 126 Z M411 287 Q407 319 396.5 346 Q386 373 367.5 393 Q349 413 323.5 424.5 Q298 436 264 436 Q197 436 158 393.5 Q119 351 110 287 L411 287 Z " />
<glyph glyph-name="igrave" unicode="&#xec;" horiz-adv-x="208" d="M93 558 L-77 698 L34 698 L146 558 L93 558 Z M75 0 L75 477 L133 477 L133 0 L75 0 Z " />
<glyph glyph-name="iacute" unicode="&#xed;" horiz-adv-x="208" d="M115 558 L62 558 L174 698 L286 698 L115 558 Z M75 0 L75 477 L133 477 L133 0 L75 0 Z " />
<glyph glyph-name="icircumflex" unicode="&#xee;" horiz-adv-x="208" d="M201 558 L103 623 L14 558 L-36 558 L92 696 L118 696 L253 558 L201 558 Z M75 0 L75 477 L133 477 L133 0 L75 0 Z " />
<glyph glyph-name="idieresis" unicode="&#xef;" horiz-adv-x="208" d="M160 582 L160 674 L221 674 L221 582 L160 582 Z M-11 582 L-11 674 L49 674 L49 582 L-11 582 Z M75 0 L75 477 L133 477 L133 0 L75 0 Z " />
<glyph glyph-name="eth" unicode="&#xf0;" horiz-adv-x="521" d="M477 266 Q477 235 474 204 Q471 173 462 144 Q440 72 386.5 31.5 Q333 -9 258 -9 Q205 -9 165 10.5 Q125 30 98 63 Q71 96 57.5 140 Q44 184 44 233 Q44 283 57 329.5 Q70 376 96.5 412 Q123 448 163.5 470 Q204 492 259 492 Q307 492 339 474 Q371 456 400 419 Q389 461 372.5 500 Q356 539 333 575 L174 524 L158 561 L310 609 Q293 632 273.5 653.5 Q254 675 233 695 L276 721 Q298 698 318.5 674.5 Q339 651 358 625 L449 654 L464 616 L383 590 Q428 513 452.5 434.5 Q477 356 477 266 Z M414 242 Q414 278 406.5 314 Q399 350 381.5 378.5 Q364 407 335 424.5 Q306 442 263 442 Q218 442 188 424 Q158 406 140 377 Q122 348 114.5 310.5 Q107 273 107 235 Q107 199 114.5 164.5 Q122 130 140 103 Q158 76 186.5 59.5 Q215 43 257 43 Q301 43 330.5 60 Q360 77 379 104.5 Q398 132 406 168 Q414 204 414 242 Z " />
<glyph glyph-name="ntilde" unicode="&#xf1;" horiz-adv-x="521" d="M416 665 Q412 658 409.5 650.5 Q407 643 403 636 Q391 613 370.5 594 Q350 575 321 575 Q304 575 286 582.5 Q268 590 251 599 Q234 608 218.5 615.5 Q203 623 191 623 Q172 623 162 610 Q152 597 145 581 L104 590 Q110 606 118 621.5 Q126 637 137 649.5 Q148 662 163 670 Q178 678 197 678 Q216 678 233 671 Q250 664 266 655 Q282 646 297 639 Q312 632 326 632 Q347 632 357 645 Q367 658 375 675 L416 665 Z M447 295 Q447 221 446.5 147.5 Q446 74 446 0 L387 0 L387 282 Q387 300 386.5 318.5 Q386 337 382.5 354 Q379 371 371 386.5 Q363 402 347 414 Q333 425 313.5 429.5 Q294 434 276 434 Q248 434 224.5 426.5 Q201 419 181 399 Q161 380 151 357.5 Q141 335 137.5 310.5 Q134 286 134 260.5 Q134 235 134 209 L134 0 L75 0 L75 477 L134 477 L134 392 Q152 440 192.5 463.5 Q233 487 283 487 Q329 487 360.5 473 Q392 459 411 433.5 Q430 408 438.5 372.5 Q447 337 447 295 Z " />
<glyph glyph-name="ograve" unicode="&#xf2;" horiz-adv-x="521" d="M249 558 L79 698 L190 698 L302 558 L249 558 Z M477 239 Q477 190 463 144.5 Q449 99 421.5 64.5 Q394 30 353 9 Q312 -12 259 -12 Q206 -12 166 8 Q126 28 99 61.5 Q72 95 58 139.5 Q44 184 44 233 Q44 285 57.5 331.5 Q71 378 98.5 413 Q126 448 167.5 468.5 Q209 489 265 489 Q318 489 358 468 Q398 447 424.5 412.5 Q451 378 464 332.5 Q477 287 477 239 Z M414 241 Q414 277 406.5 312.5 Q399 348 381 376 Q363 404 334 421.5 Q305 439 263 439 Q218 439 188 421 Q158 403 140 374 Q122 345 114.5 307.5 Q107 270 107 232 Q107 196 115 161.5 Q123 127 141 100 Q159 73 187.5 56.5 Q216 40 257 40 Q301 40 331 57 Q361 74 379.5 102 Q398 130 406 166.5 Q414 203 414 241 Z " />
<glyph glyph-name="oacute" unicode="&#xf3;" horiz-adv-x="521" d="M271 558 L218 558 L330 698 L442 698 L271 558 Z M477 239 Q477 190 463 144.5 Q449 99 421.5 64.5 Q394 30 353 9 Q312 -12 259 -12 Q206 -12 166 8 Q126 28 99 61.5 Q72 95 58 139.5 Q44 184 44 233 Q44 285 57.5 331.5 Q71 378 98.5 413 Q126 448 167.5 468.5 Q209 489 265 489 Q318 489 358 468 Q398 447 424.5 412.5 Q451 378 464 332.5 Q477 287 477 239 Z M414 241 Q414 277 406.5 312.5 Q399 348 381 376 Q363 404 334 421.5 Q305 439 263 439 Q218 439 188 421 Q158 403 140 374 Q122 345 114.5 307.5 Q107 270 107 232 Q107 196 115 161.5 Q123 127 141 100 Q159 73 187.5 56.5 Q216 40 257 40 Q301 40 331 57 Q361 74 379.5 102 Q398 130 406 166.5 Q414 203 414 241 Z " />
<glyph glyph-name="ocircumflex" unicode="&#xf4;" horiz-adv-x="521" d="M358 558 L259 623 L170 558 L121 558 L248 696 L275 696 L409 558 L358 558 Z M477 239 Q477 190 463 144.5 Q449 99 421.5 64.5 Q394 30 353 9 Q312 -12 259 -12 Q206 -12 166 8 Q126 28 99 61.5 Q72 95 58 139.5 Q44 184 44 233 Q44 285 57.5 331.5 Q71 378 98.5 413 Q126 448 167.5 468.5 Q209 489 265 489 Q318 489 358 468 Q398 447 424.5 412.5 Q451 378 464 332.5 Q477 287 477 239 Z M414 241 Q414 277 406.5 312.5 Q399 348 381 376 Q363 404 334 421.5 Q305 439 263 439 Q218 439 188 421 Q158 403 140 374 Q122 345 114.5 307.5 Q107 270 107 232 Q107 196 115 161.5 Q123 127 141 100 Q159 73 187.5 56.5 Q216 40 257 40 Q301 40 331 57 Q361 74 379.5 102 Q398 130 406 166.5 Q414 203 414 241 Z " />
<glyph glyph-name="otilde" unicode="&#xf5;" horiz-adv-x="521" d="M416 665 Q412 658 409.5 650.5 Q407 643 403 636 Q391 613 370.5 594 Q350 575 321 575 Q304 575 286 582.5 Q268 590 251 599 Q234 608 218.5 615.5 Q203 623 191 623 Q172 623 162 610 Q152 597 145 581 L104 590 Q110 606 118 621.5 Q126 637 137 649.5 Q148 662 163 670 Q178 678 197 678 Q216 678 233 671 Q250 664 266 655 Q282 646 297 639 Q312 632 326 632 Q347 632 357 645 Q367 658 375 675 L416 665 Z M477 239 Q477 190 463 144.5 Q449 99 421.5 64.5 Q394 30 353 9 Q312 -12 259 -12 Q206 -12 166 8 Q126 28 99 61.5 Q72 95 58 139.5 Q44 184 44 233 Q44 285 57.5 331.5 Q71 378 98.5 413 Q126 448 167.5 468.5 Q209 489 265 489 Q318 489 358 468 Q398 447 424.5 412.5 Q451 378 464 332.5 Q477 287 477 239 Z M414 241 Q414 277 406.5 312.5 Q399 348 381 376 Q363 404 334 421.5 Q305 439 263 439 Q218 439 188 421 Q158 403 140 374 Q122 345 114.5 307.5 Q107 270 107 232 Q107 196 115 161.5 Q123 127 141 100 Q159 73 187.5 56.5 Q216 40 257 40 Q301 40 331 57 Q361 74 379.5 102 Q398 130 406 166.5 Q414 203 414 241 Z " />
<glyph glyph-name="odieresis" unicode="&#xf6;" horiz-adv-x="521" d="M316 582 L316 674 L377 674 L377 582 L316 582 Z M144 582 L144 674 L205 674 L205 582 L144 582 Z M477 239 Q477 190 463 144.5 Q449 99 421.5 64.5 Q394 30 353 9 Q312 -12 259 -12 Q206 -12 166 8 Q126 28 99 61.5 Q72 95 58 139.5 Q44 184 44 233 Q44 285 57.5 331.5 Q71 378 98.5 413 Q126 448 167.5 468.5 Q209 489 265 489 Q318 489 358 468 Q398 447 424.5 412.5 Q451 378 464 332.5 Q477 287 477 239 Z M414 241 Q414 277 406.5 312.5 Q399 348 381 376 Q363 404 334 421.5 Q305 439 263 439 Q218 439 188 421 Q158 403 140 374 Q122 345 114.5 307.5 Q107 270 107 232 Q107 196 115 161.5 Q123 127 141 100 Q159 73 187.5 56.5 Q216 40 257 40 Q301 40 331 57 Q361 74 379.5 102 Q398 130 406 166.5 Q414 203 414 241 Z " />
<glyph glyph-name="divide" unicode="&#xf7;" horiz-adv-x="724" d="M329 396 L329 490 L397 490 L397 396 L329 396 Z M79 262 L79 322 L645 322 L645 262 L79 262 Z M329 95 L329 189 L397 189 L397 95 L329 95 Z " />
<glyph glyph-name="oslash" unicode="&#xf8;" horiz-adv-x="521" d="M477 242 Q477 193 463.5 147 Q450 101 423 65.5 Q396 30 355.5 9 Q315 -12 261 -12 Q234 -12 207 -6 Q180 0 157 14 L136 -22 L99 0 L121 38 Q44 119 44 236 Q44 284 58 330 Q72 376 99 411 Q126 446 166.5 467.5 Q207 489 260 489 Q314 489 361 463 L384 504 L423 481 L397 437 Q405 429 411.5 422 Q418 415 425 407 Q453 373 465 329 Q477 285 477 242 Z M416 237 Q416 279 406.5 318 Q397 357 371 391 L182 60 Q218 40 258 40 Q301 40 331 56.5 Q361 73 380 100.5 Q399 128 407.5 163.5 Q416 199 416 237 Z M337 418 Q318 427 301 432.5 Q284 438 263 438 Q245 438 228 433 Q211 428 195 420 Q170 406 152.5 385.5 Q135 365 124 340.5 Q113 316 108.5 288.5 Q104 261 104 234 Q104 192 115 158 Q126 124 149 89 L337 418 Z " />
<glyph glyph-name="ugrave" unicode="&#xf9;" horiz-adv-x="521" d="M249 558 L79 698 L190 698 L302 558 L249 558 Z M387 0 L387 86 Q367 34 326.5 11.5 Q286 -11 232 -11 Q206 -11 180.5 -3.5 Q155 4 135 21 Q114 38 102 58.5 Q90 79 84 102 Q78 125 76.5 150 Q75 175 75 199 L75 477 L135 477 L135 204 Q135 173 137.5 144 Q140 115 151 93 Q162 71 184 57.5 Q206 44 245 44 Q272 44 296 51.5 Q320 59 340 79 Q372 111 379.5 151.5 Q387 192 387 235 L387 261 L387 477 L446 477 L446 0 L387 0 Z " />
<glyph glyph-name="uacute" unicode="&#xfa;" horiz-adv-x="521" d="M271 558 L218 558 L330 698 L442 698 L271 558 Z M387 0 L387 86 Q367 34 326.5 11.5 Q286 -11 232 -11 Q206 -11 180.5 -3.5 Q155 4 135 21 Q114 38 102 58.5 Q90 79 84 102 Q78 125 76.5 150 Q75 175 75 199 L75 477 L135 477 L135 204 Q135 173 137.5 144 Q140 115 151 93 Q162 71 184 57.5 Q206 44 245 44 Q272 44 296 51.5 Q320 59 340 79 Q372 111 379.5 151.5 Q387 192 387 235 L387 261 L387 477 L446 477 L446 0 L387 0 Z " />
<glyph glyph-name="ucircumflex" unicode="&#xfb;" horiz-adv-x="521" d="M358 558 L259 623 L170 558 L121 558 L248 696 L275 696 L409 558 L358 558 Z M387 0 L387 86 Q367 34 326.5 11.5 Q286 -11 232 -11 Q206 -11 180.5 -3.5 Q155 4 135 21 Q114 38 102 58.5 Q90 79 84 102 Q78 125 76.5 150 Q75 175 75 199 L75 477 L135 477 L135 204 Q135 173 137.5 144 Q140 115 151 93 Q162 71 184 57.5 Q206 44 245 44 Q272 44 296 51.5 Q320 59 340 79 Q372 111 379.5 151.5 Q387 192 387 235 L387 261 L387 477 L446 477 L446 0 L387 0 Z " />
<glyph glyph-name="udieresis" unicode="&#xfc;" horiz-adv-x="521" d="M316 582 L316 674 L377 674 L377 582 L316 582 Z M144 582 L144 674 L205 674 L205 582 L144 582 Z M387 0 L387 86 Q367 34 326.5 11.5 Q286 -11 232 -11 Q206 -11 180.5 -3.5 Q155 4 135 21 Q114 38 102 58.5 Q90 79 84 102 Q78 125 76.5 150 Q75 175 75 199 L75 477 L135 477 L135 204 Q135 173 137.5 144 Q140 115 151 93 Q162 71 184 57.5 Q206 44 245 44 Q272 44 296 51.5 Q320 59 340 79 Q372 111 379.5 151.5 Q387 192 387 235 L387 261 L387 477 L446 477 L446 0 L387 0 Z " />
<glyph glyph-name="yacute" unicode="&#xfd;" horiz-adv-x="437" d="M230 558 L177 558 L288 698 L400 698 L230 558 Z M212 -69 Q204 -89 196.5 -108 Q189 -127 181 -147 Q173 -167 164 -184 Q155 -201 143 -214 Q131 -227 114.5 -234.5 Q98 -242 74 -242 Q39 -242 11 -223 L11 -163 Q25 -172 41 -179 Q57 -186 74 -186 Q90 -186 101.5 -175.5 Q113 -165 121 -150.5 Q129 -136 135 -120 Q141 -104 146 -92 Q155 -69 164 -46 Q173 -23 181 0 L16 477 L73 477 L212 71 L367 477 L427 477 L212 -69 Z " />
<glyph glyph-name="thorn" unicode="&#xfe;" horiz-adv-x="521" d="M477 239 Q477 195 465 150.5 Q453 106 428.5 70 Q404 34 367 11.5 Q330 -11 280 -11 Q257 -11 234 -5.5 Q211 0 191.5 11.5 Q172 23 156.5 40 Q141 57 133 80 L133 -253 L75 -253 L75 706 L133 706 L133 399 Q153 444 191 465.5 Q229 487 277 487 Q328 487 366 465.5 Q404 444 428.5 409 Q453 374 465 329.5 Q477 285 477 239 Z M416 243 Q416 279 408 313 Q400 347 382 374 Q364 401 335.5 417 Q307 433 266 433 Q222 433 195.5 413.5 Q169 394 155 363 Q141 332 137 295.5 Q133 259 133 224 Q133 192 139.5 160 Q146 128 161.5 102.5 Q177 77 202.5 61 Q228 45 267 45 Q308 45 336 63 Q364 81 382 109.5 Q400 138 408 173 Q416 208 416 243 Z " />
<glyph glyph-name="ydieresis" unicode="&#xff;" horiz-adv-x="437" d="M275 582 L275 674 L336 674 L336 582 L275 582 Z M103 582 L103 674 L164 674 L164 582 L103 582 Z M212 -69 Q204 -89 196.5 -108 Q189 -127 181 -147 Q173 -167 164 -184 Q155 -201 143 -214 Q131 -227 114.5 -234.5 Q98 -242 74 -242 Q39 -242 11 -223 L11 -163 Q25 -172 41 -179 Q57 -186 74 -186 Q90 -186 101.5 -175.5 Q113 -165 121 -150.5 Q129 -136 135 -120 Q141 -104 146 -92 Q155 -69 164 -46 Q173 -23 181 0 L16 477 L73 477 L212 71 L367 477 L427 477 L212 -69 Z " />
<glyph glyph-name="dotlessi" unicode="&#x131;" horiz-adv-x="208" d="M75 0 L75 477 L133 477 L133 0 L75 0 Z " />
<glyph glyph-name="Lslash" unicode="&#x141;" horiz-adv-x="562" d="M81 0 L81 254 L0 202 L0 262 L81 315 L81 706 L149 706 L149 358 L365 498 L365 437 L149 298 L149 62 L539 62 L539 0 L81 0 Z " />
<glyph glyph-name="lslash" unicode="&#x142;" horiz-adv-x="208" d="M134 377 L134 0 L74 0 L74 339 L0 290 L0 350 L74 399 L74 706 L134 706 L134 437 L208 485 L208 426 L134 377 Z " />
<glyph glyph-name="OE" unicode="&#x152;" horiz-adv-x="1062" d="M535 0 Q524 0 512.5 -4 Q501 -8 490 -10 Q467 -15 443.5 -16.5 Q420 -18 397 -18 Q314 -18 249.5 10 Q185 38 140.5 87.5 Q96 137 73 205 Q50 273 50 353 Q50 434 73.5 501.5 Q97 569 142 617.5 Q187 666 252 693.5 Q317 721 400 721 Q421 721 442.5 719.5 Q464 718 484 714 Q495 712 504.5 709 Q514 706 525 706 L1001 706 L1001 648 L593 648 L593 392 L963 392 L963 330 L593 330 L593 60 L1026 60 L1026 0 L535 0 Z M525 648 Q497 652 469 655.5 Q441 659 412 659 Q337 659 282 636.5 Q227 614 191 573 Q155 532 137.5 473.5 Q120 415 120 344 Q120 275 139.5 219.5 Q159 164 196.5 124.5 Q234 85 288.5 63.5 Q343 42 413 42 Q471 42 525 60 L525 648 Z " />
<glyph glyph-name="oe" unicode="&#x153;" horiz-adv-x="896" d="M854 128 Q822 57 769 22.5 Q716 -12 638 -12 Q591 -12 547.5 4 Q504 20 475 59 Q461 79 448 103 Q424 44 373.5 16 Q323 -12 262 -12 Q208 -12 167 8.5 Q126 29 99 63.5 Q72 98 58 143 Q44 188 44 238 Q44 289 58 335 Q72 381 100 415 Q128 449 170 469 Q212 489 267 489 Q327 489 376 461 Q425 433 448 376 Q478 431 525.5 460 Q573 489 636 489 Q720 489 775 440.5 Q830 392 846 311 Q850 293 851 275 Q852 257 854 239 L483 239 Q482 233 482 226.5 Q482 220 482 214 Q482 178 492 146.5 Q502 115 522 91.5 Q542 68 571 54 Q600 40 638 40 Q695 40 733.5 66.5 Q772 93 797 143 L854 128 Z M786 288 Q781 353 743.5 394.5 Q706 436 638 436 Q586 436 546.5 407.5 Q507 379 492 328 Q489 318 487.5 308 Q486 298 483 288 L786 288 Z M420 235 Q420 273 412 309.5 Q404 346 386 374.5 Q368 403 338 420 Q308 437 264 437 Q222 437 192.5 420 Q163 403 144.5 375 Q126 347 117 311.5 Q108 276 108 240 Q108 203 116 167 Q124 131 142 103 Q160 75 189.5 57.5 Q219 40 262 40 Q305 40 335 56.5 Q365 73 384 100 Q403 127 411.5 162 Q420 197 420 235 Z " />
<glyph glyph-name="Scaron" unicode="&#x160;" horiz-adv-x="604" d="M323 772 L282 772 L177 895 L226 895 L304 839 L381 895 L428 895 L323 772 Z M575 194 Q575 139 546 93 Q528 63 501.5 42 Q475 21 444.5 7.5 Q414 -6 380 -12 Q346 -18 313 -18 Q273 -18 235.5 -10.5 Q198 -3 165 14 Q132 31 106.5 58.5 Q81 86 65 125 Q60 138 56.5 151 Q53 164 49 178 L116 213 Q116 169 131.5 136.5 Q147 104 173.5 83 Q200 62 235.5 51.5 Q271 41 312 41 Q347 41 381.5 49.5 Q416 58 444 76 Q472 94 489.5 122.5 Q507 151 507 191 Q507 245 478.5 273 Q450 301 403 318 Q377 328 349.5 334.5 Q322 341 294.5 348 Q267 355 240 363 Q213 371 188 384 Q140 408 112.5 446 Q85 484 85 540 Q85 591 105 626 Q125 661 158 682.5 Q191 704 233 714 Q275 724 319 724 Q360 724 397.5 715 Q435 706 467 687 Q499 668 523.5 639 Q548 610 561 569 L499 535 Q493 552 486.5 568.5 Q480 585 469 599 Q443 635 401.5 652 Q360 669 316 669 Q286 669 256.5 662.5 Q227 656 203.5 641 Q180 626 165 602 Q150 578 150 543 Q150 495 177.5 469 Q205 443 247 427 Q273 417 299.5 410.5 Q326 404 353 397.5 Q380 391 406 383.5 Q432 376 457 364 Q510 338 542.5 296 Q575 254 575 194 Z " />
<glyph glyph-name="scaron" unicode="&#x161;" horiz-adv-x="458" d="M244 558 L217 558 L83 696 L134 696 L232 631 L322 696 L371 696 L244 558 Z M404 135 Q404 98 388.5 70.5 Q373 43 348 24.5 Q323 6 291 -3 Q259 -12 226 -12 Q157 -12 109 20.5 Q61 53 34 116 L92 137 Q103 90 141.5 66 Q180 42 226 42 Q248 42 269.5 47 Q291 52 308.5 63 Q326 74 336.5 92 Q347 110 347 135 Q347 170 326 187 Q305 204 273.5 213.5 Q242 223 205.5 229.5 Q169 236 137.5 249 Q106 262 85 286.5 Q64 311 64 356 Q64 392 78.5 417 Q93 442 117 458 Q141 474 171.5 481.5 Q202 489 233 489 Q261 489 288.5 483.5 Q316 478 339 465.5 Q362 453 379.5 432 Q397 411 404 381 L348 366 Q344 387 331.5 400.5 Q319 414 302.5 422 Q286 430 267 433.5 Q248 437 230 437 Q211 437 192 433.5 Q173 430 157.5 421 Q142 412 132 397 Q122 382 122 359 Q122 327 143 311.5 Q164 296 195 287.5 Q226 279 263 273 Q300 267 331 252.5 Q362 238 383 211 Q404 184 404 135 Z " />
<glyph glyph-name="Ydieresis" unicode="&#x178;" horiz-adv-x="625" d="M389 784 L389 881 L456 881 L456 784 L389 784 Z M170 784 L170 881 L237 881 L237 784 L170 784 Z M339 292 L339 0 L273 0 L273 292 L10 706 L89 706 L307 355 L534 706 L615 706 L339 292 Z " />
<glyph glyph-name="Zcaron" unicode="&#x17d;" horiz-adv-x="583" d="M313 772 L271 772 L167 895 L216 895 L293 839 L371 895 L417 895 L313 772 Z M124 60 L548 60 L548 0 L29 0 L29 44 L464 646 L55 646 L55 706 L554 706 L554 660 L124 60 Z " />
<glyph glyph-name="zcaron" unicode="&#x17e;" horiz-adv-x="396" d="M212 558 L186 558 L52 696 L103 696 L201 631 L291 696 L340 696 L212 558 Z M28 0 L28 37 L286 426 L50 426 L50 477 L369 477 L369 442 L111 53 L376 53 L376 0 L28 0 Z " />
<glyph glyph-name="florin" unicode="&#x192;" horiz-adv-x="333" d="M327 647 Q319 649 311.5 651 Q304 653 296 653 Q279 653 268.5 645.5 Q258 638 252 627 Q246 616 243 602 Q240 588 237 575 L212 471 L297 471 L286 426 L202 426 L62 -147 Q58 -165 49 -182.5 Q40 -200 27.5 -213.5 Q15 -227 -1.5 -235.5 Q-18 -244 -39 -244 Q-68 -244 -92 -232 L-77 -177 Q-69 -180 -60.5 -182.5 Q-52 -185 -44 -185 Q-30 -185 -21 -178.5 Q-12 -172 -6.5 -161.5 Q-1 -151 2 -139 Q5 -127 8 -116 L140 426 L67 426 L78 471 L150 471 L183 603 Q189 625 196 645 Q203 665 215 680.5 Q227 696 245 705 Q263 714 289 714 Q303 714 315.5 711 Q328 708 341 704 L327 647 Z " />
<glyph glyph-name="circumflex" unicode="&#x2c6;" horiz-adv-x="271" d="M229 558 L131 623 L42 558 L-9 558 L119 696 L145 696 L280 558 L229 558 Z " />
<glyph glyph-name="caron" unicode="&#x2c7;" horiz-adv-x="271" d="M153 558 L126 558 L-9 696 L42 696 L140 631 L230 696 L280 696 L153 558 Z " />
<glyph glyph-name="breve" unicode="&#x2d8;" horiz-adv-x="271" d="M276 684 Q267 629 225.5 596.5 Q184 564 129 564 Q103 564 79.5 573 Q56 582 38 597.5 Q20 613 8.5 635 Q-3 657 -5 684 L39 684 Q47 650 73.5 635 Q100 620 132 620 Q147 620 163.5 623.5 Q180 627 194.5 635 Q209 643 219 655 Q229 667 232 684 L276 684 Z " />
<glyph glyph-name="dotaccent" unicode="&#x2d9;" horiz-adv-x="271" d="M105 582 L105 674 L166 674 L166 582 L105 582 Z " />
<glyph glyph-name="ring" unicode="&#x2da;" horiz-adv-x="271" d="M215 632 Q215 599 192 575.5 Q169 552 136 552 Q103 552 79.5 575.5 Q56 599 56 632 Q56 665 79.5 688 Q103 711 136 711 Q169 711 192 688 Q215 665 215 632 Z M176 633 Q176 650 163.5 662.5 Q151 675 134 675 Q116 675 104 663 Q92 651 92 633 Q92 616 104.5 603.5 Q117 591 134 591 Q151 591 163.5 603.5 Q176 616 176 633 Z " />
<glyph glyph-name="ogonek" unicode="&#x2db;" horiz-adv-x="271" d="M201 -163 Q195 -164 188.5 -164 Q182 -164 176 -164 Q160 -164 141.5 -161.5 Q123 -159 107 -151.5 Q91 -144 80.5 -131 Q70 -118 70 -97 Q70 -81 77.5 -66.5 Q85 -52 96.5 -39 Q108 -26 121 -14.5 Q134 -3 145 6 L192 5 Q183 -2 171.5 -11 Q160 -20 150 -30.5 Q140 -41 133.5 -52.5 Q127 -64 127 -77 Q127 -92 134.5 -100 Q142 -108 153 -112 Q164 -116 177 -116.5 Q190 -117 201 -117 L201 -163 Z " />
<glyph glyph-name="tilde" unicode="&#x2dc;" horiz-adv-x="271" d="M292 665 Q285 650 277 634 Q269 618 258 605 Q247 592 232.5 583.5 Q218 575 198 575 Q181 575 163 582.5 Q145 590 128.5 599 Q112 608 96.5 615.5 Q81 623 68 623 Q49 623 39 610 Q29 597 22 581 L-21 590 Q-15 606 -6.5 622 Q2 638 13 650.5 Q24 663 39 670.5 Q54 678 73 678 Q91 678 108.5 671 Q126 664 142 655 Q158 646 173 639 Q188 632 202 632 Q222 632 232.5 645.5 Q243 659 251 675 L292 665 Z " />
<glyph glyph-name="hungarumlaut" unicode="&#x2dd;" horiz-adv-x="271" d="M151 558 L98 558 L209 698 L321 698 L151 558 Z M3 558 L-50 558 L62 698 L174 698 L3 558 Z " />
<glyph glyph-name="Mu" unicode="&#x39c;" horiz-adv-x="521" d="M387 0 L387 86 Q381 74 371 57.5 Q361 41 345 26 Q329 11 306.5 0.5 Q284 -10 253 -10 Q206 -10 180 9.5 Q154 29 135 54 L135 -241 L75 -241 L75 477 L135 477 L135 225 Q135 203 135.5 181 Q136 159 140 138.5 Q144 118 153 100.5 Q162 83 179 68 Q190 60 208.5 52 Q227 44 254 44 Q287 44 308.5 55.5 Q330 67 344 82 Q362 101 371 123.5 Q380 146 383.5 169 Q387 192 387 214.5 Q387 237 387 256 L387 477 L446 477 L446 0 L387 0 Z " />
<glyph glyph-name="pi" unicode="&#x3c0;" horiz-adv-x="607" d="M534 0 Q489 0 470 4.5 Q451 9 436 22 Q421 34 415 56 Q414 62 413.5 66 Q413 70 412.5 76.5 Q412 83 412 92.5 Q412 102 412 118 L412 414 L189 414 L189 0 L128 0 L128 414 L74 414 L74 471 L527 471 L527 414 L472 414 L473 115 Q473 89 474 81.5 Q475 74 480 66 Q484 58 495 52 Q500 50 510 48 Q512 48 517 47.5 Q522 47 531 47 L542 47 L542 0 L534 0 Z " />
<glyph glyph-name="endash" unicode="&#x2013;" horiz-adv-x="565" d="M38 264 L38 324 L527 324 L527 264 L38 264 Z " />
<glyph glyph-name="emdash" unicode="&#x2014;" horiz-adv-x="843" d="M38 264 L38 324 L805 324 L805 264 L38 264 Z " />
<glyph glyph-name="quoteleft" unicode="&#x2018;" horiz-adv-x="167" d="M44 432 L44 525 Q44 552 45.5 575 Q47 598 51.5 619.5 Q56 641 65 662 Q74 683 90 706 L122 684 Q111 665 103.5 650 Q96 635 91.5 620 Q87 605 85.5 588 Q84 571 84 549 L122 549 L122 432 L44 432 Z " />
<glyph glyph-name="quoteright" unicode="&#x2019;" horiz-adv-x="167" d="M123 608 Q123 581 121.5 559 Q120 537 115.5 516.5 Q111 496 102 476 Q93 456 77 432 L44 455 Q56 474 63 489 Q70 504 74.5 519.5 Q79 535 80.5 551.5 Q82 568 82 590 L44 590 L44 706 L123 706 L123 608 Z " />
<glyph glyph-name="quotesinglbase" unicode="&#x201a;" horiz-adv-x="167" d="M123 18 Q123 -9 121.5 -31.5 Q120 -54 115.5 -74 Q111 -94 102 -114.5 Q93 -135 77 -158 L44 -135 Q56 -116 63 -101 Q70 -86 74.5 -70.5 Q79 -55 80.5 -38.5 Q82 -22 82 0 L44 0 L44 116 L123 116 L123 18 Z " />
<glyph glyph-name="quotedblleft" unicode="&#x201c;" horiz-adv-x="292" d="M169 432 L169 543 Q169 592 178 628 Q187 664 215 706 L248 684 Q236 665 229 650 Q222 635 217.5 620 Q213 605 211.5 588 Q210 571 210 549 L248 549 L248 432 L169 432 Z M44 432 L44 525 Q44 553 45.5 576 Q47 599 51.5 620 Q56 641 65 661.5 Q74 682 90 706 L123 684 Q100 656 92 620 Q84 584 84 549 L123 549 L123 432 L44 432 Z " />
<glyph glyph-name="quotedblright" unicode="&#x201d;" horiz-adv-x="292" d="M248 586 Q248 562 246 542.5 Q244 523 238.5 505 Q233 487 224.5 469.5 Q216 452 202 432 L169 455 Q174 461 177.5 468 Q181 475 185 482 Q199 511 203 534.5 Q207 558 207 590 L169 590 L169 706 L248 706 L248 586 Z M123 606 Q123 570 118.5 534 Q114 498 97 466 Q92 457 87 449 Q82 441 77 432 L44 455 Q56 474 63 489 Q70 504 74.5 519 Q79 534 80.5 551 Q82 568 82 590 L44 590 L44 706 L123 706 L123 606 Z " />
<glyph glyph-name="quotedblbase" unicode="&#x201e;" horiz-adv-x="292" d="M248 -4 Q248 -28 245.5 -47.5 Q243 -67 238 -85 Q233 -103 224 -120.5 Q215 -138 202 -158 L169 -135 Q174 -129 177.5 -122 Q181 -115 185 -108 Q199 -79 203 -55.5 Q207 -32 207 0 L169 0 L169 116 L248 116 L248 -4 Z M123 15 Q123 -21 118.5 -56.5 Q114 -92 97 -124 Q92 -133 87 -141 Q82 -149 77 -158 L44 -135 Q56 -116 63 -101 Q70 -86 74.5 -71 Q79 -56 80.5 -39 Q82 -22 82 0 L44 0 L44 116 L123 116 L123 15 Z " />
<glyph glyph-name="dagger" unicode="&#x2020;" horiz-adv-x="562" d="M317 440 L317 0 L249 0 L249 440 L89 440 L89 499 L249 499 L249 706 L317 706 L317 499 L474 499 L474 440 L317 440 Z " />
<glyph glyph-name="daggerdbl" unicode="&#x2021;" horiz-adv-x="562" d="M317 213 L317 0 L249 0 L249 213 L89 213 L89 272 L249 272 L249 452 L89 452 L89 511 L249 511 L249 706 L317 706 L317 511 L474 511 L474 452 L317 452 L317 272 L474 272 L474 213 L317 213 Z " />
<glyph glyph-name="bullet" unicode="&#x2022;" horiz-adv-x="333" d="M56 247 L57 465 L277 465 L277 247 L56 247 Z " />
<glyph glyph-name="ellipsis" unicode="&#x2026;" horiz-adv-x="1000" d="M792 0 L792 82 L875 82 L875 0 L792 0 Z M458 0 L458 82 L541 82 L541 0 L458 0 Z M125 0 L125 82 L207 82 L207 0 L125 0 Z " />
<glyph glyph-name="perthousand" unicode="&#x2030;" horiz-adv-x="1250" d="M1219 212 Q1219 175 1210.5 136 Q1202 97 1183.5 65 Q1165 33 1134.5 12.5 Q1104 -8 1060 -8 Q1015 -8 985.5 14 Q956 36 938 70 Q920 104 913 144.5 Q906 185 906 221 Q906 259 913.5 299.5 Q921 340 939 373 Q957 406 987.5 427.5 Q1018 449 1064 449 Q1112 449 1142 426.5 Q1172 404 1189.5 369 Q1207 334 1213 292 Q1219 250 1219 212 Z M844 212 Q844 175 836 136 Q828 97 809 65 Q790 33 760 12.5 Q730 -8 686 -8 Q641 -8 611 14 Q581 36 563 70 Q545 104 538 144 Q531 184 531 221 Q531 259 538.5 299.5 Q546 340 564 373 Q582 406 612.5 427.5 Q643 449 689 449 Q737 449 767 426.5 Q797 404 814.5 369 Q832 334 838 292 Q844 250 844 212 Z M285 -39 L245 -21 L596 749 L638 730 L285 -39 Z M344 477 Q344 440 335.5 401 Q327 362 308.5 330 Q290 298 259.5 277.5 Q229 257 185 257 Q140 257 110.5 279 Q81 301 63.5 334.5 Q46 368 38.5 408 Q31 448 31 484 Q31 522 38.5 562.5 Q46 603 64 637 Q82 671 112.5 692.5 Q143 714 189 714 Q237 714 267 691.5 Q297 669 314.5 634 Q332 599 338 557 Q344 515 344 477 Z M1168 218 Q1168 243 1164 275.5 Q1160 308 1148.5 337 Q1137 366 1116.5 386 Q1096 406 1063 406 Q1030 406 1009 386 Q988 366 976.5 337.5 Q965 309 961 276.5 Q957 244 957 219 Q957 193 961 161 Q965 129 976 101.5 Q987 74 1008.5 55.5 Q1030 37 1064 37 Q1098 37 1118.5 55.5 Q1139 74 1150 102 Q1161 130 1164.5 161.5 Q1168 193 1168 218 Z M793 218 Q793 243 789 275.5 Q785 308 773.5 337 Q762 366 741.5 386 Q721 406 688 406 Q655 406 634 386 Q613 366 601.5 337.5 Q590 309 586 276.5 Q582 244 582 219 Q582 193 586 161 Q590 129 601 101.5 Q612 74 633.5 55.5 Q655 37 689 37 Q723 37 743.5 55.5 Q764 74 775 102 Q786 130 789.5 161.5 Q793 193 793 218 Z M293 483 Q293 508 289 540 Q285 572 273.5 601 Q262 630 241.5 650 Q221 670 188 670 Q155 670 134.5 650.5 Q114 631 102 603 Q90 575 86 543 Q82 511 82 486 Q82 459 85.5 427 Q89 395 100.5 367.5 Q112 340 133 321 Q154 302 189 302 Q223 302 243.5 320.5 Q264 339 275 367 Q286 395 289.5 426.5 Q293 458 293 483 Z " />
<glyph glyph-name="guilsinglleft" unicode="&#x2039;" horiz-adv-x="250" d="M162 137 L43 309 L162 494 L209 464 L110 309 L209 168 L162 137 Z " />
<glyph glyph-name="guilsinglright" unicode="&#x203a;" horiz-adv-x="250" d="M88 137 L41 167 L140 322 L41 463 L88 494 L207 322 L88 137 Z " />
<glyph glyph-name="fraction" unicode="&#x2044;" horiz-adv-x="125" d="M-98 0 L-131 13 L223 711 L256 695 L-98 0 Z " />
<glyph glyph-name="Euro" unicode="&#x20ac;" horiz-adv-x="634" d="M587 554 Q554 608 503 629 Q452 650 391 650 Q342 650 304 633.5 Q266 617 238.5 588.5 Q211 560 194 520.5 Q177 481 169 436 L543 436 L524 383 L164 383 Q162 375 162 368.5 Q162 362 162 354 Q162 346 162 339 Q162 332 163 324 L501 324 L482 271 L167 271 Q173 222 190.5 179.5 Q208 137 237.5 106 Q267 75 308 57.5 Q349 40 401 40 Q426 40 453 45 Q480 50 505.5 60 Q531 70 553.5 85 Q576 100 592 120 L592 43 Q544 8 499 -5 Q454 -18 395 -18 Q329 -18 277 3.5 Q225 25 187.5 63 Q150 101 127.5 154.5 Q105 208 97 271 L21 271 L41 324 L93 324 Q93 339 93.5 353.5 Q94 368 95 383 L21 383 L40 436 L101 436 Q109 497 133.5 547 Q158 597 196.5 632.5 Q235 668 286.5 687.5 Q338 707 401 707 Q464 707 518 688 Q572 669 614 620 L587 554 Z " />
<glyph glyph-name="trademark" unicode="&#x2122;" horiz-adv-x="683" d="M565 374 L567 659 L478 374 L436 374 L347 658 L351 374 L305 374 L305 706 L372 706 L458 434 L543 706 L611 706 L611 374 L565 374 Z M170 665 L170 374 L122 374 L122 665 L22 665 L22 706 L268 706 L268 665 L170 665 Z " />
<glyph glyph-name="Omega" unicode="&#x2126;" horiz-adv-x="733" d="M419 0 L419 62 Q437 68 450.5 73.5 Q464 79 475 86 Q486 93 495.5 101.5 Q505 110 515 122 Q554 166 576 234.5 Q598 303 598 381 Q598 447 582 500 Q566 553 536 590.5 Q506 628 463.5 648.5 Q421 669 368 669 Q273 669 218 614 Q176 572 154 509.5 Q132 447 132 370 Q132 323 140.5 278.5 Q149 234 164 196 Q183 151 218 114 Q238 94 257.5 83.5 Q277 73 314 62 L314 0 L53 0 L53 62 L203 62 Q61 159 61 372 Q61 454 82.5 519 Q104 584 143.5 629.5 Q183 675 240 699.5 Q297 724 369 724 Q438 724 493.5 700 Q549 676 588 632 Q627 588 648 524.5 Q669 461 669 383 Q669 305 647.5 237.5 Q626 170 585 121 Q568 101 554.5 90 Q541 79 515 62 L680 62 L680 0 L419 0 Z " />
<glyph glyph-name="partialdiff" unicode="&#x2202;" horiz-adv-x="531" d="M454 372 Q454 307 447.5 248.5 Q441 190 429 148 Q408 73 358 32 Q308 -9 238 -9 Q195 -9 159.5 6 Q124 21 98.5 48.5 Q73 76 59 114 Q45 152 45 198 Q45 249 60 290.5 Q75 332 102.5 361.5 Q130 391 168.5 407.5 Q207 424 254 424 Q329 424 391 380 L391 395 Q391 429 387 470 Q383 511 376 540 Q362 600 326.5 632 Q291 664 238 664 Q218 664 198 660.5 Q178 657 146 646 L136 701 Q193 721 246 721 Q312 721 356 689 Q407 652 430.5 576 Q454 500 454 372 Z M387 311 Q354 342 321.5 355.5 Q289 369 251 369 Q185 369 146.5 323 Q108 277 108 196 Q108 125 142 85 Q176 45 236 45 Q311 45 348 109.5 Q385 174 387 311 Z " />
<glyph glyph-name="Delta" unicode="&#x2206;" horiz-adv-x="603" d="M-5 0 L273 706 L332 706 L608 0 L-5 0 Z M300 614 L89 62 L512 62 L300 614 Z " />
<glyph glyph-name="product" unicode="&#x220f;" horiz-adv-x="706" d="M563 -122 L563 646 L142 646 L142 -122 L76 -122 L76 706 L630 706 L630 -122 L563 -122 Z " />
<glyph glyph-name="summation" unicode="&#x2211;" horiz-adv-x="585" d="M30 -122 L30 -63 L325 303 L30 645 L30 706 L560 706 L560 645 L116 646 L413 304 L112 -60 L560 -60 L560 -122 L30 -122 Z " />
<glyph glyph-name="minus" unicode="&#x2212;" horiz-adv-x="724" d="M79 263 L79 323 L645 323 L645 263 L79 263 Z " />
<glyph glyph-name="radical" unicode="&#x221a;" horiz-adv-x="725" d="M369 -185 L307 -185 L165 123 L98 90 L73 142 L199 205 L334 -100 L572 706 L637 706 L369 -185 Z " />
<glyph glyph-name="infinity" unicode="&#x221e;" horiz-adv-x="724" d="M693 294 Q693 255 680.5 222 Q668 189 646 164.5 Q624 140 594.5 126 Q565 112 531 112 Q493 112 460 130 Q437 143 422 158 Q414 166 407.5 173 Q401 180 394 189 Q387 198 378.5 210 Q370 222 357 240 L350 230 Q335 209 325 196.5 Q315 184 307.5 176 Q300 168 293 162.5 Q286 157 277 150 Q231 113 181 113 Q149 113 121.5 126 Q94 139 74 162.5 Q54 186 42.5 218 Q31 250 31 288 Q31 327 43 360 Q55 393 76.5 417 Q98 441 127 455 Q156 469 189 469 Q228 469 261 451 Q271 445 280.5 438 Q290 431 299 422 Q318 405 331 388.5 Q344 372 365 339 Q378 357 387 368.5 Q396 380 402.5 388.5 Q409 397 415.5 403.5 Q422 410 430 418 Q454 442 483 455.5 Q512 469 541 469 Q574 469 601.5 455.5 Q629 442 649.5 419 Q670 396 681.5 364 Q693 332 693 294 Z M633 288 Q633 342 607.5 377 Q582 412 543 412 Q511 412 478 385 Q445 358 397 293 Q408 275 416.5 262 Q425 249 432.5 239.5 Q440 230 447.5 221.5 Q455 213 465 204 Q503 168 541 168 Q582 168 607.5 201.5 Q633 235 633 288 Z M327 289 Q316 307 307.5 319.5 Q299 332 292 341.5 Q285 351 277.5 359.5 Q270 368 260 377 Q223 412 184 412 Q143 412 117.5 379 Q92 346 92 293 Q92 239 117.5 204 Q143 169 184 169 Q214 169 243 192.5 Q272 216 315 273 L327 289 Z " />
<glyph glyph-name="integral" unicode="&#x222b;" horiz-adv-x="328" d="M293 647 Q276 658 264.5 662.5 Q253 667 242 667 Q222 667 209 654 Q201 646 198 633 Q195 620 195 588 L195 558 L195 1 L196 -43 Q197 -81 193.5 -100.5 Q190 -120 182 -134 Q160 -176 94 -176 Q80 -176 68.5 -174 Q57 -172 40 -166 L40 -103 Q55 -112 65 -115.5 Q75 -119 87 -119 Q113 -119 123 -103 Q133 -87 133 -44 L133 -40 L133 6 L133 555 L133 588 L133 620 Q133 637 137 652.5 Q141 668 147 679 Q158 699 180.5 710 Q203 721 233 721 Q249 721 262.5 718.5 Q276 716 293 709 L293 647 Z " />
<glyph glyph-name="approxequal" unicode="&#x2248;" horiz-adv-x="724" d="M650 407 Q627 380 612.5 366.5 Q598 353 578 340 Q533 311 485 311 Q468 311 454 314 Q440 317 420 325 Q407 330 394.5 335.5 Q382 341 366 348 L330 364 Q295 380 271.5 387 Q248 394 226 394 Q208 394 193 388 Q176 381 163.5 368.5 Q151 356 125 328 L115 317 L75 357 Q93 382 103.5 393 Q114 404 128 417 Q150 436 176.5 445.5 Q203 455 232 455 Q251 455 274 450 Q291 446 310 438.5 Q329 431 370 414 L411 397 Q447 382 461.5 377 Q476 372 490 372 Q507 372 524.5 378 Q542 384 556 394 Q570 404 580 414 Q590 424 610 447 L650 407 Z M650 227 Q627 199 612.5 186 Q598 173 578 160 Q533 131 485 131 Q468 131 454 134 Q440 137 420 145 Q406 150 393 155 Q380 160 366 167 L330 184 Q295 201 271.5 207.5 Q248 214 226 214 Q208 214 193 208 Q176 201 163.5 188.5 Q151 176 125 148 L115 137 L75 177 Q93 202 103.5 213 Q114 224 128 236 Q173 275 232 275 Q251 275 274 270 Q291 266 310.5 259 Q330 252 370 234 L411 216 Q445 201 460.5 196.5 Q476 192 490 192 Q507 192 524.5 197.5 Q542 203 556 214 Q570 224 580 233.5 Q590 243 610 266 L650 227 Z " />
<glyph glyph-name="notequal" unicode="&#x2260;" horiz-adv-x="724" d="M332 173 L245 -6 L186 -6 L273 173 L99 173 L99 231 L302 231 L358 349 L99 349 L99 408 L389 408 L472 575 L530 575 L448 408 L625 408 L625 349 L417 349 L360 231 L625 231 L625 173 L332 173 Z " />
<glyph glyph-name="lessequal" unicode="&#x2264;" horiz-adv-x="724" d="M129 337 L129 404 L595 633 L595 568 L186 370 L595 170 L595 106 L129 337 Z M129 0 L129 60 L595 60 L595 0 L129 0 Z " />
<glyph glyph-name="greaterequal" unicode="&#x2265;" horiz-adv-x="724" d="M128 106 L128 170 L537 369 L128 568 L128 633 L594 402 L594 334 L128 106 Z M129 0 L129 60 L595 60 L595 0 L129 0 Z " />
<glyph glyph-name="lozenge" unicode="&#x25ca;" horiz-adv-x="724" d="M391 0 L328 0 L154 353 L334 706 L397 706 L571 353 L391 0 Z M365 646 L220 354 L361 61 L507 355 L365 646 Z " />
<glyph glyph-name="fi" unicode="&#xfb01;" horiz-adv-x="521" d="M388 589 L388 680 L446 680 L446 589 L388 589 Z M388 0 L388 477 L446 477 L446 0 L388 0 Z M187 427 L187 0 L128 0 L128 427 L23 427 L23 477 L128 477 L128 592 Q128 622 132 646 Q136 670 147.5 686.5 Q159 703 179.5 711.5 Q200 720 234 720 Q250 720 265 718 Q280 716 295 713 L295 655 Q282 662 267.5 665 Q253 668 239 668 Q207 668 196.5 648 Q186 628 186 600 Q186 569 186.5 538.5 Q187 508 187 477 L295 477 L295 427 L187 427 Z " />
<glyph glyph-name="fl" unicode="&#xfb02;" horiz-adv-x="521" d="M387 0 L387 706 L446 706 L446 0 L387 0 Z M187 427 L187 0 L128 0 L128 427 L23 427 L23 477 L128 477 L128 592 Q128 622 132 646 Q136 670 147.5 686.5 Q159 703 179.5 711.5 Q200 720 234 720 Q250 720 265 718 Q280 716 295 713 L295 655 Q282 662 267.5 665 Q253 668 239 668 Q207 668 196.5 648 Q186 628 186 600 Q186 569 186.5 538.5 Q187 508 187 477 L295 477 L295 427 L187 427 Z " />
</font>
</svg>
