<?xml version="1.0" encoding="UTF-8"?>
<svg xmlns="http://www.w3.org/2000/svg" xmlns:xlink="http://www.w3.org/1999/xlink" version="1.2" >
<font id="NissanAG-Ext">
<font-face  font-family="NissanAG" units-per-em="1000" ascent="750" descent="-250" font-style="normal" font-weight="400" font-stretch="expanded" cap-height="750" x-height="500" underline-position="-75" underline-thickness="50" />
<missing-glyph  horiz-adv-x="1000" d="" />
<glyph glyph-name="null" d="" />
<glyph glyph-name="nonmarkingreturn" unicode="&#xd;" horiz-adv-x="250" d="" />
<glyph glyph-name="space" unicode="&#x20;" horiz-adv-x="375" d="" />
<glyph glyph-name="exclam" unicode="&#x21;" horiz-adv-x="292" d="M218 400 Q218 378 215 363 Q212 348 209 326 L190 179 L146 179 L127 326 Q124 347 120.5 362 Q117 377 117 399 L117 690 L218 690 L218 400 Z M118 0 L118 100 L218 100 L218 0 L118 0 Z " />
<glyph glyph-name="quotedbl" unicode="&#x22;" horiz-adv-x="350" d="M289 453 L251 453 L217 743 L322 743 L289 453 Z M100 453 L62 453 L28 743 L133 743 L100 453 Z " />
<glyph glyph-name="numbersign" unicode="&#x23;" horiz-adv-x="749" d="M531 409 L522 312 L698 312 L698 241 L515 241 L492 0 L414 0 L440 241 L299 241 L273 0 L199 0 L222 241 L40 241 L40 312 L230 312 L239 409 L53 409 L53 483 L245 483 L266 706 L344 706 L322 483 L462 483 L483 706 L559 706 L537 483 L710 483 L710 409 L531 409 Z M315 409 L305 312 L446 312 L455 409 L315 409 Z " />
<glyph glyph-name="dollar" unicode="&#x24;" horiz-adv-x="771" d="M738 205 Q738 165 724 129 Q710 93 681 64 Q655 38 624.5 23 Q594 8 561 0 Q528 -8 493.5 -11 Q459 -14 424 -15 L424 -134 L347 -134 L347 -14 Q308 -14 267 -7 Q226 0 187 14.5 Q148 29 113.5 51 Q79 73 53 103 Q44 113 36.5 124 Q29 135 21 146 L117 182 Q128 169 138.5 157 Q149 145 162 134 Q199 104 249.5 89 Q300 74 348 70 L348 325 Q303 329 252 336 Q201 343 158.5 362 Q116 381 87.5 416 Q59 451 59 510 Q59 539 67.5 567 Q76 595 93 618 Q114 648 144 666.5 Q174 685 208 695.5 Q242 706 278 710.5 Q314 715 348 718 L348 815 L427 815 L427 716 Q467 716 509.5 708 Q552 700 591.5 682.5 Q631 665 665 639.5 Q699 614 721 580 L626 544 Q588 589 535.5 610.5 Q483 632 426 636 L426 411 Q458 409 495 406 Q532 403 568 395.5 Q604 388 636.5 373 Q669 358 692 331 Q716 303 727 272.5 Q738 242 738 205 Z M348 641 Q320 638 286.5 633 Q253 628 224 615 Q195 602 175 580 Q155 558 155 521 Q155 487 176 467 Q197 447 227 436.5 Q257 426 290 422.5 Q323 419 348 416 L348 641 Z M642 200 Q642 229 631.5 248.5 Q621 268 604 280.5 Q587 293 564 300 Q541 307 516 311 Q493 315 470.5 317 Q448 319 425 321 L425 68 Q457 70 495 75 Q533 80 565.5 93.5 Q598 107 620 132 Q642 157 642 200 Z " />
<glyph glyph-name="percent" unicode="&#x25;" horiz-adv-x="1042" d="M1012 221 Q1012 176 998.5 135 Q985 94 959.5 63.5 Q934 33 896.5 14.5 Q859 -4 811 -4 Q762 -4 724.5 13.5 Q687 31 661.5 61.5 Q636 92 623 132.5 Q610 173 610 219 Q610 264 624 305.5 Q638 347 664.5 378 Q691 409 729 427.5 Q767 446 815 446 Q862 446 899 427.5 Q936 409 961 377.5 Q986 346 999 305.5 Q1012 265 1012 221 Z M328 -12 L279 18 L711 701 L760 670 L328 -12 Z M428 469 Q428 424 414.5 383.5 Q401 343 375.5 311.5 Q350 280 313 261.5 Q276 243 228 243 Q179 243 141 260.5 Q103 278 77.5 308.5 Q52 339 39 380 Q26 421 26 467 Q26 512 40 552.5 Q54 593 80.5 624.5 Q107 656 144.5 674.5 Q182 693 229 693 Q277 693 314 674.5 Q351 656 376.5 625 Q402 594 415 553.5 Q428 513 428 469 Z M941 219 Q941 249 933.5 279 Q926 309 910.5 333 Q895 357 870.5 372 Q846 387 811 387 Q777 387 752 371.5 Q727 356 711 331 Q695 306 687.5 275.5 Q680 245 680 215 Q680 184 687.5 155.5 Q695 127 711 104.5 Q727 82 752 68.5 Q777 55 811 55 Q846 55 870.5 69 Q895 83 910.5 106.5 Q926 130 933.5 159.5 Q941 189 941 219 Z M358 467 Q358 497 350.5 527 Q343 557 327.5 581 Q312 605 287 620 Q262 635 227 635 Q193 635 168.5 619 Q144 603 128 578.5 Q112 554 104.5 523.5 Q97 493 97 463 Q97 432 104 403 Q111 374 127 351.5 Q143 329 167.5 315.5 Q192 302 227 302 Q262 302 287 316.5 Q312 331 327.5 354 Q343 377 350.5 407 Q358 437 358 467 Z " />
<glyph glyph-name="ampersand" unicode="&#x26;" horiz-adv-x="771" d="M745 4 Q731 -1 720 -3 Q709 -5 695 -5 Q657 -5 624 16.5 Q591 38 561 59 Q500 21 438.5 1.5 Q377 -18 304 -18 L289 -18 Q263 -16 237 -12.5 Q211 -9 185 -1 Q122 20 80.5 68 Q39 116 39 185 Q39 231 55 262 Q71 293 97.5 314 Q124 335 158.5 349.5 Q193 364 230 378 Q198 408 179 438.5 Q160 469 160 516 Q160 557 176 586.5 Q192 616 218.5 636 Q245 656 279.5 665.5 Q314 675 350 675 Q386 675 419 665 Q452 655 477 635 Q502 615 517 586 Q532 557 532 518 Q532 484 519.5 457 Q507 430 486 409.5 Q465 389 437.5 374.5 Q410 360 381 351 Q414 319 446 287.5 Q478 256 513 226 L563 182 Q577 204 586.5 221 Q596 238 602.5 255 Q609 272 613 291 Q617 310 619 336 L705 338 Q701 304 695.5 277.5 Q690 251 681 227.5 Q672 204 659 181 Q646 158 626 131 Q646 113 670 98 Q694 83 723 83 Q728 83 734 83.5 Q740 84 745 85 L745 4 Z M436 518 Q436 557 411 581 Q386 605 348 605 Q312 605 284.5 583 Q257 561 257 523 Q257 489 280 459 Q303 429 328 409 Q349 415 368.5 423.5 Q388 432 403 444 Q418 456 427 474 Q436 492 436 518 Z M493 114 Q438 162 387 213 Q336 264 285 315 Q262 309 236.5 300 Q211 291 189.5 276.5 Q168 262 154 242 Q140 222 140 193 Q140 159 156.5 134.5 Q173 110 198.5 94 Q224 78 255 70.5 Q286 63 315 63 Q360 63 407.5 75.5 Q455 88 493 114 Z " />
<glyph glyph-name="quotesingle" unicode="&#x27;" horiz-adv-x="161" d="M100 453 L62 453 L28 743 L133 743 L100 453 Z " />
<glyph glyph-name="parenleft" unicode="&#x28;" horiz-adv-x="333" d="M293 -141 Q251 -108 212.5 -73 Q174 -38 142 5 Q92 71 65.5 150 Q39 229 39 311 Q39 380 57 444 Q75 508 108 564.5 Q141 621 187 669 Q233 717 289 755 L318 725 Q274 680 240 637.5 Q206 595 183 548.5 Q160 502 148.5 448.5 Q137 395 137 330 Q137 238 161.5 149 Q186 60 240 -16 Q259 -42 280.5 -65 Q302 -88 325 -110 L293 -141 Z " />
<glyph glyph-name="parenright" unicode="&#x29;" horiz-adv-x="333" d="M295 300 Q295 232 276.5 169 Q258 106 224.5 50 Q191 -6 145 -54 Q99 -102 44 -139 L15 -109 Q59 -65 93 -22.5 Q127 20 150 66.5 Q173 113 185 166 Q197 219 197 284 Q197 377 172 466.5 Q147 556 93 632 Q74 658 52.5 681 Q31 704 8 726 L40 757 Q82 723 120.5 688.5 Q159 654 191 611 Q242 544 268.5 464 Q295 384 295 300 Z " />
<glyph glyph-name="asterisk" unicode="&#x2a;" horiz-adv-x="349" d="M219 546 L282 463 L234 426 L168 511 L109 426 L59 462 L118 547 L18 575 L35 632 L137 605 L137 708 L199 708 L199 603 L302 637 L323 583 L219 546 Z " />
<glyph glyph-name="plus" unicode="&#x2b;" horiz-adv-x="772" d="M435 253 L435 25 L337 25 L337 253 L92 253 L92 339 L337 339 L337 565 L435 565 L435 339 L680 339 L680 253 L435 253 Z " />
<glyph glyph-name="comma" unicode="&#x2c;" horiz-adv-x="250" d="M180 -19 Q180 -76 155.5 -104.5 Q131 -133 71 -134 L71 -79 Q97 -76 106.5 -66 Q116 -56 116 -30 L116 0 L71 0 L71 108 L180 108 L180 -19 Z " />
<glyph glyph-name="hyphen" unicode="&#x2d;" horiz-adv-x="385" d="M35 259 L35 341 L350 341 L350 259 L35 259 Z " />
<glyph glyph-name="period" unicode="&#x2e;" horiz-adv-x="250" d="M69 0 L69 109 L179 109 L179 0 L69 0 Z " />
<glyph glyph-name="slash" unicode="&#x2f;" horiz-adv-x="417" d="M99 0 L11 0 L321 706 L411 706 L99 0 Z " />
<glyph glyph-name="zero" unicode="0" horiz-adv-x="708" d="M676 340 Q676 267 656.5 202 Q637 137 597.5 88.5 Q558 40 499 12 Q440 -16 362 -16 Q283 -16 224.5 13.5 Q166 43 127.5 93.5 Q89 144 70 210 Q51 276 51 348 Q51 420 71.5 484.5 Q92 549 132 597.5 Q172 646 231.5 674 Q291 702 368 702 Q446 702 503.5 672.5 Q561 643 599.5 593 Q638 543 657 477.5 Q676 412 676 340 Z M576 339 Q576 391 564.5 441.5 Q553 492 527.5 532 Q502 572 461 596.5 Q420 621 361 621 Q343 621 323 616 Q274 604 241 576 Q208 548 188.5 509.5 Q169 471 160.5 426 Q152 381 152 336 Q152 287 164.5 238 Q177 189 203 151 Q229 113 269.5 89 Q310 65 366 65 Q410 65 449 83 Q486 100 510.5 128.5 Q535 157 549.5 191.5 Q564 226 570 264 Q576 302 576 339 Z " />
<glyph glyph-name="one" unicode="1" horiz-adv-x="708" d="M330 0 L330 537 Q305 526 282 519.5 Q259 513 236.5 510 Q214 507 190 506 Q166 505 139 504 L139 572 L148 572 Q197 572 244.5 588.5 Q292 605 325 643 Q334 653 340.5 664.5 Q347 676 354 687 L429 687 L429 0 L330 0 Z " />
<glyph glyph-name="two" unicode="2" horiz-adv-x="708" d="M76 0 L76 94 Q115 113 174.5 143 Q234 173 295 208.5 Q356 244 408.5 281 Q461 318 486 350 Q504 374 513.5 398.5 Q523 423 523 453 Q523 492 509 522 Q495 552 471 572.5 Q447 593 414.5 604 Q382 615 345 615 Q321 615 294.5 610 Q268 605 247 593 Q220 578 203.5 559 Q187 540 178.5 518.5 Q170 497 167 472 Q164 447 162 418 L65 432 Q67 465 72 493.5 Q77 522 91 552 Q108 588 136 615.5 Q164 643 198 661 Q232 679 270 688.5 Q308 698 347 698 L351 698 Q436 698 504 660 Q572 622 606 541 Q623 499 623 456 Q623 398 601 354 Q579 310 543.5 275 Q508 240 463.5 212.5 Q419 185 374 161 Q348 147 322 133 Q296 119 269 106 Q252 98 234 91 Q216 84 199 76 Q195 74 193 74 Q218 78 242.5 80 Q267 82 293 82 L640 82 L640 0 L76 0 Z " />
<glyph glyph-name="three" unicode="3" horiz-adv-x="708" d="M648 196 Q648 137 621.5 97 Q595 57 553 32 Q511 7 459.5 -3.5 Q408 -14 358 -14 Q318 -14 276.5 -9 Q235 -4 197.5 9.5 Q160 23 128 47 Q96 71 75 109 Q64 127 58 146.5 Q52 166 47 186 L141 208 Q144 193 148 178.5 Q152 164 160 150 Q175 125 198 108.5 Q221 92 248 83 Q275 74 304 70.5 Q333 67 360 67 Q393 67 426 73.5 Q459 80 485.5 95.5 Q512 111 528.5 136.5 Q545 162 545 201 Q545 255 516 280.5 Q487 306 445.5 315 Q404 324 357 323 Q310 322 274 322 L273 397 Q284 396 294 396 Q304 396 315 396 Q343 396 378 397.5 Q413 399 444 408.5 Q475 418 496.5 439.5 Q518 461 518 500 Q518 534 502.5 557.5 Q487 581 462.5 596 Q438 611 408 617.5 Q378 624 349 624 Q326 624 302 619.5 Q278 615 255.5 606 Q233 597 214 582.5 Q195 568 183 547 Q175 533 171.5 519.5 Q168 506 166 490 L74 507 Q85 560 110 597 Q135 634 171 657 Q207 680 252 690.5 Q297 701 348 701 Q393 701 441.5 691 Q490 681 529.5 658.5 Q569 636 594.5 599 Q620 562 620 508 Q620 473 605.5 442.5 Q591 412 562 392 Q551 384 539.5 379.5 Q528 375 516 370 Q576 349 612 304.5 Q648 260 648 196 Z " />
<glyph glyph-name="four" unicode="4" horiz-adv-x="708" d="M537 166 L537 0 L443 0 L443 166 L43 166 L43 245 L458 688 L536 688 L536 245 L655 245 L655 166 L537 166 Z M446 565 Q420 533 394 504 L151 245 L443 245 Q443 326 442 405.5 Q441 485 446 565 Z " />
<glyph glyph-name="five" unicode="5" horiz-adv-x="708" d="M657 251 Q657 187 631 138 Q605 89 562 55 Q519 21 463.5 3.5 Q408 -14 349 -14 Q299 -14 251.5 -3 Q204 8 164 31.5 Q124 55 93.5 91.5 Q63 128 47 179 L141 199 Q149 182 157.5 167.5 Q166 153 177 139 Q209 101 258 83.5 Q307 66 355 66 Q395 66 431.5 77.5 Q468 89 496 111.5 Q524 134 540.5 167 Q557 200 557 243 Q557 285 541 317 Q525 349 498 370 Q471 391 436 401.5 Q401 412 362 412 Q331 412 300 405 Q269 398 241 383.5 Q213 369 190 348 Q167 327 153 298 L76 313 L96 688 L624 688 L619 603 L171 603 L160 420 Q180 438 206 451.5 Q232 465 260.5 474 Q289 483 318 487.5 Q347 492 374 492 Q429 492 480 476.5 Q531 461 570.5 431 Q610 401 633.5 356 Q657 311 657 251 Z " />
<glyph glyph-name="six" unicode="6" horiz-adv-x="708" d="M679 230 Q679 155 638.5 96 Q598 37 529 9 Q497 -5 460.5 -10.5 Q424 -16 389 -16 Q308 -16 247 10 Q186 36 145.5 83 Q105 130 85 195 Q65 260 65 338 Q65 417 87 483.5 Q109 550 151.5 598.5 Q194 647 256 674 Q318 701 398 701 L403 701 Q485 701 555 665 Q625 629 673 562 L581 526 Q515 620 396 620 Q332 620 286 596.5 Q240 573 210.5 533 Q181 493 167.5 440.5 Q154 388 154 330 Q159 340 163.5 349 Q168 358 174 367 Q192 392 218 409.5 Q244 427 274.5 438.5 Q305 450 337 455 Q369 460 398 460 Q451 460 501.5 446 Q552 432 591.5 403.5 Q631 375 655 332 Q679 289 679 230 Z M584 222 Q584 266 565 296 Q546 326 515.5 345 Q485 364 447.5 372 Q410 380 373 380 Q338 380 304 370 Q270 360 243.5 340 Q217 320 200.5 290.5 Q184 261 184 223 Q184 182 202.5 152 Q221 122 250.5 103 Q280 84 316 75 Q352 66 388 66 Q426 66 461 74.5 Q496 83 523.5 101.5 Q551 120 567.5 150 Q584 180 584 222 Z " />
<glyph glyph-name="seven" unicode="7" horiz-adv-x="708" d="M628 623 Q520 523 455 395.5 Q390 268 361 125 Q355 94 351 63 Q347 32 343 0 L234 0 Q242 52 250.5 97 Q259 142 271 184.5 Q283 227 300 270 Q317 313 340 361 Q373 430 416 488.5 Q459 547 510 603 L80 603 L80 688 L628 688 L628 623 Z " />
<glyph glyph-name="eight" unicode="8" horiz-adv-x="708" d="M654 191 Q654 129 625 89 Q596 49 551 25.5 Q506 2 451.5 -7 Q397 -16 347 -16 Q315 -16 282.5 -12.5 Q250 -9 218.5 -0.5 Q187 8 158.5 23 Q130 38 106 61 Q51 114 51 190 Q51 236 71.5 273.5 Q92 311 132 335 Q147 344 163 349 Q179 354 195 361 Q190 363 185 364 Q180 365 175 367 Q127 383 100.5 422 Q74 461 74 511 Q74 573 112 618 Q135 645 164 661.5 Q193 678 225 686.5 Q257 695 291.5 698 Q326 701 359 701 Q389 701 421 697.5 Q453 694 483 685 Q513 676 540 660.5 Q567 645 588 621 Q628 575 628 515 Q628 448 594.5 414 Q561 380 502 360 Q568 348 611 304.5 Q654 261 654 191 Z M528 507 Q528 546 510 569 Q492 592 464 604.5 Q436 617 402.5 620.5 Q369 624 339 624 Q312 624 282.5 618.5 Q253 613 229 599.5 Q205 586 189.5 564.5 Q174 543 174 510 Q174 473 191 450.5 Q208 428 234.5 415.5 Q261 403 293 398.5 Q325 394 354 394 Q381 394 412 398.5 Q443 403 468.5 416 Q494 429 511 451 Q528 473 528 507 Z M555 191 Q555 209 549 227 Q543 245 532 259 Q516 282 491 293.5 Q466 305 438.5 310.5 Q411 316 382 316.5 Q353 317 328 317 Q298 317 266 312 Q234 307 208.5 293.5 Q183 280 166.5 256 Q150 232 150 194 Q150 153 170 128 Q190 103 220.5 89.5 Q251 76 287 71.5 Q323 67 354 67 Q377 67 400.5 68.5 Q424 70 446.5 75 Q469 80 490 90.5 Q511 101 527 119 Q555 148 555 191 Z " />
<glyph glyph-name="nine" unicode="9" horiz-adv-x="708" d="M655 352 Q655 274 634 207 Q613 140 571 90.5 Q529 41 467 12.5 Q405 -16 322 -16 Q247 -16 177.5 13.5 Q108 43 63 106 Q55 117 49 128 Q43 139 37 150 L126 186 Q160 124 204.5 94 Q249 64 322 64 Q412 64 473.5 113.5 Q535 163 556 251 Q561 271 562 289.5 Q563 308 565 328 Q515 275 452.5 251 Q390 227 318 227 Q265 227 214.5 241.5 Q164 256 124 285 Q84 314 60 358 Q36 402 36 460 Q36 523 63 568.5 Q90 614 133 643.5 Q176 673 230.5 687 Q285 701 340 701 Q388 701 432 691 Q476 681 518 658 Q560 634 586.5 600 Q613 566 628 525.5 Q643 485 649 440.5 Q655 396 655 352 Z M546 466 Q546 508 527.5 537.5 Q509 567 479.5 586 Q450 605 414 613.5 Q378 622 342 622 Q305 622 268 613 Q231 604 201.5 585 Q172 566 153.5 535.5 Q135 505 135 462 Q135 422 152.5 392 Q170 362 198.5 343 Q227 324 262 314.5 Q297 305 333 305 Q369 305 407 314.5 Q445 324 475.5 343.5 Q506 363 526 393.5 Q546 424 546 466 Z " />
<glyph glyph-name="colon" unicode="&#x3a;" horiz-adv-x="292" d="M110 386 L110 494 L219 494 L219 386 L110 386 Z M111 0 L111 107 L220 107 L220 0 L111 0 Z " />
<glyph glyph-name="semicolon" unicode="&#x3b;" horiz-adv-x="292" d="M111 388 L111 497 L220 497 L220 388 L111 388 Z M220 -19 Q220 -58 208 -86.5 Q196 -115 154 -128 Q143 -131 132.5 -131.5 Q122 -132 111 -135 L111 -80 Q137 -77 146.5 -67 Q156 -57 156 -31 L156 0 L111 0 L111 108 L220 108 L220 -19 Z " />
<glyph glyph-name="less" unicode="&#x3c;" horiz-adv-x="772" d="M101 251 L101 348 L643 582 L643 485 L210 303 L643 124 L643 23 L101 251 Z " />
<glyph glyph-name="equal" unicode="&#x3d;" horiz-adv-x="772" d="M94 352 L94 438 L678 438 L678 352 L94 352 Z M94 150 L94 236 L678 236 L678 150 L94 150 Z " />
<glyph glyph-name="greater" unicode="&#x3e;" horiz-adv-x="772" d="M130 23 L129 119 L563 301 L130 481 L130 581 L671 354 L671 257 L130 23 Z " />
<glyph glyph-name="question" unicode="&#x3f;" horiz-adv-x="667" d="M636 503 Q636 459 620 429.5 Q604 400 578.5 379 Q553 358 521.5 344 Q490 330 460 317.5 Q430 305 405 292.5 Q380 280 366 261 Q354 245 352.5 222.5 Q351 200 351 181 L277 181 L277 219 Q277 252 281 273.5 Q285 295 295.5 311 Q306 327 325 339 Q344 351 374 364 Q401 376 429.5 387.5 Q458 399 481.5 415 Q505 431 519.5 454.5 Q534 478 534 514 Q534 549 517 574.5 Q500 600 473.5 616 Q447 632 415 639.5 Q383 647 353 647 Q305 647 258 626 Q211 605 184 563 Q172 545 165 526 Q158 507 152 487 L64 504 Q71 527 78.5 549 Q86 571 98 592 Q119 628 147.5 652.5 Q176 677 210 693 Q244 709 282.5 716 Q321 723 360 723 Q409 723 458.5 709.5 Q508 696 547.5 668.5 Q587 641 611.5 600 Q636 559 636 503 Z M263 0 L263 101 L364 101 L364 0 L263 0 Z " />
<glyph glyph-name="at" unicode="&#x40;" horiz-adv-x="909" d="M869 416 Q869 350 847.5 287.5 Q826 225 790.5 177 Q755 129 709 99.5 Q663 70 614 70 Q571 70 548 92 Q525 114 524 156 Q504 134 492.5 123.5 Q481 113 465 102 Q419 71 366 71 Q300 71 262 115 Q224 159 224 236 Q224 292 243 342.5 Q262 393 294 432 Q326 471 368 494 Q410 517 456 517 Q500 517 532 495.5 Q564 474 582 433 L598 495 L673 495 L626 302 Q620 276 615.5 258 Q611 240 609 226.5 Q607 213 606 203 Q605 193 605 182 Q605 154 613 142 Q621 130 638 130 Q658 130 683 146 Q710 164 733.5 194 Q757 224 774 261 Q791 298 800.5 339.5 Q810 381 810 422 Q810 476 789.5 519.5 Q769 563 732 594 Q695 625 642.5 642 Q590 659 526 659 Q439 659 362 626.5 Q285 594 227.5 537.5 Q170 481 137 405 Q104 329 104 243 Q104 174 130 116.5 Q156 59 202.5 17.5 Q249 -24 314.5 -46.5 Q380 -69 458 -69 Q550 -69 638 -36 Q664 -26 685 -16.5 Q706 -7 727 6 Q748 19 771 36 Q794 53 824 77 L860 36 Q829 10 804.5 -8.5 Q780 -27 758 -40.5 Q736 -54 713.5 -64.5 Q691 -75 662 -86 Q562 -124 460 -124 Q367 -124 290.5 -97.5 Q214 -71 159 -23 Q104 25 73.5 91.5 Q43 158 43 239 Q43 338 81 424 Q119 510 184.5 574 Q250 638 338.5 675 Q427 712 528 712 Q605 712 668 691 Q731 670 775.5 631 Q820 592 844.5 537.5 Q869 483 869 416 Z M554 357 Q554 402 529 428 Q504 454 464 454 Q434 454 406 436.5 Q378 419 356.5 389 Q335 359 322.5 319.5 Q310 280 310 237 Q310 189 333.5 162 Q357 135 397 135 Q427 135 455.5 153 Q484 171 505.5 200.5 Q527 230 540.5 268.5 Q554 307 554 347 L554 357 Z " />
<glyph glyph-name="A" unicode="A" horiz-adv-x="833" d="M718 0 L632 174 L198 174 L112 0 L-1 0 L365 706 L472 706 L834 0 L718 0 Z M440 553 Q432 569 426.5 584 Q421 599 416 616 Q406 583 389 549 L240 255 L589 255 L440 553 Z " />
<glyph glyph-name="B" unicode="B" horiz-adv-x="896" d="M838 196 Q838 164 829 135 Q820 106 800 80 Q779 53 750.5 37.5 Q722 22 690.5 13.5 Q659 5 626 2.5 Q593 0 561 0 L85 0 L85 706 L548 706 Q578 706 607.5 704 Q637 702 664.5 694.5 Q692 687 717.5 673 Q743 659 764 636 Q785 613 794 582 Q803 551 803 520 Q803 479 785.5 444.5 Q768 410 731 390 Q724 386 717.5 383.5 Q711 381 704 378 Q716 373 728 369 Q740 365 751 358 Q796 330 817 289 Q838 248 838 196 Z M699 518 Q699 538 691.5 555.5 Q684 573 671 587 Q648 612 615.5 618.5 Q583 625 551 625 L186 625 L186 408 L554 408 Q592 408 625 414 Q658 420 681 454 Q690 467 694.5 484.5 Q699 502 699 518 Z M733 206 Q733 242 720 265 Q707 288 685 302 Q663 316 635 321.5 Q607 327 577 327 L186 327 L186 82 L573 82 Q603 82 632 87.5 Q661 93 683.5 107.5 Q706 122 719.5 146 Q733 170 733 206 Z " />
<glyph glyph-name="C" unicode="C" horiz-adv-x="917" d="M887 193 Q870 164 854 139.5 Q838 115 813 92 Q779 60 737 38.5 Q695 17 650 4.5 Q605 -8 558 -13 Q511 -18 465 -18 Q378 -18 302.5 6.5 Q227 31 170.5 78.5 Q114 126 81.5 196 Q49 266 49 358 Q49 439 77.5 508.5 Q106 578 170 630 Q192 647 216.5 663 Q241 679 267 690 Q315 710 369.5 718.5 Q424 727 475 727 Q536 727 594.5 716 Q653 705 704.5 680.5 Q756 656 799 617 Q842 578 872 522 L765 499 Q752 521 739.5 537.5 Q727 554 707 571 Q685 589 657 602 Q629 615 599 623.5 Q569 632 538 635.5 Q507 639 479 639 Q412 639 353 622.5 Q294 606 250 572 Q206 538 180.5 485.5 Q155 433 155 360 Q155 286 180.5 231.5 Q206 177 250.5 141 Q295 105 355.5 87.5 Q416 70 486 70 L500 70 Q533 70 567.5 75.5 Q602 81 634 92 Q666 103 695 121.5 Q724 140 746 165 Q757 177 765 189.5 Q773 202 781 215 L887 193 Z " />
<glyph glyph-name="D" unicode="D" horiz-adv-x="875" d="M823 359 Q823 305 809 253 Q795 201 766 156 Q733 104 690 73 Q647 42 598 26 Q549 10 495 5 Q441 0 384 0 L85 0 L85 706 L436 706 Q471 706 505.5 704 Q540 702 574 694 Q634 679 680.5 647 Q727 615 758.5 571.5 Q790 528 806.5 473.5 Q823 419 823 359 Z M721 359 Q721 403 710.5 443.5 Q700 484 678.5 518 Q657 552 624 576.5 Q591 601 547 613 Q523 620 498 621.5 Q473 623 448 623 L186 623 L186 85 L392 85 Q430 85 469 87.5 Q508 90 545 102 Q634 131 677.5 199.5 Q721 268 721 359 Z " />
<glyph glyph-name="E" unicode="E" horiz-adv-x="792" d="M85 0 L85 706 L736 706 L736 619 L185 619 L185 409 L722 409 L722 325 L185 325 L185 87 L762 87 L762 0 L85 0 Z " />
<glyph glyph-name="F" unicode="F" horiz-adv-x="750" d="M184 619 L184 393 L693 393 L693 310 L184 310 L184 0 L85 0 L85 706 L713 706 L713 619 L184 619 Z " />
<glyph glyph-name="G" unicode="G" horiz-adv-x="917" d="M761 0 L761 97 Q700 35 619 9.5 Q538 -16 453 -16 Q404 -16 356 -6.5 Q308 3 263 23 Q214 46 174 80 Q134 114 106.5 157 Q79 200 64 250 Q49 300 49 355 Q49 444 84.5 512.5 Q120 581 178.5 627.5 Q237 674 313 698.5 Q389 723 470 723 Q512 723 558.5 715.5 Q605 708 650 693 Q695 678 734.5 654 Q774 630 803 597 Q816 583 825.5 568.5 Q835 554 844 537 L746 507 Q725 540 694.5 564.5 Q664 589 629 605 Q594 621 555 629 Q516 637 478 637 Q415 637 357 619.5 Q299 602 254 567 Q209 532 182.5 480.5 Q156 429 156 360 Q156 331 161.5 302.5 Q167 274 178 248 Q198 201 228.5 167 Q259 133 297 111 Q335 89 380 78.5 Q425 68 474 68 Q540 68 603 91.5 Q666 115 711 164 Q721 175 730 187.5 Q739 200 745 214 Q753 232 757 250 Q761 268 764 288 L453 288 L453 372 L848 372 L848 0 L761 0 Z " />
<glyph glyph-name="H" unicode="H" horiz-adv-x="917" d="M727 0 L727 334 L186 334 L186 0 L84 0 L84 706 L185 706 L185 418 L726 418 L726 706 L828 706 L828 0 L727 0 Z " />
<glyph glyph-name="I" unicode="I" horiz-adv-x="271" d="M84 0 L84 706 L186 706 L186 0 L84 0 Z " />
<glyph glyph-name="J" unicode="J" horiz-adv-x="708" d="M621 231 Q621 199 617.5 169.5 Q614 140 599 111 Q581 76 550.5 51.5 Q520 27 483.5 12 Q447 -3 407 -10 Q367 -17 330 -17 Q295 -17 259.5 -12 Q224 -7 190.5 5.5 Q157 18 128 37.5 Q99 57 76 85 Q59 105 48 128 Q37 151 28 175 L130 194 Q160 127 205 99.5 Q250 72 322 72 Q349 72 378 76 Q407 80 433.5 90.5 Q460 101 481 119.5 Q502 138 512 166 Q519 185 520 204 Q521 223 521 243 L521 706 L621 706 L621 231 Z " />
<glyph glyph-name="K" unicode="K" horiz-adv-x="833" d="M720 0 L401 380 L182 219 L182 0 L85 0 L85 706 L184 706 L184 330 L693 706 L840 706 L483 440 L854 0 L720 0 Z " />
<glyph glyph-name="L" unicode="L" horiz-adv-x="646" d="M85 0 L85 706 L185 706 L185 86 L654 86 L654 0 L85 0 Z " />
<glyph glyph-name="M" unicode="M" horiz-adv-x="1000" d="M839 0 L839 431 Q839 480 841 527.5 Q843 575 849 623 Q837 591 823.5 560 Q810 529 795 498 L554 0 L462 0 L241 459 Q222 499 204 538 Q186 577 170 619 Q175 577 176.5 536.5 Q178 496 178 454 L178 0 L84 0 L84 706 L222 706 L442 247 Q461 208 477 168 Q493 128 510 88 Q524 128 539.5 167 Q555 206 574 244 L798 706 L934 706 L934 0 L839 0 Z " />
<glyph glyph-name="N" unicode="N" horiz-adv-x="917" d="M731 0 L230 529 Q215 545 202 561 Q189 577 175 594 Q178 569 179 544.5 Q180 520 180 495 L180 0 L84 0 L84 706 L187 706 L664 201 Q703 159 739 114 Q737 140 735 166.5 Q733 193 733 219 L733 706 L829 706 L829 0 L731 0 Z " />
<glyph glyph-name="O" unicode="O" horiz-adv-x="958" d="M906 343 Q906 253 871.5 185.5 Q837 118 779 72.5 Q721 27 645.5 4 Q570 -19 487 -19 L480 -19 Q445 -19 410.5 -16 Q376 -13 341 -5 Q295 5 253 23.5 Q211 42 175.5 69.5 Q140 97 112.5 133.5 Q85 170 69 215 Q58 247 53 279.5 Q48 312 48 346 Q48 438 82.5 508 Q117 578 175.5 626 Q234 674 311.5 698.5 Q389 723 474 723 Q560 723 638.5 698.5 Q717 674 776.5 626 Q836 578 871 507 Q906 436 906 343 Z M805 351 Q805 427 777 481.5 Q749 536 702 570.5 Q655 605 593 621 Q531 637 463 637 Q429 637 396 630.5 Q363 624 331 613 Q240 580 194 513 Q148 446 148 350 Q148 274 175.5 220.5 Q203 167 249.5 133 Q296 99 357.5 83.5 Q419 68 486 68 Q553 68 611.5 85.5 Q670 103 713 138.5 Q756 174 780.5 227 Q805 280 805 351 Z " />
<glyph glyph-name="P" unicode="P" horiz-adv-x="812" d="M798 491 Q798 443 780 402.5 Q762 362 724 331 Q703 314 678.5 304 Q654 294 628.5 289.5 Q603 285 576.5 284 Q550 283 524 283 L185 283 L185 0 L83 0 L83 706 L525 706 Q559 706 591 703 Q623 700 652.5 690.5 Q682 681 708.5 664 Q735 647 757 618 Q777 592 787.5 557.5 Q798 523 798 491 Z M689 499 Q689 519 683.5 537.5 Q678 556 665 572 Q650 590 631.5 600.5 Q613 611 592 615.5 Q571 620 549 621 Q527 622 506 622 L184 622 L184 367 L510 367 Q534 367 556.5 368 Q579 369 599.5 375 Q620 381 638 393 Q656 405 670 426 Q681 443 685 461 Q689 479 689 499 Z " />
<glyph glyph-name="Q" unicode="Q" horiz-adv-x="979" d="M897 -64 L731 29 Q671 4 611.5 -7 Q552 -18 487 -18 Q404 -18 325.5 3.5 Q247 25 185.5 69.5 Q124 114 86.5 182 Q49 250 49 342 Q49 437 85.5 508.5 Q122 580 182.5 627.5 Q243 675 323 699 Q403 723 490 723 Q573 723 651.5 699.5 Q730 676 791.5 629.5 Q853 583 890 514 Q927 445 927 353 Q927 310 920 274.5 Q913 239 898.5 207 Q884 175 862 146 Q840 117 810 88 L948 9 L897 -64 Z M826 350 Q826 441 781 509.5 Q736 578 651 610 Q607 627 565 632.5 Q523 638 477 638 Q410 638 350 620 Q290 602 246 566 Q202 530 176 476 Q150 422 150 350 Q150 274 177.5 220 Q205 166 251.5 132 Q298 98 359.5 82 Q421 66 489 66 Q558 66 619 82.5 Q680 99 726 133.5 Q772 168 799 221.5 Q826 275 826 350 Z " />
<glyph glyph-name="R" unicode="R" horiz-adv-x="896" d="M765 0 L526 283 L185 283 L185 0 L84 0 L84 706 L574 706 Q604 706 633.5 703 Q663 700 690 691.5 Q717 683 741 667.5 Q765 652 784 627 Q806 600 816 567.5 Q826 535 826 500 Q826 437 797 388.5 Q768 340 707 316 Q690 309 671.5 305.5 Q653 302 635 299 L896 0 L765 0 Z M722 493 Q722 531 704 564 Q682 604 648 613 Q614 622 572 622 L184 622 L184 366 L544 366 Q564 366 584.5 367.5 Q605 369 625.5 374 Q646 379 664 389 Q682 399 695 415 Q722 448 722 493 Z " />
<glyph glyph-name="S" unicode="S" horiz-adv-x="812" d="M763 214 Q763 144 730 99 Q697 54 646.5 28 Q596 2 535 -7.5 Q474 -17 417 -17 Q365 -17 307.5 -10 Q250 -3 196 15 Q142 33 95.5 64 Q49 95 19 143 L111 181 Q139 148 176 126.5 Q213 105 254.5 92.5 Q296 80 339.5 74.5 Q383 69 424 69 Q458 69 499.5 74.5 Q541 80 577.5 95.5 Q614 111 639 139 Q664 167 664 211 Q664 241 649.5 261 Q635 281 610 296 Q591 307 549.5 314.5 Q508 322 460.5 327 Q413 332 368.5 335 Q324 338 300 341 Q277 343 255 346 Q233 349 211 354 Q147 370 109 411 Q71 452 71 520 Q71 584 104 623.5 Q137 663 186 685.5 Q235 708 293 716 Q351 724 400 724 Q441 724 486.5 719 Q532 714 576 701.5 Q620 689 659.5 668 Q699 647 728 615 Q736 607 742 598.5 Q748 590 755 582 L663 545 Q608 600 544 620.5 Q480 641 404 641 Q376 641 336 637.5 Q296 634 259.5 622 Q223 610 197 586.5 Q171 563 171 523 Q171 496 182.5 479 Q194 462 212.5 452 Q231 442 253.5 437.5 Q276 433 297 430 Q334 425 370.5 422 Q407 419 445 416 Q481 413 521 409.5 Q561 406 599.5 396.5 Q638 387 672 369 Q706 351 730 319 Q747 296 755 269.5 Q763 243 763 214 Z " />
<glyph glyph-name="T" unicode="T" horiz-adv-x="708" d="M402 622 L402 0 L302 0 L302 622 L14 622 L14 706 L691 706 L691 622 L402 622 Z " />
<glyph glyph-name="U" unicode="U" horiz-adv-x="896" d="M808 282 Q808 249 805 216 Q802 183 789 151 Q769 101 731.5 68.5 Q694 36 647.5 17 Q601 -2 549.5 -9.5 Q498 -17 449 -17 Q403 -17 352 -10 Q301 -3 254.5 15 Q208 33 169.5 63 Q131 93 109 139 Q92 177 88 213.5 Q84 250 84 291 L84 706 L185 706 L185 287 Q185 254 188.5 221 Q192 188 211 159 Q229 132 257 115 Q285 98 318 88 Q351 78 385.5 74 Q420 70 449 70 Q481 70 516 74 Q551 78 584 88.5 Q617 99 644.5 118 Q672 137 689 167 Q703 191 705 219 Q707 247 707 274 L707 706 L808 706 L808 282 Z " />
<glyph glyph-name="V" unicode="V" horiz-adv-x="771" d="M439 0 L338 0 L-1 706 L110 706 L356 184 Q377 140 390 96 Q395 117 401 135 Q407 153 416 173 L662 706 L772 706 L439 0 Z " />
<glyph glyph-name="W" unicode="W" horiz-adv-x="1104" d="M869 0 L758 0 L585 480 Q574 511 565 541.5 Q556 572 550 604 Q545 575 538 548.5 Q531 522 521 495 L341 0 L227 0 L-3 706 L104 706 L270 178 Q277 156 281 135 Q285 114 288 91 Q295 120 302 147.5 Q309 175 320 204 L506 706 L595 706 L790 174 Q798 154 802.5 134.5 Q807 115 812 95 Q819 143 834 190 L996 706 L1102 706 L869 0 Z " />
<glyph glyph-name="X" unicode="X" horiz-adv-x="854" d="M713 0 L423 309 L135 0 L-2 0 L359 374 L42 706 L180 706 L424 439 L671 706 L808 706 L485 375 L854 0 L713 0 Z " />
<glyph glyph-name="Y" unicode="Y" horiz-adv-x="812" d="M453 273 L453 0 L354 0 L354 275 L2 706 L131 706 L375 398 Q392 376 404 350 Q416 374 431 393 L683 706 L811 706 L453 273 Z " />
<glyph glyph-name="Z" unicode="Z" horiz-adv-x="771" d="M30 0 L30 84 L583 620 L72 620 L72 706 L725 706 L725 623 L171 88 L735 88 L735 0 L30 0 Z " />
<glyph glyph-name="bracketleft" unicode="&#x5b;" horiz-adv-x="375" d="M219 689 L219 -77 L339 -77 L339 -153 L120 -153 L120 765 L341 765 L341 689 L219 689 Z " />
<glyph glyph-name="backslash" unicode="&#x5c;" horiz-adv-x="417" d="M321 0 L11 706 L99 706 L411 0 L321 0 Z " />
<glyph glyph-name="bracketright" unicode="&#x5d;" horiz-adv-x="375" d="M34 -153 L34 -77 L156 -77 L156 689 L36 689 L36 765 L255 765 L255 -153 L34 -153 Z " />
<glyph glyph-name="asciicircum" unicode="&#x5e;" horiz-adv-x="772" d="M539 286 L388 602 L233 286 L128 286 L342 706 L440 706 L644 286 L539 286 Z " />
<glyph glyph-name="underscore" unicode="&#x5f;" horiz-adv-x="500" d="M-10 -216 L-10 -137 L510 -137 L510 -216 L-10 -216 Z " />
<glyph glyph-name="grave" unicode="&#x60;" horiz-adv-x="375" d="M219 551 L91 688 L216 688 L284 551 L219 551 Z " />
<glyph glyph-name="a" unicode="a" horiz-adv-x="688" d="M681 0 Q660 -2 639 -3.5 Q618 -5 597 -5 Q549 -5 528.5 14 Q508 33 503 78 Q497 69 490.5 61 Q484 53 476 45 Q458 28 433 16 Q408 4 380 -3.5 Q352 -11 324 -14.5 Q296 -18 272 -18 Q221 -18 169.5 -6 Q118 6 81 45 Q39 89 39 150 Q39 174 45.5 195.5 Q52 217 67 237 Q85 260 108.5 273 Q132 286 158 292.5 Q184 299 212 300.5 Q240 302 267 303 Q284 304 300.5 304 Q317 304 334 304 L502 304 Q502 336 498.5 362 Q495 388 466 409 Q455 417 439 422 Q423 427 405 429.5 Q387 432 370 433 Q353 434 340 434 Q320 434 294 432 Q268 430 243 423.5 Q218 417 197.5 404.5 Q177 392 167 370 L71 379 Q79 402 88 419 Q97 436 116 453 Q135 470 162.5 479.5 Q190 489 220 494.5 Q250 500 280 501.5 Q310 503 334 503 Q362 503 398 500.5 Q434 498 469 489.5 Q504 481 533 464.5 Q562 448 577 420 Q588 399 589.5 377.5 Q591 356 591 333 L591 128 Q591 99 601 81 Q611 63 645 63 Q663 63 681 66 L681 0 Z M324 231 Q303 231 270.5 231 Q238 231 207.5 224 Q177 217 155.5 200.5 Q134 184 134 152 Q134 124 147.5 105.5 Q161 87 182 76 Q203 65 228 60 Q253 55 275 55 Q304 55 335.5 60 Q367 65 395.5 76.5 Q424 88 448 106.5 Q472 125 486 153 Q496 173 498.5 191 Q501 209 503 231 L324 231 Z " />
<glyph glyph-name="b" unicode="b" horiz-adv-x="729" d="M683 244 Q683 180 659 131.5 Q635 83 594.5 51 Q554 19 500.5 3 Q447 -13 387 -13 Q360 -13 330.5 -10 Q301 -7 272.5 1 Q244 9 218.5 22 Q193 35 173 55 L173 0 L78 0 L78 706 L173 706 L173 431 Q191 449 217 462.5 Q243 476 271.5 485 Q300 494 329.5 498 Q359 502 384 502 Q443 502 497 485.5 Q551 469 592 436.5 Q633 404 658 356 Q683 308 683 244 Z M585 243 Q585 287 567.5 321.5 Q550 356 521 379 Q492 402 454.5 414 Q417 426 376 426 L364 426 Q328 426 295 414 Q235 393 200.5 349.5 Q166 306 166 241 Q166 195 184 162 Q202 129 232 107.5 Q262 86 300.5 76 Q339 66 380 66 Q440 66 491.5 89.5 Q543 113 569 170 Q585 207 585 243 Z " />
<glyph glyph-name="c" unicode="c" horiz-adv-x="688" d="M662 130 Q655 119 648 108 Q641 97 633 86 Q610 57 578.5 37.5 Q547 18 511 6 Q475 -6 437.5 -11.5 Q400 -17 365 -17 Q301 -17 242.5 -2.5 Q184 12 140 43.5 Q96 75 69.5 125 Q43 175 43 246 Q43 314 71.5 362 Q100 410 146 441.5 Q192 473 250.5 487.5 Q309 502 368 502 Q413 502 455 494 Q497 486 534.5 468.5 Q572 451 603 423 Q634 395 657 354 L566 328 Q552 354 530.5 372.5 Q509 391 483 403 Q457 415 428.5 421 Q400 427 372 427 Q329 427 288 415.5 Q247 404 215 380.5 Q183 357 163.5 322 Q144 287 144 239 Q144 193 163.5 159 Q183 125 215 103 Q247 81 287 70 Q327 59 368 59 Q430 59 483 79.5 Q536 100 571 154 L662 130 Z " />
<glyph glyph-name="d" unicode="d" horiz-adv-x="729" d="M554 0 L554 64 Q544 56 534.5 49 Q525 42 514 35 Q474 10 424 0.5 Q374 -9 328 -9 Q273 -9 221.5 9 Q170 27 131 60 Q92 93 68.5 140.5 Q45 188 45 247 Q45 309 69.5 356 Q94 403 135 435 Q176 467 228.5 483.5 Q281 500 338 500 Q401 500 452.5 484 Q504 468 554 431 L554 706 L649 706 L649 0 L554 0 Z M559 247 Q559 295 541 328.5 Q523 362 492.5 383.5 Q462 405 423 414.5 Q384 424 342 424 Q300 424 264 411.5 Q228 399 201.5 375.5 Q175 352 159.5 318 Q144 284 144 241 Q144 198 161 165.5 Q178 133 206 111.5 Q234 90 270.5 79.5 Q307 69 347 69 Q389 69 427.5 79 Q466 89 495.5 110.5 Q525 132 542 166 Q559 200 559 247 Z " />
<glyph glyph-name="e" unicode="e" horiz-adv-x="688" d="M142 233 Q146 191 164.5 159 Q183 127 212.5 105 Q242 83 278.5 72 Q315 61 355 61 Q418 61 465.5 85.5 Q513 110 542 167 L633 142 Q625 126 616.5 112 Q608 98 597 84 Q574 57 544.5 38 Q515 19 482 7.5 Q449 -4 413.5 -9.5 Q378 -15 344 -15 Q284 -15 229.5 1.5 Q175 18 133.5 51 Q92 84 68 133 Q44 182 44 247 Q44 311 68.5 359 Q93 407 134 439.5 Q175 472 229 488 Q283 504 341 504 Q425 504 496.5 469.5 Q568 435 610 360 Q620 343 628 322.5 Q636 302 639 282 Q643 261 643 233 L142 233 Z M536 304 Q529 321 522 336 Q515 351 504 365 Q476 400 435 416.5 Q394 433 349 433 Q277 433 225.5 402 Q174 371 145 304 L536 304 Z " />
<glyph glyph-name="f" unicode="f" horiz-adv-x="313" d="M315 620 Q300 624 285.5 626.5 Q271 629 256 629 Q216 629 197.5 611.5 Q179 594 179 555 L179 490 L313 490 L313 425 L179 425 L179 0 L85 0 L85 426 L6 426 L6 490 L86 490 L86 552 Q86 629 121 670.5 Q156 712 238 712 Q258 712 276.5 709.5 Q295 707 315 705 L315 620 Z " />
<glyph glyph-name="g" unicode="g" horiz-adv-x="729" d="M649 15 Q649 -17 645.5 -43 Q642 -69 632 -90.5 Q622 -112 603.5 -130.5 Q585 -149 556 -165 Q510 -191 452 -200 Q394 -209 342 -209 Q312 -209 276 -205.5 Q240 -202 205 -192.5 Q170 -183 140 -166 Q110 -149 92 -121 Q78 -99 73 -78 Q68 -57 66 -31 L166 -27 Q166 -40 167.5 -50.5 Q169 -61 176 -72 Q187 -90 208.5 -101.5 Q230 -113 256 -119 Q282 -125 308 -127 Q334 -129 353 -129 Q377 -129 405 -126 Q433 -123 460 -115 Q487 -107 510 -92.5 Q533 -78 545 -55 Q555 -36 556.5 -17 Q558 2 558 22 L558 79 Q504 35 451.5 15 Q399 -5 328 -5 Q272 -5 220.5 11 Q169 27 130 58 Q91 89 67.5 135 Q44 181 44 242 Q44 271 50 299 Q56 327 68 353 Q87 394 116 422 Q145 450 181 466.5 Q217 483 258 490 Q299 497 341 497 Q403 497 455 481 Q507 465 558 430 L558 488 L649 488 L649 15 Z M556 250 Q556 294 538 326 Q520 358 490.5 379 Q461 400 423.5 410 Q386 420 347 420 Q307 420 270.5 408.5 Q234 397 205.5 375 Q177 353 160 320 Q143 287 143 244 Q143 201 160 169 Q177 137 205.5 116 Q234 95 270.5 85 Q307 75 346 75 Q385 75 423 86 Q461 97 490.5 119 Q520 141 538 174 Q556 207 556 250 Z " />
<glyph glyph-name="h" unicode="h" horiz-adv-x="729" d="M553 0 L553 250 Q553 272 551 296.5 Q549 321 540 341 Q530 364 511.5 380 Q493 396 471 405.5 Q449 415 424.5 419 Q400 423 376 423 Q314 423 259.5 396.5 Q205 370 172 316 L172 0 L77 0 L77 706 L173 706 L173 435 Q221 473 275.5 488 Q330 503 391 503 Q428 503 465.5 496 Q503 489 536 473 Q569 457 595 431 Q621 405 635 367 Q643 344 645.5 322.5 Q648 301 648 277 L648 0 L553 0 Z " />
<glyph glyph-name="i" unicode="i" horiz-adv-x="250" d="M76 570 L76 666 L170 666 L170 570 L76 570 Z M77 0 L77 489 L172 489 L172 0 L77 0 Z " />
<glyph glyph-name="j" unicode="j" horiz-adv-x="250" d="M77 569 L77 665 L172 665 L172 569 L77 569 Z M172 -41 Q172 -122 133.5 -162.5 Q95 -203 11 -203 Q-11 -203 -32 -200 Q-53 -197 -74 -192 L-74 -103 Q-57 -108 -40.5 -112.5 Q-24 -117 -5 -117 Q40 -117 59 -94.5 Q78 -72 78 -30 L78 488 L172 488 L172 -41 Z " />
<glyph glyph-name="k" unicode="k" horiz-adv-x="688" d="M565 0 L309 236 L175 133 L175 0 L78 0 L78 706 L175 706 L175 235 L481 487 L628 487 L384 296 L705 0 L565 0 Z " />
<glyph glyph-name="l" unicode="l" horiz-adv-x="250" d="M77 0 L77 706 L171 706 L171 0 L77 0 Z " />
<glyph glyph-name="m" unicode="m" horiz-adv-x="1167" d="M990 0 L990 255 Q990 278 987.5 302.5 Q985 327 974 347 Q963 367 945.5 381 Q928 395 907.5 403.5 Q887 412 864 415.5 Q841 419 820 419 Q797 419 770.5 414 Q744 409 719 398.5 Q694 388 673.5 372 Q653 356 642 333 Q632 314 630 294 Q628 274 628 254 L628 0 L533 0 L533 251 Q533 272 532 292.5 Q531 313 523 333 Q514 357 498 373.5 Q482 390 462 400 Q442 410 419 414.5 Q396 419 372 419 Q348 419 320 413.5 Q292 408 266.5 397 Q241 386 220 369 Q199 352 187 328 Q178 309 175.5 288.5 Q173 268 173 248 L173 0 L77 0 L77 486 L173 486 L173 421 Q218 463 272.5 481 Q327 499 387 499 Q432 499 477.5 488.5 Q523 478 558 450 Q579 432 595 410 Q605 420 614.5 429 Q624 438 635 446 Q676 475 729.5 487.5 Q783 500 832 500 Q868 500 905 493 Q942 486 975 470.5 Q1008 455 1034 430 Q1060 405 1073 369 Q1081 346 1083 320.5 Q1085 295 1085 271 L1085 0 L990 0 Z " />
<glyph glyph-name="n" unicode="n" horiz-adv-x="729" d="M555 0 L555 258 Q555 281 551.5 305 Q548 329 536 350 Q524 370 505.5 384 Q487 398 465 406 Q443 414 419.5 417.5 Q396 421 374 421 Q345 421 315 415 Q285 409 259 396.5 Q233 384 213 363 Q193 342 182 312 Q175 293 174 272.5 Q173 252 173 232 L173 0 L78 0 L78 487 L173 487 L173 428 Q181 436 189.5 443 Q198 450 207 456 Q225 468 247.5 477 Q270 486 294 491.5 Q318 497 342.5 499.5 Q367 502 388 502 Q422 502 459 496 Q496 490 529.5 476 Q563 462 590 439 Q617 416 632 381 Q643 355 646 327.5 Q649 300 649 272 L649 0 L555 0 Z " />
<glyph glyph-name="o" unicode="o" horiz-adv-x="729" d="M682 243 Q682 176 654.5 127 Q627 78 582.5 46.5 Q538 15 481 0 Q424 -15 365 -15 Q307 -15 249.5 -1 Q192 13 146.5 43 Q101 73 73 120.5 Q45 168 45 235 Q45 300 71.5 349.5 Q98 399 142 432.5 Q186 466 242.5 483 Q299 500 358 500 Q418 500 476.5 485.5 Q535 471 580.5 440 Q626 409 654 360 Q682 311 682 243 Z M587 243 Q587 290 567.5 324 Q548 358 516 379.5 Q484 401 443.5 411.5 Q403 422 362 422 Q320 422 280.5 411 Q241 400 210 378 Q179 356 160 322 Q141 288 141 241 Q141 195 161.5 161.5 Q182 128 214.5 106 Q247 84 288 74 Q329 64 369 64 Q409 64 448 75.5 Q487 87 518 109.5 Q549 132 568 165.5 Q587 199 587 243 Z " />
<glyph glyph-name="p" unicode="p" horiz-adv-x="729" d="M681 249 Q681 188 659 140 Q637 92 599.5 59 Q562 26 511 8.5 Q460 -9 401 -9 Q373 -9 341 -5.5 Q309 -2 278 7 Q247 16 219.5 31 Q192 46 172 68 L172 -195 L77 -195 L77 489 L172 489 L172 436 Q216 472 272 486 Q328 500 384 500 Q440 500 493.5 484 Q547 468 588.5 436.5 Q630 405 655.5 358 Q681 311 681 249 Z M578 250 Q578 282 567 310.5 Q556 339 536.5 361.5 Q517 384 490.5 399 Q464 414 433 420 Q418 423 403.5 424 Q389 425 374 425 Q331 425 293.5 414 Q256 403 228 380.5 Q200 358 183.5 323.5 Q167 289 167 242 Q167 197 185 164 Q203 131 232.5 109.5 Q262 88 300.5 77.5 Q339 67 379 67 Q421 67 457 79.5 Q493 92 520 115 Q547 138 562.5 172.5 Q578 207 578 250 Z " />
<glyph glyph-name="q" unicode="q" horiz-adv-x="729" d="M554 -197 L554 50 Q511 13 455 -1 Q399 -15 344 -15 Q286 -15 232 0.5 Q178 16 136 47 Q94 78 69 125.5 Q44 173 44 237 Q44 301 69 350 Q94 399 135.5 432 Q177 465 231.5 482 Q286 499 345 499 Q408 499 455 482.5 Q502 466 553 431 L553 487 L648 487 L648 -197 L554 -197 Z M561 243 Q561 287 544.5 320.5 Q528 354 499.5 376.5 Q471 399 434 410.5 Q397 422 356 422 Q315 422 277 410.5 Q239 399 209.5 376 Q180 353 162.5 319.5 Q145 286 145 241 Q145 205 159 172 Q185 111 239.5 85 Q294 59 357 59 Q399 59 436 71 Q473 83 501 106.5 Q529 130 545 164.5 Q561 199 561 243 Z " />
<glyph glyph-name="r" unicode="r" horiz-adv-x="417" d="M417 401 Q378 412 341 412 Q316 412 291 408 Q266 404 244.5 393.5 Q223 383 206 366 Q189 349 180 323 Q175 309 174 294 Q173 279 173 264 L173 0 L78 0 L78 489 L172 489 L172 433 Q178 438 184 443.5 Q190 449 197 454 Q229 478 274 490 Q319 502 359 502 Q374 502 388 500 Q402 498 417 494 L417 401 Z " />
<glyph glyph-name="s" unicode="s" horiz-adv-x="667" d="M621 148 Q621 96 594 63.5 Q567 31 527 13 Q487 -5 440 -11.5 Q393 -18 352 -18 Q310 -18 264.5 -13 Q219 -8 175 3.5 Q131 15 91 34.5 Q51 54 18 84 L100 139 Q152 96 216 79 Q280 62 346 62 Q364 62 393.5 64 Q423 66 451 74 Q479 82 499.5 97.5 Q520 113 520 140 Q520 174 486 187 Q452 200 401.5 205 Q351 210 292 212.5 Q233 215 182.5 227.5 Q132 240 98 268 Q64 296 64 352 Q64 403 91.5 433.5 Q119 464 160 480.5 Q201 497 248 502 Q295 507 334 507 Q396 507 453.5 495.5 Q511 484 565 454 Q580 446 593.5 437 Q607 428 619 416 L536 370 Q490 401 437.5 414 Q385 427 330 427 Q314 427 286.5 425.5 Q259 424 233 417 Q207 410 188 397 Q169 384 169 360 Q169 346 177 336.5 Q185 327 196 320 Q209 312 248 306.5 Q287 301 332.5 296.5 Q378 292 421 289 Q464 286 485 283 Q514 279 538.5 269 Q563 259 581.5 242.5 Q600 226 610.5 203 Q621 180 621 148 Z " />
<glyph glyph-name="t" unicode="t" horiz-adv-x="333" d="M183 424 L183 155 Q183 115 195 96 Q207 77 251 77 Q268 77 285.5 79 Q303 81 320 84 L320 0 Q297 -3 273 -5 Q249 -7 226 -7 Q153 -7 121.5 21 Q90 49 90 120 L90 135 L90 424 L7 424 L7 489 L92 489 L92 657 L186 657 L186 489 L322 489 L322 424 L183 424 Z " />
<glyph glyph-name="u" unicode="u" horiz-adv-x="729" d="M553 0 L553 62 Q503 19 455 1 Q407 -17 340 -17 Q306 -17 269.5 -11.5 Q233 -6 199 7 Q165 20 137.5 42.5 Q110 65 94 98 Q81 125 78 156.5 Q75 188 75 218 L75 488 L169 488 L169 242 Q169 220 170.5 195 Q172 170 180 150 Q190 125 208.5 109 Q227 93 250.5 83.5 Q274 74 299.5 70.5 Q325 67 349 67 Q373 67 401 72 Q429 77 455.5 87.5 Q482 98 504 115 Q526 132 538 155 Q546 172 548.5 188.5 Q551 205 551 223 L551 487 L646 487 L646 0 L553 0 Z " />
<glyph glyph-name="v" unicode="v" horiz-adv-x="604" d="M351 0 L245 0 L-1 488 L104 488 L298 96 L495 488 L603 488 L351 0 Z " />
<glyph glyph-name="w" unicode="w" horiz-adv-x="896" d="M694 0 L586 0 L436 395 L294 0 L186 0 L-1 488 L102 488 L224 146 Q229 132 233 118 Q237 104 240 90 Q243 104 247 117 Q251 130 256 143 L377 488 L495 488 L626 135 Q631 123 634 111 Q637 99 640 87 Q644 102 648 116.5 Q652 131 658 146 L789 488 L892 488 L694 0 Z " />
<glyph glyph-name="x" unicode="x" horiz-adv-x="625" d="M493 0 L316 197 L131 0 L-2 0 L248 257 L26 488 L158 488 L314 317 L473 488 L601 488 L380 258 L628 0 L493 0 Z " />
<glyph glyph-name="y" unicode="y" horiz-adv-x="604" d="M327 -47 Q311 -78 294.5 -101 Q278 -124 257 -139.5 Q236 -155 209 -162.5 Q182 -170 145 -170 Q116 -170 87.5 -166.5 Q59 -163 30 -158 L30 -72 Q55 -77 79.5 -82 Q104 -87 130 -87 Q154 -87 171.5 -81.5 Q189 -76 202.5 -65.5 Q216 -55 226.5 -39 Q237 -23 248 -3 L0 489 L108 489 L299 95 L497 489 L603 489 L327 -47 Z " />
<glyph glyph-name="z" unicode="z" horiz-adv-x="604" d="M24 0 L24 79 L427 409 L55 408 L55 488 L561 488 L561 414 L159 83 L580 84 L580 0 L24 0 Z " />
<glyph glyph-name="braceleft" unicode="&#x7b;" horiz-adv-x="344" d="M250 -155 Q173 -155 139 -118 Q123 -102 117 -79 Q115 -71 113.5 -64 Q112 -57 111 -48.5 Q110 -40 109.5 -27.5 Q109 -15 109 4 L109 169 Q109 201 107 213 Q105 225 97 238 Q87 254 70.5 260.5 Q54 267 15 269 L15 343 Q42 345 54.5 347.5 Q67 350 78 356 Q89 362 97 374 Q104 385 107 398 Q110 411 110 443 L110 608 Q110 627 110.5 639.5 Q111 652 111.5 661 Q112 670 113.5 676.5 Q115 683 117 691 Q137 768 250 768 L315 768 L315 699 L279 698 Q259 697 246 694 Q233 691 225 683 Q216 672 213 661 Q209 649 209 634 L209 439 Q209 412 205.5 393 Q202 374 194 360 Q187 345 171 332 Q161 324 150.5 319 Q140 314 118 307 Q141 299 151.5 293.5 Q162 288 171 280 Q191 265 199.5 240.5 Q208 216 208 174 L208 -22 Q208 -34 213 -49 Q219 -69 234.5 -77.5 Q250 -86 279 -86 L315 -86 L315 -155 L250 -155 Z " />
<glyph glyph-name="bar" unicode="&#x7c;" horiz-adv-x="229" d="M65 -153 L65 765 L164 765 L164 -153 L65 -153 Z " />
<glyph glyph-name="braceright" unicode="&#x7d;" horiz-adv-x="344" d="M328 269 Q301 267 288.5 264.5 Q276 262 265 256 Q254 250 246 238 Q239 227 236 214 Q233 201 233 169 L233 4 Q233 -15 233 -27.5 Q233 -40 232 -49 Q231 -58 229.5 -64.5 Q228 -71 226 -79 Q206 -156 93 -156 L28 -156 L28 -87 L64 -86 Q84 -85 97 -82 Q110 -79 118 -71 Q127 -60 130 -49 Q134 -37 134 -22 L134 173 Q134 200 137.5 219 Q141 238 149 252 Q156 267 172 280 Q182 288 192.5 293 Q203 298 225 305 Q202 313 191.5 318.5 Q181 324 172 332 Q152 347 143.5 371.5 Q135 396 135 438 L135 634 Q135 646 130 661 Q124 681 108.5 689.5 Q93 698 64 698 L28 698 L28 767 L93 767 Q170 767 204 730 Q220 714 226 691 Q228 683 229.5 676 Q231 669 232 660.5 Q233 652 233.5 639.5 Q234 627 234 608 L234 443 Q234 411 236 399 Q238 387 246 374 Q256 358 272.5 351.5 Q289 345 328 343 L328 269 Z " />
<glyph glyph-name="asciitilde" unicode="&#x7e;" horiz-adv-x="729" d="M605 295 Q579 263 544.5 239 Q510 215 467 215 Q439 215 413 226 Q387 237 361.5 250 Q336 263 310.5 274 Q285 285 259 285 Q223 285 203.5 264.5 Q184 244 164 218 L124 289 Q147 324 179 349 Q211 374 256 374 Q285 374 313.5 363 Q342 352 370 339 Q398 326 423 315 Q448 304 469 304 Q499 304 524.5 324 Q550 344 567 366 L605 295 Z " />
<glyph glyph-name="nbspace" unicode="&#xa0;" horiz-adv-x="375" d="" />
<glyph glyph-name="exclamdown" unicode="&#xa1;" horiz-adv-x="292" d="M70 590 L70 691 L171 691 L171 590 L70 590 Z M71 0 L71 296 Q71 317 74 332 Q77 347 80 368 L99 511 L142 511 L161 369 Q164 348 167.5 333.5 Q171 319 171 298 L171 0 L71 0 Z " />
<glyph glyph-name="cent" unicode="&#xa2;" horiz-adv-x="688" d="M662 130 Q640 91 612.5 65 Q585 39 552 22.5 Q519 6 481.5 -2.5 Q444 -11 402 -15 L402 -120 L331 -120 L331 -16 Q273 -14 220.5 3 Q168 20 128.5 52 Q89 84 66 131.5 Q43 179 43 242 Q43 305 66.5 352 Q90 399 130 430.5 Q170 462 222 479 Q274 496 331 500 L331 590 L402 590 L402 501 Q447 496 483.5 487 Q520 478 551 461.5 Q582 445 607.5 418.5 Q633 392 657 353 L565 327 Q538 377 496.5 397 Q455 417 402 425 L402 60 Q428 64 452 70 Q476 76 498 86.5 Q520 97 538.5 113.5 Q557 130 570 154 L662 130 Z M331 425 Q294 420 260 406 Q226 392 200 369.5 Q174 347 158.5 315.5 Q143 284 143 243 Q143 201 158 169 Q173 137 198.5 114.5 Q224 92 258.5 78.5 Q293 65 331 60 L331 425 Z " />
<glyph glyph-name="sterling" unicode="&#xa3;" horiz-adv-x="729" d="M707 230 Q707 198 705 167.5 Q703 137 695 109.5 Q687 82 670.5 58 Q654 34 625 14 Q605 1 579.5 -5.5 Q554 -12 531 -12 Q479 -12 434.5 10 Q390 32 348 60 Q275 -13 170 -13 Q143 -13 118 -6.5 Q93 0 73.5 14 Q54 28 42 49.5 Q30 71 30 101 Q30 130 41.5 151.5 Q53 173 72.5 187 Q92 201 116.5 208 Q141 215 168 215 Q208 215 238 205 Q268 195 303 180 Q303 206 299.5 224.5 Q296 243 288.5 258.5 Q281 274 269.5 289 Q258 304 241 322 L62 322 L62 390 L186 390 Q162 420 147 450.5 Q132 481 132 521 Q132 577 156 616 Q180 655 219 679 Q258 703 306 714 Q354 725 402 725 Q437 725 473 719 Q509 713 542.5 699 Q576 685 604.5 663.5 Q633 642 652 610 Q669 583 676 556 Q683 529 688 498 L592 476 Q589 517 574 548.5 Q559 580 534 601 Q509 622 475.5 633 Q442 644 403 644 Q375 644 345 637 Q315 630 290 615 Q265 600 249 576.5 Q233 553 233 520 Q233 500 240.5 482.5 Q248 465 259.5 449.5 Q271 434 284 419 Q297 404 309 390 L517 390 L517 321 L358 321 Q375 292 384 264.5 Q393 237 393 203 Q393 186 390 169.5 Q387 153 383 136 Q398 127 415 116.5 Q432 106 449.5 97.5 Q467 89 485.5 83 Q504 77 522 77 Q555 77 573.5 91.5 Q592 106 601 128.5 Q610 151 612 178 Q614 205 614 230 L707 230 Z M280 108 Q252 123 224.5 134 Q197 145 165 145 Q145 145 126.5 135 Q108 125 108 102 Q108 90 115 81.5 Q122 73 132.5 67.5 Q143 62 155 60 Q167 58 177 58 Q212 58 234.5 71.5 Q257 85 280 108 Z " />
<glyph glyph-name="currency" unicode="&#xa4;" horiz-adv-x="705" d="M578 491 Q607 449 618 415.5 Q629 382 629 340 Q629 297 617 261 Q605 225 577 187 L656 110 L589 47 L510 124 Q486 110 466.5 100.5 Q447 91 429 85.5 Q411 80 392.5 77.5 Q374 75 351 75 Q306 75 272.5 85.5 Q239 96 196 124 L115 48 L49 111 L129 187 Q101 226 89.5 260.5 Q78 295 78 340 Q78 385 89.5 419 Q101 453 130 491 L50 566 L117 630 L196 555 Q234 581 271.5 592.5 Q309 604 354 604 Q441 604 511 555 L591 631 L657 566 L578 491 Z M535 338 Q535 378 521.5 411.5 Q508 445 483.5 469.5 Q459 494 426 508 Q393 522 354 522 Q315 522 282 508 Q249 494 224 469.5 Q199 445 185 412 Q171 379 171 340 Q171 301 185 267.5 Q199 234 224 209.5 Q249 185 283 171 Q317 157 356 157 Q394 157 426.5 171 Q459 185 483 209.5 Q507 234 521 267 Q535 300 535 338 Z " />
<glyph glyph-name="yen" unicode="&#xa5;" horiz-adv-x="812" d="M555 393 L707 393 L707 320 L494 320 L453 270 L453 261 L707 259 L707 185 L453 185 L453 0 L354 0 L354 185 L100 185 L100 259 L354 259 L354 273 L315 320 L100 320 L100 393 L255 393 L2 701 L131 701 L408 352 L683 701 L811 701 L555 393 Z " />
<glyph glyph-name="brokenbar" unicode="&#xa6;" horiz-adv-x="229" d="M65 387 L65 765 L164 765 L164 387 L65 387 Z M65 -153 L65 225 L164 225 L164 -153 L65 -153 Z " />
<glyph glyph-name="section" unicode="&#xa7;" horiz-adv-x="792" d="M734 255 Q734 194 704 153 Q674 112 625 82 Q653 42 653 -5 Q653 -23 648.5 -41.5 Q644 -60 635 -76 Q617 -107 589.5 -126.5 Q562 -146 529.5 -157.5 Q497 -169 462 -173 Q427 -177 394 -177 Q300 -177 220.5 -152 Q141 -127 58 -85 L130 -4 Q188 -42 258.5 -62 Q329 -82 398 -82 Q416 -82 440 -79.5 Q464 -77 486.5 -69.5 Q509 -62 524.5 -47 Q540 -32 540 -8 Q540 9 533 20.5 Q526 32 515 40 Q504 48 490.5 53 Q477 58 463 62 Q447 67 431.5 71 Q416 75 400 79 Q364 87 328 94 Q292 101 257 111 Q243 115 230 118.5 Q217 122 203 127 Q173 138 146.5 154.5 Q120 171 99.5 192.5 Q79 214 67.5 242 Q56 270 56 305 Q56 364 88 409.5 Q120 455 169 484 Q132 523 132 573 Q132 620 159 649.5 Q186 679 225 696 Q264 713 308.5 719.5 Q353 726 389 726 Q470 726 550 704.5 Q630 683 698 636 L639 559 Q581 599 515 617 Q449 635 379 635 Q363 635 340 633 Q317 631 295 624.5 Q273 618 257.5 605 Q242 592 242 570 Q242 559 246 552 Q250 545 258 537 Q268 527 292 517.5 Q316 508 344 500.5 Q372 493 398 487 Q424 481 439 478 Q462 473 483.5 468 Q505 463 528 457 Q567 447 604 431.5 Q641 416 670 392 Q699 368 716.5 334.5 Q734 301 734 255 Z M635 248 Q635 292 606.5 315 Q578 338 541 350 Q504 362 465.5 371 Q427 380 388.5 389 Q350 398 312.5 409 Q275 420 240 437 Q208 417 183 389 Q158 361 158 319 Q158 286 174.5 265.5 Q191 245 216 231.5 Q241 218 270.5 210.5 Q300 203 325 197 Q385 183 444.5 171.5 Q504 160 560 134 Q592 155 613.5 181 Q635 207 635 248 Z " />
<glyph glyph-name="dieresis" unicode="&#xa8;" horiz-adv-x="375" d="M270 569 L270 672 L368 672 L368 569 L270 569 Z M7 569 L7 672 L104 672 L104 569 L7 569 Z " />
<glyph glyph-name="copyright" unicode="&#xa9;" horiz-adv-x="840" d="M776 354 Q776 279 748.5 213.5 Q721 148 673 100 Q625 52 559.5 24.5 Q494 -3 419 -3 Q345 -3 280.5 25 Q216 53 168 101 Q120 149 92 214 Q64 279 64 353 Q64 427 92 492 Q120 557 168 605 Q216 653 281 681 Q346 709 421 709 Q495 709 560 681.5 Q625 654 673 606 Q721 558 748.5 493 Q776 428 776 354 Z M737 352 Q737 420 712.5 478.5 Q688 537 645.5 580 Q603 623 545 648 Q487 673 420 673 Q354 673 296.5 647.5 Q239 622 196 578.5 Q153 535 128 476.5 Q103 418 103 352 Q103 286 127.5 227.5 Q152 169 195 126 Q238 83 296 58 Q354 33 420 33 Q486 33 544 58 Q602 83 644.5 126 Q687 169 712 227.5 Q737 286 737 352 Z M631 281 Q610 210 556.5 172.5 Q503 135 424 135 Q375 135 334 150.5 Q293 166 264 193.5 Q235 221 219 260 Q203 299 203 346 Q203 395 220 436 Q237 477 267.5 507 Q298 537 340.5 553.5 Q383 570 433 570 Q508 570 557.5 537 Q607 504 627 441 L559 424 Q541 469 511 489.5 Q481 510 433 510 Q361 510 317.5 466.5 Q274 423 274 351 Q274 282 316 239.5 Q358 197 427 197 Q479 197 515 222.5 Q551 248 564 294 L631 281 Z " />
<glyph glyph-name="ordfeminine" unicode="&#xaa;" horiz-adv-x="479" d="M478 356 Q464 354 449.5 352.5 Q435 351 421 351 Q388 351 373.5 363.5 Q359 376 350 406 Q313 373 272.5 359 Q232 345 183 345 Q155 345 126.5 351.5 Q98 358 76 372.5 Q54 387 40 410 Q26 433 26 466 Q26 498 38.5 519 Q51 540 71 552 Q91 564 116.5 568.5 Q142 573 169 573 L348 573 L348 586 Q348 594 347 604.5 Q346 615 342 623 Q335 636 321 643 Q307 650 290.5 653.5 Q274 657 257.5 657.5 Q241 658 228 658 Q214 658 197.5 657 Q181 656 165.5 651.5 Q150 647 137.5 638 Q125 629 119 613 L47 620 Q50 629 53.5 637.5 Q57 646 62 654 Q75 674 94 685.5 Q113 697 135 703 Q157 709 180 710.5 Q203 712 225 712 Q244 712 268.5 710.5 Q293 709 317.5 704 Q342 699 363.5 689.5 Q385 680 398 663 Q409 649 412.5 633.5 Q416 618 416 601 L416 438 Q416 423 423 413.5 Q430 404 447 404 Q463 404 478 407 L478 356 Z M349 522 Q317 517 282 517.5 Q247 518 215 518 Q201 518 181 518 Q161 518 143 513.5 Q125 509 112 498 Q99 487 99 466 Q99 447 107.5 434 Q116 421 129.5 414 Q143 407 160 404 Q177 401 193 401 Q207 401 223.5 403 Q240 405 256.5 409.5 Q273 414 288 420.5 Q303 427 313 436 Q333 453 341 474.5 Q349 496 349 522 Z " />
<glyph glyph-name="guillemotleft" unicode="&#xab;" horiz-adv-x="500" d="M245 213 L245 299 L448 457 L448 394 L320 255 L448 118 L448 54 L245 213 Z M44 213 L44 298 L247 457 L247 392 L119 255 L247 118 L247 54 L44 213 Z " />
<glyph glyph-name="logicalnot" unicode="&#xac;" horiz-adv-x="772" d="M582 7 L583 253 L57 253 L57 339 L681 339 L681 7 L582 7 Z " />
<glyph glyph-name="registered" unicode="&#xae;" horiz-adv-x="840" d="M776 354 Q776 279 748.5 213.5 Q721 148 673 100 Q625 52 559.5 24.5 Q494 -3 419 -3 Q345 -3 280.5 25 Q216 53 168 101 Q120 149 92 214 Q64 279 64 353 Q64 427 92 492 Q120 557 168 605 Q216 653 281 681 Q346 709 421 709 Q495 709 560 681.5 Q625 654 673 606 Q721 558 748.5 493 Q776 428 776 354 Z M738 352 Q738 420 713.5 478.5 Q689 537 646 580 Q603 623 545 648 Q487 673 420 673 Q354 673 296.5 647.5 Q239 622 196 578.5 Q153 535 128 476.5 Q103 418 103 352 Q103 286 127.5 227.5 Q152 169 195 126 Q238 83 296 58 Q354 33 420 33 Q486 33 544 58 Q602 83 645 126 Q688 169 713 227.5 Q738 286 738 352 Z M527 147 L403 322 L335 322 L335 147 L265 147 L265 563 L416 563 Q446 563 467.5 562 Q489 561 505 559 Q521 557 532 553 Q543 549 553 543 Q598 515 598 447 Q598 393 572 365.5 Q546 338 485 326 L611 147 L527 147 Z M528 444 Q528 475 509 491 Q498 499 484 501.5 Q470 504 434 504 L336 504 L336 382 L432 382 Q464 382 479.5 385.5 Q495 389 506 397 Q528 412 528 444 Z " />
<glyph glyph-name="macron" unicode="&#xaf;" horiz-adv-x="375" d="M7 569 L7 645 L368 645 L368 569 L7 569 Z " />
<glyph glyph-name="degree" unicode="&#xb0;" horiz-adv-x="354" d="M338 594 Q338 561 325.5 531.5 Q313 502 291.5 480 Q270 458 240.5 445 Q211 432 177 432 Q143 432 114 445 Q85 458 63 480 Q41 502 28.5 531.5 Q16 561 16 594 Q16 627 28.5 656.5 Q41 686 63 708 Q85 730 114.5 742.5 Q144 755 177 755 Q211 755 240.5 742.5 Q270 730 291.5 708.5 Q313 687 325.5 657.5 Q338 628 338 594 Z M256 596 Q256 629 233 652 Q210 675 177 675 Q144 675 121 652 Q98 629 98 596 Q98 564 121.5 540.5 Q145 517 177 517 Q210 517 233 540 Q256 563 256 596 Z " />
<glyph glyph-name="plusminus" unicode="&#xb1;" horiz-adv-x="772" d="M435 381 L435 157 L337 157 L337 381 L92 381 L92 467 L337 467 L337 687 L435 687 L435 467 L680 467 L680 381 L435 381 Z M92 0 L92 86 L680 86 L680 0 L92 0 Z " />
<glyph glyph-name="twosuperior" unicode="&#xb2;" horiz-adv-x="458" d="M47 246 L47 314 Q69 324 105 342 Q141 360 179 381 Q217 402 250 424 Q283 446 298 464 Q312 480 320.5 498.5 Q329 517 329 538 Q329 560 320 578 Q311 596 296 608.5 Q281 621 261.5 627.5 Q242 634 221 634 Q172 634 140 605 Q108 576 108 525 Q108 521 108.5 518 Q109 515 109 511 L39 521 Q39 562 53 594 Q67 626 91.5 647.5 Q116 669 149.5 680 Q183 691 222 691 Q274 691 318.5 669.5 Q363 648 386 599 Q400 569 400 538 Q400 513 391.5 489.5 Q383 466 368 446 Q351 424 323 403 Q295 382 262.5 363 Q230 344 198 328 Q166 312 140 301 Q151 303 160.5 304.5 Q170 306 181 306 L410 306 L410 246 L47 246 Z " />
<glyph glyph-name="threesuperior" unicode="&#xb3;" horiz-adv-x="458" d="M417 373 Q417 335 399.5 309.5 Q382 284 355 268.5 Q328 253 295 246.5 Q262 240 230 240 Q206 240 180.5 243.5 Q155 247 131.5 255.5 Q108 264 87.5 278 Q67 292 53 313 Q43 327 38 343.5 Q33 360 29 377 L96 393 Q98 382 100 372 Q102 362 108 352 Q117 336 131.5 326 Q146 316 163.5 310 Q181 304 199.5 302 Q218 300 234 300 Q252 300 271.5 303 Q291 306 307 314.5 Q323 323 333.5 338 Q344 353 344 376 Q344 409 325.5 424.5 Q307 440 281 445.5 Q255 451 225.5 450.5 Q196 450 174 450 L174 504 Q192 504 218.5 503 Q245 502 269.5 506.5 Q294 511 311.5 524 Q329 537 329 565 Q329 585 318.5 598.5 Q308 612 292.5 620.5 Q277 629 258.5 632.5 Q240 636 224 636 Q203 636 183 630.5 Q163 625 147.5 614 Q132 603 123 586 Q114 569 114 545 L47 559 Q48 570 54 587.5 Q60 605 65 615 Q77 638 95 653 Q113 668 134.5 677 Q156 686 180 689.5 Q204 693 228 693 Q257 693 287.5 686.5 Q318 680 343.5 665 Q369 650 385.5 626 Q402 602 402 567 Q402 554 397.5 539.5 Q393 525 384.5 513 Q376 501 364.5 492.5 Q353 484 339 482 Q375 471 396 440.5 Q417 410 417 373 Z " />
<glyph glyph-name="acute" unicode="&#xb4;" horiz-adv-x="375" d="M156 551 L90 551 L160 688 L285 688 L156 551 Z " />
<glyph glyph-name="mu" unicode="&#xb5;" horiz-adv-x="742" d="M736 0 Q730 -1 726 -1.5 Q722 -2 719 -2 Q693 -4 684 -5 Q675 -6 661 -6 Q611 -6 587.5 11 Q564 28 559 68 Q511 23 462 3 Q413 -17 350 -17 Q298 -17 251 -3 Q204 11 169 37 L169 -195 L75 -195 L75 488 L169 488 L169 242 Q169 205 171.5 185.5 Q174 166 180 150 Q196 110 239.5 88.5 Q283 67 346 67 Q395 67 438 81 Q481 95 511 121 Q540 146 547 179 Q551 195 551 224 L551 487 L646 487 L646 128 Q646 93 658.5 78 Q671 63 702 63 Q711 63 719 63.5 Q727 64 736 66 L736 0 Z " />
<glyph glyph-name="paragraph" unicode="&#xb6;" horiz-adv-x="636" d="M508 641 L508 -166 L439 -166 L439 641 L290 641 L290 -166 L220 -166 L220 321 Q191 328 177 333.5 Q163 339 146 350 Q108 373 88 414 Q68 455 68 506 Q68 550 82.5 587 Q97 624 124 651 Q154 680 193.5 693 Q233 706 295 706 L542 706 L542 641 L508 641 Z " />
<glyph glyph-name="periodcentered" unicode="&#xb7;" horiz-adv-x="250" d="M69 188 L69 297 L179 297 L179 188 L69 188 Z " />
<glyph glyph-name="cedilla" unicode="&#xb8;" horiz-adv-x="375" d="M297 -129 Q297 -154 285 -171.5 Q273 -189 254 -199.5 Q235 -210 213 -214.5 Q191 -219 170 -219 Q147 -219 124 -216.5 Q101 -214 78 -209 L96 -162 Q110 -165 124.5 -167.5 Q139 -170 154 -170 Q163 -170 173 -168.5 Q183 -167 192 -163 Q201 -159 206.5 -152 Q212 -145 212 -133 Q212 -120 201.5 -112.5 Q191 -105 176.5 -102 Q162 -99 147 -99.5 Q132 -100 123 -101 L166 9 L223 9 L198 -54 Q223 -56 245 -62 Q267 -68 283 -89 Q297 -106 297 -129 Z " />
<glyph glyph-name="onesuperior" unicode="&#xb9;" horiz-adv-x="458" d="M214 246 L214 584 Q185 570 155 568.5 Q125 567 93 567 L93 616 Q141 618 174.5 632 Q208 646 231 689 L284 689 L284 246 L214 246 Z " />
<glyph glyph-name="ordmasculine" unicode="&#xba;" horiz-adv-x="500" d="M468 530 Q468 484 450 450 Q432 416 402 393.5 Q372 371 333 359.5 Q294 348 252 348 Q211 348 171 358.5 Q131 369 99.5 390.5 Q68 412 48.5 446 Q29 480 29 526 Q29 566 46 603 Q73 663 125.5 687.5 Q178 712 240 712 L251 712 Q293 712 332 701 Q371 690 401.5 667.5 Q432 645 450 610.5 Q468 576 468 530 Z M397 532 Q397 562 385 585 Q373 608 352.5 623 Q332 638 306 645.5 Q280 653 252 653 L240 653 Q213 653 188 644.5 Q163 636 143.5 619.5 Q124 603 112.5 580.5 Q101 558 101 529 Q101 498 114 475.5 Q127 453 148.5 438 Q170 423 197 416 Q224 409 252 409 Q281 409 307 416.5 Q333 424 353 439.5 Q373 455 385 478 Q397 501 397 532 Z " />
<glyph glyph-name="guillemotright" unicode="&#xbb;" horiz-adv-x="500" d="M252 53 L252 117 L380 255 L252 392 L252 457 L454 298 L454 212 L252 53 Z M51 52 L51 116 L180 255 L51 392 L51 456 L253 296 L253 213 L51 52 Z " />
<glyph glyph-name="onequarter" unicode="&#xbc;" horiz-adv-x="1042" d="M927 104 L927 0 L860 0 L860 104 L605 104 L605 161 L872 442 L927 442 L927 163 L1013 163 L1013 104 L927 104 Z M328 -12 L279 18 L711 701 L760 670 L328 -12 Z M214 246 L214 584 Q185 570 155 568.5 Q125 567 93 567 L93 616 Q141 618 174.5 632 Q208 646 231 689 L284 689 L284 246 L214 246 Z M866 361 Q862 354 857.5 347 Q853 340 848 335 L684 162 L860 162 L860 303 Q860 318 862 332 Q864 346 866 361 Z " />
<glyph glyph-name="onehalf" unicode="&#xbd;" horiz-adv-x="1042" d="M630 0 L630 69 Q652 79 688 97 Q724 115 761.5 136 Q799 157 832 179 Q865 201 881 218 Q895 234 903.5 252.5 Q912 271 912 293 Q912 315 903 332.5 Q894 350 879 362.5 Q864 375 844.5 381.5 Q825 388 804 388 Q755 388 723.5 359 Q692 330 692 279 L692 265 L623 275 Q623 316 636.5 348 Q650 380 674.5 401.5 Q699 423 732.5 434 Q766 445 805 445 Q858 445 903 423 Q948 401 970 350 Q983 321 983 292 Q983 267 975 243.5 Q967 220 951 200 Q934 179 906 157.5 Q878 136 845.5 117 Q813 98 781 82 Q749 66 723 56 Q734 58 743.5 59 Q753 60 764 60 L994 60 L994 0 L630 0 Z M284 -12 L235 18 L666 701 L716 670 L284 -12 Z M214 246 L214 584 Q185 570 155 568.5 Q125 567 93 567 L93 616 Q141 618 174.5 632 Q208 646 231 689 L284 689 L284 246 L214 246 Z " />
<glyph glyph-name="threequarters" unicode="&#xbe;" horiz-adv-x="1042" d="M927 104 L927 0 L860 0 L860 104 L605 104 L605 161 L872 442 L927 442 L927 163 L1013 163 L1013 104 L927 104 Z M372 -12 L323 18 L755 701 L804 670 L372 -12 Z M417 373 Q417 335 399.5 309.5 Q382 284 355 268.5 Q328 253 295 246.5 Q262 240 230 240 Q206 240 180.5 243.5 Q155 247 131.5 255.5 Q108 264 87.5 278 Q67 292 53 313 Q43 327 38 343.5 Q33 360 29 377 L96 393 Q98 382 100 372 Q102 362 108 352 Q117 336 131.5 326 Q146 316 163.5 310 Q181 304 199.5 302 Q218 300 234 300 Q252 300 271.5 303 Q291 306 307 314.5 Q323 323 333.5 338 Q344 353 344 376 Q344 409 325.5 424.5 Q307 440 281 445.5 Q255 451 225.5 450.5 Q196 450 174 450 L174 504 Q192 504 218.5 503 Q245 502 269.5 506.5 Q294 511 311.5 524 Q329 537 329 565 Q329 585 318.5 598.5 Q308 612 292.5 620.5 Q277 629 258.5 632.5 Q240 636 224 636 Q203 636 183 630.5 Q163 625 147.5 614 Q132 603 123 586 Q114 569 114 545 L47 559 Q48 570 54 587.5 Q60 605 65 615 Q77 638 95 653 Q113 668 134.5 677 Q156 686 180 689.5 Q204 693 228 693 Q257 693 287.5 686.5 Q318 680 343.5 665 Q369 650 385.5 626 Q402 602 402 567 Q402 554 397.5 539.5 Q393 525 384.5 513 Q376 501 364.5 492.5 Q353 484 339 482 Q375 471 396 440.5 Q417 410 417 373 Z M866 361 Q862 354 857.5 347 Q853 340 848 335 L684 162 L860 162 L860 303 Q860 318 862 332 Q864 346 866 361 Z " />
<glyph glyph-name="questiondown" unicode="&#xbf;" horiz-adv-x="667" d="M300 606 L300 706 L401 706 L401 606 L300 606 Z M599 202 Q592 179 584.5 157 Q577 135 565 114 Q544 79 515.5 54 Q487 29 452.5 13 Q418 -3 380 -10 Q342 -17 303 -17 Q254 -17 204.5 -3 Q155 11 115.5 38.5 Q76 66 51.5 108 Q27 150 27 205 Q27 248 43 277.5 Q59 307 84.5 327.5 Q110 348 141 362.5 Q172 377 202 389 Q232 401 257.5 414 Q283 427 297 445 Q309 461 310.5 483.5 Q312 506 312 525 L386 525 L386 487 Q386 455 382.5 433 Q379 411 368.5 395.5 Q358 380 339 367.5 Q320 355 290 342 Q264 330 235.5 319 Q207 308 183.5 292 Q160 276 145 253 Q130 230 130 195 Q130 159 146.5 133.5 Q163 108 189 91.5 Q215 75 247 67 Q279 59 310 59 Q386 59 440 101.5 Q494 144 511 219 L599 202 Z " />
<glyph glyph-name="Agrave" unicode="&#xc0;" horiz-adv-x="833" d="M402 755 L282 881 L407 881 L468 755 L402 755 Z M718 0 L632 174 L198 174 L112 0 L-1 0 L365 706 L472 706 L834 0 L718 0 Z M440 553 Q432 569 426.5 584 Q421 599 416 616 Q406 583 389 549 L240 255 L589 255 L440 553 Z " />
<glyph glyph-name="Aacute" unicode="&#xc1;" horiz-adv-x="833" d="M431 753 L366 753 L430 878 L557 878 L431 753 Z M718 0 L632 174 L198 174 L112 0 L-1 0 L365 706 L472 706 L834 0 L718 0 Z M440 553 Q432 569 426.5 584 Q421 599 416 616 Q406 583 389 549 L240 255 L589 255 L440 553 Z " />
<glyph glyph-name="Acircumflex" unicode="&#xc2;" horiz-adv-x="833" d="M496 753 L415 822 L333 752 L254 752 L361 877 L468 877 L578 753 L496 753 Z M718 0 L632 174 L198 174 L112 0 L-1 0 L365 706 L472 706 L834 0 L718 0 Z M440 553 Q432 569 426.5 584 Q421 599 416 616 Q406 583 389 549 L240 255 L589 255 L440 553 Z " />
<glyph glyph-name="Atilde" unicode="&#xc3;" horiz-adv-x="833" d="M609 816 Q586 798 557.5 779.5 Q529 761 498 761 Q478 761 458.5 767 Q439 773 420 780 Q401 787 381.5 793 Q362 799 341 799 Q315 799 299.5 790 Q284 781 265 766 L229 810 Q254 830 284 850.5 Q314 871 347 871 Q367 871 386 865 Q405 859 424 851.5 Q443 844 462 837.5 Q481 831 502 831 Q524 831 540.5 839.5 Q557 848 574 860 L609 816 Z M718 0 L632 174 L198 174 L112 0 L-1 0 L365 706 L472 706 L834 0 L718 0 Z M440 553 Q432 569 426.5 584 Q421 599 416 616 Q406 583 389 549 L240 255 L589 255 L440 553 Z " />
<glyph glyph-name="Adieresis" unicode="&#xc4;" horiz-adv-x="833" d="M492 774 L492 877 L590 877 L590 774 L492 774 Z M230 774 L230 877 L327 877 L327 774 L230 774 Z M718 0 L632 174 L198 174 L112 0 L-1 0 L365 706 L472 706 L834 0 L718 0 Z M440 553 Q432 569 426.5 584 Q421 599 416 616 Q406 583 389 549 L240 255 L589 255 L440 553 Z " />
<glyph glyph-name="Aring" unicode="&#xc5;" horiz-adv-x="833" d="M530 834 Q530 810 520 792 Q510 774 494 762 Q478 750 457.5 744 Q437 738 415 738 Q393 738 371.5 744 Q350 750 333.5 762 Q317 774 307 792.5 Q297 811 297 836 Q297 860 307.5 877.5 Q318 895 334.5 906.5 Q351 918 372 923.5 Q393 929 414 929 Q435 929 456 923 Q477 917 493.5 905 Q510 893 520 875.5 Q530 858 530 834 Z M718 0 L632 174 L198 174 L112 0 L-1 0 L365 706 L472 706 L834 0 L718 0 Z M469 836 Q469 859 450.5 870.5 Q432 882 412 882 Q391 882 374 869.5 Q357 857 357 834 Q357 811 375.5 799 Q394 787 414 787 Q437 787 453 800 Q469 813 469 836 Z M440 553 Q432 569 426.5 584 Q421 599 416 616 Q406 583 389 549 L240 255 L589 255 L440 553 Z " />
<glyph glyph-name="AE" unicode="&#xc6;" horiz-adv-x="1125" d="M524 0 L524 170 L230 170 L117 0 L0 0 L486 706 L1088 706 L1088 620 L624 620 L624 408 L1060 408 L1060 326 L624 326 L624 88 L1094 88 L1094 0 L524 0 Z M525 613 L284 252 L525 252 L525 613 Z " />
<glyph glyph-name="Ccedilla" unicode="&#xc7;" horiz-adv-x="917" d="M887 193 Q870 163 851.5 136.5 Q833 110 807 87 Q776 59 738 39.5 Q700 20 659 7.5 Q618 -5 575 -11 Q532 -17 491 -17 L480 -49 Q500 -49 520 -53 Q540 -57 556 -66.5 Q572 -76 582 -92 Q592 -108 592 -132 Q592 -162 577 -182 Q562 -202 539.5 -214 Q517 -226 490 -230.5 Q463 -235 439 -235 Q416 -235 394 -232.5 Q372 -230 349 -225 L369 -174 Q385 -178 401 -181 Q417 -184 434 -184 Q444 -184 455.5 -182 Q467 -180 477 -175.5 Q487 -171 494 -162.5 Q501 -154 501 -142 Q501 -129 494.5 -120.5 Q488 -112 478 -107.5 Q468 -103 456.5 -101.5 Q445 -100 434 -100 Q426 -100 418.5 -100.5 Q411 -101 403 -102 L433 -16 Q400 -13 367.5 -8.5 Q335 -4 303 7 Q181 46 115 138 Q49 230 49 358 Q49 439 77.5 508.5 Q106 578 170 630 Q192 648 216.5 663.5 Q241 679 267 690 Q315 709 369.5 718 Q424 727 475 727 Q536 727 594.5 716 Q653 705 704.5 681 Q756 657 799 618 Q842 579 872 522 L765 499 Q751 522 739.5 538 Q728 554 707 571 Q685 589 657 602 Q629 615 599 623.5 Q569 632 538 635.5 Q507 639 479 639 Q412 639 353 622.5 Q294 606 250 572 Q206 538 180.5 485.5 Q155 433 155 360 Q155 286 180.5 231.5 Q206 177 250.5 141 Q295 105 355.5 87.5 Q416 70 486 70 L500 70 Q533 70 567 75 Q601 80 633.5 91.5 Q666 103 695 121 Q724 139 746 165 Q757 177 765 189.5 Q773 202 781 215 L887 193 Z " />
<glyph glyph-name="Egrave" unicode="&#xc8;" horiz-adv-x="792" d="M402 755 L282 881 L407 881 L468 755 L402 755 Z M85 0 L85 706 L736 706 L736 619 L185 619 L185 409 L722 409 L722 325 L185 325 L185 87 L762 87 L762 0 L85 0 Z " />
<glyph glyph-name="Eacute" unicode="&#xc9;" horiz-adv-x="792" d="M431 753 L366 753 L430 878 L557 878 L431 753 Z M85 0 L85 706 L736 706 L736 619 L185 619 L185 409 L722 409 L722 325 L185 325 L185 87 L762 87 L762 0 L85 0 Z " />
<glyph glyph-name="Ecircumflex" unicode="&#xca;" horiz-adv-x="792" d="M496 753 L415 822 L333 752 L254 752 L361 877 L468 877 L578 753 L496 753 Z M85 0 L85 706 L736 706 L736 619 L185 619 L185 409 L722 409 L722 325 L185 325 L185 87 L762 87 L762 0 L85 0 Z " />
<glyph glyph-name="Edieresis" unicode="&#xcb;" horiz-adv-x="792" d="M492 773 L492 876 L589 876 L589 773 L492 773 Z M229 774 L229 877 L326 877 L326 774 L229 774 Z M85 0 L85 706 L736 706 L736 619 L185 619 L185 409 L722 409 L722 325 L185 325 L185 87 L762 87 L762 0 L85 0 Z " />
<glyph glyph-name="Igrave" unicode="&#xcc;" horiz-adv-x="271" d="M121 755 L1 881 L126 881 L186 755 L121 755 Z M84 0 L84 706 L186 706 L186 0 L84 0 Z " />
<glyph glyph-name="Iacute" unicode="&#xcd;" horiz-adv-x="271" d="M150 753 L85 753 L149 878 L276 878 L150 753 Z M84 0 L84 706 L186 706 L186 0 L84 0 Z " />
<glyph glyph-name="Icircumflex" unicode="&#xce;" horiz-adv-x="271" d="M215 753 L134 822 L52 752 L-27 752 L80 877 L187 877 L297 753 L215 753 Z M84 0 L84 706 L186 706 L186 0 L84 0 Z " />
<glyph glyph-name="Idieresis" unicode="&#xcf;" horiz-adv-x="271" d="M211 773 L211 876 L308 876 L308 773 L211 773 Z M-52 774 L-52 877 L45 877 L45 774 L-52 774 Z M84 0 L84 706 L186 706 L186 0 L84 0 Z " />
<glyph glyph-name="Eth" unicode="&#xd0;" horiz-adv-x="875" d="M823 359 Q823 305 809 253 Q795 201 766 156 Q733 104 690 73 Q647 42 598 26 Q549 10 495 5 Q441 0 384 0 L85 0 L85 343 L0 343 L0 411 L85 411 L85 706 L436 706 Q471 706 505.5 704 Q540 702 574 694 Q634 679 680.5 647 Q727 615 758.5 571.5 Q790 528 806.5 473.5 Q823 419 823 359 Z M721 359 Q721 403 710.5 443.5 Q700 484 678.5 518 Q657 552 624 576.5 Q591 601 547 613 Q523 620 498 621.5 Q473 623 448 623 L186 623 L186 411 L510 411 L510 343 L186 343 L186 85 L392 85 Q430 85 469 87.5 Q508 90 545 102 Q634 131 677.5 199.5 Q721 268 721 359 Z " />
<glyph glyph-name="Ntilde" unicode="&#xd1;" horiz-adv-x="917" d="M651 816 Q628 798 599 779.5 Q570 761 540 761 Q519 761 499.5 767 Q480 773 461 780 Q442 787 422.5 793 Q403 799 382 799 Q357 799 341 790 Q325 781 307 766 L271 810 Q296 830 325.5 850.5 Q355 871 388 871 Q408 871 427 865 Q446 859 465 851.5 Q484 844 503 837.5 Q522 831 543 831 Q566 831 582 839.5 Q598 848 616 860 L651 816 Z M731 0 L230 529 Q215 545 202 561 Q189 577 175 594 Q178 569 179 544.5 Q180 520 180 495 L180 0 L84 0 L84 706 L187 706 L664 201 Q703 159 739 114 Q737 140 735 166.5 Q733 193 733 219 L733 706 L829 706 L829 0 L731 0 Z " />
<glyph glyph-name="Ograve" unicode="&#xd2;" horiz-adv-x="958" d="M464 755 L344 881 L469 881 L530 755 L464 755 Z M906 343 Q906 253 871.5 185.5 Q837 118 779 72.5 Q721 27 645.5 4 Q570 -19 487 -19 L480 -19 Q445 -19 410.5 -16 Q376 -13 341 -5 Q295 5 253 23.5 Q211 42 175.5 69.5 Q140 97 112.5 133.5 Q85 170 69 215 Q58 247 53 279.5 Q48 312 48 346 Q48 438 82.5 508 Q117 578 175.5 626 Q234 674 311.5 698.5 Q389 723 474 723 Q560 723 638.5 698.5 Q717 674 776.5 626 Q836 578 871 507 Q906 436 906 343 Z M805 351 Q805 427 777 481.5 Q749 536 702 570.5 Q655 605 593 621 Q531 637 463 637 Q429 637 396 630.5 Q363 624 331 613 Q240 580 194 513 Q148 446 148 350 Q148 274 175.5 220.5 Q203 167 249.5 133 Q296 99 357.5 83.5 Q419 68 486 68 Q553 68 611.5 85.5 Q670 103 713 138.5 Q756 174 780.5 227 Q805 280 805 351 Z " />
<glyph glyph-name="Oacute" unicode="&#xd3;" horiz-adv-x="958" d="M494 753 L429 753 L493 878 L620 878 L494 753 Z M906 343 Q906 253 871.5 185.5 Q837 118 779 72.5 Q721 27 645.5 4 Q570 -19 487 -19 L480 -19 Q445 -19 410.5 -16 Q376 -13 341 -5 Q295 5 253 23.5 Q211 42 175.5 69.5 Q140 97 112.5 133.5 Q85 170 69 215 Q58 247 53 279.5 Q48 312 48 346 Q48 438 82.5 508 Q117 578 175.5 626 Q234 674 311.5 698.5 Q389 723 474 723 Q560 723 638.5 698.5 Q717 674 776.5 626 Q836 578 871 507 Q906 436 906 343 Z M805 351 Q805 427 777 481.5 Q749 536 702 570.5 Q655 605 593 621 Q531 637 463 637 Q429 637 396 630.5 Q363 624 331 613 Q240 580 194 513 Q148 446 148 350 Q148 274 175.5 220.5 Q203 167 249.5 133 Q296 99 357.5 83.5 Q419 68 486 68 Q553 68 611.5 85.5 Q670 103 713 138.5 Q756 174 780.5 227 Q805 280 805 351 Z " />
<glyph glyph-name="Ocircumflex" unicode="&#xd4;" horiz-adv-x="958" d="M558 753 L478 822 L395 752 L316 752 L424 877 L531 877 L640 753 L558 753 Z M906 343 Q906 253 871.5 185.5 Q837 118 779 72.5 Q721 27 645.5 4 Q570 -19 487 -19 L480 -19 Q445 -19 410.5 -16 Q376 -13 341 -5 Q295 5 253 23.5 Q211 42 175.5 69.5 Q140 97 112.5 133.5 Q85 170 69 215 Q58 247 53 279.5 Q48 312 48 346 Q48 438 82.5 508 Q117 578 175.5 626 Q234 674 311.5 698.5 Q389 723 474 723 Q560 723 638.5 698.5 Q717 674 776.5 626 Q836 578 871 507 Q906 436 906 343 Z M805 351 Q805 427 777 481.5 Q749 536 702 570.5 Q655 605 593 621 Q531 637 463 637 Q429 637 396 630.5 Q363 624 331 613 Q240 580 194 513 Q148 446 148 350 Q148 274 175.5 220.5 Q203 167 249.5 133 Q296 99 357.5 83.5 Q419 68 486 68 Q553 68 611.5 85.5 Q670 103 713 138.5 Q756 174 780.5 227 Q805 280 805 351 Z " />
<glyph glyph-name="Otilde" unicode="&#xd5;" horiz-adv-x="958" d="M672 816 Q649 798 620 779.5 Q591 761 561 761 Q540 761 520.5 767 Q501 773 482 780 Q463 787 443.5 793 Q424 799 403 799 Q378 799 362 790 Q346 781 328 766 L292 810 Q317 830 346.5 850.5 Q376 871 409 871 Q429 871 448 865 Q467 859 486 851.5 Q505 844 524 837.5 Q543 831 564 831 Q587 831 603 839.5 Q619 848 637 860 L672 816 Z M906 343 Q906 253 871.5 185.5 Q837 118 779 72.5 Q721 27 645.5 4 Q570 -19 487 -19 L480 -19 Q445 -19 410.5 -16 Q376 -13 341 -5 Q295 5 253 23.5 Q211 42 175.5 69.5 Q140 97 112.5 133.5 Q85 170 69 215 Q58 247 53 279.5 Q48 312 48 346 Q48 438 82.5 508 Q117 578 175.5 626 Q234 674 311.5 698.5 Q389 723 474 723 Q560 723 638.5 698.5 Q717 674 776.5 626 Q836 578 871 507 Q906 436 906 343 Z M805 351 Q805 427 777 481.5 Q749 536 702 570.5 Q655 605 593 621 Q531 637 463 637 Q429 637 396 630.5 Q363 624 331 613 Q240 580 194 513 Q148 446 148 350 Q148 274 175.5 220.5 Q203 167 249.5 133 Q296 99 357.5 83.5 Q419 68 486 68 Q553 68 611.5 85.5 Q670 103 713 138.5 Q756 174 780.5 227 Q805 280 805 351 Z " />
<glyph glyph-name="Odieresis" unicode="&#xd6;" horiz-adv-x="958" d="M553 772 L553 875 L650 875 L650 772 L553 772 Z M290 772 L290 875 L387 875 L387 772 L290 772 Z M906 343 Q906 253 871.5 185.5 Q837 118 779 72.5 Q721 27 645.5 4 Q570 -19 487 -19 L480 -19 Q445 -19 410.5 -16 Q376 -13 341 -5 Q295 5 253 23.5 Q211 42 175.5 69.5 Q140 97 112.5 133.5 Q85 170 69 215 Q58 247 53 279.5 Q48 312 48 346 Q48 438 82.5 508 Q117 578 175.5 626 Q234 674 311.5 698.5 Q389 723 474 723 Q560 723 638.5 698.5 Q717 674 776.5 626 Q836 578 871 507 Q906 436 906 343 Z M805 351 Q805 427 777 481.5 Q749 536 702 570.5 Q655 605 593 621 Q531 637 463 637 Q429 637 396 630.5 Q363 624 331 613 Q240 580 194 513 Q148 446 148 350 Q148 274 175.5 220.5 Q203 167 249.5 133 Q296 99 357.5 83.5 Q419 68 486 68 Q553 68 611.5 85.5 Q670 103 713 138.5 Q756 174 780.5 227 Q805 280 805 351 Z " />
<glyph glyph-name="multiply" unicode="&#xd7;" horiz-adv-x="772" d="M557 67 L382 232 L211 66 L147 126 L318 292 L141 458 L213 528 L390 362 L561 528 L625 468 L454 302 L629 137 L557 67 Z " />
<glyph glyph-name="Oslash" unicode="&#xd8;" horiz-adv-x="979" d="M845 579 Q884 525 904.5 474.5 Q925 424 925 356 Q925 272 892 201 Q859 130 794 76 Q731 24 655 3.5 Q579 -17 498 -17 Q453 -17 414.5 -12.5 Q376 -8 340 1.5 Q304 11 269 27 Q234 43 197 67 L96 -13 L51 47 L140 116 Q96 169 74 226 Q52 283 52 352 Q52 450 101 535 Q131 586 173.5 621.5 Q216 657 266 680 Q316 703 372 713.5 Q428 724 484 724 Q569 724 645.5 702 Q722 680 790 629 L898 715 L944 656 L845 579 Z M827 355 Q827 400 814.5 443.5 Q802 487 773 522 L270 125 Q318 93 374.5 80 Q431 67 488 67 Q556 67 617.5 84 Q679 101 725.5 136 Q772 171 799.5 225.5 Q827 280 827 355 Z M719 574 Q664 611 608.5 625.5 Q553 640 487 640 Q420 640 358.5 623 Q297 606 251 571 Q205 536 177.5 481.5 Q150 427 150 353 Q150 302 165 257.5 Q180 213 212 173 L719 574 Z " />
<glyph glyph-name="Ugrave" unicode="&#xd9;" horiz-adv-x="896" d="M433 755 L313 881 L438 881 L499 755 L433 755 Z M808 282 Q808 249 805 216 Q802 183 789 151 Q769 101 731.5 68.5 Q694 36 647.5 17 Q601 -2 549.5 -9.5 Q498 -17 449 -17 Q403 -17 352 -10 Q301 -3 254.5 15 Q208 33 169.5 63 Q131 93 109 139 Q92 177 88 213.5 Q84 250 84 291 L84 706 L185 706 L185 287 Q185 254 188.5 221 Q192 188 211 159 Q229 132 257 115 Q285 98 318 88 Q351 78 385.5 74 Q420 70 449 70 Q481 70 516 74 Q551 78 584 88.5 Q617 99 644.5 118 Q672 137 689 167 Q703 191 705 219 Q707 247 707 274 L707 706 L808 706 L808 282 Z " />
<glyph glyph-name="Uacute" unicode="&#xda;" horiz-adv-x="896" d="M462 753 L397 753 L462 878 L588 878 L462 753 Z M808 282 Q808 249 805 216 Q802 183 789 151 Q769 101 731.5 68.5 Q694 36 647.5 17 Q601 -2 549.5 -9.5 Q498 -17 449 -17 Q403 -17 352 -10 Q301 -3 254.5 15 Q208 33 169.5 63 Q131 93 109 139 Q92 177 88 213.5 Q84 250 84 291 L84 706 L185 706 L185 287 Q185 254 188.5 221 Q192 188 211 159 Q229 132 257 115 Q285 98 318 88 Q351 78 385.5 74 Q420 70 449 70 Q481 70 516 74 Q551 78 584 88.5 Q617 99 644.5 118 Q672 137 689 167 Q703 191 705 219 Q707 247 707 274 L707 706 L808 706 L808 282 Z " />
<glyph glyph-name="Ucircumflex" unicode="&#xdb;" horiz-adv-x="896" d="M527 753 L446 822 L364 752 L285 752 L392 877 L499 877 L609 753 L527 753 Z M808 282 Q808 249 805 216 Q802 183 789 151 Q769 101 731.5 68.5 Q694 36 647.5 17 Q601 -2 549.5 -9.5 Q498 -17 449 -17 Q403 -17 352 -10 Q301 -3 254.5 15 Q208 33 169.5 63 Q131 93 109 139 Q92 177 88 213.5 Q84 250 84 291 L84 706 L185 706 L185 287 Q185 254 188.5 221 Q192 188 211 159 Q229 132 257 115 Q285 98 318 88 Q351 78 385.5 74 Q420 70 449 70 Q481 70 516 74 Q551 78 584 88.5 Q617 99 644.5 118 Q672 137 689 167 Q703 191 705 219 Q707 247 707 274 L707 706 L808 706 L808 282 Z " />
<glyph glyph-name="Udieresis" unicode="&#xdc;" horiz-adv-x="896" d="M523 774 L523 877 L621 877 L621 774 L523 774 Z M260 774 L260 877 L358 877 L358 774 L260 774 Z M808 282 Q808 249 805 216 Q802 183 789 151 Q769 101 731.5 68.5 Q694 36 647.5 17 Q601 -2 549.5 -9.5 Q498 -17 449 -17 Q403 -17 352 -10 Q301 -3 254.5 15 Q208 33 169.5 63 Q131 93 109 139 Q92 177 88 213.5 Q84 250 84 291 L84 706 L185 706 L185 287 Q185 254 188.5 221 Q192 188 211 159 Q229 132 257 115 Q285 98 318 88 Q351 78 385.5 74 Q420 70 449 70 Q481 70 516 74 Q551 78 584 88.5 Q617 99 644.5 118 Q672 137 689 167 Q703 191 705 219 Q707 247 707 274 L707 706 L808 706 L808 282 Z " />
<glyph glyph-name="Yacute" unicode="&#xdd;" horiz-adv-x="812" d="M421 753 L356 753 L420 878 L547 878 L421 753 Z M453 273 L453 0 L354 0 L354 275 L2 706 L131 706 L375 398 Q392 376 404 350 Q416 374 431 393 L683 706 L811 706 L453 273 Z " />
<glyph glyph-name="Thorn" unicode="&#xde;" horiz-adv-x="812" d="M798 374 Q798 326 780 284.5 Q762 243 724 213 Q681 179 629 172 Q577 165 524 165 L185 165 L185 0 L83 0 L83 706 L184 706 L184 589 L514 589 Q549 589 582.5 586.5 Q616 584 647 574.5 Q678 565 705.5 547.5 Q733 530 757 500 Q777 474 787.5 440 Q798 406 798 374 Z M689 380 Q689 400 683.5 419 Q678 438 665 454 Q651 472 632.5 482 Q614 492 593.5 497 Q573 502 551.5 503 Q530 504 509 504 L184 504 L184 250 L510 250 Q533 250 556 251 Q579 252 599.5 257.5 Q620 263 638 275 Q656 287 670 308 Q681 325 685 342.5 Q689 360 689 380 Z " />
<glyph glyph-name="germandbls" unicode="&#xdf;" horiz-adv-x="729" d="M681 232 Q681 114 624.5 52 Q568 -10 447 -10 Q419 -10 388 -6.5 Q357 -3 329 7 Q301 17 279 36 Q257 55 246 85 Q240 102 239 123 Q238 144 237 161 L331 161 Q330 107 358.5 85 Q387 63 438 63 Q518 63 550.5 106 Q583 149 583 222 Q583 273 571.5 305 Q560 337 537 354.5 Q514 372 479.5 378.5 Q445 385 398 385 Q379 385 360 384.5 Q341 384 322 383 L322 457 L381 457 Q405 457 432 459.5 Q459 462 482 471 Q505 480 520.5 498.5 Q536 517 536 548 Q536 581 517 600.5 Q498 620 470.5 630 Q443 640 412 642.5 Q381 645 356 645 Q333 645 307 642.5 Q281 640 257 632.5 Q233 625 213 610.5 Q193 596 182 573 Q174 556 172.5 531.5 Q171 507 171 488 L171 0 L75 0 L75 502 Q75 527 77.5 552.5 Q80 578 89 601 Q105 640 136 663.5 Q167 687 205 699.5 Q243 712 284.5 716 Q326 720 363 720 Q403 720 451 714.5 Q499 709 540.5 692 Q582 675 610 643.5 Q638 612 638 559 Q638 506 612 478 Q586 450 538 436 Q580 426 607.5 408.5 Q635 391 651.5 365.5 Q668 340 674.5 307 Q681 274 681 232 Z " />
<glyph glyph-name="agrave" unicode="&#xe0;" horiz-adv-x="688" d="M346 551 L218 688 L344 688 L410 551 L346 551 Z M681 0 Q660 -2 639 -3.5 Q618 -5 597 -5 Q549 -5 528.5 14 Q508 33 503 78 Q497 69 490.5 61 Q484 53 476 45 Q458 28 433 16 Q408 4 380 -3.5 Q352 -11 324 -14.5 Q296 -18 272 -18 Q221 -18 169.5 -6 Q118 6 81 45 Q39 89 39 150 Q39 174 45.5 195.5 Q52 217 67 237 Q85 260 108.5 273 Q132 286 158 292.5 Q184 299 212 300.5 Q240 302 267 303 Q284 304 300.5 304 Q317 304 334 304 L502 304 Q502 336 498.5 362 Q495 388 466 409 Q455 417 439 422 Q423 427 405 429.5 Q387 432 370 433 Q353 434 340 434 Q320 434 294 432 Q268 430 243 423.5 Q218 417 197.5 404.5 Q177 392 167 370 L71 379 Q79 402 88 419 Q97 436 116 453 Q135 470 162.5 479.5 Q190 489 220 494.5 Q250 500 280 501.5 Q310 503 334 503 Q362 503 398 500.5 Q434 498 469 489.5 Q504 481 533 464.5 Q562 448 577 420 Q588 399 589.5 377.5 Q591 356 591 333 L591 128 Q591 99 601 81 Q611 63 645 63 Q663 63 681 66 L681 0 Z M324 231 Q303 231 270.5 231 Q238 231 207.5 224 Q177 217 155.5 200.5 Q134 184 134 152 Q134 124 147.5 105.5 Q161 87 182 76 Q203 65 228 60 Q253 55 275 55 Q304 55 335.5 60 Q367 65 395.5 76.5 Q424 88 448 106.5 Q472 125 486 153 Q496 173 498.5 191 Q501 209 503 231 L324 231 Z " />
<glyph glyph-name="aacute" unicode="&#xe1;" horiz-adv-x="688" d="M365 551 L299 551 L368 688 L494 688 L365 551 Z M681 0 Q660 -2 639 -3.5 Q618 -5 597 -5 Q549 -5 528.5 14 Q508 33 503 78 Q497 69 490.5 61 Q484 53 476 45 Q458 28 433 16 Q408 4 380 -3.5 Q352 -11 324 -14.5 Q296 -18 272 -18 Q221 -18 169.5 -6 Q118 6 81 45 Q39 89 39 150 Q39 174 45.5 195.5 Q52 217 67 237 Q85 260 108.5 273 Q132 286 158 292.5 Q184 299 212 300.5 Q240 302 267 303 Q284 304 300.5 304 Q317 304 334 304 L502 304 Q502 336 498.5 362 Q495 388 466 409 Q455 417 439 422 Q423 427 405 429.5 Q387 432 370 433 Q353 434 340 434 Q320 434 294 432 Q268 430 243 423.5 Q218 417 197.5 404.5 Q177 392 167 370 L71 379 Q79 402 88 419 Q97 436 116 453 Q135 470 162.5 479.5 Q190 489 220 494.5 Q250 500 280 501.5 Q310 503 334 503 Q362 503 398 500.5 Q434 498 469 489.5 Q504 481 533 464.5 Q562 448 577 420 Q588 399 589.5 377.5 Q591 356 591 333 L591 128 Q591 99 601 81 Q611 63 645 63 Q663 63 681 66 L681 0 Z M324 231 Q303 231 270.5 231 Q238 231 207.5 224 Q177 217 155.5 200.5 Q134 184 134 152 Q134 124 147.5 105.5 Q161 87 182 76 Q203 65 228 60 Q253 55 275 55 Q304 55 335.5 60 Q367 65 395.5 76.5 Q424 88 448 106.5 Q472 125 486 153 Q496 173 498.5 191 Q501 209 503 231 L324 231 Z " />
<glyph glyph-name="acircumflex" unicode="&#xe2;" horiz-adv-x="688" d="M424 552 L343 628 L266 551 L184 551 L290 689 L397 689 L506 552 L424 552 Z M681 0 Q660 -2 639 -3.5 Q618 -5 597 -5 Q549 -5 528.5 14 Q508 33 503 78 Q497 69 490.5 61 Q484 53 476 45 Q458 28 433 16 Q408 4 380 -3.5 Q352 -11 324 -14.5 Q296 -18 272 -18 Q221 -18 169.5 -6 Q118 6 81 45 Q39 89 39 150 Q39 174 45.5 195.5 Q52 217 67 237 Q85 260 108.5 273 Q132 286 158 292.5 Q184 299 212 300.5 Q240 302 267 303 Q284 304 300.5 304 Q317 304 334 304 L502 304 Q502 336 498.5 362 Q495 388 466 409 Q455 417 439 422 Q423 427 405 429.5 Q387 432 370 433 Q353 434 340 434 Q320 434 294 432 Q268 430 243 423.5 Q218 417 197.5 404.5 Q177 392 167 370 L71 379 Q79 402 88 419 Q97 436 116 453 Q135 470 162.5 479.5 Q190 489 220 494.5 Q250 500 280 501.5 Q310 503 334 503 Q362 503 398 500.5 Q434 498 469 489.5 Q504 481 533 464.5 Q562 448 577 420 Q588 399 589.5 377.5 Q591 356 591 333 L591 128 Q591 99 601 81 Q611 63 645 63 Q663 63 681 66 L681 0 Z M324 231 Q303 231 270.5 231 Q238 231 207.5 224 Q177 217 155.5 200.5 Q134 184 134 152 Q134 124 147.5 105.5 Q161 87 182 76 Q203 65 228 60 Q253 55 275 55 Q304 55 335.5 60 Q367 65 395.5 76.5 Q424 88 448 106.5 Q472 125 486 153 Q496 173 498.5 191 Q501 209 503 231 L324 231 Z " />
<glyph glyph-name="atilde" unicode="&#xe3;" horiz-adv-x="688" d="M535 611 Q512 594 483 574.5 Q454 555 423 555 Q403 555 384 561 Q365 567 345.5 574.5 Q326 582 306 588 Q286 594 265 594 Q240 594 224 584.5 Q208 575 190 560 L155 604 Q181 625 209.5 645.5 Q238 666 273 666 Q294 666 313.5 659.5 Q333 653 351.5 645.5 Q370 638 388.5 631.5 Q407 625 425 625 Q448 625 465.5 633.5 Q483 642 500 655 L535 611 Z M681 0 Q660 -2 639 -3.5 Q618 -5 597 -5 Q549 -5 528.5 14 Q508 33 503 78 Q497 69 490.5 61 Q484 53 476 45 Q458 28 433 16 Q408 4 380 -3.5 Q352 -11 324 -14.5 Q296 -18 272 -18 Q221 -18 169.5 -6 Q118 6 81 45 Q39 89 39 150 Q39 174 45.5 195.5 Q52 217 67 237 Q85 260 108.5 273 Q132 286 158 292.5 Q184 299 212 300.5 Q240 302 267 303 Q284 304 300.5 304 Q317 304 334 304 L502 304 Q502 336 498.5 362 Q495 388 466 409 Q455 417 439 422 Q423 427 405 429.5 Q387 432 370 433 Q353 434 340 434 Q320 434 294 432 Q268 430 243 423.5 Q218 417 197.5 404.5 Q177 392 167 370 L71 379 Q79 402 88 419 Q97 436 116 453 Q135 470 162.5 479.5 Q190 489 220 494.5 Q250 500 280 501.5 Q310 503 334 503 Q362 503 398 500.5 Q434 498 469 489.5 Q504 481 533 464.5 Q562 448 577 420 Q588 399 589.5 377.5 Q591 356 591 333 L591 128 Q591 99 601 81 Q611 63 645 63 Q663 63 681 66 L681 0 Z M324 231 Q303 231 270.5 231 Q238 231 207.5 224 Q177 217 155.5 200.5 Q134 184 134 152 Q134 124 147.5 105.5 Q161 87 182 76 Q203 65 228 60 Q253 55 275 55 Q304 55 335.5 60 Q367 65 395.5 76.5 Q424 88 448 106.5 Q472 125 486 153 Q496 173 498.5 191 Q501 209 503 231 L324 231 Z " />
<glyph glyph-name="adieresis" unicode="&#xe4;" horiz-adv-x="688" d="M431 568 L431 671 L528 671 L528 568 L431 568 Z M168 567 L168 671 L265 671 L265 567 L168 567 Z M681 0 Q660 -2 639 -3.5 Q618 -5 597 -5 Q549 -5 528.5 14 Q508 33 503 78 Q497 69 490.5 61 Q484 53 476 45 Q458 28 433 16 Q408 4 380 -3.5 Q352 -11 324 -14.5 Q296 -18 272 -18 Q221 -18 169.5 -6 Q118 6 81 45 Q39 89 39 150 Q39 174 45.5 195.5 Q52 217 67 237 Q85 260 108.5 273 Q132 286 158 292.5 Q184 299 212 300.5 Q240 302 267 303 Q284 304 300.5 304 Q317 304 334 304 L502 304 Q502 336 498.5 362 Q495 388 466 409 Q455 417 439 422 Q423 427 405 429.5 Q387 432 370 433 Q353 434 340 434 Q320 434 294 432 Q268 430 243 423.5 Q218 417 197.5 404.5 Q177 392 167 370 L71 379 Q79 402 88 419 Q97 436 116 453 Q135 470 162.5 479.5 Q190 489 220 494.5 Q250 500 280 501.5 Q310 503 334 503 Q362 503 398 500.5 Q434 498 469 489.5 Q504 481 533 464.5 Q562 448 577 420 Q588 399 589.5 377.5 Q591 356 591 333 L591 128 Q591 99 601 81 Q611 63 645 63 Q663 63 681 66 L681 0 Z M324 231 Q303 231 270.5 231 Q238 231 207.5 224 Q177 217 155.5 200.5 Q134 184 134 152 Q134 124 147.5 105.5 Q161 87 182 76 Q203 65 228 60 Q253 55 275 55 Q304 55 335.5 60 Q367 65 395.5 76.5 Q424 88 448 106.5 Q472 125 486 153 Q496 173 498.5 191 Q501 209 503 231 L324 231 Z " />
<glyph glyph-name="aring" unicode="&#xe5;" horiz-adv-x="688" d="M469 643 Q469 619 459 601.5 Q449 584 433 572 Q417 560 396 554 Q375 548 354 548 Q332 548 310.5 554 Q289 560 272.5 572 Q256 584 246 602 Q236 620 236 645 Q236 669 246.5 686.5 Q257 704 274 715.5 Q291 727 312 732.5 Q333 738 354 738 Q376 738 397 732.5 Q418 727 434 715 Q450 703 459.5 685 Q469 667 469 643 Z M681 0 Q660 -2 639 -3.5 Q618 -5 597 -5 Q549 -5 528.5 14 Q508 33 503 78 Q497 69 490.5 61 Q484 53 476 45 Q458 28 433 16 Q408 4 380 -3.5 Q352 -11 324 -14.5 Q296 -18 272 -18 Q221 -18 169.5 -6 Q118 6 81 45 Q39 89 39 150 Q39 174 45.5 195.5 Q52 217 67 237 Q85 260 108.5 273 Q132 286 158 292.5 Q184 299 212 300.5 Q240 302 267 303 Q284 304 300.5 304 Q317 304 334 304 L502 304 Q502 336 498.5 362 Q495 388 466 409 Q455 417 439 422 Q423 427 405 429.5 Q387 432 370 433 Q353 434 340 434 Q320 434 294 432 Q268 430 243 423.5 Q218 417 197.5 404.5 Q177 392 167 370 L71 379 Q79 402 88 419 Q97 436 116 453 Q135 470 162.5 479.5 Q190 489 220 494.5 Q250 500 280 501.5 Q310 503 334 503 Q362 503 398 500.5 Q434 498 469 489.5 Q504 481 533 464.5 Q562 448 577 420 Q588 399 589.5 377.5 Q591 356 591 333 L591 128 Q591 99 601 81 Q611 63 645 63 Q663 63 681 66 L681 0 Z M408 645 Q408 668 389.5 679.5 Q371 691 351 691 Q329 691 312.5 678.5 Q296 666 296 643 Q296 620 314.5 608 Q333 596 353 596 Q376 596 392 609 Q408 622 408 645 Z M324 231 Q303 231 270.5 231 Q238 231 207.5 224 Q177 217 155.5 200.5 Q134 184 134 152 Q134 124 147.5 105.5 Q161 87 182 76 Q203 65 228 60 Q253 55 275 55 Q304 55 335.5 60 Q367 65 395.5 76.5 Q424 88 448 106.5 Q472 125 486 153 Q496 173 498.5 191 Q501 209 503 231 L324 231 Z " />
<glyph glyph-name="ae" unicode="&#xe6;" horiz-adv-x="1146" d="M604 234 Q606 214 609.5 198 Q613 182 623 164 Q637 139 658 120 Q679 101 704.5 88.5 Q730 76 758 69.5 Q786 63 814 63 Q858 63 901 79 Q944 95 973 129 Q987 146 997 165 L1087 142 Q1079 126 1070.5 112 Q1062 98 1051 84 Q1008 33 943.5 9.5 Q879 -14 814 -14 Q739 -14 675 10.5 Q611 35 560 92 Q549 80 537 68.5 Q525 57 511 47 Q463 12 401.5 -2.5 Q340 -17 282 -17 Q256 -17 228 -14 Q200 -11 173 -3.5 Q146 4 121.5 17.5 Q97 31 79 52 Q40 99 40 155 Q40 177 46 199 Q52 221 65 238 Q83 263 107 277 Q131 291 158 297.5 Q185 304 214.5 305 Q244 306 272 306 L511 306 Q511 347 494.5 371.5 Q478 396 451 409 Q424 422 391 425.5 Q358 429 325 429 Q303 429 279 427 Q255 425 232.5 418 Q210 411 191.5 397.5 Q173 384 162 362 L67 373 Q77 400 90 419 Q110 446 138.5 462 Q167 478 199 486.5 Q231 495 265 497.5 Q299 500 329 500 Q362 500 395.5 497.5 Q429 495 461.5 486.5 Q494 478 522.5 462.5 Q551 447 573 420 L600 444 Q640 476 692 489 Q744 502 795 502 Q859 502 913 485 Q967 468 1007 434 Q1047 400 1071.5 350 Q1096 300 1100 234 L604 234 Z M988 305 Q970 370 918.5 399.5 Q867 429 803 429 Q755 429 708.5 412.5 Q662 396 633 356 Q625 344 618.5 331.5 Q612 319 607 305 L988 305 Z M319 234 Q300 234 275.5 234.5 Q251 235 226.5 232 Q202 229 181 220 Q160 211 148 193 Q136 174 136 153 Q136 121 151.5 102 Q167 83 191 73.5 Q215 64 243 61 Q271 58 295 58 Q322 58 350.5 62 Q379 66 406 76 Q433 86 455.5 103 Q478 120 492 145 Q503 165 505.5 188.5 Q508 212 510 234 L319 234 Z " />
<glyph glyph-name="ccedilla" unicode="&#xe7;" horiz-adv-x="688" d="M662 130 Q654 117 647 105.5 Q640 94 630 83 Q595 43 547 20.5 Q499 -2 448 -10 Q433 -12 417.5 -13 Q402 -14 387 -16 L371 -54 Q396 -56 418.5 -62 Q441 -68 457 -89 Q470 -107 470 -126 Q470 -152 458.5 -170 Q447 -188 428.5 -199 Q410 -210 387.5 -214.5 Q365 -219 343 -219 Q320 -219 297 -216.5 Q274 -214 251 -209 L270 -162 Q284 -165 298.5 -167.5 Q313 -170 328 -170 Q337 -170 347 -168.5 Q357 -167 366 -163 Q375 -159 380.5 -151.5 Q386 -144 386 -133 Q386 -120 375.5 -113 Q365 -106 350.5 -103 Q336 -100 321 -100 Q306 -100 297 -101 L330 -16 Q296 -16 261 -8.5 Q226 -1 193.5 13.5 Q161 28 133 50 Q105 72 85 100 Q62 132 52.5 169.5 Q43 207 43 245 Q43 313 71.5 361.5 Q100 410 146 441.5 Q192 473 250 487.5 Q308 502 368 502 Q459 502 534.5 469 Q610 436 657 354 L566 328 Q552 354 530.5 372.5 Q509 391 483 403 Q457 415 428.5 421 Q400 427 372 427 Q329 427 288 415.5 Q247 404 215 381 Q183 358 163.5 322.5 Q144 287 144 239 Q144 193 163.5 159 Q183 125 215 103 Q247 81 287 70 Q327 59 368 59 Q409 59 453.5 70 Q498 81 530 107 Q543 118 552.5 129 Q562 140 571 154 L662 130 Z " />
<glyph glyph-name="egrave" unicode="&#xe8;" horiz-adv-x="688" d="M346 551 L218 688 L344 688 L410 551 L346 551 Z M142 233 Q146 191 164.5 159 Q183 127 212.5 105 Q242 83 278.5 72 Q315 61 355 61 Q418 61 465.5 85.5 Q513 110 542 167 L633 142 Q625 126 616.5 112 Q608 98 597 84 Q574 57 544.5 38 Q515 19 482 7.5 Q449 -4 413.5 -9.5 Q378 -15 344 -15 Q284 -15 229.5 1.5 Q175 18 133.5 51 Q92 84 68 133 Q44 182 44 247 Q44 311 68.5 359 Q93 407 134 439.5 Q175 472 229 488 Q283 504 341 504 Q425 504 496.5 469.5 Q568 435 610 360 Q620 343 628 322.5 Q636 302 639 282 Q643 261 643 233 L142 233 Z M536 304 Q529 321 522 336 Q515 351 504 365 Q476 400 435 416.5 Q394 433 349 433 Q277 433 225.5 402 Q174 371 145 304 L536 304 Z " />
<glyph glyph-name="eacute" unicode="&#xe9;" horiz-adv-x="688" d="M365 551 L299 551 L368 688 L494 688 L365 551 Z M142 233 Q146 191 164.5 159 Q183 127 212.5 105 Q242 83 278.5 72 Q315 61 355 61 Q418 61 465.5 85.5 Q513 110 542 167 L633 142 Q625 126 616.5 112 Q608 98 597 84 Q574 57 544.5 38 Q515 19 482 7.5 Q449 -4 413.5 -9.5 Q378 -15 344 -15 Q284 -15 229.5 1.5 Q175 18 133.5 51 Q92 84 68 133 Q44 182 44 247 Q44 311 68.5 359 Q93 407 134 439.5 Q175 472 229 488 Q283 504 341 504 Q425 504 496.5 469.5 Q568 435 610 360 Q620 343 628 322.5 Q636 302 639 282 Q643 261 643 233 L142 233 Z M536 304 Q529 321 522 336 Q515 351 504 365 Q476 400 435 416.5 Q394 433 349 433 Q277 433 225.5 402 Q174 371 145 304 L536 304 Z " />
<glyph glyph-name="ecircumflex" unicode="&#xea;" horiz-adv-x="688" d="M424 552 L343 628 L266 551 L184 551 L290 689 L397 689 L506 552 L424 552 Z M142 233 Q146 191 164.5 159 Q183 127 212.5 105 Q242 83 278.5 72 Q315 61 355 61 Q418 61 465.5 85.5 Q513 110 542 167 L633 142 Q625 126 616.5 112 Q608 98 597 84 Q574 57 544.5 38 Q515 19 482 7.5 Q449 -4 413.5 -9.5 Q378 -15 344 -15 Q284 -15 229.5 1.5 Q175 18 133.5 51 Q92 84 68 133 Q44 182 44 247 Q44 311 68.5 359 Q93 407 134 439.5 Q175 472 229 488 Q283 504 341 504 Q425 504 496.5 469.5 Q568 435 610 360 Q620 343 628 322.5 Q636 302 639 282 Q643 261 643 233 L142 233 Z M536 304 Q529 321 522 336 Q515 351 504 365 Q476 400 435 416.5 Q394 433 349 433 Q277 433 225.5 402 Q174 371 145 304 L536 304 Z " />
<glyph glyph-name="edieresis" unicode="&#xeb;" horiz-adv-x="688" d="M422 569 L422 672 L519 672 L519 569 L422 569 Z M159 569 L159 672 L256 672 L256 569 L159 569 Z M142 233 Q146 191 164.5 159 Q183 127 212.5 105 Q242 83 278.5 72 Q315 61 355 61 Q418 61 465.5 85.5 Q513 110 542 167 L633 142 Q625 126 616.5 112 Q608 98 597 84 Q574 57 544.5 38 Q515 19 482 7.5 Q449 -4 413.5 -9.5 Q378 -15 344 -15 Q284 -15 229.5 1.5 Q175 18 133.5 51 Q92 84 68 133 Q44 182 44 247 Q44 311 68.5 359 Q93 407 134 439.5 Q175 472 229 488 Q283 504 341 504 Q425 504 496.5 469.5 Q568 435 610 360 Q620 343 628 322.5 Q636 302 639 282 Q643 261 643 233 L142 233 Z M536 304 Q529 321 522 336 Q515 351 504 365 Q476 400 435 416.5 Q394 433 349 433 Q277 433 225.5 402 Q174 371 145 304 L536 304 Z " />
<glyph glyph-name="igrave" unicode="&#xec;" horiz-adv-x="250" d="M127 551 L0 688 L125 688 L192 551 L127 551 Z M77 0 L77 489 L172 489 L172 0 L77 0 Z " />
<glyph glyph-name="iacute" unicode="&#xed;" horiz-adv-x="250" d="M146 551 L80 551 L149 688 L275 688 L146 551 Z M77 0 L77 489 L172 489 L172 0 L77 0 Z " />
<glyph glyph-name="icircumflex" unicode="&#xee;" horiz-adv-x="250" d="M206 552 L124 628 L48 551 L-34 551 L71 689 L179 689 L287 552 L206 552 Z M77 0 L77 489 L172 489 L172 0 L77 0 Z " />
<glyph glyph-name="idieresis" unicode="&#xef;" horiz-adv-x="250" d="M204 569 L204 672 L301 672 L301 569 L204 569 Z M-60 569 L-60 672 L38 672 L38 569 L-60 569 Z M77 0 L77 489 L172 489 L172 0 L77 0 Z " />
<glyph glyph-name="eth" unicode="&#xf0;" horiz-adv-x="729" d="M683 269 Q683 217 668 170 Q653 123 618 84 Q566 27 503 6 Q440 -15 365 -15 Q314 -15 259 -4 Q204 7 160 34 Q105 69 75 119.5 Q45 170 45 236 Q45 301 72.5 350.5 Q100 400 144.5 433 Q189 466 246 483 Q303 500 362 500 Q410 500 460.5 486.5 Q511 473 549 441 Q529 485 497.5 521 Q466 557 428 587 L231 538 L208 586 L373 628 Q348 645 322.5 659.5 Q297 674 272 691 L375 715 Q392 706 408 696 Q424 686 440 675 Q448 670 455.5 663.5 Q463 657 471 652 L617 689 L644 641 L522 611 Q536 597 550 583 Q564 569 577 553 Q627 493 655 420.5 Q683 348 683 269 Z M587 243 Q587 290 567.5 324 Q548 358 516 379.5 Q484 401 443.5 411.5 Q403 422 362 422 Q320 422 280.5 411 Q241 400 210 378 Q179 356 160 322 Q141 288 141 241 Q141 195 161.5 161.5 Q182 128 214.5 106 Q247 84 288 74 Q329 64 369 64 Q409 64 448 75.5 Q487 87 518 109.5 Q549 132 568 165.5 Q587 199 587 243 Z " />
<glyph glyph-name="ntilde" unicode="&#xf1;" horiz-adv-x="729" d="M555 611 Q532 594 503.5 574.5 Q475 555 444 555 Q425 555 405.5 561 Q386 567 366.5 574.5 Q347 582 327 588 Q307 594 286 594 Q260 594 244.5 584.5 Q229 575 211 560 L175 604 Q201 625 230 645.5 Q259 666 294 666 Q315 666 334.5 659.5 Q354 653 373 645.5 Q392 638 410 631.5 Q428 625 446 625 Q469 625 486 634 Q503 643 521 655 L555 611 Z M555 0 L555 258 Q555 281 551.5 305 Q548 329 536 350 Q524 370 505.5 384 Q487 398 465 406 Q443 414 419.5 417.5 Q396 421 374 421 Q345 421 315 415 Q285 409 259 396.5 Q233 384 213 363 Q193 342 182 312 Q175 293 174 272.5 Q173 252 173 232 L173 0 L78 0 L78 487 L173 487 L173 428 Q181 436 189.5 443 Q198 450 207 456 Q225 468 247.5 477 Q270 486 294 491.5 Q318 497 342.5 499.5 Q367 502 388 502 Q422 502 459 496 Q496 490 529.5 476 Q563 462 590 439 Q617 416 632 381 Q643 355 646 327.5 Q649 300 649 272 L649 0 L555 0 Z " />
<glyph glyph-name="ograve" unicode="&#xf2;" horiz-adv-x="729" d="M367 551 L239 688 L365 688 L431 551 L367 551 Z M682 243 Q682 176 654.5 127 Q627 78 582.5 46.5 Q538 15 481 0 Q424 -15 365 -15 Q307 -15 249.5 -1 Q192 13 146.5 43 Q101 73 73 120.5 Q45 168 45 235 Q45 300 71.5 349.5 Q98 399 142 432.5 Q186 466 242.5 483 Q299 500 358 500 Q418 500 476.5 485.5 Q535 471 580.5 440 Q626 409 654 360 Q682 311 682 243 Z M587 243 Q587 290 567.5 324 Q548 358 516 379.5 Q484 401 443.5 411.5 Q403 422 362 422 Q320 422 280.5 411 Q241 400 210 378 Q179 356 160 322 Q141 288 141 241 Q141 195 161.5 161.5 Q182 128 214.5 106 Q247 84 288 74 Q329 64 369 64 Q409 64 448 75.5 Q487 87 518 109.5 Q549 132 568 165.5 Q587 199 587 243 Z " />
<glyph glyph-name="oacute" unicode="&#xf3;" horiz-adv-x="729" d="M386 551 L320 551 L389 688 L515 688 L386 551 Z M682 243 Q682 176 654.5 127 Q627 78 582.5 46.5 Q538 15 481 0 Q424 -15 365 -15 Q307 -15 249.5 -1 Q192 13 146.5 43 Q101 73 73 120.5 Q45 168 45 235 Q45 300 71.5 349.5 Q98 399 142 432.5 Q186 466 242.5 483 Q299 500 358 500 Q418 500 476.5 485.5 Q535 471 580.5 440 Q626 409 654 360 Q682 311 682 243 Z M587 243 Q587 290 567.5 324 Q548 358 516 379.5 Q484 401 443.5 411.5 Q403 422 362 422 Q320 422 280.5 411 Q241 400 210 378 Q179 356 160 322 Q141 288 141 241 Q141 195 161.5 161.5 Q182 128 214.5 106 Q247 84 288 74 Q329 64 369 64 Q409 64 448 75.5 Q487 87 518 109.5 Q549 132 568 165.5 Q587 199 587 243 Z " />
<glyph glyph-name="ocircumflex" unicode="&#xf4;" horiz-adv-x="729" d="M445 552 L364 628 L287 551 L205 551 L310 689 L418 689 L527 552 L445 552 Z M682 243 Q682 176 654.5 127 Q627 78 582.5 46.5 Q538 15 481 0 Q424 -15 365 -15 Q307 -15 249.5 -1 Q192 13 146.5 43 Q101 73 73 120.5 Q45 168 45 235 Q45 300 71.5 349.5 Q98 399 142 432.5 Q186 466 242.5 483 Q299 500 358 500 Q418 500 476.5 485.5 Q535 471 580.5 440 Q626 409 654 360 Q682 311 682 243 Z M587 243 Q587 290 567.5 324 Q548 358 516 379.5 Q484 401 443.5 411.5 Q403 422 362 422 Q320 422 280.5 411 Q241 400 210 378 Q179 356 160 322 Q141 288 141 241 Q141 195 161.5 161.5 Q182 128 214.5 106 Q247 84 288 74 Q329 64 369 64 Q409 64 448 75.5 Q487 87 518 109.5 Q549 132 568 165.5 Q587 199 587 243 Z " />
<glyph glyph-name="otilde" unicode="&#xf5;" horiz-adv-x="729" d="M555 611 Q532 594 503.5 574.5 Q475 555 444 555 Q425 555 405.5 561 Q386 567 366.5 574.5 Q347 582 327 588 Q307 594 286 594 Q260 594 244.5 584.5 Q229 575 211 560 L175 604 Q201 625 230 645.5 Q259 666 294 666 Q315 666 334.5 659.5 Q354 653 373 645.5 Q392 638 410 631.5 Q428 625 446 625 Q469 625 486 634 Q503 643 521 655 L555 611 Z M682 243 Q682 176 654.5 127 Q627 78 582.5 46.5 Q538 15 481 0 Q424 -15 365 -15 Q307 -15 249.5 -1 Q192 13 146.5 43 Q101 73 73 120.5 Q45 168 45 235 Q45 300 71.5 349.5 Q98 399 142 432.5 Q186 466 242.5 483 Q299 500 358 500 Q418 500 476.5 485.5 Q535 471 580.5 440 Q626 409 654 360 Q682 311 682 243 Z M587 243 Q587 290 567.5 324 Q548 358 516 379.5 Q484 401 443.5 411.5 Q403 422 362 422 Q320 422 280.5 411 Q241 400 210 378 Q179 356 160 322 Q141 288 141 241 Q141 195 161.5 161.5 Q182 128 214.5 106 Q247 84 288 74 Q329 64 369 64 Q409 64 448 75.5 Q487 87 518 109.5 Q549 132 568 165.5 Q587 199 587 243 Z " />
<glyph glyph-name="odieresis" unicode="&#xf6;" horiz-adv-x="729" d="M441 567 L441 670 L538 670 L538 567 L441 567 Z M178 566 L178 669 L275 669 L275 566 L178 566 Z M682 243 Q682 176 654.5 127 Q627 78 582.5 46.5 Q538 15 481 0 Q424 -15 365 -15 Q307 -15 249.5 -1 Q192 13 146.5 43 Q101 73 73 120.5 Q45 168 45 235 Q45 300 71.5 349.5 Q98 399 142 432.5 Q186 466 242.5 483 Q299 500 358 500 Q418 500 476.5 485.5 Q535 471 580.5 440 Q626 409 654 360 Q682 311 682 243 Z M587 243 Q587 290 567.5 324 Q548 358 516 379.5 Q484 401 443.5 411.5 Q403 422 362 422 Q320 422 280.5 411 Q241 400 210 378 Q179 356 160 322 Q141 288 141 241 Q141 195 161.5 161.5 Q182 128 214.5 106 Q247 84 288 74 Q329 64 369 64 Q409 64 448 75.5 Q487 87 518 109.5 Q549 132 568 165.5 Q587 199 587 243 Z " />
<glyph glyph-name="divide" unicode="&#xf7;" horiz-adv-x="772" d="M331 404 L331 511 L440 511 L440 404 L331 404 Z M71 253 L71 340 L701 340 L701 253 L71 253 Z M332 78 L332 185 L441 185 L441 78 L332 78 Z " />
<glyph glyph-name="oslash" unicode="&#xf8;" horiz-adv-x="729" d="M682 241 Q682 174 654 125.5 Q626 77 580 46 Q534 15 476.5 0.5 Q419 -14 360 -14 Q299 -14 244.5 0.5 Q190 15 140 50 L69 -2 L28 55 L88 98 Q65 132 54 166 Q43 200 43 241 Q43 270 50 299.5 Q57 329 71 355 Q94 396 126 424 Q158 452 196.5 469 Q235 486 278 494 Q321 502 365 502 Q420 502 471 489.5 Q522 477 569 448 L640 498 L678 444 L621 401 Q650 365 666 327 Q682 289 682 241 Z M592 244 Q592 278 582.5 301.5 Q573 325 555 353 L214 104 Q247 81 286 71 Q325 61 366 61 Q407 61 447.5 72 Q488 83 520 106 Q552 129 572 163.5 Q592 198 592 244 Z M499 396 Q436 427 364 427 Q332 427 300.5 421 Q269 415 241 402.5 Q213 390 190 369.5 Q167 349 152 319 Q133 281 133 242 Q133 218 139.5 194.5 Q146 171 160 151 L499 396 Z " />
<glyph glyph-name="ugrave" unicode="&#xf9;" horiz-adv-x="729" d="M367 551 L239 688 L365 688 L431 551 L367 551 Z M553 0 L553 62 Q503 19 455 1 Q407 -17 340 -17 Q306 -17 269.5 -11.5 Q233 -6 199 7 Q165 20 137.5 42.5 Q110 65 94 98 Q81 125 78 156.5 Q75 188 75 218 L75 488 L169 488 L169 242 Q169 220 170.5 195 Q172 170 180 150 Q190 125 208.5 109 Q227 93 250.5 83.5 Q274 74 299.5 70.5 Q325 67 349 67 Q373 67 401 72 Q429 77 455.5 87.5 Q482 98 504 115 Q526 132 538 155 Q546 172 548.5 188.5 Q551 205 551 223 L551 487 L646 487 L646 0 L553 0 Z " />
<glyph glyph-name="uacute" unicode="&#xfa;" horiz-adv-x="729" d="M386 551 L320 551 L389 688 L515 688 L386 551 Z M553 0 L553 62 Q503 19 455 1 Q407 -17 340 -17 Q306 -17 269.5 -11.5 Q233 -6 199 7 Q165 20 137.5 42.5 Q110 65 94 98 Q81 125 78 156.5 Q75 188 75 218 L75 488 L169 488 L169 242 Q169 220 170.5 195 Q172 170 180 150 Q190 125 208.5 109 Q227 93 250.5 83.5 Q274 74 299.5 70.5 Q325 67 349 67 Q373 67 401 72 Q429 77 455.5 87.5 Q482 98 504 115 Q526 132 538 155 Q546 172 548.5 188.5 Q551 205 551 223 L551 487 L646 487 L646 0 L553 0 Z " />
<glyph glyph-name="ucircumflex" unicode="&#xfb;" horiz-adv-x="729" d="M445 552 L364 628 L287 551 L205 551 L310 689 L418 689 L527 552 L445 552 Z M553 0 L553 62 Q503 19 455 1 Q407 -17 340 -17 Q306 -17 269.5 -11.5 Q233 -6 199 7 Q165 20 137.5 42.5 Q110 65 94 98 Q81 125 78 156.5 Q75 188 75 218 L75 488 L169 488 L169 242 Q169 220 170.5 195 Q172 170 180 150 Q190 125 208.5 109 Q227 93 250.5 83.5 Q274 74 299.5 70.5 Q325 67 349 67 Q373 67 401 72 Q429 77 455.5 87.5 Q482 98 504 115 Q526 132 538 155 Q546 172 548.5 188.5 Q551 205 551 223 L551 487 L646 487 L646 0 L553 0 Z " />
<glyph glyph-name="udieresis" unicode="&#xfc;" horiz-adv-x="729" d="M437 568 L437 671 L535 671 L535 568 L437 568 Z M174 567 L174 670 L271 670 L271 567 L174 567 Z M553 0 L553 62 Q503 19 455 1 Q407 -17 340 -17 Q306 -17 269.5 -11.5 Q233 -6 199 7 Q165 20 137.5 42.5 Q110 65 94 98 Q81 125 78 156.5 Q75 188 75 218 L75 488 L169 488 L169 242 Q169 220 170.5 195 Q172 170 180 150 Q190 125 208.5 109 Q227 93 250.5 83.5 Q274 74 299.5 70.5 Q325 67 349 67 Q373 67 401 72 Q429 77 455.5 87.5 Q482 98 504 115 Q526 132 538 155 Q546 172 548.5 188.5 Q551 205 551 223 L551 487 L646 487 L646 0 L553 0 Z " />
<glyph glyph-name="yacute" unicode="&#xfd;" horiz-adv-x="604" d="M323 551 L257 551 L327 688 L452 688 L323 551 Z M327 -47 Q311 -78 294.5 -101 Q278 -124 257 -139.5 Q236 -155 209 -162.5 Q182 -170 145 -170 Q116 -170 87.5 -166.5 Q59 -163 30 -158 L30 -72 Q55 -77 79.5 -82 Q104 -87 130 -87 Q154 -87 171.5 -81.5 Q189 -76 202.5 -65.5 Q216 -55 226.5 -39 Q237 -23 248 -3 L0 489 L108 489 L299 95 L497 489 L603 489 L327 -47 Z " />
<glyph glyph-name="thorn" unicode="&#xfe;" horiz-adv-x="729" d="M681 249 Q681 188 659 140 Q637 92 599.5 59 Q562 26 511 8.5 Q460 -9 401 -9 Q373 -9 341 -5.5 Q309 -2 278 7 Q247 16 219.5 31 Q192 46 172 68 L172 -195 L77 -195 L77 706 L172 706 L172 436 Q216 472 272 486 Q328 500 384 500 Q440 500 493.5 484 Q547 468 588.5 436.5 Q630 405 655.5 358 Q681 311 681 249 Z M578 250 Q578 282 567 310.5 Q556 339 536.5 361.5 Q517 384 490.5 399 Q464 414 433 420 Q418 423 403.5 424 Q389 425 374 425 Q331 425 293.5 414 Q256 403 228 380.5 Q200 358 183.5 323.5 Q167 289 167 242 Q167 197 185 164 Q203 131 232.5 109.5 Q262 88 300.5 77.5 Q339 67 379 67 Q421 67 457 79.5 Q493 92 520 115 Q547 138 562.5 172.5 Q578 207 578 250 Z " />
<glyph glyph-name="ydieresis" unicode="&#xff;" horiz-adv-x="604" d="M381 569 L381 672 L478 672 L478 569 L381 569 Z M118 569 L118 672 L215 672 L215 569 L118 569 Z M327 -47 Q311 -78 294.5 -101 Q278 -124 257 -139.5 Q236 -155 209 -162.5 Q182 -170 145 -170 Q116 -170 87.5 -166.5 Q59 -163 30 -158 L30 -72 Q55 -77 79.5 -82 Q104 -87 130 -87 Q154 -87 171.5 -81.5 Q189 -76 202.5 -65.5 Q216 -55 226.5 -39 Q237 -23 248 -3 L0 489 L108 489 L299 95 L497 489 L603 489 L327 -47 Z " />
<glyph glyph-name="dotlessi" unicode="&#x131;" horiz-adv-x="250" d="M77 0 L77 489 L172 489 L172 0 L77 0 Z " />
<glyph glyph-name="Lslash" unicode="&#x141;" horiz-adv-x="646" d="M85 0 L85 233 L0 187 L0 257 L85 303 L85 706 L185 706 L185 357 L499 526 L499 457 L185 287 L185 86 L654 86 L654 0 L85 0 Z " />
<glyph glyph-name="lslash" unicode="&#x142;" horiz-adv-x="250" d="M171 386 L171 0 L77 0 L77 319 L0 265 L0 335 L77 390 L77 706 L171 706 L171 456 L250 512 L250 441 L171 386 Z " />
<glyph glyph-name="OE" unicode="&#x152;" horiz-adv-x="1146" d="M587 0 Q575 0 562 -1.5 Q549 -3 537 -5 Q511 -7 486.5 -8.5 Q462 -10 436 -10 Q364 -10 299 6.5 Q234 23 177 68 Q108 122 78 195 Q48 268 48 354 Q48 442 79 509.5 Q110 577 164 623 Q218 669 290.5 692.5 Q363 716 447 716 Q467 716 486.5 715 Q506 714 526 712 Q539 710 552 708 Q565 706 577 706 L1109 706 L1109 618 L681 618 L681 404 L1080 404 L1080 322 L681 322 L681 87 L1113 87 L1113 0 L587 0 Z M585 620 Q552 628 519 632.5 Q486 637 451 637 Q386 637 330.5 618 Q275 599 235 563 Q195 527 172.5 474 Q150 421 150 353 Q150 286 172 233 Q194 180 233 144 Q272 108 326.5 89 Q381 70 447 70 Q482 70 516 75 Q550 80 585 87 L585 620 Z " />
<glyph glyph-name="oe" unicode="&#x153;" horiz-adv-x="1146" d="M619 233 Q622 192 639 160.5 Q656 129 683 107.5 Q710 86 745 75 Q780 64 819 64 Q875 64 923 89 Q971 114 997 165 L1087 141 Q1068 101 1039.5 71.5 Q1011 42 975 23.5 Q939 5 898.5 -4 Q858 -13 815 -13 Q740 -13 684.5 9.5 Q629 32 575 83 Q523 30 464.5 8 Q406 -14 332 -14 Q273 -14 220.5 3 Q168 20 128 53 Q88 86 65 134 Q42 182 42 245 Q42 306 66.5 353.5 Q91 401 132 434 Q173 467 225.5 484.5 Q278 502 335 502 Q401 502 463.5 480 Q526 458 571 407 Q619 458 677 479.5 Q735 501 804 501 Q852 501 897.5 488.5 Q943 476 981 451.5 Q1019 427 1047 390.5 Q1075 354 1088 306 Q1093 288 1095.5 270 Q1098 252 1099 233 L619 233 Z M988 304 Q968 367 918.5 398 Q869 429 806 429 Q742 429 692.5 399 Q643 369 625 304 L988 304 Z M533 241 Q533 283 518 316.5 Q503 350 476.5 373.5 Q450 397 415 409.5 Q380 422 340 422 Q300 422 263 410 Q226 398 198 374.5 Q170 351 153.5 317.5 Q137 284 137 241 Q137 198 153.5 165 Q170 132 197.5 110 Q225 88 261.5 77 Q298 66 338 66 Q377 66 412.5 77.5 Q448 89 475 111.5 Q502 134 517.5 166.5 Q533 199 533 241 Z " />
<glyph glyph-name="Scaron" unicode="&#x160;" horiz-adv-x="812" d="M459 752 L353 752 L244 878 L326 878 L406 807 L488 876 L568 876 L459 752 Z M763 214 Q763 144 730 99 Q697 54 646.5 28 Q596 2 535 -7.5 Q474 -17 417 -17 Q365 -17 307.5 -10 Q250 -3 196 15 Q142 33 95.5 64 Q49 95 19 143 L111 181 Q139 148 176 126.5 Q213 105 254.5 92.5 Q296 80 339.5 74.5 Q383 69 424 69 Q458 69 499.5 74.5 Q541 80 577.5 95.5 Q614 111 639 139 Q664 167 664 211 Q664 241 649.5 261 Q635 281 610 296 Q591 307 549.5 314.5 Q508 322 460.5 327 Q413 332 368.5 335 Q324 338 300 341 Q277 343 255 346 Q233 349 211 354 Q147 370 109 411 Q71 452 71 520 Q71 584 104 623.5 Q137 663 186 685.5 Q235 708 293 716 Q351 724 400 724 Q441 724 486.5 719 Q532 714 576 701.5 Q620 689 659.5 668 Q699 647 728 615 Q736 607 742 598.5 Q748 590 755 582 L663 545 Q608 600 544 620.5 Q480 641 404 641 Q376 641 336 637.5 Q296 634 259.5 622 Q223 610 197 586.5 Q171 563 171 523 Q171 496 182.5 479 Q194 462 212.5 452 Q231 442 253.5 437.5 Q276 433 297 430 Q334 425 370.5 422 Q407 419 445 416 Q481 413 521 409.5 Q561 406 599.5 396.5 Q638 387 672 369 Q706 351 730 319 Q747 296 755 269.5 Q763 243 763 214 Z " />
<glyph glyph-name="scaron" unicode="&#x161;" horiz-adv-x="667" d="M386 554 L278 554 L171 691 L251 691 L332 615 L410 692 L491 692 L386 554 Z M621 148 Q621 96 594 63.5 Q567 31 527 13 Q487 -5 440 -11.5 Q393 -18 352 -18 Q310 -18 264.5 -13 Q219 -8 175 3.5 Q131 15 91 34.5 Q51 54 18 84 L100 139 Q152 96 216 79 Q280 62 346 62 Q364 62 393.5 64 Q423 66 451 74 Q479 82 499.5 97.5 Q520 113 520 140 Q520 174 486 187 Q452 200 401.5 205 Q351 210 292 212.5 Q233 215 182.5 227.5 Q132 240 98 268 Q64 296 64 352 Q64 403 91.5 433.5 Q119 464 160 480.5 Q201 497 248 502 Q295 507 334 507 Q396 507 453.5 495.5 Q511 484 565 454 Q580 446 593.5 437 Q607 428 619 416 L536 370 Q490 401 437.5 414 Q385 427 330 427 Q314 427 286.5 425.5 Q259 424 233 417 Q207 410 188 397 Q169 384 169 360 Q169 346 177 336.5 Q185 327 196 320 Q209 312 248 306.5 Q287 301 332.5 296.5 Q378 292 421 289 Q464 286 485 283 Q514 279 538.5 269 Q563 259 581.5 242.5 Q600 226 610.5 203 Q621 180 621 148 Z " />
<glyph glyph-name="Ydieresis" unicode="&#x178;" horiz-adv-x="812" d="M482 773 L482 876 L579 876 L579 773 L482 773 Z M218 774 L218 877 L316 877 L316 774 L218 774 Z M453 273 L453 0 L354 0 L354 275 L2 706 L131 706 L375 398 Q392 376 404 350 Q416 374 431 393 L683 706 L811 706 L453 273 Z " />
<glyph glyph-name="Zcaron" unicode="&#x17d;" horiz-adv-x="771" d="M438 752 L332 752 L223 878 L305 878 L385 807 L467 876 L547 876 L438 752 Z M30 0 L30 84 L583 620 L72 620 L72 706 L725 706 L725 623 L171 88 L735 88 L735 0 L30 0 Z " />
<glyph glyph-name="zcaron" unicode="&#x17e;" horiz-adv-x="604" d="M354 554 L246 554 L139 691 L220 691 L301 615 L379 692 L460 692 L354 554 Z M24 0 L24 79 L427 409 L55 408 L55 488 L561 488 L561 414 L159 83 L580 84 L580 0 L24 0 Z " />
<glyph glyph-name="florin" unicode="&#x192;" horiz-adv-x="313" d="M353 611 Q339 614 324.5 617 Q310 620 296 620 Q262 620 244 608.5 Q226 597 218 577.5 Q210 558 208 533 Q206 508 203 481 L337 481 L329 416 L195 416 L148 0 Q145 -26 142.5 -51.5 Q140 -77 133 -100 Q126 -123 113.5 -143.5 Q101 -164 77 -180 Q54 -197 27 -203 Q0 -209 -28 -209 Q-48 -209 -66.5 -207 Q-85 -205 -104 -202 L-95 -117 Q-81 -121 -66.5 -123.5 Q-52 -126 -37 -126 Q-4 -126 13 -115.5 Q30 -105 38.5 -88 Q47 -71 49 -48 Q51 -25 54 0 L102 416 L22 416 L29 481 L110 481 Q112 495 113.5 513.5 Q115 532 118 551 Q121 570 125 587.5 Q129 605 135 618 Q155 662 195 682.5 Q235 703 282 703 Q302 703 322.5 701 Q343 699 363 696 L353 611 Z " />
<glyph glyph-name="circumflex" unicode="&#x2c6;" horiz-adv-x="375" d="M267 552 L185 628 L109 551 L27 551 L132 689 L240 689 L348 552 L267 552 Z " />
<glyph glyph-name="caron" unicode="&#x2c7;" horiz-adv-x="375" d="M242 554 L134 554 L27 691 L108 691 L189 615 L267 692 L348 692 L242 554 Z " />
<glyph glyph-name="breve" unicode="&#x2d8;" horiz-adv-x="375" d="M322 687 Q309 632 279.5 598.5 Q250 565 188 565 Q130 565 97 597.5 Q64 630 53 687 L109 687 Q120 660 138 644 Q156 628 188 628 Q217 628 235.5 644.5 Q254 661 264 687 L322 687 Z " />
<glyph glyph-name="dotaccent" unicode="&#x2d9;" horiz-adv-x="375" d="M137 569 L137 675 L238 675 L238 569 L137 569 Z " />
<glyph glyph-name="ring" unicode="&#x2da;" horiz-adv-x="375" d="M304 645 Q304 621 294 603.5 Q284 586 268 574 Q252 562 231.5 556 Q211 550 190 550 Q168 550 146.5 556 Q125 562 108 574 Q91 586 81 604 Q71 622 71 647 Q71 671 81.5 689 Q92 707 109.5 718 Q127 729 148 734.5 Q169 740 190 740 Q212 740 232.5 734 Q253 728 269 716 Q285 704 294.5 686.5 Q304 669 304 645 Z M244 648 Q244 670 227 682 Q210 694 190 694 Q168 694 149.5 682 Q131 670 131 646 Q131 623 149 611 Q167 599 187 599 Q209 599 226 612 Q243 625 243 648 L244 648 Z " />
<glyph glyph-name="ogonek" unicode="&#x2db;" horiz-adv-x="375" d="M280 -164 Q261 -169 243 -171.5 Q225 -174 205 -174 Q187 -174 168 -170 Q149 -166 132.5 -157 Q116 -148 105.5 -133.5 Q95 -119 95 -97 Q95 -62 117 -37.5 Q139 -13 166 4 L222 4 Q212 -2 200.5 -10 Q189 -18 179 -27 Q169 -36 162.5 -47.5 Q156 -59 156 -72 Q156 -86 163 -93.5 Q170 -101 180.5 -105.5 Q191 -110 203 -111 Q215 -112 225 -112 Q251 -112 280 -104 L280 -164 Z " />
<glyph glyph-name="tilde" unicode="&#x2dc;" horiz-adv-x="375" d="M378 611 Q354 593 325.5 574 Q297 555 266 555 Q247 555 227.5 561 Q208 567 189 574.5 Q170 582 150 588 Q130 594 109 594 Q83 594 67 584.5 Q51 575 33 560 L-3 604 Q23 625 51.5 645.5 Q80 666 115 666 Q136 666 156 659.5 Q176 653 195 645.5 Q214 638 231.5 631.5 Q249 625 267 625 Q290 625 307 633.5 Q324 642 342 655 L378 611 Z " />
<glyph glyph-name="hungarumlaut" unicode="&#x2dd;" horiz-adv-x="375" d="M234 551 L167 551 L237 688 L363 688 L234 551 Z M79 551 L12 551 L82 688 L207 688 L79 551 Z " />
<glyph glyph-name="Mu" unicode="&#x39c;" horiz-adv-x="729" d="M553 0 L553 62 Q506 21 459 2 Q412 -17 349 -17 Q318 -17 279 -10 Q240 -3 212 11 Q201 16 190.5 22.5 Q180 29 169 36 L169 -195 L75 -195 L75 488 L169 488 L169 242 Q169 221 170.5 195.5 Q172 170 180 150 Q190 125 208.5 109 Q227 93 250.5 83.5 Q274 74 299.5 70.5 Q325 67 349 67 Q374 67 402 72 Q430 77 456.5 88 Q483 99 505 116 Q527 133 539 157 Q547 174 549 190 Q551 206 551 224 L551 487 L646 487 L646 0 L553 0 Z " />
<glyph glyph-name="pi" unicode="&#x3c0;" horiz-adv-x="649" d="M578 0 Q534 0 513.5 5 Q493 10 476 26 Q458 43 451.5 64 Q445 85 445 127 L445 409 L189 409 L190 0 L93 0 L94 409 L35 409 L35 486 L598 486 L598 409 L539 409 L539 139 Q539 113 540 105 Q541 97 546 89 Q551 80 561 76 Q568 73 573.5 72.5 Q579 72 597 71 L615 70 L615 0 L578 0 Z " />
<glyph glyph-name="endash" unicode="&#x2013;" horiz-adv-x="626" d="M35 259 L35 341 L591 341 L591 259 L35 259 Z " />
<glyph glyph-name="emdash" unicode="&#x2014;" horiz-adv-x="932" d="M35 259 L35 341 L897 341 L897 259 L35 259 Z " />
<glyph glyph-name="quoteleft" unicode="&#x2018;" horiz-adv-x="250" d="M62 469 L62 597 Q62 637 74.5 664.5 Q87 692 129 705 Q140 708 150.5 708.5 Q161 709 172 712 L172 657 Q146 654 136.5 644 Q127 634 127 608 L127 577 L172 577 L172 469 L62 469 Z " />
<glyph glyph-name="quoteright" unicode="&#x2019;" horiz-adv-x="250" d="M185 577 Q185 537 172.5 509.5 Q160 482 118 469 Q107 466 96.5 465.5 Q86 465 75 462 L75 517 Q101 520 110.5 530 Q120 540 120 566 L120 597 L75 597 L75 706 L185 706 L185 577 Z " />
<glyph glyph-name="quotesinglbase" unicode="&#x201a;" horiz-adv-x="250" d="M180 -19 Q180 -76 155.5 -104.5 Q131 -133 71 -134 L71 -79 Q97 -76 106.5 -66 Q116 -56 116 -30 L116 0 L71 0 L71 108 L180 108 L180 -19 Z " />
<glyph glyph-name="quotedblleft" unicode="&#x201c;" horiz-adv-x="437" d="M255 469 L255 597 Q255 637 267.5 664.5 Q280 692 322 705 Q333 708 343.5 708.5 Q354 709 365 712 L365 657 Q339 654 329.5 644 Q320 634 320 608 L320 577 L365 577 L365 469 L255 469 Z M69 469 L69 597 Q69 637 81.5 664.5 Q94 692 136 705 Q147 708 157.5 708.5 Q168 709 179 712 L179 657 Q153 654 143.5 644 Q134 634 134 608 L134 577 L179 577 L179 469 L69 469 Z " />
<glyph glyph-name="quotedblright" unicode="&#x201d;" horiz-adv-x="437" d="M364 578 Q364 521 339 492.5 Q314 464 254 463 L254 518 Q280 521 289.5 531 Q299 541 299 567 L299 597 L254 597 L254 706 L364 706 L364 578 Z M177 578 Q177 521 152.5 492.5 Q128 464 68 463 L68 518 Q94 521 103.5 531 Q113 541 113 567 L113 597 L68 597 L68 706 L177 706 L177 578 Z " />
<glyph glyph-name="quotedblbase" unicode="&#x201e;" horiz-adv-x="437" d="M365 -19 Q365 -59 352.5 -87 Q340 -115 298 -128 Q287 -131 276.5 -132 Q266 -133 255 -135 L255 -80 Q281 -77 291 -67 Q301 -57 301 -31 L301 0 L255 0 L255 108 L365 108 L365 -19 Z M180 -19 Q180 -76 155.5 -104.5 Q131 -133 71 -134 L71 -79 Q97 -76 106.5 -66 Q116 -56 116 -30 L116 0 L71 0 L71 108 L180 108 L180 -19 Z " />
<glyph glyph-name="dagger" unicode="&#x2020;" horiz-adv-x="604" d="M349 401 L349 -124 L254 -124 L254 401 L37 401 L37 480 L254 480 L254 706 L349 706 L349 481 L564 481 L564 401 L349 401 Z " />
<glyph glyph-name="daggerdbl" unicode="&#x2021;" horiz-adv-x="604" d="M349 82 L349 -125 L255 -125 L255 82 L38 82 L38 154 L255 154 L255 444 L38 444 L38 517 L255 517 L255 706 L349 706 L349 517 L564 517 L564 444 L349 444 L349 154 L564 154 L564 82 L349 82 Z " />
<glyph glyph-name="bullet" unicode="&#x2022;" horiz-adv-x="333" d="M50 238 L50 468 L282 468 L282 238 L50 238 Z " />
<glyph glyph-name="ellipsis" unicode="&#x2026;" horiz-adv-x="1000" d="M784 0 L784 97 L883 97 L883 0 L784 0 Z M452 0 L452 97 L550 97 L550 0 L452 0 Z M116 0 L116 97 L215 97 L215 0 L116 0 Z " />
<glyph glyph-name="perthousand" unicode="&#x2030;" horiz-adv-x="1500" d="M1470 221 Q1470 176 1456.5 135.5 Q1443 95 1417.5 64 Q1392 33 1355 14.5 Q1318 -4 1270 -4 Q1221 -4 1183 13.5 Q1145 31 1119.5 61.5 Q1094 92 1081 132.5 Q1068 173 1068 219 Q1068 264 1082 305.5 Q1096 347 1122.5 378 Q1149 409 1187 427.5 Q1225 446 1273 446 Q1320 446 1357 427.5 Q1394 409 1419 377.5 Q1444 346 1457 305.5 Q1470 265 1470 221 Z M1012 221 Q1012 176 998.5 135 Q985 94 959.5 63.5 Q934 33 896.5 14.5 Q859 -4 811 -4 Q762 -4 724.5 13.5 Q687 31 661.5 61.5 Q636 92 623 132.5 Q610 173 610 219 Q610 264 624 305.5 Q638 347 664.5 378 Q691 409 729 427.5 Q767 446 815 446 Q862 446 899 427.5 Q936 409 961 377.5 Q986 346 999 305.5 Q1012 265 1012 221 Z M328 -12 L279 18 L711 701 L760 670 L328 -12 Z M428 469 Q428 424 414.5 383.5 Q401 343 375.5 311.5 Q350 280 313 261.5 Q276 243 228 243 Q179 243 141 260.5 Q103 278 77.5 308.5 Q52 339 39 380 Q26 421 26 467 Q26 512 40 552.5 Q54 593 80.5 624.5 Q107 656 144.5 674.5 Q182 693 229 693 Q277 693 314 674.5 Q351 656 376.5 625 Q402 594 415 553.5 Q428 513 428 469 Z M1400 219 Q1400 249 1392.5 279 Q1385 309 1369.5 333 Q1354 357 1329 372 Q1304 387 1269 387 Q1235 387 1210 371.5 Q1185 356 1169 331.5 Q1153 307 1145.5 276.5 Q1138 246 1138 216 Q1138 185 1145.5 156 Q1153 127 1168.5 104.5 Q1184 82 1209 68.5 Q1234 55 1269 55 Q1304 55 1329 69 Q1354 83 1369.5 106 Q1385 129 1392.5 158.5 Q1400 188 1400 219 Z M941 219 Q941 249 933.5 279 Q926 309 910.5 333 Q895 357 870.5 372 Q846 387 811 387 Q777 387 752 371.5 Q727 356 711 331 Q695 306 687.5 275.5 Q680 245 680 215 Q680 184 687.5 155.5 Q695 127 711 104.5 Q727 82 752 68.5 Q777 55 811 55 Q846 55 870.5 69 Q895 83 910.5 106.5 Q926 130 933.5 159.5 Q941 189 941 219 Z M358 467 Q358 497 350.5 527 Q343 557 327.5 581 Q312 605 287 620 Q262 635 227 635 Q193 635 168.5 619 Q144 603 128 578.5 Q112 554 104.5 523.5 Q97 493 97 463 Q97 432 104 403 Q111 374 127 351.5 Q143 329 167.5 315.5 Q192 302 227 302 Q262 302 287 316.5 Q312 331 327.5 354 Q343 377 350.5 407 Q358 437 358 467 Z " />
<glyph glyph-name="guilsinglleft" unicode="&#x2039;" horiz-adv-x="292" d="M41 213 L41 299 L243 457 L243 394 L115 255 L243 118 L243 54 L41 213 Z " />
<glyph glyph-name="guilsinglright" unicode="&#x203a;" horiz-adv-x="292" d="M47 53 L47 117 L176 255 L47 392 L47 457 L250 298 L250 212 L47 53 Z " />
<glyph glyph-name="fraction" unicode="&#x2044;" horiz-adv-x="125" d="M-143 -11 L-180 11 L265 719 L302 695 L-143 -11 Z " />
<glyph glyph-name="Euro" unicode="&#x20ac;" horiz-adv-x="933" d="M832 516 Q823 529 807.5 543 Q792 557 773 570 Q754 583 732.5 594.5 Q711 606 691 613 Q653 627 614 632.5 Q575 638 521 638 Q438 638 376 615.5 Q314 593 279 551 Q260 528 245 497 Q230 466 225 440 L800 440 L770 378 L218 378 Q218 363 218.5 354 Q219 345 221 328 L744 328 L714 267 L230 267 Q258 170 336 120 Q414 70 539 70 Q573 70 608.5 75 Q644 80 678.5 88.5 Q713 97 743.5 109 Q774 121 797 135 Q814 146 828.5 157.5 Q843 169 863 189 L863 65 Q792 23 711 2.5 Q630 -18 532 -18 Q447 -18 377 1 Q307 20 254.5 57 Q202 94 168 147 Q134 200 122 267 L31 267 L64 328 L113 328 Q112 336 112 341 Q112 346 112 351 Q112 355 112.5 362 Q113 369 114 378 L31 378 L64 440 L120 440 Q146 577 253 651.5 Q360 726 531 726 Q648 726 740 695 Q832 664 880 608 L832 516 Z " />
<glyph glyph-name="trademark" unicode="&#x2122;" horiz-adv-x="687" d="M567 374 L572 642 L487 374 L437 374 L352 646 L359 374 L302 374 L302 706 L381 706 L464 442 L543 706 L624 706 L624 374 L567 374 Z M170 657 L170 374 L111 374 L111 657 L4 657 L4 706 L274 706 L274 657 L170 657 Z " />
<glyph glyph-name="Omega" unicode="&#x2126;" horiz-adv-x="835" d="M475 0 L475 78 Q496 85 511.5 90.5 Q527 96 539.5 103 Q552 110 563 118 Q574 126 586 137 Q631 178 656 243 Q681 308 681 381 Q681 440 663 487 Q645 534 611 568 Q577 602 529.5 620 Q482 638 423 638 Q361 638 310.5 619 Q260 600 224.5 565.5 Q189 531 169.5 481.5 Q150 432 150 371 Q150 328 160.5 285 Q171 242 189 207 Q213 162 251 130 Q263 120 273.5 112.5 Q284 105 296 99.5 Q308 94 323 89 Q338 84 359 78 L359 0 L42 0 L42 78 L227 78 Q144 119 97 198 Q50 277 50 376 Q50 453 77.5 517 Q105 581 155 627 Q205 673 274 698.5 Q343 724 427 724 Q507 724 572.5 700 Q638 676 684.5 632 Q731 588 756.5 526 Q782 464 782 388 Q782 313 757 248 Q732 183 684 137 Q673 127 664 119.5 Q655 112 645 105.5 Q635 99 623.5 92.5 Q612 86 595 78 L793 78 L793 0 L475 0 Z " />
<glyph glyph-name="partialdiff" unicode="&#x2202;" horiz-adv-x="593" d="M550 404 Q550 -10 275 -10 Q221 -10 177 5.5 Q133 21 101 49 Q69 77 51.5 116 Q34 155 34 203 Q34 254 51.5 295.5 Q69 337 101.5 366.5 Q134 396 179 412 Q224 428 279 428 Q329 428 370 414.5 Q411 401 455 371 Q456 382 456 388 Q456 394 456 403 Q456 528 416 584 Q376 640 287 640 Q263 640 239.5 637 Q216 634 179 626 L168 700 Q205 709 237 713 Q269 717 301 717 Q429 717 489.5 641 Q550 565 550 404 Z M446 295 Q372 354 281 354 Q212 354 172 312.5 Q132 271 132 201 Q132 138 172 100.5 Q212 63 278 63 Q354 63 395 119 Q408 136 416.5 157.5 Q425 179 433 211 Q436 225 438.5 234.5 Q441 244 442.5 253 Q444 262 444.5 272 Q445 282 446 295 Z " />
<glyph glyph-name="Delta" unicode="&#x2206;" horiz-adv-x="757" d="M-5 0 L327 706 L428 706 L760 0 L-5 0 Z M376 599 L147 86 L606 86 L376 599 Z " />
<glyph glyph-name="product" unicode="&#x220f;" horiz-adv-x="830" d="M658 -122 L658 619 L171 619 L171 -122 L76 -122 L76 706 L754 706 L754 -122 L658 -122 Z " />
<glyph glyph-name="summation" unicode="&#x2211;" horiz-adv-x="761" d="M45 -122 L45 -46 L384 302 L44 628 L44 706 L720 706 L720 619 L183 619 L506 303 L174 -36 L720 -36 L720 -122 L45 -122 Z " />
<glyph glyph-name="minus" unicode="&#x2212;" horiz-adv-x="772" d="M74 253 L74 339 L698 339 L698 253 L74 253 Z " />
<glyph glyph-name="radical" unicode="&#x221a;" horiz-adv-x="775" d="M413 -185 L322 -185 L167 101 L95 67 L58 146 L218 217 L366 -67 L622 706 L722 706 L413 -185 Z " />
<glyph glyph-name="infinity" unicode="&#x221e;" horiz-adv-x="772" d="M734 311 Q734 267 721.5 231 Q709 195 686 169 Q663 143 631.5 129 Q600 115 561 115 Q518 115 482 132 Q461 143 443 160 Q427 175 414.5 189.5 Q402 204 381 234 Q333 171 290 142.5 Q247 114 198 114 Q163 114 133.5 128 Q104 142 83 166.5 Q62 191 50.5 225.5 Q39 260 39 302 Q39 344 51.5 379.5 Q64 415 87 440.5 Q110 466 142 480 Q174 494 212 494 Q252 494 283 479 Q307 468 325 451 Q343 435 355.5 419.5 Q368 404 390 372 Q397 380 402 386.5 Q407 393 412 398 Q435 425 456 445 Q481 468 512.5 481 Q544 494 575 494 Q609 494 638 480 Q667 466 688.5 441.5 Q710 417 722 383.5 Q734 350 734 311 Z M651 308 Q651 353 630 380.5 Q609 408 575 408 Q555 408 531.5 395.5 Q508 383 488 360 Q479 349 469 338 Q461 328 452.5 318.5 Q444 309 438 302 Q449 285 456.5 274 Q464 263 470 255 Q476 247 482 241 Q488 235 496 227 Q527 196 563 196 Q601 196 626 227.5 Q651 259 651 308 Z M334 305 Q322 322 314.5 332.5 Q307 343 301 351 Q295 359 289 365.5 Q283 372 275 380 Q247 410 208 410 Q170 410 146.5 379.5 Q123 349 123 300 Q123 255 143.5 227 Q164 199 198 199 Q225 199 254 221 Q271 233 283 247 Q285 249 294 259 Q303 269 320 289 Q322 291 325.5 295.5 Q329 300 334 305 Z " />
<glyph glyph-name="integral" unicode="&#x222b;" horiz-adv-x="372" d="M324 628 Q304 639 293.5 643 Q283 647 272 647 Q252 647 241 636 Q233 628 230 615 Q227 602 227 569 L227 -35 Q227 -70 222.5 -92.5 Q218 -115 210 -130 Q183 -177 111 -177 Q94 -177 77 -174.5 Q60 -172 37 -165 L37 -86 Q55 -95 65 -98 Q75 -101 87 -101 Q107 -101 118 -90 Q126 -82 129 -70 Q132 -58 132 -29 L132 541 Q132 569 132 584.5 Q132 600 133 611 Q134 631 138 645.5 Q142 660 149 672 Q175 719 251 719 Q271 719 287.5 716 Q304 713 324 707 L324 628 Z " />
<glyph glyph-name="approxequal" unicode="&#x2248;" horiz-adv-x="813" d="M741 407 Q728 394 718 384.5 Q708 375 698.5 367.5 Q689 360 678 353.5 Q667 347 653 340 Q624 326 599 319.5 Q574 313 545 313 Q522 313 499 318 Q476 323 447 334 L369 364 Q337 376 307 383 Q277 390 254 390 Q222 390 197 375.5 Q172 361 135 328 L124 318 L71 382 Q94 406 107 417.5 Q120 429 139 441 Q196 477 261 477 Q290 477 323.5 468.5 Q357 460 406 442 L458 423 Q490 411 510.5 405.5 Q531 400 548 400 Q567 400 587 405.5 Q607 411 626 421 Q640 429 653 439 Q666 449 690 471 L741 407 Z M741 205 Q728 192 718 182.5 Q708 173 698.5 165.5 Q689 158 678 151.5 Q667 145 653 138 Q624 124 599 117.5 Q574 111 545 111 Q522 111 499 116 Q476 121 447 132 L369 162 Q337 174 307.5 180.5 Q278 187 255 187 Q223 187 196.5 174 Q170 161 135 126 L124 115 L71 180 Q94 204 107 215.5 Q120 227 139 239 Q196 275 261 275 Q290 275 323.5 266.5 Q357 258 406 240 L458 221 Q490 209 510.5 203.5 Q531 198 548 198 Q568 198 588 203.5 Q608 209 626 219 Q641 227 653.5 236.5 Q666 246 690 269 L741 205 Z " />
<glyph glyph-name="notequal" unicode="&#x2260;" horiz-adv-x="772" d="M357 152 L271 -7 L184 -7 L269 152 L95 152 L95 236 L310 236 L369 353 L95 353 L95 437 L412 437 L493 588 L580 588 L499 437 L677 437 L677 353 L457 353 L397 236 L677 236 L677 152 L357 152 Z " />
<glyph glyph-name="lessequal" unicode="&#x2264;" horiz-adv-x="772" d="M103 363 L103 459 L646 671 L646 576 L212 413 L646 241 L646 141 L103 363 Z M103 0 L103 86 L646 86 L646 0 L103 0 Z " />
<glyph glyph-name="greaterequal" unicode="&#x2265;" horiz-adv-x="772" d="M126 128 L126 223 L560 386 L126 558 L126 659 L670 437 L670 340 L126 128 Z M126 0 L126 86 L670 86 L670 0 L126 0 Z " />
<glyph glyph-name="lozenge" unicode="&#x25ca;" horiz-adv-x="772" d="M435 0 L333 0 L133 355 L333 706 L435 706 L639 352 L435 0 Z M387 623 L239 358 L383 84 L532 352 L387 623 Z " />
<glyph glyph-name="fi" unicode="&#xfb01;" horiz-adv-x="562" d="M388 570 L388 666 L483 666 L483 570 L388 570 Z M389 0 L389 489 L484 489 L484 0 L389 0 Z M315 620 Q300 624 285.5 626.5 Q271 629 256 629 Q216 629 197.5 611.5 Q179 594 179 555 L179 490 L313 490 L313 425 L179 425 L179 0 L85 0 L85 426 L6 426 L6 490 L86 490 L86 552 Q86 629 121 670.5 Q156 712 238 712 Q258 712 276.5 709.5 Q295 707 315 705 L315 620 Z " />
<glyph glyph-name="fl" unicode="&#xfb02;" horiz-adv-x="562" d="M390 0 L390 706 L484 706 L484 0 L390 0 Z M315 620 Q300 624 285.5 626.5 Q271 629 256 629 Q216 629 197.5 611.5 Q179 594 179 555 L179 490 L313 490 L313 425 L179 425 L179 0 L85 0 L85 426 L6 426 L6 490 L86 490 L86 552 Q86 629 121 670.5 Q156 712 238 712 Q258 712 276.5 709.5 Q295 707 315 705 L315 620 Z " />
</font>
</svg>
