<?xml version="1.0" encoding="UTF-8"?>
<svg xmlns="http://www.w3.org/2000/svg" xmlns:xlink="http://www.w3.org/1999/xlink" version="1.2" >
<font id="NissanAG-Medium">
<font-face  font-family="NissanAG" units-per-em="1000" ascent="750" descent="-250" font-style="normal" font-weight="500" font-stretch="normal" cap-height="750" x-height="500" underline-position="-75" underline-thickness="50" />
<missing-glyph  horiz-adv-x="1000" d="" />
<glyph glyph-name="null" d="" />
<glyph glyph-name="nonmarkingreturn" unicode="&#xd;" horiz-adv-x="250" d="" />
<glyph glyph-name="space" unicode="&#x20;" horiz-adv-x="288" d="" />
<glyph glyph-name="exclam" unicode="&#x21;" horiz-adv-x="250" d="M211 436 Q211 410 206.5 392.5 Q202 375 198 349 L173 176 L117 176 L92 349 Q88 375 84 392.5 Q80 410 80 436 L80 706 L211 706 L211 436 Z M80 0 L80 138 L211 138 L211 0 L80 0 Z " />
<glyph glyph-name="quotedbl" unicode="&#x22;" horiz-adv-x="332" d="M266 444 L232 444 L200 743 L297 743 L266 444 Z M101 444 L66 444 L35 743 L131 743 L101 444 Z " />
<glyph glyph-name="numbersign" unicode="&#x23;" horiz-adv-x="667" d="M492 408 L478 314 L601 314 L601 214 L466 214 L435 0 L334 0 L365 214 L266 214 L236 0 L134 0 L164 214 L42 214 L42 314 L177 314 L190 408 L64 408 L64 508 L203 508 L230 706 L334 706 L306 508 L404 508 L431 706 L532 706 L505 508 L623 508 L623 408 L492 408 Z M292 408 L278 314 L378 314 L391 408 L292 408 Z " />
<glyph glyph-name="dollar" unicode="&#x24;" horiz-adv-x="625" d="M586 220 Q586 169 568 130 Q550 91 519 63.5 Q488 36 446.5 20.5 Q405 5 358 0 L358 -114 L266 -114 L266 0 Q228 7 196 16.5 Q164 26 136.5 41 Q109 56 84 78 Q59 100 35 133 L136 210 Q148 195 162 180 Q176 165 192.5 152 Q209 139 227.5 130.5 Q246 122 266 120 L266 311 Q225 314 186.5 325 Q148 336 118.5 357.5 Q89 379 71.5 412 Q54 445 54 491 Q54 538 70.5 574 Q87 610 116 636 Q145 662 183.5 677 Q222 692 266 697 L266 805 L358 805 L358 697 Q424 690 477 664 Q530 638 574 588 L480 513 Q465 533 452 544.5 Q439 556 425.5 563.5 Q412 571 395.5 576 Q379 581 358 588 L358 428 Q403 421 444.5 406.5 Q486 392 517.5 368 Q549 344 567.5 307.5 Q586 271 586 220 Z M266 588 Q234 583 209.5 563.5 Q185 544 185 509 Q185 492 192.5 481 Q200 470 212 462.5 Q224 455 238.5 451 Q253 447 266 444 L266 588 Z M454 213 Q454 233 445 247 Q436 261 422.5 271.5 Q409 282 392 288 Q375 294 358 297 L358 118 Q376 122 393.5 129.5 Q411 137 424.5 148.5 Q438 160 446 176 Q454 192 454 213 Z " />
<glyph glyph-name="percent" unicode="&#x25;" horiz-adv-x="875" d="M850 214 Q850 184 847 154.5 Q844 125 833 97 Q815 49 778.5 21 Q742 -7 689 -7 Q643 -7 612 10.5 Q581 28 561.5 57 Q542 86 533.5 123 Q525 160 525 200 Q525 228 525.5 255.5 Q526 283 532 310 Q546 371 586 410 Q626 449 692 449 Q718 449 742 440.5 Q766 432 786 415 Q807 397 819.5 374.5 Q832 352 838.5 327 Q845 302 847.5 275.5 Q850 249 850 223 L850 214 Z M307 -37 L238 -6 L553 678 L621 646 L307 -37 Z M351 448 Q351 419 348 390.5 Q345 362 336 335 Q319 284 281.5 254.5 Q244 225 189 225 Q141 225 109.5 244 Q78 263 59.5 294 Q41 325 33.5 364.5 Q26 404 26 444 Q26 474 28.5 504.5 Q31 535 39 563 Q47 591 63 615.5 Q79 640 107 658 Q125 670 147 675.5 Q169 681 190 681 Q240 681 271.5 660 Q303 639 320.5 605.5 Q338 572 344.5 530.5 Q351 489 351 448 Z M760 205 Q760 225 759.5 253.5 Q759 282 753 308 Q747 334 732 353 Q717 372 688 372 Q661 372 646 354.5 Q631 337 624 312.5 Q617 288 616 261.5 Q615 235 615 216 Q615 198 616.5 172.5 Q618 147 625 124.5 Q632 102 646.5 86 Q661 70 687 70 Q712 70 726.5 84 Q741 98 748.5 119 Q756 140 758 163.5 Q760 187 760 205 Z M261 442 Q261 462 260.5 490 Q260 518 253.5 543.5 Q247 569 231.5 587 Q216 605 187 605 Q160 605 145.5 586.5 Q131 568 124.5 542 Q118 516 117 488 Q116 460 116 442 Q116 423 118 399 Q120 375 127.5 353.5 Q135 332 149.5 317.5 Q164 303 190 303 Q215 303 229 318 Q243 333 250 354.5 Q257 376 259 400 Q261 424 261 442 Z " />
<glyph glyph-name="ampersand" unicode="&#x26;" horiz-adv-x="646" d="M614 0 Q601 -1 588 -2 Q575 -3 562 -3 Q525 -3 495 5.5 Q465 14 437 38 Q398 10 356 -2.5 Q314 -15 266 -15 Q220 -15 179.5 -1.5 Q139 12 108.5 37.5 Q78 63 60.5 101 Q43 139 43 187 Q43 224 56.5 254 Q70 284 92 309 Q114 334 141 355 Q168 376 196 394 Q179 423 172.5 444.5 Q166 466 166 500 Q166 536 178 566 Q190 596 212 617.5 Q234 639 264 650.5 Q294 662 330 662 Q362 662 391.5 651 Q421 640 443.5 620.5 Q466 601 479 573 Q492 545 492 512 Q492 467 468 432 Q444 397 407 374 Q395 366 383 361.5 Q371 357 359 351 Q369 331 382 313.5 Q395 296 407 278 Q418 262 428 246.5 Q438 231 451 217 Q470 246 477.5 270 Q485 294 488 328 L603 328 Q597 275 575 223 Q553 171 521 129 Q538 113 553 105.5 Q568 98 592 98 Q597 98 603 98.5 Q609 99 614 100 L614 0 Z M387 514 Q387 538 371.5 553 Q356 568 332 568 Q308 568 293.5 553.5 Q279 539 279 515 Q279 494 288.5 475.5 Q298 457 309 440 Q311 441 312.5 441.5 Q314 442 316 442 Q342 447 364.5 467 Q387 487 387 514 Z M250 304 L244 301 Q212 283 188 257.5 Q164 232 164 193 Q164 170 173 150.5 Q182 131 197.5 117.5 Q213 104 233 96.5 Q253 89 275 89 Q301 89 326.5 99.5 Q352 110 371 127 L250 304 Z " />
<glyph glyph-name="quotesingle" unicode="&#x27;" horiz-adv-x="166" d="M101 444 L66 444 L35 743 L131 743 L101 444 Z " />
<glyph glyph-name="parenleft" unicode="&#x28;" horiz-adv-x="326" d="M289 -164 Q273 -152 265 -146 Q197 -90 151 -31 Q93 44 64 131.5 Q35 219 35 316 Q35 407 62.5 495 Q90 583 141 655 Q170 694 204 730 Q215 741 223 749 Q231 757 240 764.5 Q249 772 259.5 780.5 Q270 789 285 800 L331 749 Q316 733 305 722 Q294 711 286 701 Q278 691 270.5 682 Q263 673 255 662 Q207 595 182.5 509.5 Q158 424 158 327 Q158 260 170 196.5 Q182 133 204.5 77.5 Q227 22 259.5 -24.5 Q292 -71 333 -105 L289 -164 Z " />
<glyph glyph-name="parenright" unicode="&#x29;" horiz-adv-x="328" d="M296 320 Q296 229 268.5 141.5 Q241 54 189 -19 Q160 -60 127 -93 Q94 -126 45 -164 L-1 -113 Q14 -97 25 -86 Q36 -75 44 -65 Q52 -55 59.5 -46 Q67 -37 75 -26 Q123 41 148 127 Q173 213 173 310 Q173 377 161 440 Q149 503 126.5 558.5 Q104 614 72 660.5 Q40 707 -1 741 L43 800 Q51 794 56.5 789.5 Q62 785 66 782 Q101 754 128.5 726 Q156 698 180 667 Q237 592 266.5 505 Q296 418 296 320 Z " />
<glyph glyph-name="asterisk" unicode="&#x2a;" horiz-adv-x="378" d="M260 523 L320 444 L252 391 L188 474 L130 391 L60 442 L116 522 L20 550 L45 633 L143 605 L143 708 L230 708 L230 604 L330 638 L358 557 L260 523 Z " />
<glyph glyph-name="plus" unicode="&#x2b;" horiz-adv-x="724" d="M427 260 L427 44 L297 44 L297 260 L93 260 L93 367 L297 367 L297 580 L427 580 L427 367 L631 367 L631 260 L427 260 Z " />
<glyph glyph-name="comma" unicode="&#x2c;" horiz-adv-x="208" d="M170 -14 Q170 -68 141.5 -95 Q113 -122 62 -135 Q52 -137 45 -139 L45 -81 Q80 -77 89.5 -53 Q99 -29 99 0 L37 0 L37 137 L170 137 L170 -10 L170 -14 Z " />
<glyph glyph-name="hyphen" unicode="&#x2d;" horiz-adv-x="372" d="M41 247 L41 360 L330 360 L330 247 L41 247 Z " />
<glyph glyph-name="period" unicode="&#x2e;" horiz-adv-x="208" d="M37 0 L37 137 L169 137 L169 0 L37 0 Z " />
<glyph glyph-name="slash" unicode="&#x2f;" horiz-adv-x="479" d="M132 0 L13 0 L348 706 L467 706 L132 0 Z " />
<glyph glyph-name="zero" unicode="0" horiz-adv-x="562" d="M529 349 Q529 312 527 275 Q525 238 517 202 Q498 108 438.5 49.5 Q379 -9 280 -9 Q240 -9 203 2.5 Q166 14 135 40 Q102 67 82.5 101.5 Q63 136 52.5 174.5 Q42 213 39 253.5 Q36 294 36 334 Q36 376 39.5 419.5 Q43 463 55 503.5 Q67 544 89 580 Q111 616 148 643 Q179 666 215 676 Q251 686 289 686 Q334 686 375 669.5 Q416 653 447 620 Q473 593 489 560.5 Q505 528 514 493 Q523 458 526 421.5 Q529 385 529 349 Z M399 337 Q399 367 397 408 Q395 449 384.5 486 Q374 523 350.5 549 Q327 575 285 575 Q241 575 217 549.5 Q193 524 181.5 487.5 Q170 451 167.5 410 Q165 369 165 337 Q165 306 167 265 Q169 224 180 188 Q191 152 215 127 Q239 102 283 102 Q327 102 350.5 127 Q374 152 384.5 188.5 Q395 225 397 265.5 Q399 306 399 337 Z " />
<glyph glyph-name="one" unicode="1" horiz-adv-x="562" d="M240 0 L240 399 Q240 418 239 431.5 Q238 445 232.5 453 Q227 461 215.5 465 Q204 469 184 469 L75 469 L75 546 L104 546 Q170 546 210.5 577.5 Q251 609 263 675 L363 675 L363 0 L240 0 Z " />
<glyph glyph-name="two" unicode="2" horiz-adv-x="562" d="M57 0 L57 97 Q86 116 125 147.5 Q164 179 203 214.5 Q242 250 276 285.5 Q310 321 328 349 Q345 376 355.5 407 Q366 438 366 470 Q366 512 343.5 541.5 Q321 571 276 571 Q242 571 223 556 Q204 541 195 518 Q186 495 184 467.5 Q182 440 182 414 L57 425 L57 434 Q57 488 72 534 Q87 580 116 613.5 Q145 647 188.5 666.5 Q232 686 289 686 Q337 686 376.5 671 Q416 656 444.5 628 Q473 600 488.5 560.5 Q504 521 504 473 Q504 426 488.5 386 Q473 346 448 311.5 Q423 277 390.5 247 Q358 217 325 189 Q299 167 273.5 145.5 Q248 124 220 104 L516 104 L516 0 L57 0 Z " />
<glyph glyph-name="three" unicode="3" horiz-adv-x="562" d="M524 198 Q524 147 504 108.5 Q484 70 451 43.5 Q418 17 374.5 4 Q331 -9 284 -9 Q172 -9 109.5 49 Q47 107 47 221 L180 221 Q179 216 178.5 210.5 Q178 205 178 200 Q178 152 208.5 126 Q239 100 285 100 Q334 100 362 129.5 Q390 159 390 207 Q390 261 357.5 283.5 Q325 306 277 306 Q268 306 258 306.5 Q248 307 239 305 L239 410 Q250 410 261.5 409.5 Q273 409 284 409 Q322 409 348.5 427 Q375 445 375 488 Q375 526 351.5 550.5 Q328 575 289 575 Q265 575 246.5 566 Q228 557 216 541 Q204 525 198 505 Q192 485 192 462 L60 490 Q65 512 70.5 532 Q76 552 87 572 Q118 629 173.5 657.5 Q229 686 292 686 Q333 686 371.5 675 Q410 664 440.5 641.5 Q471 619 489.5 585.5 Q508 552 508 507 Q508 468 491 433 Q474 398 439 378 Q428 372 417.5 369.5 Q407 367 396 362 Q459 351 491.5 306 Q524 261 524 198 Z " />
<glyph glyph-name="four" unicode="4" horiz-adv-x="562" d="M436 155 L436 0 L313 0 L313 155 L17 155 L17 243 L313 675 L436 675 L436 258 L523 258 L523 155 L436 155 Z M146 258 L313 258 L320 526 L146 258 Z " />
<glyph glyph-name="five" unicode="5" horiz-adv-x="562" d="M519 240 Q519 182 500.5 136 Q482 90 448 58 Q414 26 367 8.5 Q320 -9 264 -9 Q233 -9 201.5 -2.5 Q170 4 142 18.5 Q114 33 92 55 Q70 77 56 107 Q47 127 43 147 Q39 167 37 189 L176 199 Q176 155 203 127 Q230 99 274 99 Q303 99 324 111.5 Q345 124 358 143.5 Q371 163 377 188 Q383 213 383 238 Q383 264 375.5 286.5 Q368 309 353.5 325.5 Q339 342 318.5 352 Q298 362 271 362 Q237 362 210 346.5 Q183 331 170 299 L58 306 L105 677 L480 677 L470 564 L208 564 L185 415 Q211 441 244.5 453 Q278 465 314 465 Q363 465 401 447.5 Q439 430 465.5 399 Q492 368 505.5 327.5 Q519 287 519 240 Z " />
<glyph glyph-name="six" unicode="6" horiz-adv-x="562" d="M513 225 Q513 175 496.5 132.5 Q480 90 450 58.5 Q420 27 378 9 Q336 -9 285 -9 Q246 -9 209 3 Q172 15 142 41 Q112 66 93.5 98.5 Q75 131 65 167.5 Q55 204 51.5 242.5 Q48 281 48 318 Q48 380 58.5 445.5 Q69 511 97 564.5 Q125 618 174 652 Q223 686 299 686 Q338 686 373 674.5 Q408 663 436 641.5 Q464 620 482.5 588.5 Q501 557 505 517 L377 500 Q377 535 354.5 555.5 Q332 576 297 576 Q258 576 235.5 554 Q213 532 201 500 Q189 468 185 432 Q181 396 178 367 Q205 402 241.5 418.5 Q278 435 322 435 Q367 435 402.5 418 Q438 401 462.5 372.5 Q487 344 500 306 Q513 268 513 225 Z M387 212 Q387 256 363.5 289 Q340 322 292 322 Q244 322 217 291 Q190 260 190 213 Q190 167 214 135 Q238 103 288 103 Q337 103 362 134 Q387 165 387 212 Z " />
<glyph glyph-name="seven" unicode="7" horiz-adv-x="562" d="M512 567 Q412 444 356.5 301 Q301 158 285 0 L120 0 Q122 17 125.5 33 Q129 49 132 66 Q154 174 196 270.5 Q238 367 299 459 Q316 485 334 509 Q352 533 369 559 L64 559 L64 677 L512 677 L512 567 Z " />
<glyph glyph-name="eight" unicode="8" horiz-adv-x="562" d="M531 197 Q531 144 509 105 Q487 66 451.5 40.5 Q416 15 370.5 3 Q325 -9 278 -9 Q232 -9 187.5 3 Q143 15 107.5 40 Q72 65 50.5 103.5 Q29 142 29 194 Q29 236 46 270.5 Q63 305 97 329 Q108 337 118.5 342.5 Q129 348 140 354 Q119 363 102.5 378.5 Q86 394 75 414 Q64 434 58.5 456.5 Q53 479 53 501 Q53 549 73.5 584 Q94 619 127.5 641.5 Q161 664 203 675 Q245 686 287 686 Q332 686 373 674.5 Q414 663 445.5 639 Q477 615 496 578.5 Q515 542 515 493 Q515 446 492.5 410 Q470 374 427 354 Q430 353 436 349 Q481 322 506 286.5 Q531 251 531 197 Z M384 488 Q384 533 355 554.5 Q326 576 284 576 Q240 576 210.5 555 Q181 534 181 486 Q181 440 211.5 418.5 Q242 397 284 397 Q329 397 356.5 419.5 Q384 442 384 488 Z M397 197 Q397 248 364.5 272 Q332 296 284 296 Q238 296 204 272.5 Q170 249 170 198 Q170 173 179.5 155 Q189 137 205 125.5 Q221 114 241.5 108.5 Q262 103 284 103 Q306 103 326.5 108.5 Q347 114 362.5 125.5 Q378 137 387.5 155 Q397 173 397 197 Z " />
<glyph glyph-name="nine" unicode="9" horiz-adv-x="562" d="M517 377 Q517 339 514.5 301.5 Q512 264 504 227 Q494 178 474 135 Q454 92 423.5 60 Q393 28 351 9.5 Q309 -9 255 -9 Q173 -9 119 35.5 Q65 80 50 162 L187 181 Q191 146 211.5 124 Q232 102 268 102 Q303 102 324.5 123 Q346 144 358 174.5 Q370 205 374.5 239.5 Q379 274 379 300 Q356 268 318.5 254.5 Q281 241 243 241 Q196 241 160 257.5 Q124 274 99.5 302.5 Q75 331 62.5 370 Q50 409 50 453 Q50 506 66.5 548.5 Q83 591 113 622 Q143 653 186 669.5 Q229 686 282 686 Q348 686 392.5 658.5 Q437 631 465 587 Q493 543 505 488 Q517 433 517 377 Z M369 461 Q369 483 364 503.5 Q359 524 347.5 540.5 Q336 557 318.5 567 Q301 577 277 577 Q228 577 204 543.5 Q180 510 180 464 Q180 442 185.5 421.5 Q191 401 202.5 385 Q214 369 232 359 Q250 349 274 349 Q324 349 346.5 382 Q369 415 369 461 Z " />
<glyph glyph-name="colon" unicode="&#x3a;" horiz-adv-x="250" d="M78 371 L78 509 L210 509 L210 371 L78 371 Z M78 0 L78 137 L210 137 L210 0 L78 0 Z " />
<glyph glyph-name="semicolon" unicode="&#x3b;" horiz-adv-x="250" d="M78 371 L78 509 L211 509 L211 371 L78 371 Z M211 -9 Q211 -41 202.5 -62.5 Q194 -84 177.5 -99 Q161 -114 137.5 -123.5 Q114 -133 85 -140 L85 -80 Q116 -76 128 -57.5 Q140 -39 140 -10 L140 0 L78 0 L78 137 L211 137 L211 -9 Z " />
<glyph glyph-name="less" unicode="&#x3c;" horiz-adv-x="724" d="M113 257 L113 380 L578 608 L578 484 L232 322 L578 158 L578 28 L113 257 Z " />
<glyph glyph-name="equal" unicode="&#x3d;" horiz-adv-x="724" d="M99 351 L99 458 L625 458 L625 351 L99 351 Z M99 148 L99 255 L625 255 L625 148 L99 148 Z " />
<glyph glyph-name="greater" unicode="&#x3e;" horiz-adv-x="724" d="M143 27 L143 151 L489 313 L142 477 L143 607 L608 378 L608 255 L143 27 Z " />
<glyph glyph-name="question" unicode="&#x3f;" horiz-adv-x="562" d="M535 509 Q535 416 461 356 Q452 348 442.5 342 Q433 336 423 329 Q402 315 389.5 304 Q377 293 369.5 280 Q362 267 359.5 251 Q357 235 357 210 Q357 203 357 196 Q357 189 358 182 L240 182 L240 207 Q240 223 241 243 Q242 263 245 283.5 Q248 304 253.5 323 Q259 342 268 355 Q283 377 305.5 392 Q328 407 348 422 Q368 437 382.5 457 Q397 477 397 509 Q397 530 388 547.5 Q379 565 364.5 577.5 Q350 590 331 597 Q312 604 292 604 Q263 604 241 593.5 Q219 583 204 565.5 Q189 548 181.5 524 Q174 500 174 473 L53 487 Q55 511 59 534 Q63 557 72 580 Q101 653 162.5 685.5 Q224 718 299 718 Q346 718 388.5 704.5 Q431 691 463.5 664.5 Q496 638 515.5 599 Q535 560 535 509 Z M233 0 L233 137 L366 137 L366 0 L233 0 Z " />
<glyph glyph-name="at" unicode="&#x40;" horiz-adv-x="896" d="M827 421 Q827 371 815 321 Q803 267 781 221 Q768 195 749 168 Q730 141 706 119 Q682 97 653.5 83 Q625 69 593 69 Q556 69 533.5 88.5 Q511 108 506 146 Q480 114 447.5 91.5 Q415 69 371 69 Q336 69 310.5 83 Q285 97 268.5 120 Q252 143 244 173 Q236 203 236 234 Q236 279 250.5 329 Q265 379 292.5 421.5 Q320 464 360 492 Q400 520 451 520 Q490 520 517 501 Q544 482 561 448 L573 499 L652 499 L619 345 Q615 328 610.5 306 Q606 284 601.5 260.5 Q597 237 594 215 Q591 193 591 177 Q591 165 596 152.5 Q601 140 616 140 Q632 140 645 151 Q658 162 668 172 Q689 193 705.5 223.5 Q722 254 733.5 287.5 Q745 321 750.5 355.5 Q756 390 756 419 Q756 473 739 515.5 Q722 558 691 586.5 Q660 615 617 630 Q574 645 522 645 Q440 645 370 610.5 Q300 576 248.5 519 Q197 462 167.5 388.5 Q138 315 138 236 Q138 166 162 111 Q186 56 228.5 19 Q271 -18 329 -37.5 Q387 -57 454 -57 Q548 -57 632.5 -17 Q717 23 783 89 L823 38 Q748 -37 654.5 -80.5 Q561 -124 454 -124 Q414 -124 372.5 -116 Q331 -108 293 -94 Q181 -50 125 33.5 Q69 117 69 235 Q69 331 104 418 Q139 505 200.5 570 Q262 635 346 673.5 Q430 712 529 712 Q595 712 650 692 Q705 672 744 634 Q783 596 805 542.5 Q827 489 827 421 Z M532 349 Q532 366 527.5 383 Q523 400 514 413.5 Q505 427 491 435.5 Q477 444 457 444 Q424 444 399.5 422 Q375 400 359 368.5 Q343 337 335 301.5 Q327 266 327 239 Q327 213 335 190 Q343 167 368 154 Q382 146 398 146 L402 146 Q435 149 459 170.5 Q483 192 499.5 222.5 Q516 253 524 287 Q532 321 532 349 Z " />
<glyph glyph-name="A" unicode="A" horiz-adv-x="646" d="M495 0 L454 138 L189 138 L148 0 L6 0 L245 706 L395 706 L636 0 L495 0 Z M322 579 L224 254 L419 254 L322 579 Z " />
<glyph glyph-name="B" unicode="B" horiz-adv-x="688" d="M643 200 Q643 168 634.5 137.5 Q626 107 606 81 Q586 54 561.5 38 Q537 22 509.5 13.5 Q482 5 452.5 2.5 Q423 0 392 0 L80 0 L80 706 L385 706 Q438 706 485.5 695 Q533 684 570 641 Q610 595 610 534 Q610 494 592.5 458 Q575 422 539 402 Q528 396 516.5 392.5 Q505 389 493 387 Q528 381 555.5 364 Q583 347 602.5 322 Q622 297 632.5 266 Q643 235 643 200 Z M474 512 Q474 543 450 567 Q429 588 398.5 593 Q368 598 339 598 L211 598 L211 422 L270 422 Q283 422 303.5 422 Q324 422 345.5 423 Q367 424 387 426.5 Q407 429 418 433 Q444 443 459 463.5 Q474 484 474 512 Z M508 215 Q508 259 476 288 Q451 311 417.5 317 Q384 323 352 323 L211 323 L211 114 L379 114 Q405 114 428.5 118.5 Q452 123 469.5 134 Q487 145 497.5 165 Q508 185 508 215 Z " />
<glyph glyph-name="C" unicode="C" horiz-adv-x="688" d="M672 197 Q633 92 554 37 Q475 -18 364 -18 Q285 -18 224 12 Q163 42 121.5 92.5 Q80 143 58.5 210 Q37 277 37 351 Q37 391 42 429.5 Q47 468 60 506 Q78 558 109 598.5 Q140 639 180.5 667 Q221 695 270.5 709.5 Q320 724 374 724 Q443 724 507.5 696.5 Q572 669 611 610 Q627 586 638.5 560 Q650 534 659 506 L528 472 Q525 502 511.5 526 Q498 550 477.5 567.5 Q457 585 430.5 594 Q404 603 374 603 Q324 603 287.5 581.5 Q251 560 227 525.5 Q203 491 191.5 447.5 Q180 404 180 360 Q180 326 185.5 291.5 Q191 257 204 226 Q217 195 238.5 169.5 Q260 144 292 127 Q330 107 374 107 Q406 107 434 118 Q462 129 484 148 Q506 167 522 193 Q538 219 547 249 L672 197 Z " />
<glyph glyph-name="D" unicode="D" horiz-adv-x="708" d="M669 346 Q669 298 658.5 245 Q648 192 625 150 Q597 99 561.5 69.5 Q526 40 484.5 24.5 Q443 9 396 4.5 Q349 0 296 0 L71 0 L71 706 L324 706 Q356 706 391.5 703 Q427 700 458 690 Q514 672 554 636.5 Q594 601 619.5 555 Q645 509 657 455 Q669 401 669 346 Z M529 360 Q529 398 521.5 432.5 Q514 467 496.5 496.5 Q479 526 452 547.5 Q425 569 386 579 Q360 586 330 586.5 Q300 587 273 587 L203 587 L203 119 L259 119 Q294 119 332.5 119.5 Q371 120 406 130 Q447 141 471.5 164.5 Q496 188 509 219 Q522 250 525.5 286.5 Q529 323 529 360 Z " />
<glyph glyph-name="E" unicode="E" horiz-adv-x="625" d="M78 0 L78 706 L580 706 L580 588 L208 588 L208 422 L549 422 L549 308 L208 308 L208 119 L605 119 L605 0 L78 0 Z " />
<glyph glyph-name="F" unicode="F" horiz-adv-x="562" d="M212 588 L212 412 L507 412 L507 299 L212 299 L212 0 L81 0 L81 706 L548 706 L548 588 L212 588 Z " />
<glyph glyph-name="G" unicode="G" horiz-adv-x="750" d="M572 0 L572 60 Q530 22 484.5 2 Q439 -18 382 -18 Q303 -18 240.5 10.5 Q178 39 134.5 88.5 Q91 138 68.5 205 Q46 272 46 348 Q46 423 69.5 491 Q93 559 137 610.5 Q181 662 244.5 693 Q308 724 387 724 Q493 724 570 668.5 Q647 613 685 516 L559 466 Q537 527 498 566 Q459 605 389 605 Q335 605 297.5 583 Q260 561 236 525 Q212 489 201 443.5 Q190 398 190 351 Q190 317 196 284 Q202 251 215.5 221 Q229 191 250.5 167 Q272 143 304 127 Q344 107 388 107 Q445 107 489 134.5 Q533 162 552 217 Q557 231 559.5 243.5 Q562 256 564 270 L388 270 L388 386 L685 386 L685 0 L572 0 Z " />
<glyph glyph-name="H" unicode="H" horiz-adv-x="729" d="M516 0 L516 321 L213 321 L213 0 L80 0 L80 706 L213 706 L213 440 L516 440 L516 706 L649 706 L649 0 L516 0 Z " />
<glyph glyph-name="I" unicode="I" horiz-adv-x="292" d="M80 0 L80 706 L210 706 L210 0 L80 0 Z " />
<glyph glyph-name="J" unicode="J" horiz-adv-x="396" d="M332 207 Q332 181 331.5 153.5 Q331 126 321 101 Q309 68 286 46 Q263 24 234.5 10 Q206 -4 173 -9.5 Q140 -15 108 -15 Q67 -15 26 -6 L26 124 Q43 120 60.5 117 Q78 114 96 114 Q110 114 127.5 117 Q145 120 158 128 Q176 139 185 153 Q194 167 198 183.5 Q202 200 202 218 Q202 236 202 255 L202 706 L332 706 L332 207 Z " />
<glyph glyph-name="K" unicode="K" horiz-adv-x="667" d="M514 0 L326 332 L211 200 L211 0 L80 0 L80 706 L211 706 L211 382 L494 706 L649 706 L418 440 L665 0 L514 0 Z " />
<glyph glyph-name="L" unicode="L" horiz-adv-x="521" d="M82 0 L82 706 L215 706 L215 120 L495 120 L495 0 L82 0 Z " />
<glyph glyph-name="M" unicode="M" horiz-adv-x="812" d="M604 0 L617 580 L464 0 L345 0 L192 580 L205 0 L76 0 L76 706 L268 706 L406 182 L542 706 L733 706 L733 0 L604 0 Z " />
<glyph glyph-name="N" unicode="N" horiz-adv-x="708" d="M512 0 L203 495 L211 0 L82 0 L82 706 L201 706 L514 208 L498 706 L628 706 L628 0 L512 0 Z " />
<glyph glyph-name="O" unicode="O" horiz-adv-x="771" d="M725 353 Q725 277 702 209.5 Q679 142 635 91.5 Q591 41 527.5 11.5 Q464 -18 384 -18 Q308 -18 245.5 12 Q183 42 139.5 92.5 Q96 143 72 210 Q48 277 48 350 Q48 425 71.5 493 Q95 561 139.5 612.5 Q184 664 247 694 Q310 724 389 724 Q438 724 485 710 Q532 696 573 669 Q614 642 642.5 607 Q671 572 689.5 531 Q708 490 716.5 445 Q725 400 725 353 Z M592 346 Q592 393 580 439 Q568 485 542.5 521.5 Q517 558 478.5 580.5 Q440 603 386 603 Q334 603 296 582.5 Q258 562 233 527.5 Q208 493 196 449 Q184 405 184 358 Q184 329 188 299.5 Q192 270 202 242 Q225 180 274 142.5 Q323 105 389 105 Q452 105 501 141.5 Q550 178 573 235 Q592 285 592 339 L592 346 Z " />
<glyph glyph-name="P" unicode="P" horiz-adv-x="625" d="M607 475 Q607 437 598 401.5 Q589 366 568 334 Q548 304 522.5 286 Q497 268 467.5 257.5 Q438 247 406 243.5 Q374 240 341 240 L214 240 L214 0 L82 0 L82 706 L331 706 Q364 706 395.5 703 Q427 700 455.5 690.5 Q484 681 510 664 Q536 647 558 620 Q584 588 595.5 551.5 Q607 515 607 475 Z M471 477 Q471 494 467.5 511 Q464 528 454 542 Q442 560 426 570.5 Q410 581 392 586 Q374 591 354.5 592 Q335 593 315 593 L214 593 L214 348 L309 348 Q332 348 354.5 349.5 Q377 351 397 358 Q417 365 433 378 Q449 391 459 415 Q466 430 468.5 445.5 Q471 461 471 477 Z " />
<glyph glyph-name="Q" unicode="Q" horiz-adv-x="771" d="M743 -28 Q705 -20 663 6 Q621 32 593 60 Q546 20 487.5 1 Q429 -18 368 -18 Q289 -18 227 11.5 Q165 41 122.5 92 Q80 143 58 210 Q36 277 36 352 Q36 427 58.5 494.5 Q81 562 123.5 613 Q166 664 228.5 694 Q291 724 371 724 Q451 724 514 696 Q577 668 620.5 619.5 Q664 571 687 504.5 Q710 438 710 361 Q710 337 706.5 309 Q703 281 696.5 252.5 Q690 224 680.5 197.5 Q671 171 659 151 Q664 139 677 129 Q690 119 705.5 112 Q721 105 737.5 101 Q754 97 766 97 Q775 97 780 99 L743 -28 Z M568 357 Q568 401 555.5 444.5 Q543 488 518 522 Q493 556 455.5 577 Q418 598 369 598 Q320 598 284 575 Q248 552 224 516 Q200 480 188.5 436 Q177 392 177 350 Q177 305 190 262 Q203 219 228 184.5 Q253 150 291 129 Q329 108 378 108 Q428 108 464 130.5 Q500 153 523 189 Q546 225 557 269.5 Q568 314 568 357 Z " />
<glyph glyph-name="R" unicode="R" horiz-adv-x="646" d="M470 0 L331 262 L212 262 L212 0 L81 0 L81 706 L341 706 Q374 706 404.5 703 Q435 700 462.5 691 Q490 682 514.5 665 Q539 648 560 620 Q583 590 593 555 Q603 520 603 483 Q603 414 567 361 Q531 308 464 288 L621 0 L470 0 Z M469 484 Q469 514 458 535 Q447 556 428.5 568.5 Q410 581 385.5 587 Q361 593 335 593 Q304 593 273.5 592.5 Q243 592 212 592 L212 372 L298 372 Q328 372 358.5 374.5 Q389 377 413.5 388 Q438 399 453.5 421.5 Q469 444 469 484 Z " />
<glyph glyph-name="S" unicode="S" horiz-adv-x="667" d="M632 209 Q632 145 604.5 101.5 Q577 58 533 31.5 Q489 5 434.5 -6.5 Q380 -18 327 -18 Q258 -18 191 3.5 Q124 25 73 72 Q60 84 45.5 100.5 Q31 117 23 133 L134 210 Q139 202 144.5 195 Q150 188 156 181 Q193 139 244.5 121.5 Q296 104 351 104 Q373 104 397.5 108 Q422 112 442 122.5 Q462 133 475.5 151 Q489 169 489 196 Q489 222 475 238 Q461 254 440.5 263.5 Q420 273 396.5 278.5 Q373 284 353 288 L269 307 Q252 311 236 314.5 Q220 318 203 323 Q137 344 99 388 Q61 432 61 504 Q61 563 85.5 604.5 Q110 646 150 672.5 Q190 699 240 711.5 Q290 724 341 724 Q418 724 483.5 696.5 Q549 669 601 611 Q608 603 613.5 596 Q619 589 625 581 L516 500 Q483 551 441 578 Q399 605 336 605 Q317 605 293 601 Q269 597 248.5 587 Q228 577 214 560.5 Q200 544 200 519 Q200 495 213.5 480.5 Q227 466 247 457 Q267 448 289.5 443.5 Q312 439 330 435 Q380 424 433.5 411.5 Q487 399 531 376 Q575 353 603.5 313.5 Q632 274 632 209 Z " />
<glyph glyph-name="T" unicode="T" horiz-adv-x="562" d="M346 587 L346 0 L214 0 L214 587 L22 587 L22 706 L541 706 L541 587 L346 587 Z " />
<glyph glyph-name="U" unicode="U" horiz-adv-x="729" d="M649 255 Q649 229 647.5 200 Q646 171 638 146 Q624 101 595 70 Q566 39 528 19 Q490 -1 446 -9.5 Q402 -18 359 -18 Q316 -18 273 -9 Q230 0 193.5 20 Q157 40 129.5 72 Q102 104 89 149 Q81 178 80.5 209 Q80 240 80 270 L80 706 L213 706 L213 255 Q213 241 215 221.5 Q217 202 222 188 Q241 142 280 126 Q319 110 365 110 Q412 110 452 128 Q492 146 509 194 Q516 213 516.5 236 Q517 259 517 279 L517 706 L649 706 L649 255 Z " />
<glyph glyph-name="V" unicode="V" horiz-adv-x="604" d="M394 0 L216 0 L8 706 L147 706 L305 149 L459 706 L595 706 L394 0 Z " />
<glyph glyph-name="W" unicode="W" horiz-adv-x="833" d="M668 0 L514 0 L415 491 L313 0 L159 0 L12 706 L147 706 L243 168 L353 706 L476 706 L588 168 L687 706 L823 706 L668 0 Z " />
<glyph glyph-name="X" unicode="X" horiz-adv-x="646" d="M488 0 L323 261 L162 0 L9 0 L246 383 L43 706 L195 706 L323 504 L446 706 L599 706 L400 383 L639 0 L488 0 Z " />
<glyph glyph-name="Y" unicode="Y" horiz-adv-x="625" d="M377 279 L377 0 L246 0 L246 279 L10 706 L160 706 L313 414 L467 706 L615 706 L377 279 Z " />
<glyph glyph-name="Z" unicode="Z" horiz-adv-x="604" d="M24 0 L24 108 L410 588 L57 588 L57 706 L575 706 L575 594 L204 119 L575 119 L575 0 L24 0 Z " />
<glyph glyph-name="bracketleft" unicode="&#x5b;" horiz-adv-x="285" d="M59 -144 L59 779 L264 779 L264 706 L167 706 L167 -72 L264 -72 L264 -144 L59 -144 Z " />
<glyph glyph-name="backslash" unicode="&#x5c;" horiz-adv-x="479" d="M348 0 L13 706 L132 706 L467 0 L348 0 Z " />
<glyph glyph-name="bracketright" unicode="&#x5d;" horiz-adv-x="285" d="M20 -144 L20 -71 L117 -71 L117 707 L20 707 L20 779 L225 779 L225 -144 L20 -144 Z " />
<glyph glyph-name="asciicircum" unicode="&#x5e;" horiz-adv-x="724" d="M502 284 L366 592 L228 284 L92 284 L301 706 L427 706 L633 284 L502 284 Z " />
<glyph glyph-name="underscore" unicode="&#x5f;" horiz-adv-x="500" d="M-10 -228 L-10 -125 L510 -125 L510 -228 L-10 -228 Z " />
<glyph glyph-name="grave" unicode="&#x60;" horiz-adv-x="271" d="M147 573 L35 706 L184 706 L236 573 L147 573 Z " />
<glyph glyph-name="a" unicode="a" horiz-adv-x="542" d="M358 0 Q357 10 356.5 19.5 Q356 29 356 39 Q327 15 286 1.5 Q245 -12 208 -12 Q172 -12 139.5 -2 Q107 8 81.5 28 Q56 48 41 77 Q26 106 26 145 Q26 196 57 236 Q75 259 97 272.5 Q119 286 144 294.5 Q169 303 195 308 Q221 313 248 319 Q276 325 303.5 332 Q331 339 358 347 Q358 358 356.5 370 Q355 382 349 391 Q336 410 315 416 Q294 422 273 422 Q254 422 235.5 419 Q217 416 203 407.5 Q189 399 180 384.5 Q171 370 171 347 L49 354 Q49 371 54 390 Q59 409 67 424 Q81 451 103 469 Q125 487 152 497 Q179 507 208.5 511 Q238 515 266 515 Q293 515 323 512 Q353 509 381 500 Q409 491 432 474 Q455 457 467 430 Q475 414 476.5 394 Q478 374 478 357 L478 70 Q478 47 482.5 33.5 Q487 20 500 0 L358 0 Z M358 249 Q328 235 292 227 Q279 224 260.5 221 Q242 218 223.5 213.5 Q205 209 189 202 Q173 195 164 183 Q153 167 153 150 Q153 133 160.5 121.5 Q168 110 179.5 103.5 Q191 97 205.5 94 Q220 91 234 91 Q255 91 277 96.5 Q299 102 317 113 Q335 124 346.5 141.5 Q358 159 358 184 L358 249 Z " />
<glyph glyph-name="b" unicode="b" horiz-adv-x="583" d="M547 254 Q547 203 532 154.5 Q517 106 487.5 68.5 Q458 31 415.5 8 Q373 -15 317 -15 Q276 -15 242.5 3.5 Q209 22 183 52 L183 0 L64 0 L64 706 L183 706 L183 458 Q215 485 250.5 500 Q286 515 328 515 Q356 515 382.5 506.5 Q409 498 432 484 Q492 447 519.5 384.5 Q547 322 547 254 Z M424 260 Q424 288 416 314.5 Q408 341 392.5 361 Q377 381 353.5 393.5 Q330 406 299 406 Q268 406 246 393 Q224 380 210 359 Q196 338 189 311.5 Q182 285 182 258 Q182 229 188.5 200.5 Q195 172 209 149.5 Q223 127 246.5 113 Q270 99 304 99 Q337 99 360 113.5 Q383 128 397 151.5 Q411 175 417.5 203.5 Q424 232 424 260 Z " />
<glyph glyph-name="c" unicode="c" horiz-adv-x="500" d="M497 141 Q486 105 462.5 76.5 Q439 48 408.5 27.5 Q378 7 342 -4 Q306 -15 270 -15 Q214 -15 168.5 6.5 Q123 28 91 64.5 Q59 101 41.5 149 Q24 197 24 250 Q24 304 42.5 352.5 Q61 401 94 437 Q127 473 173.5 494 Q220 515 276 515 Q349 515 406 477.5 Q463 440 492 373 L385 323 Q372 362 342.5 385 Q313 408 271 408 Q239 408 215.5 394.5 Q192 381 177 359 Q162 337 155 309.5 Q148 282 148 253 Q148 224 155.5 196 Q163 168 178.5 146 Q194 124 218 110.5 Q242 97 275 97 Q301 97 319.5 104.5 Q338 112 351.5 125 Q365 138 375.5 156 Q386 174 395 195 L497 141 Z " />
<glyph glyph-name="d" unicode="d" horiz-adv-x="583" d="M397 0 L397 49 Q371 16 335.5 0.5 Q300 -15 258 -15 Q203 -15 161.5 6 Q120 27 92 62 Q64 97 50 143 Q36 189 36 240 L36 243 Q36 293 50.5 342 Q65 391 93.5 429.5 Q122 468 164.5 491.5 Q207 515 263 515 Q302 515 336.5 501.5 Q371 488 397 459 L397 706 L516 706 L516 0 L397 0 Z M396 243 Q396 271 391 299.5 Q386 328 373 351.5 Q360 375 338 389.5 Q316 404 282 404 Q251 404 228 391 Q205 378 190 356.5 Q175 335 168 308 Q161 281 161 253 Q161 226 167 198 Q173 170 187 147 Q201 124 223 109 Q245 94 277 94 Q309 94 331.5 106.5 Q354 119 368 140 Q382 161 389 188 Q396 215 396 243 Z " />
<glyph glyph-name="e" unicode="e" horiz-adv-x="562" d="M535 112 Q524 98 513.5 85.5 Q503 73 490 61 Q449 23 397.5 4 Q346 -15 291 -15 Q232 -15 184.5 5 Q137 25 103.5 60 Q70 95 52 143.5 Q34 192 34 250 Q34 282 39 314.5 Q44 347 58 377 Q90 446 149 480.5 Q208 515 283 515 Q343 515 398.5 491 Q454 467 486 413 Q509 375 520 323 Q531 271 531 226 L161 226 Q172 166 207.5 134 Q243 102 303 102 Q388 102 433 171 L535 112 Z M399 314 Q391 362 364.5 390.5 Q338 419 287 419 Q208 419 175 348 Q172 341 169 331.5 Q166 322 165 314 L399 314 Z " />
<glyph glyph-name="f" unicode="f" horiz-adv-x="313" d="M199 415 L199 0 L79 0 L79 415 L4 415 L4 500 L79 500 L79 568 Q79 610 89 637 Q99 664 119 679.5 Q139 695 169.5 701 Q200 707 240 707 Q257 707 274 705.5 Q291 704 308 702 L308 600 Q298 602 288.5 602.5 Q279 603 269 603 Q240 603 225.5 595 Q211 587 205 573.5 Q199 560 199 541 Q199 522 199 500 L308 500 L308 415 L199 415 Z " />
<glyph glyph-name="g" unicode="g" horiz-adv-x="583" d="M520 49 Q520 12 514 -28 Q508 -68 483 -97 Q464 -118 440 -132 Q416 -146 389.5 -153.5 Q363 -161 335 -164 Q307 -167 280 -167 Q235 -167 197 -160.5 Q159 -154 129.5 -136.5 Q100 -119 80 -88.5 Q60 -58 50 -10 L182 -10 Q193 -49 222 -61 Q251 -73 288 -73 Q402 -73 402 39 Q402 50 401.5 61 Q401 72 401 83 Q374 55 332 42 Q290 29 252 29 Q198 29 157.5 47.5 Q117 66 89.5 98 Q62 130 48 174.5 Q34 219 34 270 Q34 345 66 405.5 Q98 466 170 496 Q214 515 259 515 L261 515 Q306 515 340 498.5 Q374 482 401 447 L401 500 L520 500 L520 49 Z M404 268 Q404 297 396.5 322 Q389 347 373.5 366.5 Q358 386 335 397 Q312 408 281 408 Q251 408 228 397.5 Q205 387 189.5 368.5 Q174 350 165.5 325.5 Q157 301 157 272 Q157 214 188 176 Q219 138 280 138 Q340 138 372 173.5 Q404 209 404 268 Z " />
<glyph glyph-name="h" unicode="h" horiz-adv-x="583" d="M402 0 L402 275 Q402 290 401.5 310.5 Q401 331 395 345 Q372 401 310 401 Q268 401 233 377 Q198 353 187 311 Q183 297 183 283 Q183 269 183 255 L183 0 L63 0 L63 706 L183 706 L183 449 Q249 515 342 515 Q368 515 395.5 508.5 Q423 502 446 488 Q494 457 507 417.5 Q520 378 520 325 L520 0 L402 0 Z " />
<glyph glyph-name="i" unicode="i" horiz-adv-x="250" d="M65 578 L65 699 L184 699 L184 578 L65 578 Z M65 0 L65 500 L184 500 L184 0 L65 0 Z " />
<glyph glyph-name="j" unicode="j" horiz-adv-x="250" d="M67 579 L67 701 L185 701 L185 579 L67 579 Z M185 -18 Q185 -32 184.5 -54 Q184 -76 179 -89 Q170 -112 153.5 -126 Q137 -140 116.5 -148 Q96 -156 73 -159 Q50 -162 28 -162 Q21 -162 14.5 -162 Q8 -162 1 -161 L1 -52 Q6 -51 12 -51 Q18 -51 23 -49 Q42 -45 51.5 -37.5 Q61 -30 64.5 -19.5 Q68 -9 67.5 5 Q67 19 67 35 L67 500 L185 500 L185 -18 Z " />
<glyph glyph-name="k" unicode="k" horiz-adv-x="542" d="M404 0 L253 224 L183 155 L183 0 L64 0 L64 706 L183 706 L183 309 L378 500 L531 500 L340 309 L550 0 L404 0 Z " />
<glyph glyph-name="l" unicode="l" horiz-adv-x="250" d="M65 0 L65 706 L187 706 L187 0 L65 0 Z " />
<glyph glyph-name="m" unicode="m" horiz-adv-x="875" d="M694 0 L694 276 Q694 299 692 322 Q690 345 681.5 363 Q673 381 656 392 Q639 403 609 403 Q573 403 543 378 Q511 351 504 312 Q497 273 497 235 L497 0 L378 0 L378 300 Q378 320 374 338 Q370 356 360.5 370.5 Q351 385 336 393.5 Q321 402 298 402 Q260 402 232 377 Q214 361 204 341 Q194 321 189.5 299.5 Q185 278 184 255 Q183 232 183 210 L183 0 L63 0 L63 500 L183 500 L183 444 Q195 461 213.5 474 Q232 487 253 496 Q274 505 296.5 510 Q319 515 340 515 Q382 515 421 495.5 Q460 476 480 438 Q506 477 551 496 Q596 515 642 515 Q699 515 743.5 489 Q788 463 805 406 Q811 386 812 366.5 Q813 347 813 327 L813 0 L694 0 Z " />
<glyph glyph-name="n" unicode="n" horiz-adv-x="562" d="M382 0 L382 283 Q382 305 378 326 Q374 347 364 363 Q354 379 337 388.5 Q320 398 294 398 Q280 398 263.5 392.5 Q247 387 236 379 Q202 353 193 317 Q184 281 184 241 L184 0 L63 0 L63 500 L184 500 L184 441 Q211 479 252.5 497 Q294 515 339 515 Q362 515 386 509 Q410 503 430 491 Q455 476 469 456.5 Q483 437 490 414 Q497 391 498.5 366 Q500 341 500 314 L500 0 L382 0 Z " />
<glyph glyph-name="o" unicode="o" horiz-adv-x="583" d="M549 248 Q549 192 530.5 144 Q512 96 478.5 60.5 Q445 25 398 5 Q351 -15 293 -15 Q235 -15 187.5 5.5 Q140 26 106 62 Q72 98 53.5 147 Q35 196 35 252 Q35 309 53.5 357 Q72 405 106 440.5 Q140 476 187.5 495.5 Q235 515 293 515 Q350 515 397.5 494.5 Q445 474 478.5 438 Q512 402 530.5 353 Q549 304 549 248 Z M424 248 Q424 278 415.5 307 Q407 336 390 358 Q373 380 347.5 393.5 Q322 407 289 407 Q256 407 232 394 Q208 381 192 359.5 Q176 338 168 310.5 Q160 283 160 253 Q160 223 169 194.5 Q178 166 195 144 Q212 122 237.5 108.5 Q263 95 296 95 Q329 95 353 108 Q377 121 392.5 142.5 Q408 164 416 191.5 Q424 219 424 248 Z " />
<glyph glyph-name="p" unicode="p" horiz-adv-x="583" d="M548 246 Q548 195 533 148 Q518 101 489 65 Q460 29 418 7 Q376 -15 321 -15 Q279 -15 246.5 -0.5 Q214 14 184 41 L184 -163 L64 -163 L64 500 L184 500 L184 455 Q213 485 245 500 Q277 515 320 515 Q376 515 418.5 492 Q461 469 489.5 431.5 Q518 394 533 345.5 Q548 297 548 246 Z M425 251 Q425 280 417.5 306.5 Q410 333 394.5 354 Q379 375 356 387.5 Q333 400 302 400 Q271 400 248.5 386.5 Q226 373 211 351.5 Q196 330 189 303 Q182 276 182 248 Q182 220 189.5 193.5 Q197 167 212 146 Q227 125 250 112 Q273 99 304 99 Q336 99 359 112 Q382 125 396.5 146.5 Q411 168 418 195.5 Q425 223 425 251 Z " />
<glyph glyph-name="q" unicode="q" horiz-adv-x="562" d="M389 -163 L389 47 Q357 15 324 0 Q291 -15 245 -15 Q190 -15 148.5 7 Q107 29 79.5 65 Q52 101 38.5 148 Q25 195 25 245 Q25 286 33.5 324.5 Q42 363 60 396 Q78 429 106 456 Q134 483 173 499 Q192 507 212.5 511 Q233 515 253 515 Q293 515 329.5 497 Q366 479 389 447 L389 500 L508 500 L508 -163 L389 -163 Z M389 245 Q389 273 382 300.5 Q375 328 360.5 349.5 Q346 371 323.5 384.5 Q301 398 269 398 Q238 398 215 384.5 Q192 371 177 349.5 Q162 328 155 301 Q148 274 148 246 Q148 218 154.5 190.5 Q161 163 175.5 142 Q190 121 213 108 Q236 95 269 95 Q301 95 323.5 108 Q346 121 360.5 142 Q375 163 382 190 Q389 217 389 245 Z " />
<glyph glyph-name="r" unicode="r" horiz-adv-x="354" d="M339 388 Q253 388 216.5 347.5 Q180 307 180 226 L180 210 L180 0 L64 0 L64 500 L180 500 L180 429 Q204 477 246 494 Q288 511 339 511 L339 388 Z " />
<glyph glyph-name="s" unicode="s" horiz-adv-x="521" d="M487 154 Q487 137 482 119.5 Q477 102 469 87 Q454 59 431 39.5 Q408 20 380 8 Q352 -4 321.5 -9.5 Q291 -15 261 -15 L258 -15 Q194 -15 131 7 Q68 29 22 75 L111 148 Q138 115 175.5 99.5 Q213 84 255 84 Q268 84 285 87 Q302 90 317.5 96.5 Q333 103 343.5 114.5 Q354 126 354 142 Q354 154 347.5 162.5 Q341 171 331 177 Q323 182 303.5 186.5 Q284 191 261.5 195.5 Q239 200 217.5 203.5 Q196 207 184 210 Q157 217 131.5 228.5 Q106 240 86.5 257 Q67 274 55.5 298 Q44 322 44 353 Q44 381 54.5 405 Q65 429 82.5 448 Q100 467 123 481 Q146 495 171 503 Q192 510 212.5 512.5 Q233 515 254 515 L259 515 Q322 515 377 492.5 Q432 470 474 422 L389 343 Q369 384 333 401.5 Q297 419 253 419 Q242 419 227.5 416.5 Q213 414 200.5 408.5 Q188 403 179 393.5 Q170 384 170 369 Q170 353 179 343.5 Q188 334 201.5 328 Q215 322 230 318.5 Q245 315 257 313 Q276 309 300.5 305.5 Q325 302 350 296.5 Q375 291 397.5 283 Q420 275 435 263 Q487 221 487 154 Z " />
<glyph glyph-name="t" unicode="t" horiz-adv-x="313" d="M304 4 Q283 -1 261 -2.5 Q239 -4 217 -4 Q198 -4 178 -2 Q158 0 140 6.5 Q122 13 107.5 25 Q93 37 85 57 Q82 64 80.5 74.5 Q79 85 78 96 Q77 107 77 118 Q77 129 77 136 L77 415 L4 415 L4 500 L77 500 L77 678 L197 678 L197 500 L304 500 L304 415 L197 415 L197 165 Q197 131 207.5 115 Q218 99 255 99 Q279 99 304 105 L304 4 Z " />
<glyph glyph-name="u" unicode="u" horiz-adv-x="583" d="M397 0 L397 52 Q360 19 323 3.5 Q286 -12 235 -12 Q144 -12 103 38 Q62 88 62 173 L62 500 L183 500 L183 216 Q183 181 190.5 154.5 Q198 128 233 111 Q244 106 256 103.5 Q268 101 280 101 Q299 101 318.5 107 Q338 113 352 126 Q370 142 379.5 161 Q389 180 393 201 Q397 222 397 244 Q397 266 397 288 L397 500 L517 500 L517 0 L397 0 Z " />
<glyph glyph-name="v" unicode="v" horiz-adv-x="479" d="M303 0 L175 0 L13 500 L137 500 L241 156 L343 500 L468 500 L303 0 Z " />
<glyph glyph-name="w" unicode="w" horiz-adv-x="750" d="M585 0 L466 0 L376 319 L281 0 L162 0 L17 500 L142 500 L229 158 L322 500 L429 500 L521 158 L610 500 L735 500 L585 0 Z " />
<glyph glyph-name="x" unicode="x" horiz-adv-x="500" d="M356 0 L252 158 L152 0 L9 0 L181 268 L29 500 L170 500 L252 374 L331 500 L474 500 L323 268 L494 0 L356 0 Z " />
<glyph glyph-name="y" unicode="y" horiz-adv-x="479" d="M343 64 Q336 41 328.5 12.5 Q321 -16 311 -44.5 Q301 -73 287.5 -98.5 Q274 -124 255 -140 Q231 -161 204 -166.5 Q177 -172 146 -172 Q129 -172 112 -171 Q95 -170 79 -165 L79 -61 Q87 -62 95 -63 Q103 -64 111 -64 Q142 -64 163 -52.5 Q184 -41 193 -10 L12 500 L141 500 L253 127 L347 500 L470 500 L343 64 Z " />
<glyph glyph-name="z" unicode="z" horiz-adv-x="500" d="M31 0 L31 92 L301 393 L58 393 L58 500 L459 500 L459 407 L195 106 L459 106 L459 0 L31 0 Z " />
<glyph glyph-name="braceleft" unicode="&#x7b;" horiz-adv-x="300" d="M236 -148 Q191 -148 168 -140.5 Q145 -133 128 -113 Q112 -94 106 -70 Q101 -53 100 -37 Q99 -21 99 14 L99 19 L100 174 Q100 204 97 220 Q94 236 89 246 Q80 262 63 269.5 Q46 277 14 280 L14 355 Q37 357 48 359.5 Q59 362 70 369 Q87 380 93.5 398.5 Q100 417 100 461 L99 615 L99 621 Q99 655 100 671 Q101 687 106 704 Q113 730 128 747 Q145 767 168.5 774.5 Q192 782 235 782 L287 782 L288 710 L271 710 Q238 710 224 695 Q216 683 213 673 Q210 662 209.5 649.5 Q209 637 209 602 L209 452 Q209 421 205.5 399.5 Q202 378 192.5 362.5 Q183 347 167 336.5 Q151 326 127 316 Q144 311 153 306.5 Q162 302 173 292 Q193 275 201 251.5 Q209 228 209 183 L209 32 Q209 -3 209.5 -15 Q210 -27 213 -38 Q224 -76 274 -76 L288 -76 L288 -148 L236 -148 Z " />
<glyph glyph-name="bar" unicode="&#x7c;" horiz-adv-x="247" d="M68 -143 L68 779 L177 779 L177 -143 L68 -143 Z " />
<glyph glyph-name="braceright" unicode="&#x7d;" horiz-adv-x="300" d="M286 279 Q263 277 252 274.5 Q241 272 230 265 Q213 254 206.5 235.5 Q200 217 200 173 L201 19 L201 13 Q201 -21 199.5 -37 Q198 -53 194 -70 Q188 -95 171 -113 Q154 -133 131 -140.5 Q108 -148 65 -148 L12 -148 L12 -76 L29 -77 Q59 -78 75 -61 Q84 -50 87 -39 Q90 -28 90.5 -15.5 Q91 -3 91 32 L91 182 Q91 213 94.5 234.5 Q98 256 107.5 271 Q117 286 133 297 Q149 308 173 318 Q156 323 146.5 327 Q137 331 126 341 Q106 359 98.5 382.5 Q91 406 91 451 L91 602 Q91 636 90 648.5 Q89 661 86 672 Q77 710 26 710 L12 710 L12 782 L64 782 Q109 782 131.5 774.5 Q154 767 171 747 Q188 727 194 704 Q198 687 199.5 671 Q201 655 201 620 L201 615 L200 460 Q200 430 202 414 Q204 398 210 387 Q218 372 236 364.5 Q254 357 286 354 L286 279 Z " />
<glyph glyph-name="asciitilde" unicode="&#x7e;" horiz-adv-x="724" d="M653 310 Q630 281 615 267.5 Q600 254 580 240 Q535 211 488 211 Q464 211 438 219 Q412 227 367 249 L332 266 Q297 283 273.5 289.5 Q250 296 228 296 Q210 296 195 290 Q178 283 164.5 270.5 Q151 258 126 229 L116 217 L72 318 Q91 344 101 355.5 Q111 367 125 379 Q170 418 230 418 Q243 418 255 416.5 Q267 415 281.5 410.5 Q296 406 314 398.5 Q332 391 357 380 L408 357 Q443 341 458 336.5 Q473 332 487 332 Q504 332 521.5 338 Q539 344 553 355 Q567 365 577.5 375.5 Q588 386 608 410 L653 310 Z " />
<glyph glyph-name="nbspace" unicode="&#xa0;" horiz-adv-x="288" d="" />
<glyph glyph-name="exclamdown" unicode="&#xa1;" horiz-adv-x="250" d="M40 568 L40 706 L171 706 L171 568 L40 568 Z M40 0 L40 271 Q40 297 44.5 314.5 Q49 332 53 358 L78 531 L134 531 L159 358 Q163 332 167 314.5 Q171 297 171 271 L171 0 L40 0 Z " />
<glyph glyph-name="cent" unicode="&#xa2;" horiz-adv-x="500" d="M494 143 Q488 127 481 112 Q474 97 464 83 Q443 52 411 28 Q379 4 341 -4 Q333 -6 326.5 -6.5 Q320 -7 312 -9 L312 -108 L234 -108 L234 -9 Q182 -2 142.5 21.5 Q103 45 76 80.5 Q49 116 35.5 160.5 Q22 205 22 255 Q22 359 77 430 Q132 501 235 522 L235 621 L313 621 L313 522 Q348 518 374 506.5 Q400 495 420.5 477.5 Q441 460 457.5 436.5 Q474 413 490 384 L384 334 Q374 358 356.5 383 Q339 408 311 413 L311 105 Q343 114 364 140 Q385 166 392 198 L494 143 Z M233 414 Q183 390 164 351.5 Q145 313 145 260 Q145 236 149 212.5 Q153 189 163.5 168.5 Q174 148 191 132.5 Q208 117 233 109 L233 414 Z " />
<glyph glyph-name="sterling" unicode="&#xa3;" horiz-adv-x="625" d="M594 222 Q594 184 587.5 143 Q581 102 563.5 68.5 Q546 35 516 13.5 Q486 -8 439 -8 Q397 -8 365 7 Q333 22 298 39 Q267 24 236 8 Q205 -8 169 -8 Q118 -8 83.5 22 Q49 52 49 105 Q49 157 80.5 186 Q112 215 163 215 Q181 215 199 210.5 Q217 206 234 200 Q237 209 237 218 Q237 235 229.5 249.5 Q222 264 209 275 L79 275 L79 381 L160 381 Q139 407 128 436 Q117 465 117 499 Q117 529 125 558 Q133 587 152 611 Q169 632 191.5 648 Q214 664 239.5 674.5 Q265 685 292.5 690 Q320 695 346 695 Q378 695 410 687.5 Q442 680 471 663 Q528 630 547.5 581 Q567 532 567 469 Q567 460 566.5 451.5 Q566 443 566 434 L436 434 Q441 457 441 477 Q441 521 413.5 552 Q386 583 341 583 Q302 583 275.5 556 Q249 529 249 490 Q249 458 264.5 431.5 Q280 405 298 381 L421 381 L421 275 L343 275 Q345 257 347 239.5 Q349 222 349 204 Q349 188 347 173.5 Q345 159 343 143 Q357 132 375 123 Q393 114 411 114 Q433 114 444.5 126.5 Q456 139 460.5 157.5 Q465 176 465 196.5 Q465 217 465 232 L594 232 L594 222 Z M210 106 Q202 113 192 118 Q182 123 172 123 Q161 123 152.5 117.5 Q144 112 144 100 Q144 89 154 84 Q164 79 172 79 Q185 79 195 86.5 Q205 94 210 106 Z " />
<glyph glyph-name="currency" unicode="&#xa4;" horiz-adv-x="666" d="M557 492 Q584 449 594.5 415 Q605 381 605 339 Q605 296 593.5 260.5 Q582 225 556 184 L634 106 L563 36 L485 114 Q463 101 444 91.5 Q425 82 407.5 77 Q390 72 372 69.5 Q354 67 332 67 Q287 67 253.5 77.5 Q220 88 179 115 L101 38 L31 108 L109 185 Q83 222 71.5 258 Q60 294 60 339 Q60 384 71 418.5 Q82 453 109 493 L32 569 L102 639 L179 563 Q215 589 252 600.5 Q289 612 334 612 Q377 612 413 600.5 Q449 589 486 563 L564 640 L635 569 L557 492 Z M497 337 Q497 373 484.5 403.5 Q472 434 450 456.5 Q428 479 398 492 Q368 505 333 505 Q298 505 268 492.5 Q238 480 216 457.5 Q194 435 181.5 405 Q169 375 169 340 Q169 305 181.5 274.5 Q194 244 216.5 221.5 Q239 199 269.5 186.5 Q300 174 335 174 Q369 174 398.5 186.5 Q428 199 450 221 Q472 243 484.5 273 Q497 303 497 337 Z " />
<glyph glyph-name="yen" unicode="&#xa5;" horiz-adv-x="604" d="M456 430 L540 430 L540 331 L398 331 L364 270 L540 270 L540 171 L364 171 L364 0 L235 0 L235 171 L58 171 L58 270 L234 270 L203 331 L58 331 L58 430 L147 430 L3 686 L152 686 L301 401 L454 686 L601 686 L456 430 Z " />
<glyph glyph-name="brokenbar" unicode="&#xa6;" horiz-adv-x="247" d="M69 376 L69 778 L178 778 L178 376 L69 376 Z M69 -144 L69 257 L178 257 L178 -144 L69 -144 Z " />
<glyph glyph-name="section" unicode="&#xa7;" horiz-adv-x="646" d="M604 330 Q604 276 574.5 234.5 Q545 193 497 170 Q516 150 527 128.5 Q538 107 538 78 Q538 39 519 12 Q500 -15 471 -32 Q442 -49 407 -57 Q372 -65 340 -65 Q277 -65 209.5 -44.5 Q142 -24 91 14 L149 96 Q191 69 238 52 Q285 35 336 35 Q346 35 358 37 Q370 39 380 43.5 Q390 48 397 56 Q404 64 404 77 Q404 95 377.5 110 Q351 125 310.5 142 Q270 159 223.5 179 Q177 199 136.5 226.5 Q96 254 69.5 290.5 Q43 327 43 376 Q43 431 74.5 465.5 Q106 500 149 525 Q110 559 110 613 Q110 652 128 679.5 Q146 707 173.5 725 Q201 743 235.5 751 Q270 759 303 759 Q365 759 427 741.5 Q489 724 540 692 L484 608 Q444 626 402.5 642.5 Q361 659 316 659 Q309 659 296.5 658 Q284 657 272.5 653 Q261 649 252.5 643 Q244 637 244 626 Q244 616 250.5 608 Q257 600 266 594 Q275 588 285 583.5 Q295 579 303 576 L396 536 Q431 521 467.5 503.5 Q504 486 534.5 462 Q565 438 584.5 406 Q604 374 604 330 Z M470 308 Q470 334 457 351 Q444 369 414.5 386 Q385 403 350.5 418 Q316 433 283 445.5 Q250 458 229 467 Q206 459 188 441 Q170 423 170 396 Q170 378 178 364.5 Q186 351 198.5 341 Q211 331 226 323.5 Q241 316 255 310 Q269 303 283 297 Q297 291 311 285 Q340 271 368.5 257.5 Q397 244 426 230 Q444 244 457 264.5 Q470 285 470 308 Z " />
<glyph glyph-name="dieresis" unicode="&#xa8;" horiz-adv-x="271" d="M178 587 L178 706 L293 706 L293 587 L178 587 Z M-22 587 L-22 706 L91 706 L91 587 L-22 587 Z " />
<glyph glyph-name="copyright" unicode="&#xa9;" horiz-adv-x="818" d="M765 360 Q765 282 738 216 Q711 150 663 101 Q615 52 550 24.5 Q485 -3 408 -3 Q334 -3 269.5 25 Q205 53 157 101 Q109 149 81 214 Q53 279 53 353 Q53 427 81 492 Q109 557 157 605 Q205 653 270 681 Q335 709 410 709 Q483 709 547.5 681.5 Q612 654 660.5 606.5 Q709 559 737 495.5 Q765 432 765 360 Z M725 346 Q725 416 701 475.5 Q677 535 634.5 578.5 Q592 622 534.5 647 Q477 672 409 672 Q344 672 286.5 647 Q229 622 186.5 578.5 Q144 535 119 476.5 Q94 418 94 352 Q94 285 118.5 227 Q143 169 185.5 126 Q228 83 285.5 58.5 Q343 34 409 34 Q474 34 531 59 Q588 84 631.5 126.5 Q675 169 700 225.5 Q725 282 725 346 Z M581 203 Q540 157 502 138 Q464 119 413 119 Q367 119 329 136 Q291 153 264 183.5 Q237 214 222 256.5 Q207 299 207 351 Q207 401 222.5 444 Q238 487 265.5 518 Q293 549 331 566.5 Q369 584 413 584 Q440 584 461.5 580 Q483 576 503 566 Q523 556 541.5 540 Q560 524 581 501 L518 436 Q489 470 466.5 482.5 Q444 495 415 495 Q366 495 336.5 456 Q307 417 307 352 Q307 286 336 248 Q365 210 414 210 Q446 210 469 222.5 Q492 235 518 266 L581 203 Z " />
<glyph glyph-name="ordfeminine" unicode="&#xaa;" horiz-adv-x="333" d="M233 426 Q231 431 229 436.5 Q227 442 226 448 Q206 435 183.5 427.5 Q161 420 137 420 Q97 420 68 444 Q39 468 39 510 Q39 546 58.5 564 Q78 582 106.5 591 Q135 600 166.5 604.5 Q198 609 222 618 L222 623 Q222 645 208.5 652.5 Q195 660 175 660 Q153 660 137.5 652 Q122 644 122 619 L52 624 Q53 649 64 666 Q75 683 92.5 693.5 Q110 704 131 709 Q152 714 173 714 Q193 714 213.5 710.5 Q234 707 251 698 Q268 689 279 674 Q290 659 290 635 L290 466 Q290 446 302 426 L233 426 Z M220 560 Q209 557 197 553.5 Q185 550 174 548 Q166 546 155.5 544.5 Q145 543 135 539 Q125 535 118.5 528.5 Q112 522 112 510 Q112 493 125 487 Q138 481 152 481 Q175 481 197.5 491.5 Q220 502 220 530 L220 560 Z " />
<glyph glyph-name="guillemotleft" unicode="&#xab;" horiz-adv-x="437" d="M240 244 L240 385 L383 499 L383 385 L297 314 L383 244 L383 132 L240 244 Z M59 244 L59 385 L201 497 L201 385 L113 313 L201 244 L201 133 L59 244 Z " />
<glyph glyph-name="logicalnot" unicode="&#xac;" horiz-adv-x="724" d="M505 16 L505 258 L69 258 L69 367 L635 367 L635 16 L505 16 Z " />
<glyph glyph-name="registered" unicode="&#xae;" horiz-adv-x="827" d="M770 360 Q770 282 743 216 Q716 150 668 101 Q620 52 555 24.5 Q490 -3 413 -3 Q339 -3 274.5 25 Q210 53 162 101 Q114 149 86 214 Q58 279 58 353 Q58 427 86 492 Q114 557 162 605 Q210 653 275 681 Q340 709 414 709 Q487 709 552 681.5 Q617 654 665.5 606.5 Q714 559 742 495.5 Q770 432 770 360 Z M730 347 Q730 416 706 475.5 Q682 535 639.5 578.5 Q597 622 539 647 Q481 672 413 672 Q348 672 290.5 647 Q233 622 190.5 578.5 Q148 535 123 476.5 Q98 418 98 352 Q98 286 122.5 228 Q147 170 190 127 Q233 84 290 59 Q347 34 413 34 Q478 34 535.5 59 Q593 84 636.5 126.5 Q680 169 705 226 Q730 283 730 347 Z M478 134 L415 303 L357 303 L356 134 L263 134 L263 580 L410 580 Q437 580 466 577 Q495 574 518 560 Q546 543 562 510.5 Q578 478 578 439 Q578 396 560.5 368 Q543 340 502 319 L580 134 L478 134 Z M484 439 Q484 496 417 496 L356 496 L356 381 L414 381 Q451 381 467.5 395 Q484 409 484 439 Z " />
<glyph glyph-name="macron" unicode="&#xaf;" horiz-adv-x="271" d="M-35 586 L-35 676 L306 676 L306 586 L-35 586 Z " />
<glyph glyph-name="degree" unicode="&#xb0;" horiz-adv-x="354" d="M349 582 Q349 547 335.5 515.5 Q322 484 298.5 460.5 Q275 437 243.5 423.5 Q212 410 177 410 Q142 410 110.5 423.5 Q79 437 55.5 460.5 Q32 484 18.5 515.5 Q5 547 5 582 Q5 618 18.5 649.5 Q32 681 55 704.5 Q78 728 109.5 741.5 Q141 755 177 755 Q213 755 244.5 741.5 Q276 728 299 704.5 Q322 681 335.5 649.5 Q349 618 349 582 Z M249 582 Q249 612 227.5 632.5 Q206 653 177 653 Q147 653 126 632.5 Q105 612 105 582 Q105 553 126.5 531.5 Q148 510 177 510 Q206 510 227.5 531.5 Q249 553 249 582 Z " />
<glyph glyph-name="plusminus" unicode="&#xb1;" horiz-adv-x="724" d="M427 365 L427 162 L297 162 L297 365 L93 365 L93 472 L297 472 L297 671 L427 671 L427 472 L631 472 L631 365 L427 365 Z M93 0 L93 107 L631 107 L631 0 L93 0 Z " />
<glyph glyph-name="twosuperior" unicode="&#xb2;" horiz-adv-x="375" d="M36 233 L36 299 Q56 313 81.5 332.5 Q107 352 132 374.5 Q157 397 178.5 420 Q200 443 212 464 Q223 482 229.5 501 Q236 520 236 541 Q236 566 222.5 584.5 Q209 603 182 603 Q160 603 148 593.5 Q136 584 130.5 569 Q125 554 124 536 Q123 518 121 502 L34 509 Q36 523 37 537.5 Q38 552 41 566 Q54 621 89 651 Q124 681 182 681 Q245 681 287 646.5 Q329 612 329 545 Q329 504 312 470 Q295 436 268.5 406.5 Q242 377 211 352 Q180 327 151 304 L338 304 L338 233 L36 233 Z " />
<glyph glyph-name="threesuperior" unicode="&#xb3;" horiz-adv-x="375" d="M336 366 Q336 332 323.5 305.5 Q311 279 289.5 261 Q268 243 239.5 234 Q211 225 179 225 Q131 225 90.5 244.5 Q50 264 31 311 Q23 329 22 345 Q21 361 21 380 L108 380 Q110 345 124.5 321.5 Q139 298 179 298 Q211 298 229 318 Q247 338 247 368 Q247 391 237.5 403.5 Q228 416 213 422 Q198 428 180 429.5 Q162 431 145 431 L145 502 L177 502 Q201 502 219.5 513 Q238 524 238 551 Q238 578 222 591.5 Q206 605 180 605 Q145 605 133 583 Q121 561 117 532 L32 551 Q41 613 83.5 647 Q126 681 187 681 Q214 681 239.5 673 Q265 665 284.5 649.5 Q304 634 315.5 611.5 Q327 589 327 560 Q327 524 307.5 502 Q288 480 255 469 Q294 455 315 433 Q336 411 336 366 Z " />
<glyph glyph-name="acute" unicode="&#xb4;" horiz-adv-x="271" d="M127 573 L36 573 L86 706 L235 706 L127 573 Z " />
<glyph glyph-name="mu" unicode="&#xb5;" horiz-adv-x="597" d="M574 -1 Q540 -10 508 -10 Q463 -10 437 12 Q425 21 419 32 Q413 43 404 69 Q384 25 359 7.5 Q334 -10 292 -10 Q257 -10 234.5 3.5 Q212 17 192 48 L195 -216 L75 -216 L75 499 L198 499 L198 268 Q198 207 202 178.5 Q206 150 218 132 Q229 115 249 104.5 Q269 94 292 94 Q339 94 364.5 133 Q390 172 390 243 L390 289 L390 499 L512 499 L512 151 Q512 116 519 102.5 Q526 89 546 89 Q553 89 558 90.5 Q563 92 574 97 L574 -1 Z " />
<glyph glyph-name="paragraph" unicode="&#xb6;" horiz-adv-x="640" d="M502 636 L502 -167 L428 -167 L428 636 L300 636 L300 -167 L226 -167 L226 311 Q207 315 199.5 317 Q192 319 182 323 Q130 343 100.5 391 Q71 439 71 502 Q71 547 86 585 Q101 623 130 651 Q157 677 193 690 Q216 699 239 702.5 Q262 706 304 706 L537 706 L537 636 L502 636 Z " />
<glyph glyph-name="periodcentered" unicode="&#xb7;" horiz-adv-x="219" d="M43 217 L43 363 L176 363 L176 217 L43 217 Z " />
<glyph glyph-name="cedilla" unicode="&#xb8;" horiz-adv-x="271" d="M236 -111 Q236 -136 220 -151 Q204 -166 180.5 -173.5 Q157 -181 132 -183.5 Q107 -186 89 -186 L63 -186 Q57 -186 51 -186 Q45 -186 40 -185 L40 -154 Q43 -155 50 -155 Q57 -155 69 -155 Q81 -155 92.5 -152.5 Q104 -150 112.5 -145 Q121 -140 121 -130 Q121 -120 113 -115 Q105 -110 94.5 -107.5 Q84 -105 73 -105 Q62 -105 55 -105 Q50 -105 45 -105 Q40 -105 35 -107 L35 -92 L135 12 L180 12 L135 -46 Q151 -46 168.5 -48.5 Q186 -51 201 -58 Q216 -65 226 -78 Q236 -91 236 -111 Z " />
<glyph glyph-name="onesuperior" unicode="&#xb9;" horiz-adv-x="375" d="M172 233 L172 507 Q172 528 158 531 Q144 534 127 534 L64 535 L64 594 Q88 595 109 597.5 Q130 600 146 608.5 Q162 617 172.5 634 Q183 651 186 680 L257 680 L257 233 L172 233 Z " />
<glyph glyph-name="ordmasculine" unicode="&#xba;" horiz-adv-x="333" d="M309 563 Q309 532 298.5 504.5 Q288 477 269 457.5 Q250 438 223.5 426.5 Q197 415 165 415 Q134 415 108 427 Q82 439 63 459 Q44 479 34 506 Q24 533 24 564 Q24 596 34.5 623 Q45 650 64 670.5 Q83 691 109.5 702.5 Q136 714 168 714 Q201 714 227 702 Q253 690 271.5 670 Q290 650 299.5 622.5 Q309 595 309 563 Z M238 567 Q238 599 221 625.5 Q204 652 169 652 Q133 652 115 624.5 Q97 597 97 565 Q97 549 101 533.5 Q105 518 113.5 505.5 Q122 493 135 485.5 Q148 478 167 478 Q185 478 198.5 485.5 Q212 493 221 506 Q230 519 234 535 Q238 551 238 567 Z " />
<glyph glyph-name="guillemotright" unicode="&#xbb;" horiz-adv-x="437" d="M235 131 L235 242 L322 315 L235 383 L235 495 L377 383 L377 242 L235 131 Z M52 129 L52 242 L138 314 L52 383 L52 496 L195 383 L195 242 L52 129 Z " />
<glyph glyph-name="onequarter" unicode="&#xbc;" horiz-adv-x="875" d="M796 99 L796 0 L716 0 L716 101 L522 101 L522 164 L716 442 L799 442 L799 171 L855 171 L855 99 L796 99 Z M307 -37 L238 -6 L553 678 L621 646 L307 -37 Z M172 233 L172 507 Q172 528 158 531 Q144 534 127 534 L64 535 L64 594 Q88 595 109 597.5 Q130 600 146 608.5 Q162 617 172.5 634 Q183 651 186 680 L257 680 L257 233 L172 233 Z M611 172 L719 172 L721 341 L611 172 Z " />
<glyph glyph-name="onehalf" unicode="&#xbd;" horiz-adv-x="875" d="M536 0 L536 67 Q555 80 581 100 Q607 120 633 143 Q659 166 681 190 Q703 214 714 234 Q724 251 730 269.5 Q736 288 736 308 Q736 333 722.5 351.5 Q709 370 682 370 Q661 370 649 360.5 Q637 351 631 336.5 Q625 322 623.5 304.5 Q622 287 621 270 L535 276 Q536 312 544 344 Q552 376 570 399 Q588 422 616 435.5 Q644 449 686 449 Q750 449 789.5 412 Q829 375 829 310 Q829 256 803 218.5 Q777 181 739 146 Q717 126 695 107.5 Q673 89 650 71 L838 71 L838 0 L536 0 Z M298 -37 L229 -6 L544 678 L612 646 L298 -37 Z M172 233 L172 507 Q172 528 158 531 Q144 534 127 534 L64 535 L64 594 Q88 595 109 597.5 Q130 600 146 608.5 Q162 617 172.5 634 Q183 651 186 680 L257 680 L257 233 L172 233 Z " />
<glyph glyph-name="threequarters" unicode="&#xbe;" horiz-adv-x="875" d="M796 99 L796 0 L716 0 L716 101 L522 101 L522 164 L716 442 L799 442 L799 171 L855 171 L855 99 L796 99 Z M331 -37 L262 -6 L577 678 L644 646 L331 -37 Z M336 366 Q336 332 323.5 305.5 Q311 279 289.5 261 Q268 243 239.5 234 Q211 225 179 225 Q131 225 90.5 244.5 Q50 264 31 311 Q23 329 22 345 Q21 361 21 380 L108 380 Q110 345 124.5 321.5 Q139 298 179 298 Q211 298 229 318 Q247 338 247 368 Q247 391 237.5 403.5 Q228 416 213 422 Q198 428 180 429.5 Q162 431 145 431 L145 502 L177 502 Q201 502 219.5 513 Q238 524 238 551 Q238 578 222 591.5 Q206 605 180 605 Q145 605 133 583 Q121 561 117 532 L32 551 Q41 613 83.5 647 Q126 681 187 681 Q214 681 239.5 673 Q265 665 284.5 649.5 Q304 634 315.5 611.5 Q327 589 327 560 Q327 524 307.5 502 Q288 480 255 469 Q294 455 315 433 Q336 411 336 366 Z M611 172 L719 172 L721 341 L611 172 Z " />
<glyph glyph-name="questiondown" unicode="&#xbf;" horiz-adv-x="562" d="M195 569 L195 706 L328 706 L328 569 L195 569 Z M508 219 Q506 196 502.5 173 Q499 150 490 128 Q462 56 401.5 22 Q341 -12 266 -12 Q219 -12 175.5 1.5 Q132 15 99 41.5 Q66 68 46.5 107 Q27 146 27 198 Q27 244 46 282 Q65 320 100 349 Q110 357 120 363.5 Q130 370 140 378 Q159 392 172 402.5 Q185 413 192.5 425.5 Q200 438 203 454.5 Q206 471 206 496 Q206 503 205.5 511 Q205 519 203 525 L321 525 L321 502 Q321 485 320 464 Q319 443 316 422 Q313 401 307 381.5 Q301 362 291 348 Q281 333 267 323 Q253 313 239 303.5 Q225 294 211 283.5 Q197 273 186 259 Q177 247 170.5 231.5 Q164 216 164 200 Q164 178 173 159.5 Q182 141 197 128.5 Q212 116 231.5 109 Q251 102 272 102 Q300 102 321.5 113 Q343 124 357.5 142.5 Q372 161 379.5 185 Q387 209 387 234 L508 219 Z " />
<glyph glyph-name="Agrave" unicode="&#xc0;" horiz-adv-x="646" d="M292 774 L185 895 L327 895 L381 774 L292 774 Z M495 0 L454 138 L189 138 L148 0 L6 0 L245 706 L395 706 L636 0 L495 0 Z M322 579 L224 254 L419 254 L322 579 Z " />
<glyph glyph-name="Aacute" unicode="&#xc1;" horiz-adv-x="646" d="M356 775 L267 775 L321 895 L464 895 L356 775 Z M495 0 L454 138 L189 138 L148 0 L6 0 L245 706 L395 706 L636 0 L495 0 Z M322 579 L224 254 L419 254 L322 579 Z " />
<glyph glyph-name="Acircumflex" unicode="&#xc2;" horiz-adv-x="646" d="M366 773 L324 829 L282 773 L164 773 L265 895 L382 895 L487 773 L366 773 Z M495 0 L454 138 L189 138 L148 0 L6 0 L245 706 L395 706 L636 0 L495 0 Z M322 579 L224 254 L419 254 L322 579 Z " />
<glyph glyph-name="Atilde" unicode="&#xc3;" horiz-adv-x="646" d="M507 895 Q507 873 500.5 850.5 Q494 828 481.5 809.5 Q469 791 450.5 779.5 Q432 768 407 768 Q387 768 368 774 Q349 780 331 787 Q313 794 295.5 800 Q278 806 261 806 Q247 806 237 794.5 Q227 783 226 769 L148 769 Q150 791 157 813.5 Q164 836 176.5 854 Q189 872 207.5 883.5 Q226 895 252 895 Q272 895 298 887.5 Q324 880 341 871 Q354 868 366 862.5 Q378 857 392 857 Q412 857 418.5 868 Q425 879 430 895 L507 895 Z M495 0 L454 138 L189 138 L148 0 L6 0 L245 706 L395 706 L636 0 L495 0 Z M322 579 L224 254 L419 254 L322 579 Z " />
<glyph glyph-name="Adieresis" unicode="&#xc4;" horiz-adv-x="646" d="M371 772 L371 895 L484 895 L484 772 L371 772 Z M171 772 L171 895 L283 895 L283 772 L171 772 Z M495 0 L454 138 L189 138 L148 0 L6 0 L245 706 L395 706 L636 0 L495 0 Z M322 579 L224 254 L419 254 L322 579 Z " />
<glyph glyph-name="Aring" unicode="&#xc5;" horiz-adv-x="646" d="M428 861 Q428 840 420 822 Q412 804 398 790 Q384 776 366 768 Q348 760 327 760 Q306 760 287.5 768 Q269 776 255 789.5 Q241 803 233 821.5 Q225 840 225 861 Q225 882 233 900.5 Q241 919 255 933 Q269 947 287.5 955 Q306 963 327 963 Q348 963 366 955 Q384 947 398 933 Q412 919 420 900.5 Q428 882 428 861 Z M495 0 L454 138 L189 138 L148 0 L6 0 L245 706 L395 706 L636 0 L495 0 Z M368 861 Q368 878 355.5 890.5 Q343 903 326 903 Q309 903 296.5 890.5 Q284 878 284 861 Q284 844 296.5 831.5 Q309 819 326 819 Q343 819 355.5 831.5 Q368 844 368 861 Z M322 579 L224 254 L419 254 L322 579 Z " />
<glyph glyph-name="AE" unicode="&#xc6;" horiz-adv-x="1042" d="M502 0 L502 165 L254 165 L160 0 L6 0 L424 706 L1003 706 L1003 588 L635 588 L635 420 L955 420 L955 304 L635 304 L635 120 L1018 120 L1018 0 L502 0 Z M502 607 L321 284 L502 284 L502 607 Z " />
<glyph glyph-name="Ccedilla" unicode="&#xc7;" horiz-adv-x="688" d="M668 187 Q639 113 589.5 64 Q540 15 461 -4 Q441 -9 422 -11.5 Q403 -14 383 -16 L359 -46 Q374 -46 392 -48.5 Q410 -51 425.5 -57.5 Q441 -64 451 -76.5 Q461 -89 461 -109 Q461 -137 443 -152.5 Q425 -168 400 -175.5 Q375 -183 347.5 -184.5 Q320 -186 301 -186 Q292 -186 283 -186 Q274 -186 265 -185 L265 -154 Q268 -155 276 -155 Q282 -155 294 -155 Q306 -155 317 -152.5 Q328 -150 336.5 -145 Q345 -140 345 -130 Q345 -120 337 -115 Q329 -110 318.5 -107.5 Q308 -105 297 -105 Q286 -105 279 -105 Q274 -105 269 -105 Q264 -105 259 -107 L259 -92 L334 -15 Q297 -8 263.5 -1 Q230 6 197 26 Q154 51 124 88 Q94 125 74.5 169 Q55 213 46 261 Q37 309 37 356 Q37 394 42 432 Q47 470 60 506 Q98 611 181 667.5 Q264 724 374 724 Q443 724 507 696.5 Q571 669 611 610 Q628 586 639 560 Q650 534 659 506 L528 472 Q525 502 511.5 526 Q498 550 477.5 567.5 Q457 585 430.5 594 Q404 603 374 603 Q324 603 287.5 581.5 Q251 560 227 525.5 Q203 491 191.5 447.5 Q180 404 180 360 Q180 326 185.5 292 Q191 258 203.5 227 Q216 196 237.5 170 Q259 144 291 127 Q331 107 374 107 Q406 107 434 118 Q462 129 484 148 Q506 167 522 193 Q538 219 547 249 L672 197 L668 187 Z " />
<glyph glyph-name="Egrave" unicode="&#xc8;" horiz-adv-x="625" d="M281 774 L174 895 L316 895 L371 774 L281 774 Z M78 0 L78 706 L580 706 L580 588 L208 588 L208 422 L549 422 L549 308 L208 308 L208 119 L605 119 L605 0 L78 0 Z " />
<glyph glyph-name="Eacute" unicode="&#xc9;" horiz-adv-x="625" d="M346 775 L257 775 L310 895 L454 895 L346 775 Z M78 0 L78 706 L580 706 L580 588 L208 588 L208 422 L549 422 L549 308 L208 308 L208 119 L605 119 L605 0 L78 0 Z " />
<glyph glyph-name="Ecircumflex" unicode="&#xca;" horiz-adv-x="625" d="M356 773 L313 829 L271 773 L154 773 L255 895 L372 895 L477 773 L356 773 Z M78 0 L78 706 L580 706 L580 588 L208 588 L208 422 L549 422 L549 308 L208 308 L208 119 L605 119 L605 0 L78 0 Z " />
<glyph glyph-name="Edieresis" unicode="&#xcb;" horiz-adv-x="625" d="M357 772 L357 895 L471 895 L471 772 L357 772 Z M157 772 L157 895 L269 895 L269 772 L157 772 Z M78 0 L78 706 L580 706 L580 588 L208 588 L208 422 L549 422 L549 308 L208 308 L208 119 L605 119 L605 0 L78 0 Z " />
<glyph glyph-name="Igrave" unicode="&#xcc;" horiz-adv-x="292" d="M115 774 L8 895 L150 895 L204 774 L115 774 Z M80 0 L80 706 L210 706 L210 0 L80 0 Z " />
<glyph glyph-name="Iacute" unicode="&#xcd;" horiz-adv-x="292" d="M179 775 L90 775 L144 895 L287 895 L179 775 Z M80 0 L80 706 L210 706 L210 0 L80 0 Z " />
<glyph glyph-name="Icircumflex" unicode="&#xce;" horiz-adv-x="292" d="M189 773 L147 829 L105 773 L-13 773 L88 895 L205 895 L310 773 L189 773 Z M80 0 L80 706 L210 706 L210 0 L80 0 Z " />
<glyph glyph-name="Idieresis" unicode="&#xcf;" horiz-adv-x="292" d="M190 772 L190 895 L304 895 L304 772 L190 772 Z M-10 772 L-10 895 L102 895 L102 772 L-10 772 Z M80 0 L80 706 L210 706 L210 0 L80 0 Z " />
<glyph glyph-name="Eth" unicode="&#xd0;" horiz-adv-x="708" d="M669 346 Q669 295 658.5 245 Q648 195 625.5 151.5 Q603 108 566.5 74.5 Q530 41 479 22 Q437 7 394.5 3.5 Q352 0 308 0 L71 0 L71 326 L3 326 L3 416 L71 416 L71 706 L303 706 Q340 706 377 704.5 Q414 703 450 692 Q508 675 549.5 640 Q591 605 617.5 558.5 Q644 512 656.5 457.5 Q669 403 669 346 Z M529 347 Q529 384 523 419.5 Q517 455 502.5 486 Q488 517 462.5 540.5 Q437 564 398 576 Q375 583 350 585 Q325 587 302 587 L203 587 L203 416 L357 416 L357 326 L203 326 L203 119 L259 119 Q294 119 332.5 119.5 Q371 120 406 130 Q445 141 469 162.5 Q493 184 506.5 213 Q520 242 524.5 276.5 Q529 311 529 347 Z " />
<glyph glyph-name="Ntilde" unicode="&#xd1;" horiz-adv-x="708" d="M539 895 Q537 885 536 876 Q535 867 533 857 Q523 821 501 794.5 Q479 768 438 768 Q418 768 399 774 Q380 780 362 787 Q344 794 326.5 800 Q309 806 292 806 Q275 806 268 794.5 Q261 783 257 769 L179 769 Q181 782 182.5 794 Q184 806 189 818 Q200 849 224 872 Q248 895 283 895 Q292 895 304 893 Q316 891 328.5 887.5 Q341 884 353 880 Q365 876 372 871 Q386 868 398 862.5 Q410 857 424 857 Q444 857 450 868.5 Q456 880 461 895 L539 895 Z M512 0 L203 495 L211 0 L82 0 L82 706 L201 706 L514 208 L498 706 L628 706 L628 0 L512 0 Z " />
<glyph glyph-name="Ograve" unicode="&#xd2;" horiz-adv-x="771" d="M354 774 L247 895 L389 895 L443 774 L354 774 Z M725 353 Q725 277 702 209.5 Q679 142 635 91.5 Q591 41 527.5 11.5 Q464 -18 384 -18 Q308 -18 245.5 12 Q183 42 139.5 92.5 Q96 143 72 210 Q48 277 48 350 Q48 425 71.5 493 Q95 561 139.5 612.5 Q184 664 247 694 Q310 724 389 724 Q438 724 485 710 Q532 696 573 669 Q614 642 642.5 607 Q671 572 689.5 531 Q708 490 716.5 445 Q725 400 725 353 Z M592 346 Q592 393 580 439 Q568 485 542.5 521.5 Q517 558 478.5 580.5 Q440 603 386 603 Q334 603 296 582.5 Q258 562 233 527.5 Q208 493 196 449 Q184 405 184 358 Q184 329 188 299.5 Q192 270 202 242 Q225 180 274 142.5 Q323 105 389 105 Q452 105 501 141.5 Q550 178 573 235 Q592 285 592 339 L592 346 Z " />
<glyph glyph-name="Oacute" unicode="&#xd3;" horiz-adv-x="771" d="M419 775 L330 775 L383 895 L526 895 L419 775 Z M725 353 Q725 277 702 209.5 Q679 142 635 91.5 Q591 41 527.5 11.5 Q464 -18 384 -18 Q308 -18 245.5 12 Q183 42 139.5 92.5 Q96 143 72 210 Q48 277 48 350 Q48 425 71.5 493 Q95 561 139.5 612.5 Q184 664 247 694 Q310 724 389 724 Q438 724 485 710 Q532 696 573 669 Q614 642 642.5 607 Q671 572 689.5 531 Q708 490 716.5 445 Q725 400 725 353 Z M592 346 Q592 393 580 439 Q568 485 542.5 521.5 Q517 558 478.5 580.5 Q440 603 386 603 Q334 603 296 582.5 Q258 562 233 527.5 Q208 493 196 449 Q184 405 184 358 Q184 329 188 299.5 Q192 270 202 242 Q225 180 274 142.5 Q323 105 389 105 Q452 105 501 141.5 Q550 178 573 235 Q592 285 592 339 L592 346 Z " />
<glyph glyph-name="Ocircumflex" unicode="&#xd4;" horiz-adv-x="771" d="M429 773 L386 829 L344 773 L227 773 L327 895 L445 895 L550 773 L429 773 Z M725 353 Q725 277 702 209.5 Q679 142 635 91.5 Q591 41 527.5 11.5 Q464 -18 384 -18 Q308 -18 245.5 12 Q183 42 139.5 92.5 Q96 143 72 210 Q48 277 48 350 Q48 425 71.5 493 Q95 561 139.5 612.5 Q184 664 247 694 Q310 724 389 724 Q438 724 485 710 Q532 696 573 669 Q614 642 642.5 607 Q671 572 689.5 531 Q708 490 716.5 445 Q725 400 725 353 Z M592 346 Q592 393 580 439 Q568 485 542.5 521.5 Q517 558 478.5 580.5 Q440 603 386 603 Q334 603 296 582.5 Q258 562 233 527.5 Q208 493 196 449 Q184 405 184 358 Q184 329 188 299.5 Q192 270 202 242 Q225 180 274 142.5 Q323 105 389 105 Q452 105 501 141.5 Q550 178 573 235 Q592 285 592 339 L592 346 Z " />
<glyph glyph-name="Otilde" unicode="&#xd5;" horiz-adv-x="771" d="M570 895 Q570 873 563.5 850.5 Q557 828 544 809.5 Q531 791 512.5 779.5 Q494 768 469 768 Q449 768 430 774 Q411 780 393 787 Q375 794 358 800 Q341 806 324 806 Q307 806 299.5 794.5 Q292 783 288 769 L211 769 Q213 782 214.5 794 Q216 806 220 818 Q231 850 255.5 872.5 Q280 895 315 895 Q335 895 353.5 889 Q372 883 390 876 Q408 869 424 863 Q440 857 455 857 Q474 857 481 868 Q488 879 492 895 L570 895 Z M725 353 Q725 277 702 209.5 Q679 142 635 91.5 Q591 41 527.5 11.5 Q464 -18 384 -18 Q308 -18 245.5 12 Q183 42 139.5 92.5 Q96 143 72 210 Q48 277 48 350 Q48 425 71.5 493 Q95 561 139.5 612.5 Q184 664 247 694 Q310 724 389 724 Q438 724 485 710 Q532 696 573 669 Q614 642 642.5 607 Q671 572 689.5 531 Q708 490 716.5 445 Q725 400 725 353 Z M592 346 Q592 393 580 439 Q568 485 542.5 521.5 Q517 558 478.5 580.5 Q440 603 386 603 Q334 603 296 582.5 Q258 562 233 527.5 Q208 493 196 449 Q184 405 184 358 Q184 329 188 299.5 Q192 270 202 242 Q225 180 274 142.5 Q323 105 389 105 Q452 105 501 141.5 Q550 178 573 235 Q592 285 592 339 L592 346 Z " />
<glyph glyph-name="Odieresis" unicode="&#xd6;" horiz-adv-x="771" d="M430 772 L430 895 L544 895 L544 772 L430 772 Z M230 772 L230 895 L343 895 L343 772 L230 772 Z M725 353 Q725 277 702 209.5 Q679 142 635 91.5 Q591 41 527.5 11.5 Q464 -18 384 -18 Q308 -18 245.5 12 Q183 42 139.5 92.5 Q96 143 72 210 Q48 277 48 350 Q48 425 71.5 493 Q95 561 139.5 612.5 Q184 664 247 694 Q310 724 389 724 Q438 724 485 710 Q532 696 573 669 Q614 642 642.5 607 Q671 572 689.5 531 Q708 490 716.5 445 Q725 400 725 353 Z M592 346 Q592 393 580 439 Q568 485 542.5 521.5 Q517 558 478.5 580.5 Q440 603 386 603 Q334 603 296 582.5 Q258 562 233 527.5 Q208 493 196 449 Q184 405 184 358 Q184 329 188 299.5 Q192 270 202 242 Q225 180 274 142.5 Q323 105 389 105 Q452 105 501 141.5 Q550 178 573 235 Q592 285 592 339 L592 346 Z " />
<glyph glyph-name="multiply" unicode="&#xd7;" horiz-adv-x="724" d="M513 81 L358 231 L216 84 L140 158 L282 305 L129 454 L219 547 L373 398 L515 545 L591 471 L449 324 L604 174 L513 81 Z " />
<glyph glyph-name="Oslash" unicode="&#xd8;" horiz-adv-x="771" d="M674 557 Q726 462 726 350 Q726 275 702.5 208 Q679 141 635 91 Q591 41 528 11.5 Q465 -18 387 -18 Q310 -18 252 6 Q194 30 144 89 L80 33 L23 99 L93 160 Q66 202 56 253 Q46 304 46 354 Q46 429 70 496.5 Q94 564 138.5 614.5 Q183 665 246.5 694.5 Q310 724 390 724 Q443 724 491 708.5 Q539 693 581 661 Q591 653 600 644.5 Q609 636 619 628 L681 683 L740 616 L674 557 Z M525 545 Q493 575 464 590 Q435 605 389 605 Q340 605 301 584 Q262 563 234.5 529 Q207 495 192.5 451.5 Q178 408 178 363 Q178 335 183.5 307.5 Q189 280 200 255 L525 545 Z M594 348 Q594 380 588 408.5 Q582 437 571 466 L244 177 Q270 139 304 121 Q338 103 385 103 Q436 103 475 124 Q514 145 540.5 179 Q567 213 580.5 257.5 Q594 302 594 348 Z " />
<glyph glyph-name="Ugrave" unicode="&#xd9;" horiz-adv-x="729" d="M333 774 L227 895 L368 895 L423 774 L333 774 Z M649 255 Q649 229 647.5 200 Q646 171 638 146 Q624 101 595 70 Q566 39 528 19 Q490 -1 446 -9.5 Q402 -18 359 -18 Q316 -18 273 -9 Q230 0 193.5 20 Q157 40 129.5 72 Q102 104 89 149 Q81 178 80.5 209 Q80 240 80 270 L80 706 L213 706 L213 255 Q213 241 215 221.5 Q217 202 222 188 Q241 142 280 126 Q319 110 365 110 Q412 110 452 128 Q492 146 509 194 Q516 213 516.5 236 Q517 259 517 279 L517 706 L649 706 L649 255 Z " />
<glyph glyph-name="Uacute" unicode="&#xda;" horiz-adv-x="729" d="M398 775 L309 775 L362 895 L506 895 L398 775 Z M649 255 Q649 229 647.5 200 Q646 171 638 146 Q624 101 595 70 Q566 39 528 19 Q490 -1 446 -9.5 Q402 -18 359 -18 Q316 -18 273 -9 Q230 0 193.5 20 Q157 40 129.5 72 Q102 104 89 149 Q81 178 80.5 209 Q80 240 80 270 L80 706 L213 706 L213 255 Q213 241 215 221.5 Q217 202 222 188 Q241 142 280 126 Q319 110 365 110 Q412 110 452 128 Q492 146 509 194 Q516 213 516.5 236 Q517 259 517 279 L517 706 L649 706 L649 255 Z " />
<glyph glyph-name="Ucircumflex" unicode="&#xdb;" horiz-adv-x="729" d="M408 773 L366 829 L323 773 L206 773 L307 895 L424 895 L529 773 L408 773 Z M649 255 Q649 229 647.5 200 Q646 171 638 146 Q624 101 595 70 Q566 39 528 19 Q490 -1 446 -9.5 Q402 -18 359 -18 Q316 -18 273 -9 Q230 0 193.5 20 Q157 40 129.5 72 Q102 104 89 149 Q81 178 80.5 209 Q80 240 80 270 L80 706 L213 706 L213 255 Q213 241 215 221.5 Q217 202 222 188 Q241 142 280 126 Q319 110 365 110 Q412 110 452 128 Q492 146 509 194 Q516 213 516.5 236 Q517 259 517 279 L517 706 L649 706 L649 255 Z " />
<glyph glyph-name="Udieresis" unicode="&#xdc;" horiz-adv-x="729" d="M408 772 L408 895 L522 895 L522 772 L408 772 Z M208 772 L208 895 L321 895 L321 772 L208 772 Z M649 255 Q649 229 647.5 200 Q646 171 638 146 Q624 101 595 70 Q566 39 528 19 Q490 -1 446 -9.5 Q402 -18 359 -18 Q316 -18 273 -9 Q230 0 193.5 20 Q157 40 129.5 72 Q102 104 89 149 Q81 178 80.5 209 Q80 240 80 270 L80 706 L213 706 L213 255 Q213 241 215 221.5 Q217 202 222 188 Q241 142 280 126 Q319 110 365 110 Q412 110 452 128 Q492 146 509 194 Q516 213 516.5 236 Q517 259 517 279 L517 706 L649 706 L649 255 Z " />
<glyph glyph-name="Yacute" unicode="&#xdd;" horiz-adv-x="625" d="M346 775 L257 775 L310 895 L454 895 L346 775 Z M377 279 L377 0 L246 0 L246 279 L10 706 L160 706 L313 414 L467 706 L615 706 L377 279 Z " />
<glyph glyph-name="Thorn" unicode="&#xde;" horiz-adv-x="625" d="M607 375 Q607 338 598 301.5 Q589 265 568 234 Q548 204 522.5 186 Q497 168 467.5 157.5 Q438 147 406 143.5 Q374 140 341 140 L214 140 L214 0 L82 0 L82 706 L214 706 L214 606 L320 606 Q355 606 387.5 603.5 Q420 601 450 592 Q480 583 507.5 565.5 Q535 548 558 519 Q583 488 595 451 Q607 414 607 375 Z M471 377 Q471 394 467.5 411 Q464 428 454 442 Q442 460 426 470.5 Q410 481 392 486 Q374 491 354.5 492 Q335 493 315 493 L214 493 L214 248 L309 248 Q332 248 354.5 249.5 Q377 251 397 258 Q417 265 433 278 Q449 291 459 315 Q466 330 468.5 345.5 Q471 361 471 377 Z " />
<glyph glyph-name="germandbls" unicode="&#xdf;" horiz-adv-x="562" d="M527 219 Q527 171 514 129.5 Q501 88 475.5 57.5 Q450 27 411.5 9.5 Q373 -8 322 -8 Q302 -8 275 -4 Q248 0 230 8 L230 124 Q248 113 262.5 107.5 Q277 102 299 102 Q325 102 344 113 Q363 124 376 142 Q389 160 395 182.5 Q401 205 401 228 Q401 302 358.5 334 Q316 366 248 366 Q243 366 239 365.5 Q235 365 230 365 L230 455 Q238 454 245.5 453.5 Q253 453 261 453 Q281 453 299.5 458 Q318 463 332.5 473.5 Q347 484 356 499.5 Q365 515 365 537 Q365 574 340 592.5 Q315 611 280 611 Q226 611 206 579.5 Q186 548 186 500 L186 475 L186 0 L65 0 L65 529 Q65 577 82 612.5 Q99 648 128 671.5 Q157 695 196 706.5 Q235 718 280 718 Q318 718 357.5 707 Q397 696 429 673.5 Q461 651 481.5 618.5 Q502 586 502 542 Q502 497 478 463 Q454 429 411 413 Q425 407 438 401 Q451 395 462 385 Q498 356 512.5 310 Q527 264 527 219 Z " />
<glyph glyph-name="agrave" unicode="&#xe0;" horiz-adv-x="542" d="M258 573 L148 706 L296 706 L348 573 L258 573 Z M358 0 Q357 10 356.5 19.5 Q356 29 356 39 Q327 15 286 1.5 Q245 -12 208 -12 Q172 -12 139.5 -2 Q107 8 81.5 28 Q56 48 41 77 Q26 106 26 145 Q26 196 57 236 Q75 259 97 272.5 Q119 286 144 294.5 Q169 303 195 308 Q221 313 248 319 Q276 325 303.5 332 Q331 339 358 347 Q358 358 356.5 370 Q355 382 349 391 Q336 410 315 416 Q294 422 273 422 Q254 422 235.5 419 Q217 416 203 407.5 Q189 399 180 384.5 Q171 370 171 347 L49 354 Q49 371 54 390 Q59 409 67 424 Q81 451 103 469 Q125 487 152 497 Q179 507 208.5 511 Q238 515 266 515 Q293 515 323 512 Q353 509 381 500 Q409 491 432 474 Q455 457 467 430 Q475 414 476.5 394 Q478 374 478 357 L478 70 Q478 47 482.5 33.5 Q487 20 500 0 L358 0 Z M358 249 Q328 235 292 227 Q279 224 260.5 221 Q242 218 223.5 213.5 Q205 209 189 202 Q173 195 164 183 Q153 167 153 150 Q153 133 160.5 121.5 Q168 110 179.5 103.5 Q191 97 205.5 94 Q220 91 234 91 Q255 91 277 96.5 Q299 102 317 113 Q335 124 346.5 141.5 Q358 159 358 184 L358 249 Z " />
<glyph glyph-name="aacute" unicode="&#xe1;" horiz-adv-x="542" d="M309 573 L219 573 L269 706 L417 706 L309 573 Z M358 0 Q357 10 356.5 19.5 Q356 29 356 39 Q327 15 286 1.5 Q245 -12 208 -12 Q172 -12 139.5 -2 Q107 8 81.5 28 Q56 48 41 77 Q26 106 26 145 Q26 196 57 236 Q75 259 97 272.5 Q119 286 144 294.5 Q169 303 195 308 Q221 313 248 319 Q276 325 303.5 332 Q331 339 358 347 Q358 358 356.5 370 Q355 382 349 391 Q336 410 315 416 Q294 422 273 422 Q254 422 235.5 419 Q217 416 203 407.5 Q189 399 180 384.5 Q171 370 171 347 L49 354 Q49 371 54 390 Q59 409 67 424 Q81 451 103 469 Q125 487 152 497 Q179 507 208.5 511 Q238 515 266 515 Q293 515 323 512 Q353 509 381 500 Q409 491 432 474 Q455 457 467 430 Q475 414 476.5 394 Q478 374 478 357 L478 70 Q478 47 482.5 33.5 Q487 20 500 0 L358 0 Z M358 249 Q328 235 292 227 Q279 224 260.5 221 Q242 218 223.5 213.5 Q205 209 189 202 Q173 195 164 183 Q153 167 153 150 Q153 133 160.5 121.5 Q168 110 179.5 103.5 Q191 97 205.5 94 Q220 91 234 91 Q255 91 277 96.5 Q299 102 317 113 Q335 124 346.5 141.5 Q358 159 358 184 L358 249 Z " />
<glyph glyph-name="acircumflex" unicode="&#xe2;" horiz-adv-x="542" d="M319 572 L271 639 L222 572 L101 572 L212 706 L330 706 L441 572 L319 572 Z M358 0 Q357 10 356.5 19.5 Q356 29 356 39 Q327 15 286 1.5 Q245 -12 208 -12 Q172 -12 139.5 -2 Q107 8 81.5 28 Q56 48 41 77 Q26 106 26 145 Q26 196 57 236 Q75 259 97 272.5 Q119 286 144 294.5 Q169 303 195 308 Q221 313 248 319 Q276 325 303.5 332 Q331 339 358 347 Q358 358 356.5 370 Q355 382 349 391 Q336 410 315 416 Q294 422 273 422 Q254 422 235.5 419 Q217 416 203 407.5 Q189 399 180 384.5 Q171 370 171 347 L49 354 Q49 371 54 390 Q59 409 67 424 Q81 451 103 469 Q125 487 152 497 Q179 507 208.5 511 Q238 515 266 515 Q293 515 323 512 Q353 509 381 500 Q409 491 432 474 Q455 457 467 430 Q475 414 476.5 394 Q478 374 478 357 L478 70 Q478 47 482.5 33.5 Q487 20 500 0 L358 0 Z M358 249 Q328 235 292 227 Q279 224 260.5 221 Q242 218 223.5 213.5 Q205 209 189 202 Q173 195 164 183 Q153 167 153 150 Q153 133 160.5 121.5 Q168 110 179.5 103.5 Q191 97 205.5 94 Q220 91 234 91 Q255 91 277 96.5 Q299 102 317 113 Q335 124 346.5 141.5 Q358 159 358 184 L358 249 Z " />
<glyph glyph-name="atilde" unicode="&#xe3;" horiz-adv-x="542" d="M455 702 Q455 694 453 685.5 Q451 677 449 670 Q439 635 417 609 Q395 583 354 583 Q334 583 314.5 589 Q295 595 277 602.5 Q259 610 242 616 Q225 622 209 622 Q194 622 184.5 610 Q175 598 174 584 L96 584 Q98 606 105 628.5 Q112 651 124 669 Q136 687 155 698.5 Q174 710 200 710 Q220 710 239 704 Q258 698 275.5 691.5 Q293 685 309.5 679 Q326 673 341 673 Q360 673 366 682.5 Q372 692 378 706 L455 706 L455 702 Z M358 0 Q357 10 356.5 19.5 Q356 29 356 39 Q327 15 286 1.5 Q245 -12 208 -12 Q172 -12 139.5 -2 Q107 8 81.5 28 Q56 48 41 77 Q26 106 26 145 Q26 196 57 236 Q75 259 97 272.5 Q119 286 144 294.5 Q169 303 195 308 Q221 313 248 319 Q276 325 303.5 332 Q331 339 358 347 Q358 358 356.5 370 Q355 382 349 391 Q336 410 315 416 Q294 422 273 422 Q254 422 235.5 419 Q217 416 203 407.5 Q189 399 180 384.5 Q171 370 171 347 L49 354 Q49 371 54 390 Q59 409 67 424 Q81 451 103 469 Q125 487 152 497 Q179 507 208.5 511 Q238 515 266 515 Q293 515 323 512 Q353 509 381 500 Q409 491 432 474 Q455 457 467 430 Q475 414 476.5 394 Q478 374 478 357 L478 70 Q478 47 482.5 33.5 Q487 20 500 0 L358 0 Z M358 249 Q328 235 292 227 Q279 224 260.5 221 Q242 218 223.5 213.5 Q205 209 189 202 Q173 195 164 183 Q153 167 153 150 Q153 133 160.5 121.5 Q168 110 179.5 103.5 Q191 97 205.5 94 Q220 91 234 91 Q255 91 277 96.5 Q299 102 317 113 Q335 124 346.5 141.5 Q358 159 358 184 L358 249 Z " />
<glyph glyph-name="adieresis" unicode="&#xe4;" horiz-adv-x="542" d="M308 587 L308 706 L422 706 L422 587 L308 587 Z M108 587 L108 706 L220 706 L220 587 L108 587 Z M358 0 Q357 10 356.5 19.5 Q356 29 356 39 Q327 15 286 1.5 Q245 -12 208 -12 Q172 -12 139.5 -2 Q107 8 81.5 28 Q56 48 41 77 Q26 106 26 145 Q26 196 57 236 Q75 259 97 272.5 Q119 286 144 294.5 Q169 303 195 308 Q221 313 248 319 Q276 325 303.5 332 Q331 339 358 347 Q358 358 356.5 370 Q355 382 349 391 Q336 410 315 416 Q294 422 273 422 Q254 422 235.5 419 Q217 416 203 407.5 Q189 399 180 384.5 Q171 370 171 347 L49 354 Q49 371 54 390 Q59 409 67 424 Q81 451 103 469 Q125 487 152 497 Q179 507 208.5 511 Q238 515 266 515 Q293 515 323 512 Q353 509 381 500 Q409 491 432 474 Q455 457 467 430 Q475 414 476.5 394 Q478 374 478 357 L478 70 Q478 47 482.5 33.5 Q487 20 500 0 L358 0 Z M358 249 Q328 235 292 227 Q279 224 260.5 221 Q242 218 223.5 213.5 Q205 209 189 202 Q173 195 164 183 Q153 167 153 150 Q153 133 160.5 121.5 Q168 110 179.5 103.5 Q191 97 205.5 94 Q220 91 234 91 Q255 91 277 96.5 Q299 102 317 113 Q335 124 346.5 141.5 Q358 159 358 184 L358 249 Z " />
<glyph glyph-name="aring" unicode="&#xe5;" horiz-adv-x="542" d="M367 662 Q367 641 359 622.5 Q351 604 337 590 Q323 576 304.5 568 Q286 560 265 560 Q244 560 225.5 568 Q207 576 193 590 Q179 604 171 622.5 Q163 641 163 662 Q163 683 171 701.5 Q179 720 193 733.5 Q207 747 225.5 755 Q244 763 265 763 Q286 763 304.5 755 Q323 747 337 733.5 Q351 720 359 701.5 Q367 683 367 662 Z M358 0 Q357 10 356.5 19.5 Q356 29 356 39 Q327 15 286 1.5 Q245 -12 208 -12 Q172 -12 139.5 -2 Q107 8 81.5 28 Q56 48 41 77 Q26 106 26 145 Q26 196 57 236 Q75 259 97 272.5 Q119 286 144 294.5 Q169 303 195 308 Q221 313 248 319 Q276 325 303.5 332 Q331 339 358 347 Q358 358 356.5 370 Q355 382 349 391 Q336 410 315 416 Q294 422 273 422 Q254 422 235.5 419 Q217 416 203 407.5 Q189 399 180 384.5 Q171 370 171 347 L49 354 Q49 371 54 390 Q59 409 67 424 Q81 451 103 469 Q125 487 152 497 Q179 507 208.5 511 Q238 515 266 515 Q293 515 323 512 Q353 509 381 500 Q409 491 432 474 Q455 457 467 430 Q475 414 476.5 394 Q478 374 478 357 L478 70 Q478 47 482.5 33.5 Q487 20 500 0 L358 0 Z M307 661 Q307 678 294.5 690.5 Q282 703 265 703 Q246 703 234.5 691 Q223 679 223 661 Q223 644 235.5 631.5 Q248 619 265 619 Q282 619 294.5 631.5 Q307 644 307 661 Z M358 249 Q328 235 292 227 Q279 224 260.5 221 Q242 218 223.5 213.5 Q205 209 189 202 Q173 195 164 183 Q153 167 153 150 Q153 133 160.5 121.5 Q168 110 179.5 103.5 Q191 97 205.5 94 Q220 91 234 91 Q255 91 277 96.5 Q299 102 317 113 Q335 124 346.5 141.5 Q358 159 358 184 L358 249 Z " />
<glyph glyph-name="ae" unicode="&#xe6;" horiz-adv-x="875" d="M481 227 Q487 167 520 129.5 Q553 92 616 92 Q660 92 685 110.5 Q710 129 736 160 L832 102 Q784 44 729 14.5 Q674 -15 597 -15 Q546 -15 497.5 4 Q449 23 412 59 Q371 23 324 4 Q277 -15 223 -15 Q174 -15 131 -3.5 Q88 8 56 51 Q43 68 36 90.5 Q29 113 29 134 Q29 186 54 218 Q79 250 116.5 268.5 Q154 287 198.5 297 Q243 307 282 316 Q304 321 324 326.5 Q344 332 364 340 Q362 352 361.5 363.5 Q361 375 355 386 Q342 410 319.5 419 Q297 428 271 428 Q252 428 234 423.5 Q216 419 201.5 409.5 Q187 400 178.5 384.5 Q170 369 170 347 L54 347 Q57 391 74 423 Q91 455 118.5 475.5 Q146 496 182 505.5 Q218 515 260 515 Q295 515 331.5 508.5 Q368 502 397 482 Q408 475 416.5 466.5 Q425 458 434 450 Q473 485 509 500 Q545 515 598 515 Q663 515 710 492 Q757 469 787 430 Q817 391 831.5 338.5 Q846 286 846 227 L481 227 Z M704 313 Q696 357 668 387.5 Q640 418 592 418 Q545 418 515.5 388 Q486 358 482 313 L704 313 Z M356 236 Q330 226 302.5 221 Q275 216 247 210 Q232 207 216 202.5 Q200 198 186.5 190.5 Q173 183 164.5 170.5 Q156 158 156 139 Q156 121 163.5 108.5 Q171 96 183.5 88 Q196 80 211.5 76.5 Q227 73 243 73 Q278 73 307.5 91 Q337 109 351 142 Q359 159 361.5 189.5 Q364 220 364 240 L356 236 Z " />
<glyph glyph-name="ccedilla" unicode="&#xe7;" horiz-adv-x="500" d="M497 141 Q483 100 456 69 Q422 28 384.5 12 Q347 -4 296 -13 L270 -46 Q285 -46 303 -48.5 Q321 -51 336 -58 Q351 -65 361 -77.5 Q371 -90 371 -109 Q371 -137 353 -152.5 Q335 -168 310 -175.5 Q285 -183 257.5 -184.5 Q230 -186 211 -186 Q202 -186 193 -186 Q184 -186 175 -185 L175 -154 Q178 -155 186 -155 Q192 -155 204 -155 Q216 -155 227 -152.5 Q238 -150 246.5 -145 Q255 -140 255 -130 Q255 -120 247.5 -115 Q240 -110 229.5 -107.5 Q219 -105 208 -105 Q197 -105 190 -105 Q185 -105 179.5 -105 Q174 -105 169 -107 L169 -92 L246 -13 Q221 -8 197 -2 Q173 4 150 16 Q86 51 55 115 Q24 179 24 250 Q24 304 42.5 352.5 Q61 401 94 437 Q127 473 173.5 494 Q220 515 276 515 Q349 515 406 477.5 Q463 440 492 373 L385 323 Q372 362 342.5 385 Q313 408 271 408 Q239 408 215.5 394.5 Q192 381 177 359 Q162 337 155 309.5 Q148 282 148 253 Q148 224 155.5 196 Q163 168 178.5 146 Q194 124 218 110.5 Q242 97 275 97 Q301 97 319.5 104.5 Q338 112 351.5 125 Q365 138 375.5 156 Q386 174 395 195 L497 141 Z " />
<glyph glyph-name="egrave" unicode="&#xe8;" horiz-adv-x="562" d="M248 573 L138 706 L286 706 L337 573 L248 573 Z M535 112 Q524 98 513.5 85.5 Q503 73 490 61 Q449 23 397.5 4 Q346 -15 291 -15 Q232 -15 184.5 5 Q137 25 103.5 60 Q70 95 52 143.5 Q34 192 34 250 Q34 282 39 314.5 Q44 347 58 377 Q90 446 149 480.5 Q208 515 283 515 Q343 515 398.5 491 Q454 467 486 413 Q509 375 520 323 Q531 271 531 226 L161 226 Q172 166 207.5 134 Q243 102 303 102 Q388 102 433 171 L535 112 Z M399 314 Q391 362 364.5 390.5 Q338 419 287 419 Q208 419 175 348 Q172 341 169 331.5 Q166 322 165 314 L399 314 Z " />
<glyph glyph-name="eacute" unicode="&#xe9;" horiz-adv-x="562" d="M320 573 L229 573 L279 706 L428 706 L320 573 Z M535 112 Q524 98 513.5 85.5 Q503 73 490 61 Q449 23 397.5 4 Q346 -15 291 -15 Q232 -15 184.5 5 Q137 25 103.5 60 Q70 95 52 143.5 Q34 192 34 250 Q34 282 39 314.5 Q44 347 58 377 Q90 446 149 480.5 Q208 515 283 515 Q343 515 398.5 491 Q454 467 486 413 Q509 375 520 323 Q531 271 531 226 L161 226 Q172 166 207.5 134 Q243 102 303 102 Q388 102 433 171 L535 112 Z M399 314 Q391 362 364.5 390.5 Q338 419 287 419 Q208 419 175 348 Q172 341 169 331.5 Q166 322 165 314 L399 314 Z " />
<glyph glyph-name="ecircumflex" unicode="&#xea;" horiz-adv-x="562" d="M329 572 L282 639 L232 572 L111 572 L222 706 L340 706 L452 572 L329 572 Z M535 112 Q524 98 513.5 85.5 Q503 73 490 61 Q449 23 397.5 4 Q346 -15 291 -15 Q232 -15 184.5 5 Q137 25 103.5 60 Q70 95 52 143.5 Q34 192 34 250 Q34 282 39 314.5 Q44 347 58 377 Q90 446 149 480.5 Q208 515 283 515 Q343 515 398.5 491 Q454 467 486 413 Q509 375 520 323 Q531 271 531 226 L161 226 Q172 166 207.5 134 Q243 102 303 102 Q388 102 433 171 L535 112 Z M399 314 Q391 362 364.5 390.5 Q338 419 287 419 Q208 419 175 348 Q172 341 169 331.5 Q166 322 165 314 L399 314 Z " />
<glyph glyph-name="edieresis" unicode="&#xeb;" horiz-adv-x="562" d="M325 587 L325 706 L439 706 L439 587 L325 587 Z M125 587 L125 706 L238 706 L238 587 L125 587 Z M535 112 Q524 98 513.5 85.5 Q503 73 490 61 Q449 23 397.5 4 Q346 -15 291 -15 Q232 -15 184.5 5 Q137 25 103.5 60 Q70 95 52 143.5 Q34 192 34 250 Q34 282 39 314.5 Q44 347 58 377 Q90 446 149 480.5 Q208 515 283 515 Q343 515 398.5 491 Q454 467 486 413 Q509 375 520 323 Q531 271 531 226 L161 226 Q172 166 207.5 134 Q243 102 303 102 Q388 102 433 171 L535 112 Z M399 314 Q391 362 364.5 390.5 Q338 419 287 419 Q208 419 175 348 Q172 341 169 331.5 Q166 322 165 314 L399 314 Z " />
<glyph glyph-name="igrave" unicode="&#xec;" horiz-adv-x="250" d="M92 573 L-19 706 L129 706 L181 573 L92 573 Z M65 0 L65 500 L184 500 L184 0 L65 0 Z " />
<glyph glyph-name="iacute" unicode="&#xed;" horiz-adv-x="250" d="M163 573 L73 573 L123 706 L271 706 L163 573 Z M65 0 L65 500 L184 500 L184 0 L65 0 Z " />
<glyph glyph-name="icircumflex" unicode="&#xee;" horiz-adv-x="250" d="M173 572 L126 639 L76 572 L-45 572 L66 706 L184 706 L295 572 L173 572 Z M65 0 L65 500 L184 500 L184 0 L65 0 Z " />
<glyph glyph-name="idieresis" unicode="&#xef;" horiz-adv-x="250" d="M169 587 L169 706 L283 706 L283 587 L169 587 Z M-31 587 L-31 706 L81 706 L81 587 L-31 587 Z M65 0 L65 500 L184 500 L184 0 L65 0 Z " />
<glyph glyph-name="eth" unicode="&#xf0;" horiz-adv-x="583" d="M550 282 Q550 220 535 166 Q520 112 488.5 71.5 Q457 31 408.5 8 Q360 -15 293 -15 Q233 -15 185.5 5.5 Q138 26 104.5 62 Q71 98 53 147.5 Q35 197 35 255 Q35 306 52 353.5 Q69 401 100.5 437 Q132 473 176.5 494.5 Q221 516 275 516 Q307 516 330 507.5 Q353 499 377 478 Q370 506 357 530.5 Q344 555 327 578 L164 534 L145 587 L288 626 Q276 637 264 649.5 Q252 662 240 673 L352 721 Q368 707 381.5 691 Q395 675 409 659 L501 684 L521 631 L445 610 Q493 532 521.5 454 Q550 376 550 282 Z M424 248 Q424 279 415.5 307.5 Q407 336 390 358 Q373 380 347.5 393.5 Q322 407 289 407 Q256 407 231.5 394 Q207 381 191.5 359.5 Q176 338 168 310.5 Q160 283 160 253 Q160 223 169 194.5 Q178 166 195 144 Q212 122 237.5 108.5 Q263 95 296 95 Q329 95 353 108 Q377 121 392.5 142.5 Q408 164 416 191.5 Q424 219 424 248 Z " />
<glyph glyph-name="ntilde" unicode="&#xf1;" horiz-adv-x="562" d="M465 702 Q463 694 462 686 Q461 678 459 670 Q449 635 427 609 Q405 583 365 583 Q345 583 325.5 589 Q306 595 288 602.5 Q270 610 252.5 616 Q235 622 219 622 Q202 622 195 610 Q188 598 184 584 L106 584 Q108 597 109.5 609 Q111 621 116 634 Q127 665 151 687.5 Q175 710 210 710 Q230 710 248.5 704 Q267 698 285 691.5 Q303 685 319.5 679 Q336 673 351 673 Q370 673 376 682.5 Q382 692 388 706 L466 706 L465 702 Z M382 0 L382 283 Q382 305 378 326 Q374 347 364 363 Q354 379 337 388.5 Q320 398 294 398 Q280 398 263.5 392.5 Q247 387 236 379 Q202 353 193 317 Q184 281 184 241 L184 0 L63 0 L63 500 L184 500 L184 441 Q211 479 252.5 497 Q294 515 339 515 Q362 515 386 509 Q410 503 430 491 Q455 476 469 456.5 Q483 437 490 414 Q497 391 498.5 366 Q500 341 500 314 L500 0 L382 0 Z " />
<glyph glyph-name="ograve" unicode="&#xf2;" horiz-adv-x="583" d="M258 573 L148 706 L296 706 L348 573 L258 573 Z M549 248 Q549 192 530.5 144 Q512 96 478.5 60.5 Q445 25 398 5 Q351 -15 293 -15 Q235 -15 187.5 5.5 Q140 26 106 62 Q72 98 53.5 147 Q35 196 35 252 Q35 309 53.5 357 Q72 405 106 440.5 Q140 476 187.5 495.5 Q235 515 293 515 Q350 515 397.5 494.5 Q445 474 478.5 438 Q512 402 530.5 353 Q549 304 549 248 Z M424 248 Q424 278 415.5 307 Q407 336 390 358 Q373 380 347.5 393.5 Q322 407 289 407 Q256 407 232 394 Q208 381 192 359.5 Q176 338 168 310.5 Q160 283 160 253 Q160 223 169 194.5 Q178 166 195 144 Q212 122 237.5 108.5 Q263 95 296 95 Q329 95 353 108 Q377 121 392.5 142.5 Q408 164 416 191.5 Q424 219 424 248 Z " />
<glyph glyph-name="oacute" unicode="&#xf3;" horiz-adv-x="583" d="M330 573 L240 573 L290 706 L438 706 L330 573 Z M549 248 Q549 192 530.5 144 Q512 96 478.5 60.5 Q445 25 398 5 Q351 -15 293 -15 Q235 -15 187.5 5.5 Q140 26 106 62 Q72 98 53.5 147 Q35 196 35 252 Q35 309 53.5 357 Q72 405 106 440.5 Q140 476 187.5 495.5 Q235 515 293 515 Q350 515 397.5 494.5 Q445 474 478.5 438 Q512 402 530.5 353 Q549 304 549 248 Z M424 248 Q424 278 415.5 307 Q407 336 390 358 Q373 380 347.5 393.5 Q322 407 289 407 Q256 407 232 394 Q208 381 192 359.5 Q176 338 168 310.5 Q160 283 160 253 Q160 223 169 194.5 Q178 166 195 144 Q212 122 237.5 108.5 Q263 95 296 95 Q329 95 353 108 Q377 121 392.5 142.5 Q408 164 416 191.5 Q424 219 424 248 Z " />
<glyph glyph-name="ocircumflex" unicode="&#xf4;" horiz-adv-x="583" d="M340 572 L292 639 L243 572 L122 572 L233 706 L351 706 L462 572 L340 572 Z M549 248 Q549 192 530.5 144 Q512 96 478.5 60.5 Q445 25 398 5 Q351 -15 293 -15 Q235 -15 187.5 5.5 Q140 26 106 62 Q72 98 53.5 147 Q35 196 35 252 Q35 309 53.5 357 Q72 405 106 440.5 Q140 476 187.5 495.5 Q235 515 293 515 Q350 515 397.5 494.5 Q445 474 478.5 438 Q512 402 530.5 353 Q549 304 549 248 Z M424 248 Q424 278 415.5 307 Q407 336 390 358 Q373 380 347.5 393.5 Q322 407 289 407 Q256 407 232 394 Q208 381 192 359.5 Q176 338 168 310.5 Q160 283 160 253 Q160 223 169 194.5 Q178 166 195 144 Q212 122 237.5 108.5 Q263 95 296 95 Q329 95 353 108 Q377 121 392.5 142.5 Q408 164 416 191.5 Q424 219 424 248 Z " />
<glyph glyph-name="otilde" unicode="&#xf5;" horiz-adv-x="583" d="M475 702 Q473 693 471.5 683.5 Q470 674 468 665 Q458 630 435.5 606.5 Q413 583 375 583 Q355 583 335.5 589 Q316 595 298 602.5 Q280 610 263 616 Q246 622 230 622 Q215 622 205.5 610 Q196 598 195 584 L117 584 Q119 606 126 628.5 Q133 651 145 669 Q157 687 176 698.5 Q195 710 221 710 Q241 710 259.5 704 Q278 698 296 691.5 Q314 685 330 679 Q346 673 361 673 Q381 673 387 682 Q393 691 399 706 L476 706 L475 702 Z M549 248 Q549 192 530.5 144 Q512 96 478.5 60.5 Q445 25 398 5 Q351 -15 293 -15 Q235 -15 187.5 5.5 Q140 26 106 62 Q72 98 53.5 147 Q35 196 35 252 Q35 309 53.5 357 Q72 405 106 440.5 Q140 476 187.5 495.5 Q235 515 293 515 Q350 515 397.5 494.5 Q445 474 478.5 438 Q512 402 530.5 353 Q549 304 549 248 Z M424 248 Q424 278 415.5 307 Q407 336 390 358 Q373 380 347.5 393.5 Q322 407 289 407 Q256 407 232 394 Q208 381 192 359.5 Q176 338 168 310.5 Q160 283 160 253 Q160 223 169 194.5 Q178 166 195 144 Q212 122 237.5 108.5 Q263 95 296 95 Q329 95 353 108 Q377 121 392.5 142.5 Q408 164 416 191.5 Q424 219 424 248 Z " />
<glyph glyph-name="odieresis" unicode="&#xf6;" horiz-adv-x="583" d="M337 587 L337 706 L451 706 L451 587 L337 587 Z M137 587 L137 706 L250 706 L250 587 L137 587 Z M549 248 Q549 192 530.5 144 Q512 96 478.5 60.5 Q445 25 398 5 Q351 -15 293 -15 Q235 -15 187.5 5.5 Q140 26 106 62 Q72 98 53.5 147 Q35 196 35 252 Q35 309 53.5 357 Q72 405 106 440.5 Q140 476 187.5 495.5 Q235 515 293 515 Q350 515 397.5 494.5 Q445 474 478.5 438 Q512 402 530.5 353 Q549 304 549 248 Z M424 248 Q424 278 415.5 307 Q407 336 390 358 Q373 380 347.5 393.5 Q322 407 289 407 Q256 407 232 394 Q208 381 192 359.5 Q176 338 168 310.5 Q160 283 160 253 Q160 223 169 194.5 Q178 166 195 144 Q212 122 237.5 108.5 Q263 95 296 95 Q329 95 353 108 Q377 121 392.5 142.5 Q408 164 416 191.5 Q424 219 424 248 Z " />
<glyph glyph-name="divide" unicode="&#xf7;" horiz-adv-x="724" d="M301 429 L301 564 L423 564 L423 429 L301 429 Z M79 257 L79 369 L645 369 L645 257 L79 257 Z M301 62 L301 196 L422 196 L422 62 L301 62 Z " />
<glyph glyph-name="oslash" unicode="&#xf8;" horiz-adv-x="583" d="M509 388 Q529 353 538 322 Q547 291 547 250 Q547 215 539 180.5 Q531 146 515.5 115 Q500 84 476 58.5 Q452 33 420 16 Q388 -1 353 -8 Q318 -15 283 -15 Q253 -15 229.5 -10.5 Q206 -6 185.5 3 Q165 12 146 26.5 Q127 41 106 62 L53 20 L9 79 L65 124 Q46 158 38 187 Q30 216 30 256 Q30 290 38.5 323.5 Q47 357 63.5 387 Q80 417 104 442 Q128 467 158 483 Q190 500 223.5 507.5 Q257 515 293 515 Q347 515 387.5 498.5 Q428 482 468 447 L519 488 L565 432 L509 388 Z M380 376 Q364 397 338 407 Q312 417 286 417 Q259 417 234 406 Q187 386 167.5 345.5 Q148 305 148 257 L148 253 Q148 239 149.5 224.5 Q151 210 156 196 L380 376 Z M429 245 Q429 280 417 313 L192 133 Q213 110 236 97 Q259 84 291 84 Q325 84 350.5 97.5 Q376 111 393.5 133.5 Q411 156 420 185 Q429 214 429 245 Z " />
<glyph glyph-name="ugrave" unicode="&#xf9;" horiz-adv-x="583" d="M258 573 L148 706 L296 706 L348 573 L258 573 Z M397 0 L397 52 Q360 19 323 3.5 Q286 -12 235 -12 Q144 -12 103 38 Q62 88 62 173 L62 500 L183 500 L183 216 Q183 181 190.5 154.5 Q198 128 233 111 Q244 106 256 103.5 Q268 101 280 101 Q299 101 318.5 107 Q338 113 352 126 Q370 142 379.5 161 Q389 180 393 201 Q397 222 397 244 Q397 266 397 288 L397 500 L517 500 L517 0 L397 0 Z " />
<glyph glyph-name="uacute" unicode="&#xfa;" horiz-adv-x="583" d="M330 573 L240 573 L290 706 L438 706 L330 573 Z M397 0 L397 52 Q360 19 323 3.5 Q286 -12 235 -12 Q144 -12 103 38 Q62 88 62 173 L62 500 L183 500 L183 216 Q183 181 190.5 154.5 Q198 128 233 111 Q244 106 256 103.5 Q268 101 280 101 Q299 101 318.5 107 Q338 113 352 126 Q370 142 379.5 161 Q389 180 393 201 Q397 222 397 244 Q397 266 397 288 L397 500 L517 500 L517 0 L397 0 Z " />
<glyph glyph-name="ucircumflex" unicode="&#xfb;" horiz-adv-x="583" d="M340 572 L292 639 L243 572 L122 572 L233 706 L351 706 L462 572 L340 572 Z M397 0 L397 52 Q360 19 323 3.5 Q286 -12 235 -12 Q144 -12 103 38 Q62 88 62 173 L62 500 L183 500 L183 216 Q183 181 190.5 154.5 Q198 128 233 111 Q244 106 256 103.5 Q268 101 280 101 Q299 101 318.5 107 Q338 113 352 126 Q370 142 379.5 161 Q389 180 393 201 Q397 222 397 244 Q397 266 397 288 L397 500 L517 500 L517 0 L397 0 Z " />
<glyph glyph-name="udieresis" unicode="&#xfc;" horiz-adv-x="583" d="M334 587 L334 706 L448 706 L448 587 L334 587 Z M134 587 L134 706 L246 706 L246 587 L134 587 Z M397 0 L397 52 Q360 19 323 3.5 Q286 -12 235 -12 Q144 -12 103 38 Q62 88 62 173 L62 500 L183 500 L183 216 Q183 181 190.5 154.5 Q198 128 233 111 Q244 106 256 103.5 Q268 101 280 101 Q299 101 318.5 107 Q338 113 352 126 Q370 142 379.5 161 Q389 180 393 201 Q397 222 397 244 Q397 266 397 288 L397 500 L517 500 L517 0 L397 0 Z " />
<glyph glyph-name="yacute" unicode="&#xfd;" horiz-adv-x="479" d="M278 573 L188 573 L238 706 L386 706 L278 573 Z M343 64 Q336 41 328.5 12.5 Q321 -16 311 -44.5 Q301 -73 287.5 -98.5 Q274 -124 255 -140 Q231 -161 204 -166.5 Q177 -172 146 -172 Q129 -172 112 -171 Q95 -170 79 -165 L79 -61 Q87 -62 95 -63 Q103 -64 111 -64 Q142 -64 163 -52.5 Q184 -41 193 -10 L12 500 L141 500 L253 127 L347 500 L470 500 L343 64 Z " />
<glyph glyph-name="thorn" unicode="&#xfe;" horiz-adv-x="583" d="M548 246 Q548 195 533 148 Q518 101 489 65 Q460 29 418 7 Q376 -15 321 -15 Q279 -15 247 -1 Q215 13 184 41 L184 -163 L64 -163 L64 706 L184 706 L184 455 Q213 485 245 500 Q277 515 320 515 Q376 515 418.5 492 Q461 469 489.5 431.5 Q518 394 533 345.5 Q548 297 548 246 Z M425 251 Q425 280 417.5 306.5 Q410 333 394.5 354 Q379 375 356 387.5 Q333 400 302 400 Q271 400 248.5 386.5 Q226 373 211 351.5 Q196 330 189 303 Q182 276 182 248 Q182 220 189.5 193.5 Q197 167 212 146 Q227 125 250 112 Q273 99 304 99 Q336 99 359 112 Q382 125 396.5 146.5 Q411 168 418 195.5 Q425 223 425 251 Z " />
<glyph glyph-name="ydieresis" unicode="&#xff;" horiz-adv-x="479" d="M284 587 L284 706 L398 706 L398 587 L284 587 Z M84 587 L84 706 L196 706 L196 587 L84 587 Z M343 64 Q336 41 328.5 12.5 Q321 -16 311 -44.5 Q301 -73 287.5 -98.5 Q274 -124 255 -140 Q231 -161 204 -166.5 Q177 -172 146 -172 Q129 -172 112 -171 Q95 -170 79 -165 L79 -61 Q87 -62 95 -63 Q103 -64 111 -64 Q142 -64 163 -52.5 Q184 -41 193 -10 L12 500 L141 500 L253 127 L347 500 L470 500 L343 64 Z " />
<glyph glyph-name="dotlessi" unicode="&#x131;" horiz-adv-x="250" d="M65 0 L65 500 L184 500 L184 0 L65 0 Z " />
<glyph glyph-name="Lslash" unicode="&#x141;" horiz-adv-x="521" d="M82 0 L82 145 L28 85 L28 217 L82 279 L82 706 L215 706 L215 430 L353 585 L353 449 L215 293 L215 120 L495 120 L495 0 L82 0 Z " />
<glyph glyph-name="lslash" unicode="&#x142;" horiz-adv-x="250" d="M187 431 L187 0 L65 0 L65 295 L12 238 L12 351 L65 411 L65 706 L187 706 L187 548 L237 602 L237 487 L187 431 Z " />
<glyph glyph-name="OE" unicode="&#x152;" horiz-adv-x="1104" d="M551 0 L551 25 Q506 3 468.5 -7.5 Q431 -18 380 -18 Q304 -18 242 11 Q180 40 137 89 Q94 138 70.5 203 Q47 268 47 341 Q47 416 70.5 485 Q94 554 137.5 607.5 Q181 661 244 692.5 Q307 724 386 724 L389 724 Q438 724 473.5 711.5 Q509 699 551 676 L551 706 L1055 706 L1055 586 L682 586 L682 417 L1007 417 L1007 303 L682 303 L682 119 L1077 119 L1077 0 L551 0 Z M551 454 Q551 468 550.5 489 Q550 510 544 523 Q535 542 518.5 556 Q502 570 481 579.5 Q460 589 438 594 Q416 599 397 599 Q343 599 304 577 Q265 555 239 519 Q213 483 200.5 437 Q188 391 188 343 L188 334 Q188 286 202 243.5 Q216 201 243.5 168.5 Q271 136 310.5 117.5 Q350 99 401 99 Q436 99 472.5 110.5 Q509 122 532 151 Q537 157 544 168 Q551 179 551 188 L551 454 Z " />
<glyph glyph-name="oe" unicode="&#x153;" horiz-adv-x="917" d="M526 221 Q534 167 566 129.5 Q598 92 656 92 Q694 92 725 110.5 Q756 129 777 160 L874 102 Q831 42 776 13.5 Q721 -15 646 -15 Q600 -15 565.5 -3 Q531 9 496 40 Q487 48 479 56.5 Q471 65 465 76 Q431 31 386.5 8 Q342 -15 286 -15 Q257 -15 227 -11 Q197 -7 170 6 Q135 22 109.5 47 Q84 72 67 103 Q50 134 42 169.5 Q34 205 34 242 Q34 275 39 305.5 Q44 336 57 367 Q86 437 147 476 Q208 515 283 515 Q332 515 379.5 496.5 Q427 478 459 440 Q498 475 539.5 495 Q581 515 635 515 Q720 515 782.5 467.5 Q845 420 869 339 Q877 310 880 280.5 Q883 251 885 221 L526 221 Z M746 306 Q736 349 711 380 Q686 411 636 411 Q588 411 561 381 Q534 351 526 306 L746 306 Z M411 245 Q411 275 403 303 Q395 331 379 353.5 Q363 376 338.5 389.5 Q314 403 281 403 Q248 403 224 389.5 Q200 376 185 354 Q170 332 162.5 304 Q155 276 155 247 Q155 218 163 190.5 Q171 163 187 141.5 Q203 120 227 107 Q251 94 283 94 Q316 94 340 106.5 Q364 119 379.5 139.5 Q395 160 403 187.5 Q411 215 411 245 Z " />
<glyph glyph-name="Scaron" unicode="&#x160;" horiz-adv-x="667" d="M394 771 L276 771 L172 895 L292 895 L334 838 L377 895 L494 895 L394 771 Z M632 209 Q632 145 604.5 101.5 Q577 58 533 31.5 Q489 5 434.5 -6.5 Q380 -18 327 -18 Q258 -18 191 3.5 Q124 25 73 72 Q60 84 45.5 100.5 Q31 117 23 133 L134 210 Q139 202 144.5 195 Q150 188 156 181 Q193 139 244.5 121.5 Q296 104 351 104 Q373 104 397.5 108 Q422 112 442 122.5 Q462 133 475.5 151 Q489 169 489 196 Q489 222 475 238 Q461 254 440.5 263.5 Q420 273 396.5 278.5 Q373 284 353 288 L269 307 Q252 311 236 314.5 Q220 318 203 323 Q137 344 99 388 Q61 432 61 504 Q61 563 85.5 604.5 Q110 646 150 672.5 Q190 699 240 711.5 Q290 724 341 724 Q418 724 483.5 696.5 Q549 669 601 611 Q608 603 613.5 596 Q619 589 625 581 L516 500 Q483 551 441 578 Q399 605 336 605 Q317 605 293 601 Q269 597 248.5 587 Q228 577 214 560.5 Q200 544 200 519 Q200 495 213.5 480.5 Q227 466 247 457 Q267 448 289.5 443.5 Q312 439 330 435 Q380 424 433.5 411.5 Q487 399 531 376 Q575 353 603.5 313.5 Q632 274 632 209 Z " />
<glyph glyph-name="scaron" unicode="&#x161;" horiz-adv-x="521" d="M319 572 L205 572 L92 706 L213 706 L262 642 L311 706 L431 706 L319 572 Z M487 154 Q487 137 482 119.5 Q477 102 469 87 Q454 59 431 39.5 Q408 20 380 8 Q352 -4 321.5 -9.5 Q291 -15 261 -15 L258 -15 Q194 -15 131 7 Q68 29 22 75 L111 148 Q138 115 175.5 99.5 Q213 84 255 84 Q268 84 285 87 Q302 90 317.5 96.5 Q333 103 343.5 114.5 Q354 126 354 142 Q354 154 347.5 162.5 Q341 171 331 177 Q323 182 303.5 186.5 Q284 191 261.5 195.5 Q239 200 217.5 203.5 Q196 207 184 210 Q157 217 131.5 228.5 Q106 240 86.5 257 Q67 274 55.5 298 Q44 322 44 353 Q44 381 54.5 405 Q65 429 82.5 448 Q100 467 123 481 Q146 495 171 503 Q192 510 212.5 512.5 Q233 515 254 515 L259 515 Q322 515 377 492.5 Q432 470 474 422 L389 343 Q369 384 333 401.5 Q297 419 253 419 Q242 419 227.5 416.5 Q213 414 200.5 408.5 Q188 403 179 393.5 Q170 384 170 369 Q170 353 179 343.5 Q188 334 201.5 328 Q215 322 230 318.5 Q245 315 257 313 Q276 309 300.5 305.5 Q325 302 350 296.5 Q375 291 397.5 283 Q420 275 435 263 Q487 221 487 154 Z " />
<glyph glyph-name="Ydieresis" unicode="&#x178;" horiz-adv-x="625" d="M357 772 L357 895 L471 895 L471 772 L357 772 Z M157 772 L157 895 L269 895 L269 772 L157 772 Z M377 279 L377 0 L246 0 L246 279 L10 706 L160 706 L313 414 L467 706 L615 706 L377 279 Z " />
<glyph glyph-name="Zcaron" unicode="&#x17d;" horiz-adv-x="604" d="M363 771 L245 771 L141 895 L260 895 L303 838 L345 895 L463 895 L363 771 Z M24 0 L24 108 L410 588 L57 588 L57 706 L575 706 L575 594 L204 119 L575 119 L575 0 L24 0 Z " />
<glyph glyph-name="zcaron" unicode="&#x17e;" horiz-adv-x="500" d="M309 572 L194 572 L82 706 L203 706 L251 642 L300 706 L421 706 L309 572 Z M31 0 L31 92 L301 393 L58 393 L58 500 L459 500 L459 407 L195 106 L459 106 L459 0 L31 0 Z " />
<glyph glyph-name="florin" unicode="&#x192;" horiz-adv-x="437" d="M406 579 Q396 580 386.5 580.5 Q377 581 367 581 Q339 581 324 572.5 Q309 564 302.5 550 Q296 536 294.5 516.5 Q293 497 290 474 L394 474 L384 389 L280 389 L235 -1 Q232 -24 229 -48 Q226 -72 219 -94 Q212 -116 198.5 -134.5 Q185 -153 162 -165 Q148 -173 128.5 -176.5 Q109 -180 93 -180 Q86 -180 75.5 -179.5 Q65 -179 53.5 -177.5 Q42 -176 31.5 -174 Q21 -172 15 -169 L27 -63 Q36 -65 44.5 -66.5 Q53 -68 62 -68 Q67 -68 72.5 -67.5 Q78 -67 83 -64 Q92 -59 97 -48 Q102 -37 105 -24 Q108 -11 109.5 1.5 Q111 14 112 23 L155 389 L78 389 L88 474 L165 474 Q172 521 177.5 560 Q183 599 199 627 Q215 655 246.5 670.5 Q278 686 336 686 Q356 686 377 684 Q398 682 418 680 L406 579 Z " />
<glyph glyph-name="circumflex" unicode="&#x2c6;" horiz-adv-x="271" d="M183 572 L136 639 L86 572 L-35 572 L76 706 L194 706 L306 572 L183 572 Z " />
<glyph glyph-name="caron" unicode="&#x2c7;" horiz-adv-x="271" d="M193 572 L78 572 L-34 706 L87 706 L135 642 L184 706 L305 706 L193 572 Z " />
<glyph glyph-name="breve" unicode="&#x2d8;" horiz-adv-x="271" d="M283 706 Q267 646 233 610.5 Q199 575 132 575 Q69 575 34.5 612 Q0 649 -12 706 L76 706 Q81 680 95 666.5 Q109 653 137 653 Q164 653 177.5 667 Q191 681 196 706 L283 706 Z " />
<glyph glyph-name="dotaccent" unicode="&#x2d9;" horiz-adv-x="271" d="M68 586 L68 706 L203 706 L203 586 L68 586 Z " />
<glyph glyph-name="ring" unicode="&#x2da;" horiz-adv-x="271" d="M237 662 Q237 641 229 622.5 Q221 604 207.5 590 Q194 576 175.5 568 Q157 560 136 560 Q115 560 96.5 568 Q78 576 64 590 Q50 604 42 622.5 Q34 641 34 662 Q34 683 42 701.5 Q50 720 64 733.5 Q78 747 96.5 755 Q115 763 136 763 Q157 763 175.5 755 Q194 747 207.5 733.5 Q221 720 229 701.5 Q237 683 237 662 Z M177 661 Q177 678 164.5 690.5 Q152 703 135 703 Q117 703 105 691 Q93 679 93 661 Q93 644 105.5 631.5 Q118 619 135 619 Q152 619 164.5 631.5 Q177 644 177 661 Z " />
<glyph glyph-name="ogonek" unicode="&#x2db;" horiz-adv-x="271" d="M153 -197 Q133 -197 113.5 -193 Q94 -189 78.5 -179.5 Q63 -170 53.5 -154 Q44 -138 44 -114 Q44 -99 50.5 -82.5 Q57 -66 66.5 -50 Q76 -34 87.5 -19.5 Q99 -5 108 6 L192 6 Q178 -11 161 -30.5 Q144 -50 144 -73 Q144 -88 153 -95 Q162 -102 175 -104 Q188 -106 202.5 -105.5 Q217 -105 227 -105 L227 -197 L153 -197 Z " />
<glyph glyph-name="tilde" unicode="&#x2dc;" horiz-adv-x="271" d="M315 702 Q313 694 312 686 Q311 678 309 670 Q299 635 277 609 Q255 583 215 583 Q194 583 175 589 Q156 595 137.5 602.5 Q119 610 102 616 Q85 622 69 622 Q52 622 45 610 Q38 598 34 584 L-45 584 Q-42 597 -41 609 Q-40 621 -35 634 Q-24 665 0 687.5 Q24 710 59 710 Q79 710 97.5 704 Q116 698 134 691.5 Q152 685 168.5 679 Q185 673 200 673 Q219 673 225 682.5 Q231 692 237 706 L316 706 L315 702 Z " />
<glyph glyph-name="hungarumlaut" unicode="&#x2dd;" horiz-adv-x="271" d="M218 574 L129 574 L182 706 L314 706 L218 574 Z M46 574 L-43 574 L9 706 L142 706 L46 574 Z " />
<glyph glyph-name="Mu" unicode="&#x39c;" horiz-adv-x="583" d="M397 0 L397 52 Q392 47 389 43 Q386 39 381 34 Q353 6 333 -2.5 Q313 -11 282 -12 Q242 -13 221 3 Q200 19 183 39 L183 -163 L62 -163 L62 500 L183 500 L183 242 Q183 218 186.5 193 Q190 168 201 147.5 Q212 127 233 114 Q254 101 289 101 Q312 101 327.5 107 Q343 113 353 121 Q380 142 388.5 176.5 Q397 211 397 264 L397 500 L517 500 L517 0 L397 0 Z " />
<glyph glyph-name="pi" unicode="&#x3c0;" horiz-adv-x="627" d="M589 0 Q573 -1 561 -1 Q549 -1 539 -1 Q498 -1 475.5 5 Q453 11 436 26 Q413 46 406 76 Q403 89 402 101.5 Q401 114 401 142 L401 393 L218 393 L218 0 L97 0 L97 390 L41 390 L41 500 L573 500 L573 397 L519 397 L519 166 Q519 140 520 132 Q521 124 526 116 Q531 108 541 103 Q548 100 554 99 Q560 98 578 98 L589 97 L589 0 Z " />
<glyph glyph-name="endash" unicode="&#x2013;" horiz-adv-x="610" d="M41 247 L41 360 L569 360 L569 247 L41 247 Z " />
<glyph glyph-name="emdash" unicode="&#x2014;" horiz-adv-x="893" d="M41 247 L41 360 L852 360 L852 247 L41 247 Z " />
<glyph glyph-name="quoteleft" unicode="&#x2018;" horiz-adv-x="208" d="M36 433 L36 583 Q36 593 36.5 604.5 Q37 616 40 625 Q52 663 87.5 684 Q123 705 161 709 L161 650 Q127 646 117 622.5 Q107 599 107 570 L169 570 L169 433 L36 433 Z " />
<glyph glyph-name="quoteright" unicode="&#x2019;" horiz-adv-x="208" d="M170 557 Q170 500 135 468.5 Q100 437 46 429 L46 485 Q72 496 85.5 508.5 Q99 521 99 553 Q99 557 99 561 Q99 565 98 569 L39 569 L39 706 L170 706 L170 557 Z " />
<glyph glyph-name="quotesinglbase" unicode="&#x201a;" horiz-adv-x="208" d="M170 -14 Q170 -68 141.5 -95 Q113 -122 62 -135 Q52 -137 45 -139 L45 -81 Q80 -77 89.5 -53 Q99 -29 99 0 L37 0 L37 137 L170 137 L170 -10 L170 -14 Z " />
<glyph glyph-name="quotedblleft" unicode="&#x201c;" horiz-adv-x="375" d="M208 436 L208 588 Q208 620 216 641.5 Q224 663 250 683 Q268 697 288.5 703 Q309 709 331 711 L331 658 Q313 651 302 644.5 Q291 638 285 629.5 Q279 621 277.5 608 Q276 595 276 574 L338 574 L338 436 L208 436 Z M37 436 L37 581 Q37 644 67.5 673.5 Q98 703 158 715 L158 659 Q139 651 128.5 644 Q118 637 113.5 628 Q109 619 108 606.5 Q107 594 107 574 L167 574 L167 436 L37 436 Z " />
<glyph glyph-name="quotedblright" unicode="&#x201d;" horiz-adv-x="375" d="M338 563 Q338 500 308 468.5 Q278 437 216 426 L216 482 Q235 488 245.5 495.5 Q256 503 261 512.5 Q266 522 267 535.5 Q268 549 268 567 L208 567 L208 706 L338 706 L338 563 Z M167 551 Q167 520 158.5 499 Q150 478 125 459 Q108 446 87 438 Q66 430 44 431 L44 484 Q99 498 99 553 Q99 557 98.5 560 Q98 563 98 567 L37 567 L37 706 L167 706 L167 551 Z " />
<glyph glyph-name="quotedblbase" unicode="&#x201e;" horiz-adv-x="375" d="M338 -5 Q338 -68 308.5 -99.5 Q279 -131 216 -142 L216 -86 Q243 -77 255.5 -63.5 Q268 -50 268 -21 L268 0 L208 0 L208 139 L338 139 L338 -5 Z M167 -7 Q167 -20 166.5 -35.5 Q166 -51 161 -62 Q147 -96 113.5 -116.5 Q80 -137 44 -137 L44 -84 Q99 -70 99 -14 Q99 -10 98.5 -7 Q98 -4 98 0 L37 0 L37 139 L167 139 L167 -7 Z " />
<glyph glyph-name="dagger" unicode="&#x2020;" horiz-adv-x="542" d="M335 366 L335 -44 L209 -44 L209 366 L40 366 L40 478 L209 478 L209 706 L335 706 L335 478 L503 478 L503 366 L335 366 Z " />
<glyph glyph-name="daggerdbl" unicode="&#x2021;" horiz-adv-x="500" d="M310 427 L310 230 L469 230 L469 128 L308 128 L308 -47 L190 -47 L190 129 L29 129 L29 230 L192 230 L192 428 L29 428 L29 530 L192 530 L192 706 L311 706 L311 530 L472 530 L472 427 L310 427 Z " />
<glyph glyph-name="bullet" unicode="&#x2022;" horiz-adv-x="333" d="M47 233 L47 471 L286 471 L286 233 L47 233 Z " />
<glyph glyph-name="ellipsis" unicode="&#x2026;" horiz-adv-x="1000" d="M777 0 L777 111 L890 111 L890 0 L777 0 Z M444 0 L444 111 L556 111 L556 0 L444 0 Z M110 0 L110 111 L222 111 L222 0 L110 0 Z " />
<glyph glyph-name="perthousand" unicode="&#x2030;" horiz-adv-x="1250" d="M1225 219 Q1225 177 1218 136.5 Q1211 96 1192 64 Q1173 32 1141.5 12.5 Q1110 -7 1060 -7 Q1036 -7 1014 -0.5 Q992 6 972 20 Q949 37 934.5 59 Q920 81 912 106 Q904 131 901.5 158 Q899 185 899 212 Q899 254 906 296 Q913 338 931.5 372 Q950 406 982.5 427.5 Q1015 449 1065 449 Q1115 449 1146 428.5 Q1177 408 1194.5 375 Q1212 342 1218.5 301 Q1225 260 1225 219 Z M850 214 Q850 184 847 154.5 Q844 125 833 97 Q815 49 778.5 21 Q742 -7 689 -7 Q643 -7 612 10.5 Q581 28 561.5 57 Q542 86 533.5 123 Q525 160 525 200 Q525 228 525.5 255.5 Q526 283 532 310 Q546 371 586 410 Q626 449 692 449 Q718 449 742 440.5 Q766 432 786 415 Q807 397 819.5 374.5 Q832 352 838.5 327 Q845 302 847.5 275.5 Q850 249 850 223 L850 214 Z M307 -37 L238 -6 L553 678 L621 646 L307 -37 Z M351 448 Q351 419 348 390.5 Q345 362 336 335 Q319 284 281.5 254.5 Q244 225 189 225 Q141 225 109.5 244 Q78 263 59.5 294 Q41 325 33.5 364.5 Q26 404 26 444 Q26 474 28.5 504.5 Q31 535 39 563 Q47 591 63 615.5 Q79 640 107 658 Q125 670 147 675.5 Q169 681 190 681 Q240 681 271.5 660 Q303 639 320.5 605.5 Q338 572 344.5 530.5 Q351 489 351 448 Z M1136 203 Q1136 223 1135.5 252 Q1135 281 1128.5 308 Q1122 335 1107 354 Q1092 373 1063 373 Q1037 373 1022.5 357 Q1008 341 1001 317.5 Q994 294 992.5 268.5 Q991 243 991 224 Q991 205 992 178.5 Q993 152 999.5 128 Q1006 104 1020.5 87.5 Q1035 71 1063 71 Q1088 71 1102.5 84.5 Q1117 98 1124.5 118 Q1132 138 1134 161 Q1136 184 1136 203 Z M760 205 Q760 225 759.5 253.5 Q759 282 753 308 Q747 334 732 353 Q717 372 688 372 Q661 372 646 354.5 Q631 337 624 312.5 Q617 288 616 261.5 Q615 235 615 216 Q615 198 616.5 172.5 Q618 147 625 124.5 Q632 102 646.5 86 Q661 70 687 70 Q712 70 726.5 84 Q741 98 748.5 119 Q756 140 758 163.5 Q760 187 760 205 Z M261 442 Q261 462 260.5 490 Q260 518 253.5 543.5 Q247 569 231.5 587 Q216 605 187 605 Q160 605 145.5 586.5 Q131 568 124.5 542 Q118 516 117 488 Q116 460 116 442 Q116 423 118 399 Q120 375 127.5 353.5 Q135 332 149.5 317.5 Q164 303 190 303 Q215 303 229 318 Q243 333 250 354.5 Q257 376 259 400 Q261 424 261 442 Z " />
<glyph glyph-name="guilsinglleft" unicode="&#x2039;" horiz-adv-x="250" d="M56 244 L56 385 L198 499 L198 385 L112 314 L198 244 L198 132 L56 244 Z " />
<glyph glyph-name="guilsinglright" unicode="&#x203a;" horiz-adv-x="250" d="M50 129 L50 242 L136 314 L50 383 L50 496 L192 383 L192 242 L50 129 Z " />
<glyph glyph-name="fraction" unicode="&#x2044;" horiz-adv-x="125" d="M-101 0 L-145 24 L230 714 L276 690 L-101 0 Z " />
<glyph glyph-name="Euro" unicode="&#x20ac;" horiz-adv-x="698" d="M619 488 Q584 534 544 556 Q504 578 445 578 Q374 578 325 541.5 Q276 505 257 436 L602 436 L575 364 L247 364 Q246 359 246 354.5 Q246 350 246 345 Q246 340 246 334.5 Q246 329 247 324 L563 324 L536 252 L256 252 Q276 180 324.5 140.5 Q373 101 449 101 Q505 101 556 124 Q607 147 644 189 L644 40 Q596 8 543.5 -6.5 Q491 -21 434 -21 Q299 -21 218.5 50.5 Q138 122 111 252 L33 252 L60 324 L103 324 L105 364 L33 364 L60 436 L113 436 Q142 560 226.5 627.5 Q311 695 438 695 Q506 695 558.5 679.5 Q611 664 665 621 L619 488 Z " />
<glyph glyph-name="trademark" unicode="&#x2122;" horiz-adv-x="687" d="M562 374 L563 637 L495 374 L437 374 L367 641 L371 374 L303 374 L304 706 L410 706 L467 473 L522 706 L627 706 L628 374 L562 374 Z M174 648 L174 374 L102 374 L102 648 L8 648 L8 706 L262 706 L262 648 L174 648 Z " />
<glyph glyph-name="Omega" unicode="&#x2126;" horiz-adv-x="756" d="M424 0 L424 108 Q451 122 464.5 132.5 Q478 143 492 160 Q520 195 536 253.5 Q552 312 552 378 Q552 486 506.5 547.5 Q461 609 382 609 Q297 609 249.5 545 Q202 481 202 366 Q202 297 220 237 Q234 193 259 160 Q273 142 287.5 131.5 Q302 121 331 107 L331 0 L44 0 L44 106 L214 106 Q138 145 99 217.5 Q60 290 60 390 Q60 464 83.5 525.5 Q107 587 149 631 Q191 675 250 699.5 Q309 724 380 724 Q394 724 410 723 Q426 722 443 720 Q485 714 514.5 702 Q544 690 573 669 Q691 581 691 414 Q691 365 680 313 Q669 261 649 223 Q609 147 536 106 L711 106 L711 0 L424 0 Z " />
<glyph glyph-name="partialdiff" unicode="&#x2202;" horiz-adv-x="556" d="M502 375 Q502 178 440.5 82.5 Q379 -13 251 -13 Q203 -13 163.5 2.5 Q124 18 96 46.5 Q68 75 52.5 115 Q37 155 37 203 Q37 255 52.5 297.5 Q68 340 96 370.5 Q124 401 163 418 Q202 435 250 435 Q287 435 316.5 425.5 Q346 416 375 394 L375 404 Q375 613 249 613 Q230 613 209.5 609.5 Q189 606 155 596 L140 699 Q172 709 206 714.5 Q240 720 272 720 Q390 720 446 636.5 Q502 553 502 375 Z M367 286 Q321 332 265 332 Q218 332 191 298 Q164 264 164 205 Q164 151 189.5 120 Q215 89 259 89 Q313 89 339 136.5 Q365 184 367 286 Z " />
<glyph glyph-name="Delta" unicode="&#x2206;" horiz-adv-x="696" d="M-2 0 L273 706 L427 706 L698 0 L-2 0 Z M347 561 L189 119 L509 119 L347 561 Z " />
<glyph glyph-name="product" unicode="&#x220f;" horiz-adv-x="725" d="M513 -122 L513 589 L210 589 L210 -122 L78 -122 L78 706 L647 706 L647 -122 L513 -122 Z " />
<glyph glyph-name="summation" unicode="&#x2211;" horiz-adv-x="605" d="M27 -122 L27 -16 L283 298 L27 598 L27 706 L581 706 L581 588 L192 588 L447 302 L184 -3 L581 -3 L581 -122 L27 -122 Z " />
<glyph glyph-name="minus" unicode="&#x2212;" horiz-adv-x="724" d="M80 256 L80 369 L645 369 L645 256 L80 256 Z " />
<glyph glyph-name="radical" unicode="&#x221a;" horiz-adv-x="724" d="M407 -185 L283 -185 L158 88 L88 60 L46 162 L228 235 L338 -21 L533 706 L664 706 L407 -185 Z " />
<glyph glyph-name="infinity" unicode="&#x221e;" horiz-adv-x="724" d="M693 317 Q693 272 680.5 234 Q668 196 646 169 Q624 142 593 126.5 Q562 111 526 111 Q483 111 451 128 Q430 139 413 155 Q397 169 386.5 182 Q376 195 357 221 L350 212 Q329 185 316.5 170.5 Q304 156 288 144 Q245 110 192 110 Q156 110 126.5 124.5 Q97 139 75.5 165 Q54 191 42.5 227.5 Q31 264 31 309 Q31 353 43.5 390.5 Q56 428 78.5 455 Q101 482 131.5 497.5 Q162 513 198 513 Q233 513 262 500 Q282 491 304 473 Q321 458 333 443 Q345 428 364 399 Q374 413 381 422.5 Q388 432 394 439.5 Q400 447 406 453 Q412 459 419 466 Q442 489 471.5 501.5 Q501 514 531 514 Q566 514 596 499.5 Q626 485 647.5 458.5 Q669 432 681 396 Q693 360 693 317 Z M592 309 Q592 350 574.5 375.5 Q557 401 530 401 Q507 401 483 380 Q459 359 427 311 Q457 260 480.5 238.5 Q504 217 528 217 Q556 217 574 242.5 Q592 268 592 309 Z M298 310 Q268 361 244.5 382.5 Q221 404 197 404 Q169 404 151 378.5 Q133 353 133 312 Q133 270 150.5 244.5 Q168 219 196 219 Q219 219 241.5 239.5 Q264 260 298 310 Z " />
<glyph glyph-name="integral" unicode="&#x222b;" horiz-adv-x="359" d="M331 595 Q302 616 281 616 Q266 616 254 606 Q246 598 243 585 Q240 572 240 540 L240 510 L240 30 L240 -19 Q239 -27 239 -36 Q239 -45 237 -54 Q235 -77 231.5 -91.5 Q228 -106 220 -119 Q204 -146 173.5 -161 Q143 -176 104 -176 Q83 -176 65.5 -173 Q48 -170 26 -162 L26 -53 Q43 -64 53 -68 Q63 -72 74 -72 Q92 -72 101 -63 Q109 -55 112 -42 Q115 -29 115 3 L115 42 L113 518 L113 523 Q113 553 114 575 Q115 597 117.5 612.5 Q120 628 123.5 639.5 Q127 651 133 661 Q149 688 181 703 Q213 718 255 718 Q275 718 292.5 715 Q310 712 331 704 L331 595 Z " />
<glyph glyph-name="approxequal" unicode="&#x2248;" horiz-adv-x="724" d="M653 418 Q630 390 615 377 Q600 364 580 351 Q535 322 488 322 Q465 322 438.5 330 Q412 338 367 359 L332 375 Q297 391 273.5 398 Q250 405 228 405 Q210 405 195 399 Q178 392 164 380.5 Q150 369 126 340 L116 328 L72 425 Q91 450 101 461 Q111 472 125 484 Q148 502 174.5 512 Q201 522 230 522 Q243 522 255 520.5 Q267 519 281.5 514.5 Q296 510 314 503 Q332 496 357 485 L408 463 Q443 448 458 443.5 Q473 439 487 439 Q522 439 553 460 Q567 470 577.5 480 Q588 490 608 513 L653 418 Z M653 200 Q629 173 614.5 159.5 Q600 146 580 133 Q534 105 488 105 Q465 105 438.5 113 Q412 121 367 142 L332 158 Q297 174 273.5 180.5 Q250 187 228 187 Q208 187 195 182 Q178 176 165 163 Q152 150 126 122 L116 111 L72 208 Q91 232 101 243.5 Q111 255 125 267 Q171 304 230 304 Q243 304 255 302.5 Q267 301 281.5 297 Q296 293 314.5 286 Q333 279 357 268 L408 245 Q442 230 457.5 225.5 Q473 221 487 221 Q504 221 521.5 227 Q539 233 553 243 Q567 253 577.5 263 Q588 273 608 296 L653 200 Z " />
<glyph glyph-name="notequal" unicode="&#x2260;" horiz-adv-x="724" d="M339 148 L264 -6 L161 -6 L236 148 L99 148 L99 254 L289 254 L335 350 L99 350 L99 457 L388 457 L460 602 L563 602 L491 457 L625 457 L625 350 L438 350 L391 254 L625 254 L625 148 L339 148 Z " />
<glyph glyph-name="lessequal" unicode="&#x2264;" horiz-adv-x="724" d="M126 360 L126 483 L591 689 L591 566 L242 421 L591 273 L591 141 L126 360 Z M126 0 L126 107 L591 107 L591 0 L126 0 Z " />
<glyph glyph-name="greaterequal" unicode="&#x2265;" horiz-adv-x="724" d="M133 141 L133 264 L481 408 L133 556 L133 689 L598 470 L598 346 L133 141 Z M133 0 L133 107 L598 107 L598 0 L133 0 Z " />
<glyph glyph-name="lozenge" unicode="&#x25ca;" horiz-adv-x="724" d="M424 0 L300 0 L117 353 L303 706 L427 706 L607 353 L424 0 Z M366 601 L241 353 L360 107 L485 354 L366 601 Z " />
<glyph glyph-name="fi" unicode="&#xfb01;" horiz-adv-x="562" d="M377 578 L377 699 L497 699 L497 578 L377 578 Z M377 0 L377 500 L497 500 L497 0 L377 0 Z M199 415 L199 0 L79 0 L79 415 L4 415 L4 500 L79 500 L79 568 Q79 610 89 637 Q99 664 119 679.5 Q139 695 169.5 701 Q200 707 240 707 Q257 707 274 705.5 Q291 704 308 702 L308 600 Q298 602 288.5 602.5 Q279 603 269 603 Q240 603 225.5 595 Q211 587 205 573.5 Q199 560 199 541 Q199 522 199 500 L308 500 L308 415 L199 415 Z " />
<glyph glyph-name="fl" unicode="&#xfb02;" horiz-adv-x="562" d="M378 0 L378 706 L499 706 L499 0 L378 0 Z M199 415 L199 0 L79 0 L79 415 L4 415 L4 500 L79 500 L79 568 Q79 610 89 637 Q99 664 119 679.5 Q139 695 169.5 701 Q200 707 240 707 Q257 707 274 705.5 Q291 704 308 702 L308 600 Q298 602 288.5 602.5 Q279 603 269 603 Q240 603 225.5 595 Q211 587 205 573.5 Q199 560 199 541 Q199 522 199 500 L308 500 L308 415 L199 415 Z " />
</font>
</svg>
